<svg width="650" height="650" viewBox="0 0 650 650" fill="none" xmlns="http://www.w3.org/2000/svg">
<circle cx="325" cy="325" r="325" fill="#FFD11C"/>
<circle cx="325" cy="325" r="275" fill="#FFE681"/>
<mask id="mask0" mask-type="alpha" maskUnits="userSpaceOnUse" x="50" y="50" width="550" height="550">
<circle cx="325" cy="325" r="275" fill="#FFE681"/>
</mask>
<g mask="url(#mask0)">
<path d="M279.5 469.5L285.5 468.5" stroke="black"/>
<path d="M293 513.5L304.5 520M365.5 514.5L354.5 520M262.5 543L334.5 541H394M268.5 528.5H388.5M276.5 514H295M361 517H379.5M198.927 383.437C198.927 402.324 174.291 412.816 156.118 422.469M156.925 422.049C114.116 445.972 107.25 507.247 102 542.921M149.656 227.311C154.853 218.586 163.894 208.011 175.503 199.611C187.347 191.041 201.833 184.722 214.274 183.662M213.466 183.662C259.507 179.046 265.565 199.191 285.354 224.373C287.373 226.891 290.2 227.859 292.352 229.409C315.644 246.197 312.505 262.228 313.624 283.55M313.624 283.13C313.624 294.882 328.971 308.732 333.414 328.457C343.106 371.266 300.701 377.142 273.642 364.971M168.637 328.457C168.887 329.417 169.142 330.364 169.402 331.299M169.402 331.299C195.859 426.44 273.473 396.34 282.06 330.756M169.402 331.299C170.336 331.362 171.292 331.395 172.272 331.395M169.402 331.299C137.355 329.106 132.961 290.223 168.707 280.284M282.06 330.756C282.25 329.307 282.406 327.841 282.527 326.359M282.06 330.756C281.29 330.715 280.503 330.648 279.7 330.556M282.06 330.756C316.171 332.569 318.484 284.763 283.335 282.711M257.891 238.223C257.945 238.223 257.999 238.223 258.052 238.224M258.052 238.224C273.705 238.443 282.931 270.597 282.931 287.327M258.052 238.224C233.939 238.448 215.398 271.918 168.707 280.284M258.052 238.224C258.133 238.223 258.214 238.223 258.295 238.223M168.707 280.284C168.818 280.253 168.929 280.223 169.041 280.192M150.06 226.891C143.598 235.705 141.175 247.456 139.963 259.627C138.752 271.798 131.482 289.006 126.232 300.338C120.982 311.669 117.347 318.804 115.327 324.26C113.308 329.716 112.099 339.464 115.327 348.183C118.301 356.213 129.059 364.971 129.059 364.971C135.521 369.587 142.288 372.113 150.867 373.365C159.447 374.616 174.317 370.495 181.157 364.971M250.622 385.116C253.853 406.101 273.642 411.977 283.335 415.334M281.315 414.914C287.357 414.914 294.422 414.761 299.085 413.236C309.073 409.969 314.212 403.423 318.067 399.805C323.721 394.498 313.338 411.434 303.124 423.308C297.44 429.916 314.895 428.248 330.99 418.692C348.356 410.718 355.978 393.51 356.838 397.707C357.697 401.904 356.38 411.092 360.876 417.433C365.032 423.293 371.377 427.086 376.223 427.086M280.507 469.895C280.507 469.895 287.354 497.318 296.662 506.828C305.163 515.513 311.143 517.455 322.913 519.419M322.913 519.419C325.73 519.889 329.017 520.022 332.202 519.94M322.913 519.419C322.913 519.419 328.57 520.008 332.202 519.94M377.435 469.895C377.435 469.895 376.627 480.387 372.184 491.299C369.056 498.984 362.21 508.087 354.414 513.123C350.052 515.941 347.898 517.875 341.895 518.999M332.202 519.94C332.473 519.933 332.743 519.925 333.012 519.915M332.202 519.94C332.463 519.935 332.734 519.927 333.012 519.915M333.012 519.915C336.37 519.791 339.558 519.436 341.895 518.999M333.012 519.915C336.784 519.754 341.895 518.999 341.895 518.999M280.911 414.495C286.162 382.598 312.078 373.62 334.625 375.463C364.643 377.917 377.052 397.682 378.646 417.852M380.665 434.22C380.665 436.319 381.877 436.319 383.896 436.739C387.28 437.442 389.584 438.347 392.781 442.195C395.857 445.895 396.012 450.589 396.012 453.946C396.012 459.671 393.905 464.54 390.358 468.635C386.812 472.731 382.281 474.931 374.608 474.091M380.665 434.22C380.317 433.677 380.026 433.02 379.785 432.284M380.665 434.22C380.319 434.22 380.028 433.467 379.785 432.284M378.646 417.852C378.646 420.727 378.35 427.907 379.785 432.284M378.646 417.852C378.646 417.852 378.895 427.951 379.785 432.284M278.488 433.381C277.491 435.207 274.702 435.293 273.238 436.739C271.081 438.869 270.591 438.417 268.392 440.936C265.675 444.047 265.389 446.439 264.757 450.589C264.264 453.826 264.125 456.19 264.757 459.402L264.761 459.425C265.451 462.935 265.924 465.341 267.988 468.216C269.992 471.009 271.679 472.548 274.853 473.672C277.541 474.623 282.123 473.672 282.123 473.672M278.488 433.381C279.847 430.892 279.018 427.531 279.219 423.842M278.488 433.381L278.892 427.925L279.219 423.842M281.315 412.396C281.315 412.396 279.78 418.378 279.296 422.889M279.296 422.889C279.262 423.209 279.237 423.527 279.219 423.842M279.296 422.889L279.219 423.842M287.777 497.594C270.815 518.579 253.045 542.082 253.045 600L402.878 598.321C404.897 559.709 390.358 518.999 368.146 499.693M362.492 286.068C362.492 286.068 359.835 283.627 358.101 279.353C354.358 270.129 352.856 257.17 356.434 247.876C361.28 235.285 366.091 228.15 368.55 225.212M368.55 225.212C371.008 222.274 372.893 219.401 376.627 215.559M368.55 225.212L376.627 215.559M449.322 195.414C442.324 192.953 444.874 193.455 437.61 192.056C431.067 190.797 426.836 190.692 420.244 191.637C408.532 193.315 403.788 195.67 394.397 201.29C388.185 205.007 381.569 210.474 376.627 215.559M449.322 195.414C450.969 195.993 454.168 197.406 456.996 199.191M449.322 195.414L456.996 199.191M456.996 199.191C460.173 201.197 463.393 204.031 465.073 205.067C469.292 207.67 469.111 208.005 473.15 210.523C479.33 214.376 477.46 212.563 483.651 216.399C488.013 219.102 488.901 219.337 493.343 222.274C497.382 224.945 502.33 229.138 504.651 234.446C506.671 239.062 507.075 239.482 507.882 242C508.912 245.21 509.902 247.876 510.709 252.492C511.504 257.035 511.44 259.049 511.517 262.985C511.591 266.754 511.689 268.496 511.113 272.218C510.803 274.22 510.711 275.41 509.902 277.254C509.012 279.283 508.189 280.296 506.671 281.871C505.799 282.776 504.248 283.97 504.248 283.97M470.323 227.73C470.323 227.73 444.072 232.347 425.898 244.518C412.108 253.754 408.889 256.618 396.012 267.182C388.339 273.477 377.435 281.451 362.088 287.327C359.825 288.193 359.665 288.586 357.645 290.265M352.395 297.82C350.976 302.338 350.778 307.411 351.587 312.089C352.391 316.734 353.567 319.341 356.434 323.001C358.864 326.105 360.866 327.198 364.107 328.877C366.519 330.126 367.926 330.425 370.569 330.975C373.816 331.653 377.822 331.653 381.069 330.975M352.395 297.82C352.955 296.036 354.021 294.378 355.158 292.966M352.395 297.82C353.04 295.766 353.985 294.34 355.158 292.966M357.645 290.265C356.898 290.993 356.008 291.91 355.158 292.966M357.645 290.265C356.737 291.243 355.902 292.094 355.158 292.966M379.05 409.039C392.781 406.94 404.09 395.189 406.917 386.375M466.688 224.793C466.688 224.793 469.166 259.627 484.054 273.477C491.57 280.468 499.401 283.97 505.863 286.068C512.325 288.167 516.605 292.161 519.191 299.079C521.361 304.884 521.943 308.588 520.402 314.607C518.968 320.207 516.57 324.28 512.325 328.038C509.264 330.747 507.371 331.777 503.44 332.654C499.893 333.445 494.871 333.445 491.324 332.654M376.223 328.457C410.955 433.381 479.208 403.583 495.363 328.457M461.842 386.795C469.515 406.94 501.07 414.914 515.152 426.666C545.442 451.943 549.884 474.511 562 566.005M254.5 581.5L400 579.5M254.5 573L400 571M254.5 556.5L400 554.5M254.5 565L400 563M254.5 591.5L400 589.5M267.5 535H389M261.5 549.5L394.5 547.5M275 521H381M283 507H293M362.5 509.5H374" stroke="black" stroke-width="12"/>
<path d="M373.107 469.847C373.143 469.847 373.178 469.847 373.214 469.847C373.24 469.847 373.178 469.833 373.166 469.828C373.123 469.809 373.064 469.8 373.027 469.771C373.017 469.762 373.023 469.724 373.023 469.71" stroke="black" stroke-linecap="round" stroke-linejoin="round"/>
<path d="M375.431 469.649C375.34 469.649 375.242 469.645 375.155 469.641C375.127 469.64 375.103 469.634 375.078 469.634C374.96 469.634 374.84 469.615 374.721 469.611C374.67 469.609 374.62 469.604 374.57 469.603C374.499 469.602 374.427 469.58 374.358 469.58C374.239 469.58 374.104 469.583 373.986 469.567C373.917 469.557 373.847 469.56 373.779 469.55C373.756 469.547 373.731 469.536 373.709 469.535C373.642 469.53 373.569 469.515 373.504 469.512C373.446 469.509 373.384 469.512 373.327 469.502C373.245 469.489 373.167 469.484 373.084 469.481C373.063 469.481 372.956 469.468 372.947 469.451" stroke="black" stroke-linecap="round" stroke-linejoin="round"/>
<path d="M280.526 326.503C280.462 326.513 280.269 326.511 280.297 326.414C280.313 326.358 280.329 326.302 280.329 326.243C280.329 326.198 280.316 326.161 280.285 326.131C280.272 326.117 280.241 326.133 280.225 326.113C280.219 326.106 280.191 326.097 280.181 326.089C280.148 326.065 280.061 326.095 280.021 326.082C279.963 326.062 279.874 326.056 279.814 326.056C279.697 326.056 279.584 326.05 279.471 326.025C279.226 325.971 278.973 325.962 278.721 325.962C278.643 325.962 278.566 325.952 278.49 325.952C278.436 325.952 278.391 325.934 278.342 325.931C278.313 325.929 278.04 325.897 278.04 325.9" stroke="black" stroke-linecap="round" stroke-linejoin="round"/>
<path d="M278.429 287.222C278.431 287.313 278.517 287.251 278.574 287.251C278.66 287.251 278.755 287.238 278.84 287.251C279.029 287.28 279.226 287.239 279.415 287.268C279.642 287.303 279.887 287.28 280.117 287.28C280.335 287.28 280.553 287.287 280.77 287.256C280.911 287.235 281.061 287.241 281.204 287.241C281.319 287.241 281.437 287.248 281.552 287.241C281.577 287.24 281.574 287.228 281.576 287.227C281.606 287.21 281.655 287.225 281.687 287.217C281.805 287.187 281.941 287.229 282.057 287.195C282.137 287.171 282.261 287.193 282.343 287.193C282.439 287.193 282.535 287.193 282.631 287.193C282.667 287.193 282.702 287.182 282.74 287.183C282.769 287.184 282.802 287.205 282.831 287.201C282.841 287.199 282.843 287.186 282.856 287.184C282.883 287.18 282.912 287.183 282.939 287.183C283.16 287.183 283.378 287.227 283.593 287.27" stroke="black" stroke-linecap="round" stroke-linejoin="round"/>
<path d="M380.585 327.288C380.549 327.252 380.498 327.216 380.498 327.159C380.498 327.119 380.483 327.093 380.474 327.055C380.466 327.016 380.442 326.981 380.432 326.942C380.422 326.901 380.404 326.862 380.396 326.821C380.388 326.781 380.38 326.74 380.366 326.702C380.358 326.679 380.341 326.652 380.341 326.628C380.341 326.61 380.333 326.594 380.332 326.577C380.331 326.573 380.328 326.547 380.325 326.545C380.319 326.54 380.322 326.477 380.322 326.508" stroke="black" stroke-linecap="round" stroke-linejoin="round"/>
<path d="M380.336 326.517C380.336 326.56 380.334 326.594 380.351 326.632C380.356 326.644 380.352 326.654 380.356 326.666C380.36 326.679 380.366 326.69 380.369 326.704C380.377 326.743 380.393 326.785 380.409 326.822C380.423 326.853 380.432 326.886 380.449 326.916C380.459 326.933 380.465 326.954 380.47 326.972C380.474 326.985 380.5 327.027 380.475 326.997" stroke="black" stroke-linecap="round" stroke-linejoin="round"/>
<path d="M380.382 326.6C380.387 326.626 380.398 326.646 380.409 326.669C380.415 326.682 380.413 326.696 380.421 326.708C380.43 326.722 380.434 326.758 380.445 326.766C380.457 326.776 380.464 326.821 380.469 326.836C380.477 326.861 380.479 326.89 380.489 326.914C380.498 326.935 380.507 326.967 380.507 326.99C380.507 327.033 380.532 327.08 380.539 327.123C380.548 327.184 380.544 327.245 380.553 327.306C380.559 327.343 380.556 327.382 380.563 327.419C380.567 327.444 380.575 327.456 380.553 327.426" stroke="black" stroke-linecap="round" stroke-linejoin="round"/>
<path d="M471.162 225.219C471.162 224.995 471.182 224.761 471.118 224.544C471.079 224.413 471.043 224.314 471.043 224.175C471.043 224.002 471.012 223.847 470.972 223.684C470.941 223.556 470.924 223.423 470.924 223.293C470.924 223.229 470.917 223.145 470.889 223.089" stroke="black" stroke-linecap="round" stroke-linejoin="round"/>
<path d="M469.092 223.363C469.419 223.363 469.73 223.271 470.056 223.234C470.142 223.225 470.247 223.202 470.325 223.166C470.483 223.092 470.673 223.058 470.84 223.012C470.877 223.001 470.865 223.038 470.865 223.065C470.865 223.102 470.895 223.15 470.91 223.184C470.964 223.313 470.962 223.455 470.996 223.589C471.045 223.78 471.068 223.98 471.086 224.177C471.098 224.296 471.132 224.413 471.139 224.532C471.144 224.613 471.163 224.851 471.186 224.772C471.197 224.731 471.188 224.669 471.186 224.627C471.186 224.607 471.166 224.6 471.163 224.582C471.161 224.568 471.169 224.544 471.16 224.532C471.125 224.483 471.129 224.388 471.118 224.329C471.08 224.13 471.039 223.929 471.007 223.724C470.992 223.627 470.958 223.531 470.939 223.434C470.932 223.398 470.913 223.29 470.913 223.327C470.913 223.435 470.949 223.538 470.993 223.636C471.036 223.732 471.057 223.839 471.096 223.937C471.124 224.006 471.144 224.069 471.162 224.145C471.191 224.271 471.198 224.411 471.198 224.54C471.198 224.591 471.198 224.557 471.198 224.529C471.198 224.466 471.19 224.401 471.172 224.341C471.138 224.228 471.136 224.114 471.109 224C471.085 223.898 471.079 223.791 471.053 223.689C471.034 223.617 471.05 223.534 471.022 223.464C471.006 223.424 471.023 223.364 471.019 223.32C471.016 223.286 471.024 223.186 471.002 223.16C470.979 223.132 470.972 223.019 470.972 222.981C470.972 222.956 470.961 222.903 470.948 222.951C470.935 222.994 470.731 222.999 470.701 223.008C470.581 223.044 470.451 223.048 470.329 223.077C469.979 223.161 469.62 223.229 469.275 223.334C468.988 223.421 468.685 223.52 468.425 223.672C468.31 223.739 468.183 223.802 468.056 223.845C468.039 223.851 467.997 223.873 467.98 223.873C467.931 223.873 468.076 223.855 468.125 223.851C468.288 223.835 468.451 223.832 468.614 223.815C468.926 223.782 469.238 223.747 469.551 223.72C469.85 223.695 470.146 223.66 470.444 223.627C470.516 223.619 470.63 223.585 470.703 223.601C470.739 223.609 470.669 223.669 470.664 223.672C470.422 223.809 470.135 223.898 469.872 223.983C469.646 224.055 468.97 224.272 469.196 224.202C469.304 224.168 469.434 224.183 469.545 224.178C469.651 224.173 469.757 224.172 469.863 224.172C469.962 224.172 470.058 224.199 470.156 224.217C470.235 224.231 470.305 224.264 470.38 224.282C470.436 224.295 470.52 224.352 470.436 224.279" stroke="black" stroke-linecap="round" stroke-linejoin="round"/>
</g>
<path d="M471.5 221.5L467 223" stroke="black"/>
<path d="M471.5 221C472 223 472.5 225 472 227" stroke="black"/>
<path d="M172.54 327.391C172.811 327.442 173.073 327.264 173.125 326.993C173.177 326.722 172.999 326.46 172.727 326.408L172.54 327.391ZM171.343 327.141C171.62 327.141 171.843 326.918 171.843 326.641C171.843 326.365 171.62 326.141 171.343 326.141V327.141ZM171.715 325.512C171.439 325.512 171.215 325.736 171.215 326.012C171.215 326.288 171.439 326.512 171.715 326.512V325.512ZM173.325 325.833H173.825C173.825 325.557 173.601 325.333 173.325 325.333V325.833ZM173.504 328.203C173.628 328.45 173.928 328.55 174.175 328.427C174.422 328.303 174.522 328.003 174.399 327.756L173.504 328.203ZM173.575 327.446C173.675 327.703 173.965 327.83 174.223 327.73C174.48 327.63 174.607 327.34 174.507 327.082L173.575 327.446ZM174.093 325.833C174.093 325.557 173.87 325.333 173.593 325.333C173.317 325.333 173.093 325.557 173.093 325.833H174.093ZM171.804 325.78C171.528 325.78 171.304 326.004 171.304 326.28C171.304 326.556 171.528 326.78 171.804 326.78V325.78ZM173.186 326.375L173.049 326.855L173.186 326.375ZM173.236 326.976L172.736 326.965L173.236 326.976ZM172.5 327.175L172.957 326.972L172.5 327.175ZM171.939 326.549C171.692 326.672 171.592 326.972 171.715 327.219C171.838 327.466 172.139 327.566 172.386 327.443L171.939 326.549ZM277.593 324.938C277.593 324.662 277.369 324.438 277.093 324.438C276.817 324.438 276.593 324.662 276.593 324.938H277.593ZM276.593 326.548C276.593 326.825 276.817 327.048 277.093 327.048C277.369 327.048 277.593 326.825 277.593 326.548H276.593ZM277.178 324.356C276.906 324.309 276.647 324.491 276.6 324.764C276.553 325.036 276.735 325.294 277.007 325.342L277.178 324.356ZM279.935 325.495L279.782 325.971L279.935 325.495ZM281.923 326.333C282.199 326.333 282.423 326.109 282.423 325.833C282.423 325.557 282.199 325.333 281.923 325.333V326.333ZM277.003 323.902C276.727 323.902 276.503 324.125 276.503 324.402C276.503 324.678 276.727 324.902 277.003 324.902V323.902ZM278.479 324.715L278.236 325.152L278.479 324.715ZM281.476 325.886C281.752 325.886 281.976 325.662 281.976 325.386C281.976 325.109 281.752 324.886 281.476 324.886V325.886ZM279.398 325.516C279.668 325.576 279.935 325.407 279.996 325.138C280.056 324.868 279.887 324.601 279.618 324.54L279.398 325.516ZM278.658 324.764L278.55 325.252L278.658 324.764ZM278.027 325.47L278.116 325.962L278.027 325.47ZM277.361 325.564L277.86 325.594L277.361 325.564ZM277.272 325.724L277.771 325.704L277.272 325.724ZM277.162 324.869L277.553 324.556L277.162 324.869ZM277.503 329.858C277.503 329.582 277.279 329.358 277.003 329.358C276.727 329.358 276.503 329.582 276.503 329.858H277.503ZM167.652 276.937C167.694 277.21 167.95 277.396 168.223 277.353C168.496 277.311 168.682 277.055 168.64 276.782L167.652 276.937ZM167.782 275.353L167.411 275.688L167.782 275.353ZM167.184 275.12C167.308 275.367 167.608 275.467 167.855 275.344C168.102 275.22 168.202 274.92 168.079 274.673L167.184 275.12ZM278.156 286.521C278.156 286.245 277.932 286.021 277.656 286.021C277.379 286.021 277.156 286.245 277.156 286.521H278.156ZM277.526 287.747L278.007 287.61L277.526 287.747ZM276.956 287.784C276.956 288.06 277.18 288.284 277.456 288.284C277.732 288.284 277.956 288.06 277.956 287.784H276.956ZM283.439 288.616C283.716 288.616 283.939 288.392 283.939 288.116C283.939 287.84 283.716 287.616 283.439 287.616V288.616ZM277.737 287.732L278.09 288.086L277.737 287.732ZM282.276 287.921L282.384 287.432L282.276 287.921ZM282.372 288.212L281.891 288.075V288.075L282.372 288.212ZM280.551 288.053L280.641 287.562V287.562L280.551 288.053ZM279.018 287.921L279.127 287.432L279.018 287.921ZM277.803 287.865L277.95 287.387L277.803 287.865ZM283.343 288.053L283.254 288.545L283.343 288.053ZM280.647 287.35C280.371 287.35 280.147 287.574 280.147 287.85C280.147 288.126 280.371 288.35 280.647 288.35V287.35ZM172.727 326.408C172.671 326.397 172.482 326.375 172.295 326.352C172.09 326.326 171.844 326.295 171.635 326.265C171.53 326.25 171.438 326.236 171.367 326.224C171.282 326.209 171.26 326.201 171.272 326.206C171.275 326.207 171.307 326.217 171.347 326.241C171.366 326.253 171.409 326.28 171.453 326.328C171.495 326.374 171.575 326.479 171.583 326.639C171.591 326.815 171.508 326.942 171.441 327.011C171.38 327.072 171.32 327.101 171.294 327.113C171.241 327.136 171.199 327.143 171.196 327.144C171.182 327.146 171.212 327.141 171.343 327.141V326.141C171.227 326.141 171.108 326.144 171.022 326.159C171.001 326.163 170.946 326.173 170.884 326.201C170.855 326.214 170.791 326.246 170.728 326.309C170.659 326.379 170.575 326.509 170.584 326.686C170.591 326.849 170.673 326.957 170.717 327.005C170.763 327.055 170.809 327.085 170.832 327.099C170.88 327.128 170.924 327.144 170.944 327.15C171.019 327.176 171.119 327.195 171.193 327.208C171.28 327.224 171.385 327.24 171.494 327.255C171.713 327.287 171.967 327.318 172.172 327.344C172.275 327.357 172.365 327.368 172.434 327.377C172.513 327.387 172.542 327.391 172.54 327.391L172.727 326.408ZM171.715 326.512C172.041 326.512 172.349 326.459 172.609 326.415C172.882 326.369 173.105 326.333 173.325 326.333V325.333C173.007 325.333 172.701 325.386 172.443 325.429C172.171 325.475 171.944 325.512 171.715 325.512V326.512ZM172.825 325.833C172.825 326.768 173.156 327.506 173.504 328.203L174.399 327.756C174.06 327.079 173.825 326.52 173.825 325.833H172.825ZM174.507 327.082C174.457 326.955 174.402 326.828 174.352 326.713C174.302 326.595 174.256 326.487 174.216 326.381C174.136 326.167 174.093 325.993 174.093 325.833H173.093C173.093 326.166 173.182 326.471 173.28 326.732C173.329 326.862 173.383 326.99 173.434 327.108C173.485 327.228 173.533 327.337 173.575 327.446L174.507 327.082ZM171.804 326.78C172.311 326.78 172.692 326.753 173.049 326.855L173.323 325.894C172.793 325.742 172.208 325.78 171.804 325.78V326.78ZM173.049 326.855C172.885 326.809 172.808 326.694 172.782 326.647C172.768 326.621 172.76 326.6 172.757 326.588C172.753 326.577 172.751 326.569 172.751 326.567C172.75 326.564 172.752 326.57 172.753 326.587C172.754 326.604 172.754 326.626 172.754 326.652C172.753 326.704 172.75 326.762 172.746 326.816C172.744 326.844 172.742 326.866 172.74 326.89C172.739 326.907 172.736 326.938 172.736 326.965L173.736 326.987C173.735 326.993 173.735 326.992 173.737 326.967C173.739 326.949 173.741 326.919 173.743 326.889C173.748 326.828 173.753 326.746 173.754 326.662C173.755 326.585 173.752 326.477 173.732 326.375C173.723 326.325 173.703 326.246 173.659 326.166C173.615 326.086 173.515 325.948 173.323 325.894L173.049 326.855ZM172.736 326.965C172.733 327.107 172.721 327.302 172.679 327.45C172.658 327.526 172.64 327.547 172.645 327.541C172.663 327.52 172.717 327.48 172.788 327.48V328.48C173.061 328.48 173.271 328.35 173.409 328.186C173.535 328.037 173.602 327.862 173.642 327.722C173.721 327.441 173.732 327.135 173.736 326.987L172.736 326.965ZM172.788 327.48C172.779 327.48 172.805 327.478 172.847 327.496C172.894 327.516 172.941 327.552 172.976 327.601C173.033 327.681 173.02 327.742 173.02 327.676C173.02 327.653 173.021 327.623 173.024 327.579C173.026 327.54 173.03 327.484 173.032 327.429C173.035 327.331 173.036 327.149 172.957 326.972L172.043 327.378C172.024 327.335 172.035 327.32 172.032 327.399C172.031 327.432 172.029 327.466 172.026 327.516C172.023 327.561 172.019 327.62 172.02 327.68C172.02 327.782 172.028 327.994 172.163 328.182C172.325 328.41 172.573 328.48 172.788 328.48V327.48ZM172.957 326.972C172.921 326.891 172.902 326.836 172.886 326.791C172.88 326.775 172.865 326.732 172.847 326.694C172.839 326.677 172.777 326.53 172.615 326.442C172.404 326.327 172.212 326.399 172.151 326.426C172.095 326.451 172.045 326.485 172.04 326.489C172.009 326.509 171.983 326.526 171.939 326.549L172.386 327.443C172.489 327.391 172.559 327.344 172.591 327.323C172.599 327.317 172.6 327.317 172.597 327.319C172.596 327.319 172.58 327.329 172.555 327.34C172.533 327.35 172.479 327.372 172.405 327.378C172.322 327.384 172.227 327.369 172.138 327.321C172.056 327.276 172.007 327.219 171.982 327.185C171.958 327.152 171.945 327.125 171.941 327.116C171.935 327.103 171.933 327.096 171.944 327.127C171.961 327.176 171.991 327.261 172.043 327.378L172.957 326.972ZM276.593 324.938V326.548H277.593V324.938H276.593ZM277.007 325.342C277.999 325.513 278.865 325.676 279.782 325.971L280.088 325.019C279.099 324.701 278.174 324.528 277.178 324.356L277.007 325.342ZM279.782 325.971C280.399 326.169 281.258 326.333 281.923 326.333V325.333C281.385 325.333 280.63 325.193 280.088 325.019L279.782 325.971ZM277.003 324.902C277.46 324.902 277.922 324.977 278.236 325.152L278.722 324.278C278.191 323.983 277.531 323.902 277.003 323.902V324.902ZM278.236 325.152C278.387 325.235 278.594 325.325 278.799 325.394C278.993 325.46 279.243 325.528 279.463 325.528V324.528C279.413 324.528 279.29 324.505 279.119 324.447C278.96 324.393 278.81 324.326 278.722 324.278L278.236 325.152ZM279.463 325.528C279.732 325.528 280.002 325.597 280.344 325.689C280.664 325.776 281.06 325.886 281.476 325.886V324.886C281.215 324.886 280.949 324.817 280.604 324.724C280.283 324.637 279.886 324.528 279.463 324.528V325.528ZM279.618 324.54C279.503 324.514 279.39 324.475 279.247 324.424C279.113 324.376 278.947 324.316 278.767 324.276L278.55 325.252C278.66 325.277 278.769 325.315 278.912 325.366C279.047 325.414 279.215 325.474 279.398 325.516L279.618 324.54ZM278.767 324.276C278.693 324.26 278.604 324.228 278.448 324.179C278.332 324.142 278.134 324.08 277.952 324.08V325.08C277.943 325.08 277.954 325.08 277.998 325.09C278.038 325.099 278.087 325.113 278.147 325.132C278.247 325.164 278.419 325.224 278.55 325.252L278.767 324.276ZM277.952 324.08C277.921 324.08 277.856 324.082 277.783 324.105C277.713 324.126 277.553 324.192 277.465 324.377C277.377 324.563 277.429 324.73 277.457 324.798C277.487 324.869 277.527 324.918 277.545 324.94C277.584 324.987 277.627 325.025 277.648 325.043C277.673 325.064 277.703 325.088 277.723 325.105C277.774 325.147 277.801 325.171 277.815 325.186C277.821 325.193 277.812 325.184 277.799 325.161C277.787 325.14 277.756 325.077 277.756 324.983H278.756C278.756 324.847 278.709 324.74 278.672 324.674C278.634 324.606 278.59 324.551 278.554 324.513C278.485 324.437 278.405 324.371 278.359 324.333C278.331 324.31 278.315 324.297 278.301 324.285C278.283 324.269 278.294 324.277 278.313 324.299C278.321 324.309 278.353 324.347 278.379 324.409C278.403 324.467 278.454 324.625 278.369 324.805C278.285 324.983 278.132 325.044 278.074 325.061C278.012 325.08 277.963 325.08 277.952 325.08V324.08ZM277.756 324.983C277.756 325.019 277.757 325.053 277.757 325.08C277.758 325.109 277.759 325.129 277.759 325.147C277.759 325.188 277.756 325.186 277.761 325.166C277.768 325.138 277.791 325.081 277.846 325.031C277.899 324.984 277.944 324.977 277.938 324.978L278.116 325.962C278.249 325.938 278.392 325.885 278.513 325.776C278.638 325.665 278.7 325.53 278.73 325.414C278.757 325.307 278.759 325.206 278.759 325.143C278.759 325.109 278.758 325.076 278.757 325.051C278.756 325.023 278.756 325.002 278.756 324.983H277.756ZM277.938 324.978C277.974 324.971 277.995 324.974 277.973 324.973C277.958 324.973 277.937 324.972 277.904 324.97C277.845 324.966 277.749 324.959 277.658 324.959C277.574 324.958 277.441 324.96 277.313 324.997C277.201 325.03 276.884 325.16 276.862 325.535L277.86 325.594C277.853 325.714 277.796 325.816 277.722 325.882C277.66 325.937 277.604 325.954 277.592 325.958C277.571 325.964 277.581 325.958 277.648 325.959C277.707 325.959 277.768 325.963 277.843 325.968C277.877 325.97 277.918 325.972 277.956 325.973C277.986 325.974 278.049 325.974 278.116 325.962L277.938 324.978ZM276.862 325.535C276.861 325.546 276.858 325.576 276.852 325.613C276.846 325.652 276.84 325.673 276.84 325.672C276.841 325.671 276.843 325.663 276.849 325.65C276.852 325.641 276.865 325.61 276.892 325.571C276.902 325.556 276.991 325.42 277.179 325.375C277.293 325.347 277.411 325.361 277.514 325.412C277.606 325.457 277.662 325.52 277.691 325.559C277.744 325.631 277.762 325.697 277.765 325.708C277.772 325.73 277.774 325.745 277.774 325.746C277.774 325.749 277.773 325.737 277.771 325.704L276.772 325.744C276.774 325.792 276.777 325.843 276.784 325.889C276.787 325.912 276.793 325.944 276.803 325.979C276.81 326.004 276.832 326.079 276.889 326.156C276.954 326.243 277.139 326.414 277.414 326.347C277.607 326.3 277.7 326.16 277.716 326.138C277.768 326.062 277.791 325.985 277.796 325.966C277.831 325.854 277.855 325.69 277.86 325.594L276.862 325.535ZM277.771 325.704C277.77 325.663 277.771 325.612 277.773 325.53C277.776 325.456 277.778 325.361 277.775 325.264C277.769 325.094 277.744 324.796 277.553 324.556L276.772 325.181C276.754 325.159 276.756 325.149 276.762 325.174C276.768 325.198 276.774 325.238 276.776 325.298C276.778 325.359 276.776 325.423 276.774 325.5C276.772 325.569 276.769 325.66 276.772 325.744L277.771 325.704ZM277.553 324.556C277.49 324.478 277.381 324.358 277.216 324.299C277.123 324.266 277.006 324.25 276.88 324.282C276.756 324.314 276.665 324.382 276.603 324.449C276.493 324.568 276.455 324.707 276.439 324.779C276.42 324.866 276.414 324.953 276.414 325.028H277.414C277.414 325.002 277.416 324.991 277.416 324.993C277.415 324.995 277.413 325.007 277.404 325.027C277.396 325.045 277.377 325.084 277.338 325.127C277.296 325.173 277.227 325.226 277.128 325.251C277.028 325.277 276.94 325.263 276.878 325.241C276.777 325.204 276.744 325.146 276.772 325.181L277.553 324.556ZM276.414 325.028C276.414 325.468 276.392 325.898 276.37 326.342C276.347 326.782 276.324 327.236 276.324 327.706H277.324C277.324 327.265 277.346 326.836 277.368 326.392C277.391 325.952 277.414 325.498 277.414 325.028H276.414ZM276.324 327.706V329.322H277.324V327.706H276.324ZM276.324 329.322C276.324 329.489 276.378 329.846 276.426 330.057C276.439 330.112 276.455 330.177 276.476 330.235C276.485 330.26 276.504 330.31 276.536 330.363C276.551 330.388 276.585 330.438 276.642 330.488C276.697 330.535 276.826 330.624 277.012 330.611C277.204 330.597 277.322 330.484 277.374 330.418C277.424 330.354 277.448 330.293 277.458 330.263C277.48 330.202 277.488 330.144 277.492 330.113C277.501 330.041 277.503 329.954 277.503 329.858H276.503C276.503 329.944 276.5 329.983 276.499 329.993C276.498 330.002 276.5 329.974 276.515 329.931C276.522 329.912 276.542 329.857 276.589 329.798C276.637 329.737 276.751 329.627 276.939 329.613C277.121 329.6 277.245 329.687 277.296 329.731C277.348 329.776 277.377 329.821 277.388 329.839C277.401 329.86 277.408 329.876 277.412 329.884C277.415 329.892 277.417 329.897 277.417 329.898C277.418 329.9 277.416 329.896 277.413 329.883C277.41 329.871 277.406 329.855 277.401 329.835C277.383 329.754 277.363 329.64 277.347 329.532C277.34 329.478 277.334 329.429 277.329 329.389C277.327 329.369 277.326 329.352 277.325 329.339C277.324 329.326 277.324 329.321 277.324 329.322H276.324ZM168.64 276.782C168.626 276.694 168.615 276.585 168.601 276.444C168.587 276.309 168.571 276.153 168.546 275.996C168.501 275.709 168.411 275.305 168.154 275.019L167.411 275.688C167.455 275.738 167.515 275.876 167.559 276.153C167.579 276.278 167.592 276.409 167.606 276.544C167.619 276.672 167.632 276.814 167.652 276.937L168.64 276.782ZM168.154 275.019C168.198 275.068 168.203 275.1 168.185 275.054C168.174 275.025 168.161 274.986 168.149 274.943C168.138 274.9 168.129 274.863 168.126 274.844C168.123 274.829 168.126 274.84 168.127 274.862C168.128 274.869 168.129 274.888 168.128 274.912C168.128 274.925 168.127 274.948 168.122 274.976C168.119 274.997 168.108 275.062 168.067 275.135C168.026 275.21 167.899 275.383 167.651 275.393C167.446 275.402 167.318 275.286 167.288 275.259C167.245 275.219 167.219 275.18 167.21 275.165C167.197 275.146 167.189 275.129 167.184 275.12L168.079 274.673C168.078 274.671 168.044 274.596 167.972 274.529C167.942 274.501 167.814 274.385 167.608 274.394C167.359 274.405 167.232 274.578 167.191 274.653C167.15 274.727 167.139 274.793 167.135 274.814C167.131 274.843 167.129 274.867 167.129 274.881C167.128 274.908 167.13 274.93 167.13 274.94C167.133 274.977 167.14 275.013 167.144 275.032C167.153 275.08 167.167 275.142 167.184 275.206C167.202 275.269 167.225 275.345 167.253 275.418C167.275 275.473 167.323 275.591 167.411 275.688L168.154 275.019ZM277.156 286.521V287.614H278.156V286.521H277.156ZM277.156 287.614C277.156 287.541 277.173 287.49 277.174 287.486C277.179 287.472 277.183 287.463 277.184 287.461C277.185 287.457 277.188 287.452 277.196 287.44C277.2 287.434 277.212 287.418 277.234 287.397C277.25 287.382 277.304 287.331 277.397 287.3C277.511 287.261 277.686 287.255 277.84 287.371C277.962 287.462 277.998 287.578 278.007 287.61L277.046 287.884C277.061 287.94 277.107 288.071 277.24 288.171C277.405 288.294 277.592 288.29 277.72 288.246C277.825 288.21 277.894 288.149 277.925 288.12C277.961 288.086 277.988 288.051 278.007 288.026C278.044 287.974 278.074 287.92 278.095 287.872C278.106 287.848 278.118 287.818 278.128 287.786C278.135 287.764 278.156 287.697 278.156 287.614H277.156ZM278.007 287.61C278.013 287.63 278.013 287.64 278.012 287.633C278.012 287.626 278.012 287.613 278.013 287.59C278.014 287.565 278.016 287.542 278.018 287.505C278.02 287.474 278.023 287.43 278.023 287.385H277.023C277.023 287.431 277.019 287.434 277.014 287.545C277.011 287.616 277.007 287.749 277.046 287.884L278.007 287.61ZM278.023 287.385C278.023 287.286 278.001 287.098 277.983 286.987C277.978 286.957 277.971 286.921 277.963 286.886C277.959 286.871 277.952 286.842 277.939 286.809C277.934 286.794 277.921 286.763 277.901 286.728C277.89 286.709 277.833 286.609 277.71 286.54C277.636 286.499 277.529 286.464 277.402 286.481C277.277 286.497 277.185 286.555 277.128 286.607C277.032 286.694 276.998 286.795 276.991 286.815C276.969 286.877 276.963 286.933 276.962 286.947C276.957 286.992 276.956 287.041 276.956 287.086H277.956C277.956 287.048 277.957 287.041 277.956 287.051C277.956 287.055 277.955 287.064 277.953 287.077C277.951 287.087 277.946 287.113 277.934 287.146C277.928 287.163 277.895 287.261 277.801 287.347C277.744 287.398 277.653 287.456 277.529 287.472C277.402 287.489 277.296 287.454 277.223 287.413C277.101 287.345 277.046 287.247 277.037 287.231C277.018 287.199 277.008 287.172 277.004 287.162C276.999 287.148 276.996 287.138 276.994 287.133C276.993 287.128 276.992 287.124 276.991 287.123C276.991 287.12 276.993 287.128 276.996 287.149C277.002 287.187 277.009 287.242 277.015 287.295C277.018 287.321 277.02 287.344 277.021 287.362C277.023 287.383 277.023 287.389 277.023 287.385H278.023ZM276.956 287.086V287.784H277.956V287.086H276.956ZM283.439 287.616H283.418V288.616H283.439V287.616ZM283.418 287.616H282.509V288.616H283.418V287.616ZM282.509 287.616C282.496 287.616 282.48 287.615 282.46 287.612L282.309 288.601C282.37 288.61 282.437 288.616 282.509 288.616V287.616ZM282.46 287.612C282.423 287.607 282.381 287.596 282.317 287.578C282.26 287.562 282.172 287.536 282.083 287.517L281.875 288.496C281.924 288.506 281.971 288.52 282.047 288.541C282.116 288.56 282.208 288.585 282.309 288.601L282.46 287.612ZM282.083 287.517C281.996 287.499 281.893 287.483 281.777 287.483V288.483C281.803 288.483 281.833 288.487 281.875 288.496L282.083 287.517ZM281.777 287.483C281.605 287.483 281.434 287.469 281.239 287.452C281.05 287.436 280.836 287.417 280.614 287.417V288.417C280.786 288.417 280.957 288.431 281.152 288.448C281.341 288.465 281.555 288.483 281.777 288.483V287.483ZM280.614 287.417C280.444 287.417 280.264 287.38 280.022 287.328C279.799 287.28 279.513 287.217 279.218 287.217V288.217C279.389 288.217 279.57 288.254 279.812 288.306C280.035 288.354 280.32 288.417 280.614 288.417V287.417ZM279.218 287.217C279.174 287.217 279.092 287.208 278.95 287.187C278.824 287.168 278.66 287.142 278.499 287.125C278.341 287.109 278.155 287.098 277.977 287.118C277.809 287.137 277.569 287.193 277.383 287.379L278.09 288.086C278.041 288.135 278.01 288.121 278.091 288.112C278.161 288.104 278.263 288.106 278.396 288.12C278.528 288.134 278.661 288.155 278.803 288.176C278.929 288.195 279.086 288.217 279.218 288.217V287.217ZM277.383 287.379C277.356 287.406 277.295 287.471 277.257 287.571C277.21 287.692 277.197 287.873 277.309 288.041C277.399 288.176 277.523 288.226 277.572 288.243C277.63 288.264 277.681 288.271 277.711 288.274C277.814 288.284 277.93 288.27 277.991 288.262C278.068 288.252 278.15 288.238 278.207 288.228C278.238 288.223 278.261 288.22 278.278 288.217C278.306 288.213 278.287 288.217 278.254 288.217V287.217C278.202 287.217 278.149 287.225 278.134 287.228C278.107 287.232 278.075 287.237 278.045 287.242C277.981 287.252 277.918 287.263 277.862 287.27C277.789 287.28 277.783 287.276 277.811 287.279C277.821 287.28 277.857 287.284 277.903 287.3C277.939 287.313 278.055 287.357 278.14 287.485C278.247 287.646 278.233 287.818 278.19 287.93C278.156 288.019 278.104 288.072 278.09 288.086L277.383 287.379ZM279.218 288.217H281.079V287.217H279.218V288.217ZM281.079 288.217C281.379 288.217 281.767 288.32 282.168 288.409L282.384 287.432C282.066 287.362 281.521 287.217 281.079 287.217V288.217ZM282.168 288.409C282.102 288.394 282.042 288.362 281.994 288.32C281.949 288.279 281.923 288.237 281.909 288.207L282.812 287.779C282.748 287.643 282.614 287.483 282.384 287.432L282.168 288.409ZM281.909 288.207C281.901 288.191 281.896 288.177 281.893 288.166L282.852 287.883C282.843 287.85 282.83 287.815 282.812 287.779L281.909 288.207ZM281.893 288.165C281.889 288.152 281.887 288.142 281.886 288.135C281.885 288.128 281.885 288.122 281.885 288.118L282.884 288.095C282.883 288.033 282.875 287.96 282.852 287.883L281.893 288.165ZM281.885 288.118C281.885 288.113 281.885 288.108 281.885 288.102C281.886 288.097 281.887 288.088 281.891 288.075L282.853 288.35C282.876 288.267 282.886 288.179 282.884 288.095L281.885 288.118ZM281.891 288.075C281.929 287.943 282.013 287.862 282.075 287.82C282.131 287.782 282.18 287.768 282.197 287.764C282.231 287.755 282.246 287.758 282.222 287.758C282.205 287.758 282.182 287.757 282.152 287.755C282.142 287.754 282.119 287.752 282.107 287.752C282.095 287.751 282.069 287.749 282.043 287.749V288.749C282.036 288.749 282.033 288.749 282.084 288.752C282.118 288.755 282.17 288.758 282.224 288.758C282.272 288.758 282.356 288.755 282.444 288.733C282.492 288.721 282.767 288.649 282.853 288.35L281.891 288.075ZM282.043 287.749C281.598 287.749 281.16 287.656 280.641 287.562L280.462 288.545C280.934 288.631 281.484 288.749 282.043 288.749V287.749ZM280.641 287.562C280.632 287.56 280.624 287.559 280.616 287.557L280.445 288.542C280.451 288.543 280.456 288.544 280.462 288.545L280.641 287.562ZM280.616 287.557C280.323 287.507 280.029 287.502 279.787 287.494C279.531 287.486 279.322 287.476 279.127 287.432L278.91 288.409C279.209 288.475 279.505 288.486 279.757 288.494C280.022 288.502 280.237 288.507 280.445 288.542L280.616 287.557ZM279.127 287.432C278.659 287.328 278.123 287.348 277.734 287.35L277.74 288.35C278.188 288.348 278.581 288.335 278.91 288.409L279.127 287.432ZM277.734 287.35C277.708 287.35 277.681 287.35 277.656 287.35V288.35C277.684 288.35 277.712 288.35 277.74 288.35L277.734 287.35ZM277.656 287.35C277.559 287.35 277.526 287.348 277.528 287.348C277.53 287.348 277.535 287.349 277.541 287.35C277.547 287.351 277.561 287.353 277.579 287.357C277.587 287.359 277.642 287.371 277.704 287.406C277.731 287.421 277.816 287.47 277.882 287.573C277.971 287.711 277.992 287.899 277.908 288.067C277.846 288.19 277.751 288.251 277.722 288.268C277.683 288.292 277.648 288.306 277.632 288.312C277.597 288.324 277.57 288.329 277.561 288.331C277.54 288.335 277.526 288.336 277.525 288.336C277.52 288.337 277.538 288.335 277.573 288.336C277.607 288.338 277.636 288.34 277.655 288.343L277.819 287.357C277.677 287.333 277.518 287.333 277.435 287.34C277.423 287.341 277.399 287.344 277.372 287.349C277.36 287.351 277.33 287.357 277.294 287.37C277.277 287.377 277.242 287.39 277.202 287.414C277.172 287.433 277.077 287.493 277.015 287.617C276.93 287.785 276.951 287.973 277.04 288.112C277.106 288.215 277.192 288.265 277.22 288.28C277.283 288.316 277.341 288.328 277.351 288.331C277.387 288.339 277.419 288.342 277.43 288.343C277.482 288.349 277.56 288.35 277.656 288.35V287.35ZM277.655 288.343C277.659 288.344 277.662 288.345 277.662 288.345C277.663 288.345 277.661 288.344 277.656 288.343L277.95 287.387C277.903 287.373 277.857 287.363 277.819 287.357L277.655 288.343ZM277.656 288.343C278.1 288.479 278.484 288.55 278.97 288.55V287.55C278.6 287.55 278.315 287.5 277.95 287.387L277.656 288.343ZM278.97 288.55H280.53V287.55H278.97V288.55ZM280.53 288.55H280.909V287.55H280.53V288.55ZM280.909 288.55C281.263 288.55 281.653 288.522 282.003 288.506L281.956 287.507C281.571 287.525 281.231 287.55 280.909 287.55V288.55ZM282.003 288.506C282.055 288.503 282.106 288.501 282.158 288.499L282.119 287.5C282.065 287.502 282.01 287.504 281.956 287.507L282.003 288.506ZM282.158 288.499C282.23 288.496 282.301 288.494 282.371 288.493L282.351 287.493C282.273 287.495 282.196 287.497 282.119 287.5L282.158 288.499ZM282.371 288.493C282.696 288.486 282.992 288.498 283.254 288.545L283.433 287.562C283.076 287.497 282.704 287.486 282.351 287.493L282.371 288.493ZM283.254 288.545C283.506 288.591 283.755 288.612 283.983 288.628C284.219 288.645 284.428 288.656 284.637 288.683L284.761 287.69C284.517 287.66 284.271 287.646 284.054 287.63C283.829 287.614 283.627 287.597 283.433 287.562L283.254 288.545ZM284.637 288.683C284.687 288.689 284.686 288.691 284.665 288.685C284.657 288.683 284.638 288.677 284.613 288.666C284.597 288.66 284.534 288.632 284.47 288.57C284.398 288.5 284.265 288.316 284.341 288.067C284.398 287.882 284.539 287.801 284.563 287.786C284.608 287.76 284.645 287.748 284.658 287.744C284.675 287.738 284.688 287.736 284.694 287.734C284.705 287.732 284.709 287.732 284.703 287.732C284.693 287.734 284.671 287.736 284.638 287.738C284.504 287.746 284.303 287.749 284.252 287.749V288.749C284.313 288.749 284.538 288.746 284.701 288.736C284.742 288.733 284.787 288.73 284.827 288.725C284.847 288.722 284.873 288.719 284.901 288.713C284.912 288.71 284.989 288.696 285.069 288.649C285.097 288.633 285.239 288.549 285.297 288.362C285.374 288.111 285.24 287.924 285.166 287.852C285.1 287.788 285.032 287.758 285.01 287.749C284.98 287.735 284.953 287.727 284.937 287.722C284.878 287.706 284.812 287.697 284.761 287.69L284.637 288.683ZM284.252 287.749C284.034 287.749 283.842 287.694 283.52 287.627L283.316 288.606C283.551 288.655 283.899 288.749 284.252 288.749V287.749ZM283.52 287.627C283.333 287.588 283.114 287.55 282.874 287.55V288.55C283.012 288.55 283.151 288.571 283.316 288.606L283.52 287.627ZM282.874 287.55C282.726 287.55 282.575 287.541 282.419 287.527L282.327 288.522C282.504 288.539 282.687 288.55 282.874 288.55V287.55ZM282.419 287.527C282.346 287.52 282.272 287.512 282.197 287.503L282.08 288.496C282.161 288.506 282.244 288.515 282.327 288.522L282.419 287.527ZM282.197 287.503C281.737 287.449 281.177 287.35 280.647 287.35V288.35C281.099 288.35 281.536 288.432 282.08 288.496L282.197 287.503ZM277 289H290V288H277V289ZM278.254 288.217H279.218V287.217H278.254V288.217Z" fill="black"/>
<path d="M469.243 222.697C469.751 222.697 470.5 222.836 471.004 222.692C471.054 222.678 471.097 222.116 471.2 222.579C471.277 222.926 471.402 223.26 471.518 223.603C471.546 223.686 471.891 224.511 471.675 224.187" stroke="black" stroke-linecap="round" stroke-linejoin="round"/>
<path d="M490.114 326.767C490.647 326.975 491.138 327.216 491.717 327.36C492.187 327.478 492.634 327.661 493.106 327.771C493.286 327.813 493.817 327.968 493.645 327.9C493.527 327.853 493.448 327.752 493.326 327.708C493.236 327.674 493.091 327.546 493.005 327.541C492.868 327.534 492.739 327.489 492.615 327.426C492.399 327.318 492.169 327.305 491.95 327.206C491.555 327.026 491.104 327.064 490.707 326.844C490.569 326.767 490.269 326.565 490.269 326.792C490.269 327.142 490.064 327.389 489.93 327.713C489.733 328.191 489.907 327.966 489.907 327.748C489.907 327.533 489.907 327.317 489.907 327.102C489.907 327.009 489.899 326.583 490.039 326.663C490.237 326.777 490.464 326.799 490.682 326.847C490.96 326.908 491.234 327.054 491.519 327.076C491.794 327.098 492.065 327.18 492.36 327.18C492.613 327.18 492.893 327.227 493.108 327.335" stroke="black" stroke-linecap="round" stroke-linejoin="round"/>
<path d="M381.321 327.076C381.289 326.929 381.169 326.507 381.266 326.847C381.323 327.045 381.327 326.927 381.321 326.818C381.309 326.619 381.335 327.002 381.447 326.97C381.545 326.942 381.45 326.593 381.424 326.534C381.315 326.289 381.225 326.061 381.114 325.811C381.043 325.652 380.959 325.497 380.959 325.321C380.959 325.041 380.807 325.256 380.701 325.269C380.593 325.283 380.467 325.392 380.363 325.421C380.23 325.459 380.055 325.624 379.927 325.631C379.758 325.64 379.544 325.767 379.385 325.837C379.319 325.866 379.151 325.933 379.319 325.941C379.571 325.953 379.8 326.071 380.05 326.093C380.447 326.127 380.761 326.373 380.937 326.749C381.008 326.903 381.913 328.381 381.734 328.471" stroke="black" stroke-linecap="round" stroke-linejoin="round"/>
<path d="M279.641 468.888C280.289 468.711 280.833 468.36 281.497 468.36C281.891 468.36 282.184 468.281 282.554 468.235C283.178 468.157 283.695 467.831 284.329 467.831C284.976 467.831 285.452 467.618 285.452 468.36C285.452 468.666 285.459 468.893 285.555 469.181C285.689 469.583 285.953 469.758 286.112 470.077" stroke="black" stroke-linecap="round" stroke-linejoin="round"/>
<path d="M280.314 468.402C281.05 468.262 281.875 468.267 282.523 467.908C282.833 467.735 283.309 467.76 283.559 467.56C283.676 467.467 283.961 467.507 284.105 467.475C284.387 467.413 284.709 467.215 284.995 467.215" stroke="black" stroke-linecap="round" stroke-linejoin="round"/>
<path d="M284.995 467.215C285.175 467.733 285.398 468.183 285.64 468.666C285.731 468.847 285.838 469.012 285.933 469.193C285.986 469.294 286.248 469.671 286.065 469.442C286.009 469.372 285.99 469.026 285.984 468.93C285.975 468.768 285.902 468.414 285.838 468.27C285.673 467.9 285.565 467.497 285.391 467.149" stroke="black" stroke-linecap="round" stroke-linejoin="round"/>
<path d="M371.965 470.116C371.901 469.785 371.89 469.464 371.9 469.127C371.904 468.966 371.975 468.836 371.965 468.666C371.963 468.621 371.82 468.511 371.848 468.483C371.916 468.415 372.602 468.583 372.705 468.615C373.123 468.743 373.548 468.794 373.977 468.86C374.459 468.934 375.044 468.734 375.511 468.878C375.618 468.911 376.144 468.93 375.922 468.93C375.668 468.93 375.57 468.881 375.361 468.765C374.926 468.523 374.302 468.534 373.815 468.534C373.329 468.534 372.891 468.468 372.39 468.468C372.043 468.468 371.936 468.3 372.178 468.629C372.299 468.794 372.448 468.945 372.544 469.127C372.632 469.294 372.559 469.325 372.559 469.49C372.559 469.572 372.526 469.745 372.566 469.816C372.608 469.89 373.11 469.787 373.218 469.787C373.966 469.787 374.713 469.787 375.46 469.787" stroke="black" stroke-linecap="round" stroke-linejoin="round"/>
</svg>
