<?xml version="1.0" encoding="UTF-8"?>
<svg width="900px" height="855px" viewBox="0 0 900 855" version="1.1" xmlns="http://www.w3.org/2000/svg" xmlns:xlink="http://www.w3.org/1999/xlink">
    <!-- Generator: Sketch 52.4 (67378) - http://www.bohemiancoding.com/sketch -->
    <title>tablet-about-birds-2</title>
    <desc>Created with Sketch.</desc>
    <defs>
        <rect id="path-1" x="0" y="0" width="900" height="855"></rect>
        <path d="M219.117713,8.38770011e-11 L224.287777,8.38770011e-11 C238.445917,0.683751493 252.109782,6.96240504 262.41563,17.8299227 L295,20.7491625 L295,20.7747899 L278.803552,50.8767622 C282.777755,74.5475216 273.414481,98.9868122 254.022885,112.820373 C255.74616,117.738972 257.115718,122.964984 257.821691,128.498408 C261.135232,155.243292 250.136381,180.297408 231.319211,195.514325 L231.408371,195.821737 L229.022972,197.205093 C226.019299,199.510687 222.838768,201.508868 219.482839,203.199636 L0,338 L88.7375606,179.989995 L0,70.3974534 L150.266814,70.3974534 L169.835268,35.5061392 C171.513232,31.6634834 173.501065,27.9745339 175.886463,24.5929968 L176.681596,23.2096407 L176.725445,23.363347 C181.540092,16.7539791 187.635136,11.2205548 194.92288,7.07048658 C202.671861,2.6893952 210.919155,0.396621608 219.117752,0 L219.117713,8.38770011e-11 Z M225.88629,24.4392906 C221.027794,27.2060027 219.172971,33.6616644 221.735228,38.8876762 C224.296024,44.113688 230.39253,46.111869 235.251026,43.3451569 C240.198682,40.5784447 242.053504,34.1227831 239.447398,28.8967713 C236.885141,23.6707594 230.790096,21.6725784 225.88629,24.4392906 Z" id="path-3"></path>
        <path d="M72.0488753,2.72972489e-11 L73.7488623,2.72972489e-11 C78.4042506,0.222522675 82.8971146,2.26587146 86.2858173,5.80263756 L97,6.75268603 L97,6.7610263 L91.6743884,16.5575261 C92.9811602,24.2610277 89.9023886,32.214643 83.5261691,36.7166894 C84.0928053,38.317417 84.5431345,40.0181901 84.7752679,41.8190086 C85.8648051,50.522965 82.2482338,58.6766712 76.060893,63.6289222 L76.09021,63.7289677 L75.3058586,64.1791724 C74.3182102,64.9295134 73.2724083,65.579809 72.1689335,66.1300591 L0,110 L29.1781131,58.5766257 L0,22.9104138 L49.4097659,22.9104138 L55.844139,11.5552524 C56.3958764,10.3046839 57.0495026,9.10413824 57.833854,8.00363802 L58.0953045,7.55343338 L58.1097227,7.60345612 C59.6928438,5.4524784 61.696977,3.65165985 64.0932859,2.30104593 C66.641256,0.875246959 69.3530781,0.129078038 72.0488879,0 L72.0488753,2.72972489e-11 Z M74.2744749,7.95361528 C72.6769356,8.85402456 72.0670447,10.9549795 72.9095497,12.6557526 C73.751574,14.3565257 75.7561878,15.0068213 77.3537271,14.106412 C78.9805835,13.2060027 79.5904744,11.1050477 78.7335512,9.40427467 C77.8910463,7.70350159 75.8869131,7.053206 74.2744749,7.95361528 Z" id="path-5"></path>
        <path d="M57.1934371,0.157577885 L58.5429113,0.157577885 C62.2384257,0.335996967 65.804926,1.97435771 68.4949271,4.81014314 L77,5.57189371 L77,5.57858096 L72.7724527,13.4334322 C73.809787,19.6101136 71.3658136,25.9873367 66.3042785,29.5970856 C66.7540826,30.8805519 67.1115604,32.2442348 67.2958313,33.6881344 C68.1607216,40.6669822 65.2898351,47.2046386 60.3782346,51.1753624 L60.4015069,51.255579 L59.7788774,51.6165539 C58.9948679,52.2181787 58.1646953,52.7395869 57.2887411,53.1807784 L0,88.3557761 L23.1620073,47.1244219 L0,18.527189 L39.2221853,18.527189 L44.3298835,9.42260007 C44.7678606,8.41989204 45.2867185,7.45729233 45.909348,6.57490927 L46.1168912,6.21393438 L46.1283366,6.2540427 C47.3850409,4.52938489 48.9759508,3.08548533 50.8781754,2.00256066 C52.9007908,0.859352474 55.0534744,0.261072888 57.1934471,0.157577885 L57.1934371,0.157577885 Z M58.9601502,6.53480095 C57.6920005,7.25675073 57.2078603,8.94130022 57.8766528,10.3049831 C58.5450639,11.6686661 60.1363553,12.1900742 61.404505,11.4681244 C62.6959271,10.7461747 63.1800673,9.06162518 62.4998293,7.69794226 C61.8310367,6.33425934 60.2401269,5.81285117 58.9601502,6.53480095 Z" id="path-7"></path>
        <path d="M39.3669112,1.48894085e-11 L40.2957701,1.48894085e-11 C42.8394359,0.121376005 45.2942997,1.23592989 47.1458589,3.16507503 L53,3.68328329 L53,3.68783253 L50.0901298,9.0313779 C50.8041391,13.2332879 49.1219237,17.5716235 45.6380099,20.0272851 C45.9476153,20.9004093 46.1936714,21.8281037 46.3205072,22.8103683 C46.9158214,27.5579809 44.9397566,32.005457 41.5590446,34.7066849 L41.5750632,34.7612551 L41.1465001,35.0068213 C40.6068571,35.4160982 40.0354396,35.7708049 39.4325101,36.0709413 L0,60 L15.9426804,31.9508868 L0,12.4965894 L26.9970886,12.4965894 L30.512777,6.30286494 C30.8142417,5.6207367 31.1713777,4.96589359 31.5999408,4.36562074 L31.7427952,4.12005457 L31.7506732,4.1473397 C32.6156775,2.97407913 33.7107194,1.99181446 35.0200428,1.25511596 C36.4122326,0.477407432 37.8939499,0.0704062027 39.3669181,0 L39.3669112,1.48894085e-11 Z M40.5829605,4.33833561 C39.7100782,4.82946794 39.3768389,5.97544338 39.8371766,6.90313779 C40.2972518,7.8308322 41.3925562,8.18553888 42.2654385,7.69440655 C43.1543394,7.20327422 43.4875788,6.05729877 43.019363,5.12960437 C42.5590253,4.20190996 41.4639834,3.84720327 40.5829605,4.33833561 Z" id="path-9"></path>
        <path d="M22.2831573,8.43733148e-12 L22.8089265,8.43733148e-12 C24.2487373,0.068779736 25.6382829,0.70036027 26.6863352,1.79354252 L30,2.08719386 L30,2.08977177 L28.3529036,5.11778081 C28.7570599,7.49886312 27.8048625,9.9572533 25.8328358,11.3487949 C26.0080841,11.8435653 26.1473612,12.3692588 26.219155,12.9258754 C26.5561253,15.6161892 25.4375981,18.1364256 23.5239875,19.6671214 L23.5330546,19.6980446 L23.2904717,19.8371987 C22.9850135,20.0691223 22.6615696,20.2701228 22.3202887,20.4402001 L0,34 L9.0241587,18.1055025 L0,7.08140064 L15.2813709,7.08140064 L17.2713832,3.57162347 C17.4420236,3.18508413 17.6441761,2.81400637 17.886759,2.47385175 L17.9676199,2.33469759 L17.9720792,2.35015916 C18.4617043,1.68531151 19.0815393,1.12869486 19.8226657,0.711232378 C20.6106977,0.270530878 21.4494056,0.0398968482 22.2831612,0 L22.2831573,8.43733148e-12 Z M22.9714871,2.45839018 C22.4774028,2.7366985 22.2887767,3.38608458 22.5493453,3.91177808 C22.8097652,4.43747158 23.4297488,4.63847203 23.9238331,4.36016371 C24.4269846,4.08185539 24.6156106,3.4324693 24.3505828,2.90677581 C24.0900143,2.38108231 23.4701793,2.18008186 22.9714871,2.45839018 Z" id="path-11"></path>
        <path d="M25.9970168,9.92627232e-12 L26.6104142,9.92627232e-12 C28.2901935,0.0809173365 29.91133,0.823953259 31.1340578,2.11005002 L35,2.45552219 L35,2.45855502 L33.0783876,6.0209186 C33.5499032,8.82219191 32.4390062,11.7144156 30.1383084,13.3515234 C30.3427648,13.9336062 30.5052547,14.5520691 30.5890142,15.2069122 C30.9821462,18.3719873 29.6771978,21.3369714 27.4446521,23.1377899 L27.4552304,23.1741701 L27.172217,23.3378809 C26.815849,23.6107322 26.4384978,23.8472033 26.0403368,24.0472942 L0,40 L10.5281852,21.3005912 L0,8.33105957 L17.8282661,8.33105957 L20.1499471,4.20190996 C20.3490276,3.7471578 20.5848721,3.31059573 20.8678855,2.91041382 L20.9622233,2.74670305 L20.9674257,2.76489313 C21.538655,1.98271942 22.2617958,1.32787631 23.1264434,0.836743975 C24.045814,0.318271621 25.0243065,0.0469374684 25.9970214,0 L25.9970168,9.92627232e-12 Z M26.8000683,2.89222374 C26.2236366,3.21964529 26.0035728,3.98362892 26.3075695,4.60209186 C26.6113927,5.2205548 27.3347069,5.45702592 27.9111386,5.12960437 C28.4981487,4.80218281 28.7182124,4.03819918 28.4090133,3.41973624 C28.1050167,2.80127331 27.3818758,2.56480218 26.8000683,2.89222374 Z" id="path-13"></path>
    </defs>
    <g id="Page-1" stroke="none" stroke-width="1" fill="none" fill-rule="evenodd">
        <g id="321-about-tablet-landscape" transform="translate(-62.000000, -1139.000000)">
            <g id="tablet-about-birds-2" transform="translate(62.000000, 1139.000000)">
                <mask id="mask-2" fill="white">
                    <use xlink:href="#path-1"></use>
                </mask>
                <use id="Mask" fill="#FFFFFF" fill-rule="nonzero" xlink:href="#path-1"></use>
                <g id="Group-4" mask="url(#mask-2)">
                    <g transform="translate(0.000000, -18.000000)">
                        <g id="Group-3-Copy-10" transform="translate(0.000000, 417.000000)">
                            <mask id="mask-4" fill="white">
                                <use xlink:href="#path-3"></use>
                            </mask>
                            <g id="Clip-396"></g>
                            <polygon id="Fill-395" fill="#FED445" mask="url(#mask-4)" points="-72 420 376 420 376 -73 -72 -73"></polygon>
                        </g>
                        <g id="Group-3-Copy-11" transform="translate(0.000000, 123.000000)">
                            <mask id="mask-6" fill="white">
                                <use xlink:href="#path-5"></use>
                            </mask>
                            <g id="Clip-396"></g>
                            <polygon id="Fill-395" fill="#FED445" mask="url(#mask-6)" points="-24.0495868 136.304348 123.454545 136.304348 123.454545 -23.9130435 -24.0495868 -23.9130435"></polygon>
                        </g>
                        <g id="Group-3-Copy-17" transform="translate(465.000000, 566.000000)">
                            <mask id="mask-8" fill="white">
                                <use xlink:href="#path-7"></use>
                            </mask>
                            <g id="Clip-396"></g>
                            <polygon id="Fill-395" fill="#FED445" mask="url(#mask-8)" points="-19.25 109.202623 97.8541667 109.202623 97.8541667 -19.0856654 -19.25 -19.0856654"></polygon>
                        </g>
                        <g id="Group-3-Copy-13" transform="translate(284.000000, 0.000000)">
                            <mask id="mask-10" fill="white">
                                <use xlink:href="#path-9"></use>
                            </mask>
                            <g id="Clip-396"></g>
                            <polygon id="Fill-395" fill="#FED445" mask="url(#mask-10)" points="-12.8484848 74.4 67.4545455 74.4 67.4545455 -12.8 -12.8484848 -12.8"></polygon>
                        </g>
                        <g id="Group-3-Copy-14" transform="translate(853.000000, 73.000000)">
                            <mask id="mask-12" fill="white">
                                <use xlink:href="#path-11"></use>
                            </mask>
                            <g id="Clip-396"></g>
                            <polygon id="Fill-395" fill="#FED445" mask="url(#mask-12)" points="-7.2972973 41.9069767 38.1081081 41.9069767 38.1081081 -7.11627907 -7.2972973 -7.11627907"></polygon>
                        </g>
                        <g id="Group-3-Copy-20" transform="translate(818.000000, 472.000000)">
                            <mask id="mask-14" fill="white">
                                <use xlink:href="#path-13"></use>
                            </mask>
                            <g id="Clip-396"></g>
                            <polygon id="Fill-395" fill="#FED445" mask="url(#mask-14)" points="-8.75 48.8 43.75 48.8 43.75 -8.8 -8.75 -8.8"></polygon>
                        </g>
                    </g>
                </g>
            </g>
        </g>
    </g>
</svg>