<?xml version="1.0" encoding="UTF-8"?>
<svg width="900px" height="855px" viewBox="0 0 900 855" version="1.1" xmlns="http://www.w3.org/2000/svg" xmlns:xlink="http://www.w3.org/1999/xlink">
    <!-- Generator: Sketch 52.4 (67378) - http://www.bohemiancoding.com/sketch -->
    <title>tablet-about-birds-1</title>
    <desc>Created with Sketch.</desc>
    <defs>
        <rect id="path-1" x="0" y="0" width="900" height="855"></rect>
        <path d="M164.152592,6.30318293e-11 L168.025759,6.30318293e-11 C178.632365,0.513825087 188.868684,5.23210319 196.589336,13.3988176 L221,15.5925659 L221,15.6118244 L208.86639,38.2328331 C211.843674,56.0209186 204.829153,74.3865393 190.30189,84.7821737 C191.592886,88.4783993 192.618894,92.4056389 193.147775,96.5638927 C195.630123,116.662119 187.390306,135.489768 173.293375,146.924966 L173.360169,147.15598 L171.573142,148.195543 C169.322933,149.928149 166.940229,151.429741 164.426127,152.700318 L0,254 L66.4779691,135.258754 L0,52.9022283 L112.572766,52.9022283 L127.232523,26.6821282 C128.489574,23.794452 129.978764,21.0222829 131.765791,18.4811278 L132.361467,17.4415643 L132.394317,17.5570714 C136.001221,12.5902683 140.567339,8.43201455 146.026971,5.31332424 C151.83214,2.0210248 158.010621,0.298052925 164.152621,0 L164.152592,6.30318293e-11 Z M169.223288,18.3656207 C165.583534,20.4447476 164.193989,25.2960437 166.11351,29.2232833 C168.031937,33.150523 172.59915,34.6521146 176.238904,32.5729877 C179.945453,30.4938608 181.334998,25.6425648 179.382627,21.7153251 C177.463105,17.7880855 172.896987,16.2864939 169.223288,18.3656207 Z" id="path-3"></path>
        <path d="M74.277191,2.82898761e-11 L76.029755,2.82898761e-11 C80.8291243,0.230614409 85.4609429,2.34826679 88.9544508,6.01364256 L100,6.99823825 L100,7.00688181 L94.5096788,17.159618 C95.8568662,25.1432469 92.6828749,33.3860846 86.1094527,38.0518417 C86.6936137,39.7107776 87.1578706,41.473397 87.3971834,43.3396999 C88.5204176,52.3601637 84.7919936,60.8103683 78.4132917,65.9427012 L78.4435155,66.0463847 L77.6349058,66.5129604 C76.6167116,67.2905866 75.5385653,67.9645293 74.4009624,68.5347885 L0,114 L30.080529,60.7066849 L0,23.7435198 L50.937903,23.7435198 L57.5712773,11.9754434 C58.1400788,10.6793997 58.8139202,9.43519782 59.6225299,8.2946794 L59.8920665,7.82810368 L59.9069306,7.87994543 C61.5390142,5.65075034 63.6051309,3.78444748 66.0755525,2.38472033 C68.7023257,0.907074121 71.4980187,0.133771785 74.2772041,0 L74.277191,2.82898761e-11 Z M76.5716236,8.24283765 C74.9246759,9.17598909 74.2959224,11.3533424 75.1644842,13.1159618 C76.0325505,14.8785812 78.0991627,15.5525239 79.7461104,14.6193724 C81.4232819,13.686221 82.0520354,11.5088677 81.1686095,9.74624829 C80.3000477,7.98362892 78.233931,7.30968622 76.5716236,8.24283765 Z" id="path-5"></path>
        <path d="M58.6789809,0.162889499 L60.0635064,0.162889499 C63.8550082,0.347322707 67.5141449,2.04090909 70.2740161,4.97228279 L79,5.75971035 L79,5.76662301 L74.6626462,13.8862445 C75.7269243,20.2711287 73.2194711,26.8633143 68.0264676,30.5947402 C68.4879548,31.9214694 68.8547178,33.3311191 69.0437749,34.8236895 C69.9311299,42.0377794 66.9856749,48.7958062 61.9465005,52.9003746 L61.9703772,52.9832952 L61.3315756,53.3564378 C60.5272021,53.9783421 59.6754666,54.5173258 58.7767603,54.9733889 L0,91.3340607 L23.7636179,48.7128856 L0,19.151701 L40.2409434,19.151701 L45.4813091,9.7402158 C45.9306622,8.70370863 46.4629969,7.70866174 47.1017986,6.79653542 L47.3147325,6.42339284 L47.3264752,6.46485313 C48.6158212,4.68206078 50.2480534,3.18949045 52.1996865,2.0700627 C54.2748373,0.888319411 56.4834348,0.269873098 58.6789912,0.162889499 L58.6789809,0.162889499 Z M60.4915827,6.75507514 C59.190494,7.5013603 58.6937787,9.24269236 59.3799425,10.6523421 C60.0657149,12.0619919 61.6983385,12.6009756 62.9994272,11.8546904 C64.3243927,11.1084053 64.821108,9.36707322 64.1232015,7.95742346 C63.4370377,6.5477737 61.8048055,6.00878997 60.4915827,6.75507514 Z" id="path-7"></path>
        <path d="M40.852455,1.53857221e-11 L41.8163652,1.53857221e-11 C44.4560184,0.125421872 47.0035186,1.27712755 48.9249479,3.27057754 L55,3.8060594 L55,3.81076028 L51.9803233,9.33242383 C52.7212764,13.6743975 50.9755812,18.1573442 47.360199,20.6948613 C47.6814875,21.5970896 47.9368289,22.5557071 48.0684509,23.570714 C48.6862297,28.4765803 46.6355965,33.0723056 43.1273104,35.8635744 L43.1439335,35.9199636 L42.6991982,36.1737153 C42.1391914,36.5966348 41.5462109,36.9631651 40.9205293,37.273306 L0,62 L16.544291,33.0159163 L0,12.9131423 L28.0158467,12.9131423 L31.6642025,6.51296044 C31.9770433,5.80809459 32.3476561,5.13142337 32.7923914,4.51114143 L32.9406366,4.25738972 L32.9488118,4.28558436 C33.8464578,3.0732151 34.982822,2.05820828 36.3415539,1.29695316 C37.7862792,0.493321013 39.3239103,0.0727530761 40.8524622,0 L40.852455,1.53857221e-11 Z M42.114393,4.48294679 C41.2085718,4.9904502 40.8627573,6.17462483 41.3404663,7.13324238 C41.8179028,8.09185994 42.9545395,8.45839018 43.8603607,7.95088677 C44.7828051,7.44338336 45.1286195,6.25920873 44.6427352,5.30059118 C44.1650262,4.34197362 43.028662,3.97544338 42.114393,4.48294679 Z" id="path-9"></path>
        <path d="M23.0259292,8.93364509e-12 L23.569224,8.93364509e-12 C25.0570285,0.0728256028 26.4928923,0.741557933 27.5758797,1.89904502 L31,2.20996997 L31,2.21269952 L29.2980004,5.41882674 C29.7156285,7.93997271 28.7316912,10.5429741 26.6939303,12.0163711 C26.8750203,12.5402456 27.0189399,13.0968622 27.0931269,13.686221 C27.4413295,16.5347885 26.285518,19.2032742 24.3081204,20.8240109 L24.3174898,20.8567531 L24.0668208,21.0040928 C23.7511806,21.2496589 23.4169552,21.4624829 23.0642983,21.6425648 L0,36 L9.32496399,19.1705321 L0,7.49795362 L15.7907499,7.49795362 L17.847096,3.78171896 C18.0234244,3.37244202 18.2323153,2.97953615 18.4829843,2.61937244 L18.5665406,2.47203274 L18.5711485,2.48840382 C19.0770944,1.78444748 19.7175906,1.19508868 20.4834213,0.753069577 C21.297721,0.286444459 22.1643858,0.0422437216 23.0259333,0 L23.0259292,8.93364509e-12 Z M23.7372033,2.60300136 C23.2266495,2.89768076 23.0317359,3.58526603 23.3009901,4.14188267 C23.5700907,4.69849932 24.2107404,4.91132333 24.7212942,4.61664393 C25.2412174,4.32196453 25.436131,3.63437926 25.1622689,3.07776262 C24.8930148,2.52114598 24.2525186,2.30832196 23.7372033,2.60300136 Z" id="path-11"></path>
        <path d="M26.7397888,1.01744291e-11 L27.3707118,1.01744291e-11 C29.0984847,0.0829402699 30.7659395,0.844552091 32.0236023,2.16280127 L36,2.51691025 L36,2.5200189 L34.0234844,6.17144156 C34.5084718,9.0427467 33.365835,12.007276 30.999403,13.6853115 C31.2097009,14.2819463 31.3768334,14.9158709 31.462986,15.587085 C31.8673504,18.8312869 30.5251177,21.8703956 28.228785,23.7162347 L28.2396656,23.7535243 L27.9485661,23.9213279 C27.5820162,24.2010005 27.1938835,24.4433834 26.7843465,24.6484766 L0,41 L10.8289904,21.833106 L0,8.53933606 L18.3376451,8.53933606 L20.7256598,4.30695771 C20.9304284,3.84083674 21.1730113,3.39336062 21.4641108,2.98317417 L21.5611439,2.81537062 L21.566495,2.83401546 C22.1540451,2.0322874 22.8978471,1.36107322 23.7871989,0.857662574 C24.7328373,0.326228412 25.7392867,0.0481109052 26.7397935,0 L26.7397888,1.01744291e-11 Z M27.5657845,2.96452933 C26.9728833,3.30013643 26.7465321,4.08321965 27.0592143,4.71714416 C27.3717182,5.35106867 28.1156986,5.59345157 28.7085998,5.25784447 C29.3123815,4.92223738 29.5387328,4.13915416 29.2206994,3.50522965 C28.9080172,2.87130514 28.1642152,2.62892224 27.5657845,2.96452933 Z" id="path-13"></path>
    </defs>
    <g id="Page-1" stroke="none" stroke-width="1" fill="none" fill-rule="evenodd">
        <g id="321-about-tablet-landscape" transform="translate(-62.000000, -70.000000)">
            <g id="tablet-about-birds-1" transform="translate(62.000000, 70.000000)">
                <mask id="mask-2" fill="white">
                    <use xlink:href="#path-1"></use>
                </mask>
                <use id="Mask" fill="#FFFFFF" fill-rule="nonzero" xlink:href="#path-1"></use>
                <g id="Group-8" mask="url(#mask-2)">
                    <g transform="translate(105.000000, -17.000000)">
                        <g id="Group-3-Copy-10" transform="translate(376.000000, 451.000000)">
                            <mask id="mask-4" fill="white">
                                <use xlink:href="#path-3"></use>
                            </mask>
                            <g id="Clip-396"></g>
                            <polygon id="Fill-395" fill="#FED445" mask="url(#mask-4)" points="-53.8014981 316.052117 282.250936 316.052117 282.250936 -54.6058632 -53.8014981 -54.6058632"></polygon>
                        </g>
                        <g id="Group-3-Copy-11" transform="translate(0.000000, 517.000000)">
                            <mask id="mask-6" fill="white">
                                <use xlink:href="#path-5"></use>
                            </mask>
                            <g id="Clip-396"></g>
                            <polygon id="Fill-395" fill="#FED445" mask="url(#mask-6)" points="-24.7933884 141.26087 127.272727 141.26087 127.272727 -24.7826087 -24.7933884 -24.7826087"></polygon>
                        </g>
                        <g id="Group-3-Copy-17" transform="translate(597.000000, 66.000000)">
                            <mask id="mask-8" fill="white">
                                <use xlink:href="#path-7"></use>
                            </mask>
                            <g id="Clip-396"></g>
                            <polygon id="Fill-395" fill="#FED445" mask="url(#mask-8)" points="-19.75 112.88361 100.395833 112.88361 100.395833 -19.7290024 -19.75 -19.7290024"></polygon>
                        </g>
                        <g id="Group-3-Copy-13" transform="translate(222.000000, 0.000000)">
                            <mask id="mask-10" fill="white">
                                <use xlink:href="#path-9"></use>
                            </mask>
                            <g id="Clip-396"></g>
                            <polygon id="Fill-395" fill="#FED445" mask="url(#mask-10)" points="-13.3333333 76.88 70 76.88 70 -13.2266667 -13.3333333 -13.2266667"></polygon>
                        </g>
                        <g id="Group-3-Copy-14" transform="translate(743.000000, 44.000000)">
                            <mask id="mask-12" fill="white">
                                <use xlink:href="#path-11"></use>
                            </mask>
                            <g id="Clip-396"></g>
                            <polygon id="Fill-395" fill="#FED445" mask="url(#mask-12)" points="-7.54054054 44.372093 39.3783784 44.372093 39.3783784 -7.53488372 -7.54054054 -7.53488372"></polygon>
                        </g>
                        <g id="Group-3-Copy-20" transform="translate(722.000000, 348.000000)">
                            <mask id="mask-14" fill="white">
                                <use xlink:href="#path-13"></use>
                            </mask>
                            <g id="Clip-396"></g>
                            <polygon id="Fill-395" fill="#FED445" mask="url(#mask-14)" points="-9 50.02 45 50.02 45 -9.02 -9 -9.02"></polygon>
                        </g>
                    </g>
                </g>
            </g>
        </g>
    </g>
</svg>