<?xml version="1.0" encoding="UTF-8"?>
<svg width="1195px" height="229px" viewBox="0 0 1195 229" version="1.1" xmlns="http://www.w3.org/2000/svg" xmlns:xlink="http://www.w3.org/1999/xlink">
    <!-- Generator: Sketch 52.4 (67378) - http://www.bohemiancoding.com/sketch -->
    <title>Group 12</title>
    <desc>Created with Sketch.</desc>
    <defs>
        <path d="M63.8783842,2.38230536e-11 L65.3855893,2.38230536e-11 C69.5130469,0.194201608 73.4964109,1.97748782 76.5008277,5.06412005 L86,5.89325326 L86,5.90053205 L81.2783238,14.4502046 C82.4369049,21.1732606 79.7072724,28.1145975 74.0541293,32.0436562 C74.5565078,33.4406548 74.9557688,34.9249659 75.1615778,36.4965894 C76.1275592,44.0927694 72.9211145,51.2087312 67.4354309,55.5306958 L67.4614233,55.6180082 L66.766019,56.0109141 C65.8903719,56.6657572 64.9631661,57.2332879 63.9848277,57.7135061 L0,96 L25.8692549,51.1214188 L0,19.994543 L43.8065966,19.994543 L49.5112985,10.0845839 C50.0004677,8.99317872 50.5799714,7.94542974 51.2753757,6.98499318 L51.5071772,6.59208731 L51.5199603,6.63574352 C52.9235522,4.7585266 54.7004126,3.18690314 56.8249751,2.00818554 C59.0840001,0.763851891 61.4882961,0.112649924 63.8783955,0 L63.8783842,2.38230536e-11 Z M65.8515963,6.94133697 C64.4352213,7.7271487 63.8944933,9.56070941 64.6414564,11.0450205 C65.3879934,12.5293315 67.1652799,13.0968622 68.581655,12.3110505 C70.0240224,11.5252387 70.5647505,9.69167804 69.8050042,8.20736699 C69.058041,6.72305593 67.2811806,6.15552524 65.8515963,6.94133697 Z" id="path-1"></path>
        <path d="M79.4765943,0.303470278 L81.3518378,0.303470278 C86.487163,0.548245221 91.4432089,2.79592889 95.1812624,6.6863716 L107,7.73142491 L107,7.74059921 L101.125356,18.516749 C102.566847,26.9906008 99.1706761,35.7395776 92.1371143,40.6918286 C92.7621667,42.452629 93.2589216,44.3234794 93.5149863,46.3043798 C94.7168469,55.8787318 90.7274331,64.8478086 83.9022221,70.2952847 L83.9345616,70.4053348 L83.0693492,70.9005599 C81.9798814,71.725935 80.8262649,72.4412602 79.6090298,73.0465353 L0,121.30347 L32.186166,64.7377586 L0,25.5049255 L54.5035562,25.5049255 L61.6012667,13.0142479 C62.2098843,11.6386226 62.9308946,10.3180223 63.796107,9.1074721 L64.0845111,8.612247 L64.1004158,8.66727201 C65.8467452,6.30119652 68.0574901,4.32029611 70.7008412,2.8346208 C73.5114885,1.26624193 76.50288,0.44545612 79.4766083,0.303470278 L79.4765943,0.303470278 Z M81.9316373,9.05244709 C80.1694032,10.0428973 79.496637,12.3539478 80.4259981,14.2247982 C81.354829,16.0956485 83.5661041,16.8109737 85.3283382,15.8205235 C87.1229116,14.8300733 87.7956779,12.5190228 86.8504122,10.6481724 C85.9210511,8.77732203 83.7103062,8.06199688 81.9316373,9.05244709 Z" id="path-3"></path>
        <path d="M39.3669112,0.5 L40.2957701,0.5 C42.8394359,0.621376005 45.2942997,1.73592989 47.1458589,3.66507503 L53,4.18328329 L53,4.18783253 L50.0901298,9.5313779 C50.8041391,13.7332879 49.1219237,18.0716235 45.6380099,20.5272851 C45.9476153,21.4004093 46.1936714,22.3281037 46.3205072,23.3103683 C46.9158214,28.0579809 44.9397566,32.505457 41.5590446,35.2066849 L41.5750632,35.2612551 L41.1465001,35.5068213 C40.6068571,35.9160982 40.0354396,36.2708049 39.4325101,36.5709413 L0,60.5 L15.9426804,32.4508868 L0,12.9965894 L26.9970886,12.9965894 L30.512777,6.80286494 C30.8142417,6.1207367 31.1713777,5.46589359 31.5999408,4.86562074 L31.7427952,4.62005457 L31.7506732,4.6473397 C32.6156775,3.47407913 33.7107194,2.49181446 35.0200428,1.75511596 C36.4122326,0.977407432 37.8939499,0.570406203 39.3669181,0.5 L39.3669112,0.5 Z M40.5829605,4.83833561 C39.7100782,5.32946794 39.3768389,6.47544338 39.8371766,7.40313779 C40.2972518,8.3308322 41.3925562,8.68553888 42.2654385,8.19440655 C43.1543394,7.70327422 43.4875788,6.55729877 43.019363,5.62960437 C42.5590253,4.70190996 41.4639834,4.34720327 40.5829605,4.83833561 Z" id="path-5"></path>
    </defs>
    <g id="Page-1" stroke="none" stroke-width="1" fill="none" fill-rule="evenodd">
        <g id="321-WEB-V2-ABOUT" transform="translate(-95.000000, -6219.000000)">
            <g id="Group-12" transform="translate(95.000000, 6219.000000)">
                <g id="Group-3-Copy-12" transform="translate(878.000000, 133.000000)">
                    <mask id="mask-2" fill="white">
                        <use xlink:href="#path-1"></use>
                    </mask>
                    <g id="Clip-396"></g>
                    <polygon id="Fill-395" fill="#FED445" mask="url(#mask-2)" points="-22 119 109 119 109 -21 -22 -21"></polygon>
                </g>
                <g id="Group-3-Copy-11" transform="translate(0.000000, 19.000000)">
                    <mask id="mask-4" fill="white">
                        <use xlink:href="#path-3"></use>
                    </mask>
                    <g id="Clip-396"></g>
                    <polygon id="Fill-395" fill="#FED445" mask="url(#mask-4)" points="-27 150.30347 136 150.30347 136 -26.6965297 -27 -26.6965297"></polygon>
                </g>
                <g id="Group-3-Copy-16" transform="translate(1142.000000, 0.000000)">
                    <mask id="mask-6" fill="white">
                        <use xlink:href="#path-5"></use>
                    </mask>
                    <g id="Clip-396"></g>
                    <polygon id="Fill-395" fill="#FED445" mask="url(#mask-6)" points="-14 74.5 67 74.5 67 -12.5 -14 -12.5"></polygon>
                </g>
            </g>
        </g>
    </g>
</svg>