<svg width="177" height="173" viewBox="0 0 177 173" fill="none" xmlns="http://www.w3.org/2000/svg">
<mask id="mask0" mask-type="alpha" maskUnits="userSpaceOnUse" x="0" y="0" width="177" height="173">
<path fill-rule="evenodd" clip-rule="evenodd" d="M88.5 173C39.6228 173 0 134.273 0 86.5C0 38.7271 39.6228 0 88.5 0C137.377 0 177 38.7271 177 86.5C177 134.273 137.377 173 88.5 173Z" fill="white"/>
</mask>
<g mask="url(#mask0)">
<path fill-rule="evenodd" clip-rule="evenodd" d="M-3.98633 176.896H180.987V-3.89648H-3.98633V176.896Z" fill="#FED445"/>
</g>
<path d="M38.3081 67.4V87H33.7721V71.04H29.8521V67.4H38.3081Z" fill="black"/>
<path d="M44.3169 81.792C45.1009 81.792 45.7449 82.044 46.2489 82.548C46.7529 83.0333 47.0049 83.6773 47.0049 84.48C47.0049 84.8533 46.9582 85.2266 46.8649 85.6C46.7716 85.9733 46.5662 86.5333 46.2489 87.28L44.6529 91.312H41.8809L43.1129 86.86C42.6462 86.6733 42.2729 86.3746 41.9929 85.964C41.7316 85.5346 41.6009 85.04 41.6009 84.48C41.6009 83.6773 41.8529 83.0333 42.3569 82.548C42.8796 82.044 43.5329 81.792 44.3169 81.792Z" fill="black"/>
<path d="M55.761 74.764C58.5237 74.764 60.5584 75.3146 61.865 76.416C63.1904 77.5173 63.853 78.992 63.853 80.84C63.853 82.0346 63.5544 83.1266 62.957 84.116C62.3597 85.0866 61.445 85.8706 60.213 86.468C58.9997 87.0466 57.497 87.336 55.705 87.336C54.3237 87.336 52.961 87.1586 51.617 86.804C50.2917 86.4306 49.1624 85.908 48.229 85.236L50.021 81.764C50.7677 82.324 51.6264 82.7626 52.597 83.08C53.5677 83.3786 54.5664 83.528 55.593 83.528C56.7317 83.528 57.6277 83.304 58.281 82.856C58.9344 82.408 59.261 81.7826 59.261 80.98C59.261 80.14 58.9157 79.5053 58.225 79.076C57.553 78.6466 56.377 78.432 54.697 78.432H49.685L50.693 67.4H62.649V71.04H54.473L54.165 74.764H55.761Z" fill="black"/>
<path d="M79.1054 76.696C80.076 77.1813 80.8134 77.816 81.3174 78.6C81.84 79.384 82.1014 80.2893 82.1014 81.316C82.1014 82.5293 81.756 83.5933 81.0654 84.508C80.3747 85.404 79.404 86.104 78.1534 86.608C76.9027 87.0933 75.456 87.336 73.8134 87.336C72.1707 87.336 70.724 87.0933 69.4734 86.608C68.2414 86.104 67.28 85.404 66.5894 84.508C65.9174 83.5933 65.5814 82.5293 65.5814 81.316C65.5814 80.2893 65.8334 79.384 66.3374 78.6C66.86 77.816 67.5974 77.1813 68.5494 76.696C67.8214 76.248 67.2614 75.688 66.8694 75.016C66.4774 74.3253 66.2814 73.5413 66.2814 72.664C66.2814 71.5253 66.5987 70.536 67.2334 69.696C67.868 68.856 68.7547 68.212 69.8934 67.764C71.032 67.2973 72.3387 67.064 73.8134 67.064C75.3067 67.064 76.6227 67.2973 77.7614 67.764C78.9187 68.212 79.8147 68.856 80.4494 69.696C81.084 70.536 81.4014 71.5253 81.4014 72.664C81.4014 73.5413 81.2054 74.3253 80.8134 75.016C80.4214 75.688 79.852 76.248 79.1054 76.696ZM73.8134 70.396C72.8987 70.396 72.1614 70.62 71.6014 71.068C71.06 71.4973 70.7894 72.0946 70.7894 72.86C70.7894 73.6066 71.06 74.1946 71.6014 74.624C72.1427 75.0533 72.88 75.268 73.8134 75.268C74.7467 75.268 75.4934 75.0533 76.0534 74.624C76.6134 74.1946 76.8934 73.6066 76.8934 72.86C76.8934 72.0946 76.6134 71.4973 76.0534 71.068C75.4934 70.62 74.7467 70.396 73.8134 70.396ZM73.8134 84.004C74.952 84.004 75.848 83.752 76.5014 83.248C77.1734 82.7253 77.5094 82.0346 77.5094 81.176C77.5094 80.3173 77.1734 79.636 76.5014 79.132C75.848 78.628 74.952 78.376 73.8134 78.376C72.6934 78.376 71.8067 78.628 71.1534 79.132C70.5 79.636 70.1734 80.3173 70.1734 81.176C70.1734 82.0533 70.5 82.744 71.1534 83.248C71.8067 83.752 72.6934 84.004 73.8134 84.004Z" fill="black"/>
<path d="M87.0552 81.792C87.8392 81.792 88.4832 82.044 88.9872 82.548C89.4912 83.0333 89.7432 83.6773 89.7432 84.48C89.7432 84.8533 89.6965 85.2266 89.6032 85.6C89.5098 85.9733 89.3045 86.5333 88.9872 87.28L87.3912 91.312H84.6192L85.8512 86.86C85.3845 86.6733 85.0112 86.3746 84.7312 85.964C84.4698 85.5346 84.3392 85.04 84.3392 84.48C84.3392 83.6773 84.5912 83.0333 85.0952 82.548C85.6178 82.044 86.2712 81.792 87.0552 81.792Z" fill="black"/>
<path d="M99.8238 87.336C98.1998 87.336 96.7532 86.9346 95.4838 86.132C94.2145 85.3293 93.2158 84.172 92.4878 82.66C91.7785 81.1293 91.4238 79.3093 91.4238 77.2C91.4238 75.0906 91.7785 73.28 92.4878 71.768C93.2158 70.2373 94.2145 69.0706 95.4838 68.268C96.7532 67.4653 98.1998 67.064 99.8238 67.064C101.448 67.064 102.895 67.4653 104.164 68.268C105.433 69.0706 106.423 70.2373 107.132 71.768C107.86 73.28 108.224 75.0906 108.224 77.2C108.224 79.3093 107.86 81.1293 107.132 82.66C106.423 84.172 105.433 85.3293 104.164 86.132C102.895 86.9346 101.448 87.336 99.8238 87.336ZM99.8238 83.5C101.018 83.5 101.952 82.9866 102.624 81.96C103.314 80.9333 103.66 79.3466 103.66 77.2C103.66 75.0533 103.314 73.4666 102.624 72.44C101.952 71.4133 101.018 70.9 99.8238 70.9C98.6478 70.9 97.7145 71.4133 97.0238 72.44C96.3518 73.4666 96.0158 75.0533 96.0158 77.2C96.0158 79.3466 96.3518 80.9333 97.0238 81.96C97.7145 82.9866 98.6478 83.5 99.8238 83.5Z" fill="black"/>
<path d="M118.828 87.336C117.204 87.336 115.757 86.9346 114.488 86.132C113.218 85.3293 112.22 84.172 111.492 82.66C110.782 81.1293 110.428 79.3093 110.428 77.2C110.428 75.0906 110.782 73.28 111.492 71.768C112.22 70.2373 113.218 69.0706 114.488 68.268C115.757 67.4653 117.204 67.064 118.828 67.064C120.452 67.064 121.898 67.4653 123.168 68.268C124.437 69.0706 125.426 70.2373 126.136 71.768C126.864 73.28 127.228 75.0906 127.228 77.2C127.228 79.3093 126.864 81.1293 126.136 82.66C125.426 84.172 124.437 85.3293 123.168 86.132C121.898 86.9346 120.452 87.336 118.828 87.336ZM118.828 83.5C120.022 83.5 120.956 82.9866 121.628 81.96C122.318 80.9333 122.664 79.3466 122.664 77.2C122.664 75.0533 122.318 73.4666 121.628 72.44C120.956 71.4133 120.022 70.9 118.828 70.9C117.652 70.9 116.718 71.4133 116.028 72.44C115.356 73.4666 115.02 75.0533 115.02 77.2C115.02 79.3466 115.356 80.9333 116.028 81.96C116.718 82.9866 117.652 83.5 118.828 83.5Z" fill="black"/>
<path d="M137.832 87.336C136.208 87.336 134.761 86.9346 133.492 86.132C132.222 85.3293 131.224 84.172 130.496 82.66C129.786 81.1293 129.432 79.3093 129.432 77.2C129.432 75.0906 129.786 73.28 130.496 71.768C131.224 70.2373 132.222 69.0706 133.492 68.268C134.761 67.4653 136.208 67.064 137.832 67.064C139.456 67.064 140.902 67.4653 142.172 68.268C143.441 69.0706 144.43 70.2373 145.14 71.768C145.868 73.28 146.232 75.0906 146.232 77.2C146.232 79.3093 145.868 81.1293 145.14 82.66C144.43 84.172 143.441 85.3293 142.172 86.132C140.902 86.9346 139.456 87.336 137.832 87.336ZM137.832 83.5C139.026 83.5 139.96 82.9866 140.632 81.96C141.322 80.9333 141.668 79.3466 141.668 77.2C141.668 75.0533 141.322 73.4666 140.632 72.44C139.96 71.4133 139.026 70.9 137.832 70.9C136.656 70.9 135.722 71.4133 135.032 72.44C134.36 73.4666 134.024 75.0533 134.024 77.2C134.024 79.3466 134.36 80.9333 135.032 81.96C135.722 82.9866 136.656 83.5 137.832 83.5Z" fill="black"/>
<path d="M51.4889 116.126C50.7089 116.126 49.9469 116.024 49.2029 115.82C48.4589 115.616 47.8649 115.358 47.4209 115.046L48.2849 113.336C48.7169 113.624 49.2329 113.858 49.8329 114.038C50.4449 114.206 51.0449 114.29 51.6329 114.29C52.9769 114.29 53.6489 113.936 53.6489 113.228C53.6489 112.892 53.4749 112.658 53.1269 112.526C52.7909 112.394 52.2449 112.268 51.4889 112.148C50.6969 112.028 50.0489 111.89 49.5449 111.734C49.0529 111.578 48.6209 111.308 48.2489 110.924C47.8889 110.528 47.7089 109.982 47.7089 109.286C47.7089 108.374 48.0869 107.648 48.8429 107.108C49.6109 106.556 50.6429 106.28 51.9389 106.28C52.5989 106.28 53.2589 106.358 53.9189 106.514C54.5789 106.658 55.1189 106.856 55.5389 107.108L54.6749 108.818C53.8589 108.338 52.9409 108.098 51.9209 108.098C51.2609 108.098 50.7569 108.2 50.4089 108.404C50.0729 108.596 49.9049 108.854 49.9049 109.178C49.9049 109.538 50.0849 109.796 50.4449 109.952C50.8169 110.096 51.3869 110.234 52.1549 110.366C52.9229 110.486 53.5529 110.624 54.0449 110.78C54.5369 110.936 54.9569 111.2 55.3049 111.572C55.6649 111.944 55.8449 112.472 55.8449 113.156C55.8449 114.056 55.4549 114.776 54.6749 115.316C53.8949 115.856 52.8329 116.126 51.4889 116.126Z" fill="black"/>
<path d="M63.5606 115.478C63.2966 115.694 62.9726 115.856 62.5886 115.964C62.2166 116.072 61.8206 116.126 61.4006 116.126C60.3446 116.126 59.5286 115.85 58.9526 115.298C58.3766 114.746 58.0886 113.942 58.0886 112.886V108.26H56.5046V106.46H58.0886V104.264H60.3386V106.46H62.9126V108.26H60.3386V112.832C60.3386 113.3 60.4526 113.66 60.6806 113.912C60.9086 114.152 61.2386 114.272 61.6706 114.272C62.1746 114.272 62.5946 114.14 62.9306 113.876L63.5606 115.478Z" fill="black"/>
<path d="M74.7175 106.388V116H72.5755V114.776C72.2155 115.208 71.7655 115.544 71.2255 115.784C70.6855 116.012 70.1035 116.126 69.4795 116.126C68.1955 116.126 67.1815 115.772 66.4375 115.064C65.7055 114.344 65.3395 113.282 65.3395 111.878V106.388H67.5895V111.572C67.5895 112.436 67.7815 113.084 68.1655 113.516C68.5615 113.936 69.1195 114.146 69.8395 114.146C70.6435 114.146 71.2795 113.9 71.7475 113.408C72.2275 112.904 72.4675 112.184 72.4675 111.248V106.388H74.7175Z" fill="black"/>
<path d="M87.0774 102.644V116H84.9174V114.758C84.5454 115.214 84.0834 115.556 83.5314 115.784C82.9914 116.012 82.3914 116.126 81.7314 116.126C80.8074 116.126 79.9734 115.922 79.2294 115.514C78.4974 115.106 77.9214 114.53 77.5014 113.786C77.0814 113.03 76.8714 112.166 76.8714 111.194C76.8714 110.222 77.0814 109.364 77.5014 108.62C77.9214 107.876 78.4974 107.3 79.2294 106.892C79.9734 106.484 80.8074 106.28 81.7314 106.28C82.3674 106.28 82.9494 106.388 83.4774 106.604C84.0054 106.82 84.4554 107.144 84.8274 107.576V102.644H87.0774ZM82.0014 114.2C82.5414 114.2 83.0274 114.08 83.4594 113.84C83.8914 113.588 84.2334 113.234 84.4854 112.778C84.7374 112.322 84.8634 111.794 84.8634 111.194C84.8634 110.594 84.7374 110.066 84.4854 109.61C84.2334 109.154 83.8914 108.806 83.4594 108.566C83.0274 108.314 82.5414 108.188 82.0014 108.188C81.4614 108.188 80.9754 108.314 80.5434 108.566C80.1114 108.806 79.7694 109.154 79.5174 109.61C79.2654 110.066 79.1394 110.594 79.1394 111.194C79.1394 111.794 79.2654 112.322 79.5174 112.778C79.7694 113.234 80.1114 113.588 80.5434 113.84C80.9754 114.08 81.4614 114.2 82.0014 114.2Z" fill="black"/>
<path d="M99.0569 111.248C99.0569 111.404 99.0449 111.626 99.0209 111.914H91.4789C91.6109 112.622 91.9529 113.186 92.5049 113.606C93.0689 114.014 93.7649 114.218 94.5929 114.218C95.6489 114.218 96.5189 113.87 97.2029 113.174L98.4089 114.56C97.9769 115.076 97.4309 115.466 96.7709 115.73C96.1109 115.994 95.3669 116.126 94.5389 116.126C93.4829 116.126 92.5529 115.916 91.7489 115.496C90.9449 115.076 90.3209 114.494 89.8769 113.75C89.4449 112.994 89.2289 112.142 89.2289 111.194C89.2289 110.258 89.4389 109.418 89.8589 108.674C90.2909 107.918 90.8849 107.33 91.6409 106.91C92.3969 106.49 93.2489 106.28 94.1969 106.28C95.1329 106.28 95.9669 106.49 96.6989 106.91C97.4429 107.318 98.0189 107.9 98.4269 108.656C98.8469 109.4 99.0569 110.264 99.0569 111.248ZM94.1969 108.08C93.4769 108.08 92.8649 108.296 92.3609 108.728C91.8689 109.148 91.5689 109.712 91.4609 110.42H96.9149C96.8189 109.724 96.5249 109.16 96.0329 108.728C95.5409 108.296 94.9289 108.08 94.1969 108.08Z" fill="black"/>
<path d="M106.672 106.28C107.884 106.28 108.856 106.634 109.588 107.342C110.32 108.05 110.686 109.1 110.686 110.492V116H108.436V110.78C108.436 109.94 108.238 109.31 107.842 108.89C107.446 108.458 106.882 108.242 106.15 108.242C105.322 108.242 104.668 108.494 104.188 108.998C103.708 109.49 103.468 110.204 103.468 111.14V116H101.218V106.388H103.36V107.63C103.732 107.186 104.2 106.85 104.764 106.622C105.328 106.394 105.964 106.28 106.672 106.28Z" fill="black"/>
<path d="M119.318 115.478C119.054 115.694 118.73 115.856 118.346 115.964C117.974 116.072 117.578 116.126 117.158 116.126C116.102 116.126 115.286 115.85 114.71 115.298C114.134 114.746 113.846 113.942 113.846 112.886V108.26H112.262V106.46H113.846V104.264H116.096V106.46H118.67V108.26H116.096V112.832C116.096 113.3 116.21 113.66 116.438 113.912C116.666 114.152 116.996 114.272 117.428 114.272C117.932 114.272 118.352 114.14 118.688 113.876L119.318 115.478Z" fill="black"/>
<path d="M124.139 116.126C123.359 116.126 122.597 116.024 121.853 115.82C121.109 115.616 120.515 115.358 120.071 115.046L120.935 113.336C121.367 113.624 121.883 113.858 122.483 114.038C123.095 114.206 123.695 114.29 124.283 114.29C125.627 114.29 126.299 113.936 126.299 113.228C126.299 112.892 126.125 112.658 125.777 112.526C125.441 112.394 124.895 112.268 124.139 112.148C123.347 112.028 122.699 111.89 122.195 111.734C121.703 111.578 121.271 111.308 120.899 110.924C120.539 110.528 120.359 109.982 120.359 109.286C120.359 108.374 120.737 107.648 121.493 107.108C122.261 106.556 123.293 106.28 124.589 106.28C125.249 106.28 125.909 106.358 126.569 106.514C127.229 106.658 127.769 106.856 128.189 107.108L127.325 108.818C126.509 108.338 125.591 108.098 124.571 108.098C123.911 108.098 123.407 108.2 123.059 108.404C122.723 108.596 122.555 108.854 122.555 109.178C122.555 109.538 122.735 109.796 123.095 109.952C123.467 110.096 124.037 110.234 124.805 110.366C125.573 110.486 126.203 110.624 126.695 110.78C127.187 110.936 127.607 111.2 127.955 111.572C128.315 111.944 128.495 112.472 128.495 113.156C128.495 114.056 128.105 114.776 127.325 115.316C126.545 115.856 125.483 116.126 124.139 116.126Z" fill="black"/>
</svg>
