<svg width="177" height="173" viewBox="0 0 177 173" fill="none" xmlns="http://www.w3.org/2000/svg">
<mask id="mask0_721_454" style="mask-type:alpha" maskUnits="userSpaceOnUse" x="0" y="0" width="177" height="173">
<path fill-rule="evenodd" clip-rule="evenodd" d="M88.5 173C39.6228 173 0 134.273 0 86.5C0 38.7271 39.6228 0 88.5 0C137.377 0 177 38.7271 177 86.5C177 134.273 137.377 173 88.5 173Z" fill="white"/>
</mask>
<g mask="url(#mask0_721_454)">
<path fill-rule="evenodd" clip-rule="evenodd" d="M-3.98633 176.896H180.987V-3.89648H-3.98633V176.896Z" fill="#FED445"/>
</g>
<path d="M40.8477 87V84.06L48.4077 76.92C49.005 76.3786 49.4437 75.8933 49.7237 75.464C50.0037 75.0346 50.1903 74.6426 50.2837 74.288C50.3957 73.9333 50.4517 73.6066 50.4517 73.308C50.4517 72.524 50.181 71.9266 49.6397 71.516C49.117 71.0866 48.3423 70.872 47.3157 70.872C46.4943 70.872 45.729 71.0306 45.0197 71.348C44.329 71.6653 43.741 72.16 43.2557 72.832L39.9517 70.704C40.6983 69.584 41.7437 68.6973 43.0877 68.044C44.4317 67.3906 45.981 67.064 47.7357 67.064C49.1917 67.064 50.461 67.3066 51.5437 67.792C52.645 68.2586 53.4943 68.9213 54.0917 69.78C54.7077 70.6386 55.0157 71.6653 55.0157 72.86C55.0157 73.4946 54.9317 74.1293 54.7637 74.764C54.6143 75.38 54.297 76.0333 53.8117 76.724C53.345 77.4146 52.6543 78.1893 51.7397 79.048L45.4677 84.956L44.5997 83.304H55.6597V87H40.8477Z" fill="black"/>
<path d="M64.1953 87.336C62.8326 87.336 61.4793 87.1586 60.1353 86.804C58.81 86.4306 57.6713 85.908 56.7193 85.236L58.5113 81.764C59.258 82.3053 60.1166 82.7346 61.0873 83.052C62.0766 83.3693 63.0753 83.528 64.0833 83.528C65.222 83.528 66.118 83.304 66.7713 82.856C67.4246 82.408 67.7513 81.7826 67.7513 80.98C67.7513 80.476 67.6206 80.028 67.3593 79.636C67.098 79.244 66.6313 78.9453 65.9593 78.74C65.306 78.5346 64.382 78.432 63.1873 78.432H58.1753L59.1833 67.4H71.1393V71.04H60.8073L63.1593 68.968L62.4593 76.836L60.1073 74.764H64.2513C66.1926 74.764 67.7513 75.0346 68.9273 75.576C70.122 76.0986 70.99 76.8173 71.5313 77.732C72.0726 78.6466 72.3433 79.6826 72.3433 80.84C72.3433 81.9973 72.054 83.0706 71.4753 84.06C70.8966 85.0306 70.0006 85.824 68.7873 86.44C67.5926 87.0373 66.062 87.336 64.1953 87.336Z" fill="black"/>
<path d="M74.3516 91.312L76.1996 84.592L76.8156 87.112C76.013 87.112 75.3503 86.8786 74.8276 86.412C74.3236 85.9453 74.0716 85.3013 74.0716 84.48C74.0716 83.6586 74.333 83.0053 74.8556 82.52C75.3783 82.0346 76.0223 81.792 76.7876 81.792C77.5716 81.792 78.2156 82.044 78.7196 82.548C79.2236 83.0333 79.4756 83.6773 79.4756 84.48C79.4756 84.7226 79.457 84.9653 79.4196 85.208C79.3823 85.432 79.3076 85.712 79.1956 86.048C79.1023 86.3653 78.9436 86.776 78.7196 87.28L77.1236 91.312H74.3516Z" fill="black"/>
<path d="M89.5563 87.336C87.951 87.336 86.5136 86.944 85.2443 86.16C83.975 85.3573 82.9763 84.2 82.2483 82.688C81.5203 81.176 81.1563 79.3466 81.1563 77.2C81.1563 75.0533 81.5203 73.224 82.2483 71.712C82.9763 70.2 83.975 69.052 85.2443 68.268C86.5136 67.4653 87.951 67.064 89.5563 67.064C91.1803 67.064 92.6176 67.4653 93.8683 68.268C95.1376 69.052 96.1363 70.2 96.8643 71.712C97.5923 73.224 97.9563 75.0533 97.9563 77.2C97.9563 79.3466 97.5923 81.176 96.8643 82.688C96.1363 84.2 95.1376 85.3573 93.8683 86.16C92.6176 86.944 91.1803 87.336 89.5563 87.336ZM89.5563 83.5C90.3216 83.5 90.9843 83.2853 91.5443 82.856C92.123 82.4266 92.571 81.7453 92.8883 80.812C93.2243 79.8786 93.3923 78.6746 93.3923 77.2C93.3923 75.7253 93.2243 74.5213 92.8883 73.588C92.571 72.6546 92.123 71.9733 91.5443 71.544C90.9843 71.1146 90.3216 70.9 89.5563 70.9C88.8096 70.9 88.147 71.1146 87.5683 71.544C87.0083 71.9733 86.5603 72.6546 86.2243 73.588C85.907 74.5213 85.7483 75.7253 85.7483 77.2C85.7483 78.6746 85.907 79.8786 86.2243 80.812C86.5603 81.7453 87.0083 82.4266 87.5683 82.856C88.147 83.2853 88.8096 83.5 89.5563 83.5Z" fill="black"/>
<path d="M108.56 87.336C106.955 87.336 105.518 86.944 104.248 86.16C102.979 85.3573 101.98 84.2 101.252 82.688C100.524 81.176 100.16 79.3466 100.16 77.2C100.16 75.0533 100.524 73.224 101.252 71.712C101.98 70.2 102.979 69.052 104.248 68.268C105.518 67.4653 106.955 67.064 108.56 67.064C110.184 67.064 111.622 67.4653 112.872 68.268C114.142 69.052 115.14 70.2 115.868 71.712C116.596 73.224 116.96 75.0533 116.96 77.2C116.96 79.3466 116.596 81.176 115.868 82.688C115.14 84.2 114.142 85.3573 112.872 86.16C111.622 86.944 110.184 87.336 108.56 87.336ZM108.56 83.5C109.326 83.5 109.988 83.2853 110.548 82.856C111.127 82.4266 111.575 81.7453 111.892 80.812C112.228 79.8786 112.396 78.6746 112.396 77.2C112.396 75.7253 112.228 74.5213 111.892 73.588C111.575 72.6546 111.127 71.9733 110.548 71.544C109.988 71.1146 109.326 70.9 108.56 70.9C107.814 70.9 107.151 71.1146 106.572 71.544C106.012 71.9733 105.564 72.6546 105.228 73.588C104.911 74.5213 104.752 75.7253 104.752 77.2C104.752 78.6746 104.911 79.8786 105.228 80.812C105.564 81.7453 106.012 82.4266 106.572 82.856C107.151 83.2853 107.814 83.5 108.56 83.5Z" fill="black"/>
<path d="M127.564 87.336C125.959 87.336 124.521 86.944 123.252 86.16C121.983 85.3573 120.984 84.2 120.256 82.688C119.528 81.176 119.164 79.3466 119.164 77.2C119.164 75.0533 119.528 73.224 120.256 71.712C120.984 70.2 121.983 69.052 123.252 68.268C124.521 67.4653 125.959 67.064 127.564 67.064C129.188 67.064 130.625 67.4653 131.876 68.268C133.145 69.052 134.144 70.2 134.872 71.712C135.6 73.224 135.964 75.0533 135.964 77.2C135.964 79.3466 135.6 81.176 134.872 82.688C134.144 84.2 133.145 85.3573 131.876 86.16C130.625 86.944 129.188 87.336 127.564 87.336ZM127.564 83.5C128.329 83.5 128.992 83.2853 129.552 82.856C130.131 82.4266 130.579 81.7453 130.896 80.812C131.232 79.8786 131.4 78.6746 131.4 77.2C131.4 75.7253 131.232 74.5213 130.896 73.588C130.579 72.6546 130.131 71.9733 129.552 71.544C128.992 71.1146 128.329 70.9 127.564 70.9C126.817 70.9 126.155 71.1146 125.576 71.544C125.016 71.9733 124.568 72.6546 124.232 73.588C123.915 74.5213 123.756 75.7253 123.756 77.2C123.756 78.6746 123.915 79.8786 124.232 80.812C124.568 81.7453 125.016 82.4266 125.576 82.856C126.155 83.2853 126.817 83.5 127.564 83.5Z" fill="black"/>
<path d="M53.13 116.126C52.074 116.126 51.258 115.856 50.682 115.316C50.106 114.764 49.818 113.954 49.818 112.886V104.264H52.068V112.832C52.068 113.288 52.182 113.642 52.41 113.894C52.65 114.146 52.98 114.272 53.4 114.272C53.904 114.272 54.324 114.14 54.66 113.876L55.29 115.478C55.026 115.694 54.702 115.856 54.318 115.964C53.934 116.072 53.538 116.126 53.13 116.126ZM48.234 108.26V106.46H54.642V108.26H48.234Z" fill="black"/>
<path d="M61.3425 116.126C60.2745 116.126 59.3385 115.916 58.5345 115.496C57.7425 115.064 57.1245 114.476 56.6805 113.732C56.2485 112.988 56.0325 112.142 56.0325 111.194C56.0325 110.234 56.2425 109.388 56.6625 108.656C57.0945 107.912 57.6825 107.33 58.4265 106.91C59.1825 106.49 60.0405 106.28 61.0005 106.28C61.9365 106.28 62.7705 106.484 63.5025 106.892C64.2345 107.3 64.8105 107.876 65.2305 108.62C65.6505 109.364 65.8605 110.24 65.8605 111.248C65.8605 111.344 65.8545 111.452 65.8425 111.572C65.8425 111.692 65.8365 111.806 65.8245 111.914H57.8145V110.42H64.6365L63.7545 110.888C63.7665 110.336 63.6525 109.85 63.4125 109.43C63.1725 109.01 62.8425 108.68 62.4225 108.44C62.0145 108.2 61.5405 108.08 61.0005 108.08C60.4485 108.08 59.9625 108.2 59.5425 108.44C59.1345 108.68 58.8105 109.016 58.5705 109.448C58.3425 109.868 58.2285 110.366 58.2285 110.942V111.302C58.2285 111.878 58.3605 112.388 58.6245 112.832C58.8885 113.276 59.2605 113.618 59.7405 113.858C60.2205 114.098 60.7725 114.218 61.3965 114.218C61.9365 114.218 62.4225 114.134 62.8545 113.966C63.2865 113.798 63.6705 113.534 64.0065 113.174L65.2125 114.56C64.7805 115.064 64.2345 115.454 63.5745 115.73C62.9265 115.994 62.1825 116.126 61.3425 116.126Z" fill="black"/>
<path d="M73.6801 116V114.056L73.5541 113.642V110.24C73.5541 109.58 73.3561 109.07 72.9601 108.71C72.5641 108.338 71.9641 108.152 71.1601 108.152C70.6201 108.152 70.0861 108.236 69.5581 108.404C69.0421 108.572 68.6041 108.806 68.2441 109.106L67.3621 107.468C67.8781 107.072 68.4901 106.778 69.1981 106.586C69.9181 106.382 70.6621 106.28 71.4301 106.28C72.8221 106.28 73.8961 106.616 74.6521 107.288C75.4201 107.948 75.8041 108.974 75.8041 110.366V116H73.6801ZM70.6561 116.126C69.9361 116.126 69.3061 116.006 68.7661 115.766C68.2261 115.514 67.8061 115.172 67.5061 114.74C67.2181 114.296 67.0741 113.798 67.0741 113.246C67.0741 112.706 67.2001 112.22 67.4521 111.788C67.7161 111.356 68.1421 111.014 68.7301 110.762C69.3181 110.51 70.0981 110.384 71.0701 110.384H73.8601V111.878H71.2321C70.4641 111.878 69.9481 112.004 69.6841 112.256C69.4201 112.496 69.2881 112.796 69.2881 113.156C69.2881 113.564 69.4501 113.888 69.7741 114.128C70.0981 114.368 70.5481 114.488 71.1241 114.488C71.6761 114.488 72.1681 114.362 72.6001 114.11C73.0441 113.858 73.3621 113.486 73.5541 112.994L73.9321 114.344C73.7161 114.908 73.3261 115.346 72.7621 115.658C72.2101 115.97 71.5081 116.126 70.6561 116.126Z" fill="black"/>
<path d="M83.1192 116.126C82.1112 116.126 81.2112 115.916 80.4192 115.496C79.6392 115.064 79.0272 114.476 78.5832 113.732C78.1392 112.988 77.9172 112.142 77.9172 111.194C77.9172 110.234 78.1392 109.388 78.5832 108.656C79.0272 107.912 79.6392 107.33 80.4192 106.91C81.2112 106.49 82.1112 106.28 83.1192 106.28C84.0552 106.28 84.8772 106.472 85.5852 106.856C86.3052 107.228 86.8512 107.78 87.2232 108.512L85.4952 109.52C85.2072 109.064 84.8532 108.728 84.4332 108.512C84.0252 108.296 83.5812 108.188 83.1012 108.188C82.5492 108.188 82.0512 108.308 81.6072 108.548C81.1632 108.788 80.8152 109.136 80.5632 109.592C80.3112 110.036 80.1852 110.57 80.1852 111.194C80.1852 111.818 80.3112 112.358 80.5632 112.814C80.8152 113.258 81.1632 113.6 81.6072 113.84C82.0512 114.08 82.5492 114.2 83.1012 114.2C83.5812 114.2 84.0252 114.092 84.4332 113.876C84.8532 113.66 85.2072 113.324 85.4952 112.868L87.2232 113.876C86.8512 114.596 86.3052 115.154 85.5852 115.55C84.8772 115.934 84.0552 116.126 83.1192 116.126Z" fill="black"/>
<path d="M94.5343 106.28C95.3023 106.28 95.9863 106.43 96.5863 106.73C97.1983 107.03 97.6783 107.492 98.0263 108.116C98.3743 108.728 98.5483 109.52 98.5483 110.492V116H96.2983V110.78C96.2983 109.928 96.0943 109.292 95.6863 108.872C95.2903 108.452 94.7323 108.242 94.0123 108.242C93.4843 108.242 93.0163 108.35 92.6083 108.566C92.2003 108.782 91.8823 109.106 91.6543 109.538C91.4383 109.958 91.3303 110.492 91.3303 111.14V116H89.0803V102.644H91.3303V108.98L90.8443 108.188C91.1803 107.576 91.6663 107.108 92.3023 106.784C92.9503 106.448 93.6943 106.28 94.5343 106.28Z" fill="black"/>
<path d="M105.938 116.126C104.87 116.126 103.934 115.916 103.13 115.496C102.338 115.064 101.72 114.476 101.276 113.732C100.844 112.988 100.628 112.142 100.628 111.194C100.628 110.234 100.838 109.388 101.258 108.656C101.69 107.912 102.278 107.33 103.022 106.91C103.778 106.49 104.636 106.28 105.596 106.28C106.532 106.28 107.366 106.484 108.098 106.892C108.83 107.3 109.406 107.876 109.826 108.62C110.246 109.364 110.456 110.24 110.456 111.248C110.456 111.344 110.45 111.452 110.438 111.572C110.438 111.692 110.432 111.806 110.42 111.914H102.41V110.42H109.232L108.35 110.888C108.362 110.336 108.248 109.85 108.008 109.43C107.768 109.01 107.438 108.68 107.018 108.44C106.61 108.2 106.136 108.08 105.596 108.08C105.044 108.08 104.558 108.2 104.138 108.44C103.73 108.68 103.406 109.016 103.166 109.448C102.938 109.868 102.824 110.366 102.824 110.942V111.302C102.824 111.878 102.956 112.388 103.22 112.832C103.484 113.276 103.856 113.618 104.336 113.858C104.816 114.098 105.368 114.218 105.992 114.218C106.532 114.218 107.018 114.134 107.45 113.966C107.882 113.798 108.266 113.534 108.602 113.174L109.808 114.56C109.376 115.064 108.83 115.454 108.17 115.73C107.522 115.994 106.778 116.126 105.938 116.126Z" fill="black"/>
<path d="M112.617 116V106.388H114.759V109.034L114.507 108.26C114.795 107.612 115.245 107.12 115.857 106.784C116.481 106.448 117.255 106.28 118.179 106.28V108.422C118.083 108.398 117.993 108.386 117.909 108.386C117.825 108.374 117.741 108.368 117.657 108.368C116.805 108.368 116.127 108.62 115.623 109.124C115.119 109.616 114.867 110.354 114.867 111.338V116H112.617Z" fill="black"/>
<path d="M123.146 116.126C122.342 116.126 121.568 116.024 120.824 115.82C120.092 115.604 119.51 115.346 119.078 115.046L119.942 113.336C120.374 113.612 120.89 113.84 121.49 114.02C122.09 114.2 122.69 114.29 123.29 114.29C123.998 114.29 124.508 114.194 124.82 114.002C125.144 113.81 125.306 113.552 125.306 113.228C125.306 112.964 125.198 112.766 124.982 112.634C124.766 112.49 124.484 112.382 124.136 112.31C123.788 112.238 123.398 112.172 122.966 112.112C122.546 112.052 122.12 111.974 121.688 111.878C121.268 111.77 120.884 111.62 120.536 111.428C120.188 111.224 119.906 110.954 119.69 110.618C119.474 110.282 119.366 109.838 119.366 109.286C119.366 108.674 119.54 108.146 119.888 107.702C120.236 107.246 120.722 106.898 121.346 106.658C121.982 106.406 122.732 106.28 123.596 106.28C124.244 106.28 124.898 106.352 125.558 106.496C126.218 106.64 126.764 106.844 127.196 107.108L126.332 108.818C125.876 108.542 125.414 108.356 124.946 108.26C124.49 108.152 124.034 108.098 123.578 108.098C122.894 108.098 122.384 108.2 122.048 108.404C121.724 108.608 121.562 108.866 121.562 109.178C121.562 109.466 121.67 109.682 121.886 109.826C122.102 109.97 122.384 110.084 122.732 110.168C123.08 110.252 123.464 110.324 123.884 110.384C124.316 110.432 124.742 110.51 125.162 110.618C125.582 110.726 125.966 110.876 126.314 111.068C126.674 111.248 126.962 111.506 127.178 111.842C127.394 112.178 127.502 112.616 127.502 113.156C127.502 113.756 127.322 114.278 126.962 114.722C126.614 115.166 126.116 115.514 125.468 115.766C124.82 116.006 124.046 116.126 123.146 116.126Z" fill="black"/>
</svg>
