<svg width="177" height="173" viewBox="0 0 177 173" fill="none" xmlns="http://www.w3.org/2000/svg">
<mask id="mask0" mask-type="alpha" maskUnits="userSpaceOnUse" x="0" y="0" width="177" height="173">
<path fill-rule="evenodd" clip-rule="evenodd" d="M88.5 173C39.6228 173 0 134.273 0 86.5C0 38.7271 39.6228 0 88.5 0C137.377 0 177 38.7271 177 86.5C177 134.273 137.377 173 88.5 173Z" fill="white"/>
</mask>
<g mask="url(#mask0)">
<path fill-rule="evenodd" clip-rule="evenodd" d="M-3.98633 176.896H180.987V-3.89648H-3.98633V176.896Z" fill="#FED445"/>
</g>
<path d="M77.8384 67.4V70.34L70.5584 87H65.6304L72.6584 71.096H66.1624V74.288H62.1304V67.4H77.8384Z" fill="black"/>
<path d="M86.7457 67.064C89.4897 67.064 91.6363 67.904 93.1856 69.584C94.735 71.2453 95.5097 73.644 95.5097 76.78C95.5097 79.0013 95.0897 80.9053 94.2497 82.492C93.4283 84.0786 92.2617 85.2826 90.7497 86.104C89.2377 86.9253 87.4923 87.336 85.5137 87.336C84.4683 87.336 83.4697 87.224 82.5177 87C81.5657 86.7573 80.7537 86.4213 80.0817 85.992L81.7617 82.66C82.7137 83.3133 83.9363 83.64 85.4297 83.64C87.091 83.64 88.407 83.1546 89.3777 82.184C90.3483 81.1946 90.871 79.776 90.9457 77.928C89.7697 79.104 88.1457 79.692 86.0737 79.692C84.823 79.692 83.6843 79.44 82.6577 78.936C81.631 78.432 80.819 77.7226 80.2217 76.808C79.6243 75.8746 79.3257 74.8013 79.3257 73.588C79.3257 72.2813 79.6523 71.1333 80.3057 70.144C80.959 69.1546 81.8457 68.3986 82.9657 67.876C84.1043 67.3346 85.3643 67.064 86.7457 67.064ZM87.0817 76.304C88.071 76.304 88.8737 76.0333 89.4897 75.492C90.1243 74.932 90.4417 74.2226 90.4417 73.364C90.4417 72.5053 90.1337 71.8053 89.5177 71.264C88.9203 70.7226 88.0897 70.452 87.0257 70.452C86.055 70.452 85.2617 70.7133 84.6457 71.236C84.0483 71.7586 83.7497 72.468 83.7497 73.364C83.7497 74.26 84.0483 74.9786 84.6457 75.52C85.2617 76.0426 86.0737 76.304 87.0817 76.304Z" fill="black"/>
<path d="M106.086 87.336C104.462 87.336 103.015 86.9346 101.746 86.132C100.476 85.3293 99.4778 84.172 98.7498 82.66C98.0404 81.1293 97.6858 79.3093 97.6858 77.2C97.6858 75.0906 98.0404 73.28 98.7498 71.768C99.4778 70.2373 100.476 69.0706 101.746 68.268C103.015 67.4653 104.462 67.064 106.086 67.064C107.71 67.064 109.156 67.4653 110.426 68.268C111.695 69.0706 112.684 70.2373 113.394 71.768C114.122 73.28 114.486 75.0906 114.486 77.2C114.486 79.3093 114.122 81.1293 113.394 82.66C112.684 84.172 111.695 85.3293 110.426 86.132C109.156 86.9346 107.71 87.336 106.086 87.336ZM106.086 83.5C107.28 83.5 108.214 82.9866 108.886 81.96C109.576 80.9333 109.922 79.3466 109.922 77.2C109.922 75.0533 109.576 73.4666 108.886 72.44C108.214 71.4133 107.28 70.9 106.086 70.9C104.91 70.9 103.976 71.4133 103.286 72.44C102.614 73.4666 102.278 75.0533 102.278 77.2C102.278 79.3466 102.614 80.9333 103.286 81.96C103.976 82.9866 104.91 83.5 106.086 83.5Z" fill="black"/>
<path d="M57.5885 116.126C56.8085 116.126 56.0465 116.024 55.3025 115.82C54.5585 115.616 53.9645 115.358 53.5205 115.046L54.3845 113.336C54.8165 113.624 55.3325 113.858 55.9325 114.038C56.5445 114.206 57.1445 114.29 57.7325 114.29C59.0765 114.29 59.7485 113.936 59.7485 113.228C59.7485 112.892 59.5745 112.658 59.2265 112.526C58.8905 112.394 58.3445 112.268 57.5885 112.148C56.7965 112.028 56.1485 111.89 55.6445 111.734C55.1525 111.578 54.7205 111.308 54.3485 110.924C53.9885 110.528 53.8085 109.982 53.8085 109.286C53.8085 108.374 54.1865 107.648 54.9425 107.108C55.7105 106.556 56.7425 106.28 58.0385 106.28C58.6985 106.28 59.3585 106.358 60.0185 106.514C60.6785 106.658 61.2185 106.856 61.6385 107.108L60.7745 108.818C59.9585 108.338 59.0405 108.098 58.0205 108.098C57.3605 108.098 56.8565 108.2 56.5085 108.404C56.1725 108.596 56.0045 108.854 56.0045 109.178C56.0045 109.538 56.1845 109.796 56.5445 109.952C56.9165 110.096 57.4865 110.234 58.2545 110.366C59.0225 110.486 59.6525 110.624 60.1445 110.78C60.6365 110.936 61.0565 111.2 61.4045 111.572C61.7645 111.944 61.9445 112.472 61.9445 113.156C61.9445 114.056 61.5545 114.776 60.7745 115.316C59.9945 115.856 58.9325 116.126 57.5885 116.126Z" fill="black"/>
<path d="M68.2922 116.126C67.2962 116.126 66.4022 115.916 65.6102 115.496C64.8182 115.076 64.2002 114.494 63.7562 113.75C63.3122 112.994 63.0902 112.142 63.0902 111.194C63.0902 110.246 63.3122 109.4 63.7562 108.656C64.2002 107.912 64.8122 107.33 65.5922 106.91C66.3842 106.49 67.2842 106.28 68.2922 106.28C69.2402 106.28 70.0682 106.472 70.7762 106.856C71.4962 107.24 72.0362 107.792 72.3962 108.512L70.6682 109.52C70.3922 109.076 70.0442 108.746 69.6242 108.53C69.2162 108.302 68.7662 108.188 68.2742 108.188C67.4342 108.188 66.7382 108.464 66.1862 109.016C65.6342 109.556 65.3582 110.282 65.3582 111.194C65.3582 112.106 65.6282 112.838 66.1682 113.39C66.7202 113.93 67.4222 114.2 68.2742 114.2C68.7662 114.2 69.2162 114.092 69.6242 113.876C70.0442 113.648 70.3922 113.312 70.6682 112.868L72.3962 113.876C72.0242 114.596 71.4782 115.154 70.7582 115.55C70.0502 115.934 69.2282 116.126 68.2922 116.126Z" fill="black"/>
<path d="M79.7073 106.28C80.9193 106.28 81.8913 106.634 82.6233 107.342C83.3553 108.05 83.7213 109.1 83.7213 110.492V116H81.4713V110.78C81.4713 109.94 81.2733 109.31 80.8773 108.89C80.4813 108.458 79.9173 108.242 79.1853 108.242C78.3573 108.242 77.7033 108.494 77.2233 108.998C76.7433 109.49 76.5033 110.204 76.5033 111.14V116H74.2533V102.644H76.5033V107.504C76.8753 107.108 77.3313 106.808 77.8713 106.604C78.4233 106.388 79.0353 106.28 79.7073 106.28Z" fill="black"/>
<path d="M90.9834 116.126C90.0114 116.126 89.1354 115.916 88.3554 115.496C87.5754 115.076 86.9634 114.494 86.5194 113.75C86.0874 112.994 85.8714 112.142 85.8714 111.194C85.8714 110.246 86.0874 109.4 86.5194 108.656C86.9634 107.912 87.5754 107.33 88.3554 106.91C89.1354 106.49 90.0114 106.28 90.9834 106.28C91.9674 106.28 92.8494 106.49 93.6294 106.91C94.4094 107.33 95.0154 107.912 95.4474 108.656C95.8914 109.4 96.1134 110.246 96.1134 111.194C96.1134 112.142 95.8914 112.994 95.4474 113.75C95.0154 114.494 94.4094 115.076 93.6294 115.496C92.8494 115.916 91.9674 116.126 90.9834 116.126ZM90.9834 114.2C91.8114 114.2 92.4954 113.924 93.0354 113.372C93.5754 112.82 93.8454 112.094 93.8454 111.194C93.8454 110.294 93.5754 109.568 93.0354 109.016C92.4954 108.464 91.8114 108.188 90.9834 108.188C90.1554 108.188 89.4714 108.464 88.9314 109.016C88.4034 109.568 88.1394 110.294 88.1394 111.194C88.1394 112.094 88.4034 112.82 88.9314 113.372C89.4714 113.924 90.1554 114.2 90.9834 114.2Z" fill="black"/>
<path d="M102.585 116.126C101.613 116.126 100.737 115.916 99.957 115.496C99.177 115.076 98.565 114.494 98.121 113.75C97.689 112.994 97.473 112.142 97.473 111.194C97.473 110.246 97.689 109.4 98.121 108.656C98.565 107.912 99.177 107.33 99.957 106.91C100.737 106.49 101.613 106.28 102.585 106.28C103.569 106.28 104.451 106.49 105.231 106.91C106.011 107.33 106.617 107.912 107.049 108.656C107.493 109.4 107.715 110.246 107.715 111.194C107.715 112.142 107.493 112.994 107.049 113.75C106.617 114.494 106.011 115.076 105.231 115.496C104.451 115.916 103.569 116.126 102.585 116.126ZM102.585 114.2C103.413 114.2 104.097 113.924 104.637 113.372C105.177 112.82 105.447 112.094 105.447 111.194C105.447 110.294 105.177 109.568 104.637 109.016C104.097 108.464 103.413 108.188 102.585 108.188C101.757 108.188 101.073 108.464 100.533 109.016C100.005 109.568 99.741 110.294 99.741 111.194C99.741 112.094 100.005 112.82 100.533 113.372C101.073 113.924 101.757 114.2 102.585 114.2Z" fill="black"/>
<path d="M109.867 102.644H112.117V116H109.867V102.644Z" fill="black"/>
<path d="M118.04 116.126C117.26 116.126 116.498 116.024 115.754 115.82C115.01 115.616 114.416 115.358 113.972 115.046L114.836 113.336C115.268 113.624 115.784 113.858 116.384 114.038C116.996 114.206 117.596 114.29 118.184 114.29C119.528 114.29 120.2 113.936 120.2 113.228C120.2 112.892 120.026 112.658 119.678 112.526C119.342 112.394 118.796 112.268 118.04 112.148C117.248 112.028 116.6 111.89 116.096 111.734C115.604 111.578 115.172 111.308 114.8 110.924C114.44 110.528 114.26 109.982 114.26 109.286C114.26 108.374 114.638 107.648 115.394 107.108C116.162 106.556 117.194 106.28 118.49 106.28C119.15 106.28 119.81 106.358 120.47 106.514C121.13 106.658 121.67 106.856 122.09 107.108L121.226 108.818C120.41 108.338 119.492 108.098 118.472 108.098C117.812 108.098 117.308 108.2 116.96 108.404C116.624 108.596 116.456 108.854 116.456 109.178C116.456 109.538 116.636 109.796 116.996 109.952C117.368 110.096 117.938 110.234 118.706 110.366C119.474 110.486 120.104 110.624 120.596 110.78C121.088 110.936 121.508 111.2 121.856 111.572C122.216 111.944 122.396 112.472 122.396 113.156C122.396 114.056 122.006 114.776 121.226 115.316C120.446 115.856 119.384 116.126 118.04 116.126Z" fill="black"/>
</svg>
