<svg width="177" height="173" viewBox="0 0 177 173" fill="none" xmlns="http://www.w3.org/2000/svg">
<mask id="mask0_721_445" style="mask-type:alpha" maskUnits="userSpaceOnUse" x="0" y="0" width="177" height="173">
<path fill-rule="evenodd" clip-rule="evenodd" d="M88.5 173C39.6228 173 0 134.273 0 86.5C0 38.7271 39.6228 0 88.5 0C137.377 0 177 38.7271 177 86.5C177 134.273 137.377 173 88.5 173Z" fill="white"/>
</mask>
<g mask="url(#mask0_721_445)">
<path fill-rule="evenodd" clip-rule="evenodd" d="M-3.98633 176.896H180.987V-3.89648H-3.98633V176.896Z" fill="#FED445"/>
</g>
<path d="M33.3583 87.336C31.9957 87.336 30.6423 87.1586 29.2983 86.804C27.9543 86.4306 26.8157 85.908 25.8823 85.236L27.6463 81.764C28.393 82.3053 29.261 82.7346 30.2503 83.052C31.2397 83.3693 32.2383 83.528 33.2463 83.528C34.385 83.528 35.281 83.304 35.9343 82.856C36.5877 82.408 36.9143 81.792 36.9143 81.008C36.9143 80.2613 36.625 79.6733 36.0463 79.244C35.4677 78.8146 34.5343 78.6 33.2463 78.6H31.1743V75.604L36.6343 69.416L37.1383 71.04H26.8623V67.4H40.5823V70.34L35.1503 76.528L32.8543 75.212H34.1703C36.5783 75.212 38.3983 75.7533 39.6303 76.836C40.8623 77.9186 41.4783 79.3093 41.4783 81.008C41.4783 82.1093 41.189 83.1453 40.6103 84.116C40.0317 85.068 39.145 85.8426 37.9503 86.44C36.7557 87.0373 35.225 87.336 33.3583 87.336Z" fill="black"/>
<path d="M43.7406 91.312L45.5886 84.592L46.2046 87.112C45.402 87.112 44.7393 86.8786 44.2166 86.412C43.7126 85.9453 43.4606 85.3013 43.4606 84.48C43.4606 83.6586 43.722 83.0053 44.2446 82.52C44.7673 82.0346 45.4113 81.792 46.1766 81.792C46.9606 81.792 47.6046 82.044 48.1086 82.548C48.6126 83.0333 48.8646 83.6773 48.8646 84.48C48.8646 84.7226 48.846 84.9653 48.8086 85.208C48.7713 85.432 48.6966 85.712 48.5846 86.048C48.4913 86.3653 48.3326 86.776 48.1086 87.28L46.5126 91.312H43.7406Z" fill="black"/>
<path d="M58.9453 87.336C57.34 87.336 55.9026 86.944 54.6333 86.16C53.364 85.3573 52.3653 84.2 51.6373 82.688C50.9093 81.176 50.5453 79.3466 50.5453 77.2C50.5453 75.0533 50.9093 73.224 51.6373 71.712C52.3653 70.2 53.364 69.052 54.6333 68.268C55.9026 67.4653 57.34 67.064 58.9453 67.064C60.5693 67.064 62.0066 67.4653 63.2573 68.268C64.5266 69.052 65.5253 70.2 66.2533 71.712C66.9813 73.224 67.3453 75.0533 67.3453 77.2C67.3453 79.3466 66.9813 81.176 66.2533 82.688C65.5253 84.2 64.5266 85.3573 63.2573 86.16C62.0066 86.944 60.5693 87.336 58.9453 87.336ZM58.9453 83.5C59.7106 83.5 60.3733 83.2853 60.9333 82.856C61.512 82.4266 61.96 81.7453 62.2773 80.812C62.6133 79.8786 62.7813 78.6746 62.7813 77.2C62.7813 75.7253 62.6133 74.5213 62.2773 73.588C61.96 72.6546 61.512 71.9733 60.9333 71.544C60.3733 71.1146 59.7106 70.9 58.9453 70.9C58.1986 70.9 57.536 71.1146 56.9573 71.544C56.3973 71.9733 55.9493 72.6546 55.6133 73.588C55.296 74.5213 55.1373 75.7253 55.1373 77.2C55.1373 78.6746 55.296 79.8786 55.6133 80.812C55.9493 81.7453 56.3973 82.4266 56.9573 82.856C57.536 83.2853 58.1986 83.5 58.9453 83.5Z" fill="black"/>
<path d="M77.9492 87.336C76.3439 87.336 74.9065 86.944 73.6372 86.16C72.3679 85.3573 71.3692 84.2 70.6412 82.688C69.9132 81.176 69.5492 79.3466 69.5492 77.2C69.5492 75.0533 69.9132 73.224 70.6412 71.712C71.3692 70.2 72.3679 69.052 73.6372 68.268C74.9065 67.4653 76.3439 67.064 77.9492 67.064C79.5732 67.064 81.0105 67.4653 82.2612 68.268C83.5305 69.052 84.5292 70.2 85.2572 71.712C85.9852 73.224 86.3492 75.0533 86.3492 77.2C86.3492 79.3466 85.9852 81.176 85.2572 82.688C84.5292 84.2 83.5305 85.3573 82.2612 86.16C81.0105 86.944 79.5732 87.336 77.9492 87.336ZM77.9492 83.5C78.7145 83.5 79.3772 83.2853 79.9372 82.856C80.5159 82.4266 80.9639 81.7453 81.2812 80.812C81.6172 79.8786 81.7852 78.6746 81.7852 77.2C81.7852 75.7253 81.6172 74.5213 81.2812 73.588C80.9639 72.6546 80.5159 71.9733 79.9372 71.544C79.3772 71.1146 78.7145 70.9 77.9492 70.9C77.2025 70.9 76.5399 71.1146 75.9612 71.544C75.4012 71.9733 74.9532 72.6546 74.6172 73.588C74.2999 74.5213 74.1412 75.7253 74.1412 77.2C74.1412 78.6746 74.2999 79.8786 74.6172 80.812C74.9532 81.7453 75.4012 82.4266 75.9612 82.856C76.5399 83.2853 77.2025 83.5 77.9492 83.5Z" fill="black"/>
<path d="M88.3656 91.312L90.2136 84.592L90.8296 87.112C90.027 87.112 89.3643 86.8786 88.8416 86.412C88.3376 85.9453 88.0856 85.3013 88.0856 84.48C88.0856 83.6586 88.347 83.0053 88.8696 82.52C89.3923 82.0346 90.0363 81.792 90.8016 81.792C91.5856 81.792 92.2296 82.044 92.7336 82.548C93.2376 83.0333 93.4896 83.6773 93.4896 84.48C93.4896 84.7226 93.471 84.9653 93.4336 85.208C93.3963 85.432 93.3216 85.712 93.2096 86.048C93.1163 86.3653 92.9576 86.776 92.7336 87.28L91.1376 91.312H88.3656Z" fill="black"/>
<path d="M103.57 87.336C101.965 87.336 100.528 86.944 99.2583 86.16C97.989 85.3573 96.9903 84.2 96.2623 82.688C95.5343 81.176 95.1703 79.3466 95.1703 77.2C95.1703 75.0533 95.5343 73.224 96.2623 71.712C96.9903 70.2 97.989 69.052 99.2583 68.268C100.528 67.4653 101.965 67.064 103.57 67.064C105.194 67.064 106.632 67.4653 107.882 68.268C109.152 69.052 110.15 70.2 110.878 71.712C111.606 73.224 111.97 75.0533 111.97 77.2C111.97 79.3466 111.606 81.176 110.878 82.688C110.15 84.2 109.152 85.3573 107.882 86.16C106.632 86.944 105.194 87.336 103.57 87.336ZM103.57 83.5C104.336 83.5 104.998 83.2853 105.558 82.856C106.137 82.4266 106.585 81.7453 106.902 80.812C107.238 79.8786 107.406 78.6746 107.406 77.2C107.406 75.7253 107.238 74.5213 106.902 73.588C106.585 72.6546 106.137 71.9733 105.558 71.544C104.998 71.1146 104.336 70.9 103.57 70.9C102.824 70.9 102.161 71.1146 101.582 71.544C101.022 71.9733 100.574 72.6546 100.238 73.588C99.921 74.5213 99.7623 75.7253 99.7623 77.2C99.7623 78.6746 99.921 79.8786 100.238 80.812C100.574 81.7453 101.022 82.4266 101.582 82.856C102.161 83.2853 102.824 83.5 103.57 83.5Z" fill="black"/>
<path d="M122.574 87.336C120.969 87.336 119.532 86.944 118.262 86.16C116.993 85.3573 115.994 84.2 115.266 82.688C114.538 81.176 114.174 79.3466 114.174 77.2C114.174 75.0533 114.538 73.224 115.266 71.712C115.994 70.2 116.993 69.052 118.262 68.268C119.532 67.4653 120.969 67.064 122.574 67.064C124.198 67.064 125.636 67.4653 126.886 68.268C128.156 69.052 129.154 70.2 129.882 71.712C130.61 73.224 130.974 75.0533 130.974 77.2C130.974 79.3466 130.61 81.176 129.882 82.688C129.154 84.2 128.156 85.3573 126.886 86.16C125.636 86.944 124.198 87.336 122.574 87.336ZM122.574 83.5C123.34 83.5 124.002 83.2853 124.562 82.856C125.141 82.4266 125.589 81.7453 125.906 80.812C126.242 79.8786 126.41 78.6746 126.41 77.2C126.41 75.7253 126.242 74.5213 125.906 73.588C125.589 72.6546 125.141 71.9733 124.562 71.544C124.002 71.1146 123.34 70.9 122.574 70.9C121.828 70.9 121.165 71.1146 120.586 71.544C120.026 71.9733 119.578 72.6546 119.242 73.588C118.925 74.5213 118.766 75.7253 118.766 77.2C118.766 78.6746 118.925 79.8786 119.242 80.812C119.578 81.7453 120.026 82.4266 120.586 82.856C121.165 83.2853 121.828 83.5 122.574 83.5Z" fill="black"/>
<path d="M141.578 87.336C139.973 87.336 138.535 86.944 137.266 86.16C135.997 85.3573 134.998 84.2 134.27 82.688C133.542 81.176 133.178 79.3466 133.178 77.2C133.178 75.0533 133.542 73.224 134.27 71.712C134.998 70.2 135.997 69.052 137.266 68.268C138.535 67.4653 139.973 67.064 141.578 67.064C143.202 67.064 144.639 67.4653 145.89 68.268C147.159 69.052 148.158 70.2 148.886 71.712C149.614 73.224 149.978 75.0533 149.978 77.2C149.978 79.3466 149.614 81.176 148.886 82.688C148.158 84.2 147.159 85.3573 145.89 86.16C144.639 86.944 143.202 87.336 141.578 87.336ZM141.578 83.5C142.343 83.5 143.006 83.2853 143.566 82.856C144.145 82.4266 144.593 81.7453 144.91 80.812C145.246 79.8786 145.414 78.6746 145.414 77.2C145.414 75.7253 145.246 74.5213 144.91 73.588C144.593 72.6546 144.145 71.9733 143.566 71.544C143.006 71.1146 142.343 70.9 141.578 70.9C140.831 70.9 140.169 71.1146 139.59 71.544C139.03 71.9733 138.582 72.6546 138.246 73.588C137.929 74.5213 137.77 75.7253 137.77 77.2C137.77 78.6746 137.929 79.8786 138.246 80.812C138.582 81.7453 139.03 82.4266 139.59 82.856C140.169 83.2853 140.831 83.5 141.578 83.5Z" fill="black"/>
<path d="M51.4891 116.126C50.6851 116.126 49.9111 116.024 49.1671 115.82C48.4351 115.604 47.8531 115.346 47.4211 115.046L48.2851 113.336C48.7171 113.612 49.2331 113.84 49.8331 114.02C50.4331 114.2 51.0331 114.29 51.6331 114.29C52.3411 114.29 52.8511 114.194 53.1631 114.002C53.4871 113.81 53.6491 113.552 53.6491 113.228C53.6491 112.964 53.5411 112.766 53.3251 112.634C53.1091 112.49 52.8271 112.382 52.4791 112.31C52.1311 112.238 51.7411 112.172 51.3091 112.112C50.8891 112.052 50.4631 111.974 50.0311 111.878C49.6111 111.77 49.2271 111.62 48.8791 111.428C48.5311 111.224 48.2491 110.954 48.0331 110.618C47.8171 110.282 47.7091 109.838 47.7091 109.286C47.7091 108.674 47.8831 108.146 48.2311 107.702C48.5791 107.246 49.0651 106.898 49.6891 106.658C50.3251 106.406 51.0751 106.28 51.9391 106.28C52.5871 106.28 53.2411 106.352 53.9011 106.496C54.5611 106.64 55.1071 106.844 55.5391 107.108L54.6751 108.818C54.2191 108.542 53.7571 108.356 53.2891 108.26C52.8331 108.152 52.3771 108.098 51.9211 108.098C51.2371 108.098 50.7271 108.2 50.3911 108.404C50.0671 108.608 49.9051 108.866 49.9051 109.178C49.9051 109.466 50.0131 109.682 50.2291 109.826C50.4451 109.97 50.7271 110.084 51.0751 110.168C51.4231 110.252 51.8071 110.324 52.2271 110.384C52.6591 110.432 53.0851 110.51 53.5051 110.618C53.9251 110.726 54.3091 110.876 54.6571 111.068C55.0171 111.248 55.3051 111.506 55.5211 111.842C55.7371 112.178 55.8451 112.616 55.8451 113.156C55.8451 113.756 55.6651 114.278 55.3051 114.722C54.9571 115.166 54.4591 115.514 53.8111 115.766C53.1631 116.006 52.3891 116.126 51.4891 116.126Z" fill="black"/>
<path d="M61.4008 116.126C60.3448 116.126 59.5288 115.856 58.9528 115.316C58.3768 114.764 58.0888 113.954 58.0888 112.886V104.264H60.3388V112.832C60.3388 113.288 60.4528 113.642 60.6808 113.894C60.9208 114.146 61.2508 114.272 61.6708 114.272C62.1748 114.272 62.5948 114.14 62.9308 113.876L63.5608 115.478C63.2968 115.694 62.9728 115.856 62.5888 115.964C62.2048 116.072 61.8088 116.126 61.4008 116.126ZM56.5048 108.26V106.46H62.9128V108.26H56.5048Z" fill="black"/>
<path d="M69.4797 116.126C68.6637 116.126 67.9437 115.976 67.3197 115.676C66.6957 115.364 66.2097 114.896 65.8617 114.272C65.5137 113.636 65.3397 112.838 65.3397 111.878V106.388H67.5897V111.572C67.5897 112.436 67.7817 113.084 68.1657 113.516C68.5617 113.936 69.1197 114.146 69.8397 114.146C70.3677 114.146 70.8237 114.038 71.2077 113.822C71.6037 113.606 71.9097 113.282 72.1257 112.85C72.3537 112.418 72.4677 111.884 72.4677 111.248V106.388H74.7177V116H72.5757V113.408L72.9537 114.2C72.6297 114.824 72.1557 115.304 71.5317 115.64C70.9077 115.964 70.2237 116.126 69.4797 116.126Z" fill="black"/>
<path d="M81.7317 116.126C80.8077 116.126 79.9737 115.922 79.2297 115.514C78.4977 115.094 77.9217 114.518 77.5017 113.786C77.0817 113.054 76.8717 112.19 76.8717 111.194C76.8717 110.198 77.0817 109.334 77.5017 108.602C77.9217 107.87 78.4977 107.3 79.2297 106.892C79.9737 106.484 80.8077 106.28 81.7317 106.28C82.5357 106.28 83.2557 106.46 83.8917 106.82C84.5277 107.168 85.0317 107.702 85.4037 108.422C85.7757 109.142 85.9617 110.066 85.9617 111.194C85.9617 112.31 85.7817 113.234 85.4217 113.966C85.0617 114.686 84.5637 115.226 83.9277 115.586C83.2917 115.946 82.5597 116.126 81.7317 116.126ZM82.0017 114.2C82.5417 114.2 83.0217 114.08 83.4417 113.84C83.8737 113.6 84.2157 113.252 84.4677 112.796C84.7317 112.34 84.8637 111.806 84.8637 111.194C84.8637 110.57 84.7317 110.036 84.4677 109.592C84.2157 109.136 83.8737 108.788 83.4417 108.548C83.0217 108.308 82.5417 108.188 82.0017 108.188C81.4617 108.188 80.9757 108.308 80.5437 108.548C80.1237 108.788 79.7817 109.136 79.5177 109.592C79.2657 110.036 79.1397 110.57 79.1397 111.194C79.1397 111.806 79.2657 112.34 79.5177 112.796C79.7817 113.252 80.1237 113.6 80.5437 113.84C80.9757 114.08 81.4617 114.2 82.0017 114.2ZM84.9177 116V113.732L85.0077 111.176L84.8277 108.62V102.644H87.0597V116H84.9177Z" fill="black"/>
<path d="M94.5391 116.126C93.4711 116.126 92.5351 115.916 91.7311 115.496C90.9391 115.064 90.3211 114.476 89.8771 113.732C89.4451 112.988 89.2291 112.142 89.2291 111.194C89.2291 110.234 89.4391 109.388 89.8591 108.656C90.2911 107.912 90.8791 107.33 91.6231 106.91C92.3791 106.49 93.2371 106.28 94.1971 106.28C95.1331 106.28 95.9671 106.484 96.6991 106.892C97.4311 107.3 98.0071 107.876 98.4271 108.62C98.8471 109.364 99.0571 110.24 99.0571 111.248C99.0571 111.344 99.0511 111.452 99.0391 111.572C99.0391 111.692 99.0331 111.806 99.0211 111.914H91.0111V110.42H97.8331L96.9511 110.888C96.9631 110.336 96.8491 109.85 96.6091 109.43C96.3691 109.01 96.0391 108.68 95.6191 108.44C95.2111 108.2 94.7371 108.08 94.1971 108.08C93.6451 108.08 93.1591 108.2 92.7391 108.44C92.3311 108.68 92.0071 109.016 91.7671 109.448C91.5391 109.868 91.4251 110.366 91.4251 110.942V111.302C91.4251 111.878 91.5571 112.388 91.8211 112.832C92.0851 113.276 92.4571 113.618 92.9371 113.858C93.4171 114.098 93.9691 114.218 94.5931 114.218C95.1331 114.218 95.6191 114.134 96.0511 113.966C96.4831 113.798 96.8671 113.534 97.2031 113.174L98.4091 114.56C97.9771 115.064 97.4311 115.454 96.7711 115.73C96.1231 115.994 95.3791 116.126 94.5391 116.126Z" fill="black"/>
<path d="M106.672 106.28C107.44 106.28 108.124 106.43 108.724 106.73C109.336 107.03 109.816 107.492 110.164 108.116C110.512 108.728 110.686 109.52 110.686 110.492V116H108.436V110.78C108.436 109.928 108.232 109.292 107.824 108.872C107.428 108.452 106.87 108.242 106.15 108.242C105.622 108.242 105.154 108.35 104.746 108.566C104.338 108.782 104.02 109.106 103.792 109.538C103.576 109.958 103.468 110.492 103.468 111.14V116H101.218V106.388H103.36V108.98L102.982 108.188C103.318 107.576 103.804 107.108 104.44 106.784C105.088 106.448 105.832 106.28 106.672 106.28Z" fill="black"/>
<path d="M117.159 116.126C116.103 116.126 115.287 115.856 114.711 115.316C114.135 114.764 113.847 113.954 113.847 112.886V104.264H116.097V112.832C116.097 113.288 116.211 113.642 116.439 113.894C116.679 114.146 117.009 114.272 117.429 114.272C117.933 114.272 118.353 114.14 118.689 113.876L119.319 115.478C119.055 115.694 118.731 115.856 118.347 115.964C117.963 116.072 117.567 116.126 117.159 116.126ZM112.263 108.26V106.46H118.671V108.26H112.263Z" fill="black"/>
<path d="M124.14 116.126C123.336 116.126 122.562 116.024 121.818 115.82C121.086 115.604 120.504 115.346 120.072 115.046L120.936 113.336C121.368 113.612 121.884 113.84 122.484 114.02C123.084 114.2 123.684 114.29 124.284 114.29C124.992 114.29 125.502 114.194 125.814 114.002C126.138 113.81 126.3 113.552 126.3 113.228C126.3 112.964 126.192 112.766 125.976 112.634C125.76 112.49 125.478 112.382 125.13 112.31C124.782 112.238 124.392 112.172 123.96 112.112C123.54 112.052 123.114 111.974 122.682 111.878C122.262 111.77 121.878 111.62 121.53 111.428C121.182 111.224 120.9 110.954 120.684 110.618C120.468 110.282 120.36 109.838 120.36 109.286C120.36 108.674 120.534 108.146 120.882 107.702C121.23 107.246 121.716 106.898 122.34 106.658C122.976 106.406 123.726 106.28 124.59 106.28C125.238 106.28 125.892 106.352 126.552 106.496C127.212 106.64 127.758 106.844 128.19 107.108L127.326 108.818C126.87 108.542 126.408 108.356 125.94 108.26C125.484 108.152 125.028 108.098 124.572 108.098C123.888 108.098 123.378 108.2 123.042 108.404C122.718 108.608 122.556 108.866 122.556 109.178C122.556 109.466 122.664 109.682 122.88 109.826C123.096 109.97 123.378 110.084 123.726 110.168C124.074 110.252 124.458 110.324 124.878 110.384C125.31 110.432 125.736 110.51 126.156 110.618C126.576 110.726 126.96 110.876 127.308 111.068C127.668 111.248 127.956 111.506 128.172 111.842C128.388 112.178 128.496 112.616 128.496 113.156C128.496 113.756 128.316 114.278 127.956 114.722C127.608 115.166 127.11 115.514 126.462 115.766C125.814 116.006 125.04 116.126 124.14 116.126Z" fill="black"/>
</svg>
