<svg width="177" height="173" viewBox="0 0 177 173" fill="none" xmlns="http://www.w3.org/2000/svg">
<mask id="mask0" mask-type="alpha" maskUnits="userSpaceOnUse" x="0" y="0" width="177" height="173">
<path fill-rule="evenodd" clip-rule="evenodd" d="M88.5 173C39.6228 173 0 134.273 0 86.5C0 38.7271 39.6228 0 88.5 0C137.377 0 177 38.7271 177 86.5C177 134.273 137.377 173 88.5 173Z" fill="white"/>
</mask>
<g mask="url(#mask0)">
<path fill-rule="evenodd" clip-rule="evenodd" d="M-3.98633 176.896H180.987V-3.89648H-3.98633V176.896Z" fill="#FED445"/>
</g>
<path d="M55.5465 67.064C58.2905 67.064 60.4371 67.904 61.9865 69.584C63.5358 71.2453 64.3105 73.644 64.3105 76.78C64.3105 79.0013 63.8905 80.9053 63.0505 82.492C62.2291 84.0786 61.0625 85.2826 59.5505 86.104C58.0385 86.9253 56.2931 87.336 54.3145 87.336C53.2691 87.336 52.2705 87.224 51.3185 87C50.3665 86.7573 49.5545 86.4213 48.8825 85.992L50.5625 82.66C51.5145 83.3133 52.7371 83.64 54.2305 83.64C55.8918 83.64 57.2078 83.1546 58.1785 82.184C59.1491 81.1946 59.6718 79.776 59.7465 77.928C58.5705 79.104 56.9465 79.692 54.8745 79.692C53.6238 79.692 52.4851 79.44 51.4585 78.936C50.4318 78.432 49.6198 77.7226 49.0225 76.808C48.4251 75.8746 48.1265 74.8013 48.1265 73.588C48.1265 72.2813 48.4531 71.1333 49.1065 70.144C49.7598 69.1546 50.6465 68.3986 51.7665 67.876C52.9051 67.3346 54.1651 67.064 55.5465 67.064ZM55.8825 76.304C56.8718 76.304 57.6745 76.0333 58.2905 75.492C58.9251 74.932 59.2425 74.2226 59.2425 73.364C59.2425 72.5053 58.9345 71.8053 58.3185 71.264C57.7211 70.7226 56.8905 70.452 55.8265 70.452C54.8558 70.452 54.0625 70.7133 53.4465 71.236C52.8491 71.7586 52.5505 72.468 52.5505 73.364C52.5505 74.26 52.8491 74.9786 53.4465 75.52C54.0625 76.0426 54.8745 76.304 55.8825 76.304Z" fill="black"/>
<path d="M68.7351 81.792C69.5191 81.792 70.1631 82.044 70.6671 82.548C71.1711 83.0333 71.4231 83.6773 71.4231 84.48C71.4231 84.8533 71.3765 85.2266 71.2831 85.6C71.1898 85.9733 70.9845 86.5333 70.6671 87.28L69.0711 91.312H66.2991L67.5311 86.86C67.0645 86.6733 66.6911 86.3746 66.4111 85.964C66.1498 85.5346 66.0191 85.04 66.0191 84.48C66.0191 83.6773 66.2711 83.0333 66.7751 82.548C67.2978 82.044 67.9511 81.792 68.7351 81.792Z" fill="black"/>
<path d="M91.4072 82.884H88.2152V87H83.7912V82.884H73.2352V79.832L82.4753 67.4H87.2353L78.6672 79.188H83.9312V75.52H88.2152V79.188H91.4072V82.884Z" fill="black"/>
<path d="M106.449 76.696C107.42 77.1813 108.157 77.816 108.661 78.6C109.184 79.384 109.445 80.2893 109.445 81.316C109.445 82.5293 109.1 83.5933 108.409 84.508C107.719 85.404 106.748 86.104 105.497 86.608C104.247 87.0933 102.8 87.336 101.157 87.336C99.5147 87.336 98.068 87.0933 96.8174 86.608C95.5854 86.104 94.624 85.404 93.9334 84.508C93.2614 83.5933 92.9254 82.5293 92.9254 81.316C92.9254 80.2893 93.1774 79.384 93.6814 78.6C94.204 77.816 94.9414 77.1813 95.8934 76.696C95.1654 76.248 94.6054 75.688 94.2134 75.016C93.8214 74.3253 93.6254 73.5413 93.6254 72.664C93.6254 71.5253 93.9427 70.536 94.5774 69.696C95.212 68.856 96.0987 68.212 97.2374 67.764C98.376 67.2973 99.6827 67.064 101.157 67.064C102.651 67.064 103.967 67.2973 105.105 67.764C106.263 68.212 107.159 68.856 107.793 69.696C108.428 70.536 108.745 71.5253 108.745 72.664C108.745 73.5413 108.549 74.3253 108.157 75.016C107.765 75.688 107.196 76.248 106.449 76.696ZM101.157 70.396C100.243 70.396 99.5054 70.62 98.9454 71.068C98.404 71.4973 98.1334 72.0946 98.1334 72.86C98.1334 73.6066 98.404 74.1946 98.9454 74.624C99.4867 75.0533 100.224 75.268 101.157 75.268C102.091 75.268 102.837 75.0533 103.397 74.624C103.957 74.1946 104.237 73.6066 104.237 72.86C104.237 72.0946 103.957 71.4973 103.397 71.068C102.837 70.62 102.091 70.396 101.157 70.396ZM101.157 84.004C102.296 84.004 103.192 83.752 103.845 83.248C104.517 82.7253 104.853 82.0346 104.853 81.176C104.853 80.3173 104.517 79.636 103.845 79.132C103.192 78.628 102.296 78.376 101.157 78.376C100.037 78.376 99.1507 78.628 98.4974 79.132C97.844 79.636 97.5174 80.3173 97.5174 81.176C97.5174 82.0533 97.844 82.744 98.4974 83.248C99.1507 83.752 100.037 84.004 101.157 84.004Z" fill="black"/>
<path d="M119.922 87.336C118.298 87.336 116.851 86.9346 115.582 86.132C114.312 85.3293 113.314 84.172 112.586 82.66C111.876 81.1293 111.522 79.3093 111.522 77.2C111.522 75.0906 111.876 73.28 112.586 71.768C113.314 70.2373 114.312 69.0706 115.582 68.268C116.851 67.4653 118.298 67.064 119.922 67.064C121.546 67.064 122.992 67.4653 124.262 68.268C125.531 69.0706 126.52 70.2373 127.23 71.768C127.958 73.28 128.322 75.0906 128.322 77.2C128.322 79.3093 127.958 81.1293 127.23 82.66C126.52 84.172 125.531 85.3293 124.262 86.132C122.992 86.9346 121.546 87.336 119.922 87.336ZM119.922 83.5C121.116 83.5 122.05 82.9866 122.722 81.96C123.412 80.9333 123.758 79.3466 123.758 77.2C123.758 75.0533 123.412 73.4666 122.722 72.44C122.05 71.4133 121.116 70.9 119.922 70.9C118.746 70.9 117.812 71.4133 117.122 72.44C116.45 73.4666 116.114 75.0533 116.114 77.2C116.114 79.3466 116.45 80.9333 117.122 81.96C117.812 82.9866 118.746 83.5 119.922 83.5Z" fill="black"/>
<path d="M55.2464 115.478C54.9824 115.694 54.6584 115.856 54.2744 115.964C53.9024 116.072 53.5064 116.126 53.0864 116.126C52.0304 116.126 51.2144 115.85 50.6384 115.298C50.0624 114.746 49.7744 113.942 49.7744 112.886V108.26H48.1904V106.46H49.7744V104.264H52.0244V106.46H54.5984V108.26H52.0244V112.832C52.0244 113.3 52.1384 113.66 52.3664 113.912C52.5944 114.152 52.9244 114.272 53.3564 114.272C53.8604 114.272 54.2804 114.14 54.6164 113.876L55.2464 115.478Z" fill="black"/>
<path d="M65.8169 111.248C65.8169 111.404 65.8049 111.626 65.7809 111.914H58.2389C58.3709 112.622 58.7129 113.186 59.2649 113.606C59.8289 114.014 60.5249 114.218 61.3529 114.218C62.4089 114.218 63.2789 113.87 63.9629 113.174L65.1689 114.56C64.7369 115.076 64.1909 115.466 63.5309 115.73C62.8709 115.994 62.1269 116.126 61.2989 116.126C60.2429 116.126 59.3129 115.916 58.5089 115.496C57.7049 115.076 57.0809 114.494 56.6369 113.75C56.2049 112.994 55.9889 112.142 55.9889 111.194C55.9889 110.258 56.1989 109.418 56.6189 108.674C57.0509 107.918 57.6449 107.33 58.4009 106.91C59.1569 106.49 60.0089 106.28 60.9569 106.28C61.8929 106.28 62.7269 106.49 63.4589 106.91C64.2029 107.318 64.7789 107.9 65.1869 108.656C65.6069 109.4 65.8169 110.264 65.8169 111.248ZM60.9569 108.08C60.2369 108.08 59.6249 108.296 59.1209 108.728C58.6289 109.148 58.3289 109.712 58.2209 110.42H63.6749C63.5789 109.724 63.2849 109.16 62.7929 108.728C62.3009 108.296 61.6889 108.08 60.9569 108.08Z" fill="black"/>
<path d="M71.3865 106.28C72.8025 106.28 73.8825 106.622 74.6265 107.306C75.3825 107.978 75.7605 108.998 75.7605 110.366V116H73.6365V114.83C73.3605 115.25 72.9645 115.574 72.4485 115.802C71.9445 116.018 71.3325 116.126 70.6125 116.126C69.8925 116.126 69.2625 116.006 68.7225 115.766C68.1825 115.514 67.7625 115.172 67.4625 114.74C67.1745 114.296 67.0305 113.798 67.0305 113.246C67.0305 112.382 67.3485 111.692 67.9845 111.176C68.6325 110.648 69.6465 110.384 71.0265 110.384H73.5105V110.24C73.5105 109.568 73.3065 109.052 72.8985 108.692C72.5025 108.332 71.9085 108.152 71.1165 108.152C70.5765 108.152 70.0425 108.236 69.5145 108.404C68.9985 108.572 68.5605 108.806 68.2005 109.106L67.3185 107.468C67.8225 107.084 68.4285 106.79 69.1365 106.586C69.8445 106.382 70.5945 106.28 71.3865 106.28ZM71.0805 114.488C71.6445 114.488 72.1425 114.362 72.5745 114.11C73.0185 113.846 73.3305 113.474 73.5105 112.994V111.878H71.1885C69.8925 111.878 69.2445 112.304 69.2445 113.156C69.2445 113.564 69.4065 113.888 69.7305 114.128C70.0545 114.368 70.5045 114.488 71.0805 114.488Z" fill="black"/>
<path d="M83.146 116.126C82.15 116.126 81.256 115.916 80.464 115.496C79.672 115.076 79.054 114.494 78.61 113.75C78.166 112.994 77.944 112.142 77.944 111.194C77.944 110.246 78.166 109.4 78.61 108.656C79.054 107.912 79.666 107.33 80.446 106.91C81.238 106.49 82.138 106.28 83.146 106.28C84.094 106.28 84.922 106.472 85.63 106.856C86.35 107.24 86.89 107.792 87.25 108.512L85.522 109.52C85.246 109.076 84.898 108.746 84.478 108.53C84.07 108.302 83.62 108.188 83.128 108.188C82.288 108.188 81.592 108.464 81.04 109.016C80.488 109.556 80.212 110.282 80.212 111.194C80.212 112.106 80.482 112.838 81.022 113.39C81.574 113.93 82.276 114.2 83.128 114.2C83.62 114.2 84.07 114.092 84.478 113.876C84.898 113.648 85.246 113.312 85.522 112.868L87.25 113.876C86.878 114.596 86.332 115.154 85.612 115.55C84.904 115.934 84.082 116.126 83.146 116.126Z" fill="black"/>
<path d="M94.5611 106.28C95.7731 106.28 96.7451 106.634 97.4771 107.342C98.2091 108.05 98.5751 109.1 98.5751 110.492V116H96.3251V110.78C96.3251 109.94 96.1271 109.31 95.7311 108.89C95.3351 108.458 94.7711 108.242 94.0391 108.242C93.2111 108.242 92.5571 108.494 92.0771 108.998C91.5971 109.49 91.3571 110.204 91.3571 111.14V116H89.1071V102.644H91.3571V107.504C91.7291 107.108 92.1851 106.808 92.7251 106.604C93.2771 106.388 93.8891 106.28 94.5611 106.28Z" fill="black"/>
<path d="M110.553 111.248C110.553 111.404 110.541 111.626 110.517 111.914H102.975C103.107 112.622 103.449 113.186 104.001 113.606C104.565 114.014 105.261 114.218 106.089 114.218C107.145 114.218 108.015 113.87 108.699 113.174L109.905 114.56C109.473 115.076 108.927 115.466 108.267 115.73C107.607 115.994 106.863 116.126 106.035 116.126C104.979 116.126 104.049 115.916 103.245 115.496C102.441 115.076 101.817 114.494 101.373 113.75C100.941 112.994 100.725 112.142 100.725 111.194C100.725 110.258 100.935 109.418 101.355 108.674C101.787 107.918 102.381 107.33 103.137 106.91C103.893 106.49 104.745 106.28 105.693 106.28C106.629 106.28 107.463 106.49 108.195 106.91C108.939 107.318 109.515 107.9 109.923 108.656C110.343 109.4 110.553 110.264 110.553 111.248ZM105.693 108.08C104.973 108.08 104.361 108.296 103.857 108.728C103.365 109.148 103.065 109.712 102.957 110.42H108.411C108.315 109.724 108.021 109.16 107.529 108.728C107.037 108.296 106.425 108.08 105.693 108.08Z" fill="black"/>
<path d="M114.857 107.792C115.505 106.784 116.645 106.28 118.277 106.28V108.422C118.085 108.386 117.911 108.368 117.755 108.368C116.879 108.368 116.195 108.626 115.703 109.142C115.211 109.646 114.965 110.378 114.965 111.338V116H112.715V106.388H114.857V107.792Z" fill="black"/>
<path d="M123.19 116.126C122.41 116.126 121.648 116.024 120.904 115.82C120.16 115.616 119.566 115.358 119.122 115.046L119.986 113.336C120.418 113.624 120.934 113.858 121.534 114.038C122.146 114.206 122.746 114.29 123.334 114.29C124.678 114.29 125.35 113.936 125.35 113.228C125.35 112.892 125.176 112.658 124.828 112.526C124.492 112.394 123.946 112.268 123.19 112.148C122.398 112.028 121.75 111.89 121.246 111.734C120.754 111.578 120.322 111.308 119.95 110.924C119.59 110.528 119.41 109.982 119.41 109.286C119.41 108.374 119.788 107.648 120.544 107.108C121.312 106.556 122.344 106.28 123.64 106.28C124.3 106.28 124.96 106.358 125.62 106.514C126.28 106.658 126.82 106.856 127.24 107.108L126.376 108.818C125.56 108.338 124.642 108.098 123.622 108.098C122.962 108.098 122.458 108.2 122.11 108.404C121.774 108.596 121.606 108.854 121.606 109.178C121.606 109.538 121.786 109.796 122.146 109.952C122.518 110.096 123.088 110.234 123.856 110.366C124.624 110.486 125.254 110.624 125.746 110.78C126.238 110.936 126.658 111.2 127.006 111.572C127.366 111.944 127.546 112.472 127.546 113.156C127.546 114.056 127.156 114.776 126.376 115.316C125.596 115.856 124.534 116.126 123.19 116.126Z" fill="black"/>
</svg>
