<svg width="177" height="173" viewBox="0 0 177 173" fill="none" xmlns="http://www.w3.org/2000/svg">
<mask id="mask0_721_463" style="mask-type:alpha" maskUnits="userSpaceOnUse" x="0" y="0" width="177" height="173">
<path fill-rule="evenodd" clip-rule="evenodd" d="M88.5 173C39.6228 173 0 134.273 0 86.5C0 38.7271 39.6228 0 88.5 0C137.377 0 177 38.7271 177 86.5C177 134.273 137.377 173 88.5 173Z" fill="white"/>
</mask>
<g mask="url(#mask0_721_463)">
<path fill-rule="evenodd" clip-rule="evenodd" d="M-3.98633 176.896H180.987V-3.89648H-3.98633V176.896Z" fill="#FED445"/>
</g>
<path d="M49.0371 87V84.06L56.5971 76.92C57.1944 76.3786 57.6331 75.8933 57.9131 75.464C58.1931 75.0346 58.3798 74.6426 58.4731 74.288C58.5851 73.9333 58.6411 73.6066 58.6411 73.308C58.6411 72.524 58.3704 71.9266 57.8291 71.516C57.3064 71.0866 56.5318 70.872 55.5051 70.872C54.6838 70.872 53.9184 71.0306 53.2091 71.348C52.5184 71.6653 51.9304 72.16 51.4451 72.832L48.1411 70.704C48.8878 69.584 49.9331 68.6973 51.2771 68.044C52.6211 67.3906 54.1704 67.064 55.9251 67.064C57.3811 67.064 58.6504 67.3066 59.7331 67.792C60.8344 68.2586 61.6838 68.9213 62.2811 69.78C62.8971 70.6386 63.2051 71.6653 63.2051 72.86C63.2051 73.4946 63.1211 74.1293 62.9531 74.764C62.8038 75.38 62.4864 76.0333 62.0011 76.724C61.5344 77.4146 60.8438 78.1893 59.9291 79.048L53.6571 84.956L52.7891 83.304H63.8491V87H49.0371Z" fill="black"/>
<path d="M66.1622 91.312L68.0102 84.592L68.6262 87.112C67.8235 87.112 67.1608 86.8786 66.6382 86.412C66.1342 85.9453 65.8822 85.3013 65.8822 84.48C65.8822 83.6586 66.1435 83.0053 66.6662 82.52C67.1888 82.0346 67.8328 81.792 68.5982 81.792C69.3822 81.792 70.0262 82.044 70.5302 82.548C71.0342 83.0333 71.2862 83.6773 71.2862 84.48C71.2862 84.7226 71.2675 84.9653 71.2302 85.208C71.1928 85.432 71.1182 85.712 71.0062 86.048C70.9128 86.3653 70.7542 86.776 70.5302 87.28L68.9342 91.312H66.1622Z" fill="black"/>
<path d="M81.3668 87.336C79.7615 87.336 78.3242 86.944 77.0548 86.16C75.7855 85.3573 74.7868 84.2 74.0588 82.688C73.3308 81.176 72.9668 79.3466 72.9668 77.2C72.9668 75.0533 73.3308 73.224 74.0588 71.712C74.7868 70.2 75.7855 69.052 77.0548 68.268C78.3242 67.4653 79.7615 67.064 81.3668 67.064C82.9908 67.064 84.4282 67.4653 85.6788 68.268C86.9482 69.052 87.9468 70.2 88.6748 71.712C89.4028 73.224 89.7668 75.0533 89.7668 77.2C89.7668 79.3466 89.4028 81.176 88.6748 82.688C87.9468 84.2 86.9482 85.3573 85.6788 86.16C84.4282 86.944 82.9908 87.336 81.3668 87.336ZM81.3668 83.5C82.1322 83.5 82.7948 83.2853 83.3548 82.856C83.9335 82.4266 84.3815 81.7453 84.6988 80.812C85.0348 79.8786 85.2028 78.6746 85.2028 77.2C85.2028 75.7253 85.0348 74.5213 84.6988 73.588C84.3815 72.6546 83.9335 71.9733 83.3548 71.544C82.7948 71.1146 82.1322 70.9 81.3668 70.9C80.6202 70.9 79.9575 71.1146 79.3788 71.544C78.8188 71.9733 78.3708 72.6546 78.0348 73.588C77.7175 74.5213 77.5588 75.7253 77.5588 77.2C77.5588 78.6746 77.7175 79.8786 78.0348 80.812C78.3708 81.7453 78.8188 82.4266 79.3788 82.856C79.9575 83.2853 80.6202 83.5 81.3668 83.5Z" fill="black"/>
<path d="M100.371 87.336C98.7654 87.336 97.3281 86.944 96.0587 86.16C94.7894 85.3573 93.7907 84.2 93.0627 82.688C92.3347 81.176 91.9707 79.3466 91.9707 77.2C91.9707 75.0533 92.3347 73.224 93.0627 71.712C93.7907 70.2 94.7894 69.052 96.0587 68.268C97.3281 67.4653 98.7654 67.064 100.371 67.064C101.995 67.064 103.432 67.4653 104.683 68.268C105.952 69.052 106.951 70.2 107.679 71.712C108.407 73.224 108.771 75.0533 108.771 77.2C108.771 79.3466 108.407 81.176 107.679 82.688C106.951 84.2 105.952 85.3573 104.683 86.16C103.432 86.944 101.995 87.336 100.371 87.336ZM100.371 83.5C101.136 83.5 101.799 83.2853 102.359 82.856C102.937 82.4266 103.385 81.7453 103.703 80.812C104.039 79.8786 104.207 78.6746 104.207 77.2C104.207 75.7253 104.039 74.5213 103.703 73.588C103.385 72.6546 102.937 71.9733 102.359 71.544C101.799 71.1146 101.136 70.9 100.371 70.9C99.6241 70.9 98.9614 71.1146 98.3827 71.544C97.8227 71.9733 97.3747 72.6546 97.0387 73.588C96.7214 74.5213 96.5627 75.7253 96.5627 77.2C96.5627 78.6746 96.7214 79.8786 97.0387 80.812C97.3747 81.7453 97.8227 82.4266 98.3827 82.856C98.9614 83.2853 99.6241 83.5 100.371 83.5Z" fill="black"/>
<path d="M119.375 87.336C117.769 87.336 116.332 86.944 115.063 86.16C113.793 85.3573 112.795 84.2 112.067 82.688C111.339 81.176 110.975 79.3466 110.975 77.2C110.975 75.0533 111.339 73.224 112.067 71.712C112.795 70.2 113.793 69.052 115.063 68.268C116.332 67.4653 117.769 67.064 119.375 67.064C120.999 67.064 122.436 67.4653 123.687 68.268C124.956 69.052 125.955 70.2 126.683 71.712C127.411 73.224 127.775 75.0533 127.775 77.2C127.775 79.3466 127.411 81.176 126.683 82.688C125.955 84.2 124.956 85.3573 123.687 86.16C122.436 86.944 120.999 87.336 119.375 87.336ZM119.375 83.5C120.14 83.5 120.803 83.2853 121.363 82.856C121.941 82.4266 122.389 81.7453 122.707 80.812C123.043 79.8786 123.211 78.6746 123.211 77.2C123.211 75.7253 123.043 74.5213 122.707 73.588C122.389 72.6546 121.941 71.9733 121.363 71.544C120.803 71.1146 120.14 70.9 119.375 70.9C118.628 70.9 117.965 71.1146 117.387 71.544C116.827 71.9733 116.379 72.6546 116.043 73.588C115.725 74.5213 115.567 75.7253 115.567 77.2C115.567 78.6746 115.725 79.8786 116.043 80.812C116.379 81.7453 116.827 82.4266 117.387 82.856C117.965 83.2853 118.628 83.5 119.375 83.5Z" fill="black"/>
<path d="M57.5884 116.126C56.8084 116.126 56.0464 116.024 55.3024 115.82C54.5584 115.616 53.9644 115.358 53.5204 115.046L54.3844 113.336C54.8164 113.624 55.3324 113.858 55.9324 114.038C56.5444 114.206 57.1444 114.29 57.7324 114.29C59.0764 114.29 59.7484 113.936 59.7484 113.228C59.7484 112.892 59.5744 112.658 59.2264 112.526C58.8904 112.394 58.3444 112.268 57.5884 112.148C56.7964 112.028 56.1484 111.89 55.6444 111.734C55.1524 111.578 54.7204 111.308 54.3484 110.924C53.9884 110.528 53.8084 109.982 53.8084 109.286C53.8084 108.374 54.1864 107.648 54.9424 107.108C55.7104 106.556 56.7424 106.28 58.0384 106.28C58.6984 106.28 59.3584 106.358 60.0184 106.514C60.6784 106.658 61.2184 106.856 61.6384 107.108L60.7744 108.818C59.9584 108.338 59.0404 108.098 58.0204 108.098C57.3604 108.098 56.8564 108.2 56.5084 108.404C56.1724 108.596 56.0044 108.854 56.0044 109.178C56.0044 109.538 56.1844 109.796 56.5444 109.952C56.9164 110.096 57.4864 110.234 58.2544 110.366C59.0224 110.486 59.6524 110.624 60.1444 110.78C60.6364 110.936 61.0564 111.2 61.4044 111.572C61.7644 111.944 61.9444 112.472 61.9444 113.156C61.9444 114.056 61.5544 114.776 60.7744 115.316C59.9944 115.856 58.9324 116.126 57.5884 116.126Z" fill="black"/>
<path d="M68.2921 116.126C67.2961 116.126 66.4021 115.916 65.6101 115.496C64.8181 115.076 64.2001 114.494 63.7561 113.75C63.3121 112.994 63.0901 112.142 63.0901 111.194C63.0901 110.246 63.3121 109.4 63.7561 108.656C64.2001 107.912 64.8121 107.33 65.5921 106.91C66.3841 106.49 67.2841 106.28 68.2921 106.28C69.2401 106.28 70.0681 106.472 70.7761 106.856C71.4961 107.24 72.0361 107.792 72.3961 108.512L70.6681 109.52C70.3921 109.076 70.0441 108.746 69.6241 108.53C69.2161 108.302 68.7661 108.188 68.2741 108.188C67.4341 108.188 66.7381 108.464 66.1861 109.016C65.6341 109.556 65.3581 110.282 65.3581 111.194C65.3581 112.106 65.6281 112.838 66.1681 113.39C66.7201 113.93 67.4221 114.2 68.2741 114.2C68.7661 114.2 69.2161 114.092 69.6241 113.876C70.0441 113.648 70.3921 113.312 70.6681 112.868L72.3961 113.876C72.0241 114.596 71.4781 115.154 70.7581 115.55C70.0501 115.934 69.2281 116.126 68.2921 116.126Z" fill="black"/>
<path d="M79.7072 106.28C80.9192 106.28 81.8912 106.634 82.6232 107.342C83.3552 108.05 83.7212 109.1 83.7212 110.492V116H81.4712V110.78C81.4712 109.94 81.2732 109.31 80.8772 108.89C80.4812 108.458 79.9172 108.242 79.1852 108.242C78.3572 108.242 77.7032 108.494 77.2232 108.998C76.7432 109.49 76.5032 110.204 76.5032 111.14V116H74.2532V102.644H76.5032V107.504C76.8752 107.108 77.3312 106.808 77.8712 106.604C78.4232 106.388 79.0352 106.28 79.7072 106.28Z" fill="black"/>
<path d="M90.9833 116.126C90.0113 116.126 89.1353 115.916 88.3553 115.496C87.5753 115.076 86.9633 114.494 86.5193 113.75C86.0873 112.994 85.8713 112.142 85.8713 111.194C85.8713 110.246 86.0873 109.4 86.5193 108.656C86.9633 107.912 87.5753 107.33 88.3553 106.91C89.1353 106.49 90.0113 106.28 90.9833 106.28C91.9673 106.28 92.8493 106.49 93.6293 106.91C94.4093 107.33 95.0153 107.912 95.4473 108.656C95.8913 109.4 96.1133 110.246 96.1133 111.194C96.1133 112.142 95.8913 112.994 95.4473 113.75C95.0153 114.494 94.4093 115.076 93.6293 115.496C92.8493 115.916 91.9673 116.126 90.9833 116.126ZM90.9833 114.2C91.8113 114.2 92.4953 113.924 93.0353 113.372C93.5753 112.82 93.8453 112.094 93.8453 111.194C93.8453 110.294 93.5753 109.568 93.0353 109.016C92.4953 108.464 91.8113 108.188 90.9833 108.188C90.1553 108.188 89.4713 108.464 88.9313 109.016C88.4033 109.568 88.1393 110.294 88.1393 111.194C88.1393 112.094 88.4033 112.82 88.9313 113.372C89.4713 113.924 90.1553 114.2 90.9833 114.2Z" fill="black"/>
<path d="M102.585 116.126C101.613 116.126 100.737 115.916 99.9569 115.496C99.1769 115.076 98.5649 114.494 98.1209 113.75C97.6889 112.994 97.4729 112.142 97.4729 111.194C97.4729 110.246 97.6889 109.4 98.1209 108.656C98.5649 107.912 99.1769 107.33 99.9569 106.91C100.737 106.49 101.613 106.28 102.585 106.28C103.569 106.28 104.451 106.49 105.231 106.91C106.011 107.33 106.617 107.912 107.049 108.656C107.493 109.4 107.715 110.246 107.715 111.194C107.715 112.142 107.493 112.994 107.049 113.75C106.617 114.494 106.011 115.076 105.231 115.496C104.451 115.916 103.569 116.126 102.585 116.126ZM102.585 114.2C103.413 114.2 104.097 113.924 104.637 113.372C105.177 112.82 105.447 112.094 105.447 111.194C105.447 110.294 105.177 109.568 104.637 109.016C104.097 108.464 103.413 108.188 102.585 108.188C101.757 108.188 101.073 108.464 100.533 109.016C100.005 109.568 99.7409 110.294 99.7409 111.194C99.7409 112.094 100.005 112.82 100.533 113.372C101.073 113.924 101.757 114.2 102.585 114.2Z" fill="black"/>
<path d="M109.866 102.644H112.116V116H109.866V102.644Z" fill="black"/>
<path d="M118.04 116.126C117.26 116.126 116.498 116.024 115.754 115.82C115.01 115.616 114.416 115.358 113.972 115.046L114.836 113.336C115.268 113.624 115.784 113.858 116.384 114.038C116.996 114.206 117.596 114.29 118.184 114.29C119.528 114.29 120.2 113.936 120.2 113.228C120.2 112.892 120.026 112.658 119.678 112.526C119.342 112.394 118.796 112.268 118.04 112.148C117.248 112.028 116.6 111.89 116.096 111.734C115.604 111.578 115.172 111.308 114.8 110.924C114.44 110.528 114.26 109.982 114.26 109.286C114.26 108.374 114.638 107.648 115.394 107.108C116.162 106.556 117.194 106.28 118.49 106.28C119.15 106.28 119.81 106.358 120.47 106.514C121.13 106.658 121.67 106.856 122.09 107.108L121.226 108.818C120.41 108.338 119.492 108.098 118.472 108.098C117.812 108.098 117.308 108.2 116.96 108.404C116.624 108.596 116.456 108.854 116.456 109.178C116.456 109.538 116.636 109.796 116.996 109.952C117.368 110.096 117.938 110.234 118.706 110.366C119.474 110.486 120.104 110.624 120.596 110.78C121.088 110.936 121.508 111.2 121.856 111.572C122.216 111.944 122.396 112.472 122.396 113.156C122.396 114.056 122.006 114.776 121.226 115.316C120.446 115.856 119.384 116.126 118.04 116.126Z" fill="black"/>
</svg>
