<svg width="531" height="201" viewBox="0 0 531 201" fill="none" xmlns="http://www.w3.org/2000/svg">
<path d="M182.894 106.571H197.87V158.219H182.894V106.571ZM190.382 99.371C187.63 99.371 185.39 98.571 183.662 96.971C181.934 95.371 181.07 93.387 181.07 91.019C181.07 88.651 181.934 86.667 183.662 85.067C185.39 83.467 187.63 82.667 190.382 82.667C193.134 82.667 195.374 83.435 197.102 84.971C198.83 86.507 199.694 88.427 199.694 90.731C199.694 93.227 198.83 95.307 197.102 96.971C195.374 98.571 193.134 99.371 190.382 99.371Z" fill="black"/>
<path d="M209.849 125.195H237.017V137.195H209.849V125.195Z" fill="black"/>
<path d="M248.801 106.571H263.777V158.219H248.801V106.571ZM256.289 99.371C253.537 99.371 251.297 98.571 249.569 96.971C247.841 95.371 246.977 93.387 246.977 91.019C246.977 88.651 247.841 86.667 249.569 85.067C251.297 83.467 253.537 82.667 256.289 82.667C259.041 82.667 261.281 83.435 263.009 84.971C264.737 86.507 265.601 88.427 265.601 90.731C265.601 93.227 264.737 95.307 263.009 96.971C261.281 98.571 259.041 99.371 256.289 99.371Z" fill="black"/>
<path d="M330.956 106.571V149.579C330.956 159.051 328.492 166.091 323.564 170.699C318.636 175.307 311.436 177.611 301.964 177.611C296.972 177.611 292.236 177.003 287.756 175.787C283.276 174.571 279.564 172.811 276.62 170.507L282.572 159.755C284.748 161.547 287.5 162.955 290.828 163.979C294.156 165.067 297.484 165.611 300.812 165.611C305.996 165.611 309.804 164.427 312.236 162.059C314.732 159.755 315.98 156.235 315.98 151.499V149.291C312.076 153.579 306.636 155.723 299.66 155.723C294.924 155.723 290.572 154.699 286.604 152.651C282.7 150.539 279.596 147.595 277.292 143.819C274.988 140.043 273.836 135.691 273.836 130.763C273.836 125.835 274.988 121.483 277.292 117.707C279.596 113.931 282.7 111.019 286.604 108.971C290.572 106.859 294.924 105.803 299.66 105.803C307.148 105.803 312.844 108.267 316.748 113.195V106.571H330.956ZM302.636 143.435C306.604 143.435 309.836 142.283 312.332 139.979C314.892 137.611 316.172 134.539 316.172 130.763C316.172 126.987 314.892 123.947 312.332 121.643C309.836 119.275 306.604 118.091 302.636 118.091C298.668 118.091 295.404 119.275 292.844 121.643C290.284 123.947 289.004 126.987 289.004 130.763C289.004 134.539 290.284 137.611 292.844 139.979C295.404 142.283 298.668 143.435 302.636 143.435Z" fill="black"/>
<path d="M376.286 105.803C382.686 105.803 387.838 107.723 391.742 111.563C395.71 115.403 397.694 121.099 397.694 128.651V158.219H382.718V130.955C382.718 126.859 381.822 123.819 380.03 121.835C378.238 119.787 375.646 118.763 372.254 118.763C368.478 118.763 365.47 119.947 363.23 122.315C360.99 124.619 359.87 128.075 359.87 132.683V158.219H344.894V106.571H359.198V112.619C361.182 110.443 363.646 108.779 366.59 107.627C369.534 106.411 372.766 105.803 376.286 105.803Z" fill="black"/>
<path d="M411.269 106.571H426.245V158.219H411.269V106.571ZM418.757 99.371C416.005 99.371 413.765 98.571 412.037 96.971C410.309 95.371 409.445 93.387 409.445 91.019C409.445 88.651 410.309 86.667 412.037 85.067C413.765 83.467 416.005 82.667 418.757 82.667C421.509 82.667 423.749 83.435 425.477 84.971C427.205 86.507 428.069 88.427 428.069 90.731C428.069 93.227 427.205 95.307 425.477 96.971C423.749 98.571 421.509 99.371 418.757 99.371Z" fill="black"/>
<path d="M473.456 155.723C471.984 156.811 470.16 157.643 467.984 158.219C465.872 158.731 463.632 158.987 461.264 158.987C455.12 158.987 450.352 157.419 446.96 154.283C443.632 151.147 441.968 146.539 441.968 140.459V119.243H434V107.723H441.968V95.147H456.944V107.723H469.808V119.243H456.944V140.267C456.944 142.443 457.488 144.139 458.576 145.355C459.728 146.507 461.328 147.083 463.376 147.083C465.744 147.083 467.76 146.443 469.424 145.163L473.456 155.723Z" fill="black"/>
<path d="M530.861 132.587C530.861 132.779 530.765 134.123 530.573 136.619H491.501C492.205 139.819 493.869 142.347 496.493 144.203C499.117 146.059 502.381 146.987 506.285 146.987C508.973 146.987 511.341 146.603 513.389 145.835C515.501 145.003 517.453 143.723 519.245 141.995L527.213 150.635C522.349 156.203 515.245 158.987 505.901 158.987C500.077 158.987 494.925 157.867 490.445 155.627C485.965 153.323 482.509 150.155 480.077 146.123C477.645 142.091 476.429 137.515 476.429 132.395C476.429 127.339 477.613 122.795 479.981 118.763C482.413 114.667 485.709 111.499 489.869 109.259C494.093 106.955 498.797 105.803 503.981 105.803C509.037 105.803 513.613 106.891 517.709 109.067C521.805 111.243 525.005 114.379 527.309 118.475C529.677 122.507 530.861 127.211 530.861 132.587ZM504.077 117.131C500.685 117.131 497.837 118.091 495.533 120.011C493.229 121.931 491.821 124.555 491.309 127.883H516.749C516.237 124.619 514.829 122.027 512.525 120.107C510.221 118.123 507.405 117.131 504.077 117.131Z" fill="black"/>
<path d="M120.384 200.001C119.989 199.907 119.402 199.665 119.078 199.462C118.755 199.26 118.044 199.029 117.5 198.949C116.955 198.869 115.712 198.485 114.738 198.097C113.764 197.708 111.607 197.069 109.946 196.676C108.285 196.283 106.805 195.886 106.656 195.794C106.508 195.702 106.174 195.596 105.913 195.559C104.852 195.407 99.9631 193.731 99.7424 193.444C99.6119 193.274 98.9177 193.086 98.1999 193.027C97.482 192.968 96.4675 192.811 95.9454 192.679C95.4233 192.547 94.1418 192.222 93.0976 191.957C92.0534 191.692 90.3448 191.216 89.3006 190.898C88.2564 190.581 87.08 190.26 86.6864 190.184C85.7022 189.996 83.6796 189.002 83.8782 188.804C83.9673 188.716 83.6828 188.643 83.2461 188.643C82.4633 188.643 80.4681 188.078 78.1469 187.199C76.7041 186.653 72.3518 185.808 70.9803 185.808C69.4726 185.808 67.6392 186.257 65.9382 187.043C64.52 187.699 64.2524 187.743 62.2599 187.655C60.9082 187.595 59.821 187.415 59.3293 187.169C58.8994 186.954 58.0451 186.707 57.4308 186.619C56.8166 186.531 55.777 186.219 55.1207 185.924C54.4643 185.63 53.4498 185.224 52.8662 185.022C51.6625 184.606 50.1838 183.87 49.63 183.412C49.4071 183.228 48.6221 183.102 47.683 183.099C45.167 183.091 36.9439 183.477 35.9051 183.652C35.383 183.74 32.8734 183.775 30.3282 183.729C21.2104 183.566 19.9591 183.568 16.564 183.75C14.6715 183.852 12.4289 183.919 11.5805 183.899C9.76871 183.857 10.082 183.838 7.54613 184.148C4.97927 184.462 2.00302 184.478 1.44877 184.181C1.21295 184.055 0.825762 183.892 0.588348 183.818C0.287947 183.724 0.201174 183.544 0.302987 183.225C0.383452 182.972 0.316386 182.554 0.153951 182.295C-0.100777 181.889 -0.0615402 181.757 0.439312 181.339C0.758695 181.072 1.41824 180.786 1.90497 180.702C3.10486 180.497 3.41044 180.217 3.94139 178.838C4.24306 178.054 4.66655 177.474 5.19983 177.114C5.6419 176.816 6.14706 176.234 6.3224 175.821C6.65154 175.046 7.6366 173.994 8.03298 173.994C8.15678 173.994 8.25807 173.68 8.25807 173.297C8.25807 172.914 8.63156 171.983 9.08806 171.229C10.0441 169.651 10.1024 169.214 9.44464 168.559C8.88096 167.998 8.85968 167.659 9.3482 167.024C9.7113 166.551 9.7113 166.551 10.0688 167.024C10.2655 167.284 10.4992 167.609 10.5881 167.746C10.8721 168.185 12.8264 168.954 14.7842 169.398C16.4219 169.769 18.0357 169.839 26.5312 169.901C31.9479 169.941 36.5399 169.983 36.7357 169.993C36.9315 170.004 40.4187 169.935 44.4851 169.841L51.8786 169.67L52.931 170.284C53.5098 170.621 54.8037 171.64 55.8063 172.546C56.8353 173.477 57.9396 174.263 58.3419 174.351C59.1961 174.537 60.467 175.549 60.467 176.043C60.467 176.71 61.0295 176.208 61.721 174.925C62.1017 174.218 62.5627 173.472 62.7454 173.266C62.928 173.061 63.0775 172.837 63.0775 172.769C63.0775 172.7 63.595 171.749 64.2275 170.654C64.8599 169.56 65.5607 168.115 65.7846 167.444C66.0086 166.773 66.4255 165.903 66.7111 165.511C68.2447 163.409 68.6435 162.849 69.8433 161.117C70.5631 160.077 71.3538 158.791 71.6002 158.258C71.8466 157.725 73.0075 155.864 74.18 154.123C77.2079 149.626 77.6719 148.848 80.0434 144.297C80.3269 143.753 80.9914 142.738 81.5201 142.04C82.0489 141.343 82.7729 140.193 83.1292 139.485C83.4854 138.777 84.0165 137.879 84.3093 137.489C84.6022 137.099 85.0829 136.302 85.3776 135.717C85.6723 135.132 86.5035 133.764 87.2248 132.678C87.9461 131.591 88.7407 130.165 88.9906 129.511C89.2405 128.856 89.9807 127.459 90.6355 126.407C91.2903 125.355 91.9519 124.282 92.1059 124.024C92.2598 123.765 92.7076 123.021 93.101 122.37C93.4945 121.719 93.9676 120.92 94.1525 120.595C94.3373 120.27 94.8205 119.42 95.2262 118.705C95.6319 117.99 96.1144 117.033 96.2984 116.579C96.4824 116.124 97.0923 115.033 97.6537 114.154C98.2151 113.276 98.6745 112.3 98.6745 111.986C98.6745 111.625 98.9517 111.199 99.4263 110.829L100.178 110.243L99.0159 107.83C97.7707 105.246 97.0185 104.412 94.8907 103.259C93.0098 102.24 90.6442 102.07 87.9858 102.763C87.1427 102.983 85.8121 103.255 85.029 103.368C84.2458 103.48 83.0711 103.697 82.4185 103.85C80.7893 104.231 68.1206 104.219 65.4506 103.834C64.3412 103.674 62.2781 103.457 60.8659 103.353C58.7501 103.196 58.2052 103.075 57.7689 102.667L57.2395 102.172L56.348 103.689C55.8576 104.524 55.3761 105.24 55.278 105.281C54.9976 105.398 53.6615 107.883 53.4917 108.604C53.4075 108.962 53.2418 109.254 53.1236 109.254C52.8837 109.254 51.4491 111.784 51.4491 112.207C51.4491 112.355 51.0945 112.895 50.6611 113.405C50.2277 113.916 49.641 114.818 49.3574 115.409C49.0739 116.001 48.3549 117.053 47.7598 117.747C47.1646 118.441 46.4776 119.4 46.233 119.877C45.9884 120.354 45.6132 120.89 45.3993 121.066C45.1854 121.243 44.843 121.715 44.6385 122.114C44.4339 122.513 43.7563 123.49 43.1327 124.285C42.5091 125.079 41.7712 126.174 41.4928 126.717C41.2145 127.26 40.6411 128.099 40.2186 128.58C39.7962 129.062 39.0366 130.094 38.5307 130.873C38.0248 131.653 37.1323 132.913 36.5473 133.674C35.9624 134.434 35.2583 135.459 34.9825 135.951C34.248 137.262 31.6265 141.194 31.1249 141.738C30.8873 141.995 30.6806 142.314 30.6654 142.447C30.6502 142.579 30.6216 142.82 30.6017 142.983C30.5818 143.145 30.4126 143.278 30.2257 143.278C30.0388 143.278 29.6452 143.623 29.3509 144.046C29.0567 144.468 28.5155 145.163 28.1482 145.59C27.7809 146.017 27.4805 146.533 27.4805 146.737C27.4805 146.941 27.213 147.318 26.8862 147.574C26.5594 147.83 25.9522 148.536 25.537 149.144C25.1217 149.751 24.3791 150.642 23.8866 151.124C23.3941 151.606 22.7583 152.455 22.4736 153.011C21.8747 154.179 20.8776 155.479 19.5305 156.846C19.0084 157.375 18.3142 158.243 17.9879 158.773C17.6616 159.304 16.6137 160.435 15.6591 161.288C14.7046 162.14 13.6901 163.141 13.4047 163.513C12.4307 164.78 10.6257 166.458 10.3909 166.313C9.99975 166.072 10.1279 165.52 10.6379 165.248C10.9026 165.107 11.0659 164.906 11.0009 164.801C10.9358 164.696 11.3333 164.255 11.8841 163.821C12.435 163.387 12.9697 162.895 13.0725 162.729C13.1752 162.563 13.743 162.096 14.3342 161.691C14.9462 161.271 15.8619 160.277 16.4604 159.382C17.9464 157.158 18.7663 156.125 20.3481 154.482C21.1088 153.692 21.9183 152.682 22.147 152.237C22.536 151.481 23.2621 150.534 24.4628 149.217C24.7428 148.91 25.0824 148.476 25.2176 148.254C26.5045 146.137 28.9744 142.761 29.7009 142.127C29.9433 141.915 31.1914 140.147 32.4744 138.198C33.7575 136.249 35.1077 134.243 35.4748 133.742C35.842 133.241 36.5986 132.124 37.1561 131.261C37.7136 130.398 38.6917 129.148 39.3297 128.484C39.9676 127.82 40.7069 126.852 40.9726 126.334C41.3887 125.522 44.0653 121.401 44.6235 120.713C45.3053 119.873 48.3681 115.385 48.9573 114.362C49.3489 113.683 49.8955 112.813 50.1721 112.431C50.4486 112.048 50.7579 111.469 50.8594 111.144C50.9608 110.819 51.3219 110.139 51.6618 109.632C52.4884 108.4 52.5785 108.25 52.7398 107.836C52.8159 107.641 53.0909 107.163 53.3509 106.773C53.6108 106.383 54.0701 105.586 54.3715 105.001C55.3599 103.083 56.4882 101.471 56.9427 101.328C57.1942 101.248 57.7244 101.388 58.1568 101.647C59.338 102.357 60.3714 102.588 63.0538 102.746C64.4113 102.825 65.6227 102.953 65.7458 103.028C66.175 103.292 77.165 103.366 79.7817 103.122C81.232 102.987 84.2744 102.5 86.5426 102.041C91.8698 100.963 93.4292 101.035 95.6649 102.461C98.4622 104.246 98.8935 104.836 100.6 109.219C100.812 109.763 100.848 109.745 102.308 108.392C104.026 106.799 106.204 105.282 107.574 104.724C111.329 103.196 110.975 103.272 113.507 103.443C116.87 103.67 117.152 103.722 118.609 104.377C120.567 105.258 123.562 106.342 124.884 106.649C125.529 106.799 126.491 107.115 127.02 107.352C127.549 107.59 128.463 107.856 129.051 107.945C131.464 108.309 135.276 109.381 138.019 110.467C139.623 111.102 141.599 111.717 142.409 111.835C143.22 111.952 144.47 112.318 145.188 112.647C145.951 112.997 147.529 113.402 148.985 113.621C152.447 114.141 152.493 114.155 152.913 114.792C153.233 115.278 153.244 115.508 152.989 116.383C152.824 116.945 152.541 117.641 152.358 117.929C152.045 118.423 152.089 118.491 153.175 119.177C154.226 119.841 154.469 119.896 156.067 119.835C157.754 119.77 157.829 119.791 158.38 120.477C158.693 120.867 158.95 121.423 158.951 121.713C158.953 122.462 158.271 124.12 157.578 125.053C156.797 126.104 156.104 127.957 156.104 128.993C156.104 129.903 155.565 131.382 155.082 131.794C154.914 131.937 154.639 132.48 154.47 133C154.155 133.971 151.546 139.249 150.969 140.082C150.791 140.338 150.646 140.79 150.646 141.086C150.646 141.382 150.539 141.624 150.409 141.624C150.278 141.624 150.172 141.83 150.172 142.083C150.172 142.335 150.083 142.596 149.974 142.662C149.866 142.729 149.478 143.506 149.112 144.389C148.457 145.972 145.114 152.985 144.686 153.674C144.316 154.269 142.667 157.723 142.022 159.252C141.687 160.046 140.28 162.97 138.896 165.75C137.512 168.53 136.109 171.389 135.778 172.104C135.448 172.818 135.08 173.588 134.962 173.813C134.843 174.039 134.746 174.371 134.746 174.552C134.746 174.985 133.857 177.012 132.141 180.491C131.372 182.051 130.558 183.965 130.332 184.744C130.106 185.524 129.673 186.661 129.37 187.271C129.067 187.881 128.582 189.104 128.293 189.988C128.004 190.873 127.473 192.062 127.114 192.631C126.754 193.201 126.388 194.157 126.301 194.758C126.214 195.358 126.027 196.062 125.887 196.322C125.746 196.582 125.624 196.901 125.616 197.031C125.547 198.059 124.102 199.381 122.43 199.947C121.543 200.248 121.429 200.251 120.384 200.001V200.001ZM123.72 198.323C124.066 198.037 124.194 197.118 123.925 196.85C123.846 196.772 123.526 196.825 123.212 196.967C122.898 197.109 122.574 197.159 122.492 197.077C122.294 196.88 122.862 195.531 123.235 195.312C123.526 195.141 124.396 193.619 126.367 189.828C126.941 188.725 127.566 187.737 127.756 187.631C127.946 187.525 128.101 187.239 128.101 186.995C128.101 186.752 128.347 186.252 128.646 185.885C128.946 185.518 129.55 184.42 129.988 183.445C130.427 182.47 130.983 181.391 131.224 181.046C131.464 180.701 131.661 180.219 131.661 179.976C131.661 179.733 131.845 179.271 132.071 178.951C132.296 178.631 132.492 178.023 132.507 177.601C132.522 177.178 132.701 176.646 132.906 176.417C133.111 176.189 133.671 174.997 134.152 173.768C134.632 172.54 135.23 171.276 135.479 170.96C135.729 170.644 135.933 170.266 135.933 170.12C135.933 169.974 136.391 168.952 136.95 167.849C137.51 166.745 138.271 165.098 138.642 164.188C139.014 163.279 139.717 161.684 140.205 160.644C140.694 159.605 141.225 158.382 141.386 157.927C142.129 155.828 142.382 155.255 142.927 154.435C143.248 153.952 143.93 152.599 144.442 151.429C144.955 150.26 145.651 148.824 145.99 148.24C146.329 147.655 146.607 146.882 146.609 146.522C146.611 146.162 146.879 145.446 147.205 144.932C147.531 144.417 147.798 143.838 147.798 143.645C147.798 143.452 148.003 143.185 148.254 143.052C148.505 142.918 148.84 142.409 148.999 141.921C149.158 141.433 149.493 140.742 149.744 140.387C150.666 139.077 152.138 135.608 152.207 134.579C152.249 133.961 152.464 133.329 152.734 133.031C153.306 132.401 154.357 129.64 154.68 127.92C154.814 127.205 155.124 126.348 155.369 126.015C156.14 124.968 157.291 122.523 157.291 121.93C157.291 121.115 156.901 120.909 155.102 120.772C153.271 120.633 153.232 120.813 154.797 122.187C155.573 122.868 155.65 123.037 155.502 123.723C155.411 124.147 155.027 125.079 154.649 125.793C153.441 128.08 151.353 132.712 151.238 133.362C151.089 134.206 150.576 135.29 149.454 137.135C148.94 137.979 148.518 138.801 148.515 138.96C148.512 139.119 148.297 139.598 148.037 140.023C147.776 140.449 147.562 141.043 147.562 141.344C147.561 141.996 147.143 142.85 146.696 143.112C146.519 143.216 146.374 143.407 146.374 143.537C146.374 143.804 143.467 150.738 142.82 152.013C142.281 153.076 141.76 154.277 141.381 155.328C141.217 155.783 140.661 157.057 140.145 158.159C139.629 159.261 139.039 160.59 138.834 161.112C138.629 161.635 138.239 162.332 137.968 162.663C137.432 163.318 136.921 164.405 135.532 167.851C135.035 169.085 133.96 171.401 133.144 172.996C132.329 174.592 131.661 176.035 131.661 176.204C131.661 176.372 131.4 176.754 131.081 177.053C130.763 177.351 130.211 178.406 129.855 179.398C129.499 180.389 129.132 181.307 129.04 181.437C128.947 181.567 128.79 181.939 128.69 182.264C128.591 182.588 128.032 183.864 127.45 185.099C126.867 186.333 126.127 187.9 125.806 188.58C125.484 189.261 125.281 189.913 125.353 190.03C125.426 190.148 125.334 190.369 125.148 190.523C124.962 190.676 124.582 191.237 124.303 191.769C124.025 192.301 123.489 193.023 123.113 193.373C122.737 193.722 122.253 194.449 122.036 194.988C121.685 195.862 121.557 195.968 120.852 195.968C120.417 195.968 119.99 195.854 119.904 195.716C119.801 195.549 119.61 195.588 119.339 195.833C118.967 196.169 118.791 196.156 117.405 195.694C116.566 195.415 115.364 194.968 114.734 194.701C114.104 194.434 113.297 194.238 112.94 194.265C112.534 194.296 111.684 193.95 110.672 193.342C109.232 192.477 108.93 192.383 107.957 192.492C106.874 192.614 104.481 192.167 103.065 191.579C102.673 191.416 101.765 191.111 101.048 190.9C100.33 190.689 98.9949 190.295 98.0812 190.025C97.1676 189.755 95.6191 189.23 94.6402 188.858C93.6612 188.487 92.1044 188.03 91.1805 187.843C90.2565 187.657 89.1352 187.282 88.6887 187.011C88.1698 186.696 87.473 186.518 86.7583 186.517C86.1431 186.517 85.098 186.304 84.4357 186.044C83.7734 185.784 83.0131 185.571 82.7462 185.571C82.3034 185.571 79.4642 184.47 78.4287 183.897C78.1921 183.766 77.7988 183.722 77.5547 183.799C77.3106 183.876 76.4897 183.738 75.7304 183.493C74.9711 183.247 73.8773 183.03 73.2998 183.009C72.7222 182.989 72.0223 182.824 71.7444 182.643C71.4666 182.462 70.3863 182.045 69.3439 181.717C67.5507 181.153 67.373 181.139 66.0442 181.446C65.2717 181.625 64.5908 181.723 64.531 181.663C64.4712 181.603 64.5735 181.551 64.7584 181.548C65.0084 181.542 64.9924 181.481 64.696 181.309C64.4301 181.154 64.106 181.164 63.7231 181.338C63.232 181.56 63.053 181.51 62.4853 180.986C62.1203 180.649 61.6173 180.373 61.3676 180.373C61.1179 180.373 60.9708 180.281 61.0406 180.169C61.1105 180.056 61.449 180.018 61.793 180.083C62.3604 180.191 62.4021 180.15 62.2437 179.638C62.1476 179.328 61.9358 178.815 61.7728 178.499C61.4789 177.929 61.4727 177.934 60.9851 179.031C60.7149 179.639 60.3938 180.137 60.2717 180.137C60.1496 180.137 59.367 179.471 58.5325 178.656C57.6981 177.841 56.3718 176.847 55.5853 176.446C54.7988 176.045 53.6783 175.355 53.0952 174.912C51.7329 173.876 48.7359 173.023 46.4655 173.025C44.6706 173.026 40.6014 173.326 39.7002 173.525C39.1771 173.64 37.8422 173.748 36.7338 173.764C35.6254 173.781 34.3447 173.827 33.8879 173.866C33.4311 173.906 31.3487 174.004 29.2603 174.084C27.172 174.165 24.7158 174.331 23.8021 174.454C22.8884 174.578 18.8838 174.742 14.9028 174.82C7.00314 174.974 7.0715 174.961 7.0715 176.364C7.0715 177.162 7.97208 177.635 8.85608 177.3C9.24053 177.154 9.85874 177.155 10.5775 177.302C11.5691 177.504 14.6195 177.821 15.2588 177.788C16.3003 177.734 28.3192 177.512 29.2024 177.53C29.8232 177.543 30.552 177.435 30.8219 177.291C31.0918 177.148 32.9867 176.935 35.0328 176.819C37.0788 176.702 39.6072 176.503 40.6514 176.376C43.1841 176.067 46.8344 175.987 48.0081 176.216C49.1501 176.439 51.4292 177.289 51.9237 177.676C52.5545 178.171 54.3386 178.993 54.4784 178.854C54.7606 178.573 53.9661 177.558 53.2566 177.293C52.8498 177.141 51.7546 176.656 50.8227 176.214C49.8909 175.773 48.8627 175.411 48.538 175.411C48.2132 175.411 47.8021 175.237 47.6244 175.024C47.3455 174.689 46.92 174.655 44.5172 174.775C42.9859 174.852 41.5234 175.027 41.2672 175.163C41.0109 175.3 40.0939 175.411 39.2295 175.411C38.3651 175.411 37.21 175.516 36.6628 175.644C34.4869 176.151 16.34 176.712 11.9364 176.408C10.1939 176.287 9.02989 176.296 8.93721 176.432C8.72914 176.736 8.21193 176.386 8.40642 176.072C8.51244 175.902 9.4844 175.876 11.436 175.991C14.0349 176.145 16.5518 176.146 22.1409 175.993C24.8703 175.919 32.2177 175.446 34.7185 175.184C40.115 174.619 42.2763 174.434 44.9329 174.314C47.7204 174.187 47.8283 174.201 49.3232 174.878C51.8163 176.006 52.1611 176.128 52.1611 175.879C52.1611 175.258 53.0792 175.801 54.4628 177.241C55.5919 178.416 56.1334 178.817 56.5236 178.766C57.2343 178.674 58.3312 179.565 58.3312 180.235C58.3312 180.531 58.5236 180.946 58.7588 181.158C59.1945 181.55 62.4642 182.14 62.8587 181.897C62.9779 181.824 63.1998 182.036 63.3519 182.368C63.6662 183.055 64.1597 183.139 64.7505 182.607C65.3349 182.08 66.4787 182.043 66.5838 182.547C66.6443 182.838 66.268 183.151 65.2353 183.67C63.9404 184.321 63.5916 184.389 61.601 184.382C60.042 184.377 59.2646 184.273 58.9385 184.028C58.6851 183.837 58.1286 183.681 57.7018 183.681C57.2207 183.681 56.7505 183.494 56.4646 183.188C56.077 182.774 55.9206 182.739 55.4857 182.971C54.833 183.319 54.657 183.154 54.9998 182.516C55.2139 182.118 55.1942 181.992 54.9004 181.88C54.699 181.803 54.5342 181.539 54.5342 181.293C54.5342 180.832 54.8819 180.686 55.1085 181.051C55.1788 181.164 55.5588 181.321 55.9531 181.4C56.5041 181.51 56.67 181.67 56.67 182.092C56.67 182.752 57.0807 183.208 57.6742 183.208C58.1482 183.208 58.5696 182.46 58.1702 182.328C58.0347 182.283 57.7219 182.092 57.4749 181.903C57.0401 181.571 57.0445 181.546 57.6132 181.103L58.2003 180.645L57.7318 180.096C56.873 179.088 56.4028 178.909 56.6012 179.664C56.7421 180.2 56.6048 180.245 55.9273 179.884C55.6087 179.714 55.3589 179.709 55.1661 179.868C54.9636 180.036 54.3667 179.797 53.137 179.058C52.1788 178.482 51.3253 178.01 51.2405 178.01C51.1556 178.01 50.6806 177.794 50.185 177.529C49.6893 177.265 48.5696 176.96 47.6967 176.852C45.5304 176.583 39.7875 176.929 36.617 177.52C35.1813 177.787 32.0843 178.128 29.7349 178.278C25.1468 178.57 25.1161 178.57 21.9036 178.459C20.7289 178.418 18.4863 178.465 16.92 178.564C14.9844 178.685 13.5402 178.65 12.4111 178.456C11.4974 178.298 10.0557 178.155 9.20732 178.137C8.35893 178.12 7.41938 178.022 7.11944 177.92C6.78165 177.805 6.44411 177.842 6.23254 178.017C6.04468 178.172 5.74292 178.243 5.56195 178.174C5.07811 177.989 4.55113 179.22 4.6711 180.255C4.68617 180.385 5.40058 180.52 6.2587 180.556C7.92262 180.626 8.19055 180.279 6.68948 179.998C6.09024 179.886 5.92263 179.768 6.10468 179.587C6.28673 179.406 6.59962 179.419 7.19633 179.634C7.65638 179.8 8.33232 179.87 8.69843 179.79C9.06454 179.71 13.6805 179.666 18.9562 179.693C32.5189 179.762 33.3195 179.743 34.0737 179.328C35.8323 178.359 36.44 178.178 37.8825 178.195C38.7091 178.204 39.823 178.058 40.3579 177.87C40.9974 177.646 41.4105 177.608 41.5645 177.762C41.8248 178.021 41.8236 178.021 39.7593 178.592C38.8137 178.853 38.2595 178.899 37.9604 178.739C37.6621 178.58 37.2029 178.616 36.4792 178.854C35.4435 179.195 35.4585 179.198 37.6849 179.079C38.9249 179.013 40.3132 178.902 40.77 178.833C41.2268 178.764 43.4316 178.597 45.6694 178.463C49.5735 178.229 49.7751 178.239 50.6495 178.705C51.1507 178.973 51.6958 179.192 51.8609 179.192C52.026 179.192 52.1611 179.394 52.1611 179.642C52.1611 180.135 51.7222 180.135 48.72 179.644C46.3649 179.258 44.4425 179.336 38.5155 180.062C37.1458 180.23 35.3601 180.29 26.0566 180.482C22.3367 180.558 18.6524 180.675 17.8693 180.741C16.458 180.86 15.8127 180.886 7.30882 181.179C3.3026 181.318 1.31488 181.537 0.971891 181.878C0.642169 182.207 1.15501 182.741 1.67504 182.611C1.97577 182.536 2.49026 182.613 2.81835 182.783C3.43911 183.103 5.21595 183.029 8.97001 182.526C10.885 182.269 22.2361 181.685 23.8021 181.762C29.7144 182.054 43.4379 181.735 46.9402 181.224C48.0496 181.062 49.5447 180.946 50.2625 180.967C53.706 181.066 53.5449 181.028 53.9541 181.816C54.1639 182.22 54.276 182.787 54.2032 183.076C54.0272 183.774 55.1835 184.635 56.5176 184.799C57.0583 184.866 58.1113 185.12 58.8577 185.364C59.8481 185.688 60.91 185.808 62.7883 185.808C65.2982 185.808 65.3776 185.791 65.9995 185.145C66.3502 184.78 66.6372 184.361 66.6372 184.214C66.6372 183.792 67.0317 183.645 68.7319 183.434C69.9691 183.28 70.4305 183.311 70.8411 183.577C71.5251 184.02 73.1273 184.541 74.4601 184.753C75.0427 184.845 76.1178 185.224 76.8492 185.594C77.5805 185.964 78.7479 186.388 79.4433 186.537C80.1388 186.685 81.1461 187.005 81.6818 187.247C82.2175 187.489 82.9762 187.691 83.3678 187.695C83.7593 187.699 84.6137 187.949 85.2663 188.25C85.9189 188.551 87.8945 189.139 89.6566 189.557C93.6274 190.498 94.1393 190.627 97.3347 191.491C98.7514 191.874 100.16 192.187 100.465 192.187C100.77 192.187 101.086 192.293 101.166 192.423C101.247 192.553 101.473 192.66 101.668 192.66C101.863 192.66 102.493 192.873 103.067 193.133C104.526 193.795 111.015 195.396 111.015 195.095C111.015 195.046 111.255 195.136 111.549 195.295C111.842 195.454 112.243 195.607 112.439 195.636C112.634 195.664 113.649 196 114.693 196.381C115.737 196.763 117.262 197.221 118.081 197.398C119.049 197.609 119.754 197.919 120.098 198.287C120.57 198.792 120.772 198.839 121.999 198.731C122.755 198.664 123.529 198.481 123.72 198.323V198.323ZM67.4084 182.101C67.6369 182.041 68.0106 182.041 68.239 182.101C68.4675 182.16 68.2806 182.209 67.8237 182.209C67.3669 182.209 67.18 182.16 67.4084 182.101ZM121.762 194.018C122.091 193.336 122.433 192.432 122.521 192.01C122.632 191.477 122.816 191.242 123.12 191.242C123.675 191.242 124.305 190.34 125.017 188.525C125.323 187.745 125.715 186.897 125.888 186.641C126.061 186.385 126.203 185.838 126.203 185.426C126.203 184.967 126.345 184.622 126.571 184.536C126.773 184.459 127.151 183.889 127.41 183.271C127.67 182.652 128.03 181.826 128.211 181.437C129.662 178.312 129.829 177.784 129.497 177.384C129.217 177.047 129.219 176.972 129.511 176.874C130.513 176.539 132.801 172.672 134.64 168.205C136.063 164.75 137.376 161.876 137.717 161.471C138.089 161.029 139.367 158.484 139.614 157.693C139.715 157.369 140.091 156.465 140.449 155.684C140.807 154.904 141.179 153.999 141.276 153.674C141.373 153.349 141.931 152.126 142.516 150.957C143.101 149.787 143.934 147.873 144.367 146.704C144.8 145.534 145.432 144.012 145.773 143.321C146.113 142.63 146.559 141.571 146.765 140.967C146.971 140.364 147.703 138.749 148.392 137.38C149.969 134.243 151.012 131.988 151.237 131.228C151.333 130.903 152.147 129.132 153.046 127.293C154.688 123.935 154.98 123.029 154.344 123.272C154.159 123.343 153.949 123.248 153.877 123.061C153.65 122.473 153.304 122.69 153.007 123.608C152.849 124.095 152.64 124.6 152.543 124.73C152.446 124.86 152.204 125.498 152.006 126.148C151.072 129.21 149.978 131.826 148.448 134.654C147.61 136.203 146.859 137.845 146.712 138.448C146.508 139.29 146.045 140.338 144.111 144.341C143.295 146.03 142.228 148.476 141.741 149.775C141.254 151.075 140.618 152.404 140.327 152.729C140.037 153.054 139.736 153.499 139.659 153.719C139.581 153.939 138.992 154.843 138.349 155.728C137.46 156.95 137.03 157.857 136.557 159.505C136.063 161.226 135.597 162.18 134.304 164.123C133.408 165.47 132.473 166.771 132.227 167.013C131.697 167.536 130.96 168.702 130.127 170.332C129.513 171.533 128.938 172.509 127.968 173.994C127.671 174.449 127.142 175.512 126.791 176.357C126.441 177.201 125.963 178.318 125.73 178.838C125.497 179.357 124.963 180.793 124.544 182.027C124.124 183.262 123.648 184.591 123.486 184.981C123.013 186.115 122.122 188.709 121.985 189.352C121.915 189.677 121.509 190.351 121.081 190.851C120.636 191.372 120.237 192.154 120.147 192.682C119.895 194.172 119.468 193.811 119.651 192.262C119.761 191.329 120.115 190.377 120.811 189.137C121.362 188.156 121.85 187.245 121.896 187.112C121.941 186.98 122.243 186.196 122.565 185.371C122.887 184.547 123.085 183.806 123.004 183.726C122.924 183.646 122.427 184.081 121.901 184.694C121.375 185.306 120.793 185.808 120.608 185.808C120.152 185.808 120.182 185.6 120.778 184.626C121.057 184.171 121.647 182.751 122.09 181.47C122.533 180.189 123.152 178.806 123.465 178.397C123.778 177.988 124.37 176.91 124.779 176.001C125.189 175.093 125.669 174.19 125.846 173.994C126.024 173.799 126.53 172.789 126.971 171.749C127.411 170.71 128.113 169.391 128.53 168.819C128.947 168.248 129.288 167.654 129.288 167.5C129.288 167.346 129.707 166.624 130.22 165.896C130.732 165.167 131.373 164.073 131.644 163.463C131.915 162.853 132.673 161.57 133.329 160.612C133.985 159.654 134.623 158.604 134.747 158.28C134.934 157.79 135.458 157.434 135.458 157.798C135.458 158.127 134.745 159.432 133.752 160.92C133.131 161.852 132.44 163.075 132.218 163.637C131.77 164.772 131.275 165.619 130.673 166.281C130.454 166.522 130.139 167.053 129.975 167.462C129.81 167.871 129.268 168.811 128.77 169.551C128.272 170.291 127.864 170.994 127.864 171.112C127.864 171.479 126.215 174.904 125.964 175.058C125.834 175.138 125.418 175.825 125.039 176.584C124.661 177.343 124.083 178.427 123.754 178.992C123.17 179.997 121.835 183.664 121.995 183.823C122.039 183.868 122.394 183.679 122.782 183.404C123.345 183.006 123.674 182.372 124.401 180.28C124.903 178.837 125.621 177.112 125.996 176.446C126.371 175.78 126.677 175.111 126.677 174.958C126.677 174.805 127.08 174.074 127.573 173.333C128.065 172.592 128.936 171.082 129.508 169.977C130.512 168.039 131.449 166.648 132.982 164.82C134.039 163.56 135.078 161.591 135.686 159.699C136.341 157.659 136.921 156.512 138.098 154.93C139.436 153.132 140.521 151.052 141.651 148.122C142.202 146.692 142.876 145.15 143.149 144.696C144.536 142.385 146.425 137.843 146 137.843C145.826 137.843 142.815 142.558 142.815 142.83C142.815 143.125 141.005 147.218 140.162 148.83C139.448 150.197 137.144 153.578 136.155 154.71C135.689 155.245 134.895 156.32 134.392 157.1C133.888 157.88 133.286 158.732 133.054 158.994C132.397 159.736 130.935 162.393 128.703 166.906C127.577 169.18 126.506 171.306 126.321 171.631C126.137 171.956 125.443 173.232 124.78 174.466C124.117 175.701 123.284 177.243 122.93 177.892C122.268 179.107 121.829 180.088 121.023 182.146C120.769 182.796 120.346 183.7 120.084 184.155C119.821 184.609 119.532 185.247 119.44 185.571C119.348 185.896 118.963 186.555 118.585 187.034C118.206 187.514 117.897 188.053 117.897 188.232C117.897 188.411 117.643 188.778 117.332 189.047C117.022 189.316 116.715 189.68 116.65 189.857C116.565 190.09 116.457 190.108 116.257 189.922C116.05 189.73 116.13 189.407 116.58 188.623C116.91 188.049 117.181 187.394 117.182 187.166C117.184 186.939 117.325 186.753 117.496 186.753C117.916 186.753 118.656 185.719 119.41 184.078C119.752 183.332 120.033 182.669 120.033 182.604C120.033 182.54 120.575 181.305 121.238 179.86C121.901 178.415 122.393 177.041 122.331 176.806C122.262 176.542 122.414 176.251 122.73 176.045C123.01 175.862 123.708 174.82 124.279 173.73C124.85 172.641 125.45 171.59 125.611 171.395C125.772 171.2 126.306 170.137 126.798 169.032C128.61 164.96 131.989 158.852 133.201 157.454C133.483 157.13 134.059 156.314 134.48 155.641C134.902 154.969 135.398 154.294 135.583 154.141C136.908 153.047 141.446 145.062 142.07 142.728C142.203 142.23 142.568 141.486 142.88 141.074C144.325 139.166 145.732 136.47 146.487 134.161C146.661 133.63 147.116 132.567 147.498 131.798C147.88 131.03 148.333 130.029 148.506 129.574C148.679 129.119 149.338 127.656 149.97 126.323C150.603 124.99 151.121 123.85 151.121 123.789C151.121 123.728 151.446 122.971 151.844 122.106C152.656 120.342 152.666 119.803 151.889 119.693C151.213 119.597 150.91 120.272 151.452 120.666C151.802 120.921 151.657 121.326 150.034 124.612C149.04 126.626 147.991 128.593 147.702 128.983C147.098 129.8 146.045 131.797 145.79 132.609C145.695 132.913 145.303 133.625 144.92 134.19C144.537 134.755 144.022 135.826 143.775 136.57C143.529 137.313 143.164 138.013 142.965 138.124C142.625 138.313 141.986 139.536 140.652 142.551C140.341 143.256 139.74 144.266 139.317 144.796C138.894 145.325 138.547 145.835 138.545 145.928C138.544 146.021 138.223 146.6 137.831 147.214C137.44 147.829 137.119 148.46 137.119 148.616C137.119 149.276 134.033 153.89 132.986 154.795C132.649 155.086 132.373 155.469 132.373 155.644C132.373 155.82 132.147 156.166 131.871 156.414C131.595 156.661 131.273 157.076 131.154 157.336C131.036 157.596 130.648 158.26 130.292 158.81C129.16 160.56 127.627 163.106 127.627 163.236C127.627 163.305 127.783 163.361 127.975 163.361C128.261 163.361 128.244 163.497 127.88 164.129C127.637 164.552 127.365 165.142 127.275 165.441C127.186 165.741 126.731 166.644 126.266 167.45C125.8 168.255 125.207 169.339 124.947 169.859C124.688 170.379 124.17 171.174 123.797 171.626C123.423 172.078 123.118 172.545 123.118 172.665C123.118 172.784 122.744 173.442 122.287 174.128C121.83 174.813 121.457 175.558 121.457 175.784C121.457 176.009 121.209 176.523 120.906 176.925C120.292 177.739 119.321 179.671 119.321 180.075C119.321 180.219 119.069 180.638 118.761 181.005C118.184 181.694 116.473 185.07 116.473 185.52C116.473 185.659 116.646 185.807 116.856 185.849C117.159 185.91 117.035 186.198 116.263 187.219C115.665 188.01 115.286 188.767 115.286 189.168C115.286 189.529 115.26 189.824 115.227 189.824C115.194 189.824 114.099 189.618 112.794 189.365C109.264 188.682 107.115 188.062 106.316 187.495C105.923 187.217 105.245 186.988 104.808 186.987C101.906 186.98 96.6663 185.948 94.4028 184.937C92.9347 184.282 89.6976 183.247 89.5562 183.387C89.2832 183.659 89.4337 183.879 90.2006 184.33C91.1344 184.878 92.0111 185.107 93.4681 185.183C94.1079 185.216 94.8358 185.441 95.248 185.733C95.6315 186.004 96.7463 186.46 97.7252 186.745C98.7041 187.03 99.9386 187.407 100.468 187.581C100.998 187.755 102.424 188.008 103.637 188.143C104.849 188.278 105.964 188.485 106.114 188.602C106.264 188.72 106.975 189.004 107.692 189.232C108.41 189.461 109.544 189.892 110.211 190.191C111.281 190.669 113.617 191.242 114.499 191.242C114.671 191.242 114.812 191.086 114.812 190.895C114.812 190.41 116.098 191.3 117.28 192.603C117.78 193.154 118.319 193.605 118.478 193.605C118.637 193.605 119.185 193.973 119.697 194.422C120.208 194.871 120.747 195.244 120.895 195.249C121.043 195.254 121.433 194.701 121.762 194.018V194.018ZM123.83 186.362C123.83 186.218 124.522 184.701 125.86 181.909C126.171 181.259 126.712 179.983 127.061 179.074C128.11 176.337 131.825 168.633 132.209 168.396C132.735 168.073 132.466 168.773 130.735 172.242C129.702 174.31 128.572 176.746 128.223 177.656C127.874 178.566 127.322 180.001 126.996 180.846C126.671 181.691 126.164 182.807 125.87 183.327C125.576 183.847 125.148 184.777 124.919 185.394C124.69 186.011 124.351 186.517 124.166 186.517C123.981 186.517 123.83 186.447 123.83 186.362V186.362ZM118.592 194.609C118.583 194.512 117.886 193.93 117.045 193.316C115.777 192.392 115.393 192.225 114.808 192.342C114.388 192.425 113.955 192.362 113.742 192.186C113.545 192.022 112.897 191.799 112.303 191.688C111.155 191.474 107.18 190.051 105.794 189.357C105.337 189.128 104.077 188.867 102.993 188.775C101.909 188.683 100.645 188.451 100.183 188.259C99.7221 188.067 98.74 187.802 98.001 187.668C97.262 187.535 96.0166 187.104 95.2334 186.709C93.9555 186.065 93.604 185.995 91.8041 186.026C90.7011 186.045 89.7471 186.111 89.6841 186.174C89.4133 186.444 90.1494 186.782 91.4668 186.993C92.2463 187.118 93.7491 187.594 94.8064 188.05C95.8637 188.506 96.9262 188.881 97.1677 188.882C97.4091 188.884 98.2835 189.097 99.1109 189.355C99.99 189.629 101.282 189.824 102.219 189.824C103.522 189.824 103.902 189.913 104.252 190.298C104.764 190.861 105.741 191.142 108.237 191.446C109.703 191.625 110.208 191.792 110.672 192.254C110.993 192.574 111.763 192.962 112.381 193.116C114.883 193.74 116.402 194.149 117.304 194.441C118.459 194.816 118.614 194.836 118.592 194.609V194.609ZM103.658 190.533C103.658 190.403 103.471 190.299 103.243 190.301C102.888 190.304 102.879 190.337 103.183 190.533C103.631 190.821 103.658 190.821 103.658 190.533ZM113.955 188.449C114.187 188.075 113.171 186.753 112.65 186.753C112.237 186.753 112.195 186.69 112.426 186.414C112.582 186.227 113.017 186.007 113.394 185.925C113.814 185.833 114.138 185.576 114.233 185.26C114.317 184.976 114.893 184 115.511 183.091C116.13 182.181 116.86 180.958 117.134 180.373C119.503 175.318 120.091 174.254 121.105 173.189C122.925 171.278 123.585 169.92 124.329 166.551C124.549 165.555 124.862 164.907 125.381 164.372C125.787 163.953 126.403 163.033 126.751 162.327C127.098 161.621 127.659 160.716 127.998 160.314C128.337 159.913 128.918 158.973 129.289 158.224C129.659 157.476 130.638 156.048 131.464 155.051C133.823 152.204 135.039 150.287 136.609 146.94C137.036 146.03 137.631 145.02 137.933 144.696C138.577 144 139.607 142.227 139.854 141.388C139.949 141.063 140.468 140.056 141.006 139.151C141.544 138.245 142.377 136.756 142.856 135.843C144.925 131.902 145.409 131.021 146.368 129.456C146.926 128.546 147.521 127.642 147.69 127.447C147.858 127.252 148.489 126.154 149.091 125.007C149.692 123.86 150.352 122.667 150.556 122.357C151.254 121.297 150.756 121.143 149.828 122.131C148.862 123.16 146.612 126.426 146.612 126.799C146.612 126.927 146.211 127.68 145.722 128.473C145.232 129.266 144.67 130.29 144.473 130.749C144.276 131.207 143.622 132.326 143.02 133.236C142.418 134.146 141.725 135.262 141.48 135.718C141.076 136.469 138.427 139.911 138.019 140.215C137.926 140.284 137.674 140.763 137.46 141.278C136.603 143.336 135.91 144.643 135.458 145.05C135.197 145.285 134.983 145.622 134.983 145.798C134.983 145.974 134.61 146.647 134.153 147.295C133.696 147.942 133.322 148.522 133.322 148.584C133.322 148.844 130.921 152.718 130.023 153.909C129.488 154.617 129.051 155.371 129.051 155.584C129.051 155.798 128.718 156.385 128.312 156.89C127.906 157.396 127.218 158.341 126.782 158.99C126.346 159.64 125.66 160.632 125.259 161.194C124.857 161.756 124.344 162.573 124.12 163.01C123.895 163.446 123.044 164.77 122.228 165.952C121.412 167.133 120.745 168.182 120.745 168.283C120.745 168.518 117.605 173.337 115.956 175.635C115.261 176.602 114.452 177.878 114.158 178.47C113.251 180.295 111.83 182.502 111.351 182.828C111.101 182.999 110.255 183.21 109.472 183.297C108.689 183.384 107.781 183.647 107.455 183.882C106.489 184.577 105.751 184.669 105.207 184.16C104.853 183.83 104.224 183.673 102.827 183.567L100.929 183.424L101.76 183.876C102.216 184.125 103.124 184.405 103.777 184.498C104.429 184.591 105.284 184.806 105.675 184.975C107.399 185.721 108.429 186.023 109.765 186.174C111.554 186.375 111.934 186.574 111.506 187.087C111.3 187.335 110.991 187.41 110.572 187.313C109.216 187.002 107.528 186.458 106.624 186.04C106.102 185.799 104.935 185.475 104.031 185.319C103.127 185.163 101.816 184.784 101.117 184.477C100.419 184.169 99.6023 183.917 99.3026 183.917C99.0029 183.917 97.7123 183.55 96.4345 183.102C94.7465 182.509 93.4057 182.22 91.5305 182.046C90.1111 181.914 88.6335 181.643 88.247 181.444C87.8605 181.245 87.265 181.082 86.9237 181.082C86.5823 181.082 86.0784 180.962 85.8039 180.816C85.5295 180.67 84.2099 180.255 82.8715 179.895C81.5331 179.534 79.7624 178.913 78.9365 178.513C78.1106 178.114 77.0078 177.689 76.4857 177.57C73.9694 176.994 72.6276 176.545 71.9767 176.06C71.3826 175.617 70.9898 175.535 69.6028 175.565C67.9872 175.599 65.6755 176.163 64.9969 176.688C64.6548 176.953 63.5521 179.242 63.5521 179.688C63.5521 179.823 64.169 179.289 64.923 178.5C65.8106 177.571 66.4828 177.065 66.8298 177.065C67.1246 177.065 67.6289 176.894 67.9505 176.684C68.4887 176.333 68.5995 176.333 69.3426 176.684C69.7866 176.894 70.3453 177.065 70.5841 177.065C70.8229 177.065 71.5543 177.271 72.2094 177.522C72.8646 177.773 74.3083 178.311 75.4178 178.717C76.5272 179.122 77.7553 179.624 78.1469 179.831C78.5384 180.039 79.1774 180.372 79.5668 180.572C79.9562 180.772 81.0241 181.08 81.9399 181.256C82.8558 181.432 84.0856 181.671 84.673 181.788C85.2603 181.904 86.1911 182.005 86.7414 182.013C87.2917 182.021 88.0927 182.177 88.5213 182.36C88.9499 182.543 89.9948 182.873 90.8431 183.094C92.4854 183.521 96.4304 184.787 98.1999 185.454C98.8128 185.686 100.734 185.979 102.709 186.144C105.995 186.418 106.853 186.631 107.726 187.388C107.941 187.574 109.222 187.918 110.574 188.153C113.567 188.674 113.803 188.694 113.955 188.449V188.449ZM115.399 186.613C115.999 185.354 115.723 185.186 114.845 186.275C114.372 186.861 114.115 187.396 114.201 187.618C114.392 188.116 114.877 187.709 115.399 186.613V186.613ZM67.0524 185.197C66.8263 184.972 66.3729 185.337 66.5414 185.608C66.6416 185.77 66.7743 185.766 66.9448 185.596C67.0845 185.457 67.133 185.277 67.0524 185.197V185.197ZM87.5208 185.581C87.5208 185.326 85.3411 184.626 84.547 184.626C84.2641 184.626 83.3283 184.254 82.4674 183.799C80.9016 182.972 80.3192 182.837 79.5614 183.127C79.0247 183.332 81.5283 184.505 83.0118 184.744C83.5992 184.839 84.1865 184.996 84.317 185.094C85.0871 185.671 87.5208 186.041 87.5208 185.581ZM90.8431 185.105C90.8431 184.51 87.7431 183.604 87.4304 184.108C87.3479 184.241 87.6816 184.558 88.1719 184.812C89.1179 185.302 90.8431 185.491 90.8431 185.105V185.105ZM85.9782 183.681C85.4806 183.134 85.7729 183.069 86.6647 183.53C87.3417 183.88 88.5404 183.773 88.4072 183.376C88.2684 182.961 86.5002 182.468 85.6849 182.616C85.2625 182.693 84.7193 182.651 84.4778 182.522C84.2362 182.394 82.9267 182.063 81.5678 181.787C80.2089 181.511 78.9367 181.144 78.7406 180.971C78.2543 180.542 72.9943 178.6 71.3834 178.255C70.6656 178.101 69.7299 177.799 69.3043 177.583C68.6726 177.263 68.4442 177.245 68.0616 177.483C67.8038 177.643 67.4526 177.774 67.2812 177.774C66.7812 177.774 64.976 179.031 64.976 179.379C64.976 179.718 65.3643 179.649 66.8441 179.045C67.8703 178.627 68.5097 178.634 69.567 179.074C70.0356 179.269 70.8288 179.428 71.3297 179.428C71.9286 179.428 72.5159 179.631 73.0446 180.019C73.4869 180.344 74.0451 180.61 74.285 180.61C74.5249 180.61 75.5987 180.947 76.6713 181.358C77.7439 181.77 79.316 182.171 80.1649 182.248C81.1861 182.342 82.0197 182.581 82.6287 182.956C83.7407 183.64 85.0627 184.129 85.837 184.143C86.3928 184.153 86.3965 184.142 85.9782 183.681V183.681ZM53.3476 183.256C53.3476 182.616 52.8676 182.264 51.9949 182.264C50.9769 182.264 50.971 182.767 51.9831 183.269C53.0027 183.774 53.3476 183.771 53.3476 183.256H53.3476ZM117.177 182.632C117.173 182.494 117.013 182.588 116.821 182.84C116.63 183.093 116.476 183.412 116.481 183.549C116.485 183.687 116.645 183.593 116.837 183.341C117.028 183.088 117.182 182.769 117.177 182.632ZM107.024 182.854C107.587 182.382 107.989 182.264 109.024 182.264C110.163 182.264 110.407 182.174 111.048 181.521C111.448 181.113 112.186 179.935 112.688 178.903C113.189 177.87 113.899 176.641 114.265 176.171C115.482 174.607 121.549 165.287 122.453 163.592C122.767 163.004 123.712 161.547 124.554 160.354C126.436 157.687 128.891 153.879 130 151.905C130.457 151.093 131.151 149.93 131.542 149.322C133.617 146.101 134.231 145.055 135.503 142.569C136.268 141.075 137.3 139.373 137.796 138.789C139.045 137.316 142.093 132.547 143.645 129.637C145.435 126.281 147.103 123.587 148.301 122.116C150.297 119.664 151.32 118.047 151.722 116.707C152.172 115.209 151.944 114.955 150.044 114.835C147.661 114.684 146.313 114.407 144.951 113.787C144.233 113.461 142.745 113.049 141.644 112.871C140.544 112.694 139.529 112.457 139.39 112.345C138.886 111.942 136.009 110.957 134.153 110.553C133.109 110.326 131.644 109.94 130.897 109.697C130.151 109.453 129.223 109.254 128.835 109.254C128.447 109.254 127.365 108.979 126.431 108.644C125.497 108.308 124.235 107.894 123.628 107.722C122.499 107.404 119.53 106.265 117.713 105.454C117.154 105.205 116.227 105.001 115.652 105.001C115.076 105.001 114.323 104.894 113.979 104.764C112.894 104.353 110.904 104.39 109.978 104.837C109.508 105.064 108.721 105.42 108.23 105.628C106.815 106.226 106.417 106.459 104.516 107.801C103.531 108.496 102.662 109.241 102.585 109.455C102.508 109.669 101.98 110.217 101.412 110.672C100.808 111.156 100.222 111.896 99.9998 112.458C99.7905 112.985 99.4601 113.623 99.2655 113.875C98.4706 114.906 97.79 116.053 97.6513 116.594C97.5704 116.911 97.1193 117.754 96.649 118.469C96.1786 119.184 95.4832 120.372 95.1036 121.11C94.724 121.847 94.3057 122.517 94.174 122.598C94.0422 122.68 93.5518 123.538 93.0842 124.506C92.6165 125.474 92.1526 126.266 92.0531 126.266C91.7385 126.266 90.4307 128.477 90.2509 129.313C90.0618 130.192 88.9718 132.146 88.0852 133.195C87.7748 133.562 87.5208 133.959 87.5208 134.077C87.5208 134.194 86.9995 135.063 86.3625 136.008C85.2693 137.629 84.3923 139.099 83.2247 141.27C82.9451 141.789 82.5171 142.404 82.2736 142.635C82.0302 142.866 81.7625 143.326 81.6787 143.659C81.595 143.991 81.2807 144.507 80.9804 144.806C80.6801 145.105 80.316 145.788 80.1714 146.322C80.0268 146.857 79.8116 147.295 79.6932 147.295C79.5748 147.295 79.3387 147.557 79.1684 147.878C78.9981 148.2 78.5396 149.077 78.1493 149.828C77.7591 150.579 77.0383 151.708 76.5475 152.337C76.0567 152.966 75.6548 153.604 75.6545 153.754C75.6543 153.905 75.3429 154.391 74.9627 154.834C74.5825 155.277 73.992 156.207 73.6503 156.902C73.0071 158.21 72.4415 159.097 71.3241 160.549C70.9652 161.016 70.6715 161.5 70.6715 161.624C70.6715 161.903 69.4244 163.647 68.3807 164.827C67.4488 165.882 66.7143 167.27 66.2312 168.89C66.0342 169.55 65.3334 170.889 64.6738 171.865C63.3803 173.779 62.2322 176.066 62.4541 176.287C62.6801 176.512 63.3148 175.859 63.3148 175.401C63.3148 174.939 65.3685 173.016 66.5185 172.4C67.0024 172.141 67.8432 172.017 69.1432 172.014C71.0971 172.009 72.3111 172.326 73.1633 173.063C73.4243 173.289 74.0651 173.694 74.5872 173.963C77.4132 175.418 78.5277 175.829 80.3855 176.101C81.7792 176.305 82.896 176.65 84.0639 177.235C84.9862 177.698 86.5952 178.318 87.6394 178.614C89.8027 179.226 91.1253 179.662 93.7705 180.635C94.7932 181.011 95.8209 181.318 96.0542 181.318C96.2875 181.318 96.9465 181.525 97.5187 181.777C98.1508 182.055 99.1963 182.255 100.182 182.287C101.075 182.316 102.356 182.474 103.029 182.639C103.701 182.803 104.679 183.039 105.201 183.162C105.723 183.285 106.188 183.399 106.234 183.415C106.281 183.431 106.636 183.179 107.024 182.854V182.854ZM78.2655 183.013C78.2655 182.703 76.1523 181.823 74.538 181.46C73.7279 181.278 72.7503 180.906 72.3656 180.633C71.9636 180.348 71.2993 180.137 70.8034 180.137C70.3289 180.137 69.5177 179.922 69.0009 179.66C68.0988 179.202 68.0129 179.198 66.8631 179.572C66.0031 179.853 65.6859 180.07 65.7389 180.344C65.7976 180.648 66.1288 180.728 67.3522 180.736C68.1989 180.742 69.2654 180.89 69.7223 181.066C71.6013 181.789 72.3021 181.992 74.1125 182.339C75.1567 182.539 76.3848 182.806 76.8417 182.932C77.9319 183.232 78.2655 183.251 78.2655 183.013V183.013ZM117.422 182.027C117.422 181.897 117.375 181.791 117.318 181.791C117.26 181.791 117.147 181.897 117.066 182.027C116.986 182.157 117.033 182.264 117.171 182.264C117.309 182.264 117.422 182.157 117.422 182.027ZM92.9208 181.263C92.867 181.102 92.3624 180.892 91.7995 180.797C91.2365 180.701 90.1174 180.316 89.3125 179.941C88.5077 179.566 87.3382 179.183 86.7138 179.09C85.4593 178.902 83.5791 178.167 82.9844 177.631C82.7735 177.441 81.4306 177.086 80 176.842C77.3958 176.397 75.8726 175.911 75.1891 175.308C74.1252 174.369 69.9174 172.576 68.7765 172.576C67.8229 172.576 64.9438 174.312 64.1153 175.386C63.675 175.957 63.3148 176.503 63.3148 176.599C63.3148 176.695 63.1012 176.83 62.8402 176.898C62.4785 176.992 62.3655 177.22 62.3655 177.856C62.3655 179.504 63.284 179.172 63.9091 177.299C64.3214 176.063 65.413 175.175 66.5209 175.175C66.8336 175.175 67.3348 175.081 67.6346 174.966C67.9344 174.85 68.7396 174.628 69.4239 174.472L70.668 174.187L71.8852 175.077C73.2108 176.046 75.2772 176.829 76.5071 176.829C77.3259 176.829 78.5261 177.201 78.7353 177.519C79.0814 178.046 83.0911 179.428 84.2728 179.428C84.562 179.428 85.1972 179.641 85.6842 179.901C86.1713 180.161 86.7164 180.373 86.8956 180.373C87.0747 180.373 88.0095 180.634 88.9729 180.953C90.884 181.586 93.0869 181.759 92.9208 181.263V181.263ZM118.8 179.54C118.727 179.467 118.595 179.598 118.505 179.832C118.377 180.168 118.404 180.195 118.638 179.964C118.8 179.804 118.873 179.613 118.8 179.54ZM49.1398 178.801C48.9792 178.736 48.6588 178.732 48.4279 178.792C48.197 178.852 48.3284 178.905 48.72 178.91C49.1116 178.914 49.3005 178.865 49.1398 178.801V178.801ZM60.2762 177.902C60.1684 176.932 59.1095 175.494 58.2547 175.158C56.8999 174.625 54.7878 173.236 54.6434 172.783C54.5658 172.539 54.4091 172.34 54.2953 172.34C54.1815 172.34 53.606 171.924 53.0164 171.416L51.9445 170.492L48.5524 170.569C46.6867 170.61 43.2915 170.726 41.0073 170.826C38.7232 170.925 36.5874 170.998 36.2611 170.986C35.9347 170.975 34.2795 170.97 32.5827 170.976C30.8859 170.981 28.7501 170.958 27.8364 170.926C25.484 170.842 21.0318 170.85 18.9372 170.942C16.9136 171.031 14.5614 170.621 13.026 169.91L11.9797 169.426L11.4585 170.029C11.1719 170.361 10.6982 170.76 10.4059 170.916C10.0442 171.109 9.91323 171.346 9.99575 171.66C10.0655 171.926 9.93868 172.294 9.69729 172.526C9.21854 172.987 8.95625 173.826 9.17857 174.184C9.36043 174.477 21.8619 174.138 24.0394 173.781C24.8225 173.652 27.4288 173.483 29.8311 173.405C32.2334 173.326 34.3692 173.174 34.5774 173.067C34.7855 172.959 36.2907 172.809 37.9222 172.733C39.5538 172.658 42.1168 172.483 43.6178 172.346C48.166 171.929 51.6321 172.71 54.0382 174.694C54.5068 175.081 55.6048 175.761 56.4783 176.206C57.3518 176.652 58.4655 177.402 58.9531 177.873C59.956 178.843 60.3818 178.853 60.2762 177.902V177.902ZM120.488 176.506C121.085 175.543 121.188 174.631 120.637 175.184C120.17 175.652 119.497 177.302 119.773 177.302C119.894 177.302 120.216 176.944 120.488 176.506ZM126.915 165.316C126.915 165.138 127.078 164.678 127.277 164.295C127.476 163.911 127.556 163.598 127.455 163.598C127.209 163.598 125.966 165.161 125.966 165.47C125.966 165.603 125.761 166.048 125.51 166.458C125.26 166.868 125.114 167.356 125.185 167.542C125.331 167.92 126.915 165.882 126.915 165.316V165.316ZM148.751 132.73C149.141 131.931 149.46 131.203 149.46 131.112C149.46 131.02 149.612 130.61 149.799 130.2C149.986 129.791 150.421 128.711 150.768 127.802C151.114 126.892 151.645 125.51 151.948 124.73C152.251 123.95 152.453 123.266 152.397 123.208C152.151 122.955 151.608 123.929 151.021 125.675C150.672 126.715 150.183 127.847 149.934 128.192C149.684 128.536 149.404 129.121 149.311 129.491C149.143 130.161 148.421 131.893 147.546 133.724C147.293 134.253 147.089 134.837 147.092 135.024C147.1 135.547 147.947 134.376 148.751 132.73ZM59.9331 173.963C59.4436 173.565 59.0431 173.09 59.0431 172.908C59.0431 172.398 59.377 172.511 59.9834 173.226C60.2865 173.583 60.6961 174.062 60.8935 174.289C61.462 174.944 60.9077 174.756 59.9331 173.963ZM60.9425 172.459C60.3084 171.787 60.4742 171.351 61.1369 171.948C61.3764 172.163 61.6974 172.34 61.8503 172.34C62.0031 172.34 62.1282 172.499 62.1282 172.694C62.1282 173.231 61.5657 173.119 60.9425 172.459ZM62.0411 170.391C61.6079 169.369 61.988 168.936 62.6104 169.741C62.8615 170.066 63.0693 170.518 63.0722 170.745C63.0811 171.443 62.3861 171.204 62.0411 170.391ZM63.252 168.655C63.174 168.577 63.1687 168.361 63.2402 168.176C63.3399 167.917 63.4466 167.902 63.6985 168.11C63.879 168.259 64.0267 168.474 64.0267 168.588C64.0267 168.823 63.4687 168.87 63.252 168.655H63.252ZM64.264 167.043C64.264 166.859 64.1992 166.54 64.12 166.334C64.0281 166.096 64.1048 165.96 64.3319 165.96C64.6935 165.96 64.976 166.435 64.976 167.043C64.976 167.227 64.8158 167.378 64.62 167.378C64.4242 167.378 64.264 167.227 64.264 167.043ZM65.6963 164.795C65.3718 164.191 65.386 164.07 65.7812 164.07C66.0921 164.07 66.3999 164.55 66.3999 165.035C66.3999 165.419 65.9494 165.265 65.6963 164.795ZM66.7361 162.776C66.6503 162.436 66.6551 162.083 66.7467 161.992C66.9496 161.79 67.6239 162.659 67.5155 162.983C67.3475 163.484 66.8836 163.362 66.7361 162.776H66.7361ZM67.9678 161.097C67.7592 160.556 67.7911 159.817 68.023 159.817C68.2299 159.817 68.773 160.852 68.773 161.246C68.773 161.619 68.1226 161.499 67.9678 161.097ZM69.0103 158.754C69.0103 157.78 69.2977 157.684 69.6842 158.529C70.0699 159.372 70.0303 159.581 69.4849 159.581C69.1007 159.581 69.0103 159.423 69.0103 158.754ZM70.4425 156.761C70.1181 156.158 70.1323 156.037 70.5275 156.037C70.8384 156.037 71.1461 156.517 71.1461 157.001C71.1461 157.386 70.6957 157.232 70.4425 156.761ZM72.6519 152.128C72.5746 151.928 72.5627 151.712 72.6254 151.65C72.8368 151.439 73.5193 151.832 73.5193 152.164C73.5193 152.611 72.827 152.582 72.6519 152.128ZM74.157 150.45C73.9193 150.213 73.9571 149.185 74.2035 149.185C74.3892 149.185 74.4778 149.379 74.6859 150.242C74.7542 150.525 74.3804 150.672 74.157 150.45ZM75.9837 148.291C75.5915 148.04 75.3609 147.121 75.6459 146.946C75.7819 146.862 76.0034 147.082 76.1379 147.434C76.4229 148.181 76.3597 148.532 75.9837 148.291ZM77.3756 145.88C76.7663 145.386 76.6771 144.932 77.1893 144.932C77.5546 144.932 78.1122 145.757 77.9843 146.108C77.9432 146.221 77.6693 146.119 77.3756 145.88ZM78.9778 142.924C78.8179 142.732 78.7537 142.402 78.8351 142.191C78.955 141.88 79.0501 141.862 79.3363 142.099C79.7297 142.424 79.801 142.945 79.479 143.143C79.3633 143.214 79.1377 143.116 78.9778 142.924ZM80.2459 140.314C80.1686 140.114 80.1567 139.899 80.2194 139.836C80.4308 139.626 81.1133 140.018 81.1133 140.35C81.1133 140.797 80.421 140.768 80.2459 140.314ZM81.6698 137.715C81.5925 137.515 81.5867 137.293 81.6569 137.223C81.8656 137.016 82.8 137.611 82.6485 137.855C82.431 138.206 81.8254 138.119 81.6698 137.715H81.6698ZM83.0118 135.008C83.0118 134.746 83.17 134.536 83.3678 134.536C83.5655 134.536 83.7237 134.746 83.7237 135.008C83.7237 135.271 83.5655 135.481 83.3678 135.481C83.17 135.481 83.0118 135.271 83.0118 135.008ZM84.5243 132.535C84.4433 132.324 84.4488 132.081 84.5364 131.994C84.7372 131.794 85.5198 132.269 85.4568 132.553C85.3715 132.937 84.6741 132.923 84.5243 132.535V132.535ZM86.8681 130.126C86.4241 129.948 86.4781 128.156 86.9275 128.156C87.1912 128.156 87.2834 128.432 87.2834 129.219C87.2834 129.804 87.2567 130.274 87.2241 130.264C87.1915 130.254 87.0313 130.192 86.8681 130.126ZM88.6717 126.975C88.6522 126.455 88.6254 125.923 88.6124 125.793C88.5993 125.663 88.6878 125.531 88.8089 125.498C89.1115 125.417 89.4539 126.737 89.2992 127.388C89.0945 128.25 88.7102 127.997 88.6717 126.975V126.975ZM90.5168 124.346C90.2921 123.228 90.338 122.672 90.6467 122.775C90.9793 122.885 91.2094 125.085 90.8883 125.085C90.7656 125.085 90.5984 124.752 90.5168 124.346ZM92.3784 121.016C92.1715 120.479 92.3229 119.828 92.6823 119.709C93.0329 119.593 93.0809 120.541 92.7508 121.061C92.5605 121.361 92.5089 121.355 92.3784 121.016ZM93.7352 117.719C93.8171 116.894 94.4028 116.481 94.4028 117.248C94.4028 117.896 94.1613 118.469 93.8878 118.469C93.763 118.469 93.6943 118.131 93.7352 117.719ZM95.1148 114.452C95.1148 114.322 95.2216 114.216 95.3521 114.216C95.4826 114.216 95.5894 114.322 95.5894 114.452C95.5894 114.582 95.4826 114.688 95.3521 114.688C95.2216 114.688 95.1148 114.582 95.1148 114.452Z" fill="black"/>
<path d="M102.035 33.532C122.4 55.6348 128.1 80.4688 122.055 90.6644C109.268 116.745 87.4021 109.421 82.1225 104.929C66.9038 92.1698 73.7005 74.0005 80.0683 67.586C81.9433 65.6973 108.313 50.0532 102.035 33.532Z" fill="#FFCE2B"/>
<path d="M81.1311 7.04253C67.2349 18.6087 61.867 32.9661 64.6635 39.5253C70.2211 56.0916 83.841 53.4576 87.3456 51.1973C97.4325 44.7952 94.8198 33.4215 91.531 29.0915C90.5626 27.8165 76.0777 16.397 81.1311 7.04253Z" fill="#F7A162"/>
<path d="M56.3967 47.799C12.0594 92.768 38.4672 136.742 57.2132 153.107C75.6367 163.558 90.192 156.515 95.1667 151.688C109.519 137.961 99.5599 122.56 92.7864 116.576C51.2321 102.105 51.2123 64.6953 56.3967 47.799Z" fill="#FF6A73"/>
</svg>
