<svg width="177" height="173" viewBox="0 0 177 173" fill="none" xmlns="http://www.w3.org/2000/svg">
<mask id="mask0" mask-type="alpha" maskUnits="userSpaceOnUse" x="0" y="0" width="177" height="173">
<path fill-rule="evenodd" clip-rule="evenodd" d="M88.5 173C39.6228 173 0 134.273 0 86.5C0 38.7271 39.6228 0 88.5 0C137.377 0 177 38.7271 177 86.5C177 134.273 137.377 173 88.5 173Z" fill="white"/>
</mask>
<g mask="url(#mask0)">
<path fill-rule="evenodd" clip-rule="evenodd" d="M-3.98633 176.896H180.987V-3.89648H-3.98633V176.896Z" fill="#89BFFE"/>
</g>
<mask id="mask1" mask-type="alpha" maskUnits="userSpaceOnUse" x="61" y="91" width="56" height="2">
<path fill-rule="evenodd" clip-rule="evenodd" d="M61.4458 91.2031H116.965V92.2208H61.4458V91.2031Z" fill="white"/>
</mask>
<g mask="url(#mask1)">
<path fill-rule="evenodd" clip-rule="evenodd" d="M57.5063 97.3091H120.905V86.115H57.5063V97.3091Z" fill="white"/>
</g>
<path d="M60.1772 57.4V77H55.6412V61.04H51.7212V57.4H60.1772Z" fill="white"/>
<path d="M66.186 71.792C66.97 71.792 67.614 72.044 68.118 72.548C68.622 73.0333 68.874 73.6773 68.874 74.48C68.874 74.8533 68.8274 75.2266 68.734 75.6C68.6407 75.9733 68.4354 76.5333 68.118 77.28L66.522 81.312H63.75L64.982 76.86C64.5154 76.6733 64.142 76.3746 63.862 75.964C63.6007 75.5346 63.47 75.04 63.47 74.48C63.47 73.6773 63.722 73.0333 64.226 72.548C64.7487 72.044 65.402 71.792 66.186 71.792Z" fill="white"/>
<path d="M78.9547 77.336C77.3307 77.336 75.884 76.9346 74.6147 76.132C73.3454 75.3293 72.3467 74.172 71.6187 72.66C70.9094 71.1293 70.5547 69.3093 70.5547 67.2C70.5547 65.0906 70.9094 63.28 71.6187 61.768C72.3467 60.2373 73.3454 59.0706 74.6147 58.268C75.884 57.4653 77.3307 57.064 78.9547 57.064C80.5787 57.064 82.0254 57.4653 83.2947 58.268C84.564 59.0706 85.5534 60.2373 86.2627 61.768C86.9907 63.28 87.3547 65.0906 87.3547 67.2C87.3547 69.3093 86.9907 71.1293 86.2627 72.66C85.5534 74.172 84.564 75.3293 83.2947 76.132C82.0254 76.9346 80.5787 77.336 78.9547 77.336ZM78.9547 73.5C80.1494 73.5 81.0827 72.9866 81.7547 71.96C82.4454 70.9333 82.7907 69.3466 82.7907 67.2C82.7907 65.0533 82.4454 63.4666 81.7547 62.44C81.0827 61.4133 80.1494 60.9 78.9547 60.9C77.7787 60.9 76.8454 61.4133 76.1547 62.44C75.4827 63.4666 75.1467 65.0533 75.1467 67.2C75.1467 69.3466 75.4827 70.9333 76.1547 71.96C76.8454 72.9866 77.7787 73.5 78.9547 73.5Z" fill="white"/>
<path d="M97.9586 77.336C96.3346 77.336 94.8879 76.9346 93.6186 76.132C92.3493 75.3293 91.3506 74.172 90.6226 72.66C89.9133 71.1293 89.5586 69.3093 89.5586 67.2C89.5586 65.0906 89.9133 63.28 90.6226 61.768C91.3506 60.2373 92.3493 59.0706 93.6186 58.268C94.8879 57.4653 96.3346 57.064 97.9586 57.064C99.5826 57.064 101.029 57.4653 102.299 58.268C103.568 59.0706 104.557 60.2373 105.267 61.768C105.995 63.28 106.359 65.0906 106.359 67.2C106.359 69.3093 105.995 71.1293 105.267 72.66C104.557 74.172 103.568 75.3293 102.299 76.132C101.029 76.9346 99.5826 77.336 97.9586 77.336ZM97.9586 73.5C99.1533 73.5 100.087 72.9866 100.759 71.96C101.449 70.9333 101.795 69.3466 101.795 67.2C101.795 65.0533 101.449 63.4666 100.759 62.44C100.087 61.4133 99.1533 60.9 97.9586 60.9C96.7826 60.9 95.8493 61.4133 95.1586 62.44C94.4866 63.4666 94.1506 65.0533 94.1506 67.2C94.1506 69.3466 94.4866 70.9333 95.1586 71.96C95.8493 72.9866 96.7826 73.5 97.9586 73.5Z" fill="white"/>
<path d="M116.963 77.336C115.339 77.336 113.892 76.9346 112.623 76.132C111.353 75.3293 110.355 74.172 109.627 72.66C108.917 71.1293 108.563 69.3093 108.563 67.2C108.563 65.0906 108.917 63.28 109.627 61.768C110.355 60.2373 111.353 59.0706 112.623 58.268C113.892 57.4653 115.339 57.064 116.963 57.064C118.587 57.064 120.033 57.4653 121.303 58.268C122.572 59.0706 123.561 60.2373 124.271 61.768C124.999 63.28 125.363 65.0906 125.363 67.2C125.363 69.3093 124.999 71.1293 124.271 72.66C123.561 74.172 122.572 75.3293 121.303 76.132C120.033 76.9346 118.587 77.336 116.963 77.336ZM116.963 73.5C118.157 73.5 119.091 72.9866 119.763 71.96C120.453 70.9333 120.799 69.3466 120.799 67.2C120.799 65.0533 120.453 63.4666 119.763 62.44C119.091 61.4133 118.157 60.9 116.963 60.9C115.787 60.9 114.853 61.4133 114.163 62.44C113.491 63.4666 113.155 65.0533 113.155 67.2C113.155 69.3466 113.491 70.9333 114.163 71.96C114.853 72.9866 115.787 73.5 116.963 73.5Z" fill="white"/>
<path d="M40.1738 102.9H44.1518C45.1225 102.9 45.9848 103.091 46.7388 103.472C47.4928 103.845 48.0778 104.378 48.4938 105.071C48.9098 105.756 49.1178 106.549 49.1178 107.45C49.1178 108.351 48.9098 109.149 48.4938 109.842C48.0778 110.527 47.4928 111.06 46.7388 111.441C45.9848 111.814 45.1225 112 44.1518 112H40.1738V102.9ZM44.0738 110.57C44.7412 110.57 45.3262 110.444 45.8288 110.193C46.3402 109.933 46.7302 109.569 46.9988 109.101C47.2762 108.624 47.4148 108.074 47.4148 107.45C47.4148 106.826 47.2762 106.28 46.9988 105.812C46.7302 105.335 46.3402 104.971 45.8288 104.72C45.3262 104.46 44.7412 104.33 44.0738 104.33H41.8638V110.57H44.0738Z" fill="white"/>
<path d="M50.7581 105.058H52.3831V112H50.7581V105.058ZM51.5771 103.914C51.2824 103.914 51.0354 103.823 50.8361 103.641C50.6367 103.45 50.5371 103.216 50.5371 102.939C50.5371 102.662 50.6367 102.432 50.8361 102.25C51.0354 102.059 51.2824 101.964 51.5771 101.964C51.8717 101.964 52.1187 102.055 52.3181 102.237C52.5174 102.41 52.6171 102.631 52.6171 102.9C52.6171 103.186 52.5174 103.429 52.3181 103.628C52.1274 103.819 51.8804 103.914 51.5771 103.914Z" fill="white"/>
<path d="M61.4059 105.058V110.947C61.4059 113.391 60.1579 114.613 57.6619 114.613C56.9945 114.613 56.3619 114.526 55.7639 114.353C55.1659 114.188 54.6719 113.946 54.2819 113.625L55.0099 112.403C55.3132 112.654 55.6945 112.854 56.1539 113.001C56.6219 113.157 57.0942 113.235 57.5709 113.235C58.3335 113.235 58.8925 113.062 59.2479 112.715C59.6032 112.368 59.7809 111.84 59.7809 111.129V110.765C59.5035 111.068 59.1655 111.298 58.7669 111.454C58.3682 111.61 57.9305 111.688 57.4539 111.688C56.7952 111.688 56.1972 111.549 55.6599 111.272C55.1312 110.986 54.7109 110.587 54.3989 110.076C54.0955 109.565 53.9439 108.98 53.9439 108.321C53.9439 107.662 54.0955 107.082 54.3989 106.579C54.7109 106.068 55.1312 105.673 55.6599 105.396C56.1972 105.119 56.7952 104.98 57.4539 104.98C57.9565 104.98 58.4115 105.062 58.8189 105.227C59.2349 105.392 59.5815 105.643 59.8589 105.981V105.058H61.4059ZM57.7009 110.31C58.3162 110.31 58.8189 110.128 59.2089 109.764C59.6075 109.391 59.8069 108.91 59.8069 108.321C59.8069 107.74 59.6075 107.268 59.2089 106.904C58.8189 106.54 58.3162 106.358 57.7009 106.358C57.0769 106.358 56.5655 106.54 56.1669 106.904C55.7769 107.268 55.5819 107.74 55.5819 108.321C55.5819 108.91 55.7769 109.391 56.1669 109.764C56.5655 110.128 57.0769 110.31 57.7009 110.31Z" fill="white"/>
<path d="M63.5422 105.058H65.1672V112H63.5422V105.058ZM64.3612 103.914C64.0666 103.914 63.8196 103.823 63.6202 103.641C63.4209 103.45 63.3212 103.216 63.3212 102.939C63.3212 102.662 63.4209 102.432 63.6202 102.25C63.8196 102.059 64.0666 101.964 64.3612 101.964C64.6559 101.964 64.9029 102.055 65.1022 102.237C65.3016 102.41 65.4012 102.631 65.4012 102.9C65.4012 103.186 65.3016 103.429 65.1022 103.628C64.9116 103.819 64.6646 103.914 64.3612 103.914Z" fill="white"/>
<path d="M71.4731 111.623C71.2824 111.779 71.0484 111.896 70.7711 111.974C70.5024 112.052 70.2164 112.091 69.9131 112.091C69.1504 112.091 68.5611 111.892 68.1451 111.493C67.7291 111.094 67.5211 110.514 67.5211 109.751V106.41H66.3771V105.11H67.5211V103.524H69.1461V105.11H71.0051V106.41H69.1461V109.712C69.1461 110.05 69.2284 110.31 69.3931 110.492C69.5577 110.665 69.7961 110.752 70.1081 110.752C70.4721 110.752 70.7754 110.657 71.0181 110.466L71.4731 111.623Z" fill="white"/>
<path d="M75.4618 104.98C76.4845 104.98 77.2645 105.227 77.8018 105.721C78.3478 106.206 78.6208 106.943 78.6208 107.931V112H77.0868V111.155C76.8875 111.458 76.6015 111.692 76.2288 111.857C75.8648 112.013 75.4228 112.091 74.9028 112.091C74.3828 112.091 73.9278 112.004 73.5378 111.831C73.1478 111.649 72.8445 111.402 72.6278 111.09C72.4198 110.769 72.3158 110.41 72.3158 110.011C72.3158 109.387 72.5455 108.889 73.0048 108.516C73.4728 108.135 74.2052 107.944 75.2018 107.944H76.9958V107.84C76.9958 107.355 76.8485 106.982 76.5538 106.722C76.2678 106.462 75.8388 106.332 75.2668 106.332C74.8768 106.332 74.4912 106.393 74.1098 106.514C73.7372 106.635 73.4208 106.804 73.1608 107.021L72.5238 105.838C72.8878 105.561 73.3255 105.348 73.8368 105.201C74.3482 105.054 74.8898 104.98 75.4618 104.98ZM75.2408 110.908C75.6482 110.908 76.0078 110.817 76.3198 110.635C76.6405 110.444 76.8658 110.176 76.9958 109.829V109.023H75.3188C74.3828 109.023 73.9148 109.331 73.9148 109.946C73.9148 110.241 74.0318 110.475 74.2658 110.648C74.4998 110.821 74.8248 110.908 75.2408 110.908Z" fill="white"/>
<path d="M80.7063 102.354H82.3313V112H80.7063V102.354Z" fill="white"/>
<path d="M88.2129 102.9H89.9029V110.57H94.6609V112H88.2129V102.9Z" fill="white"/>
<path d="M102.302 108.568C102.302 108.681 102.293 108.841 102.276 109.049H96.8286C96.924 109.56 97.171 109.968 97.5696 110.271C97.977 110.566 98.4796 110.713 99.0776 110.713C99.8403 110.713 100.469 110.462 100.963 109.959L101.834 110.96C101.522 111.333 101.127 111.614 100.651 111.805C100.174 111.996 99.6366 112.091 99.0386 112.091C98.276 112.091 97.6043 111.939 97.0236 111.636C96.443 111.333 95.9923 110.912 95.6716 110.375C95.3596 109.829 95.2036 109.214 95.2036 108.529C95.2036 107.853 95.3553 107.246 95.6586 106.709C95.9706 106.163 96.3996 105.738 96.9456 105.435C97.4916 105.132 98.107 104.98 98.7916 104.98C99.4676 104.98 100.07 105.132 100.599 105.435C101.136 105.73 101.552 106.15 101.847 106.696C102.15 107.233 102.302 107.857 102.302 108.568ZM98.7916 106.28C98.2716 106.28 97.8296 106.436 97.4656 106.748C97.1103 107.051 96.8936 107.459 96.8156 107.97H100.755C100.685 107.467 100.473 107.06 100.118 106.748C99.7623 106.436 99.3203 106.28 98.7916 106.28Z" fill="white"/>
<path d="M106.008 112.091C105.444 112.091 104.894 112.017 104.357 111.87C103.819 111.723 103.39 111.536 103.07 111.311L103.694 110.076C104.006 110.284 104.378 110.453 104.812 110.583C105.254 110.704 105.687 110.765 106.112 110.765C107.082 110.765 107.568 110.509 107.568 109.998C107.568 109.755 107.442 109.586 107.191 109.491C106.948 109.396 106.554 109.305 106.008 109.218C105.436 109.131 104.968 109.032 104.604 108.919C104.248 108.806 103.936 108.611 103.668 108.334C103.408 108.048 103.278 107.654 103.278 107.151C103.278 106.492 103.551 105.968 104.097 105.578C104.651 105.179 105.397 104.98 106.333 104.98C106.809 104.98 107.286 105.036 107.763 105.149C108.239 105.253 108.629 105.396 108.933 105.578L108.309 106.813C107.719 106.466 107.056 106.293 106.32 106.293C105.843 106.293 105.479 106.367 105.228 106.514C104.985 106.653 104.864 106.839 104.864 107.073C104.864 107.333 104.994 107.519 105.254 107.632C105.522 107.736 105.934 107.836 106.489 107.931C107.043 108.018 107.498 108.117 107.854 108.23C108.209 108.343 108.512 108.533 108.764 108.802C109.024 109.071 109.154 109.452 109.154 109.946C109.154 110.596 108.872 111.116 108.309 111.506C107.745 111.896 106.978 112.091 106.008 112.091Z" fill="white"/>
<path d="M112.698 112.091C112.135 112.091 111.584 112.017 111.047 111.87C110.51 111.723 110.081 111.536 109.76 111.311L110.384 110.076C110.696 110.284 111.069 110.453 111.502 110.583C111.944 110.704 112.377 110.765 112.802 110.765C113.773 110.765 114.258 110.509 114.258 109.998C114.258 109.755 114.132 109.586 113.881 109.491C113.638 109.396 113.244 109.305 112.698 109.218C112.126 109.131 111.658 109.032 111.294 108.919C110.939 108.806 110.627 108.611 110.358 108.334C110.098 108.048 109.968 107.654 109.968 107.151C109.968 106.492 110.241 105.968 110.787 105.578C111.342 105.179 112.087 104.98 113.023 104.98C113.5 104.98 113.976 105.036 114.453 105.149C114.93 105.253 115.32 105.396 115.623 105.578L114.999 106.813C114.41 106.466 113.747 106.293 113.01 106.293C112.533 106.293 112.169 106.367 111.918 106.514C111.675 106.653 111.554 106.839 111.554 107.073C111.554 107.333 111.684 107.519 111.944 107.632C112.213 107.736 112.624 107.836 113.179 107.931C113.734 108.018 114.189 108.117 114.544 108.23C114.899 108.343 115.203 108.533 115.454 108.802C115.714 109.071 115.844 109.452 115.844 109.946C115.844 110.596 115.562 111.116 114.999 111.506C114.436 111.896 113.669 112.091 112.698 112.091Z" fill="white"/>
<path d="M120.363 112.091C119.661 112.091 119.029 111.939 118.465 111.636C117.902 111.333 117.46 110.912 117.139 110.375C116.827 109.829 116.671 109.214 116.671 108.529C116.671 107.844 116.827 107.233 117.139 106.696C117.46 106.159 117.902 105.738 118.465 105.435C119.029 105.132 119.661 104.98 120.363 104.98C121.074 104.98 121.711 105.132 122.274 105.435C122.838 105.738 123.275 106.159 123.587 106.696C123.908 107.233 124.068 107.844 124.068 108.529C124.068 109.214 123.908 109.829 123.587 110.375C123.275 110.912 122.838 111.333 122.274 111.636C121.711 111.939 121.074 112.091 120.363 112.091ZM120.363 110.7C120.961 110.7 121.455 110.501 121.845 110.102C122.235 109.703 122.43 109.179 122.43 108.529C122.43 107.879 122.235 107.355 121.845 106.956C121.455 106.557 120.961 106.358 120.363 106.358C119.765 106.358 119.271 106.557 118.881 106.956C118.5 107.355 118.309 107.879 118.309 108.529C118.309 109.179 118.5 109.703 118.881 110.102C119.271 110.501 119.765 110.7 120.363 110.7Z" fill="white"/>
<path d="M129.561 104.98C130.437 104.98 131.139 105.236 131.667 105.747C132.196 106.258 132.46 107.017 132.46 108.022V112H130.835V108.23C130.835 107.623 130.692 107.168 130.406 106.865C130.12 106.553 129.713 106.397 129.184 106.397C128.586 106.397 128.114 106.579 127.767 106.943C127.421 107.298 127.247 107.814 127.247 108.49V112H125.622V105.058H127.169V105.955C127.438 105.634 127.776 105.392 128.183 105.227C128.591 105.062 129.05 104.98 129.561 104.98Z" fill="white"/>
<path d="M49.745 118.9C50.5336 118.9 51.2183 119.03 51.799 119.29C52.3883 119.55 52.839 119.923 53.151 120.408C53.463 120.893 53.619 121.47 53.619 122.137C53.619 122.796 53.463 123.372 53.151 123.866C52.839 124.351 52.3883 124.724 51.799 124.984C51.2183 125.244 50.5336 125.374 49.745 125.374H47.691V128H46.001V118.9H49.745ZM49.667 123.944C50.4036 123.944 50.9626 123.788 51.344 123.476C51.7253 123.164 51.916 122.718 51.916 122.137C51.916 121.556 51.7253 121.11 51.344 120.798C50.9626 120.486 50.4036 120.33 49.667 120.33H47.691V123.944H49.667Z" fill="white"/>
<path d="M55.2776 118.354H56.9026V128H55.2776V118.354Z" fill="white"/>
<path d="M61.6874 120.98C62.7101 120.98 63.4901 121.227 64.0274 121.721C64.5734 122.206 64.8464 122.943 64.8464 123.931V128H63.3124V127.155C63.1131 127.458 62.8271 127.692 62.4544 127.857C62.0904 128.013 61.6484 128.091 61.1284 128.091C60.6084 128.091 60.1534 128.004 59.7634 127.831C59.3734 127.649 59.0701 127.402 58.8534 127.09C58.6454 126.769 58.5414 126.41 58.5414 126.011C58.5414 125.387 58.7711 124.889 59.2304 124.516C59.6984 124.135 60.4307 123.944 61.4274 123.944H63.2214V123.84C63.2214 123.355 63.0741 122.982 62.7794 122.722C62.4934 122.462 62.0644 122.332 61.4924 122.332C61.1024 122.332 60.7167 122.393 60.3354 122.514C59.9627 122.635 59.6464 122.804 59.3864 123.021L58.7494 121.838C59.1134 121.561 59.5511 121.348 60.0624 121.201C60.5737 121.054 61.1154 120.98 61.6874 120.98ZM61.4664 126.908C61.8737 126.908 62.2334 126.817 62.5454 126.635C62.8661 126.444 63.0914 126.176 63.2214 125.829V125.023H61.5444C60.6084 125.023 60.1404 125.331 60.1404 125.946C60.1404 126.241 60.2574 126.475 60.4914 126.648C60.7254 126.821 61.0504 126.908 61.4664 126.908Z" fill="white"/>
<path d="M70.8709 120.98C71.7462 120.98 72.4482 121.236 72.9769 121.747C73.5056 122.258 73.7699 123.017 73.7699 124.022V128H72.1449V124.23C72.1449 123.623 72.0019 123.168 71.7159 122.865C71.4299 122.553 71.0226 122.397 70.4939 122.397C69.8959 122.397 69.4236 122.579 69.0769 122.943C68.7302 123.298 68.5569 123.814 68.5569 124.49V128H66.9319V121.058H68.4789V121.955C68.7476 121.634 69.0856 121.392 69.4929 121.227C69.9002 121.062 70.3596 120.98 70.8709 120.98Z" fill="white"/>
<path d="M83.7921 128.13C82.8734 128.13 82.0414 127.931 81.2961 127.532C80.5594 127.125 79.9787 126.566 79.5541 125.855C79.1381 125.144 78.9301 124.343 78.9301 123.45C78.9301 122.557 79.1424 121.756 79.5671 121.045C79.9917 120.334 80.5724 119.78 81.3091 119.381C82.0544 118.974 82.8864 118.77 83.8051 118.77C84.5504 118.77 85.2307 118.9 85.8461 119.16C86.4614 119.42 86.9814 119.797 87.4061 120.291L86.3141 121.318C85.6554 120.607 84.8451 120.252 83.8831 120.252C83.2591 120.252 82.7001 120.391 82.2061 120.668C81.7121 120.937 81.3264 121.314 81.0491 121.799C80.7717 122.284 80.6331 122.835 80.6331 123.45C80.6331 124.065 80.7717 124.616 81.0491 125.101C81.3264 125.586 81.7121 125.968 82.2061 126.245C82.7001 126.514 83.2591 126.648 83.8831 126.648C84.8451 126.648 85.6554 126.288 86.3141 125.569L87.4061 126.609C86.9814 127.103 86.4571 127.48 85.8331 127.74C85.2177 128 84.5374 128.13 83.7921 128.13Z" fill="white"/>
<path d="M90.4164 122.072C90.8844 121.344 91.7077 120.98 92.8864 120.98V122.527C92.7477 122.501 92.6221 122.488 92.5094 122.488C91.8767 122.488 91.3827 122.674 91.0274 123.047C90.6721 123.411 90.4944 123.94 90.4944 124.633V128H88.8694V121.058H90.4164V122.072Z" fill="white"/>
<path d="M100.727 124.568C100.727 124.681 100.719 124.841 100.701 125.049H95.2544C95.3498 125.56 95.5968 125.968 95.9954 126.271C96.4028 126.566 96.9054 126.713 97.5034 126.713C98.2661 126.713 98.8944 126.462 99.3884 125.959L100.259 126.96C99.9474 127.333 99.5531 127.614 99.0764 127.805C98.5998 127.996 98.0624 128.091 97.4644 128.091C96.7018 128.091 96.0301 127.939 95.4494 127.636C94.8688 127.333 94.4181 126.912 94.0974 126.375C93.7854 125.829 93.6294 125.214 93.6294 124.529C93.6294 123.853 93.7811 123.246 94.0844 122.709C94.3964 122.163 94.8254 121.738 95.3714 121.435C95.9174 121.132 96.5328 120.98 97.2174 120.98C97.8934 120.98 98.4958 121.132 99.0244 121.435C99.5618 121.73 99.9778 122.15 100.272 122.696C100.576 123.233 100.727 123.857 100.727 124.568ZM97.2174 122.28C96.6974 122.28 96.2554 122.436 95.8914 122.748C95.5361 123.051 95.3194 123.459 95.2414 123.97H99.1804C99.1111 123.467 98.8988 123.06 98.5434 122.748C98.1881 122.436 97.7461 122.28 97.2174 122.28Z" fill="white"/>
<path d="M104.75 120.98C105.773 120.98 106.553 121.227 107.09 121.721C107.636 122.206 107.909 122.943 107.909 123.931V128H106.375V127.155C106.176 127.458 105.89 127.692 105.517 127.857C105.153 128.013 104.711 128.091 104.191 128.091C103.671 128.091 103.216 128.004 102.826 127.831C102.436 127.649 102.133 127.402 101.916 127.09C101.708 126.769 101.604 126.41 101.604 126.011C101.604 125.387 101.834 124.889 102.293 124.516C102.761 124.135 103.493 123.944 104.49 123.944H106.284V123.84C106.284 123.355 106.137 122.982 105.842 122.722C105.556 122.462 105.127 122.332 104.555 122.332C104.165 122.332 103.779 122.393 103.398 122.514C103.025 122.635 102.709 122.804 102.449 123.021L101.812 121.838C102.176 121.561 102.614 121.348 103.125 121.201C103.636 121.054 104.178 120.98 104.75 120.98ZM104.529 126.908C104.936 126.908 105.296 126.817 105.608 126.635C105.929 126.444 106.154 126.176 106.284 125.829V125.023H104.607C103.671 125.023 103.203 125.331 103.203 125.946C103.203 126.241 103.32 126.475 103.554 126.648C103.788 126.821 104.113 126.908 104.529 126.908Z" fill="white"/>
<path d="M114.167 127.623C113.977 127.779 113.743 127.896 113.465 127.974C113.197 128.052 112.911 128.091 112.607 128.091C111.845 128.091 111.255 127.892 110.839 127.493C110.423 127.094 110.215 126.514 110.215 125.751V122.41H109.071V121.11H110.215V119.524H111.84V121.11H113.699V122.41H111.84V125.712C111.84 126.05 111.923 126.31 112.087 126.492C112.252 126.665 112.49 126.752 112.802 126.752C113.166 126.752 113.47 126.657 113.712 126.466L114.167 127.623Z" fill="white"/>
<path d="M121.802 124.568C121.802 124.681 121.793 124.841 121.776 125.049H116.329C116.424 125.56 116.671 125.968 117.07 126.271C117.477 126.566 117.98 126.713 118.578 126.713C119.34 126.713 119.969 126.462 120.463 125.959L121.334 126.96C121.022 127.333 120.627 127.614 120.151 127.805C119.674 127.996 119.137 128.091 118.539 128.091C117.776 128.091 117.104 127.939 116.524 127.636C115.943 127.333 115.492 126.912 115.172 126.375C114.86 125.829 114.704 125.214 114.704 124.529C114.704 123.853 114.855 123.246 115.159 122.709C115.471 122.163 115.9 121.738 116.446 121.435C116.992 121.132 117.607 120.98 118.292 120.98C118.968 120.98 119.57 121.132 120.099 121.435C120.636 121.73 121.052 122.15 121.347 122.696C121.65 123.233 121.802 123.857 121.802 124.568ZM118.292 122.28C117.772 122.28 117.33 122.436 116.966 122.748C116.61 123.051 116.394 123.459 116.316 123.97H120.255C120.185 123.467 119.973 123.06 119.618 122.748C119.262 122.436 118.82 122.28 118.292 122.28Z" fill="white"/>
<path d="M130.162 118.354V128H128.602V127.103C128.333 127.432 127.999 127.679 127.601 127.844C127.211 128.009 126.777 128.091 126.301 128.091C125.633 128.091 125.031 127.944 124.494 127.649C123.965 127.354 123.549 126.938 123.246 126.401C122.942 125.855 122.791 125.231 122.791 124.529C122.791 123.827 122.942 123.207 123.246 122.67C123.549 122.133 123.965 121.717 124.494 121.422C125.031 121.127 125.633 120.98 126.301 120.98C126.76 120.98 127.18 121.058 127.562 121.214C127.943 121.37 128.268 121.604 128.537 121.916V118.354H130.162ZM126.496 126.7C126.886 126.7 127.237 126.613 127.549 126.44C127.861 126.258 128.108 126.002 128.29 125.673C128.472 125.344 128.563 124.962 128.563 124.529C128.563 124.096 128.472 123.714 128.29 123.385C128.108 123.056 127.861 122.804 127.549 122.631C127.237 122.449 126.886 122.358 126.496 122.358C126.106 122.358 125.755 122.449 125.443 122.631C125.131 122.804 124.884 123.056 124.702 123.385C124.52 123.714 124.429 124.096 124.429 124.529C124.429 124.962 124.52 125.344 124.702 125.673C124.884 126.002 125.131 126.258 125.443 126.44C125.755 126.613 126.106 126.7 126.496 126.7Z" fill="white"/>
</svg>
