<svg width="177" height="173" viewBox="0 0 177 173" fill="none" xmlns="http://www.w3.org/2000/svg">
<mask id="mask0" mask-type="alpha" maskUnits="userSpaceOnUse" x="0" y="0" width="177" height="173">
<path fill-rule="evenodd" clip-rule="evenodd" d="M88.5 173C39.6228 173 0 134.273 0 86.5C0 38.7271 39.6228 0 88.5 0C137.377 0 177 38.7271 177 86.5C177 134.273 137.377 173 88.5 173Z" fill="white"/>
</mask>
<g mask="url(#mask0)">
<path fill-rule="evenodd" clip-rule="evenodd" d="M-3.98633 176.896H180.987V-3.89648H-3.98633V176.896Z" fill="#89BFFE"/>
</g>
<mask id="mask1" mask-type="alpha" maskUnits="userSpaceOnUse" x="61" y="91" width="56" height="2">
<path fill-rule="evenodd" clip-rule="evenodd" d="M61.4458 91.2031H116.965V92.2208H61.4458V91.2031Z" fill="white"/>
</mask>
<g mask="url(#mask1)">
<path fill-rule="evenodd" clip-rule="evenodd" d="M57.5063 97.3091H120.905V86.115H57.5063V97.3091Z" fill="white"/>
</g>
<path d="M83.0032 64.7639C85.7659 64.7639 87.8005 65.3146 89.1072 66.4159C90.4325 67.5172 91.0952 68.9919 91.0952 70.8399C91.0952 72.0346 90.7965 73.1266 90.1992 74.1159C89.6019 75.0866 88.6872 75.8706 87.4552 76.4679C86.2419 77.0466 84.7392 77.3359 82.9472 77.3359C81.5659 77.3359 80.2032 77.1586 78.8592 76.8039C77.5339 76.4306 76.4045 75.9079 75.4712 75.2359L77.2632 71.7639C78.0099 72.3239 78.8685 72.7626 79.8392 73.0799C80.8099 73.3786 81.8085 73.5279 82.8352 73.5279C83.9739 73.5279 84.8699 73.3039 85.5232 72.8559C86.1765 72.4079 86.5032 71.7826 86.5032 70.9799C86.5032 70.1399 86.1579 69.5052 85.4672 69.0759C84.7952 68.6466 83.6192 68.4319 81.9392 68.4319H76.9272L77.9352 57.3999H89.8912V61.0399H81.7152L81.4072 64.7639H83.0032Z" fill="white"/>
<path d="M100.496 57.3999V76.9999H95.9595V61.0399H92.0395V57.3999H100.496Z" fill="white"/>
<path d="M32.0514 112.13C31.3494 112.13 30.669 112.03 30.0104 111.831C29.3604 111.632 28.8447 111.367 28.4634 111.038L29.0484 109.725C29.421 110.02 29.876 110.262 30.4134 110.453C30.9594 110.635 31.5054 110.726 32.0514 110.726C32.7274 110.726 33.23 110.618 33.5594 110.401C33.8974 110.184 34.0664 109.898 34.0664 109.543C34.0664 109.283 33.971 109.071 33.7804 108.906C33.5984 108.733 33.3644 108.598 33.0784 108.503C32.7924 108.408 32.4024 108.299 31.9084 108.178C31.215 108.013 30.6517 107.849 30.2184 107.684C29.7937 107.519 29.4254 107.264 29.1134 106.917C28.81 106.562 28.6584 106.085 28.6584 105.487C28.6584 104.984 28.7927 104.529 29.0614 104.122C29.3387 103.706 29.7504 103.377 30.2964 103.134C30.851 102.891 31.527 102.77 32.3244 102.77C32.879 102.77 33.425 102.839 33.9624 102.978C34.4997 103.117 34.9634 103.316 35.3534 103.576L34.8204 104.889C34.4217 104.655 34.0057 104.477 33.5724 104.356C33.139 104.235 32.7187 104.174 32.3114 104.174C31.644 104.174 31.1457 104.287 30.8164 104.512C30.4957 104.737 30.3354 105.036 30.3354 105.409C30.3354 105.669 30.4264 105.881 30.6084 106.046C30.799 106.211 31.0374 106.341 31.3234 106.436C31.6094 106.531 31.9994 106.64 32.4934 106.761C33.1694 106.917 33.724 107.082 34.1574 107.255C34.5907 107.42 34.959 107.675 35.2624 108.022C35.5744 108.369 35.7304 108.837 35.7304 109.426C35.7304 109.929 35.5917 110.384 35.3144 110.791C35.0457 111.198 34.634 111.523 34.0794 111.766C33.5247 112.009 32.8487 112.13 32.0514 112.13Z" fill="white"/>
<path d="M40.4352 112.091C39.7158 112.091 39.0702 111.939 38.4982 111.636C37.9262 111.333 37.4798 110.912 37.1592 110.375C36.8385 109.829 36.6782 109.214 36.6782 108.529C36.6782 107.844 36.8385 107.233 37.1592 106.696C37.4798 106.159 37.9218 105.738 38.4852 105.435C39.0572 105.132 39.7072 104.98 40.4352 104.98C41.1198 104.98 41.7178 105.119 42.2292 105.396C42.7492 105.673 43.1392 106.072 43.3992 106.592L42.1512 107.32C41.9518 106.999 41.7005 106.761 41.3972 106.605C41.1025 106.44 40.7775 106.358 40.4222 106.358C39.8155 106.358 39.3128 106.557 38.9142 106.956C38.5155 107.346 38.3162 107.87 38.3162 108.529C38.3162 109.188 38.5112 109.716 38.9012 110.115C39.2998 110.505 39.8068 110.7 40.4222 110.7C40.7775 110.7 41.1025 110.622 41.3972 110.466C41.7005 110.301 41.9518 110.059 42.1512 109.738L43.3992 110.466C43.1305 110.986 42.7362 111.389 42.2162 111.675C41.7048 111.952 41.1112 112.091 40.4352 112.091Z" fill="white"/>
<path d="M48.6794 104.98C49.5547 104.98 50.2567 105.236 50.7854 105.747C51.3141 106.258 51.5784 107.017 51.5784 108.022V112H49.9534V108.23C49.9534 107.623 49.8104 107.168 49.5244 106.865C49.2384 106.553 48.8311 106.397 48.3024 106.397C47.7044 106.397 47.2321 106.579 46.8854 106.943C46.5387 107.298 46.3654 107.814 46.3654 108.49V112H44.7404V102.354H46.3654V105.864C46.6341 105.578 46.9634 105.361 47.3534 105.214C47.7521 105.058 48.1941 104.98 48.6794 104.98Z" fill="white"/>
<path d="M56.8233 112.091C56.1213 112.091 55.4886 111.939 54.9253 111.636C54.362 111.333 53.92 110.912 53.5993 110.375C53.2873 109.829 53.1313 109.214 53.1313 108.529C53.1313 107.844 53.2873 107.233 53.5993 106.696C53.92 106.159 54.362 105.738 54.9253 105.435C55.4886 105.132 56.1213 104.98 56.8233 104.98C57.534 104.98 58.171 105.132 58.7343 105.435C59.2976 105.738 59.7353 106.159 60.0473 106.696C60.368 107.233 60.5283 107.844 60.5283 108.529C60.5283 109.214 60.368 109.829 60.0473 110.375C59.7353 110.912 59.2976 111.333 58.7343 111.636C58.171 111.939 57.534 112.091 56.8233 112.091ZM56.8233 110.7C57.4213 110.7 57.9153 110.501 58.3053 110.102C58.6953 109.703 58.8903 109.179 58.8903 108.529C58.8903 107.879 58.6953 107.355 58.3053 106.956C57.9153 106.557 57.4213 106.358 56.8233 106.358C56.2253 106.358 55.7313 106.557 55.3413 106.956C54.96 107.355 54.7693 107.879 54.7693 108.529C54.7693 109.179 54.96 109.703 55.3413 110.102C55.7313 110.501 56.2253 110.7 56.8233 110.7Z" fill="white"/>
<path d="M65.2022 112.091C64.5002 112.091 63.8675 111.939 63.3042 111.636C62.7409 111.333 62.2989 110.912 61.9782 110.375C61.6662 109.829 61.5102 109.214 61.5102 108.529C61.5102 107.844 61.6662 107.233 61.9782 106.696C62.2989 106.159 62.7409 105.738 63.3042 105.435C63.8675 105.132 64.5002 104.98 65.2022 104.98C65.9129 104.98 66.5499 105.132 67.1132 105.435C67.6765 105.738 68.1142 106.159 68.4262 106.696C68.7469 107.233 68.9072 107.844 68.9072 108.529C68.9072 109.214 68.7469 109.829 68.4262 110.375C68.1142 110.912 67.6765 111.333 67.1132 111.636C66.5499 111.939 65.9129 112.091 65.2022 112.091ZM65.2022 110.7C65.8002 110.7 66.2942 110.501 66.6842 110.102C67.0742 109.703 67.2692 109.179 67.2692 108.529C67.2692 107.879 67.0742 107.355 66.6842 106.956C66.2942 106.557 65.8002 106.358 65.2022 106.358C64.6042 106.358 64.1102 106.557 63.7202 106.956C63.3389 107.355 63.1482 107.879 63.1482 108.529C63.1482 109.179 63.3389 109.703 63.7202 110.102C64.1102 110.501 64.6042 110.7 65.2022 110.7Z" fill="white"/>
<path d="M70.4611 102.354H72.0861V112H70.4611V102.354Z" fill="white"/>
<path d="M76.3639 112.091C75.8006 112.091 75.2502 112.017 74.7129 111.87C74.1756 111.723 73.7466 111.536 73.4259 111.311L74.0499 110.076C74.3619 110.284 74.7346 110.453 75.1679 110.583C75.6099 110.704 76.0432 110.765 76.4679 110.765C77.4386 110.765 77.9239 110.509 77.9239 109.998C77.9239 109.755 77.7982 109.586 77.5469 109.491C77.3042 109.396 76.9099 109.305 76.3639 109.218C75.7919 109.131 75.3239 109.032 74.9599 108.919C74.6046 108.806 74.2926 108.611 74.0239 108.334C73.7639 108.048 73.6339 107.654 73.6339 107.151C73.6339 106.492 73.9069 105.968 74.4529 105.578C75.0076 105.179 75.7529 104.98 76.6889 104.98C77.1656 104.98 77.6422 105.036 78.1189 105.149C78.5956 105.253 78.9856 105.396 79.2889 105.578L78.6649 106.813C78.0756 106.466 77.4126 106.293 76.6759 106.293C76.1992 106.293 75.8352 106.367 75.5839 106.514C75.3412 106.653 75.2199 106.839 75.2199 107.073C75.2199 107.333 75.3499 107.519 75.6099 107.632C75.8786 107.736 76.2902 107.836 76.8449 107.931C77.3996 108.018 77.8546 108.117 78.2099 108.23C78.5652 108.343 78.8686 108.533 79.1199 108.802C79.3799 109.071 79.5099 109.452 79.5099 109.946C79.5099 110.596 79.2282 111.116 78.6649 111.506C78.1016 111.896 77.3346 112.091 76.3639 112.091Z" fill="white"/>
<path d="M84.6581 102.9H86.3481V112H84.6581V102.9Z" fill="white"/>
<path d="M97.4155 104.98C98.2908 104.98 98.9841 105.236 99.4955 105.747C100.007 106.25 100.262 107.008 100.262 108.022V112H98.6375V108.23C98.6375 107.623 98.5031 107.168 98.2345 106.865C97.9658 106.553 97.5801 106.397 97.0775 106.397C96.5315 106.397 96.0938 106.579 95.7645 106.943C95.4351 107.298 95.2705 107.81 95.2705 108.477V112H93.6455V108.23C93.6455 107.623 93.5111 107.168 93.2425 106.865C92.9738 106.553 92.5881 106.397 92.0855 106.397C91.5308 106.397 91.0888 106.575 90.7595 106.93C90.4388 107.285 90.2785 107.801 90.2785 108.477V112H88.6535V105.058H90.2005V105.942C90.4605 105.63 90.7855 105.392 91.1755 105.227C91.5655 105.062 91.9988 104.98 92.4755 104.98C92.9955 104.98 93.4548 105.08 93.8535 105.279C94.2608 105.47 94.5815 105.756 94.8155 106.137C95.1015 105.773 95.4698 105.491 95.9205 105.292C96.3711 105.084 96.8695 104.98 97.4155 104.98Z" fill="white"/>
<path d="M106.187 104.98C106.863 104.98 107.465 105.127 107.994 105.422C108.531 105.717 108.952 106.133 109.255 106.67C109.558 107.207 109.71 107.827 109.71 108.529C109.71 109.231 109.558 109.855 109.255 110.401C108.952 110.938 108.531 111.354 107.994 111.649C107.465 111.944 106.863 112.091 106.187 112.091C105.251 112.091 104.51 111.779 103.964 111.155V114.522H102.339V105.058H103.886V105.968C104.155 105.639 104.484 105.392 104.874 105.227C105.273 105.062 105.71 104.98 106.187 104.98ZM106.005 110.7C106.603 110.7 107.093 110.501 107.474 110.102C107.864 109.703 108.059 109.179 108.059 108.529C108.059 107.879 107.864 107.355 107.474 106.956C107.093 106.557 106.603 106.358 106.005 106.358C105.615 106.358 105.264 106.449 104.952 106.631C104.64 106.804 104.393 107.056 104.211 107.385C104.029 107.714 103.938 108.096 103.938 108.529C103.938 108.962 104.029 109.344 104.211 109.673C104.393 110.002 104.64 110.258 104.952 110.44C105.264 110.613 105.615 110.7 106.005 110.7Z" fill="white"/>
<path d="M113.814 104.98C114.837 104.98 115.617 105.227 116.154 105.721C116.7 106.206 116.973 106.943 116.973 107.931V112H115.439V111.155C115.24 111.458 114.954 111.692 114.581 111.857C114.217 112.013 113.775 112.091 113.255 112.091C112.735 112.091 112.28 112.004 111.89 111.831C111.5 111.649 111.197 111.402 110.98 111.09C110.772 110.769 110.668 110.41 110.668 110.011C110.668 109.387 110.898 108.889 111.357 108.516C111.825 108.135 112.558 107.944 113.554 107.944H115.348V107.84C115.348 107.355 115.201 106.982 114.906 106.722C114.62 106.462 114.191 106.332 113.619 106.332C113.229 106.332 112.844 106.393 112.462 106.514C112.09 106.635 111.773 106.804 111.513 107.021L110.876 105.838C111.24 105.561 111.678 105.348 112.189 105.201C112.701 105.054 113.242 104.98 113.814 104.98ZM113.593 110.908C114.001 110.908 114.36 110.817 114.672 110.635C114.993 110.444 115.218 110.176 115.348 109.829V109.023H113.671C112.735 109.023 112.267 109.331 112.267 109.946C112.267 110.241 112.384 110.475 112.618 110.648C112.852 110.821 113.177 110.908 113.593 110.908Z" fill="white"/>
<path d="M122.307 112.091C121.588 112.091 120.942 111.939 120.37 111.636C119.798 111.333 119.352 110.912 119.031 110.375C118.711 109.829 118.55 109.214 118.55 108.529C118.55 107.844 118.711 107.233 119.031 106.696C119.352 106.159 119.794 105.738 120.357 105.435C120.929 105.132 121.579 104.98 122.307 104.98C122.992 104.98 123.59 105.119 124.101 105.396C124.621 105.673 125.011 106.072 125.271 106.592L124.023 107.32C123.824 106.999 123.573 106.761 123.269 106.605C122.975 106.44 122.65 106.358 122.294 106.358C121.688 106.358 121.185 106.557 120.786 106.956C120.388 107.346 120.188 107.87 120.188 108.529C120.188 109.188 120.383 109.716 120.773 110.115C121.172 110.505 121.679 110.7 122.294 110.7C122.65 110.7 122.975 110.622 123.269 110.466C123.573 110.301 123.824 110.059 124.023 109.738L125.271 110.466C125.003 110.986 124.608 111.389 124.088 111.675C123.577 111.952 122.983 112.091 122.307 112.091Z" fill="white"/>
<path d="M130.938 111.623C130.747 111.779 130.513 111.896 130.236 111.974C129.967 112.052 129.681 112.091 129.378 112.091C128.615 112.091 128.026 111.892 127.61 111.493C127.194 111.094 126.986 110.514 126.986 109.751V106.41H125.842V105.11H126.986V103.524H128.611V105.11H130.47V106.41H128.611V109.712C128.611 110.05 128.693 110.31 128.858 110.492C129.022 110.665 129.261 110.752 129.573 110.752C129.937 110.752 130.24 110.657 130.483 110.466L130.938 111.623Z" fill="white"/>
<path d="M138.572 108.568C138.572 108.681 138.563 108.841 138.546 109.049H133.099C133.194 109.56 133.441 109.968 133.84 110.271C134.247 110.566 134.75 110.713 135.348 110.713C136.111 110.713 136.739 110.462 137.233 109.959L138.104 110.96C137.792 111.333 137.398 111.614 136.921 111.805C136.444 111.996 135.907 112.091 135.309 112.091C134.546 112.091 133.875 111.939 133.294 111.636C132.713 111.333 132.263 110.912 131.942 110.375C131.63 109.829 131.474 109.214 131.474 108.529C131.474 107.853 131.626 107.246 131.929 106.709C132.241 106.163 132.67 105.738 133.216 105.435C133.762 105.132 134.377 104.98 135.062 104.98C135.738 104.98 136.34 105.132 136.869 105.435C137.406 105.73 137.822 106.15 138.117 106.696C138.42 107.233 138.572 107.857 138.572 108.568ZM135.062 106.28C134.542 106.28 134.1 106.436 133.736 106.748C133.381 107.051 133.164 107.459 133.086 107.97H137.025C136.956 107.467 136.743 107.06 136.388 106.748C136.033 106.436 135.591 106.28 135.062 106.28Z" fill="white"/>
<path d="M146.932 102.354V112H145.372V111.103C145.103 111.432 144.77 111.679 144.371 111.844C143.981 112.009 143.548 112.091 143.071 112.091C142.404 112.091 141.801 111.944 141.264 111.649C140.735 111.354 140.319 110.938 140.016 110.401C139.713 109.855 139.561 109.231 139.561 108.529C139.561 107.827 139.713 107.207 140.016 106.67C140.319 106.133 140.735 105.717 141.264 105.422C141.801 105.127 142.404 104.98 143.071 104.98C143.53 104.98 143.951 105.058 144.332 105.214C144.713 105.37 145.038 105.604 145.307 105.916V102.354H146.932ZM143.266 110.7C143.656 110.7 144.007 110.613 144.319 110.44C144.631 110.258 144.878 110.002 145.06 109.673C145.242 109.344 145.333 108.962 145.333 108.529C145.333 108.096 145.242 107.714 145.06 107.385C144.878 107.056 144.631 106.804 144.319 106.631C144.007 106.449 143.656 106.358 143.266 106.358C142.876 106.358 142.525 106.449 142.213 106.631C141.901 106.804 141.654 107.056 141.472 107.385C141.29 107.714 141.199 108.096 141.199 108.529C141.199 108.962 141.29 109.344 141.472 109.673C141.654 110.002 141.901 110.258 142.213 110.44C142.525 110.613 142.876 110.7 143.266 110.7Z" fill="white"/>
</svg>
