<svg width="177" height="173" viewBox="0 0 177 173" fill="none" xmlns="http://www.w3.org/2000/svg">
<mask id="mask0" mask-type="alpha" maskUnits="userSpaceOnUse" x="0" y="0" width="177" height="173">
<path fill-rule="evenodd" clip-rule="evenodd" d="M88.5 173C39.6228 173 0 134.273 0 86.5C0 38.7271 39.6228 0 88.5 0C137.377 0 177 38.7271 177 86.5C177 134.273 137.377 173 88.5 173Z" fill="white"/>
</mask>
<g mask="url(#mask0)">
<path fill-rule="evenodd" clip-rule="evenodd" d="M-3.98633 176.896H180.987V-3.89648H-3.98633V176.896Z" fill="#89BFFE"/>
</g>
<mask id="mask1" mask-type="alpha" maskUnits="userSpaceOnUse" x="61" y="91" width="56" height="2">
<path fill-rule="evenodd" clip-rule="evenodd" d="M61.4458 91.2031H116.965V92.2208H61.4458V91.2031Z" fill="white"/>
</mask>
<g mask="url(#mask1)">
<path fill-rule="evenodd" clip-rule="evenodd" d="M57.5063 97.3091H120.905V86.115H57.5063V97.3091Z" fill="white"/>
</g>
<path d="M58.968 64.764C61.7307 64.764 63.7654 65.3146 65.072 66.416C66.3974 67.5173 67.06 68.992 67.06 70.84C67.06 72.0346 66.7614 73.1266 66.164 74.116C65.5667 75.0866 64.652 75.8706 63.42 76.468C62.2067 77.0466 60.704 77.336 58.912 77.336C57.5307 77.336 56.168 77.1586 54.824 76.804C53.4987 76.4306 52.3694 75.908 51.436 75.236L53.228 71.764C53.9747 72.324 54.8334 72.7626 55.804 73.08C56.7747 73.3786 57.7734 73.528 58.8 73.528C59.9387 73.528 60.8347 73.304 61.488 72.856C62.1414 72.408 62.468 71.7826 62.468 70.98C62.468 70.14 62.1227 69.5053 61.432 69.076C60.76 68.6466 59.584 68.432 57.904 68.432H52.892L53.9 57.4H65.856V61.04H57.68L57.372 64.764H58.968Z" fill="white"/>
<path d="M71.5044 71.792C72.2884 71.792 72.9324 72.044 73.4364 72.548C73.9404 73.0333 74.1924 73.6773 74.1924 74.48C74.1924 74.8533 74.1457 75.2266 74.0524 75.6C73.959 75.9733 73.7537 76.5333 73.4364 77.28L71.8404 81.312H69.0684L70.3004 76.86C69.8337 76.6733 69.4604 76.3746 69.1804 75.964C68.919 75.5346 68.7884 75.04 68.7884 74.48C68.7884 73.6773 69.0404 73.0333 69.5444 72.548C70.067 72.044 70.7204 71.792 71.5044 71.792Z" fill="white"/>
<path d="M85.6579 65.38C87.3753 65.66 88.6913 66.304 89.6059 67.312C90.5206 68.3013 90.9779 69.5333 90.9779 71.008C90.9779 72.1466 90.6793 73.2013 90.0819 74.172C89.4846 75.124 88.5699 75.8893 87.3379 76.468C86.1246 77.0466 84.6313 77.336 82.8579 77.336C81.4766 77.336 80.1139 77.1586 78.7699 76.804C77.4446 76.4306 76.3153 75.908 75.3819 75.236L77.1459 71.764C77.8926 72.324 78.7513 72.7626 79.7219 73.08C80.7113 73.3786 81.7193 73.528 82.7459 73.528C83.8846 73.528 84.7806 73.3133 85.4339 72.884C86.0873 72.436 86.4139 71.8106 86.4139 71.008C86.4139 69.4026 85.1913 68.6 82.7459 68.6H80.6739V65.604L84.7059 61.04H76.3619V57.4H90.0819V60.34L85.6579 65.38Z" fill="white"/>
<path d="M107.58 73.304V77H92.7675V74.06L100.328 66.92C101.13 66.1546 101.672 65.5013 101.952 64.96C102.232 64.4 102.372 63.8493 102.372 63.308C102.372 62.524 102.101 61.9266 101.56 61.516C101.037 61.0866 100.262 60.872 99.2355 60.872C98.3769 60.872 97.6022 61.04 96.9115 61.376C96.2209 61.6933 95.6422 62.1786 95.1755 62.832L91.8715 60.704C92.6369 59.5653 93.6915 58.6786 95.0355 58.044C96.3795 57.3906 97.9195 57.064 99.6555 57.064C101.112 57.064 102.381 57.3066 103.464 57.792C104.565 58.2586 105.414 58.9306 106.012 59.808C106.628 60.6666 106.936 61.684 106.936 62.86C106.936 63.924 106.712 64.9226 106.264 65.856C105.816 66.7893 104.948 67.8533 103.66 69.048L99.1515 73.304H107.58Z" fill="white"/>
<path d="M122.863 66.696C123.834 67.1813 124.571 67.816 125.075 68.6C125.598 69.384 125.859 70.2893 125.859 71.316C125.859 72.5293 125.514 73.5933 124.823 74.508C124.132 75.404 123.162 76.104 121.911 76.608C120.66 77.0933 119.214 77.336 117.571 77.336C115.928 77.336 114.482 77.0933 113.231 76.608C111.999 76.104 111.038 75.404 110.347 74.508C109.675 73.5933 109.339 72.5293 109.339 71.316C109.339 70.2893 109.591 69.384 110.095 68.6C110.618 67.816 111.355 67.1813 112.307 66.696C111.579 66.248 111.019 65.688 110.627 65.016C110.235 64.3253 110.039 63.5413 110.039 62.664C110.039 61.5253 110.356 60.536 110.991 59.696C111.626 58.856 112.512 58.212 113.651 57.764C114.79 57.2973 116.096 57.064 117.571 57.064C119.064 57.064 120.38 57.2973 121.519 57.764C122.676 58.212 123.572 58.856 124.207 59.696C124.842 60.536 125.159 61.5253 125.159 62.664C125.159 63.5413 124.963 64.3253 124.571 65.016C124.179 65.688 123.61 66.248 122.863 66.696ZM117.571 60.396C116.656 60.396 115.919 60.62 115.359 61.068C114.818 61.4973 114.547 62.0946 114.547 62.86C114.547 63.6066 114.818 64.1946 115.359 64.624C115.9 65.0533 116.638 65.268 117.571 65.268C118.504 65.268 119.251 65.0533 119.811 64.624C120.371 64.1946 120.651 63.6066 120.651 62.86C120.651 62.0946 120.371 61.4973 119.811 61.068C119.251 60.62 118.504 60.396 117.571 60.396ZM117.571 74.004C118.71 74.004 119.606 73.752 120.259 73.248C120.931 72.7253 121.267 72.0346 121.267 71.176C121.267 70.3173 120.931 69.636 120.259 69.132C119.606 68.628 118.71 68.376 117.571 68.376C116.451 68.376 115.564 68.628 114.911 69.132C114.258 69.636 113.931 70.3173 113.931 71.176C113.931 72.0533 114.258 72.744 114.911 73.248C115.564 73.752 116.451 74.004 117.571 74.004Z" fill="white"/>
<path d="M27.6461 112.13C26.9441 112.13 26.2638 112.03 25.6051 111.831C24.9551 111.632 24.4394 111.367 24.0581 111.038L24.6431 109.725C25.0158 110.02 25.4708 110.262 26.0081 110.453C26.5541 110.635 27.1001 110.726 27.6461 110.726C28.3221 110.726 28.8248 110.618 29.1541 110.401C29.4921 110.184 29.6611 109.898 29.6611 109.543C29.6611 109.283 29.5658 109.071 29.3751 108.906C29.1931 108.733 28.9591 108.598 28.6731 108.503C28.3871 108.408 27.9971 108.299 27.5031 108.178C26.8098 108.013 26.2464 107.849 25.8131 107.684C25.3884 107.519 25.0201 107.264 24.7081 106.917C24.4048 106.562 24.2531 106.085 24.2531 105.487C24.2531 104.984 24.3874 104.529 24.6561 104.122C24.9334 103.706 25.3451 103.377 25.8911 103.134C26.4458 102.891 27.1218 102.77 27.9191 102.77C28.4738 102.77 29.0198 102.839 29.5571 102.978C30.0944 103.117 30.5581 103.316 30.9481 103.576L30.4151 104.889C30.0164 104.655 29.6004 104.477 29.1671 104.356C28.7338 104.235 28.3134 104.174 27.9061 104.174C27.2388 104.174 26.7404 104.287 26.4111 104.512C26.0904 104.737 25.9301 105.036 25.9301 105.409C25.9301 105.669 26.0211 105.881 26.2031 106.046C26.3938 106.211 26.6321 106.341 26.9181 106.436C27.2041 106.531 27.5941 106.64 28.0881 106.761C28.7641 106.917 29.3188 107.082 29.7521 107.255C30.1854 107.42 30.5538 107.675 30.8571 108.022C31.1691 108.369 31.3251 108.837 31.3251 109.426C31.3251 109.929 31.1864 110.384 30.9091 110.791C30.6404 111.198 30.2288 111.523 29.6741 111.766C29.1194 112.009 28.4434 112.13 27.6461 112.13Z" fill="white"/>
<path d="M37.0179 111.623C36.8272 111.779 36.5932 111.896 36.3159 111.974C36.0472 112.052 35.7612 112.091 35.4579 112.091C34.6952 112.091 34.1059 111.892 33.6899 111.493C33.2739 111.094 33.0659 110.514 33.0659 109.751V106.41H31.9219V105.11H33.0659V103.524H34.6909V105.11H36.5499V106.41H34.6909V109.712C34.6909 110.05 34.7732 110.31 34.9379 110.492C35.1026 110.665 35.3409 110.752 35.6529 110.752C36.0169 110.752 36.3202 110.657 36.5629 110.466L37.0179 111.623Z" fill="white"/>
<path d="M45.0757 105.058V112H43.5287V111.116C43.2687 111.428 42.9437 111.671 42.5537 111.844C42.1637 112.009 41.7433 112.091 41.2927 112.091C40.3653 112.091 39.633 111.835 39.0957 111.324C38.567 110.804 38.3027 110.037 38.3027 109.023V105.058H39.9277V108.802C39.9277 109.426 40.0663 109.894 40.3437 110.206C40.6297 110.509 41.0327 110.661 41.5527 110.661C42.1333 110.661 42.5927 110.483 42.9307 110.128C43.2773 109.764 43.4507 109.244 43.4507 108.568V105.058H45.0757Z" fill="white"/>
<path d="M54.0023 102.354V112H52.4423V111.103C52.1736 111.432 51.84 111.679 51.4413 111.844C51.0513 112.009 50.618 112.091 50.1413 112.091C49.474 112.091 48.8716 111.944 48.3343 111.649C47.8056 111.354 47.3896 110.938 47.0863 110.401C46.783 109.855 46.6313 109.231 46.6313 108.529C46.6313 107.827 46.783 107.207 47.0863 106.67C47.3896 106.133 47.8056 105.717 48.3343 105.422C48.8716 105.127 49.474 104.98 50.1413 104.98C50.6006 104.98 51.021 105.058 51.4023 105.214C51.7836 105.37 52.1086 105.604 52.3773 105.916V102.354H54.0023ZM50.3363 110.7C50.7263 110.7 51.0773 110.613 51.3893 110.44C51.7013 110.258 51.9483 110.002 52.1303 109.673C52.3123 109.344 52.4033 108.962 52.4033 108.529C52.4033 108.096 52.3123 107.714 52.1303 107.385C51.9483 107.056 51.7013 106.804 51.3893 106.631C51.0773 106.449 50.7263 106.358 50.3363 106.358C49.9463 106.358 49.5953 106.449 49.2833 106.631C48.9713 106.804 48.7243 107.056 48.5423 107.385C48.3603 107.714 48.2693 108.096 48.2693 108.529C48.2693 108.962 48.3603 109.344 48.5423 109.673C48.7243 110.002 48.9713 110.258 49.2833 110.44C49.5953 110.613 49.9463 110.7 50.3363 110.7Z" fill="white"/>
<path d="M62.6541 108.568C62.6541 108.681 62.6454 108.841 62.6281 109.049H57.1811C57.2764 109.56 57.5234 109.968 57.9221 110.271C58.3294 110.566 58.8321 110.713 59.4301 110.713C60.1928 110.713 60.8211 110.462 61.3151 109.959L62.1861 110.96C61.8741 111.333 61.4798 111.614 61.0031 111.805C60.5264 111.996 59.9891 112.091 59.3911 112.091C58.6284 112.091 57.9568 111.939 57.3761 111.636C56.7954 111.333 56.3448 110.912 56.0241 110.375C55.7121 109.829 55.5561 109.214 55.5561 108.529C55.5561 107.853 55.7078 107.246 56.0111 106.709C56.3231 106.163 56.7521 105.738 57.2981 105.435C57.8441 105.132 58.4594 104.98 59.1441 104.98C59.8201 104.98 60.4224 105.132 60.9511 105.435C61.4884 105.73 61.9044 106.15 62.1991 106.696C62.5024 107.233 62.6541 107.857 62.6541 108.568ZM59.1441 106.28C58.6241 106.28 58.1821 106.436 57.8181 106.748C57.4628 107.051 57.2461 107.459 57.1681 107.97H61.1071C61.0378 107.467 60.8254 107.06 60.4701 106.748C60.1148 106.436 59.6728 106.28 59.1441 106.28Z" fill="white"/>
<path d="M68.154 104.98C69.0293 104.98 69.7313 105.236 70.26 105.747C70.7887 106.258 71.053 107.017 71.053 108.022V112H69.428V108.23C69.428 107.623 69.285 107.168 68.999 106.865C68.713 106.553 68.3057 106.397 67.777 106.397C67.179 106.397 66.7067 106.579 66.36 106.943C66.0133 107.298 65.84 107.814 65.84 108.49V112H64.215V105.058H65.762V105.955C66.0307 105.634 66.3687 105.392 66.776 105.227C67.1833 105.062 67.6427 104.98 68.154 104.98Z" fill="white"/>
<path d="M77.2874 111.623C77.0968 111.779 76.8627 111.896 76.5854 111.974C76.3167 112.052 76.0308 112.091 75.7274 112.091C74.9648 112.091 74.3754 111.892 73.9594 111.493C73.5434 111.094 73.3354 110.514 73.3354 109.751V106.41H72.1914V105.11H73.3354V103.524H74.9604V105.11H76.8194V106.41H74.9604V109.712C74.9604 110.05 75.0427 110.31 75.2074 110.492C75.3721 110.665 75.6104 110.752 75.9224 110.752C76.2864 110.752 76.5897 110.657 76.8324 110.466L77.2874 111.623Z" fill="white"/>
<path d="M80.7692 112.091C80.2058 112.091 79.6555 112.017 79.1182 111.87C78.5808 111.723 78.1518 111.536 77.8312 111.311L78.4552 110.076C78.7672 110.284 79.1398 110.453 79.5732 110.583C80.0152 110.704 80.4485 110.765 80.8732 110.765C81.8438 110.765 82.3292 110.509 82.3292 109.998C82.3292 109.755 82.2035 109.586 81.9522 109.491C81.7095 109.396 81.3152 109.305 80.7692 109.218C80.1972 109.131 79.7292 109.032 79.3652 108.919C79.0098 108.806 78.6978 108.611 78.4292 108.334C78.1692 108.048 78.0392 107.654 78.0392 107.151C78.0392 106.492 78.3122 105.968 78.8582 105.578C79.4128 105.179 80.1582 104.98 81.0942 104.98C81.5708 104.98 82.0475 105.036 82.5242 105.149C83.0008 105.253 83.3908 105.396 83.6942 105.578L83.0702 106.813C82.4808 106.466 81.8178 106.293 81.0812 106.293C80.6045 106.293 80.2405 106.367 79.9892 106.514C79.7465 106.653 79.6252 106.839 79.6252 107.073C79.6252 107.333 79.7552 107.519 80.0152 107.632C80.2838 107.736 80.6955 107.836 81.2502 107.931C81.8048 108.018 82.2598 108.117 82.6152 108.23C82.9705 108.343 83.2738 108.533 83.5252 108.802C83.7852 109.071 83.9152 109.452 83.9152 109.946C83.9152 110.596 83.6335 111.116 83.0702 111.506C82.5068 111.896 81.7398 112.091 80.7692 112.091Z" fill="white"/>
<path d="M89.0634 102.9H90.7534V112H89.0634V102.9Z" fill="white"/>
<path d="M101.821 104.98C102.696 104.98 103.389 105.236 103.901 105.747C104.412 106.25 104.668 107.008 104.668 108.022V112H103.043V108.23C103.043 107.623 102.908 107.168 102.64 106.865C102.371 106.553 101.985 106.397 101.483 106.397C100.937 106.397 100.499 106.579 100.17 106.943C99.8404 107.298 99.6758 107.81 99.6758 108.477V112H98.0508V108.23C98.0508 107.623 97.9164 107.168 97.6478 106.865C97.3791 106.553 96.9934 106.397 96.4908 106.397C95.9361 106.397 95.4941 106.575 95.1647 106.93C94.8441 107.285 94.6838 107.801 94.6838 108.477V112H93.0588V105.058H94.6058V105.942C94.8658 105.63 95.1907 105.392 95.5807 105.227C95.9707 105.062 96.4041 104.98 96.8808 104.98C97.4008 104.98 97.8601 105.08 98.2588 105.279C98.6661 105.47 98.9868 105.756 99.2208 106.137C99.5068 105.773 99.8751 105.491 100.326 105.292C100.776 105.084 101.275 104.98 101.821 104.98Z" fill="white"/>
<path d="M110.592 104.98C111.268 104.98 111.871 105.127 112.399 105.422C112.937 105.717 113.357 106.133 113.66 106.67C113.964 107.207 114.115 107.827 114.115 108.529C114.115 109.231 113.964 109.855 113.66 110.401C113.357 110.938 112.937 111.354 112.399 111.649C111.871 111.944 111.268 112.091 110.592 112.091C109.656 112.091 108.915 111.779 108.369 111.155V114.522H106.744V105.058H108.291V105.968C108.56 105.639 108.889 105.392 109.279 105.227C109.678 105.062 110.116 104.98 110.592 104.98ZM110.41 110.7C111.008 110.7 111.498 110.501 111.879 110.102C112.269 109.703 112.464 109.179 112.464 108.529C112.464 107.879 112.269 107.355 111.879 106.956C111.498 106.557 111.008 106.358 110.41 106.358C110.02 106.358 109.669 106.449 109.357 106.631C109.045 106.804 108.798 107.056 108.616 107.385C108.434 107.714 108.343 108.096 108.343 108.529C108.343 108.962 108.434 109.344 108.616 109.673C108.798 110.002 109.045 110.258 109.357 110.44C109.669 110.613 110.02 110.7 110.41 110.7Z" fill="white"/>
<path d="M118.22 104.98C119.242 104.98 120.022 105.227 120.56 105.721C121.106 106.206 121.379 106.943 121.379 107.931V112H119.845V111.155C119.645 111.458 119.359 111.692 118.987 111.857C118.623 112.013 118.181 112.091 117.661 112.091C117.141 112.091 116.686 112.004 116.296 111.831C115.906 111.649 115.602 111.402 115.386 111.09C115.178 110.769 115.074 110.41 115.074 110.011C115.074 109.387 115.303 108.889 115.763 108.516C116.231 108.135 116.963 107.944 117.96 107.944H119.754V107.84C119.754 107.355 119.606 106.982 119.312 106.722C119.026 106.462 118.597 106.332 118.025 106.332C117.635 106.332 117.249 106.393 116.868 106.514C116.495 106.635 116.179 106.804 115.919 107.021L115.282 105.838C115.646 105.561 116.083 105.348 116.595 105.201C117.106 105.054 117.648 104.98 118.22 104.98ZM117.999 110.908C118.406 110.908 118.766 110.817 119.078 110.635C119.398 110.444 119.624 110.176 119.754 109.829V109.023H118.077C117.141 109.023 116.673 109.331 116.673 109.946C116.673 110.241 116.79 110.475 117.024 110.648C117.258 110.821 117.583 110.908 117.999 110.908Z" fill="white"/>
<path d="M126.713 112.091C125.993 112.091 125.348 111.939 124.776 111.636C124.204 111.333 123.757 110.912 123.437 110.375C123.116 109.829 122.956 109.214 122.956 108.529C122.956 107.844 123.116 107.233 123.437 106.696C123.757 106.159 124.199 105.738 124.763 105.435C125.335 105.132 125.985 104.98 126.713 104.98C127.397 104.98 127.995 105.119 128.507 105.396C129.027 105.673 129.416 106.072 129.676 106.592L128.429 107.32C128.229 106.999 127.978 106.761 127.674 106.605C127.38 106.44 127.055 106.358 126.7 106.358C126.093 106.358 125.59 106.557 125.192 106.956C124.793 107.346 124.594 107.87 124.594 108.529C124.594 109.188 124.789 109.716 125.179 110.115C125.577 110.505 126.084 110.7 126.7 110.7C127.055 110.7 127.38 110.622 127.674 110.466C127.978 110.301 128.229 110.059 128.429 109.738L129.676 110.466C129.408 110.986 129.014 111.389 128.493 111.675C127.982 111.952 127.389 112.091 126.713 112.091Z" fill="white"/>
<path d="M135.343 111.623C135.152 111.779 134.918 111.896 134.641 111.974C134.372 112.052 134.086 112.091 133.783 112.091C133.02 112.091 132.431 111.892 132.015 111.493C131.599 111.094 131.391 110.514 131.391 109.751V106.41H130.247V105.11H131.391V103.524H133.016V105.11H134.875V106.41H133.016V109.712C133.016 110.05 133.098 110.31 133.263 110.492C133.428 110.665 133.666 110.752 133.978 110.752C134.342 110.752 134.645 110.657 134.888 110.466L135.343 111.623Z" fill="white"/>
<path d="M142.977 108.568C142.977 108.681 142.969 108.841 142.951 109.049H137.504C137.6 109.56 137.847 109.968 138.245 110.271C138.653 110.566 139.155 110.713 139.753 110.713C140.516 110.713 141.144 110.462 141.638 109.959L142.509 110.96C142.197 111.333 141.803 111.614 141.326 111.805C140.85 111.996 140.312 112.091 139.714 112.091C138.952 112.091 138.28 111.939 137.699 111.636C137.119 111.333 136.668 110.912 136.347 110.375C136.035 109.829 135.879 109.214 135.879 108.529C135.879 107.853 136.031 107.246 136.334 106.709C136.646 106.163 137.075 105.738 137.621 105.435C138.167 105.132 138.783 104.98 139.467 104.98C140.143 104.98 140.746 105.132 141.274 105.435C141.812 105.73 142.228 106.15 142.522 106.696C142.826 107.233 142.977 107.857 142.977 108.568ZM139.467 106.28C138.947 106.28 138.505 106.436 138.141 106.748C137.786 107.051 137.569 107.459 137.491 107.97H141.43C141.361 107.467 141.149 107.06 140.793 106.748C140.438 106.436 139.996 106.28 139.467 106.28Z" fill="white"/>
<path d="M151.337 102.354V112H149.777V111.103C149.509 111.432 149.175 111.679 148.776 111.844C148.386 112.009 147.953 112.091 147.476 112.091C146.809 112.091 146.207 111.944 145.669 111.649C145.141 111.354 144.725 110.938 144.421 110.401C144.118 109.855 143.966 109.231 143.966 108.529C143.966 107.827 144.118 107.207 144.421 106.67C144.725 106.133 145.141 105.717 145.669 105.422C146.207 105.127 146.809 104.98 147.476 104.98C147.936 104.98 148.356 105.058 148.737 105.214C149.119 105.37 149.444 105.604 149.712 105.916V102.354H151.337ZM147.671 110.7C148.061 110.7 148.412 110.613 148.724 110.44C149.036 110.258 149.283 110.002 149.465 109.673C149.647 109.344 149.738 108.962 149.738 108.529C149.738 108.096 149.647 107.714 149.465 107.385C149.283 107.056 149.036 106.804 148.724 106.631C148.412 106.449 148.061 106.358 147.671 106.358C147.281 106.358 146.93 106.449 146.618 106.631C146.306 106.804 146.059 107.056 145.877 107.385C145.695 107.714 145.604 108.096 145.604 108.529C145.604 108.962 145.695 109.344 145.877 109.673C146.059 110.002 146.306 110.258 146.618 110.44C146.93 110.613 147.281 110.7 147.671 110.7Z" fill="white"/>
</svg>
