<svg width="350" height="96" viewBox="0 0 350 96" fill="none" xmlns="http://www.w3.org/2000/svg">
<path d="M1.89431 24.571H16.8703V76.219H1.89431V24.571ZM9.38231 17.371C6.63031 17.371 4.39031 16.571 2.66231 14.971C0.934312 13.371 0.0703125 11.387 0.0703125 9.01899C0.0703125 6.65099 0.934312 4.66699 2.66231 3.067C4.39031 1.46699 6.63031 0.666992 9.38231 0.666992C12.1343 0.666992 14.3743 1.43499 16.1023 2.971C17.8303 4.507 18.6943 6.427 18.6943 8.731C18.6943 11.227 17.8303 13.307 16.1023 14.971C14.3743 16.571 12.1343 17.371 9.38231 17.371Z" fill="black"/>
<path d="M28.8493 43.195H56.0173V55.195H28.8493V43.195Z" fill="black"/>
<path d="M67.8006 24.571H82.7766V76.219H67.8006V24.571ZM75.2886 17.371C72.5366 17.371 70.2966 16.571 68.5686 14.971C66.8406 13.371 65.9766 11.387 65.9766 9.01899C65.9766 6.65099 66.8406 4.66699 68.5686 3.067C70.2966 1.46699 72.5366 0.666992 75.2886 0.666992C78.0406 0.666992 80.2806 1.43499 82.0086 2.971C83.7366 4.507 84.6006 6.427 84.6006 8.731C84.6006 11.227 83.7366 13.307 82.0086 14.971C80.2806 16.571 78.0406 17.371 75.2886 17.371Z" fill="black"/>
<path d="M149.956 24.571V67.579C149.956 77.051 147.492 84.091 142.564 88.699C137.636 93.307 130.436 95.611 120.964 95.611C115.972 95.611 111.236 95.003 106.756 93.787C102.276 92.571 98.5636 90.811 95.6196 88.507L101.572 77.755C103.748 79.547 106.5 80.955 109.828 81.979C113.156 83.067 116.484 83.611 119.812 83.611C124.996 83.611 128.804 82.427 131.236 80.059C133.732 77.755 134.98 74.235 134.98 69.499V67.291C131.076 71.579 125.636 73.723 118.66 73.723C113.924 73.723 109.572 72.699 105.604 70.651C101.7 68.539 98.5956 65.595 96.2916 61.819C93.9876 58.043 92.8356 53.691 92.8356 48.763C92.8356 43.835 93.9876 39.483 96.2916 35.707C98.5956 31.931 101.7 29.019 105.604 26.971C109.572 24.859 113.924 23.803 118.66 23.803C126.148 23.803 131.844 26.267 135.748 31.195V24.571H149.956ZM121.636 61.435C125.604 61.435 128.836 60.283 131.332 57.979C133.892 55.611 135.172 52.539 135.172 48.763C135.172 44.987 133.892 41.947 131.332 39.643C128.836 37.275 125.604 36.091 121.636 36.091C117.668 36.091 114.404 37.275 111.844 39.643C109.284 41.947 108.004 44.987 108.004 48.763C108.004 52.539 109.284 55.611 111.844 57.979C114.404 60.283 117.668 61.435 121.636 61.435Z" fill="black"/>
<path d="M195.286 23.803C201.686 23.803 206.838 25.723 210.742 29.563C214.71 33.403 216.694 39.099 216.694 46.651V76.219H201.718V48.955C201.718 44.859 200.822 41.819 199.03 39.835C197.238 37.787 194.646 36.763 191.254 36.763C187.478 36.763 184.47 37.947 182.23 40.315C179.99 42.619 178.87 46.075 178.87 50.683V76.219H163.894V24.571H178.198V30.619C180.182 28.443 182.646 26.779 185.59 25.627C188.534 24.411 191.766 23.803 195.286 23.803Z" fill="black"/>
<path d="M230.269 24.571H245.245V76.219H230.269V24.571ZM237.757 17.371C235.005 17.371 232.765 16.571 231.037 14.971C229.309 13.371 228.445 11.387 228.445 9.01899C228.445 6.65099 229.309 4.66699 231.037 3.067C232.765 1.46699 235.005 0.666992 237.757 0.666992C240.509 0.666992 242.749 1.43499 244.477 2.971C246.205 4.507 247.069 6.427 247.069 8.731C247.069 11.227 246.205 13.307 244.477 14.971C242.749 16.571 240.509 17.371 237.757 17.371Z" fill="black"/>
<path d="M292.456 73.723C290.984 74.811 289.16 75.643 286.984 76.219C284.872 76.731 282.632 76.987 280.264 76.987C274.12 76.987 269.352 75.419 265.96 72.283C262.632 69.147 260.968 64.539 260.968 58.459V37.243H253V25.723H260.968V13.147H275.944V25.723H288.808V37.243H275.944V58.267C275.944 60.443 276.488 62.139 277.576 63.355C278.728 64.507 280.328 65.083 282.376 65.083C284.744 65.083 286.76 64.443 288.424 63.163L292.456 73.723Z" fill="black"/>
<path d="M349.861 50.587C349.861 50.779 349.765 52.123 349.573 54.619H310.501C311.205 57.819 312.869 60.347 315.493 62.203C318.117 64.059 321.381 64.987 325.285 64.987C327.973 64.987 330.341 64.603 332.389 63.835C334.501 63.003 336.453 61.723 338.245 59.995L346.213 68.635C341.349 74.203 334.245 76.987 324.901 76.987C319.077 76.987 313.925 75.867 309.445 73.627C304.965 71.323 301.509 68.155 299.077 64.123C296.645 60.091 295.429 55.515 295.429 50.395C295.429 45.339 296.613 40.795 298.981 36.763C301.413 32.667 304.709 29.499 308.869 27.259C313.093 24.955 317.797 23.803 322.981 23.803C328.037 23.803 332.613 24.891 336.709 27.067C340.805 29.243 344.005 32.379 346.309 36.475C348.677 40.507 349.861 45.211 349.861 50.587ZM323.077 35.131C319.685 35.131 316.837 36.091 314.533 38.011C312.229 39.931 310.821 42.555 310.309 45.883H335.749C335.237 42.619 333.829 40.027 331.525 38.107C329.221 36.123 326.405 35.131 323.077 35.131Z" fill="black"/>
</svg>
