<svg width="177" height="173" viewBox="0 0 177 173" fill="none" xmlns="http://www.w3.org/2000/svg">
<mask id="mask0" mask-type="alpha" maskUnits="userSpaceOnUse" x="0" y="0" width="177" height="173">
<path fill-rule="evenodd" clip-rule="evenodd" d="M88.5 173C39.6228 173 0 134.273 0 86.5C0 38.7271 39.6228 0 88.5 0C137.377 0 177 38.7271 177 86.5C177 134.273 137.377 173 88.5 173Z" fill="white"/>
</mask>
<g mask="url(#mask0)">
<path fill-rule="evenodd" clip-rule="evenodd" d="M-3.98633 176.896H180.987V-3.89648H-3.98633V176.896Z" fill="#89BFFE"/>
</g>
<mask id="mask1" mask-type="alpha" maskUnits="userSpaceOnUse" x="61" y="91" width="56" height="2">
<path fill-rule="evenodd" clip-rule="evenodd" d="M61.4458 91.2031H116.965V92.2208H61.4458V91.2031Z" fill="white"/>
</mask>
<g mask="url(#mask1)">
<path fill-rule="evenodd" clip-rule="evenodd" d="M57.5063 97.3091H120.905V86.115H57.5063V97.3091Z" fill="white"/>
</g>
<path d="M78.6499 73.304V77H63.8379V74.06L71.3979 66.92C72.2006 66.1546 72.7419 65.5013 73.0219 64.96C73.3019 64.4 73.4419 63.8493 73.4419 63.308C73.4419 62.524 73.1712 61.9266 72.6299 61.516C72.1072 61.0866 71.3326 60.872 70.3059 60.872C69.4472 60.872 68.6726 61.04 67.9819 61.376C67.2912 61.6933 66.7126 62.1786 66.2459 62.832L62.9419 60.704C63.7072 59.5653 64.7619 58.6786 66.1059 58.044C67.4499 57.3906 68.9899 57.064 70.7259 57.064C72.1819 57.064 73.4512 57.3066 74.5339 57.792C75.6352 58.2586 76.4846 58.9306 77.0819 59.808C77.6979 60.6666 78.0059 61.684 78.0059 62.86C78.0059 63.924 77.7819 64.9226 77.3339 65.856C76.8859 66.7893 76.0179 67.8533 74.7299 69.048L70.2219 73.304H78.6499Z" fill="white"/>
<path d="M87.2415 64.764C90.0042 64.764 92.0389 65.3146 93.3455 66.416C94.6709 67.5173 95.3335 68.992 95.3335 70.84C95.3335 72.0346 95.0349 73.1266 94.4375 74.116C93.8402 75.0866 92.9255 75.8706 91.6935 76.468C90.4802 77.0466 88.9775 77.336 87.1855 77.336C85.8042 77.336 84.4415 77.1586 83.0975 76.804C81.7722 76.4306 80.6429 75.908 79.7095 75.236L81.5015 71.764C82.2482 72.324 83.1069 72.7626 84.0775 73.08C85.0482 73.3786 86.0469 73.528 87.0735 73.528C88.2122 73.528 89.1082 73.304 89.7615 72.856C90.4149 72.408 90.7415 71.7826 90.7415 70.98C90.7415 70.14 90.3962 69.5053 89.7055 69.076C89.0335 68.6466 87.8575 68.432 86.1775 68.432H81.1655L82.1735 57.4H94.1295V61.04H85.9535L85.6455 64.764H87.2415Z" fill="white"/>
<path d="M105.574 77.336C103.95 77.336 102.503 76.9346 101.234 76.132C99.9645 75.3293 98.9659 74.172 98.2379 72.66C97.5285 71.1293 97.1739 69.3093 97.1739 67.2C97.1739 65.0906 97.5285 63.28 98.2379 61.768C98.9659 60.2373 99.9645 59.0706 101.234 58.268C102.503 57.4653 103.95 57.064 105.574 57.064C107.198 57.064 108.645 57.4653 109.914 58.268C111.183 59.0706 112.173 60.2373 112.882 61.768C113.61 63.28 113.974 65.0906 113.974 67.2C113.974 69.3093 113.61 71.1293 112.882 72.66C112.173 74.172 111.183 75.3293 109.914 76.132C108.645 76.9346 107.198 77.336 105.574 77.336ZM105.574 73.5C106.769 73.5 107.702 72.9866 108.374 71.96C109.065 70.9333 109.41 69.3466 109.41 67.2C109.41 65.0533 109.065 63.4666 108.374 62.44C107.702 61.4133 106.769 60.9 105.574 60.9C104.398 60.9 103.465 61.4133 102.774 62.44C102.102 63.4666 101.766 65.0533 101.766 67.2C101.766 69.3466 102.102 70.9333 102.774 71.96C103.465 72.9866 104.398 73.5 105.574 73.5Z" fill="white"/>
<path d="M30.3716 109.894H25.8216L24.9246 112H23.1826L27.2776 102.9H28.9416L33.0496 112H31.2816L30.3716 109.894ZM29.8126 108.568L28.0966 104.59L26.3936 108.568H29.8126Z" fill="white"/>
<path d="M36.1324 112.091C35.5691 112.091 35.0188 112.017 34.4814 111.87C33.9441 111.723 33.5151 111.536 33.1944 111.311L33.8184 110.076C34.1304 110.284 34.5031 110.453 34.9364 110.583C35.3784 110.704 35.8118 110.765 36.2364 110.765C37.2071 110.765 37.6924 110.509 37.6924 109.998C37.6924 109.755 37.5668 109.586 37.3154 109.491C37.0728 109.396 36.6784 109.305 36.1324 109.218C35.5604 109.131 35.0924 109.032 34.7284 108.919C34.3731 108.806 34.0611 108.611 33.7924 108.334C33.5324 108.048 33.4024 107.654 33.4024 107.151C33.4024 106.492 33.6754 105.968 34.2214 105.578C34.7761 105.179 35.5214 104.98 36.4574 104.98C36.9341 104.98 37.4108 105.036 37.8874 105.149C38.3641 105.253 38.7541 105.396 39.0574 105.578L38.4334 106.813C37.8441 106.466 37.1811 106.293 36.4444 106.293C35.9678 106.293 35.6038 106.367 35.3524 106.514C35.1098 106.653 34.9884 106.839 34.9884 107.073C34.9884 107.333 35.1184 107.519 35.3784 107.632C35.6471 107.736 36.0588 107.836 36.6134 107.931C37.1681 108.018 37.6231 108.117 37.9784 108.23C38.3338 108.343 38.6371 108.533 38.8884 108.802C39.1484 109.071 39.2784 109.452 39.2784 109.946C39.2784 110.596 38.9968 111.116 38.4334 111.506C37.8701 111.896 37.1031 112.091 36.1324 112.091Z" fill="white"/>
<path d="M42.8229 112.091C42.2595 112.091 41.7092 112.017 41.1719 111.87C40.6345 111.723 40.2055 111.536 39.8849 111.311L40.5089 110.076C40.8209 110.284 41.1935 110.453 41.6269 110.583C42.0689 110.704 42.5022 110.765 42.9269 110.765C43.8975 110.765 44.3829 110.509 44.3829 109.998C44.3829 109.755 44.2572 109.586 44.0059 109.491C43.7632 109.396 43.3689 109.305 42.8229 109.218C42.2509 109.131 41.7829 109.032 41.4189 108.919C41.0635 108.806 40.7515 108.611 40.4829 108.334C40.2229 108.048 40.0929 107.654 40.0929 107.151C40.0929 106.492 40.3659 105.968 40.9119 105.578C41.4665 105.179 42.2119 104.98 43.1479 104.98C43.6245 104.98 44.1012 105.036 44.5779 105.149C45.0545 105.253 45.4445 105.396 45.7479 105.578L45.1239 106.813C44.5345 106.466 43.8715 106.293 43.1349 106.293C42.6582 106.293 42.2942 106.367 42.0429 106.514C41.8002 106.653 41.6789 106.839 41.6789 107.073C41.6789 107.333 41.8089 107.519 42.0689 107.632C42.3375 107.736 42.7492 107.836 43.3039 107.931C43.8585 108.018 44.3135 108.117 44.6689 108.23C45.0242 108.343 45.3275 108.533 45.5789 108.802C45.8389 109.071 45.9689 109.452 45.9689 109.946C45.9689 110.596 45.6872 111.116 45.1239 111.506C44.5605 111.896 43.7935 112.091 42.8229 112.091Z" fill="white"/>
<path d="M53.8943 108.568C53.8943 108.681 53.8856 108.841 53.8683 109.049H48.4213C48.5166 109.56 48.7636 109.968 49.1623 110.271C49.5696 110.566 50.0723 110.713 50.6703 110.713C51.433 110.713 52.0613 110.462 52.5553 109.959L53.4263 110.96C53.1143 111.333 52.72 111.614 52.2433 111.805C51.7666 111.996 51.2293 112.091 50.6313 112.091C49.8686 112.091 49.197 111.939 48.6163 111.636C48.0356 111.333 47.585 110.912 47.2643 110.375C46.9523 109.829 46.7963 109.214 46.7963 108.529C46.7963 107.853 46.948 107.246 47.2513 106.709C47.5633 106.163 47.9923 105.738 48.5383 105.435C49.0843 105.132 49.6996 104.98 50.3843 104.98C51.0603 104.98 51.6626 105.132 52.1913 105.435C52.7286 105.73 53.1446 106.15 53.4393 106.696C53.7426 107.233 53.8943 107.857 53.8943 108.568ZM50.3843 106.28C49.8643 106.28 49.4223 106.436 49.0583 106.748C48.703 107.051 48.4863 107.459 48.4083 107.97H52.3473C52.278 107.467 52.0656 107.06 51.7103 106.748C51.355 106.436 50.913 106.28 50.3843 106.28Z" fill="white"/>
<path d="M57.6002 112.091C57.0369 112.091 56.4866 112.017 55.9492 111.87C55.4119 111.723 54.9829 111.536 54.6622 111.311L55.2862 110.076C55.5982 110.284 55.9709 110.453 56.4042 110.583C56.8462 110.704 57.2795 110.765 57.7042 110.765C58.6749 110.765 59.1602 110.509 59.1602 109.998C59.1602 109.755 59.0346 109.586 58.7832 109.491C58.5406 109.396 58.1462 109.305 57.6002 109.218C57.0282 109.131 56.5602 109.032 56.1962 108.919C55.8409 108.806 55.5289 108.611 55.2602 108.334C55.0002 108.048 54.8702 107.654 54.8702 107.151C54.8702 106.492 55.1432 105.968 55.6892 105.578C56.2439 105.179 56.9892 104.98 57.9252 104.98C58.4019 104.98 58.8786 105.036 59.3552 105.149C59.8319 105.253 60.2219 105.396 60.5252 105.578L59.9012 106.813C59.3119 106.466 58.6489 106.293 57.9122 106.293C57.4355 106.293 57.0716 106.367 56.8202 106.514C56.5776 106.653 56.4562 106.839 56.4562 107.073C56.4562 107.333 56.5862 107.519 56.8462 107.632C57.1149 107.736 57.5266 107.836 58.0812 107.931C58.6359 108.018 59.0909 108.117 59.4462 108.23C59.8015 108.343 60.1049 108.533 60.3562 108.802C60.6162 109.071 60.7462 109.452 60.7462 109.946C60.7462 110.596 60.4646 111.116 59.9012 111.506C59.3379 111.896 58.5709 112.091 57.6002 112.091Z" fill="white"/>
<path d="M64.2906 112.091C63.7273 112.091 63.177 112.017 62.6396 111.87C62.1023 111.723 61.6733 111.536 61.3526 111.311L61.9766 110.076C62.2886 110.284 62.6613 110.453 63.0946 110.583C63.5366 110.704 63.97 110.765 64.3946 110.765C65.3653 110.765 65.8506 110.509 65.8506 109.998C65.8506 109.755 65.725 109.586 65.4736 109.491C65.231 109.396 64.8366 109.305 64.2906 109.218C63.7186 109.131 63.2506 109.032 62.8866 108.919C62.5313 108.806 62.2193 108.611 61.9506 108.334C61.6906 108.048 61.5606 107.654 61.5606 107.151C61.5606 106.492 61.8336 105.968 62.3796 105.578C62.9343 105.179 63.6796 104.98 64.6156 104.98C65.0923 104.98 65.569 105.036 66.0456 105.149C66.5223 105.253 66.9123 105.396 67.2156 105.578L66.5916 106.813C66.0023 106.466 65.3393 106.293 64.6026 106.293C64.126 106.293 63.762 106.367 63.5106 106.514C63.268 106.653 63.1466 106.839 63.1466 107.073C63.1466 107.333 63.2766 107.519 63.5366 107.632C63.8053 107.736 64.217 107.836 64.7716 107.931C65.3263 108.018 65.7813 108.117 66.1366 108.23C66.492 108.343 66.7953 108.533 67.0466 108.802C67.3066 109.071 67.4366 109.452 67.4366 109.946C67.4366 110.596 67.155 111.116 66.5916 111.506C66.0283 111.896 65.2613 112.091 64.2906 112.091Z" fill="white"/>
<path d="M77.5981 104.98C78.4734 104.98 79.1667 105.236 79.6781 105.747C80.1894 106.25 80.4451 107.008 80.4451 108.022V112H78.8201V108.23C78.8201 107.623 78.6857 107.168 78.4171 106.865C78.1484 106.553 77.7627 106.397 77.2601 106.397C76.7141 106.397 76.2764 106.579 75.9471 106.943C75.6177 107.298 75.4531 107.81 75.4531 108.477V112H73.8281V108.23C73.8281 107.623 73.6937 107.168 73.4251 106.865C73.1564 106.553 72.7707 106.397 72.2681 106.397C71.7134 106.397 71.2714 106.575 70.9421 106.93C70.6214 107.285 70.4611 107.801 70.4611 108.477V112H68.8361V105.058H70.3831V105.942C70.6431 105.63 70.9681 105.392 71.3581 105.227C71.7481 105.062 72.1814 104.98 72.6581 104.98C73.1781 104.98 73.6374 105.08 74.0361 105.279C74.4434 105.47 74.7641 105.756 74.9981 106.137C75.2841 105.773 75.6524 105.491 76.1031 105.292C76.5537 105.084 77.0521 104.98 77.5981 104.98Z" fill="white"/>
<path d="M89.1111 108.568C89.1111 108.681 89.1024 108.841 89.0851 109.049H83.6381C83.7334 109.56 83.9804 109.968 84.3791 110.271C84.7864 110.566 85.2891 110.713 85.8871 110.713C86.6498 110.713 87.2781 110.462 87.7721 109.959L88.6431 110.96C88.3311 111.333 87.9368 111.614 87.4601 111.805C86.9834 111.996 86.4461 112.091 85.8481 112.091C85.0854 112.091 84.4138 111.939 83.8331 111.636C83.2524 111.333 82.8018 110.912 82.4811 110.375C82.1691 109.829 82.0131 109.214 82.0131 108.529C82.0131 107.853 82.1648 107.246 82.4681 106.709C82.7801 106.163 83.2091 105.738 83.7551 105.435C84.3011 105.132 84.9164 104.98 85.6011 104.98C86.2771 104.98 86.8794 105.132 87.4081 105.435C87.9454 105.73 88.3614 106.15 88.6561 106.696C88.9594 107.233 89.1111 107.857 89.1111 108.568ZM85.6011 106.28C85.0811 106.28 84.6391 106.436 84.2751 106.748C83.9198 107.051 83.7031 107.459 83.6251 107.97H87.5641C87.4948 107.467 87.2824 107.06 86.9271 106.748C86.5718 106.436 86.1298 106.28 85.6011 106.28Z" fill="white"/>
<path d="M94.611 104.98C95.4863 104.98 96.1884 105.236 96.717 105.747C97.2457 106.258 97.51 107.017 97.51 108.022V112H95.885V108.23C95.885 107.623 95.742 107.168 95.456 106.865C95.17 106.553 94.7627 106.397 94.234 106.397C93.636 106.397 93.1637 106.579 92.817 106.943C92.4703 107.298 92.297 107.814 92.297 108.49V112H90.672V105.058H92.219V105.955C92.4877 105.634 92.8257 105.392 93.233 105.227C93.6404 105.062 94.0997 104.98 94.611 104.98Z" fill="white"/>
<path d="M103.744 111.623C103.554 111.779 103.32 111.896 103.042 111.974C102.774 112.052 102.488 112.091 102.184 112.091C101.422 112.091 100.832 111.892 100.416 111.493C100 111.094 99.7924 110.514 99.7924 109.751V106.41H98.6484V105.11H99.7924V103.524H101.417V105.11H103.276V106.41H101.417V109.712C101.417 110.05 101.5 110.31 101.664 110.492C101.829 110.665 102.067 110.752 102.379 110.752C102.743 110.752 103.047 110.657 103.289 110.466L103.744 111.623Z" fill="white"/>
<path d="M118.437 112.91C118.134 113.265 117.778 113.534 117.371 113.716C116.972 113.898 116.535 113.989 116.058 113.989C115.434 113.989 114.862 113.846 114.342 113.56C113.822 113.283 113.228 112.797 112.561 112.104C111.72 112.035 110.966 111.792 110.299 111.376C109.632 110.951 109.112 110.401 108.739 109.725C108.366 109.04 108.18 108.282 108.18 107.45C108.18 106.566 108.392 105.769 108.817 105.058C109.242 104.339 109.827 103.78 110.572 103.381C111.317 102.974 112.154 102.77 113.081 102.77C114.008 102.77 114.845 102.974 115.59 103.381C116.335 103.78 116.92 104.334 117.345 105.045C117.77 105.756 117.982 106.557 117.982 107.45C117.982 108.169 117.839 108.837 117.553 109.452C117.267 110.059 116.868 110.579 116.357 111.012C115.846 111.437 115.252 111.744 114.576 111.935C114.827 112.204 115.074 112.399 115.317 112.52C115.56 112.641 115.82 112.702 116.097 112.702C116.695 112.702 117.215 112.459 117.657 111.974L118.437 112.91ZM109.883 107.45C109.883 108.057 110.022 108.607 110.299 109.101C110.576 109.586 110.958 109.968 111.443 110.245C111.928 110.514 112.474 110.648 113.081 110.648C113.688 110.648 114.234 110.514 114.719 110.245C115.204 109.968 115.586 109.586 115.863 109.101C116.14 108.607 116.279 108.057 116.279 107.45C116.279 106.843 116.14 106.297 115.863 105.812C115.586 105.318 115.204 104.937 114.719 104.668C114.234 104.391 113.688 104.252 113.081 104.252C112.474 104.252 111.928 104.391 111.443 104.668C110.958 104.937 110.576 105.318 110.299 105.812C110.022 106.297 109.883 106.843 109.883 107.45Z" fill="white"/>
<path d="M126.338 105.058V112H124.791V111.116C124.531 111.428 124.206 111.671 123.816 111.844C123.426 112.009 123.006 112.091 122.555 112.091C121.628 112.091 120.896 111.835 120.358 111.324C119.83 110.804 119.565 110.037 119.565 109.023V105.058H121.19V108.802C121.19 109.426 121.329 109.894 121.606 110.206C121.892 110.509 122.295 110.661 122.815 110.661C123.396 110.661 123.855 110.483 124.193 110.128C124.54 109.764 124.713 109.244 124.713 108.568V105.058H126.338Z" fill="white"/>
<path d="M128.466 105.058H130.091V112H128.466V105.058ZM129.285 103.914C128.99 103.914 128.743 103.823 128.544 103.641C128.345 103.45 128.245 103.216 128.245 102.939C128.245 102.662 128.345 102.432 128.544 102.25C128.743 102.059 128.99 101.964 129.285 101.964C129.58 101.964 129.827 102.055 130.026 102.237C130.225 102.41 130.325 102.631 130.325 102.9C130.325 103.186 130.225 103.429 130.026 103.628C129.835 103.819 129.588 103.914 129.285 103.914Z" fill="white"/>
<path d="M137.645 110.7V112H131.652V110.973L135.461 106.358H131.73V105.058H137.541V106.085L133.719 110.7H137.645Z" fill="white"/>
<path d="M145.567 108.568C145.567 108.681 145.558 108.841 145.541 109.049H140.094C140.189 109.56 140.436 109.968 140.835 110.271C141.242 110.566 141.745 110.713 142.343 110.713C143.106 110.713 143.734 110.462 144.228 109.959L145.099 110.96C144.787 111.333 144.393 111.614 143.916 111.805C143.439 111.996 142.902 112.091 142.304 112.091C141.541 112.091 140.87 111.939 140.289 111.636C139.708 111.333 139.258 110.912 138.937 110.375C138.625 109.829 138.469 109.214 138.469 108.529C138.469 107.853 138.621 107.246 138.924 106.709C139.236 106.163 139.665 105.738 140.211 105.435C140.757 105.132 141.372 104.98 142.057 104.98C142.733 104.98 143.335 105.132 143.864 105.435C144.401 105.73 144.817 106.15 145.112 106.696C145.415 107.233 145.567 107.857 145.567 108.568ZM142.057 106.28C141.537 106.28 141.095 106.436 140.731 106.748C140.376 107.051 140.159 107.459 140.081 107.97H144.02C143.951 107.467 143.738 107.06 143.383 106.748C143.028 106.436 142.586 106.28 142.057 106.28Z" fill="white"/>
<path d="M149.273 112.091C148.71 112.091 148.159 112.017 147.622 111.87C147.085 111.723 146.656 111.536 146.335 111.311L146.959 110.076C147.271 110.284 147.644 110.453 148.077 110.583C148.519 110.704 148.952 110.765 149.377 110.765C150.348 110.765 150.833 110.509 150.833 109.998C150.833 109.755 150.707 109.586 150.456 109.491C150.213 109.396 149.819 109.305 149.273 109.218C148.701 109.131 148.233 109.032 147.869 108.919C147.514 108.806 147.202 108.611 146.933 108.334C146.673 108.048 146.543 107.654 146.543 107.151C146.543 106.492 146.816 105.968 147.362 105.578C147.917 105.179 148.662 104.98 149.598 104.98C150.075 104.98 150.551 105.036 151.028 105.149C151.505 105.253 151.895 105.396 152.198 105.578L151.574 106.813C150.985 106.466 150.322 106.293 149.585 106.293C149.108 106.293 148.744 106.367 148.493 106.514C148.25 106.653 148.129 106.839 148.129 107.073C148.129 107.333 148.259 107.519 148.519 107.632C148.788 107.736 149.199 107.836 149.754 107.931C150.309 108.018 150.764 108.117 151.119 108.23C151.474 108.343 151.778 108.533 152.029 108.802C152.289 109.071 152.419 109.452 152.419 109.946C152.419 110.596 152.137 111.116 151.574 111.506C151.011 111.896 150.244 112.091 149.273 112.091Z" fill="white"/>
<path d="M56.2006 118.9V128H54.5106V124.1H49.8046V128H48.1146V118.9H49.8046V122.657H54.5106V118.9H56.2006Z" fill="white"/>
<path d="M61.135 120.98C62.1577 120.98 62.9377 121.227 63.475 121.721C64.021 122.206 64.294 122.943 64.294 123.931V128H62.76V127.155C62.5607 127.458 62.2747 127.692 61.9021 127.857C61.538 128.013 61.096 128.091 60.576 128.091C60.056 128.091 59.601 128.004 59.211 127.831C58.821 127.649 58.5177 127.402 58.301 127.09C58.093 126.769 57.989 126.41 57.989 126.011C57.989 125.387 58.2187 124.889 58.6781 124.516C59.1461 124.135 59.8784 123.944 60.875 123.944H62.669V123.84C62.669 123.355 62.5217 122.982 62.2271 122.722C61.9411 122.462 61.512 122.332 60.94 122.332C60.55 122.332 60.1644 122.393 59.7831 122.514C59.4104 122.635 59.094 122.804 58.834 123.021L58.197 121.838C58.561 121.561 58.9987 121.348 59.51 121.201C60.0214 121.054 60.563 120.98 61.135 120.98ZM60.9141 126.908C61.3214 126.908 61.681 126.817 61.993 126.635C62.3137 126.444 62.539 126.176 62.669 125.829V125.023H60.9921C60.0561 125.023 59.5881 125.331 59.5881 125.946C59.5881 126.241 59.705 126.475 59.939 126.648C60.173 126.821 60.4981 126.908 60.9141 126.908Z" fill="white"/>
<path d="M70.3185 120.98C71.1939 120.98 71.8959 121.236 72.4245 121.747C72.9532 122.258 73.2175 123.017 73.2175 124.022V128H71.5925V124.23C71.5925 123.623 71.4495 123.168 71.1635 122.865C70.8775 122.553 70.4702 122.397 69.9415 122.397C69.3435 122.397 68.8712 122.579 68.5245 122.943C68.1779 123.298 68.0045 123.814 68.0045 124.49V128H66.3795V121.058H67.9265V121.955C68.1952 121.634 68.5332 121.392 68.9405 121.227C69.3479 121.062 69.8072 120.98 70.3185 120.98Z" fill="white"/>
<path d="M82.1414 118.354V128H80.5814V127.103C80.3128 127.432 79.9791 127.679 79.5804 127.844C79.1904 128.009 78.7571 128.091 78.2804 128.091C77.6131 128.091 77.0108 127.944 76.4734 127.649C75.9448 127.354 75.5288 126.938 75.2254 126.401C74.9221 125.855 74.7704 125.231 74.7704 124.529C74.7704 123.827 74.9221 123.207 75.2254 122.67C75.5288 122.133 75.9448 121.717 76.4734 121.422C77.0108 121.127 77.6131 120.98 78.2804 120.98C78.7398 120.98 79.1601 121.058 79.5414 121.214C79.9228 121.37 80.2478 121.604 80.5164 121.916V118.354H82.1414ZM78.4754 126.7C78.8654 126.7 79.2164 126.613 79.5284 126.44C79.8404 126.258 80.0874 126.002 80.2694 125.673C80.4514 125.344 80.5424 124.962 80.5424 124.529C80.5424 124.096 80.4514 123.714 80.2694 123.385C80.0874 123.056 79.8404 122.804 79.5284 122.631C79.2164 122.449 78.8654 122.358 78.4754 122.358C78.0854 122.358 77.7344 122.449 77.4224 122.631C77.1104 122.804 76.8634 123.056 76.6814 123.385C76.4994 123.714 76.4084 124.096 76.4084 124.529C76.4084 124.962 76.4994 125.344 76.6814 125.673C76.8634 126.002 77.1104 126.258 77.4224 126.44C77.7344 126.613 78.0854 126.7 78.4754 126.7Z" fill="white"/>
<path d="M90.7932 124.568C90.7932 124.681 90.7846 124.841 90.7672 125.049H85.3202C85.4156 125.56 85.6626 125.968 86.0612 126.271C86.4686 126.566 86.9712 126.713 87.5692 126.713C88.3319 126.713 88.9602 126.462 89.4542 125.959L90.3252 126.96C90.0132 127.333 89.6189 127.614 89.1422 127.805C88.6656 127.996 88.1282 128.091 87.5302 128.091C86.7676 128.091 86.0959 127.939 85.5152 127.636C84.9346 127.333 84.4839 126.912 84.1632 126.375C83.8512 125.829 83.6952 125.214 83.6952 124.529C83.6952 123.853 83.8469 123.246 84.1502 122.709C84.4622 122.163 84.8912 121.738 85.4372 121.435C85.9832 121.132 86.5986 120.98 87.2832 120.98C87.9592 120.98 88.5616 121.132 89.0902 121.435C89.6276 121.73 90.0436 122.15 90.3382 122.696C90.6416 123.233 90.7932 123.857 90.7932 124.568ZM87.2832 122.28C86.7632 122.28 86.3212 122.436 85.9572 122.748C85.6019 123.051 85.3852 123.459 85.3072 123.97H89.2462C89.1769 123.467 88.9646 123.06 88.6092 122.748C88.2539 122.436 87.8119 122.28 87.2832 122.28Z" fill="white"/>
<path d="M99.1531 118.354V128H97.5931V127.103C97.3245 127.432 96.9908 127.679 96.5921 127.844C96.2021 128.009 95.7688 128.091 95.2921 128.091C94.6248 128.091 94.0225 127.944 93.4851 127.649C92.9565 127.354 92.5405 126.938 92.2371 126.401C91.9338 125.855 91.7822 125.231 91.7822 124.529C91.7822 123.827 91.9338 123.207 92.2371 122.67C92.5405 122.133 92.9565 121.717 93.4851 121.422C94.0225 121.127 94.6248 120.98 95.2921 120.98C95.7515 120.98 96.1718 121.058 96.5531 121.214C96.9345 121.37 97.2595 121.604 97.5281 121.916V118.354H99.1531ZM95.4871 126.7C95.8771 126.7 96.2281 126.613 96.5401 126.44C96.8521 126.258 97.0992 126.002 97.2812 125.673C97.4632 125.344 97.5541 124.962 97.5541 124.529C97.5541 124.096 97.4632 123.714 97.2812 123.385C97.0992 123.056 96.8521 122.804 96.5401 122.631C96.2281 122.449 95.8771 122.358 95.4871 122.358C95.0971 122.358 94.7462 122.449 94.4342 122.631C94.1222 122.804 93.8751 123.056 93.6931 123.385C93.5111 123.714 93.4202 124.096 93.4202 124.529C93.4202 124.962 93.5111 125.344 93.6931 125.673C93.8751 126.002 94.1222 126.258 94.4342 126.44C94.7462 126.613 95.0971 126.7 95.4871 126.7Z" fill="white"/>
<path d="M109.279 128.13C108.351 128.13 107.515 127.931 106.77 127.532C106.024 127.125 105.439 126.566 105.015 125.855C104.59 125.136 104.378 124.334 104.378 123.45C104.378 122.566 104.59 121.769 105.015 121.058C105.439 120.339 106.024 119.78 106.77 119.381C107.515 118.974 108.351 118.77 109.279 118.77C110.206 118.77 111.042 118.974 111.788 119.381C112.533 119.78 113.118 120.334 113.543 121.045C113.967 121.756 114.18 122.557 114.18 123.45C114.18 124.343 113.967 125.144 113.543 125.855C113.118 126.566 112.533 127.125 111.788 127.532C111.042 127.931 110.206 128.13 109.279 128.13ZM109.279 126.648C109.885 126.648 110.431 126.514 110.917 126.245C111.402 125.968 111.783 125.586 112.061 125.101C112.338 124.607 112.477 124.057 112.477 123.45C112.477 122.843 112.338 122.297 112.061 121.812C111.783 121.318 111.402 120.937 110.917 120.668C110.431 120.391 109.885 120.252 109.279 120.252C108.672 120.252 108.126 120.391 107.641 120.668C107.155 120.937 106.774 121.318 106.497 121.812C106.219 122.297 106.081 122.843 106.081 123.45C106.081 124.057 106.219 124.607 106.497 125.101C106.774 125.586 107.155 125.968 107.641 126.245C108.126 126.514 108.672 126.648 109.279 126.648Z" fill="white"/>
<path d="M122.536 121.058V128H120.989V127.116C120.729 127.428 120.404 127.671 120.014 127.844C119.624 128.009 119.204 128.091 118.753 128.091C117.826 128.091 117.093 127.835 116.556 127.324C116.027 126.804 115.763 126.037 115.763 125.023V121.058H117.388V124.802C117.388 125.426 117.527 125.894 117.804 126.206C118.09 126.509 118.493 126.661 119.013 126.661C119.594 126.661 120.053 126.483 120.391 126.128C120.738 125.764 120.911 125.244 120.911 124.568V121.058H122.536Z" fill="white"/>
<path d="M128.837 127.623C128.646 127.779 128.412 127.896 128.135 127.974C127.866 128.052 127.58 128.091 127.277 128.091C126.514 128.091 125.925 127.892 125.509 127.493C125.093 127.094 124.885 126.514 124.885 125.751V122.41H123.741V121.11H124.885V119.524H126.51V121.11H128.369V122.41H126.51V125.712C126.51 126.05 126.592 126.31 126.757 126.492C126.921 126.665 127.16 126.752 127.472 126.752C127.836 126.752 128.139 126.657 128.382 126.466L128.837 127.623Z" fill="white"/>
</svg>
