<svg width="193" height="193" viewBox="0 0 193 193" fill="none" xmlns="http://www.w3.org/2000/svg">
<circle cx="96.5" cy="96.5" r="96.5" fill="#87BEFD"/>
<path d="M64.9052 71.315C68.1392 71.315 70.5262 71.975 72.0662 73.295C73.6282 74.615 74.4092 76.375 74.4092 78.575C74.4092 80.005 74.0352 81.325 73.2872 82.535C72.5612 83.723 71.4392 84.68 69.9212 85.406C68.4252 86.11 66.5662 86.462 64.3442 86.462C62.7162 86.462 61.0992 86.264 59.4932 85.868C57.9092 85.472 56.5452 84.911 55.4012 84.185L57.7442 79.268C58.6682 79.884 59.6802 80.357 60.7802 80.687C61.9022 81.017 63.0242 81.182 64.1462 81.182C65.2682 81.182 66.1592 80.973 66.8192 80.555C67.5012 80.115 67.8422 79.51 67.8422 78.74C67.8422 77.97 67.5122 77.387 66.8522 76.991C66.1922 76.595 65.0262 76.397 63.3542 76.397H57.0842L58.2392 62.9H72.9572V67.949H63.6512L63.3542 71.315H64.9052ZM79.8681 78.872C80.9461 78.872 81.8371 79.213 82.5411 79.895C83.2451 80.577 83.5971 81.468 83.5971 82.568C83.5971 83.074 83.5311 83.58 83.3991 84.086C83.2671 84.592 82.9701 85.351 82.5081 86.363L80.4291 91.181H76.5021L78.0531 85.802C77.4371 85.516 76.9531 85.098 76.6011 84.548C76.2711 83.976 76.1061 83.316 76.1061 82.568C76.1061 81.468 76.4581 80.577 77.1621 79.895C77.8661 79.213 78.7681 78.872 79.8681 78.872ZM97.8191 72.14C99.7331 72.536 101.196 73.328 102.208 74.516C103.242 75.682 103.759 77.101 103.759 78.773C103.759 80.137 103.385 81.402 102.637 82.568C101.911 83.734 100.789 84.68 99.2711 85.406C97.7751 86.11 95.9161 86.462 93.6941 86.462C92.0661 86.462 90.4491 86.264 88.8431 85.868C87.2591 85.472 85.8841 84.911 84.7181 84.185L87.0941 79.268C87.9961 79.884 89.0081 80.357 90.1301 80.687C91.2741 81.017 92.3961 81.182 93.4961 81.182C94.6181 81.182 95.5091 80.973 96.1691 80.555C96.8291 80.137 97.1591 79.543 97.1591 78.773C97.1591 77.277 95.9821 76.529 93.6281 76.529H90.8891V72.404L95.0141 67.949H85.9061V62.9H102.604V66.992L97.8191 72.14ZM115.756 62.9V86H109.222V67.949H104.932V62.9H115.756ZM137.083 80.819V86H119.098V81.908L127.744 73.823C128.58 73.031 129.141 72.36 129.427 71.81C129.713 71.238 129.856 70.666 129.856 70.094C129.856 69.346 129.603 68.763 129.097 68.345C128.591 67.927 127.854 67.718 126.886 67.718C126.028 67.718 125.236 67.916 124.51 68.312C123.806 68.686 123.223 69.236 122.761 69.962L117.91 67.256C118.812 65.76 120.077 64.583 121.705 63.725C123.333 62.867 125.258 62.438 127.48 62.438C129.24 62.438 130.791 62.724 132.133 63.296C133.497 63.868 134.553 64.693 135.301 65.771C136.071 66.827 136.456 68.059 136.456 69.467C136.456 70.721 136.181 71.909 135.631 73.031C135.103 74.131 134.069 75.385 132.529 76.793L128.173 80.819H137.083Z" fill="white"/>
<rect x="67" y="99" width="60" height="1" fill="white"/>
<path d="M34.7834 121.156C34.064 121.156 33.3664 121.061 32.6904 120.87C32.023 120.671 31.4857 120.415 31.0784 120.103L31.7934 118.517C32.1834 118.803 32.647 119.033 33.1844 119.206C33.7217 119.379 34.259 119.466 34.7964 119.466C35.3944 119.466 35.8364 119.379 36.1224 119.206C36.4084 119.024 36.5514 118.786 36.5514 118.491C36.5514 118.274 36.4647 118.097 36.2914 117.958C36.1267 117.811 35.91 117.694 35.6414 117.607C35.3814 117.52 35.026 117.425 34.5754 117.321C33.882 117.156 33.3144 116.992 32.8724 116.827C32.4304 116.662 32.049 116.398 31.7284 116.034C31.4164 115.67 31.2604 115.185 31.2604 114.578C31.2604 114.049 31.4034 113.573 31.6894 113.148C31.9754 112.715 32.4044 112.372 32.9764 112.121C33.557 111.87 34.2634 111.744 35.0954 111.744C35.676 111.744 36.2437 111.813 36.7984 111.952C37.353 112.091 37.8384 112.29 38.2544 112.55L37.6044 114.149C36.7637 113.672 35.923 113.434 35.0824 113.434C34.493 113.434 34.0554 113.529 33.7694 113.72C33.492 113.911 33.3534 114.162 33.3534 114.474C33.3534 114.786 33.5137 115.02 33.8344 115.176C34.1637 115.323 34.662 115.471 35.3294 115.618C36.0227 115.783 36.5904 115.947 37.0324 116.112C37.4744 116.277 37.8514 116.537 38.1634 116.892C38.484 117.247 38.6444 117.728 38.6444 118.335C38.6444 118.855 38.497 119.332 38.2024 119.765C37.9164 120.19 37.483 120.528 36.9024 120.779C36.3217 121.03 35.6154 121.156 34.7834 121.156ZM44.4514 120.662C44.2521 120.809 44.0051 120.922 43.7104 121C43.4244 121.069 43.1211 121.104 42.8004 121.104C41.9684 121.104 41.3227 120.892 40.8634 120.467C40.4127 120.042 40.1874 119.418 40.1874 118.595V115.722H39.1084V114.162H40.1874V112.459H42.2154V114.162H43.9574V115.722H42.2154V118.569C42.2154 118.864 42.2891 119.093 42.4364 119.258C42.5924 119.414 42.8091 119.492 43.0864 119.492C43.4071 119.492 43.6801 119.405 43.9054 119.232L44.4514 120.662ZM52.6358 114.006V121H50.7118V120.168C50.4431 120.471 50.1225 120.705 49.7498 120.87C49.3771 121.026 48.9741 121.104 48.5408 121.104C47.6221 121.104 46.8941 120.84 46.3568 120.311C45.8195 119.782 45.5508 118.998 45.5508 117.958V114.006H47.5788V117.659C47.5788 118.786 48.0511 119.349 48.9958 119.349C49.4811 119.349 49.8711 119.193 50.1658 118.881C50.4605 118.56 50.6078 118.088 50.6078 117.464V114.006H52.6358ZM61.6386 111.354V121H59.7016V120.194C59.1989 120.801 58.4709 121.104 57.5176 121.104C56.8589 121.104 56.2609 120.957 55.7236 120.662C55.1949 120.367 54.7789 119.947 54.4756 119.401C54.1723 118.855 54.0206 118.222 54.0206 117.503C54.0206 116.784 54.1723 116.151 54.4756 115.605C54.7789 115.059 55.1949 114.639 55.7236 114.344C56.2609 114.049 56.8589 113.902 57.5176 113.902C58.4103 113.902 59.1079 114.184 59.6106 114.747V111.354H61.6386ZM57.8686 119.44C58.3799 119.44 58.8046 119.267 59.1426 118.92C59.4806 118.565 59.6496 118.092 59.6496 117.503C59.6496 116.914 59.4806 116.446 59.1426 116.099C58.8046 115.744 58.3799 115.566 57.8686 115.566C57.3486 115.566 56.9196 115.744 56.5816 116.099C56.2436 116.446 56.0746 116.914 56.0746 117.503C56.0746 118.092 56.2436 118.565 56.5816 118.92C56.9196 119.267 57.3486 119.44 57.8686 119.44ZM70.3666 117.529C70.3666 117.555 70.3536 117.737 70.3276 118.075H65.0366C65.1319 118.508 65.3573 118.851 65.7126 119.102C66.0679 119.353 66.5099 119.479 67.0386 119.479C67.4026 119.479 67.7233 119.427 68.0006 119.323C68.2866 119.21 68.5509 119.037 68.7936 118.803L69.8726 119.973C69.2139 120.727 68.2519 121.104 66.9866 121.104C66.1979 121.104 65.5003 120.952 64.8936 120.649C64.2869 120.337 63.8189 119.908 63.4896 119.362C63.1603 118.816 62.9956 118.196 62.9956 117.503C62.9956 116.818 63.1559 116.203 63.4766 115.657C63.8059 115.102 64.2523 114.673 64.8156 114.37C65.3876 114.058 66.0246 113.902 66.7266 113.902C67.4113 113.902 68.0309 114.049 68.5856 114.344C69.1403 114.639 69.5736 115.063 69.8856 115.618C70.2063 116.164 70.3666 116.801 70.3666 117.529ZM66.7396 115.436C66.2803 115.436 65.8946 115.566 65.5826 115.826C65.2706 116.086 65.0799 116.441 65.0106 116.892H68.4556C68.3863 116.45 68.1956 116.099 67.8836 115.839C67.5716 115.57 67.1903 115.436 66.7396 115.436ZM75.9678 113.902C76.8344 113.902 77.5321 114.162 78.0608 114.682C78.5981 115.202 78.8668 115.973 78.8668 116.996V121H76.8388V117.308C76.8388 116.753 76.7174 116.342 76.4748 116.073C76.2321 115.796 75.8811 115.657 75.4218 115.657C74.9104 115.657 74.5031 115.817 74.1998 116.138C73.8964 116.45 73.7448 116.918 73.7448 117.542V121H71.7168V114.006H73.6538V114.825C73.9224 114.53 74.2561 114.305 74.6548 114.149C75.0534 113.984 75.4911 113.902 75.9678 113.902ZM85.216 120.662C85.0167 120.809 84.7697 120.922 84.475 121C84.189 121.069 83.8857 121.104 83.565 121.104C82.733 121.104 82.0874 120.892 81.628 120.467C81.1774 120.042 80.952 119.418 80.952 118.595V115.722H79.873V114.162H80.952V112.459H82.98V114.162H84.722V115.722H82.98V118.569C82.98 118.864 83.0537 119.093 83.201 119.258C83.357 119.414 83.5737 119.492 83.851 119.492C84.1717 119.492 84.4447 119.405 84.67 119.232L85.216 120.662ZM88.7075 121.104C88.1268 121.104 87.5591 121.035 87.0045 120.896C86.4498 120.749 86.0078 120.567 85.6785 120.35L86.3545 118.894C86.6665 119.093 87.0435 119.258 87.4855 119.388C87.9275 119.509 88.3608 119.57 88.7855 119.57C89.6435 119.57 90.0725 119.358 90.0725 118.933C90.0725 118.734 89.9555 118.591 89.7215 118.504C89.4875 118.417 89.1278 118.344 88.6425 118.283C88.0705 118.196 87.5981 118.097 87.2255 117.984C86.8528 117.871 86.5278 117.672 86.2505 117.386C85.9818 117.1 85.8475 116.693 85.8475 116.164C85.8475 115.722 85.9731 115.332 86.2245 114.994C86.4845 114.647 86.8571 114.379 87.3425 114.188C87.8365 113.997 88.4171 113.902 89.0845 113.902C89.5785 113.902 90.0681 113.958 90.5535 114.071C91.0475 114.175 91.4548 114.322 91.7755 114.513L91.0995 115.956C90.4841 115.609 89.8125 115.436 89.0845 115.436C88.6511 115.436 88.3261 115.497 88.1095 115.618C87.8928 115.739 87.7845 115.895 87.7845 116.086C87.7845 116.303 87.9015 116.454 88.1355 116.541C88.3695 116.628 88.7421 116.71 89.2535 116.788C89.8255 116.883 90.2935 116.987 90.6575 117.1C91.0215 117.204 91.3378 117.399 91.6065 117.685C91.8751 117.971 92.0095 118.37 92.0095 118.881C92.0095 119.314 91.8795 119.7 91.6195 120.038C91.3595 120.376 90.9781 120.64 90.4755 120.831C89.9815 121.013 89.3921 121.104 88.7075 121.104ZM97.0853 111.9H99.1913V121H97.0853V111.9ZM110.165 113.902C111.04 113.902 111.734 114.162 112.245 114.682C112.765 115.193 113.025 115.965 113.025 116.996V121H110.997V117.308C110.997 116.753 110.88 116.342 110.646 116.073C110.421 115.796 110.096 115.657 109.671 115.657C109.194 115.657 108.817 115.813 108.54 116.125C108.263 116.428 108.124 116.883 108.124 117.49V121H106.096V117.308C106.096 116.207 105.654 115.657 104.77 115.657C104.302 115.657 103.929 115.813 103.652 116.125C103.375 116.428 103.236 116.883 103.236 117.49V121H101.208V114.006H103.145V114.812C103.405 114.517 103.721 114.292 104.094 114.136C104.475 113.98 104.891 113.902 105.342 113.902C105.836 113.902 106.282 114.002 106.681 114.201C107.08 114.392 107.4 114.673 107.643 115.046C107.929 114.682 108.289 114.4 108.722 114.201C109.164 114.002 109.645 113.902 110.165 113.902ZM118.977 113.902C119.627 113.902 120.216 114.054 120.745 114.357C121.282 114.652 121.702 115.072 122.006 115.618C122.309 116.155 122.461 116.784 122.461 117.503C122.461 118.222 122.309 118.855 122.006 119.401C121.702 119.938 121.282 120.359 120.745 120.662C120.216 120.957 119.627 121.104 118.977 121.104C118.084 121.104 117.382 120.822 116.871 120.259V123.522H114.843V114.006H116.78V114.812C117.282 114.205 118.015 113.902 118.977 113.902ZM118.626 119.44C119.146 119.44 119.57 119.267 119.9 118.92C120.238 118.565 120.407 118.092 120.407 117.503C120.407 116.914 120.238 116.446 119.9 116.099C119.57 115.744 119.146 115.566 118.626 115.566C118.106 115.566 117.677 115.744 117.339 116.099C117.009 116.446 116.845 116.914 116.845 117.503C116.845 118.092 117.009 118.565 117.339 118.92C117.677 119.267 118.106 119.44 118.626 119.44ZM126.525 113.902C127.608 113.902 128.44 114.162 129.021 114.682C129.602 115.193 129.892 115.969 129.892 117.009V121H127.994V120.129C127.613 120.779 126.902 121.104 125.862 121.104C125.325 121.104 124.857 121.013 124.458 120.831C124.068 120.649 123.769 120.398 123.561 120.077C123.353 119.756 123.249 119.392 123.249 118.985C123.249 118.335 123.492 117.824 123.977 117.451C124.471 117.078 125.229 116.892 126.252 116.892H127.864C127.864 116.45 127.73 116.112 127.461 115.878C127.192 115.635 126.789 115.514 126.252 115.514C125.879 115.514 125.511 115.575 125.147 115.696C124.792 115.809 124.488 115.965 124.237 116.164L123.509 114.747C123.89 114.478 124.345 114.27 124.874 114.123C125.411 113.976 125.962 113.902 126.525 113.902ZM126.369 119.739C126.716 119.739 127.023 119.661 127.292 119.505C127.561 119.34 127.751 119.102 127.864 118.79V118.075H126.473C125.641 118.075 125.225 118.348 125.225 118.894C125.225 119.154 125.325 119.362 125.524 119.518C125.732 119.665 126.014 119.739 126.369 119.739ZM135.184 121.104C134.438 121.104 133.767 120.952 133.169 120.649C132.579 120.337 132.116 119.908 131.778 119.362C131.448 118.816 131.284 118.196 131.284 117.503C131.284 116.81 131.448 116.19 131.778 115.644C132.116 115.098 132.579 114.673 133.169 114.37C133.767 114.058 134.438 113.902 135.184 113.902C135.92 113.902 136.562 114.058 137.108 114.37C137.662 114.673 138.065 115.111 138.317 115.683L136.744 116.528C136.38 115.887 135.855 115.566 135.171 115.566C134.642 115.566 134.204 115.739 133.858 116.086C133.511 116.433 133.338 116.905 133.338 117.503C133.338 118.101 133.511 118.573 133.858 118.92C134.204 119.267 134.642 119.44 135.171 119.44C135.864 119.44 136.388 119.119 136.744 118.478L138.317 119.336C138.065 119.891 137.662 120.324 137.108 120.636C136.562 120.948 135.92 121.104 135.184 121.104ZM144.097 120.662C143.898 120.809 143.651 120.922 143.356 121C143.07 121.069 142.767 121.104 142.446 121.104C141.614 121.104 140.968 120.892 140.509 120.467C140.058 120.042 139.833 119.418 139.833 118.595V115.722H138.754V114.162H139.833V112.459H141.861V114.162H143.603V115.722H141.861V118.569C141.861 118.864 141.935 119.093 142.082 119.258C142.238 119.414 142.455 119.492 142.732 119.492C143.053 119.492 143.326 119.405 143.551 119.232L144.097 120.662ZM151.87 117.529C151.87 117.555 151.857 117.737 151.831 118.075H146.54C146.636 118.508 146.861 118.851 147.216 119.102C147.572 119.353 148.014 119.479 148.542 119.479C148.906 119.479 149.227 119.427 149.504 119.323C149.79 119.21 150.055 119.037 150.297 118.803L151.376 119.973C150.718 120.727 149.756 121.104 148.49 121.104C147.702 121.104 147.004 120.952 146.397 120.649C145.791 120.337 145.323 119.908 144.993 119.362C144.664 118.816 144.499 118.196 144.499 117.503C144.499 116.818 144.66 116.203 144.98 115.657C145.31 115.102 145.756 114.673 146.319 114.37C146.891 114.058 147.528 113.902 148.23 113.902C148.915 113.902 149.535 114.049 150.089 114.344C150.644 114.639 151.077 115.063 151.389 115.618C151.71 116.164 151.87 116.801 151.87 117.529ZM148.243 115.436C147.784 115.436 147.398 115.566 147.086 115.826C146.774 116.086 146.584 116.441 146.514 116.892H149.959C149.89 116.45 149.699 116.099 149.387 115.839C149.075 115.57 148.694 115.436 148.243 115.436ZM160.345 111.354V121H158.408V120.194C157.905 120.801 157.177 121.104 156.224 121.104C155.565 121.104 154.967 120.957 154.43 120.662C153.901 120.367 153.485 119.947 153.182 119.401C152.878 118.855 152.727 118.222 152.727 117.503C152.727 116.784 152.878 116.151 153.182 115.605C153.485 115.059 153.901 114.639 154.43 114.344C154.967 114.049 155.565 113.902 156.224 113.902C157.116 113.902 157.814 114.184 158.317 114.747V111.354H160.345ZM156.575 119.44C157.086 119.44 157.511 119.267 157.849 118.92C158.187 118.565 158.356 118.092 158.356 117.503C158.356 116.914 158.187 116.446 157.849 116.099C157.511 115.744 157.086 115.566 156.575 115.566C156.055 115.566 155.626 115.744 155.288 116.099C154.95 116.446 154.781 116.914 154.781 117.503C154.781 118.092 154.95 118.565 155.288 118.92C155.626 119.267 156.055 119.44 156.575 119.44Z" fill="white"/>
</svg>
