<svg width="193" height="193" viewBox="0 0 193 193" fill="none" xmlns="http://www.w3.org/2000/svg">
<circle cx="96.5" cy="96.5" r="96.5" fill="#87BEFD"/>
<path d="M89.5587 71.3154C92.7927 71.3154 95.1797 71.9754 96.7197 73.2954C98.2817 74.6154 99.0627 76.3754 99.0627 78.5754C99.0627 80.0054 98.6887 81.3254 97.9407 82.5354C97.2147 83.7234 96.0927 84.6804 94.5747 85.4064C93.0787 86.1104 91.2197 86.4624 88.9977 86.4624C87.3697 86.4624 85.7527 86.2644 84.1467 85.8684C82.5627 85.4724 81.1987 84.9114 80.0547 84.1854L82.3977 79.2684C83.3217 79.8844 84.3337 80.3574 85.4337 80.6874C86.5557 81.0174 87.6777 81.1824 88.7997 81.1824C89.9217 81.1824 90.8127 80.9734 91.4727 80.5554C92.1547 80.1154 92.4957 79.5104 92.4957 78.7404C92.4957 77.9704 92.1657 77.3874 91.5057 76.9914C90.8457 76.5954 89.6797 76.3974 88.0077 76.3974H81.7377L82.8927 62.9004H97.6107V67.9494H88.3047L88.0077 71.3154H89.5587Z" fill="white"/>
<path d="M110.858 62.9004V86.0004H104.324V67.9494H100.034V62.9004H110.858Z" fill="white"/>
<rect x="67" y="99" width="60" height="1" fill="white"/>
<path d="M39.1698 121.156C38.4505 121.156 37.7528 121.06 37.0768 120.87C36.4095 120.67 35.8722 120.415 35.4648 120.103L36.1798 118.517C36.5698 118.803 37.0335 119.032 37.5708 119.206C38.1082 119.379 38.6455 119.466 39.1828 119.466C39.7808 119.466 40.2228 119.379 40.5088 119.206C40.7948 119.024 40.9378 118.785 40.9378 118.491C40.9378 118.274 40.8512 118.096 40.6778 117.958C40.5132 117.81 40.2965 117.693 40.0278 117.607C39.7678 117.52 39.4125 117.425 38.9618 117.321C38.2685 117.156 37.7008 116.991 37.2588 116.827C36.8168 116.662 36.4355 116.398 36.1148 116.034C35.8028 115.67 35.6468 115.184 35.6468 114.578C35.6468 114.049 35.7898 113.572 36.0758 113.148C36.3618 112.714 36.7908 112.372 37.3628 112.121C37.9435 111.869 38.6498 111.744 39.4818 111.744C40.0625 111.744 40.6302 111.813 41.1848 111.952C41.7395 112.09 42.2248 112.29 42.6408 112.55L41.9908 114.149C41.1502 113.672 40.3095 113.434 39.4688 113.434C38.8795 113.434 38.4418 113.529 38.1558 113.72C37.8785 113.91 37.7398 114.162 37.7398 114.474C37.7398 114.786 37.9002 115.02 38.2208 115.176C38.5502 115.323 39.0485 115.47 39.7158 115.618C40.4092 115.782 40.9768 115.947 41.4188 116.112C41.8608 116.276 42.2378 116.536 42.5498 116.892C42.8705 117.247 43.0308 117.728 43.0308 118.335C43.0308 118.855 42.8835 119.331 42.5888 119.765C42.3028 120.189 41.8695 120.527 41.2888 120.779C40.7082 121.03 40.0018 121.156 39.1698 121.156Z" fill="white"/>
<path d="M47.7069 121.104C46.9616 121.104 46.2899 120.952 45.6919 120.649C45.1025 120.337 44.6389 119.908 44.3009 119.362C43.9716 118.816 43.8069 118.196 43.8069 117.503C43.8069 116.809 43.9716 116.19 44.3009 115.644C44.6389 115.098 45.1025 114.673 45.6919 114.37C46.2899 114.058 46.9616 113.902 47.7069 113.902C48.4436 113.902 49.0849 114.058 49.6309 114.37C50.1856 114.673 50.5886 115.111 50.8399 115.683L49.2669 116.528C48.9029 115.886 48.3786 115.566 47.6939 115.566C47.1652 115.566 46.7276 115.739 46.3809 116.086C46.0342 116.432 45.8609 116.905 45.8609 117.503C45.8609 118.101 46.0342 118.573 46.3809 118.92C46.7276 119.266 47.1652 119.44 47.6939 119.44C48.3872 119.44 48.9116 119.119 49.2669 118.478L50.8399 119.336C50.5886 119.89 50.1856 120.324 49.6309 120.636C49.0849 120.948 48.4436 121.104 47.7069 121.104Z" fill="white"/>
<path d="M56.2078 113.902C57.0744 113.902 57.7721 114.162 58.3008 114.682C58.8381 115.202 59.1068 115.973 59.1068 116.996V121H57.0788V117.308C57.0788 116.753 56.9574 116.341 56.7148 116.073C56.4721 115.795 56.1211 115.657 55.6618 115.657C55.1504 115.657 54.7431 115.817 54.4398 116.138C54.1364 116.45 53.9848 116.918 53.9848 117.542V121H51.9568V111.354H53.9848V114.734C54.2534 114.465 54.5784 114.261 54.9598 114.123C55.3411 113.975 55.7571 113.902 56.2078 113.902Z" fill="white"/>
<path d="M64.3492 121.104C63.6126 121.104 62.9496 120.952 62.3602 120.649C61.7796 120.337 61.3246 119.908 60.9952 119.362C60.6659 118.816 60.5012 118.196 60.5012 117.503C60.5012 116.809 60.6659 116.19 60.9952 115.644C61.3246 115.098 61.7796 114.673 62.3602 114.37C62.9496 114.058 63.6126 113.902 64.3492 113.902C65.0859 113.902 65.7446 114.058 66.3252 114.37C66.9059 114.673 67.3609 115.098 67.6902 115.644C68.0196 116.19 68.1842 116.809 68.1842 117.503C68.1842 118.196 68.0196 118.816 67.6902 119.362C67.3609 119.908 66.9059 120.337 66.3252 120.649C65.7446 120.952 65.0859 121.104 64.3492 121.104ZM64.3492 119.44C64.8692 119.44 65.2939 119.266 65.6232 118.92C65.9612 118.564 66.1302 118.092 66.1302 117.503C66.1302 116.913 65.9612 116.445 65.6232 116.099C65.2939 115.743 64.8692 115.566 64.3492 115.566C63.8292 115.566 63.4002 115.743 63.0622 116.099C62.7242 116.445 62.5552 116.913 62.5552 117.503C62.5552 118.092 62.7242 118.564 63.0622 118.92C63.4002 119.266 63.8292 119.44 64.3492 119.44Z" fill="white"/>
<path d="M72.8678 121.104C72.1311 121.104 71.4681 120.952 70.8788 120.649C70.2981 120.337 69.8431 119.908 69.5138 119.362C69.1844 118.816 69.0198 118.196 69.0198 117.503C69.0198 116.809 69.1844 116.19 69.5138 115.644C69.8431 115.098 70.2981 114.673 70.8788 114.37C71.4681 114.058 72.1311 113.902 72.8678 113.902C73.6044 113.902 74.2631 114.058 74.8438 114.37C75.4244 114.673 75.8794 115.098 76.2088 115.644C76.5381 116.19 76.7028 116.809 76.7028 117.503C76.7028 118.196 76.5381 118.816 76.2088 119.362C75.8794 119.908 75.4244 120.337 74.8438 120.649C74.2631 120.952 73.6044 121.104 72.8678 121.104ZM72.8678 119.44C73.3878 119.44 73.8124 119.266 74.1418 118.92C74.4798 118.564 74.6488 118.092 74.6488 117.503C74.6488 116.913 74.4798 116.445 74.1418 116.099C73.8124 115.743 73.3878 115.566 72.8678 115.566C72.3478 115.566 71.9188 115.743 71.5808 116.099C71.2428 116.445 71.0738 116.913 71.0738 117.503C71.0738 118.092 71.2428 118.564 71.5808 118.92C71.9188 119.266 72.3478 119.44 72.8678 119.44Z" fill="white"/>
<path d="M78.0583 111.354H80.0863V121H78.0583V111.354Z" fill="white"/>
<path d="M84.3215 121.104C83.7408 121.104 83.1732 121.034 82.6185 120.896C82.0638 120.748 81.6218 120.566 81.2925 120.35L81.9685 118.894C82.2805 119.093 82.6575 119.258 83.0995 119.388C83.5415 119.509 83.9748 119.57 84.3995 119.57C85.2575 119.57 85.6865 119.357 85.6865 118.933C85.6865 118.733 85.5695 118.59 85.3355 118.504C85.1015 118.417 84.7418 118.343 84.2565 118.283C83.6845 118.196 83.2122 118.096 82.8395 117.984C82.4668 117.871 82.1418 117.672 81.8645 117.386C81.5958 117.1 81.4615 116.692 81.4615 116.164C81.4615 115.722 81.5872 115.332 81.8385 114.994C82.0985 114.647 82.4712 114.378 82.9565 114.188C83.4505 113.997 84.0312 113.902 84.6985 113.902C85.1925 113.902 85.6822 113.958 86.1675 114.071C86.6615 114.175 87.0688 114.322 87.3895 114.513L86.7135 115.956C86.0982 115.609 85.4265 115.436 84.6985 115.436C84.2652 115.436 83.9402 115.496 83.7235 115.618C83.5068 115.739 83.3985 115.895 83.3985 116.086C83.3985 116.302 83.5155 116.454 83.7495 116.541C83.9835 116.627 84.3562 116.71 84.8675 116.788C85.4395 116.883 85.9075 116.987 86.2715 117.1C86.6355 117.204 86.9518 117.399 87.2205 117.685C87.4892 117.971 87.6235 118.369 87.6235 118.881C87.6235 119.314 87.4935 119.7 87.2335 120.038C86.9735 120.376 86.5922 120.64 86.0895 120.831C85.5955 121.013 85.0062 121.104 84.3215 121.104Z" fill="white"/>
<path d="M92.6994 111.9H94.8054V121H92.6994V111.9Z" fill="white"/>
<path d="M105.779 113.902C106.654 113.902 107.348 114.162 107.859 114.682C108.379 115.193 108.639 115.964 108.639 116.996V121H106.611V117.308C106.611 116.753 106.494 116.341 106.26 116.073C106.035 115.795 105.71 115.657 105.285 115.657C104.808 115.657 104.431 115.813 104.154 116.125C103.877 116.428 103.738 116.883 103.738 117.49V121H101.71V117.308C101.71 116.207 101.268 115.657 100.384 115.657C99.916 115.657 99.5433 115.813 99.266 116.125C98.9887 116.428 98.85 116.883 98.85 117.49V121H96.822V114.006H98.759V114.812C99.019 114.517 99.3353 114.292 99.708 114.136C100.089 113.98 100.505 113.902 100.956 113.902C101.45 113.902 101.896 114.001 102.295 114.201C102.694 114.391 103.014 114.673 103.257 115.046C103.543 114.682 103.903 114.4 104.336 114.201C104.778 114.001 105.259 113.902 105.779 113.902Z" fill="white"/>
<path d="M114.591 113.902C115.241 113.902 115.83 114.053 116.359 114.357C116.896 114.651 117.316 115.072 117.62 115.618C117.923 116.155 118.075 116.783 118.075 117.503C118.075 118.222 117.923 118.855 117.62 119.401C117.316 119.938 116.896 120.358 116.359 120.662C115.83 120.956 115.241 121.104 114.591 121.104C113.698 121.104 112.996 120.822 112.485 120.259V123.522H110.457V114.006H112.394V114.812C112.896 114.205 113.629 113.902 114.591 113.902ZM114.24 119.44C114.76 119.44 115.184 119.266 115.514 118.92C115.852 118.564 116.021 118.092 116.021 117.503C116.021 116.913 115.852 116.445 115.514 116.099C115.184 115.743 114.76 115.566 114.24 115.566C113.72 115.566 113.291 115.743 112.953 116.099C112.623 116.445 112.459 116.913 112.459 117.503C112.459 118.092 112.623 118.564 112.953 118.92C113.291 119.266 113.72 119.44 114.24 119.44Z" fill="white"/>
<path d="M122.139 113.902C123.222 113.902 124.054 114.162 124.635 114.682C125.216 115.193 125.506 115.969 125.506 117.009V121H123.608V120.129C123.227 120.779 122.516 121.104 121.476 121.104C120.939 121.104 120.471 121.013 120.072 120.831C119.682 120.649 119.383 120.397 119.175 120.077C118.967 119.756 118.863 119.392 118.863 118.985C118.863 118.335 119.106 117.823 119.591 117.451C120.085 117.078 120.843 116.892 121.866 116.892H123.478C123.478 116.45 123.344 116.112 123.075 115.878C122.806 115.635 122.403 115.514 121.866 115.514C121.493 115.514 121.125 115.574 120.761 115.696C120.406 115.808 120.102 115.964 119.851 116.164L119.123 114.747C119.504 114.478 119.959 114.27 120.488 114.123C121.025 113.975 121.576 113.902 122.139 113.902ZM121.983 119.739C122.33 119.739 122.637 119.661 122.906 119.505C123.175 119.34 123.365 119.102 123.478 118.79V118.075H122.087C121.255 118.075 120.839 118.348 120.839 118.894C120.839 119.154 120.939 119.362 121.138 119.518C121.346 119.665 121.628 119.739 121.983 119.739Z" fill="white"/>
<path d="M130.798 121.104C130.052 121.104 129.381 120.952 128.783 120.649C128.193 120.337 127.73 119.908 127.392 119.362C127.062 118.816 126.898 118.196 126.898 117.503C126.898 116.809 127.062 116.19 127.392 115.644C127.73 115.098 128.193 114.673 128.783 114.37C129.381 114.058 130.052 113.902 130.798 113.902C131.534 113.902 132.176 114.058 132.722 114.37C133.276 114.673 133.679 115.111 133.931 115.683L132.358 116.528C131.994 115.886 131.469 115.566 130.785 115.566C130.256 115.566 129.818 115.739 129.472 116.086C129.125 116.432 128.952 116.905 128.952 117.503C128.952 118.101 129.125 118.573 129.472 118.92C129.818 119.266 130.256 119.44 130.785 119.44C131.478 119.44 132.002 119.119 132.358 118.478L133.931 119.336C133.679 119.89 133.276 120.324 132.722 120.636C132.176 120.948 131.534 121.104 130.798 121.104Z" fill="white"/>
<path d="M139.711 120.662C139.512 120.809 139.265 120.922 138.97 121C138.684 121.069 138.381 121.104 138.06 121.104C137.228 121.104 136.582 120.891 136.123 120.467C135.672 120.042 135.447 119.418 135.447 118.595V115.722H134.368V114.162H135.447V112.459H137.475V114.162H139.217V115.722H137.475V118.569C137.475 118.863 137.549 119.093 137.696 119.258C137.852 119.414 138.069 119.492 138.346 119.492C138.667 119.492 138.94 119.405 139.165 119.232L139.711 120.662Z" fill="white"/>
<path d="M147.485 117.529C147.485 117.555 147.472 117.737 147.446 118.075H142.155C142.25 118.508 142.475 118.85 142.831 119.102C143.186 119.353 143.628 119.479 144.157 119.479C144.521 119.479 144.841 119.427 145.119 119.323C145.405 119.21 145.669 119.037 145.912 118.803L146.991 119.973C146.332 120.727 145.37 121.104 144.105 121.104C143.316 121.104 142.618 120.952 142.012 120.649C141.405 120.337 140.937 119.908 140.608 119.362C140.278 118.816 140.114 118.196 140.114 117.503C140.114 116.818 140.274 116.203 140.595 115.657C140.924 115.102 141.37 114.673 141.934 114.37C142.506 114.058 143.143 113.902 143.845 113.902C144.529 113.902 145.149 114.049 145.704 114.344C146.258 114.638 146.692 115.063 147.004 115.618C147.324 116.164 147.485 116.801 147.485 117.529ZM143.858 115.436C143.398 115.436 143.013 115.566 142.701 115.826C142.389 116.086 142.198 116.441 142.129 116.892H145.574C145.504 116.45 145.314 116.099 145.002 115.839C144.69 115.57 144.308 115.436 143.858 115.436Z" fill="white"/>
<path d="M155.959 111.354V121H154.022V120.194C153.519 120.8 152.791 121.104 151.838 121.104C151.179 121.104 150.581 120.956 150.044 120.662C149.515 120.367 149.099 119.947 148.796 119.401C148.492 118.855 148.341 118.222 148.341 117.503C148.341 116.783 148.492 116.151 148.796 115.605C149.099 115.059 149.515 114.638 150.044 114.344C150.581 114.049 151.179 113.902 151.838 113.902C152.73 113.902 153.428 114.183 153.931 114.747V111.354H155.959ZM152.189 119.44C152.7 119.44 153.125 119.266 153.463 118.92C153.801 118.564 153.97 118.092 153.97 117.503C153.97 116.913 153.801 116.445 153.463 116.099C153.125 115.743 152.7 115.566 152.189 115.566C151.669 115.566 151.24 115.743 150.902 116.099C150.564 116.445 150.395 116.913 150.395 117.503C150.395 118.092 150.564 118.564 150.902 118.92C151.24 119.266 151.669 119.44 152.189 119.44Z" fill="white"/>
</svg>
