<svg width="193" height="193" viewBox="0 0 193 193" fill="none" xmlns="http://www.w3.org/2000/svg">
<circle cx="96.5" cy="96.5" r="96.5" fill="#87BEFD"/>
<path d="M79.4363 62.9005V86.0005H72.9023V67.9495H68.6123V62.9005H79.4363Z" fill="white"/>
<path d="M101.687 62.9005V66.9925L93.5363 86.0005H86.4083L94.1963 68.0815H88.1243V71.6455H82.5473V62.9005H101.687Z" fill="white"/>
<path d="M113.313 86.4625C111.333 86.4625 109.573 85.9895 108.033 85.0435C106.493 84.0975 105.283 82.7225 104.403 80.9185C103.545 79.0925 103.116 76.9365 103.116 74.4505C103.116 71.9645 103.545 69.8195 104.403 68.0155C105.283 66.1895 106.493 64.8035 108.033 63.8575C109.573 62.9115 111.333 62.4385 113.313 62.4385C115.271 62.4385 117.02 62.9115 118.56 63.8575C120.1 64.8035 121.299 66.1895 122.157 68.0155C123.037 69.8195 123.477 71.9645 123.477 74.4505C123.477 76.9365 123.037 79.0925 122.157 80.9185C121.299 82.7225 120.1 84.0975 118.56 85.0435C117.02 85.9895 115.271 86.4625 113.313 86.4625ZM113.313 81.1165C114.413 81.1165 115.282 80.5885 115.92 79.5325C116.58 78.4545 116.91 76.7605 116.91 74.4505C116.91 72.1405 116.58 70.4575 115.92 69.4015C115.282 68.3235 114.413 67.7845 113.313 67.7845C112.191 67.7845 111.3 68.3235 110.64 69.4015C110.002 70.4575 109.683 72.1405 109.683 74.4505C109.683 76.7605 110.002 78.4545 110.64 79.5325C111.3 80.5885 112.191 81.1165 113.313 81.1165Z" fill="white"/>
<rect x="67" y="99" width="60" height="1" fill="white"/>
<path d="M35.2784 119.31V121H28.2324V111.9H35.1094V113.59H30.3254V115.566H34.5504V117.204H30.3254V119.31H35.2784Z" fill="white"/>
<path d="M43.8843 111.354V121H41.9473V120.194C41.4447 120.8 40.7167 121.104 39.7633 121.104C39.1047 121.104 38.5067 120.956 37.9693 120.662C37.4407 120.367 37.0247 119.947 36.7213 119.401C36.418 118.855 36.2663 118.222 36.2663 117.503C36.2663 116.783 36.418 116.151 36.7213 115.605C37.0247 115.059 37.4407 114.638 37.9693 114.344C38.5067 114.049 39.1047 113.902 39.7633 113.902C40.656 113.902 41.3537 114.183 41.8563 114.747V111.354H43.8843ZM40.1143 119.44C40.6257 119.44 41.0503 119.266 41.3883 118.92C41.7263 118.564 41.8953 118.092 41.8953 117.503C41.8953 116.913 41.7263 116.445 41.3883 116.099C41.0503 115.743 40.6257 115.566 40.1143 115.566C39.5943 115.566 39.1653 115.743 38.8273 116.099C38.4893 116.445 38.3203 116.913 38.3203 117.503C38.3203 118.092 38.4893 118.564 38.8273 118.92C39.1653 119.266 39.5943 119.44 40.1143 119.44Z" fill="white"/>
<path d="M52.8073 114.006V121H50.8833V120.168C50.6146 120.471 50.294 120.705 49.9213 120.87C49.5486 121.026 49.1456 121.104 48.7123 121.104C47.7936 121.104 47.0656 120.839 46.5283 120.311C45.991 119.782 45.7223 118.998 45.7223 117.958V114.006H47.7503V117.659C47.7503 118.785 48.2226 119.349 49.1673 119.349C49.6526 119.349 50.0426 119.193 50.3373 118.881C50.632 118.56 50.7793 118.088 50.7793 117.464V114.006H52.8073Z" fill="white"/>
<path d="M58.0661 121.104C57.3208 121.104 56.6491 120.952 56.0511 120.649C55.4618 120.337 54.9981 119.908 54.6601 119.362C54.3308 118.816 54.1661 118.196 54.1661 117.503C54.1661 116.809 54.3308 116.19 54.6601 115.644C54.9981 115.098 55.4618 114.673 56.0511 114.37C56.6491 114.058 57.3208 113.902 58.0661 113.902C58.8028 113.902 59.4441 114.058 59.9901 114.37C60.5448 114.673 60.9478 115.111 61.1991 115.683L59.6261 116.528C59.2621 115.886 58.7378 115.566 58.0531 115.566C57.5244 115.566 57.0868 115.739 56.7401 116.086C56.3934 116.432 56.2201 116.905 56.2201 117.503C56.2201 118.101 56.3934 118.573 56.7401 118.92C57.0868 119.266 57.5244 119.44 58.0531 119.44C58.7464 119.44 59.2708 119.119 59.6261 118.478L61.1991 119.336C60.9478 119.89 60.5448 120.324 59.9901 120.636C59.4441 120.948 58.8028 121.104 58.0661 121.104Z" fill="white"/>
<path d="M65.1878 113.902C66.2711 113.902 67.1031 114.162 67.6838 114.682C68.2644 115.193 68.5548 115.969 68.5548 117.009V121H66.6568V120.129C66.2754 120.779 65.5648 121.104 64.5248 121.104C63.9874 121.104 63.5194 121.013 63.1208 120.831C62.7308 120.649 62.4318 120.397 62.2238 120.077C62.0158 119.756 61.9118 119.392 61.9118 118.985C61.9118 118.335 62.1544 117.823 62.6398 117.451C63.1338 117.078 63.8921 116.892 64.9148 116.892H66.5268C66.5268 116.45 66.3924 116.112 66.1238 115.878C65.8551 115.635 65.4521 115.514 64.9148 115.514C64.5421 115.514 64.1738 115.574 63.8098 115.696C63.4544 115.808 63.1511 115.964 62.8998 116.164L62.1718 114.747C62.5531 114.478 63.0081 114.27 63.5368 114.123C64.0741 113.975 64.6244 113.902 65.1878 113.902ZM65.0318 119.739C65.3784 119.739 65.6861 119.661 65.9548 119.505C66.2234 119.34 66.4141 119.102 66.5268 118.79V118.075H65.1358C64.3038 118.075 63.8878 118.348 63.8878 118.894C63.8878 119.154 63.9874 119.362 64.1868 119.518C64.3948 119.665 64.6764 119.739 65.0318 119.739Z" fill="white"/>
<path d="M74.9012 120.662C74.7019 120.809 74.4549 120.922 74.1602 121C73.8742 121.069 73.5709 121.104 73.2502 121.104C72.4182 121.104 71.7725 120.891 71.3132 120.467C70.8625 120.042 70.6372 119.418 70.6372 118.595V115.722H69.5582V114.162H70.6372V112.459H72.6652V114.162H74.4072V115.722H72.6652V118.569C72.6652 118.863 72.7389 119.093 72.8862 119.258C73.0422 119.414 73.2589 119.492 73.5362 119.492C73.8569 119.492 74.1299 119.405 74.3552 119.232L74.9012 120.662Z" fill="white"/>
<path d="M79.1518 121.104C78.4151 121.104 77.7521 120.952 77.1628 120.649C76.5821 120.337 76.1271 119.908 75.7978 119.362C75.4685 118.816 75.3038 118.196 75.3038 117.503C75.3038 116.809 75.4685 116.19 75.7978 115.644C76.1271 115.098 76.5821 114.673 77.1628 114.37C77.7521 114.058 78.4151 113.902 79.1518 113.902C79.8885 113.902 80.5471 114.058 81.1278 114.37C81.7085 114.673 82.1635 115.098 82.4928 115.644C82.8221 116.19 82.9868 116.809 82.9868 117.503C82.9868 118.196 82.8221 118.816 82.4928 119.362C82.1635 119.908 81.7085 120.337 81.1278 120.649C80.5471 120.952 79.8885 121.104 79.1518 121.104ZM79.1518 119.44C79.6718 119.44 80.0965 119.266 80.4258 118.92C80.7638 118.564 80.9328 118.092 80.9328 117.503C80.9328 116.913 80.7638 116.445 80.4258 116.099C80.0965 115.743 79.6718 115.566 79.1518 115.566C78.6318 115.566 78.2028 115.743 77.8648 116.099C77.5268 116.445 77.3578 116.913 77.3578 117.503C77.3578 118.092 77.5268 118.564 77.8648 118.92C78.2028 119.266 78.6318 119.44 79.1518 119.44Z" fill="white"/>
<path d="M86.2794 114.929C86.522 114.591 86.847 114.335 87.2543 114.162C87.6703 113.988 88.147 113.902 88.6843 113.902V115.774C88.459 115.756 88.3073 115.748 88.2293 115.748C87.6487 115.748 87.1937 115.912 86.8643 116.242C86.535 116.562 86.3703 117.048 86.3703 117.698V121H84.3423V114.006H86.2794V114.929Z" fill="white"/>
<path d="M92.2686 121.104C91.6879 121.104 91.1203 121.034 90.5656 120.896C90.0109 120.748 89.5689 120.566 89.2396 120.35L89.9156 118.894C90.2276 119.093 90.6046 119.258 91.0466 119.388C91.4886 119.509 91.9219 119.57 92.3466 119.57C93.2046 119.57 93.6336 119.357 93.6336 118.933C93.6336 118.733 93.5166 118.59 93.2826 118.504C93.0486 118.417 92.6889 118.343 92.2036 118.283C91.6316 118.196 91.1593 118.096 90.7866 117.984C90.4139 117.871 90.0889 117.672 89.8116 117.386C89.5429 117.1 89.4086 116.692 89.4086 116.164C89.4086 115.722 89.5343 115.332 89.7856 114.994C90.0456 114.647 90.4183 114.378 90.9036 114.188C91.3976 113.997 91.9783 113.902 92.6456 113.902C93.1396 113.902 93.6293 113.958 94.1146 114.071C94.6086 114.175 95.0159 114.322 95.3366 114.513L94.6606 115.956C94.0453 115.609 93.3736 115.436 92.6456 115.436C92.2123 115.436 91.8873 115.496 91.6706 115.618C91.4539 115.739 91.3456 115.895 91.3456 116.086C91.3456 116.302 91.4626 116.454 91.6966 116.541C91.9306 116.627 92.3033 116.71 92.8146 116.788C93.3866 116.883 93.8546 116.987 94.2186 117.1C94.5826 117.204 94.8989 117.399 95.1676 117.685C95.4363 117.971 95.5706 118.369 95.5706 118.881C95.5706 119.314 95.4406 119.7 95.1806 120.038C94.9206 120.376 94.5393 120.64 94.0366 120.831C93.5426 121.013 92.9533 121.104 92.2686 121.104Z" fill="white"/>
<path d="M100.646 111.9H102.752V121H100.646V111.9Z" fill="white"/>
<path d="M113.726 113.902C114.601 113.902 115.295 114.162 115.806 114.682C116.326 115.193 116.586 115.964 116.586 116.996V121H114.558V117.308C114.558 116.753 114.441 116.341 114.207 116.073C113.982 115.795 113.657 115.657 113.232 115.657C112.755 115.657 112.378 115.813 112.101 116.125C111.824 116.428 111.685 116.883 111.685 117.49V121H109.657V117.308C109.657 116.207 109.215 115.657 108.331 115.657C107.863 115.657 107.49 115.813 107.213 116.125C106.936 116.428 106.797 116.883 106.797 117.49V121H104.769V114.006H106.706V114.812C106.966 114.517 107.282 114.292 107.655 114.136C108.036 113.98 108.452 113.902 108.903 113.902C109.397 113.902 109.843 114.001 110.242 114.201C110.641 114.391 110.961 114.673 111.204 115.046C111.49 114.682 111.85 114.4 112.283 114.201C112.725 114.001 113.206 113.902 113.726 113.902Z" fill="white"/>
<path d="M122.538 113.902C123.188 113.902 123.777 114.053 124.306 114.357C124.843 114.651 125.264 115.072 125.567 115.618C125.87 116.155 126.022 116.783 126.022 117.503C126.022 118.222 125.87 118.855 125.567 119.401C125.264 119.938 124.843 120.358 124.306 120.662C123.777 120.956 123.188 121.104 122.538 121.104C121.645 121.104 120.943 120.822 120.432 120.259V123.522H118.404V114.006H120.341V114.812C120.844 114.205 121.576 113.902 122.538 113.902ZM122.187 119.44C122.707 119.44 123.132 119.266 123.461 118.92C123.799 118.564 123.968 118.092 123.968 117.503C123.968 116.913 123.799 116.445 123.461 116.099C123.132 115.743 122.707 115.566 122.187 115.566C121.667 115.566 121.238 115.743 120.9 116.099C120.571 116.445 120.406 116.913 120.406 117.503C120.406 118.092 120.571 118.564 120.9 118.92C121.238 119.266 121.667 119.44 122.187 119.44Z" fill="white"/>
<path d="M130.086 113.902C131.17 113.902 132.002 114.162 132.582 114.682C133.163 115.193 133.453 115.969 133.453 117.009V121H131.555V120.129C131.174 120.779 130.463 121.104 129.423 121.104C128.886 121.104 128.418 121.013 128.019 120.831C127.629 120.649 127.33 120.397 127.122 120.077C126.914 119.756 126.81 119.392 126.81 118.985C126.81 118.335 127.053 117.823 127.538 117.451C128.032 117.078 128.791 116.892 129.813 116.892H131.425C131.425 116.45 131.291 116.112 131.022 115.878C130.754 115.635 130.351 115.514 129.813 115.514C129.441 115.514 129.072 115.574 128.708 115.696C128.353 115.808 128.05 115.964 127.798 116.164L127.07 114.747C127.452 114.478 127.907 114.27 128.435 114.123C128.973 113.975 129.523 113.902 130.086 113.902ZM129.93 119.739C130.277 119.739 130.585 119.661 130.853 119.505C131.122 119.34 131.313 119.102 131.425 118.79V118.075H130.034C129.202 118.075 128.786 118.348 128.786 118.894C128.786 119.154 128.886 119.362 129.085 119.518C129.293 119.665 129.575 119.739 129.93 119.739Z" fill="white"/>
<path d="M138.745 121.104C137.999 121.104 137.328 120.952 136.73 120.649C136.14 120.337 135.677 119.908 135.339 119.362C135.009 118.816 134.845 118.196 134.845 117.503C134.845 116.809 135.009 116.19 135.339 115.644C135.677 115.098 136.14 114.673 136.73 114.37C137.328 114.058 137.999 113.902 138.745 113.902C139.481 113.902 140.123 114.058 140.669 114.37C141.223 114.673 141.626 115.111 141.878 115.683L140.305 116.528C139.941 115.886 139.416 115.566 138.732 115.566C138.203 115.566 137.765 115.739 137.419 116.086C137.072 116.432 136.899 116.905 136.899 117.503C136.899 118.101 137.072 118.573 137.419 118.92C137.765 119.266 138.203 119.44 138.732 119.44C139.425 119.44 139.949 119.119 140.305 118.478L141.878 119.336C141.626 119.89 141.223 120.324 140.669 120.636C140.123 120.948 139.481 121.104 138.745 121.104Z" fill="white"/>
<path d="M147.658 120.662C147.459 120.809 147.212 120.922 146.917 121C146.631 121.069 146.328 121.104 146.007 121.104C145.175 121.104 144.529 120.891 144.07 120.467C143.619 120.042 143.394 119.418 143.394 118.595V115.722H142.315V114.162H143.394V112.459H145.422V114.162H147.164V115.722H145.422V118.569C145.422 118.863 145.496 119.093 145.643 119.258C145.799 119.414 146.016 119.492 146.293 119.492C146.614 119.492 146.887 119.405 147.112 119.232L147.658 120.662Z" fill="white"/>
<path d="M155.432 117.529C155.432 117.555 155.419 117.737 155.393 118.075H150.102C150.197 118.508 150.422 118.85 150.778 119.102C151.133 119.353 151.575 119.479 152.104 119.479C152.468 119.479 152.788 119.427 153.066 119.323C153.352 119.21 153.616 119.037 153.859 118.803L154.938 119.973C154.279 120.727 153.317 121.104 152.052 121.104C151.263 121.104 150.565 120.952 149.959 120.649C149.352 120.337 148.884 119.908 148.555 119.362C148.225 118.816 148.061 118.196 148.061 117.503C148.061 116.818 148.221 116.203 148.542 115.657C148.871 115.102 149.317 114.673 149.881 114.37C150.453 114.058 151.09 113.902 151.792 113.902C152.476 113.902 153.096 114.049 153.651 114.344C154.205 114.638 154.639 115.063 154.951 115.618C155.271 116.164 155.432 116.801 155.432 117.529ZM151.805 115.436C151.345 115.436 150.96 115.566 150.648 115.826C150.336 116.086 150.145 116.441 150.076 116.892H153.521C153.451 116.45 153.261 116.099 152.949 115.839C152.637 115.57 152.255 115.436 151.805 115.436Z" fill="white"/>
<path d="M163.906 111.354V121H161.969V120.194C161.466 120.8 160.738 121.104 159.785 121.104C159.126 121.104 158.528 120.956 157.991 120.662C157.462 120.367 157.046 119.947 156.743 119.401C156.439 118.855 156.288 118.222 156.288 117.503C156.288 116.783 156.439 116.151 156.743 115.605C157.046 115.059 157.462 114.638 157.991 114.344C158.528 114.049 159.126 113.902 159.785 113.902C160.677 113.902 161.375 114.183 161.878 114.747V111.354H163.906ZM160.136 119.44C160.647 119.44 161.072 119.266 161.41 118.92C161.748 118.564 161.917 118.092 161.917 117.503C161.917 116.913 161.748 116.445 161.41 116.099C161.072 115.743 160.647 115.566 160.136 115.566C159.616 115.566 159.187 115.743 158.849 116.099C158.511 116.445 158.342 116.913 158.342 117.503C158.342 118.092 158.511 118.564 158.849 118.92C159.187 119.266 159.616 119.44 160.136 119.44Z" fill="white"/>
</svg>
