<?xml version="1.0" encoding="UTF-8"?>
<svg width="919px" height="407px" viewBox="0 0 919 407" version="1.1" xmlns="http://www.w3.org/2000/svg" xmlns:xlink="http://www.w3.org/1999/xlink">
    <!-- Generator: Sketch 52.3 (67297) - http://www.bohemiancoding.com/sketch -->
    <title>Group 10</title>
    <desc>Created with Sketch.</desc>
    <defs>
        <path d="M1.01781915,2.16090909 L1.01781915,0.824545455 L6.43924468,0.824545455 L6.43924468,1.99545455 L4.19909574,4.40090909 C5.04743617,4.42636364 5.71020213,4.68272727 6.18739362,5.17090909 C6.66458511,5.65818182 6.90318085,6.24181818 6.90318085,6.92090909 C6.90318085,7.82818182 6.58315957,8.54090909 5.94217021,9.05909091 C5.30118085,9.57636364 4.47745745,9.83545455 3.47005319,9.83545455 C2.46264894,9.83545455 1.47702128,9.52545455 0.514117021,8.90636364 L1.17688298,7.69727273 C1.93717021,8.20636364 2.73248936,8.46090909 3.56284043,8.46090909 C4.10157447,8.46090909 4.54562766,8.34 4.895,8.09818182 C5.24437234,7.85636364 5.41858511,7.50818182 5.41858511,7.05454545 C5.41858511,6.6 5.22448936,6.23727273 4.83535106,5.96636364 C4.44621277,5.69454545 3.90747872,5.55909091 3.21820213,5.55909091 C2.87356383,5.55909091 2.54218085,5.60545455 2.22405319,5.69909091 L2.22405319,4.55363636 L4.37141489,2.16090909 L1.01781915,2.16090909 Z M12.6237979,4.29909091 C12.8889043,3.95090909 13.0214574,3.59909091 13.0214574,3.24272727 C13.0214574,2.88636364 12.880383,2.58272727 12.5972872,2.33272727 C12.3141915,2.08181818 11.9562979,1.95727273 11.5236064,1.95727273 C10.7633191,1.95727273 10.1317979,2.33 9.62809574,3.07727273 L8.36884043,2.37727273 C8.77502128,1.79181818 9.22380851,1.35 9.71425532,1.05363636 C10.2047021,0.756363636 10.8362234,0.608181818 11.609766,0.608181818 C12.3833085,0.608181818 13.0612234,0.843636364 13.6444574,1.31454545 C14.2276915,1.78545455 14.5193085,2.42818182 14.5193085,3.24272727 C14.5193085,3.70090909 14.3952766,4.13727273 14.1481596,4.55363636 C13.9010426,4.96909091 13.4456277,5.50363636 12.7828617,6.15727273 L10.6089894,8.28272727 L14.8109255,8.28272727 L14.8109255,9.72090909 L8.47488298,9.72090909 L8.47488298,8.44818182 L11.2850106,5.73727273 C11.9127447,5.12636364 12.3586915,4.64636364 12.6237979,4.29909091 Z M15.9452021,0.824545455 L19.3120532,0.824545455 L19.3120532,9.72090909 L17.8274574,9.72090909 L17.8274574,2.16090909 L15.9452021,2.16090909 L15.9452021,0.824545455 Z M26.9357553,7.69727273 L26.007883,9.72090909 L24.3377128,9.72090909 L28.4203511,0.824545455 L30.0905213,0.824545455 L34.1731596,9.72090909 L32.5029894,9.72090909 L31.575117,7.69727273 L26.9357553,7.69727273 Z M30.9388617,6.31 L29.2554362,2.64454545 L27.5720106,6.31 L30.9388617,6.31 Z M38.6733404,9.72090909 L36.9236383,9.72090909 L33.1988936,0.824545455 L34.9485957,0.824545455 L37.7984894,7.46818182 L40.648383,0.824545455 L42.3980851,0.824545455 L38.6733404,9.72090909 Z M50.2793191,0.824545455 L50.2793191,2.23727273 L45.3350851,2.23727273 L45.3350851,4.59181818 L49.775617,4.59181818 L49.775617,5.92818182 L45.3350851,5.92818182 L45.3350851,8.30818182 L50.438383,8.30818182 L50.438383,9.72090909 L43.7709574,9.72090909 L43.7709574,0.824545455 L50.2793191,0.824545455 Z M59.8837447,3.71363636 C59.8837447,5.18090909 59.2162447,6.10636364 57.8821915,6.48818182 L60.3079149,9.72090909 L58.319617,9.72090909 L56.1059787,6.73 L54.0514043,6.73 L54.0514043,9.72090909 L52.4872766,9.72090909 L52.4872766,0.824545455 L55.9336596,0.824545455 C57.3472447,0.824545455 58.359383,1.05363636 58.9691277,1.51181818 C59.5788723,1.97 59.8837447,2.70363636 59.8837447,3.71363636 Z M57.8026596,4.97363636 C58.1207872,4.71 58.2798511,4.28818182 58.2798511,3.70727273 C58.2798511,3.12545455 58.1160532,2.72727273 57.7894043,2.51090909 C57.4618085,2.29454545 56.8785745,2.18636364 56.0397021,2.18636364 L54.0514043,2.18636364 L54.0514043,5.36818182 L55.9999362,5.36818182 C56.8833085,5.36818182 57.4845319,5.23636364 57.8026596,4.97363636 Z M63.496766,7.69727273 L62.5688936,9.72090909 L60.8987234,9.72090909 L64.9813617,0.824545455 L66.6515319,0.824545455 L70.7341702,9.72090909 L69.064,9.72090909 L68.1361277,7.69727273 L63.496766,7.69727273 Z M67.4998723,6.31 L65.8164468,2.64454545 L64.1330213,6.31 L67.4998723,6.31 Z M78.4828511,5.39363636 L80.0469787,5.39363636 L80.0469787,8.43545455 C79.1721277,9.36 77.9213936,9.82272727 76.2957234,9.82272727 C74.9256915,9.82272727 73.7791064,9.39 72.8559681,8.52454545 C71.931883,7.65909091 71.4707872,6.56454545 71.4707872,5.24090909 C71.4707872,3.91727273 71.9413511,2.81363636 72.8824787,1.93181818 C73.8236064,1.04909091 74.9607234,0.608181818 76.2957234,0.608181818 C77.6297766,0.608181818 78.7384894,0.980909091 79.6228085,1.72818182 L78.7877234,2.87363636 C78.4250957,2.57636364 78.0605745,2.37090909 77.6941596,2.25636364 C77.3267979,2.14181818 76.900734,2.08454545 76.4150213,2.08454545 C75.4776809,2.08454545 74.6918298,2.37454545 74.0555745,2.95636364 C73.4193191,3.53727273 73.1011915,4.30090909 73.1011915,5.24727273 C73.1011915,6.19272727 73.4098511,6.95272727 74.0290638,7.52545455 C74.6473298,8.09818182 75.3962553,8.38454545 76.2758404,8.38454545 C77.1544787,8.38454545 77.8901489,8.20181818 78.4828511,7.83727273 L78.4828511,5.39363636 Z M88.6572553,0.824545455 L88.6572553,2.23727273 L83.7130213,2.23727273 L83.7130213,4.59181818 L88.1535532,4.59181818 L88.1535532,5.92818182 L83.7130213,5.92818182 L83.7130213,8.30818182 L88.8163191,8.30818182 L88.8163191,9.72090909 L82.1488936,9.72090909 L82.1488936,0.824545455 L88.6572553,0.824545455 Z" id="path-1"></path>
        <path d="M0.333201754,0.822727273 L1.88376316,0.822727273 L1.88376316,9.71909091 L0.333201754,9.71909091 L0.333201754,0.822727273 Z M11.3654649,0.822727273 L12.9160263,0.822727273 L12.9160263,9.71909091 L11.2340614,9.71909091 L6.03048246,3.22818182 L6.03048246,9.71909091 L4.47992105,9.71909091 L4.47992105,0.822727273 L6.03048246,0.822727273 L11.3654649,7.46636364 L11.3654649,0.822727273 Z M22.4634298,1.98727273 C23.3485263,2.76363636 23.7906053,3.84272727 23.7906053,5.22636364 C23.7906053,6.60909091 23.3616667,7.70363636 22.5028509,8.51 C21.6440351,9.31545455 20.33,9.71909091 18.5607456,9.71909091 L15.5121842,9.71909091 L15.5121842,0.822727273 L18.6658684,0.822727273 C20.3131053,0.822727273 21.5783333,1.21090909 22.4634298,1.98727273 Z M22.2269035,5.26454545 C22.2269035,3.22818182 21.0226842,2.21 18.613307,2.21 L17.0627456,2.21 L17.0627456,8.30636364 L18.7841316,8.30636364 C19.8963684,8.30636364 20.748614,8.04909091 21.3399298,7.53636364 C21.9312456,7.02272727 22.2269035,6.26545455 22.2269035,5.26454545 Z M25.8348684,0.822727273 L27.3854298,0.822727273 L27.3854298,9.71909091 L25.8348684,9.71909091 L25.8348684,0.822727273 Z M31.2824825,7.69545455 L30.3626579,9.71909091 L28.7069737,9.71909091 L32.7542018,0.822727273 L34.409886,0.822727273 L38.457114,9.71909091 L36.8014298,9.71909091 L35.8816053,7.69545455 L31.2824825,7.69545455 Z M35.2508684,6.30818182 L33.5820439,2.64272727 L31.9132193,6.30818182 L35.2508684,6.30818182 Z M44.7269386,7.69545455 L43.807114,9.71909091 L42.1514298,9.71909091 L46.1986579,0.822727273 L47.8543421,0.822727273 L51.9015702,9.71909091 L50.245886,9.71909091 L49.3260614,7.69545455 L44.7269386,7.69545455 Z M48.6953246,6.30818182 L47.0265,2.64272727 L45.3576754,6.30818182 L48.6953246,6.30818182 Z M56.3627193,9.71909091 L54.628193,9.71909091 L50.9357544,0.822727273 L52.6702807,0.822727273 L55.4954561,7.46636364 L58.3206316,0.822727273 L60.0551579,0.822727273 L56.3627193,9.71909091 Z M67.8680351,0.822727273 L67.8680351,2.23545455 L62.9666842,2.23545455 L62.9666842,4.59 L67.3687018,4.59 L67.3687018,5.92636364 L62.9666842,5.92636364 L62.9666842,8.30636364 L68.0257193,8.30636364 L68.0257193,9.71909091 L61.4161228,9.71909091 L61.4161228,0.822727273 L67.8680351,0.822727273 Z M77.3891579,3.71181818 C77.3891579,5.17909091 76.7274474,6.10454545 75.4049649,6.48636364 L77.8096491,9.71909091 L75.8385965,9.71909091 L73.6441579,6.72818182 L71.6074035,6.72818182 L71.6074035,9.71909091 L70.0568421,9.71909091 L70.0568421,0.822727273 L73.4733333,0.822727273 C74.8746579,0.822727273 75.8780175,1.05181818 76.4824737,1.51 C77.0869298,1.96818182 77.3891579,2.70181818 77.3891579,3.71181818 Z M75.3261228,4.97181818 C75.6414912,4.70818182 75.7991754,4.28636364 75.7991754,3.70545455 C75.7991754,3.12363636 75.6367982,2.72545455 75.3129825,2.50909091 C74.9882281,2.29272727 74.4100526,2.18454545 73.5784561,2.18454545 L71.6074035,2.18454545 L71.6074035,5.36636364 L73.5390351,5.36636364 C74.4147456,5.36636364 75.0107544,5.23454545 75.3261228,4.97181818 Z M80.9708421,7.69545455 L80.0510175,9.71909091 L78.3953333,9.71909091 L82.4425614,0.822727273 L84.0982456,0.822727273 L88.1454737,9.71909091 L86.4897895,9.71909091 L85.5699649,7.69545455 L80.9708421,7.69545455 Z M84.9392281,6.30818182 L83.2704035,2.64272727 L81.6015789,6.30818182 L84.9392281,6.30818182 Z M95.8269474,5.39181818 L97.3775088,5.39181818 L97.3775088,8.43363636 C96.5102456,9.35818182 95.2703596,9.82090909 93.6587895,9.82090909 C92.3006404,9.82090909 91.164,9.38818182 90.2488684,8.52272727 C89.3327982,7.65727273 88.8757018,6.56272727 88.8757018,5.23909091 C88.8757018,3.91545455 89.3421842,2.81181818 90.2751491,1.93 C91.208114,1.04727273 92.3353684,0.606363636 93.6587895,0.606363636 C94.9812719,0.606363636 96.0803684,0.979090909 96.9570175,1.72636364 L96.1291754,2.87181818 C95.769693,2.57454545 95.4083333,2.36909091 95.0450965,2.25454545 C94.6809211,2.14 94.2585526,2.08272727 93.7770526,2.08272727 C92.8478421,2.08272727 92.068807,2.37272727 91.4380702,2.95454545 C90.8073333,3.53545455 90.4919649,4.29909091 90.4919649,5.24545455 C90.4919649,6.19090909 90.7979474,6.95090909 91.4117895,7.52363636 C92.024693,8.09636364 92.7671228,8.38272727 93.6390789,8.38272727 C94.5100965,8.38272727 95.239386,8.2 95.8269474,7.83545455 L95.8269474,5.39181818 Z M105.913105,0.822727273 L105.913105,2.23545455 L101.011754,2.23545455 L101.011754,4.59 L105.413772,4.59 L105.413772,5.92636364 L101.011754,5.92636364 L101.011754,8.30636364 L106.070789,8.30636364 L106.070789,9.71909091 L99.461193,9.71909091 L99.461193,0.822727273 L105.913105,0.822727273 Z" id="path-3"></path>
        <path d="M28,14 C28,21.7317333 21.7317333,28 14,28 C6.26826667,28 0,21.7317333 0,14 C0,6.26826667 6.26826667,0 14,0 C21.7317333,0 28,6.26826667 28,14 Z" id="path-5"></path>
        <path d="M28,14 C28,21.7317333 21.7317333,28 14,28 C6.26826667,28 0,21.7317333 0,14 C0,6.26826667 6.26826667,0 14,0 C21.7317333,0 28,6.26826667 28,14 Z" id="path-7"></path>
        <path d="M4.60860556,0.255357143 C5.78453333,0.255357143 6.76250556,0.558071429 7.54261667,1.16535714 C8.32263333,1.77171429 8.71268889,2.53592857 8.71268889,3.45707143 C8.71268889,4.37914286 8.27607222,5.19442857 7.40283889,5.90385714 C8.57876667,6.6365 9.16677778,7.66721429 9.16677778,8.99507143 C9.16677778,10.0248571 8.74763333,10.8893571 7.90934444,11.5876429 C7.07105556,12.2859286 5.97087222,12.6350714 4.60860556,12.6350714 C3.24643333,12.6350714 2.14625,12.2859286 1.30796111,11.5876429 C0.469672222,10.8893571 0.0505277778,10.0248571 0.0505277778,8.99507143 C0.0505277778,7.66721429 0.638444444,6.6365 1.81437222,5.90385714 C0.941233333,5.19442857 0.504616667,4.37914286 0.504616667,3.45707143 C0.504616667,2.53592857 0.894577778,1.77171429 1.67468889,1.16535714 C2.45470556,0.558071429 3.43267778,0.255357143 4.60860556,0.255357143 Z M4.60860556,10.8837857 C5.21408889,10.8837857 5.78453333,10.7147857 6.32012778,10.3767857 C6.85572222,10.0397143 7.12347222,9.55592857 7.12347222,8.92635714 C7.12347222,8.29678571 6.86733889,7.81021429 6.35507222,7.46664286 C5.84271111,7.12307143 5.26065,6.95128571 4.60860556,6.95128571 C3.95665556,6.95128571 3.3745,7.12307143 2.86223333,7.46664286 C2.34996667,7.81021429 2.09383333,8.29678571 2.09383333,8.92635714 C2.09383333,9.55592857 2.36158333,10.0397143 2.89717778,10.3767857 C3.43277222,10.7147857 4.00321667,10.8837857 4.60860556,10.8837857 Z M4.60860556,5.4405 C5.20237778,5.4405 5.71757222,5.26592857 6.15418889,4.91678571 C6.59080556,4.56764286 6.80906667,4.13864286 6.80906667,3.62885714 C6.80906667,3.12 6.59080556,2.69285714 6.15418889,2.35021429 C5.71757222,2.00664286 5.20237778,1.83485714 4.60860556,1.83485714 C4.01483333,1.83485714 3.49963889,2.00664286 3.06311667,2.35021429 C2.6265,2.69285714 2.40814444,3.12 2.40814444,3.62885714 C2.40814444,4.13864286 2.6265,4.56764286 3.06311667,4.91678571 C3.49963889,5.26592857 4.01483333,5.4405 4.60860556,5.4405 Z M18.6496611,0.478214286 L18.6496611,2.31585714 L13.4978111,2.31585714 L13.4978111,5.26871429 C14.0100778,4.99385714 14.5922333,4.85642857 15.2441833,4.85642857 C16.3851667,4.85642857 17.3689944,5.19442857 18.1956667,5.8695 C19.0222444,6.5455 19.4355333,7.46107143 19.4355333,8.61714286 C19.4355333,9.77321429 19.0047722,10.7315 18.14325,11.4929286 C17.2816333,12.2543571 16.22225,12.6350714 14.9648167,12.6350714 C13.3231833,12.6350714 12.0133333,12.0965 11.0353611,11.0212143 L12.1356389,9.54385714 C12.2287611,9.63578571 12.3539,9.74442857 12.5110556,9.87071429 C12.6683056,9.99607143 12.9914,10.1650714 13.4803389,10.3767857 C13.9693722,10.5885 14.5048722,10.6943571 15.0870278,10.6943571 C15.6691833,10.6943571 16.1989222,10.5225714 16.6762444,10.1799286 C17.1536611,9.83635714 17.3923222,9.33492857 17.3923222,8.6775 C17.3923222,8.01914286 17.1390222,7.50935714 16.6326111,7.14907143 C16.1261056,6.78878571 15.4857722,6.60771429 14.7116111,6.60771429 C13.9373556,6.60771429 13.2009722,6.79714286 12.5023667,7.17507143 L11.6291333,6.24742857 L11.6291333,0.478214286 L18.6496611,0.478214286 Z M26.3163778,2.93335714 C26.3163778,3.68921429 26.0631722,4.3355 25.5566667,4.87407143 C25.0502556,5.41171429 24.4215389,5.681 23.6706111,5.681 C22.9196833,5.681 22.2938944,5.4145 21.7932444,4.88242857 C21.2925944,4.35035714 21.0422222,3.70592857 21.0422222,2.951 C21.0422222,2.19514286 21.2955222,1.54885714 21.8019333,1.01028571 C22.3084389,0.472642857 22.9370611,0.203357143 23.6880833,0.203357143 C24.4390111,0.203357143 25.0648,0.469857143 25.56545,1.00192857 C26.0661,1.534 26.3163778,2.17842857 26.3163778,2.93335714 Z M32.6733389,0.495857143 L23.7317167,12.4976429 L21.4788389,12.4976429 L30.4204611,0.495857143 L32.6733389,0.495857143 Z M24.6747444,2.96771429 C24.6747444,2.62414286 24.5758611,2.33535714 24.3779056,2.10042857 C24.17995,1.86642857 23.9383611,1.7485 23.6531389,1.7485 C23.3679167,1.7485 23.1320889,1.86642857 22.9458444,2.10042857 C22.7596,2.33535714 22.6663833,2.62414286 22.6663833,2.96771429 C22.6663833,3.31128571 22.7653611,3.60007143 22.9633167,3.835 C23.1612722,4.06992857 23.4028611,4.18692857 23.6880833,4.18692857 C23.9733056,4.18692857 24.2090389,4.06992857 24.3953778,3.835 C24.5816222,3.60007143 24.6747444,3.31128571 24.6747444,2.96771429 Z M33.2496389,9.88742857 C33.2496389,10.6432857 32.9963389,11.2895714 32.4899278,11.8281429 C31.9834222,12.3657857 31.3548,12.6350714 30.6037778,12.6350714 C29.85285,12.6350714 29.2270611,12.3685714 28.7264111,11.8365 C28.2257611,11.3044286 27.9754833,10.66 27.9754833,9.90507143 C27.9754833,9.14921429 28.2286889,8.50292857 28.7351944,7.96435714 C29.2416056,7.42671429 29.8703222,7.15742857 30.62125,7.15742857 C31.3722722,7.15742857 31.9980611,7.42392857 32.4986167,7.956 C32.9992667,8.48807143 33.2496389,9.1325 33.2496389,9.88742857 Z M31.64295,9.95614286 C31.64295,9.61257143 31.5439722,9.32378571 31.3460167,9.08885714 C31.1480611,8.85485714 30.9065667,8.73692857 30.62125,8.73692857 C30.3360278,8.73692857 30.1002944,8.85485714 29.9139556,9.08885714 C29.7277111,9.32378571 29.6345889,9.61257143 29.6345889,9.95614286 C29.6345889,10.2997143 29.7334722,10.5885 29.9314278,10.8234286 C30.1293833,11.0583571 30.3709722,11.1753571 30.6561944,11.1753571 C30.9414167,11.1753571 31.1772444,11.0583571 31.3634889,10.8234286 C31.5497333,10.5885 31.64295,10.2997143 31.64295,9.95614286 Z" id="path-9"></path>
        <polygon id="path-11" points="0 0.0618461538 132 0.0618461538 132 133.124783 0 133.124783"></polygon>
        <polygon id="path-13" points="0 0.0620557769 131 0.0620557769 131 235.121817 0 235.121817"></polygon>
        <path d="M4.70316276,2.19090909 L4.70316276,9.71272727 L3.14230759,9.71272727 L3.14230759,2.19090909 L0.33805931,2.19090909 L0.33805931,0.816363636 L7.50741103,0.816363636 L7.50741103,2.19090909 L4.70316276,2.19090909 Z M15.7425283,0.816363636 L15.7425283,2.22909091 L10.8086386,2.22909091 L10.8086386,4.58363636 L15.23988,4.58363636 L15.23988,5.92 L10.8086386,5.92 L10.8086386,8.3 L15.9012593,8.3 L15.9012593,9.71272727 L9.24778345,9.71272727 L9.24778345,0.816363636 L15.7425283,0.816363636 Z M19.2553972,7.68909091 L18.3294662,9.71272727 L16.6627903,9.71272727 L20.7368869,0.816363636 L22.4035628,0.816363636 L26.4776593,9.71272727 L24.8109834,9.71272727 L23.8850524,7.68909091 L19.2553972,7.68909091 Z M23.2501283,6.30181818 L21.5702248,2.63636364 L19.8903214,6.30181818 L23.2501283,6.30181818 Z M32.0275766,8.35090909 C32.5654669,8.35090909 33.0284324,8.26363636 33.4164731,8.09 C33.8045138,7.91636364 34.2101283,7.63818182 34.633411,7.25636364 L35.6387076,8.24909091 C34.6598662,9.29272727 33.4715566,9.81454545 32.0738731,9.81454545 C30.6761897,9.81454545 29.5165083,9.38181818 28.5950179,8.51636364 C27.6735276,7.65090909 27.2127352,6.55636364 27.2127352,5.23272727 C27.2127352,3.90909091 27.6823145,2.80636364 28.6214731,1.92363636 C29.5606317,1.04090909 30.7466738,0.6 32.1796938,0.6 C33.6127138,0.6 34.8098103,1.10909091 35.7709834,2.12727273 L34.7789145,3.17090909 C34.3379634,2.76363636 33.9212945,2.47909091 33.5289076,2.31818182 C33.1365207,2.15727273 32.6757283,2.07636364 32.1466248,2.07636364 C31.2119069,2.07636364 30.4270386,2.36727273 29.7921145,2.94818182 C29.1571903,3.52909091 28.8397283,4.27181818 28.8397283,5.17545455 C28.8397283,6.07909091 29.1550172,6.83454545 29.7855007,7.44090909 C30.4159841,8.04727273 31.1633428,8.35090909 32.0275766,8.35090909 Z M37.5907214,9.71272727 L37.5907214,0.816363636 L39.1515766,0.816363636 L39.1515766,4.67272727 L43.741549,4.67272727 L43.741549,0.816363636 L45.3024041,0.816363636 L45.3024041,9.71272727 L43.741549,9.71272727 L43.741549,6.07272727 L39.1515766,6.07272727 L39.1515766,9.71272727 L37.5907214,9.71272727 Z M54.4105421,0.816363636 L54.4105421,2.22909091 L49.4766524,2.22909091 L49.4766524,4.58363636 L53.9078938,4.58363636 L53.9078938,5.92 L49.4766524,5.92 L49.4766524,8.3 L54.5692731,8.3 L54.5692731,9.71272727 L47.9157972,9.71272727 L47.9157972,0.816363636 L54.4105421,0.816363636 Z M63.9948731,3.70545455 C63.9948731,5.17363636 63.3290531,6.09818182 61.9975076,6.48 L64.4181559,9.71272727 L62.4340179,9.71272727 L60.225011,6.72181818 L58.1747352,6.72181818 L58.1747352,9.71272727 L56.61388,9.71272727 L56.61388,0.816363636 L60.0530524,0.816363636 C61.4639634,0.816363636 62.4737007,1.04545455 63.0821697,1.50363636 C63.6906386,1.96181818 63.9948731,2.69545455 63.9948731,3.70545455 Z M61.9181421,4.96545455 C62.2356041,4.70272727 62.3943352,4.28 62.3943352,3.69909091 C62.3943352,3.11818182 62.2311634,2.71909091 61.9049145,2.50272727 C61.5786655,2.28636364 60.9966517,2.17818182 60.1588731,2.17818182 L58.1747352,2.17818182 L58.1747352,5.36 L60.1191903,5.36 C61.0009979,5.36 61.60068,5.22818182 61.9181421,4.96545455 Z M66.0923903,6.83636364 L66.0923903,5.98363636 L71.0395076,5.98363636 L71.0395076,6.83636364 L66.0923903,6.83636364 Z M75.1343903,2.25454545 C74.8433834,2.43272727 74.69788,2.70181818 74.69788,3.06272727 C74.69788,3.42363636 74.8433834,3.69909091 75.1343903,3.89 C75.4253972,4.08090909 76.0449207,4.28636364 76.9928662,4.50727273 C77.9408117,4.72818182 78.6551014,5.03727273 79.1357352,5.43636364 C79.616369,5.83545455 79.8566386,6.42272727 79.8566386,7.19909091 C79.8566386,7.97545455 79.5524041,8.60545455 78.9439352,9.08909091 C78.3354662,9.57272727 77.5373703,9.81454545 76.5497421,9.81454545 C75.1034945,9.81454545 73.8204186,9.33545455 72.7005145,8.37636364 L73.6793559,7.24363636 C74.6140738,8.02454545 75.5841283,8.41454545 76.5894248,8.41454545 C77.0920731,8.41454545 77.4910738,8.31090909 77.7865214,8.10272727 C78.081969,7.89454545 78.2296455,7.61909091 78.2296455,7.27545455 C78.2296455,6.93181818 78.0907559,6.66454545 77.8129766,6.47363636 C77.5351972,6.28272727 77.056831,6.10909091 76.3777834,5.95181818 C75.6987359,5.79454545 75.18286,5.65090909 74.8301559,5.51909091 C74.4774517,5.38727273 74.1643359,5.21545455 73.8909972,5.00363636 C73.3442255,4.60454545 73.0708869,3.99363636 73.0708869,3.17090909 C73.0708869,2.34818182 73.3817352,1.71363636 74.0034317,1.26818182 C74.6251283,0.822727273 75.3945014,0.6 76.3116455,0.6 C76.9024462,0.6 77.4889007,0.693636364 78.0709145,0.88 C78.6529283,1.06636364 79.1555766,1.33 79.5788593,1.66909091 L78.7455214,2.80181818 C78.4721828,2.56454545 78.1018103,2.36909091 77.6344041,2.21636364 C77.1669979,2.06363636 76.7063,1.98727273 76.2521214,1.98727273 C75.7979428,1.98727273 75.4253972,2.07636364 75.1343903,2.25454545 Z M85.3271903,2.19090909 L85.3271903,9.71272727 L83.7663352,9.71272727 L83.7663352,2.19090909 L80.9620869,2.19090909 L80.9620869,0.816363636 L88.1314386,0.816363636 L88.1314386,2.19090909 L85.3271903,2.19090909 Z M93.6681283,8.38909091 C94.3912048,8.38909091 94.9644317,8.15181818 95.3877145,7.67636364 C95.8109972,7.20090909 96.0226386,6.55636364 96.0226386,5.74181818 L96.0226386,0.816363636 L97.5834938,0.816363636 L97.5834938,5.80545455 C97.5834938,7.08636364 97.2175621,8.07272727 96.4856041,8.76454545 C95.7536462,9.45636364 94.8144876,9.80181818 93.6681283,9.80181818 C92.521769,9.80181818 91.5826103,9.45636364 90.8506524,8.76454545 C90.1186945,8.07272727 89.7527628,7.08636364 89.7527628,5.80545455 L89.7527628,0.816363636 L91.3136179,0.816363636 L91.3136179,5.74181818 C91.3136179,6.55636364 91.5252593,7.20090909 91.9485421,7.67636364 C92.3718248,8.15181818 92.9450517,8.38909091 93.6681283,8.38909091 Z M107.075232,1.98090909 C107.965921,2.75727273 108.411218,3.83727273 108.411218,5.22 C108.411218,6.60272727 107.979148,7.69727273 107.114914,8.50363636 C106.250681,9.31 104.927922,9.71272727 103.146639,9.71272727 L100.077839,9.71272727 L100.077839,0.816363636 L103.252459,0.816363636 C104.910348,0.816363636 106.184543,1.20454545 107.075232,1.98090909 Z M106.837135,5.25818182 C106.837135,3.22181818 105.624638,2.20363636 103.199549,2.20363636 L101.638694,2.20363636 L101.638694,8.3 L103.371508,8.3 C104.491412,8.3 105.349032,8.04363636 105.944273,7.53 C106.539514,7.01636364 106.837135,6.25909091 106.837135,5.25818182 Z M116.963797,0.816363636 L116.963797,2.22909091 L112.029908,2.22909091 L112.029908,4.58363636 L116.461149,4.58363636 L116.461149,5.92 L112.029908,5.92 L112.029908,8.3 L117.122528,8.3 L117.122528,9.71272727 L110.469052,9.71272727 L110.469052,0.816363636 L116.963797,0.816363636 Z M126.09839,0.816363636 L127.659246,0.816363636 L127.659246,9.71272727 L125.966114,9.71272727 L120.72799,3.22181818 L120.72799,9.71272727 L119.167135,9.71272727 L119.167135,0.816363636 L120.72799,0.816363636 L126.09839,7.46 L126.09839,0.816363636 Z M133.764721,2.19090909 L133.764721,9.71272727 L132.203866,9.71272727 L132.203866,2.19090909 L129.399618,2.19090909 L129.399618,0.816363636 L136.56897,0.816363636 L136.56897,2.19090909 L133.764721,2.19090909 Z" id="path-15"></path>
        <path d="M0.404482,0.816363636 L1.957362,0.816363636 L1.957362,9.71272727 L0.404482,9.71272727 L0.404482,0.816363636 Z M11.453242,0.816363636 L13.006122,0.816363636 L13.006122,9.71272727 L11.321642,9.71272727 L6.110282,3.22181818 L6.110282,9.71272727 L4.557402,9.71272727 L4.557402,0.816363636 L6.110282,0.816363636 L11.453242,7.46 L11.453242,0.816363636 Z M19.080402,2.19090909 L19.080402,9.71272727 L17.527522,9.71272727 L17.527522,2.19090909 L14.737602,2.19090909 L14.737602,0.816363636 L21.870322,0.816363636 L21.870322,2.19090909 L19.080402,2.19090909 Z M30.063362,0.816363636 L30.063362,2.22909091 L25.154682,2.22909091 L25.154682,4.58363636 L29.563282,4.58363636 L29.563282,5.92 L25.154682,5.92 L25.154682,8.3 L30.221282,8.3 L30.221282,9.71272727 L23.601802,9.71272727 L23.601802,0.816363636 L30.063362,0.816363636 Z M39.598722,3.70545455 C39.598722,5.17363636 38.936304,6.09818182 37.611562,6.48 L40.019842,9.71272727 L38.045842,9.71272727 L35.848122,6.72181818 L33.808322,6.72181818 L33.808322,9.71272727 L32.255442,9.71272727 L32.255442,0.816363636 L35.677042,0.816363636 C37.080744,0.816363636 38.085322,1.04545455 38.690682,1.50363636 C39.296042,1.96181818 39.598722,2.69545455 39.598722,3.70545455 Z M37.532602,4.96545455 C37.848442,4.70272727 38.006362,4.28 38.006362,3.69909091 C38.006362,3.11818182 37.844024,2.71909091 37.519442,2.50272727 C37.19486,2.28636364 36.61582,2.17818182 35.782322,2.17818182 L33.808322,2.17818182 L33.808322,5.36 L35.742842,5.36 C36.620144,5.36 37.216762,5.22818182 37.532602,4.96545455 Z M43.185762,7.68909091 L42.264562,9.71272727 L40.606402,9.71272727 L44.659682,0.816363636 L46.317842,0.816363636 L50.371122,9.71272727 L48.712962,9.71272727 L47.791762,7.68909091 L43.185762,7.68909091 Z M47.160082,6.30181818 L45.488762,2.63636364 L43.817442,6.30181818 L47.160082,6.30181818 Z M55.892682,8.35090909 C56.427824,8.35090909 56.888424,8.26363636 57.274482,8.09 C57.66054,7.91636364 58.064082,7.63818182 58.485202,7.25636364 L59.485362,8.24909091 C58.511522,9.29272727 57.329284,9.81454545 55.938742,9.81454545 C54.5482,9.81454545 53.394444,9.38181818 52.477662,8.51636364 C51.56088,7.65090909 51.102442,6.55636364 51.102442,5.23272727 C51.102442,3.90909091 51.569622,2.80636364 52.503982,1.92363636 C53.438342,1.04090909 54.618324,0.6 56.044022,0.6 C57.46972,0.6 58.6607,1.10909091 59.616962,2.12727273 L58.629962,3.17090909 C58.191264,2.76363636 57.776724,2.47909091 57.386342,2.31818182 C56.99596,2.15727273 56.537522,2.07636364 56.011122,2.07636364 C55.08118,2.07636364 54.300322,2.36727273 53.668642,2.94818182 C53.036962,3.52909091 52.721122,4.27181818 52.721122,5.17545455 C52.721122,6.07909091 53.0348,6.83454545 53.662062,7.44090909 C54.289324,8.04727273 55.032864,8.35090909 55.892682,8.35090909 Z M64.901642,2.19090909 L64.901642,9.71272727 L63.348762,9.71272727 L63.348762,2.19090909 L60.558842,2.19090909 L60.558842,0.816363636 L67.691562,0.816363636 L67.691562,2.19090909 L64.901642,2.19090909 Z M69.423042,0.816363636 L70.975922,0.816363636 L70.975922,9.71272727 L69.423042,9.71272727 L69.423042,0.816363636 Z M77.826642,1.97454545 C76.914184,1.97454545 76.144324,2.28818182 75.517062,2.91636364 C74.8898,3.54454545 74.576122,4.30545455 74.576122,5.20090909 C74.576122,6.09636364 74.8898,6.85727273 75.517062,7.48545455 C76.144324,8.11363636 76.914184,8.42727273 77.826642,8.42727273 C78.7391,8.42727273 79.50896,8.11363636 80.136222,7.48545455 C80.763484,6.85727273 81.077162,6.09636364 81.077162,5.20090909 C81.077162,4.30545455 80.763484,3.54454545 80.136222,2.91636364 C79.50896,2.28818182 78.7391,1.97454545 77.826642,1.97454545 Z M77.826642,9.80181818 C76.458002,9.80181818 75.308664,9.36272727 74.378722,8.48454545 C73.44878,7.60636364 72.983762,6.51181818 72.983762,5.20090909 C72.983762,3.89 73.44878,2.79545455 74.378722,1.91727273 C75.308664,1.03909091 76.458002,0.6 77.826642,0.6 C79.195282,0.6 80.34462,1.03909091 81.274562,1.91727273 C82.204504,2.79545455 82.669522,3.89 82.669522,5.20090909 C82.669522,6.51181818 82.204504,7.60636364 81.274562,8.48454545 C80.34462,9.36272727 79.195282,9.80181818 77.826642,9.80181818 Z M91.573202,0.816363636 L93.126082,0.816363636 L93.126082,9.71272727 L91.441602,9.71272727 L86.230242,3.22181818 L86.230242,9.71272727 L84.677362,9.71272727 L84.677362,0.816363636 L86.230242,0.816363636 L91.573202,7.46 L91.573202,0.816363636 Z" id="path-17"></path>
        <polygon id="path-19" points="0 0.061787234 132 0.061787234 132 87.125617 0 87.125617"></polygon>
        <polygon id="path-21" points="0 0.0619175258 131 0.0619175258 131 181.123773 0 181.123773"></polygon>
        <path d="M5.23816242,2.19090909 L5.23816242,9.71272727 L3.69138535,9.71272727 L3.69138535,2.19090909 L0.912429936,2.19090909 L0.912429936,0.816363636 L8.01711783,0.816363636 L8.01711783,2.19090909 L5.23816242,2.19090909 Z M16.1779586,0.816363636 L16.1779586,2.22909091 L11.2885701,2.22909091 L11.2885701,4.58363636 L15.6798439,4.58363636 L15.6798439,5.92 L11.2885701,5.92 L11.2885701,8.3 L16.335258,8.3 L16.335258,9.71272727 L9.74179299,9.71272727 L9.74179299,0.816363636 L16.1779586,0.816363636 Z M19.6591433,7.68909091 L18.7415637,9.71272727 L17.0899204,9.71272727 L21.1272707,0.816363636 L22.778914,0.816363636 L26.8162643,9.71272727 L25.164621,9.71272727 L24.2470414,7.68909091 L19.6591433,7.68909091 Z M23.6178439,6.30181818 L21.9530924,2.63636364 L20.2883408,6.30181818 L23.6178439,6.30181818 Z M32.3161242,8.35090909 C32.8491631,8.35090909 33.3079529,8.26363636 33.6924936,8.09 C34.0770344,7.91636364 34.4789904,7.63818182 34.8984554,7.25636364 L35.8946847,8.24909091 C34.924672,9.29272727 33.7470803,9.81454545 32.3620032,9.81454545 C30.9769261,9.81454545 29.8277045,9.38181818 28.9145255,8.51636364 C28.0013465,7.65090909 27.5447102,6.55636364 27.5447102,5.23272727 C27.5447102,3.90909091 28.0100541,2.80636364 28.940742,1.92363636 C29.8714299,1.04090909 31.0467745,0.6 32.4668694,0.6 C33.8869643,0.6 35.0732637,1.10909091 36.0257675,2.12727273 L35.0426465,3.17090909 C34.6056726,2.76363636 34.1927618,2.47909091 33.803914,2.31818182 C33.4150662,2.15727273 32.9584299,2.07636364 32.4340987,2.07636364 C31.5078115,2.07636364 30.7300223,2.36727273 30.1008248,2.94818182 C29.4716274,3.52909091 29.1570287,4.27181818 29.1570287,5.17545455 C29.1570287,6.07909091 29.4694739,6.83454545 30.0942707,7.44090909 C30.7190675,8.04727273 31.4596854,8.35090909 32.3161242,8.35090909 Z M37.8290924,9.71272727 L37.8290924,0.816363636 L39.3758694,0.816363636 L39.3758694,4.67272727 L43.9244427,4.67272727 L43.9244427,0.816363636 L45.4712197,0.816363636 L45.4712197,9.71272727 L43.9244427,9.71272727 L43.9244427,6.07272727 L39.3758694,6.07272727 L39.3758694,9.71272727 L37.8290924,9.71272727 Z M48.0610414,0.816363636 L49.6078185,0.816363636 L49.6078185,9.71272727 L48.0610414,9.71272727 L48.0610414,0.816363636 Z M59.066379,0.816363636 L60.6131561,0.816363636 L60.6131561,9.71272727 L58.9352962,9.71272727 L53.7444172,3.22181818 L53.7444172,9.71272727 L52.1976401,9.71272727 L52.1976401,0.816363636 L53.7444172,0.816363636 L59.066379,7.46 L59.066379,0.816363636 Z M69.5473854,5.38545455 L71.0941624,5.38545455 L71.0941624,8.42727273 C70.2290159,9.35181818 68.9924369,9.81454545 67.3845191,9.81454545 C66.0299656,9.81454545 64.8960994,9.38181818 63.9829204,8.51636364 C63.0697414,7.65090909 62.6131051,6.55636364 62.6131051,5.23272727 C62.6131051,3.90909091 63.078449,2.80636364 64.0091369,1.92363636 C64.9398248,1.04090909 66.0649834,0.6 67.3845191,0.6 C68.7040548,0.6 69.8008433,0.973636364 70.6746975,1.72 L69.8488758,2.86545455 C69.4905516,2.56818182 69.1300739,2.36272727 68.7674427,2.24818182 C68.4048115,2.13363636 67.9830994,2.07636364 67.5024936,2.07636364 C66.5762064,2.07636364 65.7984172,2.36727273 65.1692197,2.94818182 C64.5400223,3.52909091 64.2254236,4.29272727 64.2254236,5.23909091 C64.2254236,6.18545455 64.5313146,6.94454545 65.1430032,7.51727273 C65.7546917,8.09 66.4953096,8.37636364 67.3648567,8.37636364 C68.2344038,8.37636364 68.9619134,8.19363636 69.5473854,7.82909091 L69.5473854,5.38545455 Z M76.8112452,9.71272727 L76.8112452,0.816363636 L78.3580223,0.816363636 L78.3580223,8.28727273 L82.5395637,8.28727273 L82.5395637,9.71272727 L76.8112452,9.71272727 Z M90.7135127,0.816363636 L90.7135127,2.22909091 L85.8241242,2.22909091 L85.8241242,4.58363636 L90.2153981,4.58363636 L90.2153981,5.92 L85.8241242,5.92 L85.8241242,8.3 L90.8708121,8.3 L90.8708121,9.71272727 L84.2773471,9.71272727 L84.2773471,0.816363636 L90.7135127,0.816363636 Z M94.1946975,7.68909091 L93.2771178,9.71272727 L91.6254745,9.71272727 L95.6628248,0.816363636 L97.3144682,0.816363636 L101.351818,9.71272727 L99.7001752,9.71272727 L98.7825955,7.68909091 L94.1946975,7.68909091 Z M98.1533981,6.30181818 L96.4886465,2.63636364 L94.8238949,6.30181818 L98.1533981,6.30181818 Z M109.984557,3.70545455 C109.984557,5.17363636 109.324743,6.09818182 108.005207,6.48 L110.404022,9.71272727 L108.43778,9.71272727 L106.248697,6.72181818 L104.216914,6.72181818 L104.216914,9.71272727 L102.670137,9.71272727 L102.670137,0.816363636 L106.07829,0.816363636 C107.476475,0.816363636 108.477105,1.04545455 109.080086,1.50363636 C109.683067,1.96181818 109.984557,2.69545455 109.984557,3.70545455 Z M107.926557,4.96545455 C108.241156,4.70272727 108.398455,4.28 108.398455,3.69909091 C108.398455,3.11818182 108.236755,2.71909091 107.913449,2.50272727 C107.590143,2.28636364 107.013378,2.17818182 106.183156,2.17818182 L104.216914,2.17818182 L104.216914,5.36 L106.143831,5.36 C107.017685,5.36 107.611959,5.22818182 107.926557,4.96545455 Z M119.128519,0.816363636 L120.675296,0.816363636 L120.675296,9.71272727 L118.997436,9.71272727 L113.806557,3.22181818 L113.806557,9.71272727 L112.25978,9.71272727 L112.25978,0.816363636 L113.806557,0.816363636 L119.128519,7.46 L119.128519,0.816363636 Z M123.265118,0.816363636 L124.811895,0.816363636 L124.811895,9.71272727 L123.265118,9.71272727 L123.265118,0.816363636 Z M134.270455,0.816363636 L135.817232,0.816363636 L135.817232,9.71272727 L134.139373,9.71272727 L128.948494,3.22181818 L128.948494,9.71272727 L127.401717,9.71272727 L127.401717,0.816363636 L128.948494,0.816363636 L134.270455,7.46 L134.270455,0.816363636 Z M144.751462,5.38545455 L146.298239,5.38545455 L146.298239,8.42727273 C145.433092,9.35181818 144.196513,9.81454545 142.588596,9.81454545 C141.234042,9.81454545 140.100176,9.38181818 139.186997,8.51636364 C138.273818,7.65090909 137.817182,6.55636364 137.817182,5.23272727 C137.817182,3.90909091 138.282525,2.80636364 139.213213,1.92363636 C140.143901,1.04090909 141.26906,0.6 142.588596,0.6 C143.908131,0.6 145.00492,0.973636364 145.878774,1.72 L145.052952,2.86545455 C144.694628,2.56818182 144.33415,2.36272727 143.971519,2.24818182 C143.608888,2.13363636 143.187176,2.07636364 142.70657,2.07636364 C141.780283,2.07636364 141.002494,2.36727273 140.373296,2.94818182 C139.744099,3.52909091 139.4295,4.29272727 139.4295,5.23909091 C139.4295,6.18545455 139.735391,6.94454545 140.34708,7.51727273 C140.958768,8.09 141.699386,8.37636364 142.568933,8.37636364 C143.43848,8.37636364 144.16599,8.19363636 144.751462,7.82909091 L144.751462,5.38545455 Z" id="path-23"></path>
        <path d="M1.74546783,9.71272727 L0.194024348,9.71272727 L0.194024348,0.816363636 L2.61322435,0.816363636 L5.38741565,6.40363636 L8.16160696,0.816363636 L10.5676591,0.816363636 L10.5676591,9.71272727 L9.01621565,9.71272727 L9.01621565,2.76363636 L5.80814609,8.93636364 L4.94038957,8.93636364 L1.74546783,2.76363636 L1.74546783,9.71272727 Z M19.6208765,0.816363636 L19.6208765,2.22909091 L14.7167374,2.22909091 L14.7167374,4.58363636 L19.1212591,4.58363636 L19.1212591,5.92 L14.7167374,5.92 L14.7167374,8.3 L19.7786504,8.3 L19.7786504,9.71272727 L13.1652939,9.71272727 L13.1652939,0.816363636 L19.6208765,0.816363636 Z M25.2819548,2.19090909 L25.2819548,9.71272727 L23.7305113,9.71272727 L23.7305113,2.19090909 L20.9431722,2.19090909 L20.9431722,0.816363636 L28.0692939,0.816363636 L28.0692939,2.19090909 L25.2819548,2.19090909 Z M29.7991722,9.71272727 L29.7991722,0.816363636 L31.3506157,0.816363636 L31.3506157,4.67272727 L35.9129113,4.67272727 L35.9129113,0.816363636 L37.4643548,0.816363636 L37.4643548,9.71272727 L35.9129113,9.71272727 L35.9129113,6.07272727 L31.3506157,6.07272727 L31.3506157,9.71272727 L29.7991722,9.71272727 Z M44.3087374,1.97454545 C43.3971235,1.97454545 42.6279757,2.28818182 42.0012939,2.91636364 C41.3746122,3.54454545 41.0612243,4.30545455 41.0612243,5.20090909 C41.0612243,6.09636364 41.3746122,6.85727273 42.0012939,7.48545455 C42.6279757,8.11363636 43.3971235,8.42727273 44.3087374,8.42727273 C45.2203513,8.42727273 45.9894991,8.11363636 46.6161809,7.48545455 C47.2428626,6.85727273 47.5562504,6.09636364 47.5562504,5.20090909 C47.5562504,4.30545455 47.2428626,3.54454545 46.6161809,2.91636364 C45.9894991,2.28818182 45.2203513,1.97454545 44.3087374,1.97454545 Z M44.3087374,9.80181818 C42.9413635,9.80181818 41.7930887,9.36272727 40.864007,8.48454545 C39.9349252,7.60636364 39.4703374,6.51181818 39.4703374,5.20090909 C39.4703374,3.89 39.9349252,2.79545455 40.864007,1.91727273 C41.7930887,1.03909091 42.9413635,0.6 44.3087374,0.6 C45.6761113,0.6 46.8243861,1.03909091 47.7534678,1.91727273 C48.6825496,2.79545455 49.1471374,3.89 49.1471374,5.20090909 C49.1471374,6.51181818 48.6825496,7.60636364 47.7534678,8.48454545 C46.8243861,9.36272727 45.6761113,9.80181818 44.3087374,9.80181818 Z M58.10832,1.98090909 C58.9936383,2.75727273 59.4362504,3.83727273 59.4362504,5.22 C59.4362504,6.60272727 59.0067861,7.69727273 58.1477635,8.50363636 C57.2887409,9.31 55.9739583,9.71272727 54.2034157,9.71272727 L51.15312,9.71272727 L51.15312,0.816363636 L54.3085983,0.816363636 C55.9564904,0.816363636 57.2230017,1.20454545 58.10832,1.98090909 Z M57.8716591,5.25818182 C57.8716591,3.22181818 56.666473,2.20363636 54.256007,2.20363636 L52.7045635,2.20363636 L52.7045635,8.3 L54.4269287,8.3 C55.54008,8.3 56.3925287,8.04363636 56.9841809,7.53 C57.575833,7.01636364 57.8716591,6.25909091 57.8716591,5.25818182 Z M65.7284243,1.97454545 C64.8168104,1.97454545 64.0476626,2.28818182 63.4209809,2.91636364 C62.7942991,3.54454545 62.4809113,4.30545455 62.4809113,5.20090909 C62.4809113,6.09636364 62.7942991,6.85727273 63.4209809,7.48545455 C64.0476626,8.11363636 64.8168104,8.42727273 65.7284243,8.42727273 C66.6400383,8.42727273 67.4091861,8.11363636 68.0358678,7.48545455 C68.6625496,6.85727273 68.9759374,6.09636364 68.9759374,5.20090909 C68.9759374,4.30545455 68.6625496,3.54454545 68.0358678,2.91636364 C67.4091861,2.28818182 66.6400383,1.97454545 65.7284243,1.97454545 Z M65.7284243,9.80181818 C64.3610504,9.80181818 63.2127757,9.36272727 62.2836939,8.48454545 C61.3546122,7.60636364 60.8900243,6.51181818 60.8900243,5.20090909 C60.8900243,3.89 61.3546122,2.79545455 62.2836939,1.91727273 C63.2127757,1.03909091 64.3610504,0.6 65.7284243,0.6 C67.0957983,0.6 68.244073,1.03909091 69.1731548,1.91727273 C70.1022365,2.79545455 70.5668243,3.89 70.5668243,5.20090909 C70.5668243,6.51181818 70.1022365,7.60636364 69.1731548,8.48454545 C68.244073,9.36272727 67.0957983,9.80181818 65.7284243,9.80181818 Z M72.572807,9.71272727 L72.572807,0.816363636 L74.1242504,0.816363636 L74.1242504,8.28727273 L78.318407,8.28727273 L78.318407,9.71272727 L72.572807,9.71272727 Z M83.7822678,1.97454545 C82.8706539,1.97454545 82.1015061,2.28818182 81.4748243,2.91636364 C80.8481426,3.54454545 80.5347548,4.30545455 80.5347548,5.20090909 C80.5347548,6.09636364 80.8481426,6.85727273 81.4748243,7.48545455 C82.1015061,8.11363636 82.8706539,8.42727273 83.7822678,8.42727273 C84.6938817,8.42727273 85.4630296,8.11363636 86.0897113,7.48545455 C86.716393,6.85727273 87.0297809,6.09636364 87.0297809,5.20090909 C87.0297809,4.30545455 86.716393,3.54454545 86.0897113,2.91636364 C85.4630296,2.28818182 84.6938817,1.97454545 83.7822678,1.97454545 Z M83.7822678,9.80181818 C82.4148939,9.80181818 81.2666191,9.36272727 80.3375374,8.48454545 C79.4084557,7.60636364 78.9438678,6.51181818 78.9438678,5.20090909 C78.9438678,3.89 79.4084557,2.79545455 80.3375374,1.91727273 C81.2666191,1.03909091 82.4148939,0.6 83.7822678,0.6 C85.1496417,0.6 86.2979165,1.03909091 87.2269983,1.91727273 C88.15608,2.79545455 88.6206678,3.89 88.6206678,5.20090909 C88.6206678,6.51181818 88.15608,7.60636364 87.2269983,8.48454545 C86.2979165,9.36272727 85.1496417,9.80181818 83.7822678,9.80181818 Z M96.9901983,5.38545455 L98.5416417,5.38545455 L98.5416417,8.42727273 C97.6738852,9.35181818 96.4335757,9.81454545 94.820807,9.81454545 C93.462167,9.81454545 92.32488,9.38181818 91.4089461,8.51636364 C90.4930122,7.65090909 90.0349983,6.55636364 90.0349983,5.23272727 C90.0349983,3.90909091 90.5017461,2.80636364 91.4352417,1.92363636 C92.3687374,1.04090909 93.4972904,0.6 94.820807,0.6 C96.1443235,0.6 97.2444209,0.973636364 98.1209113,1.72 L97.2925983,2.86545455 C96.933193,2.56818182 96.5716278,2.36272727 96.2079026,2.24818182 C95.8441774,2.13363636 95.421193,2.07636364 94.9391374,2.07636364 C94.0100557,2.07636364 93.22992,2.36727273 92.5988243,2.94818182 C91.9677287,3.52909091 91.6521809,4.29272727 91.6521809,5.23909091 C91.6521809,6.18545455 91.9589948,6.94454545 92.5725287,7.51727273 C93.1860626,8.09 93.9289148,8.37636364 94.8010852,8.37636364 C95.6732557,8.37636364 96.40296,8.19363636 96.9901983,7.82909091 L96.9901983,5.38545455 Z M103.952911,9.71272727 L102.375172,9.71272727 L102.375172,6.2 L98.9567374,0.816363636 L100.652807,0.816363636 L103.164042,4.86363636 L105.675277,0.816363636 L107.371346,0.816363636 L103.952911,6.2 L103.952911,9.71272727 Z" id="path-25"></path>
        <path d="M3.42221212,7.68909091 L2.50160606,9.71272727 L0.844515152,9.71272727 L4.89518182,0.816363636 L6.55227273,0.816363636 L10.6029394,9.71272727 L8.94584848,9.71272727 L8.02524242,7.68909091 L3.42221212,7.68909091 Z M7.3939697,6.30181818 L5.72372727,2.63636364 L4.05348485,6.30181818 L7.3939697,6.30181818 Z M13.5958485,2.25454545 C13.3065152,2.43272727 13.1618485,2.70181818 13.1618485,3.06272727 C13.1618485,3.42363636 13.3065152,3.69909091 13.5958485,3.89 C13.8851818,4.08090909 14.5014242,4.28636364 15.4436364,4.50727273 C16.3867879,4.72818182 17.0969697,5.03727273 17.5741818,5.43636364 C18.0523333,5.83545455 18.2909394,6.42272727 18.2909394,7.19909091 C18.2909394,7.97545455 17.9884545,8.60545455 17.3834848,9.08909091 C16.7785152,9.57272727 15.9856667,9.81454545 15.0030606,9.81454545 C13.5657879,9.81454545 12.2900909,9.33545455 11.1759697,8.37636364 L12.1491818,7.24363636 C13.0791818,8.02454545 14.043,8.41454545 15.0425152,8.41454545 C15.5422727,8.41454545 15.9396364,8.31090909 16.2327273,8.10272727 C16.5267576,7.89454545 16.673303,7.61909091 16.673303,7.27545455 C16.673303,6.93181818 16.5352121,6.66454545 16.2590303,6.47363636 C15.9828485,6.28272727 15.5075152,6.10909091 14.8320909,5.95181818 C14.1576061,5.79454545 13.644697,5.65090909 13.2933636,5.51909091 C12.9429697,5.38727273 12.6320303,5.21545455 12.3596061,5.00363636 C11.8166364,4.60454545 11.5442121,3.99363636 11.5442121,3.17090909 C11.5442121,2.34818182 11.8532727,1.71363636 12.4713939,1.26818182 C13.0895152,0.822727273 13.8551212,0.6 14.7663333,0.6 C15.3543939,0.6 15.9368182,0.693636364 16.5154848,0.88 C17.0941515,1.06636364 17.5939091,1.33 18.0147576,1.66909091 L17.1862121,2.80181818 C16.9147273,2.56454545 16.5464848,2.36909091 16.0814848,2.21636364 C15.6174242,2.06363636 15.159,1.98727273 14.7071515,1.98727273 C14.2562424,1.98727273 13.8851818,2.07636364 13.5958485,2.25454545 Z M21.9282727,2.25454545 C21.6389394,2.43272727 21.4942727,2.70181818 21.4942727,3.06272727 C21.4942727,3.42363636 21.6389394,3.69909091 21.9282727,3.89 C22.2176061,4.08090909 22.8338485,4.28636364 23.7760606,4.50727273 C24.7192121,4.72818182 25.4293939,5.03727273 25.9066061,5.43636364 C26.3847576,5.83545455 26.6233636,6.42272727 26.6233636,7.19909091 C26.6233636,7.97545455 26.3208788,8.60545455 25.7159091,9.08909091 C25.1109394,9.57272727 24.3180909,9.81454545 23.3354848,9.81454545 C21.8982121,9.81454545 20.6225152,9.33545455 19.5083939,8.37636364 L20.4816061,7.24363636 C21.4116061,8.02454545 22.3754242,8.41454545 23.3749394,8.41454545 C23.874697,8.41454545 24.2720606,8.31090909 24.5651515,8.10272727 C24.8591818,7.89454545 25.0057273,7.61909091 25.0057273,7.27545455 C25.0057273,6.93181818 24.8676364,6.66454545 24.5914545,6.47363636 C24.3152727,6.28272727 23.8399394,6.10909091 23.1645152,5.95181818 C22.4900303,5.79454545 21.9771212,5.65090909 21.6257879,5.51909091 C21.2753939,5.38727273 20.9644545,5.21545455 20.6920303,5.00363636 C20.1490606,4.60454545 19.8766364,3.99363636 19.8766364,3.17090909 C19.8766364,2.34818182 20.185697,1.71363636 20.8038182,1.26818182 C21.4219394,0.822727273 22.1875455,0.6 23.0987576,0.6 C23.6868182,0.6 24.2692424,0.693636364 24.8479091,0.88 C25.4265758,1.06636364 25.9263333,1.33 26.3471818,1.66909091 L25.5186364,2.80181818 C25.2471515,2.56454545 24.8789091,2.36909091 24.4139091,2.21636364 C23.9498485,2.06363636 23.4914242,1.98727273 23.0395758,1.98727273 C22.5886667,1.98727273 22.2176061,2.07636364 21.9282727,2.25454545 Z M35.0478485,0.816363636 L35.0478485,2.22909091 L30.1423333,2.22909091 L30.1423333,4.58363636 L34.5480909,4.58363636 L34.5480909,5.92 L30.1423333,5.92 L30.1423333,8.3 L35.2056667,8.3 L35.2056667,9.71272727 L28.5904545,9.71272727 L28.5904545,0.816363636 L35.0478485,0.816363636 Z M38.9087576,2.25454545 C38.6194242,2.43272727 38.4747576,2.70181818 38.4747576,3.06272727 C38.4747576,3.42363636 38.6194242,3.69909091 38.9087576,3.89 C39.1980909,4.08090909 39.8143333,4.28636364 40.7565455,4.50727273 C41.699697,4.72818182 42.4098788,5.03727273 42.8870909,5.43636364 C43.3652424,5.83545455 43.6038485,6.42272727 43.6038485,7.19909091 C43.6038485,7.97545455 43.3013636,8.60545455 42.6963939,9.08909091 C42.0914242,9.57272727 41.2985758,9.81454545 40.3159697,9.81454545 C38.878697,9.81454545 37.603,9.33545455 36.4888788,8.37636364 L37.4620909,7.24363636 C38.3920909,8.02454545 39.3559091,8.41454545 40.3554242,8.41454545 C40.8551818,8.41454545 41.2525455,8.31090909 41.5456364,8.10272727 C41.8396667,7.89454545 41.9862121,7.61909091 41.9862121,7.27545455 C41.9862121,6.93181818 41.8481212,6.66454545 41.5719394,6.47363636 C41.2957576,6.28272727 40.8204242,6.10909091 40.145,5.95181818 C39.4705152,5.79454545 38.9576061,5.65090909 38.6062727,5.51909091 C38.2558788,5.38727273 37.9449394,5.21545455 37.6725152,5.00363636 C37.1295455,4.60454545 36.8571212,3.99363636 36.8571212,3.17090909 C36.8571212,2.34818182 37.1661818,1.71363636 37.784303,1.26818182 C38.4024242,0.822727273 39.1680303,0.6 40.0792424,0.6 C40.667303,0.6 41.2497273,0.693636364 41.8283939,0.88 C42.4070606,1.06636364 42.9068182,1.33 43.3276667,1.66909091 L42.4991212,2.80181818 C42.2276364,2.56454545 41.8593939,2.36909091 41.3943939,2.21636364 C40.9303333,2.06363636 40.4719091,1.98727273 40.0200606,1.98727273 C39.5691515,1.98727273 39.1980909,2.07636364 38.9087576,2.25454545 Z M47.2411818,2.25454545 C46.9518485,2.43272727 46.8071818,2.70181818 46.8071818,3.06272727 C46.8071818,3.42363636 46.9518485,3.69909091 47.2411818,3.89 C47.5305152,4.08090909 48.1467576,4.28636364 49.0889697,4.50727273 C50.0321212,4.72818182 50.742303,5.03727273 51.2195152,5.43636364 C51.6976667,5.83545455 51.9362727,6.42272727 51.9362727,7.19909091 C51.9362727,7.97545455 51.6337879,8.60545455 51.0288182,9.08909091 C50.4238485,9.57272727 49.631,9.81454545 48.6483939,9.81454545 C47.2111212,9.81454545 45.9354242,9.33545455 44.821303,8.37636364 L45.7945152,7.24363636 C46.7245152,8.02454545 47.6883333,8.41454545 48.6878485,8.41454545 C49.1876061,8.41454545 49.5849697,8.31090909 49.8780606,8.10272727 C50.1720909,7.89454545 50.3186364,7.61909091 50.3186364,7.27545455 C50.3186364,6.93181818 50.1805455,6.66454545 49.9043636,6.47363636 C49.6281818,6.28272727 49.1528485,6.10909091 48.4774242,5.95181818 C47.8029394,5.79454545 47.2900303,5.65090909 46.938697,5.51909091 C46.588303,5.38727273 46.2773636,5.21545455 46.0049394,5.00363636 C45.4619697,4.60454545 45.1895455,3.99363636 45.1895455,3.17090909 C45.1895455,2.34818182 45.4986061,1.71363636 46.1167273,1.26818182 C46.7348485,0.822727273 47.5004545,0.6 48.4116667,0.6 C48.9997273,0.6 49.5821515,0.693636364 50.1608182,0.88 C50.7394848,1.06636364 51.2392424,1.33 51.6600909,1.66909091 L50.8315455,2.80181818 C50.5600606,2.56454545 50.1918182,2.36909091 49.7268182,2.21636364 C49.2627576,2.06363636 48.8043333,1.98727273 48.3524848,1.98727273 C47.9015758,1.98727273 47.5305152,2.07636364 47.2411818,2.25454545 Z M55.4552424,9.71272727 L53.9033636,9.71272727 L53.9033636,0.816363636 L56.3232424,0.816363636 L59.0982121,6.40363636 L61.8731818,0.816363636 L64.2799091,0.816363636 L64.2799091,9.71272727 L62.7280303,9.71272727 L62.7280303,2.76363636 L59.5190606,8.93636364 L58.6510606,8.93636364 L55.4552424,2.76363636 L55.4552424,9.71272727 Z M73.3356667,0.816363636 L73.3356667,2.22909091 L68.4301515,2.22909091 L68.4301515,4.58363636 L72.8359091,4.58363636 L72.8359091,5.92 L68.4301515,5.92 L68.4301515,8.3 L73.4934848,8.3 L73.4934848,9.71272727 L66.8782727,9.71272727 L66.8782727,0.816363636 L73.3356667,0.816363636 Z M82.4177273,0.816363636 L83.9696061,0.816363636 L83.9696061,9.71272727 L82.2862121,9.71272727 L77.0782121,3.22181818 L77.0782121,9.71272727 L75.5263333,9.71272727 L75.5263333,0.816363636 L77.0782121,0.816363636 L82.4177273,7.46 L82.4177273,0.816363636 Z M90.0399697,2.19090909 L90.0399697,9.71272727 L88.4880909,9.71272727 L88.4880909,2.19090909 L85.6999697,2.19090909 L85.6999697,0.816363636 L92.8280909,0.816363636 L92.8280909,2.19090909 L90.0399697,2.19090909 Z" id="path-27"></path>
        <path d="M4.95476042,2.22461538 L4.95476042,9.86215385 L3.38880208,9.86215385 L3.38880208,2.22461538 L0.575385417,2.22461538 L0.575385417,0.828923077 L7.76817708,0.828923077 L7.76817708,2.22461538 L4.95476042,2.22461538 Z M16.0302188,0.828923077 L16.0302188,2.26338462 L11.0801979,2.26338462 L11.0801979,4.65415385 L15.5259271,4.65415385 L15.5259271,6.01107692 L11.0801979,6.01107692 L11.0801979,8.42769231 L16.1894687,8.42769231 L16.1894687,9.86215385 L9.51423958,9.86215385 L9.51423958,0.828923077 L16.0302188,0.828923077 Z M22.4741563,8.47938462 C23.0135208,8.47938462 23.478,8.39076923 23.8675938,8.21446154 C24.2571875,8.03815385 24.6638438,7.75569231 25.0885104,7.368 L26.0970937,8.376 C25.1150521,9.43569231 23.9225729,9.96553846 22.5206042,9.96553846 C21.1186354,9.96553846 19.9545937,9.52615385 19.030375,8.64738462 C18.1061563,7.76861538 17.6435729,6.65723077 17.6435729,5.31323077 C17.6435729,3.96923077 18.1146875,2.84953846 19.0569167,1.95323077 C19.9991458,1.05692308 21.1887813,0.609230769 22.6267708,0.609230769 C24.0647604,0.609230769 25.2657708,1.12615385 26.2298021,2.16 L25.2344896,3.21969231 C24.7918125,2.80615385 24.3737813,2.51723077 23.9803958,2.35384615 C23.5870104,2.19046154 23.1244271,2.10830769 22.5935938,2.10830769 C21.6561042,2.10830769 20.8683854,2.40369231 20.2313854,2.99353846 C19.5943854,3.58338462 19.2758854,4.33753846 19.2758854,5.25507692 C19.2758854,6.17261538 19.5924896,6.93969231 20.22475,7.55538462 C20.8570104,8.17107692 21.6068125,8.47938462 22.4741563,8.47938462 Z M28.0554896,9.86215385 L28.0554896,0.828923077 L29.6214479,0.828923077 L29.6214479,4.74461538 L34.2264271,4.74461538 L34.2264271,0.828923077 L35.7923854,0.828923077 L35.7923854,9.86215385 L34.2264271,9.86215385 L34.2264271,6.16615385 L29.6214479,6.16615385 L29.6214479,9.86215385 L28.0554896,9.86215385 Z M45.3682396,0.828923077 L46.9341979,0.828923077 L46.9341979,9.86215385 L45.2355313,9.86215385 L39.9802813,3.27138462 L39.9802813,9.86215385 L38.4143229,9.86215385 L38.4143229,0.828923077 L39.9802813,0.828923077 L45.3682396,7.57476923 L45.3682396,0.828923077 Z M49.5561354,0.828923077 L51.1220938,0.828923077 L51.1220938,9.86215385 L49.5561354,9.86215385 L49.5561354,0.828923077 Z M58.2295729,9.93969231 L58.0305104,9.95261538 C56.6503438,9.95261538 55.4910417,9.50676923 54.5535521,8.61507692 C53.6160625,7.72338462 53.1468438,6.612 53.1468438,5.28092308 C53.1468438,3.94984615 53.6160625,2.83846154 54.5535521,1.94676923 C55.4910417,1.05507692 56.6503438,0.609230769 58.0305104,0.609230769 C59.4106771,0.609230769 60.5699792,1.05507692 61.5074688,1.94676923 C62.4449583,2.83846154 62.9141771,3.948 62.9141771,5.27446154 C62.9141771,6.28246154 62.6354896,7.176 62.0781146,7.956 C61.5207396,8.736 60.7775729,9.29815385 59.8486146,9.64246154 C60.1491042,10.0301538 60.5301667,10.224 60.9899063,10.224 C61.3264167,10.224 61.6553438,10.1381538 61.9785833,9.96553846 C62.3018229,9.79292308 62.5473333,9.56953846 62.7151146,9.29353846 L63.6042604,10.4953846 C62.8345521,11.2883077 61.9539375,11.6843077 60.9633646,11.6843077 C60.3974583,11.6843077 59.8533542,11.5292308 59.3310521,11.2190769 C58.80875,10.9089231 58.4419063,10.4824615 58.2295729,9.93969231 Z M58.0305104,2.00492308 C57.1100833,2.00492308 56.3337396,2.32338462 55.7014792,2.96123077 C55.0692188,3.59907692 54.7526146,4.37169231 54.7526146,5.28092308 C54.7526146,6.19015385 55.0692188,6.96276923 55.7014792,7.60061538 C56.3337396,8.23846154 57.1100833,8.55692308 58.0305104,8.55692308 C58.9509375,8.55692308 59.7272813,8.23846154 60.3595417,7.60061538 C60.9918021,6.96276923 61.3084063,6.19015385 61.3084063,5.28092308 C61.3084063,4.37169231 60.9918021,3.59907692 60.3595417,2.96123077 C59.7272813,2.32338462 58.9509375,2.00492308 58.0305104,2.00492308 Z M68.7476563,8.51815385 C69.4728125,8.51815385 70.0481979,8.27723077 70.4728646,7.79446154 C70.8975313,7.31169231 71.1098646,6.65723077 71.1098646,5.83015385 L71.1098646,0.828923077 L72.6758229,0.828923077 L72.6758229,5.89476923 C72.6758229,7.19538462 72.3089792,8.19692308 71.5743438,8.89938462 C70.8397083,9.60184615 69.8974792,9.95261538 68.7476563,9.95261538 C67.5978333,9.95261538 66.6556042,9.60184615 65.9209688,8.89938462 C65.1863333,8.19692308 64.8194896,7.19538462 64.8194896,5.89476923 L64.8194896,0.828923077 L66.3854479,0.828923077 L66.3854479,5.83015385 C66.3854479,6.65723077 66.5977813,7.31169231 67.0224479,7.79446154 C67.4471146,8.27723077 68.0225,8.51815385 68.7476563,8.51815385 Z M81.6943021,0.828923077 L81.6943021,2.26338462 L76.7442813,2.26338462 L76.7442813,4.65415385 L81.1900104,4.65415385 L81.1900104,6.01107692 L76.7442813,6.01107692 L76.7442813,8.42769231 L81.8535521,8.42769231 L81.8535521,9.86215385 L75.1783229,9.86215385 L75.1783229,0.828923077 L81.6943021,0.828923077 Z M85.5902396,2.28923077 C85.2982813,2.47015385 85.1523021,2.74338462 85.1523021,3.10984615 C85.1523021,3.47630769 85.2982813,3.756 85.5902396,3.94984615 C85.8821979,4.14369231 86.5040313,4.35230769 87.4547917,4.57661538 C88.4055521,4.80092308 89.1221771,5.11476923 89.6046667,5.52 C90.0871563,5.92523077 90.3279271,6.52153846 90.3279271,7.30984615 C90.3279271,8.09815385 90.0226979,8.73784615 89.4122396,9.22892308 C88.8017813,9.72 88.0007917,9.96553846 87.0102187,9.96553846 C85.5589583,9.96553846 84.2716875,9.47907692 83.1484063,8.50523077 L84.1304479,7.35507692 C85.0679375,8.148 86.0414479,8.544 87.0500313,8.544 C87.5543229,8.544 87.9543438,8.43876923 88.2510417,8.22738462 C88.5477396,8.016 88.6956146,7.73630769 88.6956146,7.38738462 C88.6956146,7.03846154 88.5562708,6.76707692 88.2775833,6.57323077 C87.9988958,6.37938462 87.51925,6.20307692 86.8376979,6.04338462 C86.1561458,5.88369231 85.6385833,5.73784615 85.2850104,5.604 C84.9314375,5.47015385 84.6167292,5.29569231 84.3427813,5.08061538 C83.7939375,4.67538462 83.5199896,4.05507692 83.5199896,3.21969231 C83.5199896,2.38430769 83.8318542,1.74 84.4555833,1.28769231 C85.0793125,0.835384615 85.8509167,0.609230769 86.7713438,0.609230769 C87.3637917,0.609230769 87.9524479,0.704307692 88.5363646,0.893538462 C89.1202813,1.08276923 89.6245729,1.35046154 90.0492396,1.69476923 L89.2131771,2.84492308 C88.9392292,2.604 88.5676458,2.40553846 88.0984271,2.25046154 C87.6292083,2.09538462 87.1675729,2.01784615 86.711625,2.01784615 C86.2556771,2.01784615 85.8821979,2.10830769 85.5902396,2.28923077 Z" id="path-29"></path>
        <polygon id="path-31" points="0 0.0627 132 0.0627 132 56.1127 0 56.1127"></polygon>
        <polygon id="path-33" points="0 0.0619259259 131 0.0619259259 131 151.123654 0 151.123654"></polygon>
        <path d="M5.76215,2.09207143 C4.67943889,2.09207143 3.88185556,2.45328571 3.36958889,3.17385714 C2.85732222,3.89535714 2.59533333,4.8685 2.58371667,6.09328571 C2.87479444,5.77292857 3.29393889,5.47207143 3.84115,5.19164286 C4.38836111,4.91121429 4.99375,4.771 5.65741111,4.771 C6.75183333,4.771 7.66860556,5.1285 8.40801111,5.84442857 C9.14732222,6.55942857 9.51688333,7.50935714 9.51688333,8.69421429 C9.51688333,9.87907143 9.11813889,10.8317857 8.32065,11.5532857 C7.52316111,12.2747857 6.51893333,12.6350714 5.30806111,12.6350714 C3.35211667,12.6350714 2.00156111,11.7761429 1.25648889,10.0592143 C0.837344444,9.07492857 0.627772222,7.96435714 0.627772222,6.72842857 C0.627772222,5.49157143 0.7616,4.46178571 1.02944444,3.63721429 C1.29719444,2.81357143 1.66392222,2.16078571 2.12962778,1.67978571 C3.03780556,0.741928571 4.15253333,0.272071429 5.474,0.272071429 C6.79546667,0.272071429 7.9917,0.678785714 9.06288889,1.49128571 L8.0325,2.98535714 C7.76475,2.756 7.40671111,2.54985714 6.95847778,2.36692857 C6.51024444,2.184 6.11140556,2.09207143 5.76215,2.09207143 Z M3.62279444,7.13142857 C3.15132778,7.51492857 2.9155,8.01357143 2.9155,8.6255 C2.9155,9.23835714 3.14254444,9.76485714 3.59663333,10.205 C4.05072222,10.6460714 4.62116667,10.8661429 5.30806111,10.8661429 C5.99505,10.8661429 6.56549444,10.6692857 7.01958333,10.2737143 C7.47367222,9.87907143 7.70071667,9.37578571 7.70071667,8.76292857 C7.70071667,8.151 7.49114444,7.63007143 7.072,7.20014286 C6.65285556,6.77114286 6.0911,6.55664286 5.38673333,6.55664286 C4.68227222,6.55664286 4.09435556,6.74792857 3.62279444,7.13142857 Z M16.8867611,5.18328571 C17.2360167,4.71342857 17.4106444,4.23892857 17.4106444,3.75792857 C17.4106444,3.27692857 17.2244,2.86742857 16.8518167,2.53035714 C16.4792333,2.19235714 16.0077667,2.02335714 15.4372278,2.02335714 C14.4359278,2.02335714 13.6034944,2.52757143 12.9398333,3.53414286 L11.2808222,2.58978571 C11.8163222,1.8005 12.4072611,1.20528571 13.0533556,0.804142857 C13.6995444,0.403928571 14.5319778,0.203357143 15.55075,0.203357143 C16.5695222,0.203357143 17.4630611,0.520928571 18.2314611,1.15607143 C18.9998611,1.79214286 19.3840611,2.6585 19.3840611,3.75792857 C19.3840611,4.37635714 19.2211444,4.96507143 18.8951222,5.52592857 C18.5691,6.08771429 17.9694722,6.80828571 17.0963333,7.6895 L14.2322111,10.5569286 L19.7682611,10.5569286 L19.7682611,12.4976429 L11.4205056,12.4976429 L11.4205056,10.7807143 L15.1229167,7.12307143 C15.9494944,6.29942857 16.5375056,5.65221429 16.8867611,5.18328571 Z M26.7364667,2.93335714 C26.7364667,3.68921429 26.4832611,4.3355 25.9767556,4.87407143 C25.47025,5.41171429 24.8416278,5.681 24.0906056,5.681 C23.3396778,5.681 22.7138889,5.4145 22.2132389,4.88242857 C21.7125889,4.35035714 21.4623111,3.70592857 21.4623111,2.951 C21.4623111,2.19514286 21.7155167,1.54885714 22.2220222,1.01028571 C22.7284333,0.472642857 23.35715,0.203357143 24.1080778,0.203357143 C24.8591,0.203357143 25.4848889,0.469857143 25.9854444,1.00192857 C26.4860944,1.534 26.7364667,2.17842857 26.7364667,2.93335714 Z M33.0933333,0.495857143 L24.1518056,12.4976429 L21.8989278,12.4976429 L30.8404556,0.495857143 L33.0933333,0.495857143 Z M25.0948333,2.96771429 C25.0948333,2.62414286 24.9958556,2.33535714 24.7979,2.10042857 C24.6000389,1.86642857 24.35845,1.7485 24.0731333,1.7485 C23.7879111,1.7485 23.5521778,1.86642857 23.3659333,2.10042857 C23.1795944,2.33535714 23.0864722,2.62414286 23.0864722,2.96771429 C23.0864722,3.31128571 23.18545,3.60007143 23.3833111,3.835 C23.5812667,4.06992857 23.8228556,4.18692857 24.1080778,4.18692857 C24.3933944,4.18692857 24.6291278,4.06992857 24.8153722,3.835 C25.0017111,3.60007143 25.0948333,3.31128571 25.0948333,2.96771429 Z M33.6696333,9.88742857 C33.6696333,10.6432857 33.4164278,11.2895714 32.9099222,11.8281429 C32.4035111,12.3657857 31.7747944,12.6350714 31.0238667,12.6350714 C30.2729389,12.6350714 29.64715,12.3685714 29.1465,11.8365 C28.64585,11.3044286 28.3954778,10.66 28.3954778,9.90507143 C28.3954778,9.14921429 28.6487778,8.50292857 29.1551889,7.96435714 C29.6616944,7.42671429 30.2903167,7.15742857 31.0413389,7.15742857 C31.7922667,7.15742857 32.4180556,7.42392857 32.9187056,7.956 C33.4193556,8.48807143 33.6696333,9.1325 33.6696333,9.88742857 Z M32.0629444,9.95614286 C32.0629444,9.61257143 31.9639667,9.32378571 31.7661056,9.08885714 C31.56815,8.85485714 31.3265611,8.73692857 31.0413389,8.73692857 C30.7561167,8.73692857 30.5202889,8.85485714 30.3340444,9.08885714 C30.1477056,9.32378571 30.0545833,9.61257143 30.0545833,9.95614286 C30.0545833,10.2997143 30.1535611,10.5885 30.3515167,10.8234286 C30.5493778,11.0583571 30.7909667,11.1753571 31.0762833,11.1753571 C31.3615056,11.1753571 31.5972389,11.0583571 31.7835778,10.8234286 C31.9698222,10.5885 32.0629444,10.2997143 32.0629444,9.95614286 Z" id="path-35"></path>
        <path d="M5.95359459,8.14613333 L5.95359459,5.93693333 L7.91264865,5.93693333 L7.91264865,8.14613333 L9.38198649,8.14613333 L9.38198649,9.9932 L7.91264865,9.9932 L7.91264865,13.0302667 L5.95359459,13.0302667 L5.95359459,9.9932 L0.706054054,9.9932 L0.706054054,8.1984 L5.20137838,0.966933333 L7.45783784,0.966933333 L3.03241892,8.14613333 L5.95359459,8.14613333 Z M15.6265541,0.7252 C16.8042568,0.7252 17.7837838,1.0304 18.5651351,1.63986667 C19.3463919,2.24933333 19.7370676,3.01746667 19.7370676,3.94426667 C19.7370676,4.87013333 19.2997568,5.6896 18.4252297,6.4036 C19.603027,7.14 20.1918784,8.17506667 20.1918784,9.50973333 C20.1918784,10.5448 19.7720676,11.4137333 18.9324459,12.1156 C18.0928243,12.8174667 16.9908919,13.1684 15.6265541,13.1684 C14.2621216,13.1684 13.1601892,12.8174667 12.3205676,12.1156 C11.4809459,11.4137333 11.0611351,10.5448 11.0611351,9.50973333 C11.0611351,8.17506667 11.6500811,7.14 12.8277838,6.4036 C11.9532568,5.6896 11.5159459,4.87013333 11.5159459,3.94426667 C11.5159459,3.01746667 11.9066216,2.24933333 12.6878784,1.63986667 C13.4692297,1.0304 14.4487568,0.7252 15.6265541,0.7252 Z M15.6265541,11.4081333 C16.2329054,11.4081333 16.8042568,11.2382667 17.3407027,10.8994667 C17.8771486,10.5597333 18.1453243,10.0734667 18.1453243,9.44066667 C18.1453243,8.80786667 17.8887838,8.3188 17.3757027,7.97346667 C16.8626216,7.62813333 16.2795405,7.4564 15.6265541,7.4564 C14.973473,7.4564 14.3903919,7.62813333 13.8773108,7.97346667 C13.3642297,8.3188 13.1076892,8.80786667 13.1076892,9.44066667 C13.1076892,10.0734667 13.3758649,10.5597333 13.9123108,10.8994667 C14.4487568,11.2382667 15.0201081,11.4081333 15.6265541,11.4081333 Z M15.6265541,5.93693333 C16.2212703,5.93693333 16.7372838,5.76146667 17.1745,5.41053333 C17.6118108,5.0596 17.8305135,4.6284 17.8305135,4.116 C17.8305135,3.60453333 17.6118108,3.17613333 17.1745,2.8308 C16.7372838,2.48546667 16.2212703,2.3128 15.6265541,2.3128 C15.0318378,2.3128 14.5158243,2.48546667 14.0785135,2.8308 C13.6412027,3.17613333 13.4225946,3.60453333 13.4225946,4.116 C13.4225946,4.6284 13.6412027,5.0596 14.0785135,5.41053333 C14.5158243,5.76146667 15.0318378,5.93693333 15.6265541,5.93693333 Z M27.2410676,3.41786667 C27.2410676,4.17666667 26.9874595,4.8272 26.4801486,5.3676 C25.9729324,5.908 25.3432162,6.17866667 24.591,6.17866667 C23.8388784,6.17866667 23.2120946,5.91173333 22.7106486,5.376 C22.2092027,4.8412 21.958527,4.1944 21.958527,3.43466667 C21.958527,2.67493333 22.2121351,2.02533333 22.7194459,1.48493333 C23.2266622,0.9436 23.8563784,0.672933333 24.6085,0.672933333 C25.3607162,0.672933333 25.9875,0.9408 26.4889459,1.4756 C26.9902973,2.01133333 27.2410676,2.65813333 27.2410676,3.41786667 Z M33.6080405,0.966933333 L24.6522973,13.0302667 L22.3958378,13.0302667 L31.3515811,0.966933333 L33.6080405,0.966933333 Z M25.5968243,3.4524 C25.5968243,3.10706667 25.4976892,2.81586667 25.2994189,2.58066667 C25.1012432,2.34453333 24.8592703,2.22693333 24.5735946,2.22693333 C24.2878243,2.22693333 24.0517162,2.34453333 23.8651757,2.58066667 C23.6785405,2.81586667 23.5852703,3.10706667 23.5852703,3.4524 C23.5852703,3.7968 23.6844054,4.088 23.8826757,4.3232 C24.0808514,4.55933333 24.3228243,4.67693333 24.6085,4.67693333 C24.8942703,4.67693333 25.1303784,4.55933333 25.3169189,4.3232 C25.5035541,4.088 25.5968243,3.7968 25.5968243,3.4524 Z M34.1852568,10.4076 C34.1852568,11.1664 33.9316486,11.8169333 33.4244324,12.3573333 C32.9171216,12.8977333 32.2874054,13.1684 31.5352838,13.1684 C30.7831622,13.1684 30.1563784,12.9014667 29.6549324,12.3657333 C29.1534865,11.8309333 28.9028108,11.1841333 28.9028108,10.4244 C28.9028108,9.66466667 29.1564189,9.01506667 29.6636351,8.47466667 C30.1709459,7.93333333 30.8006622,7.66266667 31.5527838,7.66266667 C32.3049054,7.66266667 32.9316892,7.93053333 33.4331351,8.46533333 C33.9345811,9.00106667 34.1852568,9.64786667 34.1852568,10.4076 Z M32.5760135,10.4766667 C32.5760135,10.1313333 32.4768784,9.84013333 32.2787027,9.60493333 C32.0804324,9.3688 31.8384595,9.2512 31.5527838,9.2512 C31.2671081,9.2512 31.0309054,9.3688 30.8443649,9.60493333 C30.6577297,9.84013333 30.5644595,10.1313333 30.5644595,10.4766667 C30.5644595,10.8210667 30.6635946,11.1122667 30.8618649,11.3474667 C31.0600405,11.5836 31.3020135,11.7012 31.5877838,11.7012 C31.8734595,11.7012 32.1095676,11.5836 32.2962027,11.3474667 C32.4827432,11.1122667 32.5760135,10.8210667 32.5760135,10.4766667 Z" id="path-37"></path>
        <path d="M5.83024324,2.11992857 C4.74581081,2.11992857 3.94695946,2.48021429 3.43387838,3.20171429 C2.9207973,3.92228571 2.65839189,4.89542857 2.64675676,6.12021429 C2.9382973,5.79985714 3.35810811,5.499 3.90618919,5.21857143 C4.45427027,4.93814286 5.06062162,4.79792857 5.72533784,4.79792857 C6.8215,4.79792857 7.73982432,5.15542857 8.48031081,5.87135714 C9.2207973,6.58635714 9.59104054,7.53721429 9.59104054,8.72207143 C9.59104054,9.906 9.19156757,10.8596429 8.39281081,11.5802143 C7.59405405,12.3017143 6.58822973,12.662 5.37552703,12.662 C3.41637838,12.662 2.06367568,11.804 1.31741892,10.0870714 C0.897608108,9.10185714 0.687702703,7.99221429 0.687702703,6.75535714 C0.687702703,5.51942857 0.821837838,4.48871429 1.09001351,3.66507143 C1.35818919,2.8405 1.7255,2.18864286 2.19194595,1.70764286 C3.10156757,0.768857143 4.21806757,0.299928571 5.54163514,0.299928571 C6.8652027,0.299928571 8.06333784,0.705714286 9.13622973,1.51821429 L8.1042027,3.01228571 C7.83602703,2.78385714 7.47741892,2.57771429 7.02847297,2.39385714 C6.57952703,2.21092857 6.18014865,2.11992857 5.83024324,2.11992857 Z M3.68748649,7.15928571 C3.21527027,7.54278571 2.97916216,8.0405 2.97916216,8.65335714 C2.97916216,9.26528571 3.20647297,9.79178571 3.66128378,10.2328571 C4.11609459,10.673 4.68744595,10.894 5.37552703,10.894 C6.06351351,10.894 6.63486486,10.6962143 7.08967568,10.3015714 C7.54448649,9.906 7.77189189,9.40271429 7.77189189,8.78985714 C7.77189189,8.17792857 7.56198649,7.657 7.14217568,7.228 C6.72236486,6.79807143 6.15971622,6.58357143 5.45422973,6.58357143 C4.74864865,6.58357143 4.1597973,6.77578571 3.68748649,7.15928571 Z M16.0455135,0.282285714 C17.2232162,0.282285714 18.2027432,0.585928571 18.9840946,1.19228571 C19.7653514,1.79864286 20.156027,2.56285714 20.156027,3.48492857 C20.156027,4.40607143 19.7187162,5.22135714 18.8441892,5.93171429 C20.0218919,6.66435714 20.6108378,7.69414286 20.6108378,9.022 C20.6108378,10.0527143 20.191027,10.9162857 19.3514054,11.6145714 C18.5117838,12.3128571 17.4098514,12.662 16.0455135,12.662 C14.6810811,12.662 13.5791486,12.3128571 12.739527,11.6145714 C11.8999054,10.9162857 11.4800946,10.0527143 11.4800946,9.022 C11.4800946,7.69414286 12.0690405,6.66435714 13.2467432,5.93171429 C12.3722162,5.22135714 11.9349054,4.40607143 11.9349054,3.48492857 C11.9349054,2.56285714 12.3255811,1.79864286 13.1068378,1.19228571 C13.8881892,0.585928571 14.8677162,0.282285714 16.0455135,0.282285714 Z M16.0455135,10.9107143 C16.6518649,10.9107143 17.2232162,10.7417143 17.7596622,10.4046429 C18.2961081,10.0666429 18.5642838,9.58285714 18.5642838,8.95328571 C18.5642838,8.32371429 18.3077432,7.83714286 17.7946622,7.49357143 C17.2815811,7.15092857 16.6985,6.97914286 16.0455135,6.97914286 C15.3924324,6.97914286 14.8093514,7.15092857 14.2962703,7.49357143 C13.7831892,7.83714286 13.5266486,8.32371429 13.5266486,8.95328571 C13.5266486,9.58285714 13.7948243,10.0666429 14.3312703,10.4046429 C14.8677162,10.7417143 15.4390676,10.9107143 16.0455135,10.9107143 Z M16.0455135,5.46742857 C16.6402297,5.46742857 17.1561486,5.29285714 17.5934595,4.94371429 C18.0307703,4.59457143 18.249473,4.16557143 18.249473,3.65671429 C18.249473,3.14692857 18.0307703,2.72071429 17.5934595,2.37714286 C17.1561486,2.03357143 16.6402297,1.86178571 16.0455135,1.86178571 C15.4507027,1.86178571 14.9347838,2.03357143 14.497473,2.37714286 C14.0601622,2.72071429 13.8414595,3.14692857 13.8414595,3.65671429 C13.8414595,4.16557143 14.0601622,4.59457143 14.497473,4.94371429 C14.9347838,5.29285714 15.4507027,5.46742857 16.0455135,5.46742857 Z M27.660027,2.96121429 C27.660027,3.71614286 27.4064189,4.36335714 26.8991081,4.901 C26.3918919,5.43957143 25.7621757,5.70792857 25.0099595,5.70792857 C24.2578378,5.70792857 23.6310541,5.44235714 23.1296081,4.90935714 C22.6281622,4.37728571 22.3774865,3.73378571 22.3774865,2.97792857 C22.3774865,2.223 22.6310946,1.57578571 23.1384054,1.03814286 C23.6456216,0.499571429 24.2753378,0.231214286 25.0274595,0.231214286 C25.7796757,0.231214286 26.4064595,0.496785714 26.9078108,1.02885714 C27.4092568,1.56185714 27.660027,2.20535714 27.660027,2.96121429 Z M34.027,0.522785714 L25.0712568,12.5245714 L22.8147973,12.5245714 L31.7705405,0.522785714 L34.027,0.522785714 Z M26.0157838,2.99557143 C26.0157838,2.652 25.9166486,2.36321429 25.7183784,2.12828571 C25.5202027,1.89335714 25.2782297,1.77635714 24.9925541,1.77635714 C24.7067838,1.77635714 24.4706757,1.89335714 24.2841351,2.12828571 C24.0975,2.36321429 24.0042297,2.652 24.0042297,2.99557143 C24.0042297,3.33821429 24.1033649,3.62792857 24.3015405,3.86192857 C24.4998108,4.09685714 24.7417838,4.21478571 25.0274595,4.21478571 C25.3132297,4.21478571 25.5493378,4.09685714 25.7358784,3.86192857 C25.9225135,3.62792857 26.0157838,3.33821429 26.0157838,2.99557143 Z M34.6042162,9.91528571 C34.6042162,10.6702143 34.3506081,11.3174286 33.8432973,11.8550714 C33.3360811,12.3936429 32.7063649,12.662 31.9542432,12.662 C31.2021216,12.662 30.5753378,12.3964286 30.0738919,11.8634286 C29.5724459,11.3313571 29.3216757,10.6878571 29.3216757,9.932 C29.3216757,9.17707143 29.5753784,8.52985714 30.0825946,7.99221429 C30.5899054,7.45364286 31.219527,7.18528571 31.9717432,7.18528571 C32.7238649,7.18528571 33.3506486,7.45085714 33.8520946,7.98292857 C34.3535405,8.51592857 34.6042162,9.15942857 34.6042162,9.91528571 Z M32.994973,9.984 C32.994973,9.64042857 32.8958378,9.35164286 32.6976622,9.11671429 C32.4993919,8.88178571 32.2574189,8.76478571 31.9717432,8.76478571 C31.6860676,8.76478571 31.4498649,8.88178571 31.2633243,9.11671429 C31.0766892,9.35164286 30.9834189,9.64042857 30.9834189,9.984 C30.9834189,10.3266429 31.0825541,10.6163571 31.2808243,10.8503571 C31.479,11.0852857 31.720973,11.2022857 32.0067432,11.2022857 C32.2924189,11.2022857 32.528527,11.0852857 32.7151622,10.8503571 C32.9017027,10.6163571 32.994973,10.3266429 32.994973,9.984 Z" id="path-39"></path>
        <path d="M8.07755143,0.495857143 L8.07755143,2.3335 L2.93436,2.3335 L2.93436,5.28635714 C3.44576571,5.0115 4.02694286,4.87407143 4.67779714,4.87407143 C5.81686286,4.87407143 6.79903714,5.21207143 7.62422571,5.88714286 C8.44950857,6.56314286 8.86210286,7.47871429 8.86210286,8.63478571 C8.86210286,9.79085714 8.43206571,10.7491429 7.57199143,11.5105714 C6.71182286,12.272 5.65412571,12.6527143 4.3989,12.6527143 C2.76002571,12.6527143 1.45237714,12.1141429 0.476048571,11.0388571 L1.57447714,9.5615 C1.66744286,9.65342857 1.79237143,9.76207143 1.94926286,9.88835714 C2.10615429,10.0137143 2.42870571,10.1827143 2.91691714,10.3944286 C3.40512857,10.6061429 3.93972857,10.712 4.52090571,10.712 C5.10208286,10.712 5.63093143,10.5402143 6.10745143,10.1975714 C6.58397143,9.854 6.82223143,9.35257143 6.82223143,8.69514286 C6.82223143,8.03678571 6.56945143,7.527 6.06389143,7.16671429 C5.55823714,6.80642857 4.91898,6.62535714 4.14602571,6.62535714 C3.37307143,6.62535714 2.63792571,6.81478571 1.94058857,7.19271429 L1.06882286,6.26507143 L1.06882286,0.495857143 L8.07755143,0.495857143 Z M15.5741143,7.65607143 L15.5741143,5.45814286 L17.5267714,5.45814286 L17.5267714,7.65607143 L18.9919714,7.65607143 L18.9919714,9.49278571 L17.5267714,9.49278571 L17.5267714,12.5152857 L15.5741143,12.5152857 L15.5741143,9.49278571 L10.3440857,9.49278571 L10.3440857,7.70714286 L14.8245429,0.512571429 L17.0742,0.512571429 L12.6628543,7.65607143 L15.5741143,7.65607143 Z M25.7041714,2.951 C25.7041714,3.70685714 25.4514857,4.35314286 24.9451714,4.89171429 C24.4398,5.42935714 23.8128,5.69864286 23.0622857,5.69864286 C22.3127143,5.69864286 21.6885429,5.43214286 21.1888286,4.90007143 C20.6881714,4.368 20.4383143,3.72357143 20.4383143,2.96864286 C20.4383143,2.21278571 20.6919429,1.5665 21.1973143,1.02792857 C21.7026857,0.490285714 22.3306286,0.221 23.0802,0.221 C23.8297714,0.221 24.4548857,0.4875 24.9546,1.01957143 C25.4543143,1.55164286 25.7041714,2.19607143 25.7041714,2.951 Z M32.0505429,0.512571429 L23.1235714,12.5152857 L20.8748571,12.5152857 L29.8008857,0.512571429 L32.0505429,0.512571429 Z M24.0654857,2.98535714 C24.0654857,2.64178571 23.9664857,2.353 23.7684857,2.11807143 C23.5714286,1.88407143 23.3300571,1.76614286 23.0453143,1.76614286 C22.7605714,1.76614286 22.5248571,1.88407143 22.3391143,2.11807143 C22.1533714,2.353 22.0600286,2.64178571 22.0600286,2.98535714 C22.0600286,3.32892857 22.1590286,3.61771429 22.3560857,3.85264286 C22.5540857,4.08757143 22.7954571,4.20457143 23.0802,4.20457143 C23.3649429,4.20457143 23.6006571,4.08757143 23.7864,3.85264286 C23.9721429,3.61771429 24.0654857,3.32892857 24.0654857,2.98535714 Z M32.6256857,9.90507143 C32.6256857,10.6609286 32.373,11.3072143 31.8666857,11.8457857 C31.3613143,12.3834286 30.7343143,12.6527143 29.9838,12.6527143 C29.2342286,12.6527143 28.6100571,12.3862143 28.1103429,11.8541429 C27.6106286,11.3220714 27.3598286,10.6776429 27.3598286,9.92271429 C27.3598286,9.16685714 27.6134571,8.52057143 28.1188286,7.982 C28.6242,7.44435714 29.2521429,7.17507143 30.0017143,7.17507143 C30.7512857,7.17507143 31.3764,7.44157143 31.8761143,7.97364286 C32.3758286,8.50571429 32.6256857,9.15014286 32.6256857,9.90507143 Z M31.0218857,9.97378571 C31.0218857,9.63021429 30.9228857,9.34142857 30.7248857,9.1065 C30.5278286,8.8725 30.2864571,8.75457143 30.0017143,8.75457143 C29.7169714,8.75457143 29.4812571,8.8725 29.2955143,9.1065 C29.1097714,9.34142857 29.0164286,9.63021429 29.0164286,9.97378571 C29.0164286,10.3173571 29.1154286,10.6061429 29.3134286,10.8410714 C29.5104857,11.076 29.7518571,11.193 30.0366,11.193 C30.3213429,11.193 30.5570571,11.076 30.7428,10.8410714 C30.9285429,10.6061429 31.0218857,10.3173571 31.0218857,9.97378571 Z" id="path-41"></path>
        <path d="M0.00282857143,3.96592857 L0.00282857143,0.514428571 L8.58094286,0.514428571 L8.58094286,2.31771429 L3.42068571,12.5171429 L1.15405714,12.5171429 L6.19268571,2.35207143 L1.86874286,2.35207143 L1.86874286,3.96592857 L0.00282857143,3.96592857 Z M10.4119714,2.31771429 L10.4119714,0.514428571 L17.5428,0.514428571 L17.5428,2.09485714 L14.5954286,5.34021429 C15.7117714,5.37457143 16.5829714,5.72 17.2109143,6.37835714 C17.8388571,7.03671429 18.1528286,7.82414286 18.1528286,8.73971429 C18.1528286,9.9645 17.7313714,10.9255714 16.8884571,11.6238571 C16.0455429,12.3221429 14.9622,12.6712857 13.6365429,12.6712857 C12.3118286,12.6712857 11.0163429,12.2534286 9.74914286,11.4177143 L10.6203429,9.78714286 C11.6207143,10.4733571 12.6663429,10.8169286 13.7591143,10.8169286 C14.4681429,10.8169286 15.0517714,10.6544286 15.5109429,10.3275714 C15.9701143,10.0016429 16.2001714,9.53178571 16.2001714,8.91985714 C16.2001714,8.307 15.9437143,7.81764286 15.4326857,7.45178571 C14.9216571,7.085 14.2126286,6.90207143 13.3056,6.90207143 C12.8520857,6.90207143 12.4164857,6.96521429 11.9978571,7.0915 L11.9978571,5.54542857 L14.8226571,2.31771429 L10.4119714,2.31771429 Z M25.179,2.95285714 C25.179,3.70871429 24.9263143,4.355 24.42,4.89357143 C23.9146286,5.43121429 23.2866857,5.7005 22.5371143,5.7005 C21.7875429,5.7005 21.1633714,5.434 20.6627143,4.90192857 C20.163,4.36985714 19.9131429,3.72542857 19.9131429,2.9705 C19.9131429,2.21464286 20.1658286,1.56835714 20.6721429,1.02978571 C21.1775143,0.492142857 21.8054571,0.222857143 22.5550286,0.222857143 C23.3046,0.222857143 23.9297143,0.489357143 24.4294286,1.02142857 C24.9291429,1.5535 25.179,2.19792857 25.179,2.95285714 Z M31.5253714,0.514428571 L22.5984,12.5171429 L20.3496857,12.5171429 L29.2757143,0.514428571 L31.5253714,0.514428571 Z M23.5403143,2.98721429 C23.5403143,2.64364286 23.4413143,2.35485714 23.2433143,2.11992857 C23.0462571,1.88592857 22.8048857,1.768 22.5201429,1.768 C22.2354,1.768 21.9996857,1.88592857 21.8139429,2.11992857 C21.6282,2.35485714 21.5348571,2.64364286 21.5348571,2.98721429 C21.5348571,3.33078571 21.6338571,3.61957143 21.8309143,3.8545 C22.0289143,4.08942857 22.2702857,4.20642857 22.5550286,4.20642857 C22.8397714,4.20642857 23.0745429,4.08942857 23.2612286,3.8545 C23.4469714,3.61957143 23.5403143,3.33078571 23.5403143,2.98721429 Z M32.1005143,9.90692857 C32.1005143,10.6627857 31.8478286,11.3090714 31.3415143,11.8476429 C30.8361429,12.3852857 30.2082,12.6545714 29.4586286,12.6545714 C28.7090571,12.6545714 28.0848857,12.3880714 27.5851714,11.856 C27.0845143,11.3239286 26.8346571,10.6795 26.8346571,9.92457143 C26.8346571,9.16871429 27.0882857,8.52242857 27.5936571,7.98385714 C28.0990286,7.44621429 28.7269714,7.17692857 29.4765429,7.17692857 C30.2261143,7.17692857 30.8512286,7.44342857 31.3509429,7.9755 C31.8506571,8.50757143 32.1005143,9.152 32.1005143,9.90692857 Z M30.4967143,9.97564286 C30.4967143,9.63207143 30.3977143,9.34328571 30.1997143,9.10835714 C30.0026571,8.87435714 29.7612857,8.75642857 29.4765429,8.75642857 C29.1918,8.75642857 28.9560857,8.87435714 28.7703429,9.10835714 C28.5846,9.34328571 28.4912571,9.63207143 28.4912571,9.97564286 C28.4912571,10.3192143 28.5902571,10.608 28.7873143,10.8429286 C28.9853143,11.0778571 29.2266857,11.1948571 29.5114286,11.1948571 C29.7961714,11.1948571 30.0309429,11.0778571 30.2176286,10.8429286 C30.4033714,10.608 30.4967143,10.3192143 30.4967143,9.97564286 Z" id="path-43"></path>
    </defs>
    <g id="Page-1" stroke="none" stroke-width="1" fill="none" fill-rule="evenodd">
        <g id="321-WEB-V2-R1" transform="translate(-224.000000, -3968.000000)">
            <g id="Group-10" transform="translate(224.000000, 3968.000000)">
                <g id="Group-9">
                    <g id="Group-7" fill="#000000">
                        <text id="Teacher-Performance-Comparison-(2017)" font-family="Montserrat-Bold, Montserrat" font-size="24" font-weight="bold" line-spacing="34" letter-spacing="-0.5">
                            <tspan x="0" y="23">Teacher Performance Comparison (2017)</tspan>
                        </text>
                        <text id="As-measured-by-an-in" font-family="Montserrat-Regular, Montserrat" font-size="14" font-weight="normal" line-spacing="31">
                            <tspan x="0" y="49">As measured by an independent external entity: Gray Matters India (View study here)</tspan>
                        </text>
                    </g>
                    <g id="Group-8" transform="translate(760.000000, 0.000000)">
                        <g id="Group-455" transform="translate(42.000000, 45.000000)">
                            <mask id="mask-2" fill="white">
                                <use xlink:href="#path-1"></use>
                            </mask>
                            <g id="Clip-454"></g>
                            <polygon id="Fill-453" fill="#2F302F" mask="url(#mask-2)" points="-4.21992553 14.3809091 93.549983 14.3809091 93.549983 -3.93727273 -4.21992553 -3.93727273"></polygon>
                        </g>
                        <g id="Group-458" transform="translate(43.000000, 7.000000)">
                            <mask id="mask-4" fill="white">
                                <use xlink:href="#path-3"></use>
                            </mask>
                            <g id="Clip-457"></g>
                            <polygon id="Fill-456" fill="#2F302F" mask="url(#mask-4)" points="-4.3597807 14.3663636 110.763396 14.3663636 110.763396 -3.93909091 -4.3597807 -3.93909091"></polygon>
                        </g>
                        <g id="Group-461">
                            <mask id="mask-6" fill="white">
                                <use xlink:href="#path-5"></use>
                            </mask>
                            <g id="Clip-460"></g>
                            <polygon id="Fill-459" fill="#D1E6FE" mask="url(#mask-6)" points="-4.66666667 32.6666667 32.6666667 32.6666667 32.6666667 -4.66666667 -4.66666667 -4.66666667"></polygon>
                        </g>
                        <g id="Group-464" transform="translate(0.000000, 38.000000)">
                            <mask id="mask-8" fill="white">
                                <use xlink:href="#path-7"></use>
                            </mask>
                            <g id="Clip-463"></g>
                            <polygon id="Fill-462" fill="#87BEFD" mask="url(#mask-8)" points="-4.66666667 32.6666667 32.6666667 32.6666667 32.6666667 -4.66666667 -4.66666667 -4.66666667"></polygon>
                        </g>
                    </g>
                </g>
                <g id="Group-467" transform="translate(181.000000, 87.000000)">
                    <mask id="mask-10" fill="white">
                        <use xlink:href="#path-9"></use>
                    </mask>
                    <g id="Clip-466"></g>
                    <polygon id="Fill-465" fill="#87BEFD" mask="url(#mask-10)" points="-4.67169444 17.2779286 37.9718233 17.2779286 37.9718233 -4.43922143 -4.67169444 -4.43922143"></polygon>
                </g>
                <g id="Group-470" transform="translate(0.000000, 220.000000)">
                    <mask id="mask-12" fill="white">
                        <use xlink:href="#path-11"></use>
                    </mask>
                    <g id="Clip-469"></g>
                    <polygon id="Fill-468" fill="#D1E6FE" mask="url(#mask-12)" points="-4.71428571 137.810098 136.714286 137.810098 136.714286 -4.62346853 -4.71428571 -4.62346853"></polygon>
                </g>
                <g id="Group-473" transform="translate(132.000000, 118.000000)">
                    <mask id="mask-14" fill="white">
                        <use xlink:href="#path-13"></use>
                    </mask>
                    <g id="Clip-472"></g>
                    <polygon id="Fill-471" fill="#87BEFD" mask="url(#mask-14)" points="-4.71223022 239.823012 135.71223 239.823012 135.71223 -4.63913944 -4.71223022 -4.63913944"></polygon>
                </g>
                <g id="Group-476" transform="translate(59.000000, 376.000000)">
                    <mask id="mask-16" fill="white">
                        <use xlink:href="#path-15"></use>
                    </mask>
                    <g id="Clip-475"></g>
                    <polygon id="Fill-474" fill="#2F302F" mask="url(#mask-16)" points="-4.38607862 14.36 141.293108 14.36 141.293108 -3.94545455 -4.38607862 -3.94545455"></polygon>
                </g>
                <g id="Group-479" transform="translate(82.000000, 395.000000)">
                    <mask id="mask-18" fill="white">
                        <use xlink:href="#path-17"></use>
                    </mask>
                    <g id="Clip-478"></g>
                    <polygon id="Fill-477" fill="#2F302F" mask="url(#mask-18)" points="-4.295518 14.36 97.826082 14.36 97.826082 -3.94545455 -4.295518 -3.94545455"></polygon>
                </g>
                <g id="Group-482" transform="translate(656.000000, 265.000000)">
                    <mask id="mask-20" fill="white">
                        <use xlink:href="#path-19"></use>
                    </mask>
                    <g id="Clip-481"></g>
                    <polygon id="Fill-480" fill="#D1E6FE" mask="url(#mask-20)" points="-4.71428571 91.8064681 136.714286 91.8064681 136.714286 -4.61906383 -4.71428571 -4.61906383"></polygon>
                </g>
                <g id="Group-485" transform="translate(788.000000, 171.000000)">
                    <mask id="mask-22" fill="white">
                        <use xlink:href="#path-21"></use>
                    </mask>
                    <g id="Clip-484"></g>
                    <polygon id="Fill-483" fill="#87BEFD" mask="url(#mask-22)" points="-4.71223022 185.814495 135.71223 185.814495 135.71223 -4.62880412 -4.71223022 -4.62880412"></polygon>
                </g>
                <g id="Group-488" transform="translate(381.000000, 376.000000)">
                    <mask id="mask-24" fill="white">
                        <use xlink:href="#path-23"></use>
                    </mask>
                    <g id="Clip-487"></g>
                    <polygon id="Fill-486" fill="#2F302F" mask="url(#mask-24)" points="-3.76909873 14.36 150.979768 14.36 150.979768 -3.94545455 -3.76909873 -3.94545455"></polygon>
                </g>
                <g id="Group-491" transform="translate(402.000000, 395.000000)">
                    <mask id="mask-26" fill="white">
                        <use xlink:href="#path-25"></use>
                    </mask>
                    <g id="Clip-490"></g>
                    <polygon id="Fill-489" fill="#2F302F" mask="url(#mask-26)" points="-4.50162783 14.36 112.066998 14.36 112.066998 -3.94545455 -4.50162783 -3.94545455"></polygon>
                </g>
                <g id="Group-494" transform="translate(738.000000, 376.000000)">
                    <mask id="mask-28" fill="white">
                        <use xlink:href="#path-27"></use>
                    </mask>
                    <g id="Clip-493"></g>
                    <polygon id="Fill-492" fill="#2F302F" mask="url(#mask-28)" points="-3.85245455 14.36 97.5250606 14.36 97.5250606 -3.94545455 -3.85245455 -3.94545455"></polygon>
                </g>
                <g id="Group-497" transform="translate(739.000000, 395.000000)">
                    <mask id="mask-30" fill="white">
                        <use xlink:href="#path-29"></use>
                    </mask>
                    <g id="Clip-496"></g>
                    <polygon id="Fill-495" fill="#2F302F" mask="url(#mask-30)" points="-4.16419792 16.2996923 95.0675104 16.2996923 95.0675104 -4.00615385 -4.16419792 -4.00615385"></polygon>
                </g>
                <g id="Group-500" transform="translate(327.000000, 297.000000)">
                    <mask id="mask-32" fill="white">
                        <use xlink:href="#path-31"></use>
                    </mask>
                    <g id="Clip-499"></g>
                    <polygon id="Fill-498" fill="#D1E6FE" mask="url(#mask-32)" points="-4.71428571 60.8627 136.714286 60.8627 136.714286 -4.6873 -4.71428571 -4.6873"></polygon>
                </g>
                <g id="Group-503" transform="translate(459.000000, 201.000000)">
                    <mask id="mask-34" fill="white">
                        <use xlink:href="#path-33"></use>
                    </mask>
                    <g id="Clip-502"></g>
                    <polygon id="Fill-501" fill="#87BEFD" mask="url(#mask-34)" points="-4.71223022 155.815012 135.71223 155.815012 135.71223 -4.6294321 -4.71223022 -4.6294321"></polygon>
                </g>
                <g id="Group-506" transform="translate(48.000000, 185.000000)">
                    <mask id="mask-36" fill="white">
                        <use xlink:href="#path-35"></use>
                    </mask>
                    <g id="Clip-505"></g>
                    <polygon id="Fill-504" fill="#87BEFD" mask="url(#mask-36)" points="-4.09445 17.2779286 38.3918933 17.2779286 38.3918933 -4.43922143 -4.09445 -4.43922143"></polygon>
                </g>
                <g id="Group-509" transform="translate(377.000000, 265.000000)">
                    <mask id="mask-38" fill="white">
                        <use xlink:href="#path-37"></use>
                    </mask>
                    <g id="Clip-508"></g>
                    <polygon id="Fill-507" fill="#87BEFD" mask="url(#mask-38)" points="-4.02367568 17.8350667 38.9150338 17.8350667 38.9150338 -3.99345333 -4.02367568 -3.99345333"></polygon>
                </g>
                <g id="Group-512" transform="translate(507.000000, 165.000000)">
                    <mask id="mask-40" fill="white">
                        <use xlink:href="#path-39"></use>
                    </mask>
                    <g id="Clip-511"></g>
                    <polygon id="Fill-510" fill="#87BEFD" mask="url(#mask-40)" points="-4.04202703 17.3048571 39.3339743 17.3048571 39.3339743 -4.41229286 -4.04202703 -4.41229286"></polygon>
                </g>
                <g id="Group-515" transform="translate(709.000000, 231.000000)">
                    <mask id="mask-42" fill="white">
                        <use xlink:href="#path-41"></use>
                    </mask>
                    <g id="Clip-514"></g>
                    <polygon id="Fill-513" fill="#87BEFD" mask="url(#mask-42)" points="-4.23823714 17.2955714 37.3398394 17.2955714 37.3398394 -4.42157857 -4.23823714 -4.42157857"></polygon>
                </g>
                <g id="Group-518" transform="translate(841.000000, 136.000000)">
                    <mask id="mask-44" fill="white">
                        <use xlink:href="#path-43"></use>
                    </mask>
                    <g id="Clip-517"></g>
                    <polygon id="Fill-516" fill="#87BEFD" mask="url(#mask-44)" points="-4.71145714 17.3141429 36.8143097 17.3141429 36.8143097 -4.42017643 -4.71145714 -4.42017643"></polygon>
                </g>
            </g>
        </g>
    </g>
</svg>