<?xml version="1.0" encoding="UTF-8"?>
<svg width="236px" height="360px" viewBox="0 0 236 360" version="1.1" xmlns="http://www.w3.org/2000/svg" xmlns:xlink="http://www.w3.org/1999/xlink">
    <!-- Generator: Sketch 52.3 (67297) - http://www.bohemiancoding.com/sketch -->
    <title>Group 13</title>
    <desc>Created with Sketch.</desc>
    <defs>
        <polygon id="path-1" points="0 0.934 18 0.934 18 18.9336 0 18.9336"></polygon>
    </defs>
    <g id="Page-1" stroke="none" stroke-width="1" fill="none" fill-rule="evenodd">
        <g id="iPhone-8" transform="translate(-70.000000, -3944.000000)">
            <g id="Group" transform="translate(0.000000, 3544.000000)">
                <g id="Group-13" transform="translate(70.000000, 400.000000)">
                    <g id="Group-18">
                        <polygon id="Fill-6" fill="#D1E6FE" points="0 60.066 117 60.066 117 40.066 0 40.066"></polygon>
                        <polygon id="Fill-8" fill="#87BEFD" points="0 80 205 80 205 60 0 60"></polygon>
                        <g id="Group-17" transform="translate(0.000000, 230.000000)">
                            <polygon id="Fill-9" fill="#D1E6FE" points="0 62.066 77 62.066 77 42.066 0 42.066"></polygon>
                            <polygon id="Fill-10" fill="#87BEFD" points="0 82 158 82 158 62 0 62"></polygon>
                            <path d="M168,70.616 L168,68.204 L173.904,68.204 L173.904,69.464 L170.352,76.592 L168.792,76.592 L172.26,69.488 L169.284,69.488 L169.284,70.616 L168,70.616 Z M175.164,69.464 L175.164,68.204 L180.072,68.204 L180.072,69.308 L178.044,71.576 C178.812004,71.6000001 179.411998,71.8419977 179.844,72.302 C180.276002,72.7620023 180.492,73.3119968 180.492,73.952 C180.492,74.8080043 180.202003,75.4799976 179.622,75.968 C179.041997,76.4560024 178.296005,76.7 177.384,76.7 C176.471995,76.7 175.580004,76.4080029 174.708,75.824 L175.308,74.684 C175.996003,75.1640024 176.715996,75.404 177.468,75.404 C177.956002,75.404 178.357998,75.2900011 178.674,75.062 C178.990002,74.8339989 179.148,74.5060021 179.148,74.078 C179.148,73.6499979 178.972002,73.3080013 178.62,73.052 C178.267998,72.7959987 177.780003,72.668 177.156,72.668 C176.843998,72.668 176.544001,72.7119996 176.256,72.8 L176.256,71.72 L178.2,69.464 L175.164,69.464 Z M185.328,69.908 C185.328,70.4360026 185.154002,70.8879981 184.806,71.264 C184.457998,71.6400019 184.026003,71.828 183.51,71.828 C182.993997,71.828 182.564002,71.6420019 182.22,71.27 C181.875998,70.8979981 181.704,70.4480026 181.704,69.92 C181.704,69.3919974 181.877998,68.9400019 182.226,68.564 C182.574002,68.1879981 183.005997,68 183.522,68 C184.038003,68 184.467998,68.1859981 184.812,68.558 C185.156002,68.9300019 185.328,69.3799974 185.328,69.908 Z M189.696,68.204 L183.552,76.592 L182.004,76.592 L188.148,68.204 L189.696,68.204 Z M184.2,69.932 C184.2,69.6919988 184.132001,69.4900008 183.996,69.326 C183.859999,69.1619992 183.694001,69.08 183.498,69.08 C183.301999,69.08 183.140001,69.1619992 183.012,69.326 C182.883999,69.4900008 182.82,69.6919988 182.82,69.932 C182.82,70.1720012 182.887999,70.3739992 183.024,70.538 C183.160001,70.7020008 183.325999,70.784 183.522,70.784 C183.718001,70.784 183.879999,70.7020008 184.008,70.538 C184.136001,70.3739992 184.2,70.1720012 184.2,69.932 Z M190.092,74.768 C190.092,75.2960026 189.918002,75.7479981 189.57,76.124 C189.221998,76.5000019 188.790003,76.688 188.274,76.688 C187.757997,76.688 187.328002,76.5020019 186.984,76.13 C186.639998,75.7579981 186.468,75.3080026 186.468,74.78 C186.468,74.2519974 186.641998,73.8000019 186.99,73.424 C187.338002,73.0479981 187.769997,72.86 188.286,72.86 C188.802003,72.86 189.231998,73.0459981 189.576,73.418 C189.920002,73.7900019 190.092,74.2399974 190.092,74.768 Z M188.988,74.816 C188.988,74.5759988 188.920001,74.3740008 188.784,74.21 C188.647999,74.0459992 188.482001,73.964 188.286,73.964 C188.089999,73.964 187.928001,74.0459992 187.8,74.21 C187.671999,74.3740008 187.608,74.5759988 187.608,74.816 C187.608,75.0560012 187.675999,75.2579992 187.812,75.422 C187.948001,75.5860008 188.113999,75.668 188.31,75.668 C188.506001,75.668 188.667999,75.5860008 188.796,75.422 C188.924001,75.2579992 188.988,75.0560012 188.988,74.816 Z" id="73%" fill="#87BEFD"></path>
                            <path d="M92.0163,47.2118872 L92.0163,48.4958872 L88.4763,48.4958872 L88.4763,50.5598872 C88.8283018,50.3678862 89.2282978,50.2718872 89.6763,50.2718872 C90.4603039,50.2718872 91.1362972,50.5078848 91.7043,50.9798872 C92.2723028,51.4518896 92.5563,52.0918832 92.5563,52.8998872 C92.5563,53.7078912 92.260303,54.3778845 91.6683,54.9098872 C91.076297,55.4418899 90.3483043,55.7078872 89.4843,55.7078872 C88.3562944,55.7078872 87.4563034,55.331891 86.7843,54.5798872 L87.5403,53.5478872 C87.6043003,53.6118875 87.6902995,53.6878868 87.7983,53.7758872 C87.9063005,53.8638876 88.1282983,53.9818865 88.4643,54.1298872 C88.8003017,54.2778879 89.168298,54.3518872 89.5683,54.3518872 C89.968302,54.3518872 90.3322984,54.2318884 90.6603,53.9918872 C90.9883016,53.751886 91.1523,53.4018895 91.1523,52.9418872 C91.1523,52.4818849 90.9783017,52.1258885 90.6303,51.8738872 C90.2822983,51.6218859 89.8423027,51.4958872 89.3103,51.4958872 C88.7782973,51.4958872 88.2723024,51.6278859 87.7923,51.8918872 L87.1923,51.2438872 L87.1923,47.2118872 L92.0163,47.2118872 Z M97.1763,52.2158872 L97.1763,50.6798872 L98.5203,50.6798872 L98.5203,52.2158872 L99.5283,52.2158872 L99.5283,53.4998872 L98.5203,53.4998872 L98.5203,55.6118872 L97.1763,55.6118872 L97.1763,53.4998872 L93.5763,53.4998872 L93.5763,52.2518872 L96.6603,47.2238872 L98.2083,47.2238872 L95.1723,52.2158872 L97.1763,52.2158872 Z M104.1483,48.9278872 C104.1483,49.4558898 103.974302,49.9078853 103.6263,50.2838872 C103.278298,50.6598891 102.846303,50.8478872 102.3303,50.8478872 C101.814297,50.8478872 101.384302,50.6618891 101.0403,50.2898872 C100.696298,49.9178853 100.5243,49.4678898 100.5243,48.9398872 C100.5243,48.4118846 100.698298,47.9598891 101.0463,47.5838872 C101.394302,47.2078853 101.826297,47.0198872 102.3423,47.0198872 C102.858303,47.0198872 103.288298,47.2058853 103.6323,47.5778872 C103.976302,47.9498891 104.1483,48.3998846 104.1483,48.9278872 Z M108.5163,47.2238872 L102.3723,55.6118872 L100.8243,55.6118872 L106.9683,47.2238872 L108.5163,47.2238872 Z M103.0203,48.9518872 C103.0203,48.711886 102.952301,48.509888 102.8163,48.3458872 C102.680299,48.1818864 102.514301,48.0998872 102.3183,48.0998872 C102.122299,48.0998872 101.960301,48.1818864 101.8323,48.3458872 C101.704299,48.509888 101.6403,48.711886 101.6403,48.9518872 C101.6403,49.1918884 101.708299,49.3938864 101.8443,49.5578872 C101.980301,49.721888 102.146299,49.8038872 102.3423,49.8038872 C102.538301,49.8038872 102.700299,49.721888 102.8283,49.5578872 C102.956301,49.3938864 103.0203,49.1918884 103.0203,48.9518872 Z M108.9123,53.7878872 C108.9123,54.3158898 108.738302,54.7678853 108.3903,55.1438872 C108.042298,55.5198891 107.610303,55.7078872 107.0943,55.7078872 C106.578297,55.7078872 106.148302,55.5218891 105.8043,55.1498872 C105.460298,54.7778853 105.2883,54.3278898 105.2883,53.7998872 C105.2883,53.2718846 105.462298,52.8198891 105.8103,52.4438872 C106.158302,52.0678853 106.590297,51.8798872 107.1063,51.8798872 C107.622303,51.8798872 108.052298,52.0658853 108.3963,52.4378872 C108.740302,52.8098891 108.9123,53.2598846 108.9123,53.7878872 Z M107.8083,53.8358872 C107.8083,53.595886 107.740301,53.393888 107.6043,53.2298872 C107.468299,53.0658864 107.302301,52.9838872 107.1063,52.9838872 C106.910299,52.9838872 106.748301,53.0658864 106.6203,53.2298872 C106.492299,53.393888 106.4283,53.595886 106.4283,53.8358872 C106.4283,54.0758884 106.496299,54.2778864 106.6323,54.4418872 C106.768301,54.605888 106.934299,54.6878872 107.1303,54.6878872 C107.326301,54.6878872 107.488299,54.605888 107.6163,54.4418872 C107.744301,54.2778864 107.8083,54.0758884 107.8083,53.8358872 Z" id="54%" fill="#87BEFD"></path>
                            <path d="M2.156,6.87149661 L1.386,8.62049661 L7.81597009e-14,8.62049661 L3.388,0.931496606 L4.774,0.931496606 L8.162,8.62049661 L6.776,8.62049661 L6.006,6.87149661 L2.156,6.87149661 Z M5.478,5.67249661 L4.081,2.50449661 L2.684,5.67249661 L5.478,5.67249661 Z M10.676,2.17449661 C10.4339988,2.32849738 10.313,2.56132838 10.313,2.87299661 C10.313,3.18466483 10.4339988,3.42299578 10.676,3.58799661 C10.9180012,3.75299743 11.4331627,3.93082899 12.2215,4.12149661 C13.0098373,4.31216423 13.6038313,4.57982822 14.0035,4.92449661 C14.4031687,5.269165 14.603,5.77699325 14.603,6.44799661 C14.603,7.11899996 14.3500025,7.66349452 13.844,8.08149661 C13.3379975,8.4994987 12.6743374,8.70849661 11.853,8.70849661 C10.6503273,8.70849661 9.58333799,8.29416742 8.652,7.46549661 L9.466,6.48649661 C10.2433372,7.16116665 11.0499958,7.49849661 11.886,7.49849661 C12.3040021,7.49849661 12.6358321,7.40866417 12.8815,7.22899661 C13.1271679,7.04932904 13.25,6.81099809 13.25,6.51399661 C13.25,6.21699512 13.1345012,5.98599743 12.9035,5.82099661 C12.6724988,5.65599578 12.2746695,5.50566395 11.71,5.36999661 C11.1453305,5.23432926 10.7163348,5.10966384 10.423,4.99599661 C10.1296652,4.88232937 9.86933447,4.73383086 9.642,4.55049661 C9.18733106,4.20582822 8.96,3.6778335 8.96,2.96649661 C8.96,2.25515972 9.21849742,1.70699853 9.7355,1.32199661 C10.2525026,0.936994681 10.8923295,0.744496606 11.655,0.744496606 C12.1463358,0.744496606 12.6339976,0.825162466 13.118,0.986496606 C13.6020024,1.14783075 14.0199982,1.37516181 14.372,1.66849661 L13.679,2.64749661 C13.4516655,2.44216225 13.1436686,2.27349727 12.755,2.14149661 C12.3663314,2.00949595 11.9831686,1.94349661 11.6055,1.94349661 C11.2278314,1.94349661 10.9180012,2.02049584 10.676,2.17449661 Z M17.656,2.17449661 C17.4139988,2.32849738 17.293,2.56132838 17.293,2.87299661 C17.293,3.18466483 17.4139988,3.42299578 17.656,3.58799661 C17.8980012,3.75299743 18.4131627,3.93082899 19.2015,4.12149661 C19.9898373,4.31216423 20.5838313,4.57982822 20.9835,4.92449661 C21.3831687,5.269165 21.583,5.77699325 21.583,6.44799661 C21.583,7.11899996 21.3300025,7.66349452 20.824,8.08149661 C20.3179975,8.4994987 19.6543374,8.70849661 18.833,8.70849661 C17.6303273,8.70849661 16.563338,8.29416742 15.632,7.46549661 L16.446,6.48649661 C17.2233372,7.16116665 18.0299958,7.49849661 18.866,7.49849661 C19.2840021,7.49849661 19.6158321,7.40866417 19.8615,7.22899661 C20.1071679,7.04932904 20.23,6.81099809 20.23,6.51399661 C20.23,6.21699512 20.1145012,5.98599743 19.8835,5.82099661 C19.6524988,5.65599578 19.2546695,5.50566395 18.69,5.36999661 C18.1253305,5.23432926 17.6963348,5.10966384 17.403,4.99599661 C17.1096652,4.88232937 16.8493345,4.73383086 16.622,4.55049661 C16.1673311,4.20582822 15.94,3.6778335 15.94,2.96649661 C15.94,2.25515972 16.1984974,1.70699853 16.7155,1.32199661 C17.2325026,0.936994681 17.8723295,0.744496606 18.635,0.744496606 C19.1263358,0.744496606 19.6139976,0.825162466 20.098,0.986496606 C20.5820024,1.14783075 20.9999982,1.37516181 21.352,1.66849661 L20.659,2.64749661 C20.4316655,2.44216225 20.1236686,2.27349727 19.735,2.14149661 C19.3463314,2.00949595 18.9631686,1.94349661 18.5855,1.94349661 C18.2078314,1.94349661 17.8980012,2.02049584 17.656,2.17449661 Z M28.64,0.931496606 L28.64,2.15249661 L24.537,2.15249661 L24.537,4.18749661 L28.222,4.18749661 L28.222,5.34249661 L24.537,5.34249661 L24.537,7.39949661 L28.772,7.39949661 L28.772,8.62049661 L23.239,8.62049661 L23.239,0.931496606 L28.64,0.931496606 Z M31.88,2.17449661 C31.6379988,2.32849738 31.517,2.56132838 31.517,2.87299661 C31.517,3.18466483 31.6379988,3.42299578 31.88,3.58799661 C32.1220012,3.75299743 32.6371627,3.93082899 33.4255,4.12149661 C34.2138373,4.31216423 34.8078313,4.57982822 35.2075,4.92449661 C35.6071687,5.269165 35.807,5.77699325 35.807,6.44799661 C35.807,7.11899996 35.5540025,7.66349452 35.048,8.08149661 C34.5419975,8.4994987 33.8783374,8.70849661 33.057,8.70849661 C31.8543273,8.70849661 30.787338,8.29416742 29.856,7.46549661 L30.67,6.48649661 C31.4473372,7.16116665 32.2539958,7.49849661 33.09,7.49849661 C33.5080021,7.49849661 33.8398321,7.40866417 34.0855,7.22899661 C34.3311679,7.04932904 34.454,6.81099809 34.454,6.51399661 C34.454,6.21699512 34.3385012,5.98599743 34.1075,5.82099661 C33.8764988,5.65599578 33.4786695,5.50566395 32.914,5.36999661 C32.3493305,5.23432926 31.9203348,5.10966384 31.627,4.99599661 C31.3336652,4.88232937 31.0733345,4.73383086 30.846,4.55049661 C30.3913311,4.20582822 30.164,3.6778335 30.164,2.96649661 C30.164,2.25515972 30.4224974,1.70699853 30.9395,1.32199661 C31.4565026,0.936994681 32.0963295,0.744496606 32.859,0.744496606 C33.3503358,0.744496606 33.8379976,0.825162466 34.322,0.986496606 C34.8060024,1.14783075 35.2239982,1.37516181 35.576,1.66849661 L34.883,2.64749661 C34.6556655,2.44216225 34.3476686,2.27349727 33.959,2.14149661 C33.5703314,2.00949595 33.1871686,1.94349661 32.8095,1.94349661 C32.4318314,1.94349661 32.1220012,2.02049584 31.88,2.17449661 Z M38.86,2.17449661 C38.6179988,2.32849738 38.497,2.56132838 38.497,2.87299661 C38.497,3.18466483 38.6179988,3.42299578 38.86,3.58799661 C39.1020012,3.75299743 39.6171627,3.93082899 40.4055,4.12149661 C41.1938373,4.31216423 41.7878313,4.57982822 42.1875,4.92449661 C42.5871687,5.269165 42.787,5.77699325 42.787,6.44799661 C42.787,7.11899996 42.5340025,7.66349452 42.028,8.08149661 C41.5219975,8.4994987 40.8583374,8.70849661 40.037,8.70849661 C38.8343273,8.70849661 37.767338,8.29416742 36.836,7.46549661 L37.65,6.48649661 C38.4273372,7.16116665 39.2339958,7.49849661 40.07,7.49849661 C40.4880021,7.49849661 40.8198321,7.40866417 41.0655,7.22899661 C41.3111679,7.04932904 41.434,6.81099809 41.434,6.51399661 C41.434,6.21699512 41.3185012,5.98599743 41.0875,5.82099661 C40.8564988,5.65599578 40.4586695,5.50566395 39.894,5.36999661 C39.3293305,5.23432926 38.9003348,5.10966384 38.607,4.99599661 C38.3136652,4.88232937 38.0533345,4.73383086 37.826,4.55049661 C37.3713311,4.20582822 37.144,3.6778335 37.144,2.96649661 C37.144,2.25515972 37.4024974,1.70699853 37.9195,1.32199661 C38.4365026,0.936994681 39.0763295,0.744496606 39.839,0.744496606 C40.3303358,0.744496606 40.8179976,0.825162466 41.302,0.986496606 C41.7860024,1.14783075 42.2039982,1.37516181 42.556,1.66849661 L41.863,2.64749661 C41.6356655,2.44216225 41.3276686,2.27349727 40.939,2.14149661 C40.5503314,2.00949595 40.1671686,1.94349661 39.7895,1.94349661 C39.4118314,1.94349661 39.1020012,2.02049584 38.86,2.17449661 Z M45.741,8.62049661 L44.443,8.62049661 L44.443,0.931496606 L46.467,0.931496606 L48.788,5.76049661 L51.109,0.931496606 L53.122,0.931496606 L53.122,8.62049661 L51.824,8.62049661 L51.824,2.61449661 L49.14,7.94949661 L48.414,7.94949661 L45.741,2.61449661 L45.741,8.62049661 Z M60.707,0.931496606 L60.707,2.15249661 L56.604,2.15249661 L56.604,4.18749661 L60.289,4.18749661 L60.289,5.34249661 L56.604,5.34249661 L56.604,7.39949661 L60.839,7.39949661 L60.839,8.62049661 L55.306,8.62049661 L55.306,0.931496606 L60.707,0.931496606 Z M68.314,0.931496606 L69.612,0.931496606 L69.612,8.62049661 L68.204,8.62049661 L63.848,3.01049661 L63.848,8.62049661 L62.55,8.62049661 L62.55,0.931496606 L63.848,0.931496606 L68.314,6.67349661 L68.314,0.931496606 Z M74.7,2.11949661 L74.7,8.62049661 L73.402,8.62049661 L73.402,2.11949661 L71.07,2.11949661 L71.07,0.931496606 L77.032,0.931496606 L77.032,2.11949661 L74.7,2.11949661 Z" id="ASSESSMENT" fill="#2F302F"></path>
                            <path d="M3.971,20.1154966 L3.971,26.6164966 L2.673,26.6164966 L2.673,20.1154966 L0.341,20.1154966 L0.341,18.9274966 L6.303,18.9274966 L6.303,20.1154966 L3.971,20.1154966 Z M13.162,18.9274966 L13.162,20.1484966 L9.059,20.1484966 L9.059,22.1834966 L12.744,22.1834966 L12.744,23.3384966 L9.059,23.3384966 L9.059,25.3954966 L13.294,25.3954966 L13.294,26.6164966 L7.761,26.6164966 L7.761,18.9274966 L13.162,18.9274966 Z M18.514,25.4394966 C18.9613356,25.4394966 19.3463317,25.3643307 19.669,25.2139966 C19.9916683,25.0636625 20.3289982,24.8234983 20.681,24.4934966 L21.517,25.3514966 C20.7029959,26.2535011 19.7148391,26.7044966 18.5525,26.7044966 C17.3901609,26.7044966 16.4258372,26.3305003 15.6595,25.5824966 C14.8931628,24.8344929 14.51,23.8885023 14.51,22.7444966 C14.51,21.6004909 14.9004961,20.6471671 15.6815,19.8844966 C16.4625039,19.1218261 17.4488274,18.7404966 18.6405,18.7404966 C19.8321726,18.7404966 20.8276627,19.1804922 21.627,20.0604966 L20.802,20.9624966 C20.4353315,20.6104948 20.088835,20.3648306 19.7625,20.2254966 C19.436165,20.0861626 19.0530022,20.0164966 18.613,20.0164966 C17.8356628,20.0164966 17.1830026,20.2676608 16.655,20.7699966 C16.1269974,21.2723325 15.863,21.9139927 15.863,22.6949966 C15.863,23.4760005 16.125164,24.1286607 16.6495,24.6529966 C17.173836,25.1773326 17.7953297,25.4394966 18.514,25.4394966 Z M23.151,26.6164966 L23.151,18.9274966 L24.449,18.9274966 L24.449,22.2604966 L28.266,22.2604966 L28.266,18.9274966 L29.564,18.9274966 L29.564,26.6164966 L28.266,26.6164966 L28.266,23.4704966 L24.449,23.4704966 L24.449,26.6164966 L23.151,26.6164966 Z M37.512,18.9274966 L38.81,18.9274966 L38.81,26.6164966 L37.402,26.6164966 L33.046,21.0064966 L33.046,26.6164966 L31.748,26.6164966 L31.748,18.9274966 L33.046,18.9274966 L37.512,24.6694966 L37.512,18.9274966 Z M40.994,18.9274966 L42.292,18.9274966 L42.292,26.6164966 L40.994,26.6164966 L40.994,18.9274966 Z M48.194,26.6824966 L48.029,26.6934966 C46.8849943,26.6934966 45.9243372,26.3140004 45.147,25.5549966 C44.3696628,24.7959928 43.981,23.8500023 43.981,22.7169966 C43.981,21.5839909 44.3696628,20.6380004 45.147,19.8789966 C45.9243372,19.1199928 46.8849943,18.7404966 48.029,18.7404966 C49.1730057,18.7404966 50.1336628,19.1199928 50.911,19.8789966 C51.6883372,20.6380004 52.077,21.5821576 52.077,22.7114966 C52.077,23.5695009 51.8460023,24.3303266 51.384,24.9939966 C50.9219977,25.6576666 50.3060039,26.1361618 49.536,26.4294966 C49.7853346,26.7594983 50.1006648,26.9244966 50.482,26.9244966 C50.7606681,26.9244966 51.033832,26.851164 51.3015,26.7044966 C51.569168,26.5578292 51.772666,26.3671644 51.912,26.1324966 L52.649,27.1554966 C52.0109968,27.8301666 51.2813374,28.1674966 50.46,28.1674966 C49.9906643,28.1674966 49.5396688,28.0354979 49.107,27.7714966 C48.6743312,27.5074953 48.3700009,27.1444989 48.194,26.6824966 Z M48.029,19.9284966 C47.2663295,19.9284966 46.622836,20.1998272 46.0985,20.7424966 C45.574164,21.285166 45.312,21.9433261 45.312,22.7169966 C45.312,23.4906671 45.574164,24.1488272 46.0985,24.6914966 C46.622836,25.234166 47.2663295,25.5054966 48.029,25.5054966 C48.7916705,25.5054966 49.435164,25.234166 49.9595,24.6914966 C50.483836,24.1488272 50.746,23.4906671 50.746,22.7169966 C50.746,21.9433261 50.483836,21.285166 49.9595,20.7424966 C49.435164,20.1998272 48.7916705,19.9284966 48.029,19.9284966 Z M56.923,25.4724966 C57.5243363,25.4724966 58.0009982,25.2671653 58.353,24.8564966 C58.7050018,24.4458279 58.881,23.8885001 58.881,23.1844966 L58.881,18.9274966 L60.179,18.9274966 L60.179,23.2394966 C60.179,24.3468355 59.8746697,25.199327 59.266,25.7969966 C58.6573303,26.3946663 57.8763381,26.6934966 56.923,26.6934966 C55.9696619,26.6934966 55.1886697,26.3946663 54.58,25.7969966 C53.9713303,25.199327 53.667,24.3468355 53.667,23.2394966 L53.667,18.9274966 L54.965,18.9274966 L54.965,23.1844966 C54.965,23.8885001 55.1409982,24.4458279 55.493,24.8564966 C55.8450018,25.2671653 56.3216637,25.4724966 56.923,25.4724966 Z M67.665,18.9274966 L67.665,20.1484966 L63.562,20.1484966 L63.562,22.1834966 L67.247,22.1834966 L67.247,23.3384966 L63.562,23.3384966 L63.562,25.3954966 L67.797,25.3954966 L67.797,26.6164966 L62.264,26.6164966 L62.264,18.9274966 L67.665,18.9274966 Z M70.905,20.1704966 C70.6629988,20.3244974 70.542,20.5573284 70.542,20.8689966 C70.542,21.1806648 70.6629988,21.4189958 70.905,21.5839966 C71.1470012,21.7489974 71.6621627,21.926829 72.4505,22.1174966 C73.2388373,22.3081642 73.8328313,22.5758282 74.2325,22.9204966 C74.6321687,23.265165 74.832,23.7729933 74.832,24.4439966 C74.832,25.115 74.5790025,25.6594945 74.073,26.0774966 C73.5669975,26.4954987 72.9033374,26.7044966 72.082,26.7044966 C70.8793273,26.7044966 69.812338,26.2901674 68.881,25.4614966 L69.695,24.4824966 C70.4723372,25.1571666 71.2789958,25.4944966 72.115,25.4944966 C72.5330021,25.4944966 72.8648321,25.4046642 73.1105,25.2249966 C73.3561679,25.045329 73.479,24.8069981 73.479,24.5099966 C73.479,24.2129951 73.3635012,23.9819974 73.1325,23.8169966 C72.9014988,23.6519958 72.5036695,23.501664 71.939,23.3659966 C71.3743305,23.2303293 70.9453348,23.1056638 70.652,22.9919966 C70.3586652,22.8783294 70.0983345,22.7298309 69.871,22.5464966 C69.4163311,22.2018282 69.189,21.6738335 69.189,20.9624966 C69.189,20.2511597 69.4474974,19.7029985 69.9645,19.3179966 C70.4815026,18.9329947 71.1213295,18.7404966 71.884,18.7404966 C72.3753358,18.7404966 72.8629976,18.8211625 73.347,18.9824966 C73.8310024,19.1438307 74.2489982,19.3711618 74.601,19.6644966 L73.908,20.6434966 C73.6806655,20.4381622 73.3726686,20.2694973 72.984,20.1374966 C72.5953314,20.0054959 72.2121686,19.9394966 71.8345,19.9394966 C71.4568314,19.9394966 71.1470012,20.0164958 70.905,20.1704966 Z" id="TECHNIQUES" fill="#2F302F"></path>
                        </g>
                        <path d="M216.132,66.036 C216.940004,66.036 217.611997,66.2479979 218.148,66.672 C218.684003,67.0960021 218.952,67.6299968 218.952,68.274 C218.952,68.9180032 218.652003,69.4879975 218.052,69.984 C218.860004,70.4960026 219.264,71.2159954 219.264,72.144 C219.264,72.8640036 218.976003,73.4679976 218.4,73.956 C217.823997,74.4440024 217.068005,74.688 216.132,74.688 C215.195995,74.688 214.440003,74.4440024 213.864,73.956 C213.287997,73.4679976 213,72.8640036 213,72.144 C213,71.2159954 213.403996,70.4960026 214.212,69.984 C213.611997,69.4879975 213.312,68.9180032 213.312,68.274 C213.312,67.6299968 213.579997,67.0960021 214.116,66.672 C214.652003,66.2479979 215.323996,66.036 216.132,66.036 Z M216.132,73.464 C216.548002,73.464 216.939998,73.3460012 217.308,73.11 C217.676002,72.8739988 217.86,72.5360022 217.86,72.096 C217.86,71.6559978 217.684002,71.3160012 217.332,71.076 C216.979998,70.8359988 216.580002,70.716 216.132,70.716 C215.683998,70.716 215.284002,70.8359988 214.932,71.076 C214.579998,71.3160012 214.404,71.6559978 214.404,72.096 C214.404,72.5360022 214.587998,72.8739988 214.956,73.11 C215.324002,73.3460012 215.715998,73.464 216.132,73.464 Z M216.132,69.66 C216.540002,69.66 216.893998,69.5380012 217.194,69.294 C217.494001,69.0499988 217.644,68.7500018 217.644,68.394 C217.644,68.0379982 217.494001,67.7400012 217.194,67.5 C216.893998,67.2599988 216.540002,67.14 216.132,67.14 C215.723998,67.14 215.370002,67.2599988 215.07,67.5 C214.769998,67.7400012 214.62,68.0379982 214.62,68.394 C214.62,68.7500018 214.769998,69.0499988 215.07,69.294 C215.370002,69.5380012 215.723998,69.66 216.132,69.66 Z M225.78,66.192 L225.78,67.476 L222.24,67.476 L222.24,69.54 C222.592002,69.347999 222.991998,69.252 223.44,69.252 C224.224004,69.252 224.899997,69.4879976 225.468,69.96 C226.036003,70.4320024 226.32,71.071996 226.32,71.88 C226.32,72.688004 226.024003,73.3579973 225.432,73.89 C224.839997,74.4220027 224.112004,74.688 223.248,74.688 C222.119994,74.688 221.220003,74.3120038 220.548,73.56 L221.304,72.528 C221.368,72.5920003 221.453999,72.6679996 221.562,72.756 C221.670001,72.8440004 221.891998,72.9619993 222.228,73.11 C222.564002,73.2580007 222.931998,73.332 223.332,73.332 C223.732002,73.332 224.095998,73.2120012 224.424,72.972 C224.752002,72.7319988 224.916,72.3820023 224.916,71.922 C224.916,71.4619977 224.742002,71.1060013 224.394,70.854 C224.045998,70.6019987 223.606003,70.476 223.074,70.476 C222.541997,70.476 222.036002,70.6079987 221.556,70.872 L220.956,70.224 L220.956,66.192 L225.78,66.192 Z M231.048,67.908 C231.048,68.4360026 230.874002,68.8879981 230.526,69.264 C230.177998,69.6400019 229.746003,69.828 229.23,69.828 C228.713997,69.828 228.284002,69.6420019 227.94,69.27 C227.595998,68.8979981 227.424,68.4480026 227.424,67.92 C227.424,67.3919974 227.597998,66.9400019 227.946,66.564 C228.294002,66.1879981 228.725997,66 229.242,66 C229.758003,66 230.187998,66.1859981 230.532,66.558 C230.876002,66.9300019 231.048,67.3799974 231.048,67.908 Z M235.416,66.204 L229.272,74.592 L227.724,74.592 L233.868,66.204 L235.416,66.204 Z M229.92,67.932 C229.92,67.6919988 229.852001,67.4900008 229.716,67.326 C229.579999,67.1619992 229.414001,67.08 229.218,67.08 C229.021999,67.08 228.860001,67.1619992 228.732,67.326 C228.603999,67.4900008 228.54,67.6919988 228.54,67.932 C228.54,68.1720012 228.607999,68.3739992 228.744,68.538 C228.880001,68.7020008 229.045999,68.784 229.242,68.784 C229.438001,68.784 229.599999,68.7020008 229.728,68.538 C229.856001,68.3739992 229.92,68.1720012 229.92,67.932 Z M235.812,72.768 C235.812,73.2960026 235.638002,73.7479981 235.29,74.124 C234.941998,74.5000019 234.510003,74.688 233.994,74.688 C233.477997,74.688 233.048002,74.5020019 232.704,74.13 C232.359998,73.7579981 232.188,73.3080026 232.188,72.78 C232.188,72.2519974 232.361998,71.8000019 232.71,71.424 C233.058002,71.0479981 233.489997,70.86 234.006,70.86 C234.522003,70.86 234.951998,71.0459981 235.296,71.418 C235.640002,71.7900019 235.812,72.2399974 235.812,72.768 Z M234.708,72.816 C234.708,72.5759988 234.640001,72.3740008 234.504,72.21 C234.367999,72.0459992 234.202001,71.964 234.006,71.964 C233.809999,71.964 233.648001,72.0459992 233.52,72.21 C233.391999,72.3740008 233.328,72.5759988 233.328,72.816 C233.328,73.0560012 233.395999,73.2579992 233.532,73.422 C233.668001,73.5860008 233.833999,73.668 234.03,73.668 C234.226001,73.668 234.387999,73.5860008 234.516,73.422 C234.644001,73.2579992 234.708,73.0560012 234.708,72.816 Z" id="85%" fill="#87BEFD"></path>
                        <path d="M129.528,45.32 C128.783996,45.32 128.236002,45.5719975 127.884,46.076 C127.531998,46.5800025 127.352,47.2599957 127.344,48.116 C127.544001,47.8919989 127.831998,47.682001 128.208,47.486 C128.584002,47.289999 128.999998,47.192 129.456,47.192 C130.208004,47.192 130.837997,47.4419975 131.346,47.942 C131.854003,48.4420025 132.108,49.1059959 132.108,49.934 C132.108,50.7620041 131.834003,51.4279975 131.286,51.932 C130.737997,52.4360025 130.048004,52.688 129.216,52.688 C127.871993,52.688 126.944003,52.088006 126.432,50.888 C126.143999,50.1999966 126,49.4240043 126,48.56 C126,47.6959957 126.091999,46.9760029 126.276,46.4 C126.460001,45.8239971 126.711998,45.3680017 127.032,45.032 C127.656003,44.3759967 128.421995,44.048 129.33,44.048 C130.238005,44.048 131.059996,44.3319972 131.796,44.9 L131.088,45.944 C130.903999,45.7839992 130.658002,45.6400006 130.35,45.512 C130.041998,45.3839994 129.768001,45.32 129.528,45.32 Z M128.058,48.842 C127.733998,49.1100013 127.572,49.4579979 127.572,49.886 C127.572,50.3140021 127.727998,50.6819985 128.04,50.99 C128.352002,51.2980015 128.743998,51.452 129.216,51.452 C129.688002,51.452 130.079998,51.3140014 130.392,51.038 C130.704002,50.7619986 130.86,50.4100021 130.86,49.982 C130.86,49.5539979 130.716001,49.1900015 130.428,48.89 C130.139999,48.5899985 129.754002,48.44 129.27,48.44 C128.785998,48.44 128.382002,48.5739987 128.058,48.842 Z M137.172,47.48 C137.412001,47.1519984 137.532,46.8200017 137.532,46.484 C137.532,46.1479983 137.404001,45.8620012 137.148,45.626 C136.891999,45.3899988 136.568002,45.272 136.176,45.272 C135.487997,45.272 134.916002,45.6239965 134.46,46.328 L133.32,45.668 C133.688002,45.1159972 134.093998,44.7000014 134.538,44.42 C134.982002,44.1399986 135.553996,44 136.254,44 C136.954003,44 137.567997,44.2219978 138.096,44.666 C138.624003,45.1100022 138.888,45.7159962 138.888,46.484 C138.888,46.9160022 138.776001,47.327998 138.552,47.72 C138.327999,48.112002 137.916003,48.6159969 137.316,49.232 L135.348,51.236 L139.152,51.236 L139.152,52.592 L133.416,52.592 L133.416,51.392 L135.96,48.836 C136.528003,48.2599971 136.931999,47.8080016 137.172,47.48 Z M143.94,45.908 C143.94,46.4360026 143.766002,46.8879981 143.418,47.264 C143.069998,47.6400019 142.638003,47.828 142.122,47.828 C141.605997,47.828 141.176002,47.6420019 140.832,47.27 C140.487998,46.8979981 140.316,46.4480026 140.316,45.92 C140.316,45.3919974 140.489998,44.9400019 140.838,44.564 C141.186002,44.1879981 141.617997,44 142.134,44 C142.650003,44 143.079998,44.1859981 143.424,44.558 C143.768002,44.9300019 143.94,45.3799974 143.94,45.908 Z M148.308,44.204 L142.164,52.592 L140.616,52.592 L146.76,44.204 L148.308,44.204 Z M142.812,45.932 C142.812,45.6919988 142.744001,45.4900008 142.608,45.326 C142.471999,45.1619992 142.306001,45.08 142.11,45.08 C141.913999,45.08 141.752001,45.1619992 141.624,45.326 C141.495999,45.4900008 141.432,45.6919988 141.432,45.932 C141.432,46.1720012 141.499999,46.3739992 141.636,46.538 C141.772001,46.7020008 141.937999,46.784 142.134,46.784 C142.330001,46.784 142.491999,46.7020008 142.62,46.538 C142.748001,46.3739992 142.812,46.1720012 142.812,45.932 Z M148.704,50.768 C148.704,51.2960026 148.530002,51.7479981 148.182,52.124 C147.833998,52.5000019 147.402003,52.688 146.886,52.688 C146.369997,52.688 145.940002,52.5020019 145.596,52.13 C145.251998,51.7579981 145.08,51.3080026 145.08,50.78 C145.08,50.2519974 145.253998,49.8000019 145.602,49.424 C145.950002,49.0479981 146.381997,48.86 146.898,48.86 C147.414003,48.86 147.843998,49.0459981 148.188,49.418 C148.532002,49.7900019 148.704,50.2399974 148.704,50.768 Z M147.6,50.816 C147.6,50.5759988 147.532001,50.3740008 147.396,50.21 C147.259999,50.0459992 147.094001,49.964 146.898,49.964 C146.701999,49.964 146.540001,50.0459992 146.412,50.21 C146.283999,50.3740008 146.22,50.5759988 146.22,50.816 C146.22,51.0560012 146.287999,51.2579992 146.424,51.422 C146.560001,51.5860008 146.725999,51.668 146.922,51.668 C147.118001,51.668 147.279999,51.5860008 147.408,51.422 C147.536001,51.2579992 147.6,51.0560012 147.6,50.816 Z" id="62%" fill="#87BEFD"></path>
                        <g id="Group-16" transform="translate(0.000000, 114.000000)">
                            <path d="M145.528,67.32 C144.783996,67.32 144.236002,67.5719975 143.884,68.076 C143.531998,68.5800025 143.352,69.2599957 143.344,70.116 C143.544001,69.8919989 143.831998,69.682001 144.208,69.486 C144.584002,69.289999 144.999998,69.192 145.456,69.192 C146.208004,69.192 146.837997,69.4419975 147.346,69.942 C147.854003,70.4420025 148.108,71.1059959 148.108,71.934 C148.108,72.7620041 147.834003,73.4279975 147.286,73.932 C146.737997,74.4360025 146.048004,74.688 145.216,74.688 C143.871993,74.688 142.944003,74.088006 142.432,72.888 C142.143999,72.1999966 142,71.4240043 142,70.56 C142,69.6959957 142.091999,68.9760029 142.276,68.4 C142.460001,67.8239971 142.711998,67.3680017 143.032,67.032 C143.656003,66.3759967 144.421995,66.048 145.33,66.048 C146.238005,66.048 147.059996,66.3319972 147.796,66.9 L147.088,67.944 C146.903999,67.7839992 146.658002,67.6400006 146.35,67.512 C146.041998,67.3839994 145.768001,67.32 145.528,67.32 Z M144.058,70.842 C143.733998,71.1100013 143.572,71.4579979 143.572,71.886 C143.572,72.3140021 143.727998,72.6819985 144.04,72.99 C144.352002,73.2980015 144.743998,73.452 145.216,73.452 C145.688002,73.452 146.079998,73.3140014 146.392,73.038 C146.704002,72.7619986 146.86,72.4100021 146.86,71.982 C146.86,71.5539979 146.716001,71.1900015 146.428,70.89 C146.139999,70.5899985 145.754002,70.44 145.27,70.44 C144.785998,70.44 144.382002,70.5739987 144.058,70.842 Z M152.536,66.036 C153.344004,66.036 154.015997,66.2479979 154.552,66.672 C155.088003,67.0960021 155.356,67.6299968 155.356,68.274 C155.356,68.9180032 155.056003,69.4879975 154.456,69.984 C155.264004,70.4960026 155.668,71.2159954 155.668,72.144 C155.668,72.8640036 155.380003,73.4679976 154.804,73.956 C154.227997,74.4440024 153.472005,74.688 152.536,74.688 C151.599995,74.688 150.844003,74.4440024 150.268,73.956 C149.691997,73.4679976 149.404,72.8640036 149.404,72.144 C149.404,71.2159954 149.807996,70.4960026 150.616,69.984 C150.015997,69.4879975 149.716,68.9180032 149.716,68.274 C149.716,67.6299968 149.983997,67.0960021 150.52,66.672 C151.056003,66.2479979 151.727996,66.036 152.536,66.036 Z M152.536,73.464 C152.952002,73.464 153.343998,73.3460012 153.712,73.11 C154.080002,72.8739988 154.264,72.5360022 154.264,72.096 C154.264,71.6559978 154.088002,71.3160012 153.736,71.076 C153.383998,70.8359988 152.984002,70.716 152.536,70.716 C152.087998,70.716 151.688002,70.8359988 151.336,71.076 C150.983998,71.3160012 150.808,71.6559978 150.808,72.096 C150.808,72.5360022 150.991998,72.8739988 151.36,73.11 C151.728002,73.3460012 152.119998,73.464 152.536,73.464 Z M152.536,69.66 C152.944002,69.66 153.297999,69.5380012 153.598,69.294 C153.898001,69.0499988 154.048,68.7500018 154.048,68.394 C154.048,68.0379982 153.898001,67.7400012 153.598,67.5 C153.297999,67.2599988 152.944002,67.14 152.536,67.14 C152.127998,67.14 151.774001,67.2599988 151.474,67.5 C151.173999,67.7400012 151.024,68.0379982 151.024,68.394 C151.024,68.7500018 151.173999,69.0499988 151.474,69.294 C151.774001,69.5380012 152.127998,69.66 152.536,69.66 Z M160.504,67.908 C160.504,68.4360026 160.330002,68.8879981 159.982,69.264 C159.633998,69.6400019 159.202003,69.828 158.686,69.828 C158.169997,69.828 157.740002,69.6420019 157.396,69.27 C157.051998,68.8979981 156.88,68.4480026 156.88,67.92 C156.88,67.3919974 157.053998,66.9400019 157.402,66.564 C157.750002,66.1879981 158.181997,66 158.698,66 C159.214003,66 159.643998,66.1859981 159.988,66.558 C160.332002,66.9300019 160.504,67.3799974 160.504,67.908 Z M164.872,66.204 L158.728,74.592 L157.18,74.592 L163.324,66.204 L164.872,66.204 Z M159.376,67.932 C159.376,67.6919988 159.308001,67.4900008 159.172,67.326 C159.035999,67.1619992 158.870001,67.08 158.674,67.08 C158.477999,67.08 158.316001,67.1619992 158.188,67.326 C158.059999,67.4900008 157.996,67.6919988 157.996,67.932 C157.996,68.1720012 158.063999,68.3739992 158.2,68.538 C158.336001,68.7020008 158.501999,68.784 158.698,68.784 C158.894001,68.784 159.055999,68.7020008 159.184,68.538 C159.312001,68.3739992 159.376,68.1720012 159.376,67.932 Z M165.268,72.768 C165.268,73.2960026 165.094002,73.7479981 164.746,74.124 C164.397998,74.5000019 163.966003,74.688 163.45,74.688 C162.933997,74.688 162.504002,74.5020019 162.16,74.13 C161.815998,73.7579981 161.644,73.3080026 161.644,72.78 C161.644,72.2519974 161.817998,71.8000019 162.166,71.424 C162.514002,71.0479981 162.945997,70.86 163.462,70.86 C163.978003,70.86 164.407998,71.0459981 164.752,71.418 C165.096002,71.7900019 165.268,72.2399974 165.268,72.768 Z M164.164,72.816 C164.164,72.5759988 164.096001,72.3740008 163.96,72.21 C163.823999,72.0459992 163.658001,71.964 163.462,71.964 C163.265999,71.964 163.104001,72.0459992 162.976,72.21 C162.847999,72.3740008 162.784,72.5759988 162.784,72.816 C162.784,73.0560012 162.851999,73.2579992 162.988,73.422 C163.124001,73.5860008 163.289999,73.668 163.486,73.668 C163.682001,73.668 163.843999,73.5860008 163.972,73.422 C164.100001,73.2579992 164.164,73.0560012 164.164,72.816 Z" id="68%" fill="#87BEFD"></path>
                            <path d="M61.6,50.6554966 L61.6,49.1194966 L62.944,49.1194966 L62.944,50.6554966 L63.952,50.6554966 L63.952,51.9394966 L62.944,51.9394966 L62.944,54.0514966 L61.6,54.0514966 L61.6,51.9394966 L58,51.9394966 L58,50.6914966 L61.084,45.6634966 L62.632,45.6634966 L59.596,50.6554966 L61.6,50.6554966 Z M68.236,45.4954966 C69.044004,45.4954966 69.7159973,45.7074945 70.252,46.1314966 C70.7880027,46.5554987 71.056,47.0894934 71.056,47.7334966 C71.056,48.3774998 70.756003,48.9474941 70.156,49.4434966 C70.964004,49.9554992 71.368,50.675492 71.368,51.6034966 C71.368,52.3235002 71.0800029,52.9274942 70.504,53.4154966 C69.9279971,53.903499 69.1720047,54.1474966 68.236,54.1474966 C67.2999953,54.1474966 66.5440029,53.903499 65.968,53.4154966 C65.3919971,52.9274942 65.104,52.3235002 65.104,51.6034966 C65.104,50.675492 65.507996,49.9554992 66.316,49.4434966 C65.715997,48.9474941 65.416,48.3774998 65.416,47.7334966 C65.416,47.0894934 65.6839973,46.5554987 66.22,46.1314966 C66.7560027,45.7074945 67.427996,45.4954966 68.236,45.4954966 Z M68.236,52.9234966 C68.6520021,52.9234966 69.0439982,52.8054978 69.412,52.5694966 C69.7800018,52.3334954 69.964,51.9954988 69.964,51.5554966 C69.964,51.1154944 69.7880018,50.7754978 69.436,50.5354966 C69.0839982,50.2954954 68.6840022,50.1754966 68.236,50.1754966 C67.7879978,50.1754966 67.3880018,50.2954954 67.036,50.5354966 C66.6839982,50.7754978 66.508,51.1154944 66.508,51.5554966 C66.508,51.9954988 66.6919982,52.3334954 67.06,52.5694966 C67.4280018,52.8054978 67.8199979,52.9234966 68.236,52.9234966 Z M68.236,49.1194966 C68.644002,49.1194966 68.9979985,48.9974978 69.298,48.7534966 C69.5980015,48.5094954 69.748,48.2094984 69.748,47.8534966 C69.748,47.4974948 69.5980015,47.1994978 69.298,46.9594966 C68.9979985,46.7194954 68.644002,46.5994966 68.236,46.5994966 C67.827998,46.5994966 67.4740015,46.7194954 67.174,46.9594966 C66.8739985,47.1994978 66.724,47.4974948 66.724,47.8534966 C66.724,48.2094984 66.8739985,48.5094954 67.174,48.7534966 C67.4740015,48.9974978 67.827998,49.1194966 68.236,49.1194966 Z M76.204,47.3674966 C76.204,47.8954992 76.0300017,48.3474947 75.682,48.7234966 C75.3339983,49.0994985 74.9020026,49.2874966 74.386,49.2874966 C73.8699974,49.2874966 73.4400017,49.1014985 73.096,48.7294966 C72.7519983,48.3574947 72.58,47.9074992 72.58,47.3794966 C72.58,46.851494 72.7539983,46.3994985 73.102,46.0234966 C73.4500017,45.6474947 73.8819974,45.4594966 74.398,45.4594966 C74.9140026,45.4594966 75.3439983,45.6454947 75.688,46.0174966 C76.0320017,46.3894985 76.204,46.839494 76.204,47.3674966 Z M80.572,45.6634966 L74.428,54.0514966 L72.88,54.0514966 L79.024,45.6634966 L80.572,45.6634966 Z M75.076,47.3914966 C75.076,47.1514954 75.0080007,46.9494974 74.872,46.7854966 C74.7359993,46.6214958 74.570001,46.5394966 74.374,46.5394966 C74.177999,46.5394966 74.0160006,46.6214958 73.888,46.7854966 C73.7599994,46.9494974 73.696,47.1514954 73.696,47.3914966 C73.696,47.6314978 73.7639993,47.8334958 73.9,47.9974966 C74.0360007,48.1614974 74.201999,48.2434966 74.398,48.2434966 C74.594001,48.2434966 74.7559994,48.1614974 74.884,47.9974966 C75.0120006,47.8334958 75.076,47.6314978 75.076,47.3914966 Z M80.968,52.2274966 C80.968,52.7554992 80.7940017,53.2074947 80.446,53.5834966 C80.0979983,53.9594985 79.6660026,54.1474966 79.15,54.1474966 C78.6339974,54.1474966 78.2040017,53.9614985 77.86,53.5894966 C77.5159983,53.2174947 77.344,52.7674992 77.344,52.2394966 C77.344,51.711494 77.5179983,51.2594985 77.866,50.8834966 C78.2140017,50.5074947 78.6459974,50.3194966 79.162,50.3194966 C79.6780026,50.3194966 80.1079983,50.5054947 80.452,50.8774966 C80.7960017,51.2494985 80.968,51.699494 80.968,52.2274966 Z M79.864,52.2754966 C79.864,52.0354954 79.7960007,51.8334974 79.66,51.6694966 C79.5239993,51.5054958 79.358001,51.4234966 79.162,51.4234966 C78.965999,51.4234966 78.8040006,51.5054958 78.676,51.6694966 C78.5479994,51.8334974 78.484,52.0354954 78.484,52.2754966 C78.484,52.5154978 78.5519993,52.7174958 78.688,52.8814966 C78.8240007,53.0454974 78.989999,53.1274966 79.186,53.1274966 C79.382001,53.1274966 79.5439994,53.0454974 79.672,52.8814966 C79.8000006,52.7174958 79.864,52.5154978 79.864,52.2754966 Z" id="48%" fill="#87BEFD"></path>
                            <path d="M3.971,1.83849661 L3.971,8.33949661 L2.673,8.33949661 L2.673,1.83849661 L0.341,1.83849661 L0.341,0.650496606 L6.303,0.650496606 L6.303,1.83849661 L3.971,1.83849661 Z M13.162,0.650496606 L13.162,1.87149661 L9.059,1.87149661 L9.059,3.90649661 L12.744,3.90649661 L12.744,5.06149661 L9.059,5.06149661 L9.059,7.11849661 L13.294,7.11849661 L13.294,8.33949661 L7.761,8.33949661 L7.761,0.650496606 L13.162,0.650496606 Z M16.094,6.59049661 L15.324,8.33949661 L13.938,8.33949661 L17.326,0.650496606 L18.712,0.650496606 L22.1,8.33949661 L20.714,8.33949661 L19.944,6.59049661 L16.094,6.59049661 Z M19.416,5.39149661 L18.019,2.22349661 L16.622,5.39149661 L19.416,5.39149661 Z M26.726,7.16249661 C27.1733356,7.16249661 27.5583317,7.08733069 27.881,6.93699661 C28.2036683,6.78666252 28.5409982,6.54649826 28.893,6.21649661 L29.729,7.07449661 C28.9149959,7.97650112 27.9268391,8.42749661 26.7645,8.42749661 C25.6021609,8.42749661 24.6378372,8.05350035 23.8715,7.30549661 C23.1051628,6.55749287 22.722,5.61150233 22.722,4.46749661 C22.722,3.32349089 23.1124961,2.37016709 23.8935,1.60749661 C24.6745039,0.844826126 25.6608274,0.463496606 26.8525,0.463496606 C28.0441726,0.463496606 29.0396627,0.903492206 29.839,1.78349661 L29.014,2.68549661 C28.6473315,2.33349485 28.300835,2.08783064 27.9745,1.94849661 C27.648165,1.80916258 27.2650022,1.73949661 26.825,1.73949661 C26.0476628,1.73949661 25.3950026,1.99066076 24.867,2.49299661 C24.3389974,2.99533245 24.075,3.6369927 24.075,4.41799661 C24.075,5.19900051 24.337164,5.85166065 24.8615,6.37599661 C25.385836,6.90033256 26.0073297,7.16249661 26.726,7.16249661 Z M31.363,8.33949661 L31.363,0.650496606 L32.661,0.650496606 L32.661,3.98349661 L36.478,3.98349661 L36.478,0.650496606 L37.776,0.650496606 L37.776,8.33949661 L36.478,8.33949661 L36.478,5.19349661 L32.661,5.19349661 L32.661,8.33949661 L31.363,8.33949661 Z M39.96,0.650496606 L41.258,0.650496606 L41.258,8.33949661 L39.96,8.33949661 L39.96,0.650496606 Z M49.206,0.650496606 L50.504,0.650496606 L50.504,8.33949661 L49.096,8.33949661 L44.74,2.72949661 L44.74,8.33949661 L43.442,8.33949661 L43.442,0.650496606 L44.74,0.650496606 L49.206,6.39249661 L49.206,0.650496606 Z M58.012,4.59949661 L59.31,4.59949661 L59.31,7.22849661 C58.5839964,8.02783394 57.5463401,8.42749661 56.197,8.42749661 C55.0603277,8.42749661 54.1088372,8.05350035 53.3425,7.30549661 C52.5761628,6.55749287 52.193,5.61150233 52.193,4.46749661 C52.193,3.32349089 52.5834961,2.37016709 53.3645,1.60749661 C54.1455039,0.844826126 55.0896611,0.463496606 56.197,0.463496606 C57.3043389,0.463496606 58.224663,0.786160046 58.958,1.43149661 L58.265,2.42149661 C57.9643318,2.16482866 57.6618349,1.9869971 57.3575,1.88799661 C57.0531651,1.78899611 56.6993354,1.73949661 56.296,1.73949661 C55.5186628,1.73949661 54.8660026,1.99066076 54.338,2.49299661 C53.8099974,2.99533245 53.546,3.65532585 53.546,4.47299661 C53.546,5.29066736 53.8026641,5.94699413 54.316,6.44199661 C54.8293359,6.93699908 55.4508297,7.18449661 56.1805,7.18449661 C56.9101703,7.18449661 57.5206642,7.02683152 58.012,6.71149661 L58.012,4.59949661 Z M64.129,8.33949661 L64.129,0.650496606 L65.427,0.650496606 L65.427,7.10749661 L68.936,7.10749661 L68.936,8.33949661 L64.129,8.33949661 Z M75.806,0.650496606 L75.806,1.87149661 L71.703,1.87149661 L71.703,3.90649661 L75.388,3.90649661 L75.388,5.06149661 L71.703,5.06149661 L71.703,7.11849661 L75.938,7.11849661 L75.938,8.33949661 L70.405,8.33949661 L70.405,0.650496606 L75.806,0.650496606 Z M78.738,6.59049661 L77.968,8.33949661 L76.582,8.33949661 L79.97,0.650496606 L81.356,0.650496606 L84.744,8.33949661 L83.358,8.33949661 L82.588,6.59049661 L78.738,6.59049661 Z M82.06,5.39149661 L80.663,2.22349661 L79.266,5.39149661 L82.06,5.39149661 Z M91.999,3.14749661 C91.999,4.41616962 91.4453389,5.21549496 90.338,5.54549661 L92.351,8.33949661 L90.701,8.33949661 L88.864,5.75449661 L87.159,5.75449661 L87.159,8.33949661 L85.861,8.33949661 L85.861,0.650496606 L88.721,0.650496606 C89.8943392,0.650496606 90.7339975,0.848494626 91.24,1.24449661 C91.7460025,1.64049859 91.999,2.27482558 91.999,3.14749661 Z M90.272,4.23649661 C90.5360013,4.00916214 90.668,3.64433245 90.668,3.14199661 C90.668,2.63966076 90.5323347,2.29499754 90.261,2.10799661 C89.9896653,1.92099567 89.5056702,1.82749661 88.809,1.82749661 L87.159,1.82749661 L87.159,4.57749661 L88.776,4.57749661 C89.509337,4.57749661 90.0079987,4.46383108 90.272,4.23649661 Z M99.683,0.650496606 L100.981,0.650496606 L100.981,8.33949661 L99.573,8.33949661 L95.217,2.72949661 L95.217,8.33949661 L93.919,8.33949661 L93.919,0.650496606 L95.217,0.650496606 L99.683,6.39249661 L99.683,0.650496606 Z M103.165,0.650496606 L104.463,0.650496606 L104.463,8.33949661 L103.165,8.33949661 L103.165,0.650496606 Z M112.411,0.650496606 L113.709,0.650496606 L113.709,8.33949661 L112.301,8.33949661 L107.945,2.72949661 L107.945,8.33949661 L106.647,8.33949661 L106.647,0.650496606 L107.945,0.650496606 L112.411,6.39249661 L112.411,0.650496606 Z M121.217,4.59949661 L122.515,4.59949661 L122.515,7.22849661 C121.788996,8.02783394 120.75134,8.42749661 119.402,8.42749661 C118.265328,8.42749661 117.313837,8.05350035 116.5475,7.30549661 C115.781163,6.55749287 115.398,5.61150233 115.398,4.46749661 C115.398,3.32349089 115.788496,2.37016709 116.5695,1.60749661 C117.350504,0.844826126 118.294661,0.463496606 119.402,0.463496606 C120.509339,0.463496606 121.429663,0.786160046 122.163,1.43149661 L121.47,2.42149661 C121.169332,2.16482866 120.866835,1.9869971 120.5625,1.88799661 C120.258165,1.78899611 119.904335,1.73949661 119.501,1.73949661 C118.723663,1.73949661 118.071003,1.99066076 117.543,2.49299661 C117.014997,2.99533245 116.751,3.65532585 116.751,4.47299661 C116.751,5.29066736 117.007664,5.94699413 117.521,6.44199661 C118.034336,6.93699908 118.65583,7.18449661 119.3855,7.18449661 C120.11517,7.18449661 120.725664,7.02683152 121.217,6.71149661 L121.217,4.59949661 Z" id="TEACHING-LEARNING-" fill="#2F302F"></path>
                            <path d="M2.365,26.3354966 L1.067,26.3354966 L1.067,18.6464966 L3.091,18.6464966 L5.412,23.4754966 L7.733,18.6464966 L9.746,18.6464966 L9.746,26.3354966 L8.448,26.3354966 L8.448,20.3294966 L5.764,25.6644966 L5.038,25.6644966 L2.365,20.3294966 L2.365,26.3354966 Z M17.331,18.6464966 L17.331,19.8674966 L13.228,19.8674966 L13.228,21.9024966 L16.913,21.9024966 L16.913,23.0574966 L13.228,23.0574966 L13.228,25.1144966 L17.463,25.1144966 L17.463,26.3354966 L11.93,26.3354966 L11.93,18.6464966 L17.331,18.6464966 Z M22.078,19.8344966 L22.078,26.3354966 L20.78,26.3354966 L20.78,19.8344966 L18.448,19.8344966 L18.448,18.6464966 L24.41,18.6464966 L24.41,19.8344966 L22.078,19.8344966 Z M25.868,26.3354966 L25.868,18.6464966 L27.166,18.6464966 L27.166,21.9794966 L30.983,21.9794966 L30.983,18.6464966 L32.281,18.6464966 L32.281,26.3354966 L30.983,26.3354966 L30.983,23.1894966 L27.166,23.1894966 L27.166,26.3354966 L25.868,26.3354966 Z M38.018,19.6474966 C37.2553295,19.6474966 36.611836,19.9188272 36.0875,20.4614966 C35.563164,21.004166 35.301,21.6623261 35.301,22.4359966 C35.301,23.2096671 35.563164,23.8678272 36.0875,24.4104966 C36.611836,24.953166 37.2553295,25.2244966 38.018,25.2244966 C38.7806705,25.2244966 39.424164,24.953166 39.9485,24.4104966 C40.472836,23.8678272 40.735,23.2096671 40.735,22.4359966 C40.735,21.6623261 40.472836,21.004166 39.9485,20.4614966 C39.424164,19.9188272 38.7806705,19.6474966 38.018,19.6474966 Z M38.018,26.4124966 C36.8739943,26.4124966 35.9133372,26.0330004 35.136,25.2739966 C34.3586628,24.5149928 33.97,23.5690023 33.97,22.4359966 C33.97,21.3029909 34.3586628,20.3570004 35.136,19.5979966 C35.9133372,18.8389928 36.8739943,18.4594966 38.018,18.4594966 C39.1620057,18.4594966 40.1226628,18.8389928 40.9,19.5979966 C41.6773372,20.3570004 42.066,21.3029909 42.066,22.4359966 C42.066,23.5690023 41.6773372,24.5149928 40.9,25.2739966 C40.1226628,26.0330004 39.1620057,26.4124966 38.018,26.4124966 Z M49.574,19.6529966 C50.3146704,20.324 50.685,21.2571573 50.685,22.4524966 C50.685,23.6478359 50.3256703,24.5938265 49.607,25.2904966 C48.8883297,25.9871668 47.7883407,26.3354966 46.307,26.3354966 L43.755,26.3354966 L43.755,18.6464966 L46.395,18.6464966 C47.7736736,18.6464966 48.8333296,18.9819933 49.574,19.6529966 Z M49.376,22.4854966 C49.376,20.7254878 48.3676767,19.8454966 46.351,19.8454966 L45.053,19.8454966 L45.053,25.1144966 L46.494,25.1144966 C47.425338,25.1144966 48.1384975,24.8926655 48.6335,24.4489966 C49.1285025,24.0053277 49.376,23.3508343 49.376,22.4854966 Z M55.96,19.6474966 C55.1973295,19.6474966 54.553836,19.9188272 54.0295,20.4614966 C53.505164,21.004166 53.243,21.6623261 53.243,22.4359966 C53.243,23.2096671 53.505164,23.8678272 54.0295,24.4104966 C54.553836,24.953166 55.1973295,25.2244966 55.96,25.2244966 C56.7226705,25.2244966 57.366164,24.953166 57.8905,24.4104966 C58.414836,23.8678272 58.677,23.2096671 58.677,22.4359966 C58.677,21.6623261 58.414836,21.004166 57.8905,20.4614966 C57.366164,19.9188272 56.7226705,19.6474966 55.96,19.6474966 Z M55.96,26.4124966 C54.8159943,26.4124966 53.8553372,26.0330004 53.078,25.2739966 C52.3006628,24.5149928 51.912,23.5690023 51.912,22.4359966 C51.912,21.3029909 52.3006628,20.3570004 53.078,19.5979966 C53.8553372,18.8389928 54.8159943,18.4594966 55.96,18.4594966 C57.1040057,18.4594966 58.0646628,18.8389928 58.842,19.5979966 C59.6193372,20.3570004 60.008,21.3029909 60.008,22.4359966 C60.008,23.5690023 59.6193372,24.5149928 58.842,25.2739966 C58.0646628,26.0330004 57.1040057,26.4124966 55.96,26.4124966 Z M61.697,26.3354966 L61.697,18.6464966 L62.995,18.6464966 L62.995,25.1034966 L66.504,25.1034966 L66.504,26.3354966 L61.697,26.3354966 Z M71.086,19.6474966 C70.3233295,19.6474966 69.679836,19.9188272 69.1555,20.4614966 C68.631164,21.004166 68.369,21.6623261 68.369,22.4359966 C68.369,23.2096671 68.631164,23.8678272 69.1555,24.4104966 C69.679836,24.953166 70.3233295,25.2244966 71.086,25.2244966 C71.8486705,25.2244966 72.492164,24.953166 73.0165,24.4104966 C73.540836,23.8678272 73.803,23.2096671 73.803,22.4359966 C73.803,21.6623261 73.540836,21.004166 73.0165,20.4614966 C72.492164,19.9188272 71.8486705,19.6474966 71.086,19.6474966 Z M71.086,26.4124966 C69.9419943,26.4124966 68.9813372,26.0330004 68.204,25.2739966 C67.4266628,24.5149928 67.038,23.5690023 67.038,22.4359966 C67.038,21.3029909 67.4266628,20.3570004 68.204,19.5979966 C68.9813372,18.8389928 69.9419943,18.4594966 71.086,18.4594966 C72.2300057,18.4594966 73.1906628,18.8389928 73.968,19.5979966 C74.7453372,20.3570004 75.134,21.3029909 75.134,22.4359966 C75.134,23.5690023 74.7453372,24.5149928 73.968,25.2739966 C73.1906628,26.0330004 72.2300057,26.4124966 71.086,26.4124966 Z M82.147,22.5954966 L83.445,22.5954966 L83.445,25.2244966 C82.7189964,26.0238339 81.6813401,26.4234966 80.332,26.4234966 C79.1953276,26.4234966 78.2438372,26.0495003 77.4775,25.3014966 C76.7111628,24.5534929 76.328,23.6075023 76.328,22.4634966 C76.328,21.3194909 76.7184961,20.3661671 77.4995,19.6034966 C78.2805039,18.8408261 79.2246611,18.4594966 80.332,18.4594966 C81.4393389,18.4594966 82.359663,18.78216 83.093,19.4274966 L82.4,20.4174966 C82.0993318,20.1608287 81.7968349,19.9829971 81.4925,19.8839966 C81.1881651,19.7849961 80.8343353,19.7354966 80.431,19.7354966 C79.6536628,19.7354966 79.0010026,19.9866608 78.473,20.4889966 C77.9449974,20.9913325 77.681,21.6513259 77.681,22.4689966 C77.681,23.2866674 77.9376641,23.9429941 78.451,24.4379966 C78.9643359,24.9329991 79.5858297,25.1804966 80.3155,25.1804966 C81.0451703,25.1804966 81.6556642,25.0228315 82.147,24.7074966 L82.147,22.5954966 Z M87.983,26.3354966 L86.663,26.3354966 L86.663,23.2994966 L83.803,18.6464966 L85.222,18.6464966 L87.323,22.1444966 L89.424,18.6464966 L90.843,18.6464966 L87.983,23.2994966 L87.983,26.3354966 Z" id="METHODOLOGY" fill="#2F302F"></path>
                            <polygon id="Fill-12" fill="#D1E6FE" points="0 60.066 48 60.066 48 40.066 0 40.066"></polygon>
                            <polygon id="Fill-14" fill="#87BEFD" points="0 80 132 80 132 60 0 60"></polygon>
                        </g>
                        <path d="M3.971,1.67349661 L3.971,8.17449661 L2.673,8.17449661 L2.673,1.67349661 L0.341,1.67349661 L0.341,0.485496606 L6.303,0.485496606 L6.303,1.67349661 L3.971,1.67349661 Z M13.162,0.485496606 L13.162,1.70649661 L9.059,1.70649661 L9.059,3.74149661 L12.744,3.74149661 L12.744,4.89649661 L9.059,4.89649661 L9.059,6.95349661 L13.294,6.95349661 L13.294,8.17449661 L7.761,8.17449661 L7.761,0.485496606 L13.162,0.485496606 Z M16.094,6.42549661 L15.324,8.17449661 L13.938,8.17449661 L17.326,0.485496606 L18.712,0.485496606 L22.1,8.17449661 L20.714,8.17449661 L19.944,6.42549661 L16.094,6.42549661 Z M19.416,5.22649661 L18.019,2.05849661 L16.622,5.22649661 L19.416,5.22649661 Z M26.726,6.99749661 C27.1733356,6.99749661 27.5583317,6.92233069 27.881,6.77199661 C28.2036683,6.62166252 28.5409982,6.38149826 28.893,6.05149661 L29.729,6.90949661 C28.9149959,7.81150112 27.9268391,8.26249661 26.7645,8.26249661 C25.6021609,8.26249661 24.6378372,7.88850035 23.8715,7.14049661 C23.1051628,6.39249287 22.722,5.44650233 22.722,4.30249661 C22.722,3.15849089 23.1124961,2.20516709 23.8935,1.44249661 C24.6745039,0.679826126 25.6608274,0.298496606 26.8525,0.298496606 C28.0441726,0.298496606 29.0396627,0.738492206 29.839,1.61849661 L29.014,2.52049661 C28.6473315,2.16849485 28.300835,1.92283064 27.9745,1.78349661 C27.648165,1.64416258 27.2650022,1.57449661 26.825,1.57449661 C26.0476628,1.57449661 25.3950026,1.82566076 24.867,2.32799661 C24.3389974,2.83033245 24.075,3.4719927 24.075,4.25299661 C24.075,5.03400051 24.337164,5.68666065 24.8615,6.21099661 C25.385836,6.73533256 26.0073297,6.99749661 26.726,6.99749661 Z M31.363,8.17449661 L31.363,0.485496606 L32.661,0.485496606 L32.661,3.81849661 L36.478,3.81849661 L36.478,0.485496606 L37.776,0.485496606 L37.776,8.17449661 L36.478,8.17449661 L36.478,5.02849661 L32.661,5.02849661 L32.661,8.17449661 L31.363,8.17449661 Z M45.361,0.485496606 L45.361,1.70649661 L41.258,1.70649661 L41.258,3.74149661 L44.943,3.74149661 L44.943,4.89649661 L41.258,4.89649661 L41.258,6.95349661 L45.493,6.95349661 L45.493,8.17449661 L39.96,8.17449661 L39.96,0.485496606 L45.361,0.485496606 Z M53.342,2.98249661 C53.342,4.25116962 52.7883389,5.05049496 51.681,5.38049661 L53.694,8.17449661 L52.044,8.17449661 L50.207,5.58949661 L48.502,5.58949661 L48.502,8.17449661 L47.204,8.17449661 L47.204,0.485496606 L50.064,0.485496606 C51.2373392,0.485496606 52.0769975,0.683494626 52.583,1.07949661 C53.0890025,1.47549859 53.342,2.10982558 53.342,2.98249661 Z M51.615,4.07149661 C51.8790013,3.84416214 52.011,3.47933245 52.011,2.97699661 C52.011,2.47466076 51.8753347,2.12999754 51.604,1.94299661 C51.3326653,1.75599567 50.8486702,1.66249661 50.152,1.66249661 L48.502,1.66249661 L48.502,4.41249661 L50.119,4.41249661 C50.852337,4.41249661 51.3509987,4.29883108 51.615,4.07149661 Z M55.097,5.68849661 L55.097,4.95149661 L59.211,4.95149661 L59.211,5.68849661 L55.097,5.68849661 Z M62.627,1.72849661 C62.3849988,1.88249738 62.264,2.11532838 62.264,2.42699661 C62.264,2.73866483 62.3849988,2.97699578 62.627,3.14199661 C62.8690012,3.30699743 63.3841627,3.48482899 64.1725,3.67549661 C64.9608373,3.86616423 65.5548313,4.13382822 65.9545,4.47849661 C66.3541687,4.823165 66.554,5.33099325 66.554,6.00199661 C66.554,6.67299996 66.3010025,7.21749452 65.795,7.63549661 C65.2889975,8.0534987 64.6253374,8.26249661 63.804,8.26249661 C62.6013273,8.26249661 61.534338,7.84816742 60.603,7.01949661 L61.417,6.04049661 C62.1943372,6.71516665 63.0009958,7.05249661 63.837,7.05249661 C64.2550021,7.05249661 64.5868321,6.96266417 64.8325,6.78299661 C65.0781679,6.60332904 65.201,6.36499809 65.201,6.06799661 C65.201,5.77099512 65.0855012,5.53999743 64.8545,5.37499661 C64.6234988,5.20999578 64.2256695,5.05966395 63.661,4.92399661 C63.0963305,4.78832926 62.6673348,4.66366384 62.374,4.54999661 C62.0806652,4.43632937 61.8203345,4.28783086 61.593,4.10449661 C61.1383311,3.75982822 60.911,3.2318335 60.911,2.52049661 C60.911,1.80915972 61.1694974,1.26099853 61.6865,0.875996606 C62.2035026,0.490994681 62.8433295,0.298496606 63.606,0.298496606 C64.0973358,0.298496606 64.5849976,0.379162466 65.069,0.540496606 C65.5530024,0.701830746 65.9709982,0.929161806 66.323,1.22249661 L65.63,2.20149661 C65.4026655,1.99616225 65.0946686,1.82749727 64.706,1.69549661 C64.3173314,1.56349595 63.9341686,1.49749661 63.5565,1.49749661 C63.1788314,1.49749661 62.8690012,1.57449584 62.627,1.72849661 Z M71.114,1.67349661 L71.114,8.17449661 L69.816,8.17449661 L69.816,1.67349661 L67.484,1.67349661 L67.484,0.485496606 L73.446,0.485496606 L73.446,1.67349661 L71.114,1.67349661 Z M78.061,7.03049661 C78.6623363,7.03049661 79.1389982,6.82516533 79.491,6.41449661 C79.8430018,6.00382789 80.019,5.44650013 80.019,4.74249661 L80.019,0.485496606 L81.317,0.485496606 L81.317,4.79749661 C81.317,5.90483548 81.0126697,6.75732695 80.404,7.35499661 C79.7953303,7.95266626 79.0143381,8.25149661 78.061,8.25149661 C77.1076619,8.25149661 76.3266697,7.95266626 75.718,7.35499661 C75.1093303,6.75732695 74.805,5.90483548 74.805,4.79749661 L74.805,0.485496606 L76.103,0.485496606 L76.103,4.74249661 C76.103,5.44650013 76.2789982,6.00382789 76.631,6.41449661 C76.9830018,6.82516533 77.4596637,7.03049661 78.061,7.03049661 Z M89.221,1.49199661 C89.9616704,2.16299996 90.332,3.0961573 90.332,4.29149661 C90.332,5.48683592 89.9726703,6.43282646 89.254,7.12949661 C88.5353297,7.82616676 87.4353407,8.17449661 85.954,8.17449661 L83.402,8.17449661 L83.402,0.485496606 L86.042,0.485496606 C87.4206736,0.485496606 88.4803296,0.820993251 89.221,1.49199661 Z M89.023,4.32449661 C89.023,2.56448781 88.0146768,1.68449661 85.998,1.68449661 L84.7,1.68449661 L84.7,6.95349661 L86.141,6.95349661 C87.072338,6.95349661 87.7854975,6.73166549 88.2805,6.28799661 C88.7755025,5.84432772 89.023,5.18983427 89.023,4.32449661 Z M97.455,0.485496606 L97.455,1.70649661 L93.352,1.70649661 L93.352,3.74149661 L97.037,3.74149661 L97.037,4.89649661 L93.352,4.89649661 L93.352,6.95349661 L97.587,6.95349661 L97.587,8.17449661 L92.054,8.17449661 L92.054,0.485496606 L97.455,0.485496606 Z M105.062,0.485496606 L106.36,0.485496606 L106.36,8.17449661 L104.952,8.17449661 L100.596,2.56449661 L100.596,8.17449661 L99.298,8.17449661 L99.298,0.485496606 L100.596,0.485496606 L105.062,6.22749661 L105.062,0.485496606 Z M111.448,1.67349661 L111.448,8.17449661 L110.15,8.17449661 L110.15,1.67349661 L107.818,1.67349661 L107.818,0.485496606 L113.78,0.485496606 L113.78,1.67349661 L111.448,1.67349661 Z" id="TEACHERSTUDENT-" fill="#2F302F"></path>
                        <path d="M1.067,18.4814966 L2.365,18.4814966 L2.365,26.1704966 L1.067,26.1704966 L1.067,18.4814966 Z M10.313,18.4814966 L11.611,18.4814966 L11.611,26.1704966 L10.203,26.1704966 L5.847,20.5604966 L5.847,26.1704966 L4.549,26.1704966 L4.549,18.4814966 L5.847,18.4814966 L10.313,24.2234966 L10.313,18.4814966 Z M16.699,19.6694966 L16.699,26.1704966 L15.401,26.1704966 L15.401,19.6694966 L13.069,19.6694966 L13.069,18.4814966 L19.031,18.4814966 L19.031,19.6694966 L16.699,19.6694966 Z M25.89,18.4814966 L25.89,19.7024966 L21.787,19.7024966 L21.787,21.7374966 L25.472,21.7374966 L25.472,22.8924966 L21.787,22.8924966 L21.787,24.9494966 L26.022,24.9494966 L26.022,26.1704966 L20.489,26.1704966 L20.489,18.4814966 L25.89,18.4814966 Z M33.871,20.9784966 C33.871,22.2471696 33.3173389,23.046495 32.21,23.3764966 L34.223,26.1704966 L32.573,26.1704966 L30.736,23.5854966 L29.031,23.5854966 L29.031,26.1704966 L27.733,26.1704966 L27.733,18.4814966 L30.593,18.4814966 C31.7663392,18.4814966 32.6059975,18.6794946 33.112,19.0754966 C33.6180025,19.4714986 33.871,20.1058256 33.871,20.9784966 Z M32.144,22.0674966 C32.4080013,21.8401621 32.54,21.4753325 32.54,20.9729966 C32.54,20.4706608 32.4043347,20.1259975 32.133,19.9389966 C31.8616653,19.7519957 31.3776701,19.6584966 30.681,19.6584966 L29.031,19.6584966 L29.031,22.4084966 L30.648,22.4084966 C31.381337,22.4084966 31.8799987,22.2948311 32.144,22.0674966 Z M36.88,24.4214966 L36.11,26.1704966 L34.724,26.1704966 L38.112,18.4814966 L39.498,18.4814966 L42.886,26.1704966 L41.5,26.1704966 L40.73,24.4214966 L36.88,24.4214966 Z M40.202,23.2224966 L38.805,20.0544966 L37.408,23.2224966 L40.202,23.2224966 Z M47.512,24.9934966 C47.9593356,24.9934966 48.3443317,24.9183307 48.667,24.7679966 C48.9896683,24.6176625 49.3269982,24.3774983 49.679,24.0474966 L50.515,24.9054966 C49.7009959,25.8075011 48.7128391,26.2584966 47.5505,26.2584966 C46.3881609,26.2584966 45.4238372,25.8845003 44.6575,25.1364966 C43.8911628,24.3884929 43.508,23.4425023 43.508,22.2984966 C43.508,21.1544909 43.8984961,20.2011671 44.6795,19.4384966 C45.4605039,18.6758261 46.4468274,18.2944966 47.6385,18.2944966 C48.8301726,18.2944966 49.8256627,18.7344922 50.625,19.6144966 L49.8,20.5164966 C49.4333315,20.1644948 49.086835,19.9188306 48.7605,19.7794966 C48.434165,19.6401626 48.0510022,19.5704966 47.611,19.5704966 C46.8336628,19.5704966 46.1810026,19.8216608 45.653,20.3239966 C45.1249974,20.8263325 44.861,21.4679927 44.861,22.2489966 C44.861,23.0300005 45.123164,23.6826607 45.6475,24.2069966 C46.171836,24.7313326 46.7933297,24.9934966 47.512,24.9934966 Z M55.053,19.6694966 L55.053,26.1704966 L53.755,26.1704966 L53.755,19.6694966 L51.423,19.6694966 L51.423,18.4814966 L57.385,18.4814966 L57.385,19.6694966 L55.053,19.6694966 Z M58.843,18.4814966 L60.141,18.4814966 L60.141,26.1704966 L58.843,26.1704966 L58.843,18.4814966 Z M65.878,19.4824966 C65.1153295,19.4824966 64.471836,19.7538272 63.9475,20.2964966 C63.423164,20.839166 63.161,21.4973261 63.161,22.2709966 C63.161,23.0446671 63.423164,23.7028272 63.9475,24.2454966 C64.471836,24.788166 65.1153295,25.0594966 65.878,25.0594966 C66.6406705,25.0594966 67.284164,24.788166 67.8085,24.2454966 C68.332836,23.7028272 68.595,23.0446671 68.595,22.2709966 C68.595,21.4973261 68.332836,20.839166 67.8085,20.2964966 C67.284164,19.7538272 66.6406705,19.4824966 65.878,19.4824966 Z M65.878,26.2474966 C64.7339943,26.2474966 63.7733372,25.8680004 62.996,25.1089966 C62.2186628,24.3499928 61.83,23.4040023 61.83,22.2709966 C61.83,21.1379909 62.2186628,20.1920004 62.996,19.4329966 C63.7733372,18.6739928 64.7339943,18.2944966 65.878,18.2944966 C67.0220057,18.2944966 67.9826628,18.6739928 68.76,19.4329966 C69.5373372,20.1920004 69.926,21.1379909 69.926,22.2709966 C69.926,23.4040023 69.5373372,24.3499928 68.76,25.1089966 C67.9826628,25.8680004 67.0220057,26.2474966 65.878,26.2474966 Z M77.379,18.4814966 L78.677,18.4814966 L78.677,26.1704966 L77.269,26.1704966 L72.913,20.5604966 L72.913,26.1704966 L71.615,26.1704966 L71.615,18.4814966 L72.913,18.4814966 L77.379,24.2234966 L77.379,18.4814966 Z" id="INTERACTION" fill="#2F302F"></path>
                    </g>
                    <g id="Group-10" transform="translate(0.000000, 341.000000)">
                        <g id="Group-8">
                            <g id="Group-3" transform="translate(0.000000, 0.066000)">
                                <mask id="mask-2" fill="white">
                                    <use xlink:href="#path-1"></use>
                                </mask>
                                <g id="Clip-2"></g>
                                <path d="M18,9.9336 C18,14.9046 13.971,18.9336 9,18.9336 C4.029,18.9336 0,14.9046 0,9.9336 C0,4.9626 4.029,0.9336 9,0.9336 C13.971,0.9336 18,4.9626 18,9.9336" id="Fill-1" fill="#D1E6FE" mask="url(#mask-2)"></path>
                            </g>
                            <path d="M27.0641,6.66029661 L28.3621,6.66029661 L28.3621,14.3492966 L27.0641,14.3492966 L27.0641,6.66029661 Z M36.3101,6.66029661 L37.6081,6.66029661 L37.6081,14.3492966 L36.2001,14.3492966 L31.8441,8.73929661 L31.8441,14.3492966 L30.5461,14.3492966 L30.5461,6.66029661 L31.8441,6.66029661 L36.3101,12.4022966 L36.3101,6.66029661 Z M45.6111,7.66679661 C46.3517704,8.33779996 46.7221,9.2709573 46.7221,10.4662966 C46.7221,11.6616359 46.3627703,12.6076265 45.6441,13.3042966 C44.9254297,14.0009668 43.8254407,14.3492966 42.3441,14.3492966 L39.7921,14.3492966 L39.7921,6.66029661 L42.4321,6.66029661 C43.8107736,6.66029661 44.8704296,6.99579325 45.6111,7.66679661 Z M45.4131,10.4992966 C45.4131,8.73928781 44.4047767,7.85929661 42.3881,7.85929661 L41.0901,7.85929661 L41.0901,13.1282966 L42.5311,13.1282966 C43.462438,13.1282966 44.1755975,12.9064655 44.6706,12.4627966 C45.1656025,12.0191277 45.4131,11.3646343 45.4131,10.4992966 Z M48.4441,6.66029661 L49.7421,6.66029661 L49.7421,14.3492966 L48.4441,14.3492966 L48.4441,6.66029661 Z M53.0151,12.6002966 L52.2451,14.3492966 L50.8591,14.3492966 L54.2471,6.66029661 L55.6331,6.66029661 L59.0211,14.3492966 L57.6351,14.3492966 L56.8651,12.6002966 L53.0151,12.6002966 Z M56.3371,11.4012966 L54.9401,8.23329661 L53.5431,11.4012966 L56.3371,11.4012966 Z M64.2911,12.6002966 L63.5211,14.3492966 L62.1351,14.3492966 L65.5231,6.66029661 L66.9091,6.66029661 L70.2971,14.3492966 L68.9111,14.3492966 L68.1411,12.6002966 L64.2911,12.6002966 Z M67.6131,11.4012966 L66.2161,8.23329661 L64.8191,11.4012966 L67.6131,11.4012966 Z M74.0431,14.3492966 L72.5911,14.3492966 L69.5001,6.66029661 L70.9521,6.66029661 L73.3171,12.4022966 L75.6821,6.66029661 L77.1341,6.66029661 L74.0431,14.3492966 Z M83.6851,6.66029661 L83.6851,7.88129661 L79.5821,7.88129661 L79.5821,9.91629661 L83.2671,9.91629661 L83.2671,11.0712966 L79.5821,11.0712966 L79.5821,13.1282966 L83.8171,13.1282966 L83.8171,14.3492966 L78.2841,14.3492966 L78.2841,6.66029661 L83.6851,6.66029661 Z M91.6661,9.15729661 C91.6661,10.4259696 91.1124389,11.225295 90.0051,11.5552966 L92.0181,14.3492966 L90.3681,14.3492966 L88.5311,11.7642966 L86.8261,11.7642966 L86.8261,14.3492966 L85.5281,14.3492966 L85.5281,6.66029661 L88.3881,6.66029661 C89.5614392,6.66029661 90.4010975,6.85829463 90.9071,7.25429661 C91.4131025,7.65029859 91.6661,8.28462558 91.6661,9.15729661 Z M89.9391,10.2462966 C90.2031013,10.0189621 90.3351,9.65413245 90.3351,9.15179661 C90.3351,8.64946076 90.1994347,8.30479754 89.9281,8.11779661 C89.6567653,7.93079567 89.1727701,7.83729661 88.4761,7.83729661 L86.8261,7.83729661 L86.8261,10.5872966 L88.4431,10.5872966 C89.176437,10.5872966 89.6750987,10.4736311 89.9391,10.2462966 Z M94.6751,12.6002966 L93.9051,14.3492966 L92.5191,14.3492966 L95.9071,6.66029661 L97.2931,6.66029661 L100.6811,14.3492966 L99.2951,14.3492966 L98.5251,12.6002966 L94.6751,12.6002966 Z M97.9971,11.4012966 L96.6001,8.23329661 L95.2031,11.4012966 L97.9971,11.4012966 Z M107.1221,10.6092966 L108.4201,10.6092966 L108.4201,13.2382966 C107.694096,14.0376339 106.65644,14.4372966 105.3071,14.4372966 C104.170428,14.4372966 103.218937,14.0633003 102.4526,13.3152966 C101.686263,12.5672929 101.3031,11.6213023 101.3031,10.4772966 C101.3031,9.33329089 101.693596,8.37996709 102.4746,7.61729661 C103.255604,6.85462613 104.199761,6.47329661 105.3071,6.47329661 C106.414439,6.47329661 107.334763,6.79596005 108.0681,7.44129661 L107.3751,8.43129661 C107.074432,8.17462866 106.771935,7.9967971 106.4676,7.89779661 C106.163265,7.79879611 105.809435,7.74929661 105.4061,7.74929661 C104.628763,7.74929661 103.976103,8.00046076 103.4481,8.50279661 C102.920097,9.00513245 102.6561,9.66512585 102.6561,10.4827966 C102.6561,11.3004674 102.912764,11.9567941 103.4261,12.4517966 C103.939436,12.9467991 104.56093,13.1942966 105.2906,13.1942966 C106.02027,13.1942966 106.630764,13.0366315 107.1221,12.7212966 L107.1221,10.6092966 Z M115.5761,6.66029661 L115.5761,7.88129661 L111.4731,7.88129661 L111.4731,9.91629661 L115.1581,9.91629661 L115.1581,11.0712966 L111.4731,11.0712966 L111.4731,13.1282966 L115.7081,13.1282966 L115.7081,14.3492966 L110.1751,14.3492966 L110.1751,6.66029661 L115.5761,6.66029661 Z" id="INDIA-AVERAGE" fill="#2F302F"></path>
                        </g>
                        <g id="Group-9" transform="translate(136.000000, 1.000000)">
                            <path d="M18,8.9996 C18,13.9706 13.971,17.9996 9,17.9996 C4.029,17.9996 0,13.9706 0,8.9996 C0,4.0286 4.029,-0.000400000001 9,-0.000400000001 C13.971,-0.000400000001 18,4.0286 18,8.9996 Z" id="Fill-4" fill="#87BEFD"></path>
                            <path d="M25.8441,5.81529661 L25.8441,4.66029661 L30.3431,4.66029661 L30.3431,5.67229661 L28.4841,7.75129661 C29.1881035,7.77329672 29.738098,7.99512783 30.1341,8.41679661 C30.530102,8.83846538 30.7281,9.34262701 30.7281,9.92929661 C30.7281,10.7139672 30.4622693,11.329961 29.9306,11.7772966 C29.3989307,12.2246322 28.7151042,12.4482966 27.8791,12.4482966 C27.0430958,12.4482966 26.2254373,12.1806326 25.4261,11.6452966 L25.9761,10.6002966 C26.6067698,11.0402988 27.2667632,11.2602966 27.9561,11.2602966 C28.4034356,11.2602966 28.7719319,11.1557977 29.0616,10.9467966 C29.3512681,10.7377956 29.4961,10.4371319 29.4961,10.0447966 C29.4961,9.65246131 29.3347683,9.33896445 29.0121,9.10429661 C28.6894317,8.86962877 28.2421029,8.75229661 27.6701,8.75229661 C27.3840986,8.75229661 27.1091013,8.79262954 26.8451,8.87329661 L26.8451,7.88329661 L28.6271,5.81529661 L25.8441,5.81529661 Z M35.4861,7.66329661 C35.7061011,7.36262844 35.8161,7.05829815 35.8161,6.75029661 C35.8161,6.44229507 35.6987678,6.18013102 35.4641,5.96379661 C35.2294322,5.74746219 34.9324351,5.63929661 34.5731,5.63929661 C33.9424302,5.63929661 33.4181021,5.96196005 33.0001,6.60729661 L31.9551,6.00229661 C32.292435,5.49629408 32.664598,5.11496456 33.0716,4.85829661 C33.478602,4.60162866 34.0029301,4.47329661 34.6446,4.47329661 C35.2862699,4.47329661 35.8490976,4.67679457 36.3331,5.08379661 C36.8171024,5.49079864 37.0591,6.04629309 37.0591,6.75029661 C37.0591,7.14629859 36.9564344,7.52396148 36.7511,7.88329661 C36.5457656,8.24263174 36.1681028,8.70462712 35.6181,9.26929661 L33.8141,11.1062966 L37.3011,11.1062966 L37.3011,12.3492966 L32.0431,12.3492966 L32.0431,11.2492966 L34.3751,8.90629661 C34.8957693,8.37829397 35.2660989,7.96396478 35.4861,7.66329661 Z M38.2531,4.66029661 L41.0471,4.66029661 L41.0471,12.3492966 L39.8151,12.3492966 L39.8151,5.81529661 L38.2531,5.81529661 L38.2531,4.66029661 Z M47.3951,10.6002966 L46.6251,12.3492966 L45.2391,12.3492966 L48.6271,4.66029661 L50.0131,4.66029661 L53.4011,12.3492966 L52.0151,12.3492966 L51.2451,10.6002966 L47.3951,10.6002966 Z M50.7171,9.40129661 L49.3201,6.23329661 L47.9231,9.40129661 L50.7171,9.40129661 Z M57.146,12.3492966 L55.694,12.3492966 L52.603,4.66029661 L54.055,4.66029661 L56.42,10.4022966 L58.785,4.66029661 L60.237,4.66029661 L57.146,12.3492966 Z M66.788,4.66029661 L66.788,5.88129661 L62.685,5.88129661 L62.685,7.91629661 L66.37,7.91629661 L66.37,9.07129661 L62.685,9.07129661 L62.685,11.1282966 L66.92,11.1282966 L66.92,12.3492966 L61.387,12.3492966 L61.387,4.66029661 L66.788,4.66029661 Z M74.769,7.15729661 C74.769,8.42596962 74.2153389,9.22529496 73.108,9.55529661 L75.121,12.3492966 L73.471,12.3492966 L71.634,9.76429661 L69.929,9.76429661 L69.929,12.3492966 L68.631,12.3492966 L68.631,4.66029661 L71.491,4.66029661 C72.6643392,4.66029661 73.5039975,4.85829463 74.01,5.25429661 C74.5160025,5.65029859 74.769,6.28462558 74.769,7.15729661 Z M73.042,8.24629661 C73.3060013,8.01896214 73.438,7.65413245 73.438,7.15179661 C73.438,6.64946076 73.3023347,6.30479754 73.031,6.11779661 C72.7596653,5.93079567 72.2756702,5.83729661 71.579,5.83729661 L69.929,5.83729661 L69.929,8.58729661 L71.546,8.58729661 C72.279337,8.58729661 72.7779987,8.47363108 73.042,8.24629661 Z M77.778,10.6002966 L77.008,12.3492966 L75.622,12.3492966 L79.01,4.66029661 L80.396,4.66029661 L83.784,12.3492966 L82.398,12.3492966 L81.628,10.6002966 L77.778,10.6002966 Z M81.1,9.40129661 L79.703,6.23329661 L78.306,9.40129661 L81.1,9.40129661 Z M90.225,8.60929661 L91.523,8.60929661 L91.523,11.2382966 C90.7969964,12.0376339 89.7593401,12.4372966 88.41,12.4372966 C87.2733277,12.4372966 86.3218372,12.0633003 85.5555,11.3152966 C84.7891628,10.5672929 84.406,9.62130233 84.406,8.47729661 C84.406,7.33329089 84.7964961,6.37996709 85.5775,5.61729661 C86.3585039,4.85462613 87.3026611,4.47329661 88.41,4.47329661 C89.5173389,4.47329661 90.437663,4.79596005 91.171,5.44129661 L90.478,6.43129661 C90.1773318,6.17462866 89.8748349,5.9967971 89.5705,5.89779661 C89.2661651,5.79879611 88.9123354,5.74929661 88.509,5.74929661 C87.7316628,5.74929661 87.0790026,6.00046076 86.551,6.50279661 C86.0229974,7.00513245 85.759,7.66512585 85.759,8.48279661 C85.759,9.30046736 86.0156641,9.95679413 86.529,10.4517966 C87.0423359,10.9467991 87.6638297,11.1942966 88.3935,11.1942966 C89.1231703,11.1942966 89.7336642,11.0366315 90.225,10.7212966 L90.225,8.60929661 Z M98.679,4.66029661 L98.679,5.88129661 L94.576,5.88129661 L94.576,7.91629661 L98.261,7.91629661 L98.261,9.07129661 L94.576,9.07129661 L94.576,11.1282966 L98.811,11.1282966 L98.811,12.3492966 L93.278,12.3492966 L93.278,4.66029661 L98.679,4.66029661 Z" id="321-AVERAGE" fill="#2F302F"></path>
                        </g>
                    </g>
                </g>
            </g>
        </g>
    </g>
</svg>