<?xml version="1.0" encoding="UTF-8"?>
<svg width="193px" height="193px" viewBox="0 0 193 193" version="1.1" xmlns="http://www.w3.org/2000/svg" xmlns:xlink="http://www.w3.org/1999/xlink">
    <!-- Generator: Sketch 52.4 (67378) - http://www.bohemiancoding.com/sketch -->
    <title>stat-3</title>
    <desc>Created with Sketch.</desc>
    <g id="Page-1" stroke="none" stroke-width="1" fill="none" fill-rule="evenodd">
        <g id="321-Web-Graph-Jan2019" transform="translate(-714.000000, -3888.000000)">
            <g id="stat-3" transform="translate(714.000000, 3888.000000)">
                <ellipse id="Oval-4-Copy-6" fill="#89BFFE" cx="96.2068015" cy="96.1961133" rx="96.2068015" ry="96.1961133"></ellipse>
                <path d="M73.1531383,62.2553513 L81.9833626,62.2553513 L81.9833626,84.0632702 L77.3030317,84.0632702 L77.3030317,66.4047837 L73.1531383,66.4047837 L73.1531383,62.2553513 Z M99.5736062,62.2553513 L99.5736062,66.4671812 L90.9617973,66.4671812 L90.9617973,70.1174337 C91.6066461,69.9302403 92.345091,69.836645 93.177154,69.836645 C95.278113,69.836645 97.0878228,70.4710131 98.6063378,71.7397681 C100.124853,73.0085232 100.884099,74.719237 100.884099,76.8719608 C100.884099,79.0246846 100.098851,80.8029949 98.5283323,82.2069452 C96.9578134,83.6108955 95.0180956,84.3128601 92.7091209,84.3128601 C89.7552973,84.3128601 87.2903477,83.2209152 85.3141981,81.0369925 L87.872779,77.4803362 C88.0599931,77.6675296 88.3096083,77.896318 88.6216319,78.1667085 C88.9336555,78.4370989 89.5056902,78.7958808 90.3377532,79.243065 C91.1698162,79.6902491 92.0018667,79.9138379 92.8339297,79.9138379 C93.6659927,79.9138379 94.4044375,79.6642505 95.0492863,79.1650681 C95.6941351,78.6658858 96.0165547,77.927523 96.0165547,76.9499576 C96.0165547,75.9723922 95.6681335,75.2184302 94.9712808,74.688049 C94.274428,74.1576678 93.3747734,73.8924812 92.27229,73.8924812 C91.1698065,73.8924812 89.8905289,74.2876612 88.4344187,75.0780333 L86.4062753,72.8941215 L86.4062753,62.2553513 L99.5736062,62.2553513 Z M108.95767,67.7775282 C108.271218,69.1086811 107.927997,70.8661925 107.927997,73.0501152 C107.927997,75.2340379 108.271218,76.9915493 108.95767,78.3227022 C109.644122,79.653855 110.715387,80.3194215 112.171497,80.3194215 C113.627607,80.3194215 114.698872,79.653855 115.385324,78.3227022 C116.071776,76.9915493 116.414997,75.2340379 116.414997,73.0501152 C116.414997,70.8661925 116.071776,69.1086811 115.385324,67.7775282 C114.698872,66.4463753 113.627607,65.7808089 112.171497,65.7808089 C110.715387,65.7808089 109.644122,66.4463753 108.95767,67.7775282 Z M112.171497,84.3128601 C109.155268,84.3128601 106.898331,83.2885118 105.400618,81.2397843 C103.902905,79.1910568 103.154059,76.4559947 103.154059,73.0345158 C103.154059,69.613037 103.902905,66.8779748 105.400618,64.8292473 C106.898331,62.7805199 109.155268,61.7561715 112.171497,61.7561715 C115.187725,61.7561715 117.444662,62.7805199 118.942375,64.8292473 C120.440089,66.8779748 121.188934,69.613037 121.188934,73.0345158 C121.188934,76.4559947 120.440089,79.1910568 118.942375,81.2397843 C117.444662,83.2885118 115.187725,84.3128601 112.171497,84.3128601 Z" id="150-copy" fill="#FFFFFF"></path>
                <polygon id="Line-Copy-11" fill="#FFFFFF" fill-rule="nonzero" points="67.6047794 99.7960083 67.6047794 98.7960083 128.676354 98.7960083 128.676354 99.7960083"></polygon>
                <path d="M44.8609715,114.830427 C44.4484069,114.830427 44.108653,114.915356 43.8416994,115.085217 C43.5747459,115.255077 43.4412711,115.511887 43.4412711,115.855652 C43.4412711,116.199418 43.5747459,116.462294 43.8416994,116.644287 C44.108653,116.826281 44.6769319,117.022426 45.5465533,117.23273 C46.4161747,117.443034 47.0714145,117.738263 47.5122923,118.118428 C47.9531701,118.498592 48.1736057,119.058719 48.1736057,119.798826 C48.1736057,120.538934 47.8945221,121.139503 47.3363465,121.600554 C46.7781709,122.061604 46.046082,122.292126 45.1400579,122.292126 C43.8133797,122.292126 42.6363749,121.835126 41.6090083,120.921114 L42.5069384,119.841291 C43.3644255,120.585443 44.2542573,120.957513 45.1764605,120.957513 C45.637562,120.957513 46.0036065,120.858429 46.2746048,120.660258 C46.5456031,120.462087 46.6811002,120.199212 46.6811002,119.871623 C46.6811002,119.544035 46.5536925,119.289248 46.2988732,119.107254 C46.0440539,118.925261 45.605205,118.759447 44.9823134,118.609808 C44.3594218,118.460169 43.8861931,118.322664 43.5626131,118.197291 C43.239033,118.071918 42.95186,117.908126 42.7010855,117.705911 C42.1995364,117.325747 41.9487656,116.743376 41.9487656,115.958782 C41.9487656,115.174187 42.2339163,114.569573 42.8042261,114.144921 C43.3745359,113.72027 44.0803343,113.507947 44.9216425,113.507947 C45.463639,113.507947 46.0015828,113.596921 46.5354899,113.77487 C47.069397,113.952819 47.5304916,114.203562 47.9187877,114.527106 L47.1543336,115.606929 C46.9035591,115.380448 46.5638051,115.194413 46.1350616,115.048818 C45.706318,114.903223 45.2816256,114.830427 44.8609715,114.830427 Z M52.6147197,122.292126 C51.716785,122.292126 50.9442493,121.986785 50.2970892,121.376096 C49.6499291,120.765406 49.3263539,119.966669 49.3263539,118.979859 C49.3263539,117.99305 49.6640855,117.190268 50.3395588,116.57149 C51.0150322,115.952712 51.8381266,115.643328 52.8088667,115.643328 C53.7796069,115.643328 54.6006789,115.979 55.2721075,116.650354 L54.4712509,117.633114 C53.9130753,117.147798 53.3508634,116.905143 52.7845983,116.905143 C52.2183333,116.905143 51.7269034,117.0932 51.3102941,117.469321 C50.8936848,117.845441 50.6853833,118.330749 50.6853833,118.925262 C50.6853833,119.519774 50.8916625,120.023282 51.304227,120.435801 C51.7167916,120.848319 52.2244002,121.054576 52.827068,121.054576 C53.4297359,121.054576 53.9980148,120.779567 54.5319219,120.229542 L55.3327785,121.103107 C54.5480969,121.89579 53.6420863,122.292126 52.6147197,122.292126 Z M58.0993741,118.700804 L58.0993741,122.195063 L56.7403447,122.195063 L56.7403447,113.204626 L58.0993741,113.204626 L58.0993741,116.917276 C58.2935221,116.520935 58.5867621,116.209528 58.9791029,115.983047 C59.3714438,115.756566 59.7941139,115.643328 60.2471259,115.643328 C60.975181,115.643328 61.5636834,115.865761 62.0126507,116.310634 C62.4616181,116.755507 62.6860983,117.398541 62.6860983,118.239756 L62.6860983,122.195063 L61.3270689,122.195063 L61.3270689,118.652273 C61.3270689,117.463248 60.8336168,116.868745 59.8466976,116.868745 C59.3775065,116.868745 58.9689929,117.024448 58.6211443,117.335859 C58.2732957,117.64727 58.0993741,118.102247 58.0993741,118.700804 Z M66.0836719,120.496465 C66.4719679,120.884718 66.9613754,121.078841 67.551909,121.078841 C68.1424426,121.078841 68.6298277,120.882696 69.014079,120.490398 C69.3983304,120.098101 69.5904531,119.590549 69.5904531,118.967727 C69.5904531,118.344904 69.3983304,117.837352 69.014079,117.445055 C68.6298277,117.052758 68.1424426,116.856612 67.551909,116.856612 C66.9613754,116.856612 66.4739903,117.052758 66.089739,117.445055 C65.7054877,117.837352 65.5133649,118.344904 65.5133649,118.967727 C65.5133649,119.590549 65.7034653,120.100123 66.0836719,120.496465 Z M69.9787472,121.333631 C69.3315871,121.972631 68.5226492,122.292126 67.551909,122.292126 C66.5811689,122.292126 65.7722309,121.970609 65.1250708,121.327565 C64.4779107,120.684521 64.1543355,119.897916 64.1543355,118.967727 C64.1543355,118.037537 64.4779107,117.250933 65.1250708,116.607889 C65.7722309,115.964845 66.5811689,115.643328 67.551909,115.643328 C68.5226492,115.643328 69.3315871,115.964845 69.9787472,116.607889 C70.6259073,117.250933 70.9494825,118.037537 70.9494825,118.967727 C70.9494825,119.897916 70.6259073,120.686543 69.9787472,121.333631 Z M73.9951645,120.496465 C74.3834606,120.884718 74.8728681,121.078841 75.4634017,121.078841 C76.0539352,121.078841 76.5413204,120.882696 76.9255717,120.490398 C77.309823,120.098101 77.5019458,119.590549 77.5019458,118.967727 C77.5019458,118.344904 77.309823,117.837352 76.9255717,117.445055 C76.5413204,117.052758 76.0539352,116.856612 75.4634017,116.856612 C74.8728681,116.856612 74.3854829,117.052758 74.0012316,117.445055 C73.6169803,117.837352 73.4248575,118.344904 73.4248575,118.967727 C73.4248575,119.590549 73.614958,120.100123 73.9951645,120.496465 Z M77.8902399,121.333631 C77.2430798,121.972631 76.4341418,122.292126 75.4634017,122.292126 C74.4926615,122.292126 73.6837235,121.970609 73.0365634,121.327565 C72.3894033,120.684521 72.0658281,119.897916 72.0658281,118.967727 C72.0658281,118.037537 72.3894033,117.250933 73.0365634,116.607889 C73.6837235,115.964845 74.4926615,115.643328 75.4634017,115.643328 C76.4341418,115.643328 77.2430798,115.964845 77.8902399,116.607889 C78.5374,117.250933 78.8609752,118.037537 78.8609752,118.967727 C78.8609752,119.897916 78.5374,120.686543 77.8902399,121.333631 Z M81.7610469,122.195063 L80.4020175,122.195063 L80.4020175,113.192493 L81.7610469,113.192493 L81.7610469,122.195063 Z M88.3256443,120.265941 C88.3256443,120.880675 88.1031864,121.37205 87.6582638,121.740081 C87.2133412,122.108113 86.6430399,122.292126 85.9473428,122.292126 C85.4781518,122.292126 84.9907666,122.207197 84.4851728,122.037336 C83.979579,121.867475 83.5326407,121.628865 83.1443447,121.321498 L83.799591,120.265941 C84.5519146,120.832143 85.2799588,121.11524 85.9837454,121.11524 C86.2911465,121.11524 86.5338278,121.044466 86.7117969,120.902915 C86.8897659,120.761365 86.9787491,120.581396 86.9787491,120.363004 C86.9787491,120.039459 86.5500119,119.748274 85.6925248,119.489439 C85.6278088,119.465173 85.5792725,119.448996 85.5469145,119.440908 C84.2040573,119.07692 83.5326388,118.470284 83.5326388,117.620981 C83.5326388,117.022424 83.7652085,116.543182 84.2303548,116.183239 C84.6955011,115.823296 85.3001822,115.643328 86.0444164,115.643328 C86.7886505,115.643328 87.4924265,115.861717 88.1557656,116.298501 L87.6461296,117.305527 C87.120312,116.957717 86.5500107,116.783815 85.9352086,116.783815 C85.6116286,116.783815 85.3487237,116.842456 85.1464862,116.959741 C84.9442487,117.077026 84.8431314,117.25295 84.8431314,117.48752 C84.8431314,117.697823 84.9482934,117.851505 85.1586204,117.948568 C85.3042314,118.021365 85.5084883,118.090117 85.7713971,118.154826 C86.0343058,118.219535 86.2668755,118.284243 86.4691131,118.348952 C86.6713506,118.41366 86.867518,118.486457 87.0576213,118.567343 C87.2477246,118.648229 87.4519814,118.761468 87.670398,118.907062 C88.107231,119.198252 88.3256443,119.651207 88.3256443,120.265941 Z M93.385602,113.714206 L94.8174366,113.714206 L94.8174366,122.195063 L93.385602,122.195063 L93.385602,113.714206 Z M98.336352,118.700804 L98.336352,122.195063 L96.9773226,122.195063 L96.9773226,115.74039 L98.336352,115.74039 L98.336352,116.917276 C98.5305001,116.520935 98.8237401,116.209528 99.2160809,115.983047 C99.6084217,115.756566 100.031092,115.643328 100.484104,115.643328 C101.503381,115.643328 102.195023,116.063929 102.559051,116.905143 C103.198121,116.063929 103.994925,115.643328 104.949486,115.643328 C105.677541,115.643328 106.266044,115.865761 106.715011,116.310634 C107.163978,116.755507 107.388459,117.398541 107.388459,118.239756 L107.388459,122.195063 L106.029429,122.195063 L106.029429,118.652273 C106.029429,117.463248 105.535977,116.868745 104.549058,116.868745 C104.087956,116.868745 103.68551,117.01636 103.341706,117.311594 C102.997902,117.606828 102.817913,118.037539 102.801734,118.603741 L102.801734,122.195063 L101.442705,122.195063 L101.442705,118.652273 C101.442705,118.037539 101.333498,117.586606 101.115082,117.299461 C100.896665,117.012315 100.552867,116.868745 100.083676,116.868745 C99.6144845,116.868745 99.2059708,117.024448 98.8581222,117.335859 C98.5102737,117.64727 98.336352,118.102247 98.336352,118.700804 Z M112.739637,115.643328 C113.605214,115.643328 114.345392,115.942601 114.960194,116.541158 C115.574996,117.139715 115.882392,117.93643 115.882392,118.931328 C115.882392,119.926226 115.577018,120.735074 114.966261,121.357897 C114.355504,121.980719 113.643638,122.292126 112.830643,122.292126 C112.017649,122.292126 111.287582,121.936232 110.640422,121.224435 L110.640422,124.548834 L109.281392,124.548834 L109.281392,115.74039 L110.640422,115.74039 L110.640422,116.868745 C111.174329,116.051796 111.87406,115.643328 112.739637,115.643328 Z M110.616153,118.979859 C110.616153,119.594593 110.802209,120.098101 111.174326,120.490398 C111.546443,120.882696 111.999449,121.078841 112.533356,121.078841 C113.067263,121.078841 113.532402,120.884718 113.928788,120.496465 C114.325173,120.108212 114.523363,119.604704 114.523363,118.985926 C114.523363,118.367148 114.329218,117.853529 113.940922,117.445055 C113.552626,117.03658 113.087486,116.832346 112.54549,116.832346 C112.003493,116.832346 111.546443,117.03658 111.174326,117.445055 C110.802209,117.853529 110.616153,118.365126 110.616153,118.979859 Z M122.665405,122.195063 L121.427718,122.195063 L121.427718,121.333631 C120.893811,121.972631 120.177901,122.292126 119.279966,122.292126 C118.608537,122.292126 118.052393,122.102046 117.611515,121.721882 C117.170637,121.341718 116.950201,120.834166 116.950201,120.19921 C116.950201,119.564255 117.184793,119.089057 117.653984,118.773601 C118.123175,118.458146 118.758192,118.30042 119.559052,118.30042 L121.31851,118.30042 L121.31851,118.057763 C121.31851,117.200372 120.841237,116.771682 119.886676,116.771682 C119.288052,116.771682 118.66517,116.990071 118.01801,117.426856 L117.411301,116.577557 C118.195982,115.954734 119.085814,115.643328 120.080823,115.643328 C120.841236,115.643328 121.462096,115.835429 121.943421,116.219638 C122.424746,116.603846 122.665405,117.20846 122.665405,118.033498 L122.665405,122.195063 Z M121.306376,119.79276 L121.306376,119.246782 L119.777468,119.246782 C118.798638,119.246782 118.309231,119.554144 118.309231,120.168878 C118.309231,120.484334 118.430571,120.724966 118.673256,120.890782 C118.915941,121.056599 119.253673,121.139506 119.686461,121.139506 C120.11925,121.139506 120.497428,121.018178 120.821008,120.77552 C121.144588,120.532862 121.306376,120.205279 121.306376,119.79276 Z M127.422008,122.292126 C126.524074,122.292126 125.751538,121.986785 125.104378,121.376096 C124.457218,120.765406 124.133642,119.966669 124.133642,118.979859 C124.133642,117.99305 124.471374,117.190268 125.146847,116.57149 C125.822321,115.952712 126.645415,115.643328 127.616155,115.643328 C128.586895,115.643328 129.407968,115.979 130.079396,116.650354 L129.27854,117.633114 C128.720364,117.147798 128.158152,116.905143 127.591887,116.905143 C127.025622,116.905143 126.534192,117.0932 126.117583,117.469321 C125.700973,117.845441 125.492672,118.330749 125.492672,118.925262 C125.492672,119.519774 125.698951,120.023282 126.111516,120.435801 C126.52408,120.848319 127.031689,121.054576 127.634357,121.054576 C128.237024,121.054576 128.805303,120.779567 129.33921,120.229542 L130.140067,121.103107 C129.355385,121.89579 128.449375,122.292126 127.422008,122.292126 Z M133.222152,116.832346 L133.222152,120.108214 C133.222152,120.415581 133.303045,120.660257 133.464835,120.842251 C133.626626,121.024244 133.853128,121.11524 134.14435,121.11524 C134.435572,121.11524 134.714656,120.973691 134.981609,120.69059 L135.539782,121.649085 C135.062502,122.077781 134.53467,122.292126 133.95627,122.292126 C133.377871,122.292126 132.884419,122.091936 132.475899,121.69155 C132.067379,121.291164 131.863122,120.751258 131.863122,120.071815 L131.863122,116.832346 L131.050131,116.832346 L131.050131,115.74039 L131.863122,115.74039 L131.863122,113.714206 L133.222152,113.714206 L133.222152,115.74039 L134.920938,115.74039 L134.920938,116.832346 L133.222152,116.832346 Z M142.62615,119.562236 L137.566192,119.562236 C137.59855,120.031375 137.812919,120.409511 138.209304,120.696657 C138.60569,120.983802 139.058695,121.127373 139.568334,121.127373 C140.377284,121.127373 140.992077,120.872586 141.412731,120.363004 L142.189319,121.212303 C141.493622,121.932188 140.587611,122.292126 139.47126,122.292126 C138.565236,122.292126 137.794723,121.99083 137.159697,121.388229 C136.524671,120.785628 136.207163,119.97678 136.207163,118.96166 C136.207163,117.946541 136.530738,117.139715 137.177898,116.541158 C137.825058,115.942601 138.587482,115.643328 139.465193,115.643328 C140.342904,115.643328 141.089149,115.908225 141.703951,116.438029 C142.318753,116.967832 142.62615,117.697818 142.62615,118.628007 L142.62615,119.562236 Z M137.566192,118.494546 L141.26712,118.494546 C141.26712,117.952609 141.097243,117.536053 140.757484,117.244863 C140.417725,116.953673 139.9991,116.808081 139.501596,116.808081 C139.004091,116.808081 138.557153,116.95974 138.160767,117.263062 C137.764382,117.566385 137.566192,117.976875 137.566192,118.494546 Z M146.751775,122.292126 C145.934735,122.292126 145.22287,121.984763 144.616157,121.37003 C144.009445,120.755296 143.706093,119.946448 143.706093,118.943461 C143.706093,117.940474 144.017534,117.139715 144.640426,116.541158 C145.263317,115.942601 146.005518,115.643328 146.86705,115.643328 C147.728582,115.643328 148.422246,116.007309 148.948063,116.735283 L148.948063,113.192493 L150.307093,113.192493 L150.307093,122.195063 L148.948063,122.195063 L148.948063,121.224435 C148.446514,121.936232 147.714425,122.292126 146.751775,122.292126 Z M145.065122,119.004125 C145.065122,119.618859 145.263312,120.120345 145.659698,120.508598 C146.056083,120.896851 146.521223,121.090974 147.05513,121.090974 C147.589037,121.090974 148.042042,120.894829 148.414159,120.502531 C148.786276,120.110234 148.972332,119.606726 148.972332,118.991992 C148.972332,118.377259 148.786276,117.86364 148.414159,117.451121 C148.042042,117.038603 147.584992,116.832346 147.042995,116.832346 C146.500999,116.832346 146.035859,117.038603 145.647563,117.451121 C145.259267,117.86364 145.065122,118.381303 145.065122,119.004125 Z" id="Schools-Impacted-Copy" fill="#FFFFFF"></path>
            </g>
        </g>
    </g>
</svg>