<?xml version="1.0" encoding="UTF-8"?>
<svg width="192px" height="192px" viewBox="0 0 192 192" version="1.1" xmlns="http://www.w3.org/2000/svg" xmlns:xlink="http://www.w3.org/1999/xlink">
    <!-- Generator: Sketch 52.4 (67378) - http://www.bohemiancoding.com/sketch -->
    <title>stat-2</title>
    <desc>Created with Sketch.</desc>
    <g id="Page-1" stroke="none" stroke-width="1" fill="none" fill-rule="evenodd">
        <g id="321-Web-Graph-Jan2019" transform="translate(-464.000000, -3889.000000)">
            <g id="stat-2" transform="translate(464.000000, 3889.000000)">
                <circle id="Oval-4-Copy-5" fill="#89BFFE" cx="96" cy="96" r="96"></circle>
                <path d="M32.5189189,62.1284324 L41.3301622,62.1284324 L41.3301622,83.8918919 L36.6598919,83.8918919 L36.6598919,66.2694054 L32.5189189,66.2694054 L32.5189189,62.1284324 Z M45.9615135,83.5182703 C45.2350234,82.9993488 44.8717838,82.3247609 44.8717838,81.4944865 C44.8717838,80.6642121 45.1519972,79.9844351 45.7124324,79.4551351 C46.2728677,78.9258352 46.9474555,78.6611892 47.7362162,78.6611892 C48.5249769,78.6611892 49.2047539,78.9206461 49.7755676,79.4395676 C50.3463812,79.9584891 50.6317838,80.5656181 50.6317838,81.260973 C50.6317838,81.9563278 50.3308138,82.7917789 49.7288649,83.7673514 L47.8607568,86.9742703 L44.7783784,86.9742703 L45.9615135,83.5182703 Z M59.5909189,73.7418378 C60.8778443,72.4341556 61.7963216,71.391139 62.3463784,70.6127568 C62.8964352,69.8343745 63.1714595,69.0819496 63.1714595,68.3554595 C63.1714595,67.6289693 62.9327591,67.0218403 62.4553514,66.5340541 C61.9779436,66.0462678 61.3656254,65.8023784 60.6183784,65.8023784 C59.2484256,65.8023784 57.9511413,66.7779362 56.7264865,68.7290811 L52.8345946,66.4250811 C53.8516808,64.8475597 54.9673453,63.6540581 56.1816216,62.8445405 C57.395898,62.035023 58.9422609,61.6302703 60.8207568,61.6302703 C62.6992526,61.6302703 64.3493983,62.2270211 65.7712432,63.4205405 C67.1930882,64.61406 67.904,66.23826 67.904,68.2931892 C67.904,69.4140597 67.6185974,70.4882111 67.0477838,71.5156757 C66.4769701,72.5431403 65.4235752,73.855992 63.8875676,75.4542703 L59.9645405,79.532973 L68.5578378,79.532973 L68.5578378,83.8918919 L53.2082162,83.8918919 L53.2082162,80.2802162 L59.5909189,73.7418378 Z M76.8008649,67.6393514 C76.1158885,68.9677904 75.7734054,70.7217188 75.7734054,72.9011892 C75.7734054,75.0806595 76.1158885,76.834588 76.8008649,78.163027 C77.4858413,79.4914661 78.5548035,80.1556757 80.0077838,80.1556757 C81.460764,80.1556757 82.5297263,79.4914661 83.2147027,78.163027 C83.8996791,76.834588 84.2421622,75.0806595 84.2421622,72.9011892 C84.2421622,70.7217188 83.8996791,68.9677904 83.2147027,67.6393514 C82.5297263,66.3109123 81.460764,65.6467027 80.0077838,65.6467027 C78.5548035,65.6467027 77.4858413,66.3109123 76.8008649,67.6393514 Z M80.0077838,84.140973 C76.998039,84.140973 74.7459534,83.1187129 73.2514595,81.0741622 C71.7569655,79.0296114 71.0097297,76.3001252 71.0097297,72.8856216 C71.0097297,69.4711181 71.7569655,66.7416318 73.2514595,64.6970811 C74.7459534,62.6525303 76.998039,61.6302703 80.0077838,61.6302703 C83.0175286,61.6302703 85.2696141,62.6525303 86.7641081,64.6970811 C88.2586021,66.7416318 89.0058378,69.4711181 89.0058378,72.8856216 C89.0058378,76.3001252 88.2586021,79.0296114 86.7641081,81.0741622 C85.2696141,83.1187129 83.0175286,84.140973 80.0077838,84.140973 Z M92.6097297,83.5182703 C91.8832396,82.9993488 91.52,82.3247609 91.52,81.4944865 C91.52,80.6642121 91.8002134,79.9844351 92.3606486,79.4551351 C92.9210839,78.9258352 93.5956717,78.6611892 94.3844324,78.6611892 C95.1731931,78.6611892 95.8529701,78.9206461 96.4237838,79.4395676 C96.9945974,79.9584891 97.28,80.5656181 97.28,81.260973 C97.28,81.9563278 96.97903,82.7917789 96.3770811,83.7673514 L94.508973,86.9742703 L91.4265946,86.9742703 L92.6097297,83.5182703 Z M105.585297,67.6393514 C104.900321,68.9677904 104.557838,70.7217188 104.557838,72.9011892 C104.557838,75.0806595 104.900321,76.834588 105.585297,78.163027 C106.270274,79.4914661 107.339236,80.1556757 108.792216,80.1556757 C110.245196,80.1556757 111.314159,79.4914661 111.999135,78.163027 C112.684112,76.834588 113.026595,75.0806595 113.026595,72.9011892 C113.026595,70.7217188 112.684112,68.9677904 111.999135,67.6393514 C111.314159,66.3109123 110.245196,65.6467027 108.792216,65.6467027 C107.339236,65.6467027 106.270274,66.3109123 105.585297,67.6393514 Z M108.792216,84.140973 C105.782471,84.140973 103.530386,83.1187129 102.035892,81.0741622 C100.541398,79.0296114 99.7941622,76.3001252 99.7941622,72.8856216 C99.7941622,69.4711181 100.541398,66.7416318 102.035892,64.6970811 C103.530386,62.6525303 105.782471,61.6302703 108.792216,61.6302703 C111.801961,61.6302703 114.054047,62.6525303 115.548541,64.6970811 C117.043034,66.7416318 117.79027,69.4711181 117.79027,72.8856216 C117.79027,76.3001252 117.043034,79.0296114 115.548541,81.0741622 C114.054047,83.1187129 111.801961,84.140973 108.792216,84.140973 Z M126.095568,67.6393514 C125.410591,68.9677904 125.068108,70.7217188 125.068108,72.9011892 C125.068108,75.0806595 125.410591,76.834588 126.095568,78.163027 C126.780544,79.4914661 127.849506,80.1556757 129.302486,80.1556757 C130.755467,80.1556757 131.824429,79.4914661 132.509405,78.163027 C133.194382,76.834588 133.536865,75.0806595 133.536865,72.9011892 C133.536865,70.7217188 133.194382,68.9677904 132.509405,67.6393514 C131.824429,66.3109123 130.755467,65.6467027 129.302486,65.6467027 C127.849506,65.6467027 126.780544,66.3109123 126.095568,67.6393514 Z M129.302486,84.140973 C126.292742,84.140973 124.040656,83.1187129 122.546162,81.0741622 C121.051668,79.0296114 120.304432,76.3001252 120.304432,72.8856216 C120.304432,69.4711181 121.051668,66.7416318 122.546162,64.6970811 C124.040656,62.6525303 126.292742,61.6302703 129.302486,61.6302703 C132.312231,61.6302703 134.564317,62.6525303 136.058811,64.6970811 C137.553305,66.7416318 138.300541,69.4711181 138.300541,72.8856216 C138.300541,76.3001252 137.553305,79.0296114 136.058811,81.0741622 C134.564317,83.1187129 132.312231,84.140973 129.302486,84.140973 Z M146.605838,67.6393514 C145.920861,68.9677904 145.578378,70.7217188 145.578378,72.9011892 C145.578378,75.0806595 145.920861,76.834588 146.605838,78.163027 C147.290814,79.4914661 148.359777,80.1556757 149.812757,80.1556757 C151.265737,80.1556757 152.334699,79.4914661 153.019676,78.163027 C153.704652,76.834588 154.047135,75.0806595 154.047135,72.9011892 C154.047135,70.7217188 153.704652,68.9677904 153.019676,67.6393514 C152.334699,66.3109123 151.265737,65.6467027 149.812757,65.6467027 C148.359777,65.6467027 147.290814,66.3109123 146.605838,67.6393514 Z M149.812757,84.140973 C146.803012,84.140973 144.550926,83.1187129 143.056432,81.0741622 C141.561938,79.0296114 140.814703,76.3001252 140.814703,72.8856216 C140.814703,69.4711181 141.561938,66.7416318 143.056432,64.6970811 C144.550926,62.6525303 146.803012,61.6302703 149.812757,61.6302703 C152.822502,61.6302703 155.074587,62.6525303 156.569081,64.6970811 C158.063575,66.7416318 158.810811,69.4711181 158.810811,72.8856216 C158.810811,76.3001252 158.063575,79.0296114 156.569081,81.0741622 C155.074587,83.1187129 152.822502,84.140973 149.812757,84.140973 Z" id="1,20,000-copy" fill="#FFFFFF"></path>
                <polygon id="Line-Copy-10" fill="#FFFFFF" fill-rule="nonzero" points="65.7297297 99.5945946 65.7297297 98.5945946 126.670028 98.5945946 126.670028 99.5945946"></polygon>
                <path d="M39.2934054,114.596324 C38.8817277,114.596324 38.542704,114.68108 38.2763243,114.850595 C38.0099446,115.020109 37.8767568,115.276395 37.8767568,115.619459 C37.8767568,115.962524 38.0099446,116.224864 38.2763243,116.406486 C38.542704,116.588109 39.1097614,116.783855 39.9775135,116.99373 C40.8452656,117.203605 41.4990969,117.498232 41.939027,117.877622 C42.3789572,118.257011 42.5989189,118.815996 42.5989189,119.554595 C42.5989189,120.293193 42.3204352,120.892538 41.7634595,121.352649 C41.2064837,121.812759 40.4759685,122.042811 39.5718919,122.042811 C38.2480655,122.042811 37.0735907,121.586743 36.0484324,120.674595 L36.9444324,119.596973 C37.8000764,120.339607 38.6879954,120.710919 39.6082162,120.710919 C40.0683266,120.710919 40.4335842,120.612037 40.704,120.41427 C40.9744158,120.216504 41.1096216,119.954164 41.1096216,119.627243 C41.1096216,119.300323 40.9824878,119.046055 40.7282162,118.864432 C40.4739447,118.68281 40.0360391,118.517334 39.4144865,118.368 C38.7929338,118.218666 38.3207223,118.081442 37.9978378,117.956324 C37.6749533,117.831207 37.3883976,117.667749 37.1381622,117.465946 C36.6376912,117.086557 36.3874595,116.505373 36.3874595,115.722378 C36.3874595,114.939383 36.6719972,114.336002 37.2410811,113.912216 C37.810165,113.48843 38.5144463,113.276541 39.3539459,113.276541 C39.8947775,113.276541 40.4315649,113.365332 40.9643243,113.542919 C41.4970837,113.720505 41.9571873,113.970737 42.3446486,114.293622 L41.5818378,115.371243 C41.3316024,115.145224 40.9925787,114.959568 40.5647568,114.81427 C40.1369348,114.668972 39.7131553,114.596324 39.2934054,114.596324 Z M45.8438919,116.594162 L45.8438919,119.863351 C45.8438919,120.170092 45.9246118,120.414269 46.0860541,120.595892 C46.2474963,120.777514 46.4735121,120.868324 46.7641081,120.868324 C47.0547042,120.868324 47.3331879,120.727064 47.5995676,120.444541 L48.1565405,121.401081 C47.6802859,121.828903 47.1535885,122.042811 46.5764324,122.042811 C45.9992764,122.042811 45.5068849,121.843029 45.0992432,121.443459 C44.6916016,121.04389 44.4877838,120.505084 44.4877838,119.827027 L44.4877838,116.594162 L43.6765405,116.594162 L43.6765405,115.504432 L44.4877838,115.504432 L44.4877838,113.482378 L45.8438919,113.482378 L45.8438919,115.504432 L47.539027,115.504432 L47.539027,116.594162 L45.8438919,116.594162 Z M53.7383784,118.991568 L53.7383784,115.504432 L55.0944865,115.504432 L55.0944865,121.945946 L53.7383784,121.945946 L53.7383784,120.771459 C53.5204313,121.166993 53.2197497,121.477765 52.8363243,121.703784 C52.452899,121.929803 52.0392094,122.042811 51.5952432,122.042811 C50.8687531,122.042811 50.2815158,121.820831 49.8335135,121.376865 C49.3855113,120.932899 49.1615135,120.291175 49.1615135,119.451676 L49.1615135,115.504432 L50.5176216,115.504432 L50.5176216,119.04 C50.5176216,120.226601 51.0100131,120.819892 51.9948108,120.819892 C52.4629933,120.819892 52.8706289,120.664506 53.2177297,120.35373 C53.5648306,120.042953 53.7383784,119.588904 53.7383784,118.991568 Z M59.6834595,122.042811 C58.8681761,122.042811 58.1578409,121.736075 57.5524324,121.122595 C56.947024,120.509114 56.6443243,119.701915 56.6443243,118.700973 C56.6443243,117.700031 56.955096,116.900904 57.5766486,116.303568 C58.1982013,115.706231 58.9388065,115.407568 59.7984865,115.407568 C60.6581665,115.407568 61.3503397,115.770807 61.875027,116.497297 L61.875027,112.96173 L63.2311351,112.96173 L63.2311351,121.945946 L61.875027,121.945946 L61.875027,120.977297 C61.3745561,121.687643 60.6440408,122.042811 59.6834595,122.042811 Z M58.0004324,118.761514 C58.0004324,119.374994 58.1981962,119.875458 58.5937297,120.262919 C58.9892632,120.65038 59.4534027,120.844108 59.9861622,120.844108 C60.5189216,120.844108 60.9709531,120.648362 61.3422703,120.256865 C61.7135874,119.865367 61.8992432,119.362886 61.8992432,118.749405 C61.8992432,118.135925 61.7135874,117.623353 61.3422703,117.211676 C60.9709531,116.799998 60.5148856,116.594162 59.9740541,116.594162 C59.4332225,116.594162 58.969083,116.799998 58.5816216,117.211676 C58.1941602,117.623353 58.0004324,118.139961 58.0004324,118.761514 Z M71.1861622,119.318486 L66.1370811,119.318486 C66.1693695,119.786669 66.3832773,120.164035 66.7788108,120.450595 C67.1743443,120.737155 67.6263758,120.880432 68.1349189,120.880432 C68.9421302,120.880432 69.5556015,120.626165 69.9753514,120.117622 L70.7502703,120.965189 C70.0560686,121.683607 69.1520056,122.042811 68.0380541,122.042811 C67.1339775,122.042811 66.3651203,121.742129 65.7314595,121.140757 C65.0977986,120.539384 64.780973,119.732185 64.780973,118.719135 C64.780973,117.706085 65.1038526,116.900904 65.7496216,116.303568 C66.3953906,115.706231 67.1561758,115.407568 68.032,115.407568 C68.9078242,115.407568 69.6524654,115.671925 70.2659459,116.200649 C70.8794265,116.729372 71.1861622,117.457869 71.1861622,118.386162 L71.1861622,119.318486 Z M66.1370811,118.252973 L69.8300541,118.252973 C69.8300541,117.712141 69.6605422,117.296434 69.3215135,117.005838 C68.9824848,116.715242 68.5647592,116.569946 68.0683243,116.569946 C67.5718894,116.569946 67.1259119,116.721296 66.7303784,117.024 C66.3348449,117.326704 66.1370811,117.736358 66.1370811,118.252973 Z M74.0315676,118.458811 L74.0315676,121.945946 L72.6754595,121.945946 L72.6754595,115.504432 L74.0315676,115.504432 L74.0315676,116.678919 C74.2495146,116.283385 74.5501963,115.972614 74.9336216,115.746595 C75.317047,115.520575 75.7307365,115.407568 76.1747027,115.407568 C76.9011928,115.407568 77.4884302,115.629547 77.9364324,116.073514 C78.3844347,116.51748 78.6084324,117.159203 78.6084324,117.998703 L78.6084324,121.945946 L77.2523243,121.945946 L77.2523243,118.410378 C77.2523243,117.223778 76.7599329,116.630486 75.7751351,116.630486 C75.3069526,116.630486 74.8993171,116.785872 74.5522162,117.096649 C74.2051154,117.407425 74.0315676,117.861474 74.0315676,118.458811 Z M82.1682162,116.594162 L82.1682162,119.863351 C82.1682162,120.170092 82.2489361,120.414269 82.4103784,120.595892 C82.5718206,120.777514 82.7978364,120.868324 83.0884324,120.868324 C83.3790285,120.868324 83.6575122,120.727064 83.9238919,120.444541 L84.4808649,121.401081 C84.0046102,121.828903 83.4779128,122.042811 82.9007568,122.042811 C82.3236007,122.042811 81.8312092,121.843029 81.4235676,121.443459 C81.0159259,121.04389 80.8121081,120.505084 80.8121081,119.827027 L80.8121081,116.594162 L80.0008649,116.594162 L80.0008649,115.504432 L80.8121081,115.504432 L80.8121081,113.482378 L82.1682162,113.482378 L82.1682162,115.504432 L83.8633514,115.504432 L83.8633514,116.594162 L82.1682162,116.594162 Z M90.1474595,120.020757 C90.1474595,120.634237 89.9254797,121.124611 89.4815135,121.491892 C89.0375473,121.859173 88.4684719,122.042811 87.7742703,122.042811 C87.3060877,122.042811 86.8197503,121.958055 86.3152432,121.788541 C85.8107362,121.619026 85.3647587,121.380902 84.9772973,121.074162 L85.6311351,120.020757 C86.3818416,120.585805 87.1083208,120.868324 87.8105946,120.868324 C88.1173349,120.868324 88.3594946,120.797694 88.5370811,120.656432 C88.7146676,120.51517 88.8034595,120.335569 88.8034595,120.117622 C88.8034595,119.794737 88.3756439,119.504145 87.52,119.245838 C87.4554231,119.221622 87.4069912,119.205478 87.3747027,119.197405 C86.034732,118.83416 85.3647568,118.228761 85.3647568,117.381189 C85.3647568,116.783853 85.5968265,116.305587 86.060973,115.946378 C86.5251194,115.587169 87.1285008,115.407568 87.8711351,115.407568 C88.6137695,115.407568 89.3160327,115.625511 89.9779459,116.061405 L89.4694054,117.066378 C88.9447181,116.719278 88.3756427,116.54573 87.7621622,116.54573 C87.4392777,116.54573 87.1769379,116.604252 86.9751351,116.721297 C86.7733323,116.838343 86.6724324,117.013909 86.6724324,117.248 C86.6724324,117.457875 86.7773683,117.611243 86.9872432,117.708108 C87.1325413,117.780757 87.336359,117.849369 87.5987027,117.913946 C87.8610464,117.978523 88.0931161,118.043099 88.2949189,118.107676 C88.4967217,118.172253 88.6924675,118.2449 88.8821622,118.325622 C89.0718568,118.406343 89.2756746,118.519351 89.4936216,118.664649 C89.9295157,118.955245 90.1474595,119.407276 90.1474595,120.020757 Z M95.1965405,113.482378 L96.6252973,113.482378 L96.6252973,121.945946 L95.1965405,121.945946 L95.1965405,113.482378 Z M100.136649,118.458811 L100.136649,121.945946 L98.7805405,121.945946 L98.7805405,115.504432 L100.136649,115.504432 L100.136649,116.678919 C100.330379,116.283385 100.622989,115.972614 101.014486,115.746595 C101.405984,115.520575 101.827745,115.407568 102.279784,115.407568 C103.29687,115.407568 103.987025,115.827311 104.35027,116.666811 C104.987967,115.827311 105.783058,115.407568 106.735568,115.407568 C107.462058,115.407568 108.049295,115.629547 108.497297,116.073514 C108.9453,116.51748 109.169297,117.159203 109.169297,117.998703 L109.169297,121.945946 L107.813189,121.945946 L107.813189,118.410378 C107.813189,117.223778 107.320798,116.630486 106.336,116.630486 C105.87589,116.630486 105.474308,116.7778 105.131243,117.072432 C104.788178,117.367065 104.608577,117.796898 104.592432,118.361946 L104.592432,121.945946 L103.236324,121.945946 L103.236324,118.410378 C103.236324,117.796898 103.127352,117.346884 102.909405,117.060324 C102.691458,116.773764 102.348399,116.630486 101.880216,116.630486 C101.412034,116.630486 101.004398,116.785872 100.657297,117.096649 C100.310196,117.407425 100.136649,117.861474 100.136649,118.458811 Z M114.508973,115.407568 C115.372689,115.407568 116.111276,115.706231 116.724757,116.303568 C117.338237,116.900904 117.644973,117.695995 117.644973,118.688865 C117.644973,119.681735 117.340255,120.488934 116.730811,121.110486 C116.121366,121.732039 115.411031,122.042811 114.599784,122.042811 C113.788536,122.042811 113.060039,121.687643 112.41427,120.977297 L112.41427,124.294919 L111.058162,124.294919 L111.058162,115.504432 L112.41427,115.504432 L112.41427,116.630486 C112.94703,115.815203 113.645257,115.407568 114.508973,115.407568 Z M112.390054,118.737297 C112.390054,119.350778 112.57571,119.853259 112.947027,120.244757 C113.318344,120.636254 113.770376,120.832 114.303135,120.832 C114.835895,120.832 115.300034,120.638272 115.695568,120.250811 C116.091101,119.863349 116.288865,119.360868 116.288865,118.743351 C116.288865,118.125835 116.095137,117.613263 115.707676,117.205622 C115.320214,116.79798 114.856075,116.594162 114.315243,116.594162 C113.774412,116.594162 113.318344,116.79798 112.947027,117.205622 C112.57571,117.613263 112.390054,118.123817 112.390054,118.737297 Z M124.413405,121.945946 L123.178378,121.945946 L123.178378,121.08627 C122.645619,121.723967 121.931248,122.042811 121.035243,122.042811 C120.365258,122.042811 119.810309,121.853119 119.370378,121.47373 C118.930448,121.09434 118.710486,120.587823 118.710486,119.954162 C118.710486,119.320501 118.944574,118.846272 119.412757,118.531459 C119.880939,118.216647 120.514591,118.059243 121.31373,118.059243 L123.069405,118.059243 L123.069405,117.817081 C123.069405,116.961437 122.593158,116.533622 121.640649,116.533622 C121.043312,116.533622 120.421769,116.751565 119.776,117.187459 L119.170595,116.339892 C119.95359,115.718339 120.841509,115.407568 121.834378,115.407568 C122.593157,115.407568 123.212682,115.599277 123.692973,115.982703 C124.173264,116.366128 124.413405,116.969509 124.413405,117.792865 L124.413405,121.945946 Z M123.057297,119.548541 L123.057297,119.003676 L121.531676,119.003676 C120.55495,119.003676 120.066595,119.310411 120.066595,119.923892 C120.066595,120.238704 120.187674,120.478846 120.429838,120.644324 C120.672001,120.809803 121.009007,120.892541 121.440865,120.892541 C121.872723,120.892541 122.250088,120.771461 122.572973,120.529297 C122.895857,120.287134 123.057297,119.960218 123.057297,119.548541 Z M129.159784,122.042811 C128.263779,122.042811 127.492904,121.738093 126.847135,121.128649 C126.201366,120.519204 125.878486,119.722095 125.878486,118.737297 C125.878486,117.7525 126.215492,116.951354 126.889514,116.333838 C127.563535,115.716321 128.38486,115.407568 129.353514,115.407568 C130.322167,115.407568 131.141474,115.742555 131.811459,116.412541 L131.012324,117.393297 C130.455349,116.908971 129.894345,116.666811 129.329297,116.666811 C128.764249,116.666811 128.273876,116.854485 127.858162,117.229838 C127.442448,117.605191 127.234595,118.089511 127.234595,118.682811 C127.234595,119.276111 127.44043,119.778593 127.852108,120.19027 C128.263786,120.601948 128.770303,120.807784 129.371676,120.807784 C129.973048,120.807784 130.540105,120.533336 131.072865,119.984432 L131.872,120.856216 C131.089005,121.647283 130.184942,122.042811 129.159784,122.042811 Z M134.947459,116.594162 L134.947459,119.863351 C134.947459,120.170092 135.028179,120.414269 135.189622,120.595892 C135.351064,120.777514 135.57708,120.868324 135.867676,120.868324 C136.158272,120.868324 136.436755,120.727064 136.703135,120.444541 L137.260108,121.401081 C136.783853,121.828903 136.257156,122.042811 135.68,122.042811 C135.102844,122.042811 134.610452,121.843029 134.202811,121.443459 C133.795169,121.04389 133.591351,120.505084 133.591351,119.827027 L133.591351,116.594162 L132.780108,116.594162 L132.780108,115.504432 L133.591351,115.504432 L133.591351,113.482378 L134.947459,113.482378 L134.947459,115.504432 L136.642595,115.504432 L136.642595,116.594162 L134.947459,116.594162 Z M144.331243,119.318486 L139.282162,119.318486 C139.314451,119.786669 139.528358,120.164035 139.923892,120.450595 C140.319425,120.737155 140.771457,120.880432 141.28,120.880432 C142.087211,120.880432 142.700683,120.626165 143.120432,120.117622 L143.895351,120.965189 C143.20115,121.683607 142.297087,122.042811 141.183135,122.042811 C140.279059,122.042811 139.510201,121.742129 138.876541,121.140757 C138.24288,120.539384 137.926054,119.732185 137.926054,118.719135 C137.926054,117.706085 138.248934,116.900904 138.894703,116.303568 C139.540472,115.706231 140.301257,115.407568 141.177081,115.407568 C142.052905,115.407568 142.797546,115.671925 143.411027,116.200649 C144.024508,116.729372 144.331243,117.457869 144.331243,118.386162 L144.331243,119.318486 Z M139.282162,118.252973 L142.975135,118.252973 C142.975135,117.712141 142.805623,117.296434 142.466595,117.005838 C142.127566,116.715242 141.70984,116.569946 141.213405,116.569946 C140.71697,116.569946 140.270993,116.721296 139.875459,117.024 C139.479926,117.326704 139.282162,117.736358 139.282162,118.252973 Z M148.448,122.042811 C147.632717,122.042811 146.922381,121.736075 146.316973,121.122595 C145.711565,120.509114 145.408865,119.701915 145.408865,118.700973 C145.408865,117.700031 145.719637,116.900904 146.341189,116.303568 C146.962742,115.706231 147.703347,115.407568 148.563027,115.407568 C149.422707,115.407568 150.11488,115.770807 150.639568,116.497297 L150.639568,112.96173 L151.995676,112.96173 L151.995676,121.945946 L150.639568,121.945946 L150.639568,120.977297 C150.139097,121.687643 149.408581,122.042811 148.448,122.042811 Z M146.764973,118.761514 C146.764973,119.374994 146.962737,119.875458 147.35827,120.262919 C147.753804,120.65038 148.217943,120.844108 148.750703,120.844108 C149.283462,120.844108 149.735494,120.648362 150.106811,120.256865 C150.478128,119.865367 150.663784,119.362886 150.663784,118.749405 C150.663784,118.135925 150.478128,117.623353 150.106811,117.211676 C149.735494,116.799998 149.279426,116.594162 148.738595,116.594162 C148.197763,116.594162 147.733624,116.799998 147.346162,117.211676 C146.958701,117.623353 146.764973,118.139961 146.764973,118.761514 Z" id="Students-Impacted-Copy" fill="#FFFFFF"></path>
            </g>
        </g>
    </g>
</svg>