<?xml version="1.0" encoding="UTF-8"?>
<svg width="192px" height="192px" viewBox="0 0 192 192" version="1.1" xmlns="http://www.w3.org/2000/svg" xmlns:xlink="http://www.w3.org/1999/xlink">
    <!-- Generator: Sketch 52.4 (67378) - http://www.bohemiancoding.com/sketch -->
    <title>stat-1</title>
    <desc>Created with Sketch.</desc>
    <g id="Page-1" stroke="none" stroke-width="1" fill="none" fill-rule="evenodd">
        <g id="321-Web-Graph-Jan2019" transform="translate(-212.000000, -3889.000000)">
            <g id="stat-1" transform="translate(212.000000, 3889.000000)">
                <circle id="Oval-4-Copy-4" fill="#89BFFE" cx="96" cy="96" r="96"></circle>
                <path d="M55.1511351,66.2694054 L55.1511351,62.1284324 L68.476973,62.1284324 L68.476973,65.491027 L64.0246486,70.5660541 C65.7682249,70.8566501 67.1174006,71.5883185 68.0722162,72.7610811 C69.0270318,73.9338437 69.5044324,75.2882085 69.5044324,76.8242162 C69.5044324,79.1074709 68.731251,80.8977232 67.1848649,82.195027 C65.6384788,83.4923308 63.6614174,84.140973 61.2536216,84.140973 C58.8458258,84.140973 56.4069313,83.2899545 53.9368649,81.5878919 L55.9295135,77.7271351 C57.9844427,79.1801154 59.8213973,79.9065946 61.4404324,79.9065946 C62.4160049,79.9065946 63.2203212,79.6678943 63.8534054,79.1904865 C64.4864897,78.7130787 64.803027,78.0229234 64.803027,77.12 C64.803027,76.2170766 64.4397874,75.5009756 63.7132973,74.9716757 C62.9868072,74.4423757 61.9801145,74.1777297 60.6931892,74.1777297 C60.0082128,74.1777297 59.0430333,74.3749169 57.7976216,74.7692973 L57.7976216,71.1887568 L61.9697297,66.2694054 L55.1511351,66.2694054 Z M73.0771892,83.5182703 C72.3506991,82.9993488 71.9874595,82.3247609 71.9874595,81.4944865 C71.9874595,80.6642121 72.2676729,79.9844351 72.8281081,79.4551351 C73.3885433,78.9258352 74.0631312,78.6611892 74.8518919,78.6611892 C75.6406526,78.6611892 76.3204296,78.9206461 76.8912432,79.4395676 C77.4620569,79.9584891 77.7474595,80.5656181 77.7474595,81.260973 C77.7474595,81.9563278 77.4464895,82.7917789 76.8445405,83.7673514 L74.9764324,86.9742703 L71.8940541,86.9742703 L73.0771892,83.5182703 Z M86.0527568,67.6393514 C85.3677804,68.9677904 85.0252973,70.7217188 85.0252973,72.9011892 C85.0252973,75.0806595 85.3677804,76.834588 86.0527568,78.163027 C86.7377332,79.4914661 87.8066954,80.1556757 89.2596757,80.1556757 C90.7126559,80.1556757 91.7816182,79.4914661 92.4665946,78.163027 C93.151571,76.834588 93.4940541,75.0806595 93.4940541,72.9011892 C93.4940541,70.7217188 93.151571,68.9677904 92.4665946,67.6393514 C91.7816182,66.3109123 90.7126559,65.6467027 89.2596757,65.6467027 C87.8066954,65.6467027 86.7377332,66.3109123 86.0527568,67.6393514 Z M89.2596757,84.140973 C86.2499309,84.140973 83.9978453,83.1187129 82.5033514,81.0741622 C81.0088574,79.0296114 80.2616216,76.3001252 80.2616216,72.8856216 C80.2616216,69.4711181 81.0088574,66.7416318 82.5033514,64.6970811 C83.9978453,62.6525303 86.2499309,61.6302703 89.2596757,61.6302703 C92.2694205,61.6302703 94.521506,62.6525303 96.016,64.6970811 C97.510494,66.7416318 98.2577297,69.4711181 98.2577297,72.8856216 C98.2577297,76.3001252 97.510494,79.0296114 96.016,81.0741622 C94.521506,83.1187129 92.2694205,84.140973 89.2596757,84.140973 Z M106.563027,67.6393514 C105.878051,68.9677904 105.535568,70.7217188 105.535568,72.9011892 C105.535568,75.0806595 105.878051,76.834588 106.563027,78.163027 C107.248003,79.4914661 108.316966,80.1556757 109.769946,80.1556757 C111.222926,80.1556757 112.291888,79.4914661 112.976865,78.163027 C113.661841,76.834588 114.004324,75.0806595 114.004324,72.9011892 C114.004324,70.7217188 113.661841,68.9677904 112.976865,67.6393514 C112.291888,66.3109123 111.222926,65.6467027 109.769946,65.6467027 C108.316966,65.6467027 107.248003,66.3109123 106.563027,67.6393514 Z M109.769946,84.140973 C106.760201,84.140973 104.508116,83.1187129 103.013622,81.0741622 C101.519128,79.0296114 100.771892,76.3001252 100.771892,72.8856216 C100.771892,69.4711181 101.519128,66.7416318 103.013622,64.6970811 C104.508116,62.6525303 106.760201,61.6302703 109.769946,61.6302703 C112.779691,61.6302703 115.031776,62.6525303 116.52627,64.6970811 C118.020764,66.7416318 118.768,69.4711181 118.768,72.8856216 C118.768,76.3001252 118.020764,79.0296114 116.52627,81.0741622 C115.031776,83.1187129 112.779691,84.140973 109.769946,84.140973 Z M127.073297,67.6393514 C126.388321,68.9677904 126.045838,70.7217188 126.045838,72.9011892 C126.045838,75.0806595 126.388321,76.834588 127.073297,78.163027 C127.758274,79.4914661 128.827236,80.1556757 130.280216,80.1556757 C131.733196,80.1556757 132.802159,79.4914661 133.487135,78.163027 C134.172112,76.834588 134.514595,75.0806595 134.514595,72.9011892 C134.514595,70.7217188 134.172112,68.9677904 133.487135,67.6393514 C132.802159,66.3109123 131.733196,65.6467027 130.280216,65.6467027 C128.827236,65.6467027 127.758274,66.3109123 127.073297,67.6393514 Z M130.280216,84.140973 C127.270471,84.140973 125.018386,83.1187129 123.523892,81.0741622 C122.029398,79.0296114 121.282162,76.3001252 121.282162,72.8856216 C121.282162,69.4711181 122.029398,66.7416318 123.523892,64.6970811 C125.018386,62.6525303 127.270471,61.6302703 130.280216,61.6302703 C133.289961,61.6302703 135.542047,62.6525303 137.036541,64.6970811 C138.531034,66.7416318 139.27827,69.4711181 139.27827,72.8856216 C139.27827,76.3001252 138.531034,79.0296114 137.036541,81.0741622 C135.542047,83.1187129 133.289961,84.140973 130.280216,84.140973 Z" id="3,000-copy" fill="#FFFFFF"></path>
                <polygon id="Line-Copy-9" fill="#FFFFFF" fill-rule="nonzero" points="66.5945946 99.5945946 66.5945946 98.5945946 127.534893 98.5945946 127.534893 99.5945946"></polygon>
                <path d="M40.1945946,113.482378 L40.1945946,114.826378 L35.6782703,114.826378 L35.6782703,117.066378 L39.7344865,117.066378 L39.7344865,118.33773 L35.6782703,118.33773 L35.6782703,120.601946 L40.3398919,120.601946 L40.3398919,121.945946 L34.2495135,121.945946 L34.2495135,113.482378 L40.1945946,113.482378 Z M44.6019459,122.042811 C43.7866626,122.042811 43.0763274,121.736075 42.4709189,121.122595 C41.8655105,120.509114 41.5628108,119.701915 41.5628108,118.700973 C41.5628108,117.700031 41.8735825,116.900904 42.4951351,116.303568 C43.1166878,115.706231 43.857293,115.407568 44.716973,115.407568 C45.5766529,115.407568 46.2688262,115.770807 46.7935135,116.497297 L46.7935135,112.96173 L48.1496216,112.96173 L48.1496216,121.945946 L46.7935135,121.945946 L46.7935135,120.977297 C46.2930425,121.687643 45.5625273,122.042811 44.6019459,122.042811 Z M42.9189189,118.761514 C42.9189189,119.374994 43.1166827,119.875458 43.5122162,120.262919 C43.9077497,120.65038 44.3718892,120.844108 44.9046486,120.844108 C45.4374081,120.844108 45.8894396,120.648362 46.2607568,120.256865 C46.6320739,119.865367 46.8177297,119.362886 46.8177297,118.749405 C46.8177297,118.135925 46.6320739,117.623353 46.2607568,117.211676 C45.8894396,116.799998 45.4333721,116.594162 44.8925405,116.594162 C44.351709,116.594162 43.8875695,116.799998 43.5001081,117.211676 C43.1126467,117.623353 42.9189189,118.139961 42.9189189,118.761514 Z M54.6153514,118.991568 L54.6153514,115.504432 L55.9714595,115.504432 L55.9714595,121.945946 L54.6153514,121.945946 L54.6153514,120.771459 C54.3974043,121.166993 54.0967226,121.477765 53.7132973,121.703784 C53.329872,121.929803 52.9161824,122.042811 52.4722162,122.042811 C51.7457261,122.042811 51.1584887,121.820831 50.7104865,121.376865 C50.2624842,120.932899 50.0384865,120.291175 50.0384865,119.451676 L50.0384865,115.504432 L51.3945946,115.504432 L51.3945946,119.04 C51.3945946,120.226601 51.8869861,120.819892 52.8717838,120.819892 C53.3399663,120.819892 53.7476019,120.664506 54.0947027,120.35373 C54.4418035,120.042953 54.6153514,119.588904 54.6153514,118.991568 Z M60.7904865,122.042811 C59.894482,122.042811 59.1236068,121.738093 58.4778378,121.128649 C57.8320688,120.519204 57.5091892,119.722095 57.5091892,118.737297 C57.5091892,117.7525 57.8461948,116.951354 58.5202162,116.333838 C59.1942376,115.716321 60.0155627,115.407568 60.9842162,115.407568 C61.9528697,115.407568 62.7721768,115.742555 63.4421622,116.412541 L62.643027,117.393297 C62.0860513,116.908971 61.5250479,116.666811 60.96,116.666811 C60.3949521,116.666811 59.9045787,116.854485 59.4888649,117.229838 C59.0731511,117.605191 58.8652973,118.089511 58.8652973,118.682811 C58.8652973,119.276111 59.0711331,119.778593 59.4828108,120.19027 C59.8944885,120.601948 60.401006,120.807784 61.0023784,120.807784 C61.6037508,120.807784 62.1708081,120.533336 62.7035676,119.984432 L63.5027027,120.856216 C62.7197078,121.647283 61.8156448,122.042811 60.7904865,122.042811 Z M70.1258378,121.945946 L68.8908108,121.945946 L68.8908108,121.08627 C68.3580514,121.723967 67.6436802,122.042811 66.7476757,122.042811 C66.0776903,122.042811 65.5227409,121.853119 65.0828108,121.47373 C64.6428807,121.09434 64.4229189,120.587823 64.4229189,119.954162 C64.4229189,119.320501 64.6570067,118.846272 65.1251892,118.531459 C65.5933717,118.216647 66.227023,118.059243 67.0261622,118.059243 L68.7818378,118.059243 L68.7818378,117.817081 C68.7818378,116.961437 68.3055903,116.533622 67.3530811,116.533622 C66.7557448,116.533622 66.1342014,116.751565 65.4884324,117.187459 L64.883027,116.339892 C65.6660219,115.718339 66.553941,115.407568 67.5468108,115.407568 C68.3055894,115.407568 68.9251147,115.599277 69.4054054,115.982703 C69.8856961,116.366128 70.1258378,116.969509 70.1258378,117.792865 L70.1258378,121.945946 Z M68.7697297,119.548541 L68.7697297,119.003676 L67.2441081,119.003676 C66.2673825,119.003676 65.779027,119.310411 65.779027,119.923892 C65.779027,120.238704 65.9001069,120.478846 66.1422703,120.644324 C66.3844336,120.809803 66.7214393,120.892541 67.1532973,120.892541 C67.5851553,120.892541 67.9625209,120.771461 68.2854054,120.529297 C68.6082899,120.287134 68.7697297,119.960218 68.7697297,119.548541 Z M73.6856216,116.594162 L73.6856216,119.863351 C73.6856216,120.170092 73.7663415,120.414269 73.9277838,120.595892 C74.089226,120.777514 74.3152418,120.868324 74.6058378,120.868324 C74.8964339,120.868324 75.1749176,120.727064 75.4412973,120.444541 L75.9982703,121.401081 C75.5220156,121.828903 74.9953182,122.042811 74.4181622,122.042811 C73.8410061,122.042811 73.3486147,121.843029 72.940973,121.443459 C72.5333313,121.04389 72.3295135,120.505084 72.3295135,119.827027 L72.3295135,116.594162 L71.5182703,116.594162 L71.5182703,115.504432 L72.3295135,115.504432 L72.3295135,113.482378 L73.6856216,113.482378 L73.6856216,115.504432 L75.3807568,115.504432 L75.3807568,116.594162 L73.6856216,116.594162 Z M78.5772973,120.250811 C78.9647587,120.638272 79.4531142,120.832 80.0423784,120.832 C80.6316426,120.832 81.1179801,120.636254 81.5014054,120.244757 C81.8848307,119.853259 82.0765405,119.346742 82.0765405,118.725189 C82.0765405,118.103637 81.8848307,117.597119 81.5014054,117.205622 C81.1179801,116.814124 80.6316426,116.618378 80.0423784,116.618378 C79.4531142,116.618378 78.9667767,116.814124 78.5833514,117.205622 C78.199926,117.597119 78.0082162,118.103637 78.0082162,118.725189 C78.0082162,119.346742 78.197908,119.855277 78.5772973,120.250811 Z M82.464,121.08627 C81.818231,121.723967 81.0110319,122.042811 80.0423784,122.042811 C79.0737249,122.042811 78.2665258,121.721949 77.6207568,121.080216 C76.9749878,120.438483 76.6521081,119.653482 76.6521081,118.725189 C76.6521081,117.796896 76.9749878,117.011895 77.6207568,116.370162 C78.2665258,115.728429 79.0737249,115.407568 80.0423784,115.407568 C81.0110319,115.407568 81.818231,115.728429 82.464,116.370162 C83.109769,117.011895 83.4326486,117.796896 83.4326486,118.725189 C83.4326486,119.653482 83.109769,120.440501 82.464,121.08627 Z M88.3485405,116.775784 C87.6785552,116.775784 87.1740557,116.993728 86.835027,117.429622 C86.4959983,117.865516 86.3264865,118.450735 86.3264865,119.185297 L86.3264865,121.945946 L84.9703784,121.945946 L84.9703784,115.504432 L86.3264865,115.504432 L86.3264865,116.8 C86.5444335,116.396394 86.8410792,116.065443 87.2164324,115.807135 C87.5917857,115.548828 87.9893312,115.41564 88.4090811,115.407568 L88.4211892,116.775784 L88.3485405,116.775784 Z M94.3662703,120.020757 C94.3662703,120.634237 94.1442905,121.124611 93.7003243,121.491892 C93.2563581,121.859173 92.6872828,122.042811 91.9930811,122.042811 C91.5248986,122.042811 91.0385611,121.958055 90.5340541,121.788541 C90.029547,121.619026 89.5835695,121.380902 89.1961081,121.074162 L89.8499459,120.020757 C90.6006524,120.585805 91.3271316,120.868324 92.0294054,120.868324 C92.3361457,120.868324 92.5783054,120.797694 92.7558919,120.656432 C92.9334784,120.51517 93.0222703,120.335569 93.0222703,120.117622 C93.0222703,119.794737 92.5944547,119.504145 91.7388108,119.245838 C91.6742339,119.221622 91.625802,119.205478 91.5935135,119.197405 C90.2535428,118.83416 89.5835676,118.228761 89.5835676,117.381189 C89.5835676,116.783853 89.8156373,116.305587 90.2797838,115.946378 C90.7439302,115.587169 91.3473116,115.407568 92.0899459,115.407568 C92.8325803,115.407568 93.5348435,115.625511 94.1967568,116.061405 L93.6882162,117.066378 C93.1635289,116.719278 92.5944535,116.54573 91.980973,116.54573 C91.6580885,116.54573 91.3957488,116.604252 91.1939459,116.721297 C90.9921431,116.838343 90.8912432,117.013909 90.8912432,117.248 C90.8912432,117.457875 90.9961791,117.611243 91.2060541,117.708108 C91.3513521,117.780757 91.5551699,117.849369 91.8175135,117.913946 C92.0798572,117.978523 92.3119269,118.043099 92.5137297,118.107676 C92.7155325,118.172253 92.9112783,118.2449 93.100973,118.325622 C93.2906676,118.406343 93.4944854,118.519351 93.7124324,118.664649 C94.1483265,118.955245 94.3662703,119.407276 94.3662703,120.020757 Z M99.4153514,113.482378 L100.844108,113.482378 L100.844108,121.945946 L99.4153514,121.945946 L99.4153514,113.482378 Z M104.355459,118.458811 L104.355459,121.945946 L102.999351,121.945946 L102.999351,115.504432 L104.355459,115.504432 L104.355459,116.678919 C104.54919,116.283385 104.8418,115.972614 105.233297,115.746595 C105.624795,115.520575 106.046556,115.407568 106.498595,115.407568 C107.515681,115.407568 108.205836,115.827311 108.569081,116.666811 C109.206778,115.827311 110.001869,115.407568 110.954378,115.407568 C111.680868,115.407568 112.268106,115.629547 112.716108,116.073514 C113.16411,116.51748 113.388108,117.159203 113.388108,117.998703 L113.388108,121.945946 L112.032,121.945946 L112.032,118.410378 C112.032,117.223778 111.539609,116.630486 110.554811,116.630486 C110.0947,116.630486 109.693119,116.7778 109.350054,117.072432 C109.006989,117.367065 108.827387,117.796898 108.811243,118.361946 L108.811243,121.945946 L107.455135,121.945946 L107.455135,118.410378 C107.455135,117.796898 107.346163,117.346884 107.128216,117.060324 C106.910269,116.773764 106.56721,116.630486 106.099027,116.630486 C105.630845,116.630486 105.223209,116.785872 104.876108,117.096649 C104.529007,117.407425 104.355459,117.861474 104.355459,118.458811 Z M118.727784,115.407568 C119.5915,115.407568 120.330087,115.706231 120.943568,116.303568 C121.557048,116.900904 121.863784,117.695995 121.863784,118.688865 C121.863784,119.681735 121.559066,120.488934 120.949622,121.110486 C120.340177,121.732039 119.629842,122.042811 118.818595,122.042811 C118.007347,122.042811 117.27885,121.687643 116.633081,120.977297 L116.633081,124.294919 L115.276973,124.294919 L115.276973,115.504432 L116.633081,115.504432 L116.633081,116.630486 C117.165841,115.815203 117.864068,115.407568 118.727784,115.407568 Z M116.608865,118.737297 C116.608865,119.350778 116.794521,119.853259 117.165838,120.244757 C117.537155,120.636254 117.989187,120.832 118.521946,120.832 C119.054705,120.832 119.518845,120.638272 119.914378,120.250811 C120.309912,119.863349 120.507676,119.360868 120.507676,118.743351 C120.507676,118.125835 120.313948,117.613263 119.926486,117.205622 C119.539025,116.79798 119.074886,116.594162 118.534054,116.594162 C117.993223,116.594162 117.537155,116.79798 117.165838,117.205622 C116.794521,117.613263 116.608865,118.123817 116.608865,118.737297 Z M128.632216,121.945946 L127.397189,121.945946 L127.397189,121.08627 C126.86443,121.723967 126.150059,122.042811 125.254054,122.042811 C124.584069,122.042811 124.029119,121.853119 123.589189,121.47373 C123.149259,121.09434 122.929297,120.587823 122.929297,119.954162 C122.929297,119.320501 123.163385,118.846272 123.631568,118.531459 C124.09975,118.216647 124.733401,118.059243 125.532541,118.059243 L127.288216,118.059243 L127.288216,117.817081 C127.288216,116.961437 126.811969,116.533622 125.859459,116.533622 C125.262123,116.533622 124.64058,116.751565 123.994811,117.187459 L123.389405,116.339892 C124.1724,115.718339 125.060319,115.407568 126.053189,115.407568 C126.811968,115.407568 127.431493,115.599277 127.911784,115.982703 C128.392074,116.366128 128.632216,116.969509 128.632216,117.792865 L128.632216,121.945946 Z M127.276108,119.548541 L127.276108,119.003676 L125.750486,119.003676 C124.773761,119.003676 124.285405,119.310411 124.285405,119.923892 C124.285405,120.238704 124.406485,120.478846 124.648649,120.644324 C124.890812,120.809803 125.227818,120.892541 125.659676,120.892541 C126.091534,120.892541 126.468899,120.771461 126.791784,120.529297 C127.114668,120.287134 127.276108,119.960218 127.276108,119.548541 Z M133.378595,122.042811 C132.48259,122.042811 131.711715,121.738093 131.065946,121.128649 C130.420177,120.519204 130.097297,119.722095 130.097297,118.737297 C130.097297,117.7525 130.434303,116.951354 131.108324,116.333838 C131.782346,115.716321 132.603671,115.407568 133.572324,115.407568 C134.540978,115.407568 135.360285,115.742555 136.03027,116.412541 L135.231135,117.393297 C134.674159,116.908971 134.113156,116.666811 133.548108,116.666811 C132.98306,116.666811 132.492687,116.854485 132.076973,117.229838 C131.661259,117.605191 131.453405,118.089511 131.453405,118.682811 C131.453405,119.276111 131.659241,119.778593 132.070919,120.19027 C132.482597,120.601948 132.989114,120.807784 133.590486,120.807784 C134.191859,120.807784 134.758916,120.533336 135.291676,119.984432 L136.090811,120.856216 C135.307816,121.647283 134.403753,122.042811 133.378595,122.042811 Z M139.16627,116.594162 L139.16627,119.863351 C139.16627,120.170092 139.24699,120.414269 139.408432,120.595892 C139.569875,120.777514 139.79589,120.868324 140.086486,120.868324 C140.377083,120.868324 140.655566,120.727064 140.921946,120.444541 L141.478919,121.401081 C141.002664,121.828903 140.475967,122.042811 139.898811,122.042811 C139.321655,122.042811 138.829263,121.843029 138.421622,121.443459 C138.01398,121.04389 137.810162,120.505084 137.810162,119.827027 L137.810162,116.594162 L136.998919,116.594162 L136.998919,115.504432 L137.810162,115.504432 L137.810162,113.482378 L139.16627,113.482378 L139.16627,115.504432 L140.861405,115.504432 L140.861405,116.594162 L139.16627,116.594162 Z M148.550054,119.318486 L143.500973,119.318486 C143.533261,119.786669 143.747169,120.164035 144.142703,120.450595 C144.538236,120.737155 144.990268,120.880432 145.498811,120.880432 C146.306022,120.880432 146.919493,120.626165 147.339243,120.117622 L148.114162,120.965189 C147.41996,121.683607 146.515897,122.042811 145.401946,122.042811 C144.497869,122.042811 143.729012,121.742129 143.095351,121.140757 C142.461691,120.539384 142.144865,119.732185 142.144865,118.719135 C142.144865,117.706085 142.467745,116.900904 143.113514,116.303568 C143.759283,115.706231 144.520068,115.407568 145.395892,115.407568 C146.271716,115.407568 147.016357,115.671925 147.629838,116.200649 C148.243318,116.729372 148.550054,117.457869 148.550054,118.386162 L148.550054,119.318486 Z M143.500973,118.252973 L147.193946,118.252973 C147.193946,117.712141 147.024434,117.296434 146.685405,117.005838 C146.346377,116.715242 145.928651,116.569946 145.432216,116.569946 C144.935781,116.569946 144.489804,116.721296 144.09427,117.024 C143.698737,117.326704 143.500973,117.736358 143.500973,118.252973 Z M152.666811,122.042811 C151.851527,122.042811 151.141192,121.736075 150.535784,121.122595 C149.930375,120.509114 149.627676,119.701915 149.627676,118.700973 C149.627676,117.700031 149.938447,116.900904 150.56,116.303568 C151.181553,115.706231 151.922158,115.407568 152.781838,115.407568 C153.641518,115.407568 154.333691,115.770807 154.858378,116.497297 L154.858378,112.96173 L156.214486,112.96173 L156.214486,121.945946 L154.858378,121.945946 L154.858378,120.977297 C154.357907,121.687643 153.627392,122.042811 152.666811,122.042811 Z M150.983784,118.761514 C150.983784,119.374994 151.181548,119.875458 151.577081,120.262919 C151.972615,120.65038 152.436754,120.844108 152.969514,120.844108 C153.502273,120.844108 153.954304,120.648362 154.325622,120.256865 C154.696939,119.865367 154.882595,119.362886 154.882595,118.749405 C154.882595,118.135925 154.696939,117.623353 154.325622,117.211676 C153.954304,116.799998 153.498237,116.594162 152.957405,116.594162 C152.416574,116.594162 151.952434,116.799998 151.564973,117.211676 C151.177512,117.623353 150.983784,118.139961 150.983784,118.761514 Z" id="Educators-Impacted-Copy" fill="#FFFFFF"></path>
            </g>
        </g>
    </g>
</svg>