<?xml version="1.0" encoding="UTF-8"?>
<svg width="192px" height="192px" viewBox="0 0 192 192" version="1.1" xmlns="http://www.w3.org/2000/svg" xmlns:xlink="http://www.w3.org/1999/xlink">
    <!-- Generator: Sketch 52.4 (67378) - http://www.bohemiancoding.com/sketch -->
    <title>stat-4</title>
    <desc>Created with Sketch.</desc>
    <g id="Page-1" stroke="none" stroke-width="1" fill="none" fill-rule="evenodd">
        <g id="321-Web-Graph-Jan2019" transform="translate(-963.000000, -3889.000000)">
            <g id="stat-4" transform="translate(963.000000, 3889.000000)">
                <circle id="Oval-4-Copy-3" fill="#89BFFE" cx="96" cy="96" r="96"></circle>
                <path d="M77.3530811,79.9688649 C78.702277,79.9688649 79.7452936,79.5174099 80.4821622,78.6144865 C81.2190307,77.7115631 81.6704857,76.4817375 81.8365405,74.924973 C80.5081015,75.817518 79.0758996,76.2637838 77.5398919,76.2637838 C75.5057196,76.2637838 73.8088717,75.5943851 72.4492973,74.2555676 C71.0897229,72.9167501 70.4099459,71.1472542 70.4099459,68.947027 C70.4099459,66.7467998 71.1416143,64.977304 72.604973,63.6384865 C74.0683316,62.299669 75.9104754,61.6302703 78.1314595,61.6302703 C79.6674671,61.6302703 81.0010754,61.9260511 82.1323243,62.5176216 C83.2635732,63.1091921 84.1509157,63.934265 84.7943784,64.9928649 C86.0190332,67.0477941 86.6313514,69.6216062 86.6313514,72.7143784 C86.6313514,74.707037 86.3874619,76.4557763 85.8996757,77.9606486 C85.4118895,79.465521 84.752869,80.6538335 83.9225946,81.5256216 C82.220532,83.2691979 80.1552554,84.140973 77.7267027,84.140973 C76.7096165,84.140973 75.7340587,83.990488 74.8,83.6895135 C73.8659413,83.388539 73.1602186,83.0875691 72.6828108,82.7865946 C72.205403,82.4856201 71.6553545,82.0964348 71.0326486,81.619027 L73.4611892,78.1941622 C73.6064872,78.3187033 73.7984853,78.4795666 74.0371892,78.6767568 C74.2758931,78.8739469 74.7377263,79.1385929 75.4227027,79.4707027 C76.1076791,79.8028125 76.7511321,79.9688649 77.3530811,79.9688649 Z M78.0069189,72.1228108 C78.9824914,72.1228108 79.7919968,71.8425974 80.4354595,71.2821622 C81.0789221,70.7217269 81.4006486,69.9848694 81.4006486,69.0715676 C81.4006486,68.1582657 81.0893004,67.3695168 80.4665946,66.7052973 C79.8438888,66.0410778 79.0655182,65.708973 78.1314595,65.708973 C77.1974007,65.708973 76.4345976,66.0047538 75.843027,66.5963243 C75.2514565,67.1878948 74.9556757,67.9403198 74.9556757,68.8536216 C74.9556757,69.7669235 75.2255108,70.5401049 75.7651892,71.1731892 C76.3048676,71.8062734 77.0521033,72.1228108 78.0069189,72.1228108 Z M97.2717838,74.4890811 L97.2717838,70.6905946 L101.942054,70.6905946 L101.942054,74.4890811 L104.40173,74.4890811 L104.40173,78.6923243 L101.942054,78.6923243 L101.942054,83.8918919 L97.2717838,83.8918919 L97.2717838,78.6923243 L88.5228108,78.6923243 L88.5228108,74.9872432 L96.2754595,62.1284324 L101.568432,62.1284324 L94.1894054,74.4890811 L97.2717838,74.4890811 Z M127.869838,62.1284324 L112.271135,83.8918919 L106.915892,83.8918919 L122.54573,62.1284324 L127.869838,62.1284324 Z M122.639135,80.9029189 C122.888217,81.1727581 123.199566,81.3076757 123.573189,81.3076757 C123.946813,81.3076757 124.258161,81.167569 124.507243,80.8873514 C124.756326,80.6071337 124.880865,80.238705 124.880865,79.7820541 C124.880865,79.3254031 124.756326,78.9465961 124.507243,78.6456216 C124.258161,78.3446471 123.952002,78.1941622 123.588757,78.1941622 C123.225512,78.1941622 122.919353,78.3446471 122.67027,78.6456216 C122.421188,78.9465961 122.296649,79.3254031 122.296649,79.7820541 C122.296649,80.238705 122.41081,80.6123229 122.639135,80.9029189 Z M128.181189,79.7820541 C128.181189,81.0067088 127.745302,82.0393471 126.873514,82.88 C126.001725,83.7206529 124.906817,84.140973 123.588757,84.140973 C122.270696,84.140973 121.175788,83.7154637 120.304,82.8644324 C119.432212,82.0134012 118.996324,80.9807628 118.996324,79.7664865 C118.996324,78.5522101 119.432212,77.5195718 120.304,76.6685405 C121.175788,75.8175093 122.270696,75.392 123.588757,75.392 C124.906817,75.392 126.001725,75.8175093 126.873514,76.6685405 C127.745302,77.5195718 128.181189,78.5573993 128.181189,79.7820541 Z M110.371892,68.1686486 C110.620974,68.4384878 110.932322,68.5734054 111.305946,68.5734054 C111.679569,68.5734054 111.990918,68.4332987 112.24,68.1530811 C112.489082,67.8728635 112.613622,67.5044347 112.613622,67.0477838 C112.613622,66.5911329 112.489082,66.2123258 112.24,65.9113514 C111.990918,65.6103769 111.684759,65.4598919 111.321514,65.4598919 C110.958268,65.4598919 110.652109,65.6103769 110.403027,65.9113514 C110.153945,66.2123258 110.029405,66.5911329 110.029405,67.0477838 C110.029405,67.5044347 110.143566,67.8780526 110.371892,68.1686486 Z M115.913946,67.0477838 C115.913946,68.2724386 115.478058,69.3050769 114.60627,70.1457297 C113.734482,70.9863826 112.639574,71.4067027 111.321514,71.4067027 C110.003453,71.4067027 108.908545,70.9811934 108.036757,70.1301622 C107.164969,69.2791309 106.729081,68.2464926 106.729081,67.0322162 C106.729081,65.8179399 107.164969,64.7853016 108.036757,63.9342703 C108.908545,63.083239 110.003453,62.6577297 111.321514,62.6577297 C112.639574,62.6577297 113.734482,63.083239 114.60627,63.9342703 C115.478058,64.7853016 115.913946,65.823129 115.913946,67.0477838 Z" id="94%" fill="#FFFFFF"></path>
                <polygon id="Line-Copy-8" fill="#FFFFFF" fill-rule="nonzero" points="70.0540541 99.5945946 70.0540541 98.5945946 130.994352 98.5945946 130.994352 99.5945946"></polygon>
                <path d="M33.9770811,114.596324 C33.5654033,114.596324 33.2263797,114.68108 32.96,114.850595 C32.6936203,115.020109 32.5604324,115.276395 32.5604324,115.619459 C32.5604324,115.962524 32.6936203,116.224864 32.96,116.406486 C33.2263797,116.588109 33.7934371,116.783855 34.6611892,116.99373 C35.5289413,117.203605 36.1827726,117.498232 36.6227027,117.877622 C37.0626328,118.257011 37.2825946,118.815996 37.2825946,119.554595 C37.2825946,120.293193 37.0041109,120.892538 36.4471351,121.352649 C35.8901594,121.812759 35.1596442,122.042811 34.2555676,122.042811 C32.9317411,122.042811 31.7572664,121.586743 30.7321081,120.674595 L31.6281081,119.596973 C32.483752,120.339607 33.3716711,120.710919 34.2918919,120.710919 C34.7520023,120.710919 35.1172599,120.612037 35.3876757,120.41427 C35.6580914,120.216504 35.7932973,119.954164 35.7932973,119.627243 C35.7932973,119.300323 35.6661634,119.046055 35.4118919,118.864432 C35.1576204,118.68281 34.7197148,118.517334 34.0981622,118.368 C33.4766095,118.218666 33.004398,118.081442 32.6815135,117.956324 C32.358629,117.831207 32.0720733,117.667749 31.8218378,117.465946 C31.3213669,117.086557 31.0711351,116.505373 31.0711351,115.722378 C31.0711351,114.939383 31.3556728,114.336002 31.9247568,113.912216 C32.4938407,113.48843 33.1981219,113.276541 34.0376216,113.276541 C34.5784532,113.276541 35.1152406,113.365332 35.648,113.542919 C36.1807594,113.720505 36.6408629,113.970737 37.0283243,114.293622 L36.2655135,115.371243 C36.015278,115.145224 35.6762544,114.959568 35.2484324,114.81427 C34.8206105,114.668972 34.3968309,114.596324 33.9770811,114.596324 Z M41.7141622,122.042811 C40.8181577,122.042811 40.0472825,121.738093 39.4015135,121.128649 C38.7557445,120.519204 38.4328649,119.722095 38.4328649,118.737297 C38.4328649,117.7525 38.7698705,116.951354 39.4438919,116.333838 C40.1179133,115.716321 40.9392384,115.407568 41.9078919,115.407568 C42.8765454,115.407568 43.6958525,115.742555 44.3658378,116.412541 L43.5667027,117.393297 C43.0097269,116.908971 42.4487235,116.666811 41.8836757,116.666811 C41.3186278,116.666811 40.8282543,116.854485 40.4125405,117.229838 C39.9968268,117.605191 39.788973,118.089511 39.788973,118.682811 C39.788973,119.276111 39.9948088,119.778593 40.4064865,120.19027 C40.8181642,120.601948 41.3246817,120.807784 41.9260541,120.807784 C42.5274264,120.807784 43.0944838,120.533336 43.6272432,119.984432 L44.4263784,120.856216 C43.6433835,121.647283 42.7393204,122.042811 41.7141622,122.042811 Z M47.187027,118.458811 L47.187027,121.945946 L45.8309189,121.945946 L45.8309189,112.973838 L47.187027,112.973838 L47.187027,116.678919 C47.3807577,116.283385 47.6733674,115.972614 48.0648649,115.746595 C48.4563623,115.520575 48.8781239,115.407568 49.3301622,115.407568 C50.0566523,115.407568 50.6438897,115.629547 51.0918919,116.073514 C51.5398941,116.51748 51.7638919,117.159203 51.7638919,117.998703 L51.7638919,121.945946 L50.4077838,121.945946 L50.4077838,118.410378 C50.4077838,117.223778 49.9153923,116.630486 48.9305946,116.630486 C48.4624121,116.630486 48.0547765,116.785872 47.7076757,117.096649 C47.3605748,117.407425 47.187027,117.861474 47.187027,118.458811 Z M55.1541622,120.250811 C55.5416236,120.638272 56.029979,120.832 56.6192432,120.832 C57.2085075,120.832 57.6948449,120.636254 58.0782703,120.244757 C58.4616956,119.853259 58.6534054,119.346742 58.6534054,118.725189 C58.6534054,118.103637 58.4616956,117.597119 58.0782703,117.205622 C57.6948449,116.814124 57.2085075,116.618378 56.6192432,116.618378 C56.029979,116.618378 55.5436416,116.814124 55.1602162,117.205622 C54.7767909,117.597119 54.5850811,118.103637 54.5850811,118.725189 C54.5850811,119.346742 54.7747729,119.855277 55.1541622,120.250811 Z M59.0408649,121.08627 C58.3950959,121.723967 57.5878967,122.042811 56.6192432,122.042811 C55.6505898,122.042811 54.8433906,121.721949 54.1976216,121.080216 C53.5518526,120.438483 53.228973,119.653482 53.228973,118.725189 C53.228973,117.796896 53.5518526,117.011895 54.1976216,116.370162 C54.8433906,115.728429 55.6505898,115.407568 56.6192432,115.407568 C57.5878967,115.407568 58.3950959,115.728429 59.0408649,116.370162 C59.6866339,117.011895 60.0095135,117.796896 60.0095135,118.725189 C60.0095135,119.653482 59.6866339,120.440501 59.0408649,121.08627 Z M63.0486486,120.250811 C63.43611,120.638272 63.9244655,120.832 64.5137297,120.832 C65.1029939,120.832 65.5893314,120.636254 65.9727568,120.244757 C66.3561821,119.853259 66.5478919,119.346742 66.5478919,118.725189 C66.5478919,118.103637 66.3561821,117.597119 65.9727568,117.205622 C65.5893314,116.814124 65.1029939,116.618378 64.5137297,116.618378 C63.9244655,116.618378 63.438128,116.814124 63.0547027,117.205622 C62.6712774,117.597119 62.4795676,118.103637 62.4795676,118.725189 C62.4795676,119.346742 62.6692594,119.855277 63.0486486,120.250811 Z M66.9353514,121.08627 C66.2895824,121.723967 65.4823832,122.042811 64.5137297,122.042811 C63.5450762,122.042811 62.7378771,121.721949 62.0921081,121.080216 C61.4463391,120.438483 61.1234595,119.653482 61.1234595,118.725189 C61.1234595,117.796896 61.4463391,117.011895 62.0921081,116.370162 C62.7378771,115.728429 63.5450762,115.407568 64.5137297,115.407568 C65.4823832,115.407568 66.2895824,115.728429 66.9353514,116.370162 C67.5811203,117.011895 67.904,117.796896 67.904,118.725189 C67.904,119.653482 67.5811203,120.440501 66.9353514,121.08627 Z M70.7978378,121.945946 L69.4417297,121.945946 L69.4417297,112.96173 L70.7978378,112.96173 L70.7978378,121.945946 Z M83.027027,116.230919 C83.027027,117.627394 82.4175917,118.507241 81.1987027,118.870486 L83.4144865,121.945946 L81.5982703,121.945946 L79.5762162,119.100541 L77.6994595,119.100541 L77.6994595,121.945946 L76.2707027,121.945946 L76.2707027,113.482378 L79.4188108,113.482378 C80.7103488,113.482378 81.6345918,113.700322 82.1915676,114.136216 C82.7485433,114.57211 83.027027,115.270338 83.027027,116.230919 Z M79.4793514,117.804973 C80.2865626,117.804973 80.835458,117.679857 81.1260541,117.429622 C81.4166501,117.179386 81.5619459,116.777805 81.5619459,116.224865 C81.5619459,115.671925 81.4126141,115.292542 81.1139459,115.086703 C80.8152778,114.880864 80.2825264,114.777946 79.5156757,114.777946 L77.6994595,114.777946 L77.6994595,117.804973 L79.4793514,117.804973 Z M90.8851892,119.318486 L85.8361081,119.318486 C85.8683966,119.786669 86.0823043,120.164035 86.4778378,120.450595 C86.8733713,120.737155 87.3254029,120.880432 87.8339459,120.880432 C88.6411572,120.880432 89.2546285,120.626165 89.6743784,120.117622 L90.4492973,120.965189 C89.7550956,121.683607 88.8510326,122.042811 87.7370811,122.042811 C86.8330045,122.042811 86.0641473,121.742129 85.4304865,121.140757 C84.7968257,120.539384 84.48,119.732185 84.48,118.719135 C84.48,117.706085 84.8028797,116.900904 85.4486486,116.303568 C86.0944176,115.706231 86.8552028,115.407568 87.731027,115.407568 C88.6068512,115.407568 89.3514924,115.671925 89.964973,116.200649 C90.5784535,116.729372 90.8851892,117.457869 90.8851892,118.386162 L90.8851892,119.318486 Z M85.8361081,118.252973 L89.5290811,118.252973 C89.5290811,117.712141 89.3595693,117.296434 89.0205405,117.005838 C88.6815118,116.715242 88.2637863,116.569946 87.7673514,116.569946 C87.2709164,116.569946 86.8249389,116.721296 86.4294054,117.024 C86.0338719,117.326704 85.8361081,117.736358 85.8361081,118.252973 Z M93.7305946,118.458811 L93.7305946,121.945946 L92.3744865,121.945946 L92.3744865,115.504432 L93.7305946,115.504432 L93.7305946,116.678919 C93.9485416,116.283385 94.2492233,115.972614 94.6326486,115.746595 C95.016074,115.520575 95.4297635,115.407568 95.8737297,115.407568 C96.6002198,115.407568 97.1874572,115.629547 97.6354595,116.073514 C98.0834617,116.51748 98.3074595,117.159203 98.3074595,117.998703 L98.3074595,121.945946 L96.9513514,121.945946 L96.9513514,118.410378 C96.9513514,117.223778 96.4589599,116.630486 95.4741622,116.630486 C95.0059796,116.630486 94.5983441,116.785872 94.2512432,117.096649 C93.9041424,117.407425 93.7305946,117.861474 93.7305946,118.458811 Z M106.189838,119.318486 L101.140757,119.318486 C101.173045,119.786669 101.386953,120.164035 101.782486,120.450595 C102.17802,120.737155 102.630052,120.880432 103.138595,120.880432 C103.945806,120.880432 104.559277,120.626165 104.979027,120.117622 L105.753946,120.965189 C105.059744,121.683607 104.155681,122.042811 103.04173,122.042811 C102.137653,122.042811 101.368796,121.742129 100.735135,121.140757 C100.101474,120.539384 99.7846486,119.732185 99.7846486,118.719135 C99.7846486,117.706085 100.107528,116.900904 100.753297,116.303568 C101.399066,115.706231 102.159851,115.407568 103.035676,115.407568 C103.9115,115.407568 104.656141,115.671925 105.269622,116.200649 C105.883102,116.729372 106.189838,117.457869 106.189838,118.386162 L106.189838,119.318486 Z M101.140757,118.252973 L104.83373,118.252973 C104.83373,117.712141 104.664218,117.296434 104.325189,117.005838 C103.98616,116.715242 103.568435,116.569946 103.072,116.569946 C102.575565,116.569946 102.129588,116.721296 101.734054,117.024 C101.338521,117.326704 101.140757,117.736358 101.140757,118.252973 Z M110.694054,121.945946 L109.144216,121.945946 L106.916324,115.504432 L108.320865,115.504432 L109.919135,120.371892 L111.517405,115.504432 L112.921946,115.504432 L114.520216,120.371892 L116.118486,115.504432 L117.523027,115.504432 L115.295135,121.945946 L113.745297,121.945946 L112.219676,117.538595 L110.694054,121.945946 Z M123.940324,121.945946 L122.705297,121.945946 L122.705297,121.08627 C122.172538,121.723967 121.458167,122.042811 120.562162,122.042811 C119.892177,122.042811 119.337227,121.853119 118.897297,121.47373 C118.457367,121.09434 118.237405,120.587823 118.237405,119.954162 C118.237405,119.320501 118.471493,118.846272 118.939676,118.531459 C119.407858,118.216647 120.04151,118.059243 120.840649,118.059243 L122.596324,118.059243 L122.596324,117.817081 C122.596324,116.961437 122.120077,116.533622 121.167568,116.533622 C120.570231,116.533622 119.948688,116.751565 119.302919,117.187459 L118.697514,116.339892 C119.480508,115.718339 120.368427,115.407568 121.361297,115.407568 C122.120076,115.407568 122.739601,115.599277 123.219892,115.982703 C123.700183,116.366128 123.940324,116.969509 123.940324,117.792865 L123.940324,121.945946 Z M122.584216,119.548541 L122.584216,119.003676 L121.058595,119.003676 C120.081869,119.003676 119.593514,119.310411 119.593514,119.923892 C119.593514,120.238704 119.714593,120.478846 119.956757,120.644324 C120.19892,120.809803 120.535926,120.892541 120.967784,120.892541 C121.399642,120.892541 121.777007,120.771461 122.099892,120.529297 C122.422776,120.287134 122.584216,119.960218 122.584216,119.548541 Z M127.185297,121.945946 L125.829189,121.945946 L125.829189,112.96173 L127.185297,112.96173 L127.185297,121.945946 Z M139.414486,116.230919 C139.414486,117.627394 138.805051,118.507241 137.586162,118.870486 L139.801946,121.945946 L137.98573,121.945946 L135.963676,119.100541 L134.086919,119.100541 L134.086919,121.945946 L132.658162,121.945946 L132.658162,113.482378 L135.80627,113.482378 C137.097808,113.482378 138.022051,113.700322 138.579027,114.136216 C139.136003,114.57211 139.414486,115.270338 139.414486,116.230919 Z M135.866811,117.804973 C136.674022,117.804973 137.222917,117.679857 137.513514,117.429622 C137.80411,117.179386 137.949405,116.777805 137.949405,116.224865 C137.949405,115.671925 137.800074,115.292542 137.501405,115.086703 C137.202737,114.880864 136.669986,114.777946 135.903135,114.777946 L134.086919,114.777946 L134.086919,117.804973 L135.866811,117.804973 Z M146.49773,121.945946 L145.262703,121.945946 L145.262703,121.08627 C144.729943,121.723967 144.015572,122.042811 143.119568,122.042811 C142.449582,122.042811 141.894633,121.853119 141.454703,121.47373 C141.014773,121.09434 140.794811,120.587823 140.794811,119.954162 C140.794811,119.320501 141.028899,118.846272 141.497081,118.531459 C141.965264,118.216647 142.598915,118.059243 143.398054,118.059243 L145.15373,118.059243 L145.15373,117.817081 C145.15373,116.961437 144.677482,116.533622 143.724973,116.533622 C143.127637,116.533622 142.506093,116.751565 141.860324,117.187459 L141.254919,116.339892 C142.037914,115.718339 142.925833,115.407568 143.918703,115.407568 C144.677481,115.407568 145.297007,115.599277 145.777297,115.982703 C146.257588,116.366128 146.49773,116.969509 146.49773,117.792865 L146.49773,121.945946 Z M145.141622,119.548541 L145.141622,119.003676 L143.616,119.003676 C142.639274,119.003676 142.150919,119.310411 142.150919,119.923892 C142.150919,120.238704 142.271999,120.478846 142.514162,120.644324 C142.756326,120.809803 143.093331,120.892541 143.525189,120.892541 C143.957047,120.892541 144.334413,120.771461 144.657297,120.529297 C144.980182,120.287134 145.141622,119.960218 145.141622,119.548541 Z M150.057514,116.594162 L150.057514,119.863351 C150.057514,120.170092 150.138233,120.414269 150.299676,120.595892 C150.461118,120.777514 150.687134,120.868324 150.97773,120.868324 C151.268326,120.868324 151.546809,120.727064 151.813189,120.444541 L152.370162,121.401081 C151.893908,121.828903 151.36721,122.042811 150.790054,122.042811 C150.212898,122.042811 149.720507,121.843029 149.312865,121.443459 C148.905223,121.04389 148.701405,120.505084 148.701405,119.827027 L148.701405,116.594162 L147.890162,116.594162 L147.890162,115.504432 L148.701405,115.504432 L148.701405,113.482378 L150.057514,113.482378 L150.057514,115.504432 L151.752649,115.504432 L151.752649,116.594162 L150.057514,116.594162 Z M159.441297,119.318486 L154.392216,119.318486 C154.424505,119.786669 154.638412,120.164035 155.033946,120.450595 C155.429479,120.737155 155.881511,120.880432 156.390054,120.880432 C157.197265,120.880432 157.810737,120.626165 158.230486,120.117622 L159.005405,120.965189 C158.311204,121.683607 157.407141,122.042811 156.293189,122.042811 C155.389113,122.042811 154.620255,121.742129 153.986595,121.140757 C153.352934,120.539384 153.036108,119.732185 153.036108,118.719135 C153.036108,117.706085 153.358988,116.900904 154.004757,116.303568 C154.650526,115.706231 155.411311,115.407568 156.287135,115.407568 C157.162959,115.407568 157.907601,115.671925 158.521081,116.200649 C159.134562,116.729372 159.441297,117.457869 159.441297,118.386162 L159.441297,119.318486 Z M154.392216,118.252973 L158.085189,118.252973 C158.085189,117.712141 157.915677,117.296434 157.576649,117.005838 C157.23762,116.715242 156.819894,116.569946 156.323459,116.569946 C155.827025,116.569946 155.381047,116.721296 154.985514,117.024 C154.58998,117.326704 154.392216,117.736358 154.392216,118.252973 Z M165.519568,120.020757 C165.519568,120.634237 165.297588,121.124611 164.853622,121.491892 C164.409655,121.859173 163.84058,122.042811 163.146378,122.042811 C162.678196,122.042811 162.191858,121.958055 161.687351,121.788541 C161.182844,121.619026 160.736867,121.380902 160.349405,121.074162 L161.003243,120.020757 C161.75395,120.585805 162.480429,120.868324 163.182703,120.868324 C163.489443,120.868324 163.731603,120.797694 163.909189,120.656432 C164.086776,120.51517 164.175568,120.335569 164.175568,120.117622 C164.175568,119.794737 163.747752,119.504145 162.892108,119.245838 C162.827531,119.221622 162.779099,119.205478 162.746811,119.197405 C161.40684,118.83416 160.736865,118.228761 160.736865,117.381189 C160.736865,116.783853 160.968935,116.305587 161.433081,115.946378 C161.897228,115.587169 162.500609,115.407568 163.243243,115.407568 C163.985878,115.407568 164.688141,115.625511 165.350054,116.061405 L164.841514,117.066378 C164.316826,116.719278 163.747751,116.54573 163.13427,116.54573 C162.811386,116.54573 162.549046,116.604252 162.347243,116.721297 C162.14544,116.838343 162.044541,117.013909 162.044541,117.248 C162.044541,117.457875 162.149476,117.611243 162.359351,117.708108 C162.504649,117.780757 162.708467,117.849369 162.970811,117.913946 C163.233154,117.978523 163.465224,118.043099 163.667027,118.107676 C163.86883,118.172253 164.064576,118.2449 164.25427,118.325622 C164.443965,118.406343 164.647783,118.519351 164.86573,118.664649 C165.301624,118.955245 165.519568,119.407276 165.519568,120.020757 Z" id="School-Renewal-Rates" fill="#FFFFFF"></path>
            </g>
        </g>
    </g>
</svg>