<svg width="922" height="100" viewBox="0 0 922 100" fill="none" xmlns="http://www.w3.org/2000/svg">
<path d="M922 0H0V100H922V0Z" fill="white"/>
<path fill-rule="evenodd" clip-rule="evenodd" d="M0 50H378V0H0V50Z" fill="#E6E7E8"/>
<path fill-rule="evenodd" clip-rule="evenodd" d="M0 100H832V50H0V100Z" fill="#84AFFF"/>
<path d="M20.095 76.452L22.123 69.913H23.501L25.529 76.452L27.817 69.913H29.468L26.296 79H24.775L22.864 72.773H22.76L20.849 79H19.328L16.156 69.913H17.807L20.095 76.452ZM32.133 79H30.677V72.084H32.133V79ZM30.768 70.706C30.586 70.524 30.495 70.3073 30.495 70.056C30.495 69.8047 30.586 69.588 30.768 69.406C30.95 69.224 31.1667 69.133 31.418 69.133C31.6693 69.133 31.886 69.224 32.068 69.406C32.25 69.588 32.341 69.8047 32.341 70.056C32.341 70.3073 32.25 70.524 32.068 70.706C31.886 70.888 31.6693 70.979 31.418 70.979C31.1667 70.979 30.95 70.888 30.768 70.706ZM36.033 73.254V76.764C36.033 77.0933 36.1197 77.3555 36.293 77.5505C36.4663 77.7455 36.709 77.843 37.021 77.843C37.333 77.843 37.632 77.6913 37.918 77.388L38.516 78.415C38.0047 78.8743 37.4392 79.104 36.8195 79.104C36.1998 79.104 35.6712 78.8895 35.2335 78.4605C34.7958 78.0315 34.577 77.453 34.577 76.725V73.254H33.706V72.084H34.577V69.913H36.033V72.084H37.853V73.254H36.033ZM41.129 75.256V79H39.673V69.367H41.129V73.345C41.337 72.9203 41.6512 72.5867 42.0715 72.344C42.4918 72.1013 42.9447 71.98 43.43 71.98C44.21 71.98 44.8405 72.2183 45.3215 72.695C45.8025 73.1717 46.043 73.8607 46.043 74.762V79H44.587V75.204C44.587 73.93 44.0583 73.293 43.001 73.293C42.4983 73.293 42.0607 73.4598 41.688 73.7935C41.3153 74.1272 41.129 74.6147 41.129 75.256ZM51.581 71.278V69.913H56.898V71.109L54.701 73.566C55.533 73.592 56.183 73.8542 56.651 74.3525C57.119 74.8508 57.353 75.4467 57.353 76.14C57.353 77.0673 57.0388 77.7953 56.4105 78.324C55.7822 78.8527 54.974 79.117 53.986 79.117C52.998 79.117 52.0317 78.8007 51.087 78.168L51.737 76.933C52.4823 77.453 53.2623 77.713 54.077 77.713C54.6057 77.713 55.0412 77.5895 55.3835 77.3425C55.7258 77.0955 55.897 76.7402 55.897 76.2765C55.897 75.8128 55.7063 75.4423 55.325 75.165C54.9437 74.8877 54.415 74.749 53.739 74.749C53.401 74.749 53.076 74.7967 52.764 74.892V73.722L54.87 71.278H51.581ZM61.604 74.931C62.2193 74.307 62.657 73.8173 62.917 73.462C63.177 73.1067 63.307 72.747 63.307 72.383C63.307 72.019 63.1683 71.7092 62.891 71.4535C62.6137 71.1978 62.2627 71.07 61.838 71.07C61.0927 71.07 60.473 71.4513 59.979 72.214L58.744 71.499C59.1427 70.901 59.5825 70.4503 60.0635 70.147C60.5445 69.8437 61.1642 69.692 61.9225 69.692C62.6808 69.692 63.346 69.9325 63.918 70.4135C64.49 70.8945 64.776 71.551 64.776 72.383C64.776 72.851 64.6547 73.2973 64.412 73.722C64.1693 74.1467 63.723 74.6927 63.073 75.36L60.941 77.531H65.062V79H58.848V77.7L61.604 74.931ZM66.128 69.913H69.43V79H67.974V71.278H66.128V69.913ZM75.527 69.913H77.061V79H75.527V69.913ZM80.831 75.256V79H79.375V72.084H80.831V73.345C81.065 72.9203 81.3878 72.5867 81.7995 72.344C82.2112 72.1013 82.6553 71.98 83.132 71.98C83.912 71.98 84.5425 72.2183 85.0235 72.695C85.5045 73.1717 85.745 73.8607 85.745 74.762V79H84.289V75.204C84.289 73.93 83.7603 73.293 82.703 73.293C82.2003 73.293 81.7627 73.4598 81.39 73.7935C81.0173 74.1272 80.831 74.6147 80.831 75.256ZM89.567 73.254V76.764C89.567 77.0933 89.6537 77.3555 89.827 77.5505C90.0003 77.7455 90.243 77.843 90.555 77.843C90.867 77.843 91.166 77.6913 91.452 77.388L92.05 78.415C91.5387 78.8743 90.9732 79.104 90.3535 79.104C89.7338 79.104 89.2052 78.8895 88.7675 78.4605C88.3298 78.0315 88.111 77.453 88.111 76.725V73.254H87.24V72.084H88.111V69.913H89.567V72.084H91.387V73.254H89.567ZM99.642 76.179H94.221C94.2557 76.6817 94.4853 77.0868 94.91 77.3945C95.3347 77.7022 95.82 77.856 96.366 77.856C97.2327 77.856 97.8913 77.583 98.342 77.037L99.174 77.947C98.4287 78.7183 97.458 79.104 96.262 79.104C95.2913 79.104 94.4658 78.7812 93.7855 78.1355C93.1052 77.4898 92.765 76.6232 92.765 75.5355C92.765 74.4478 93.1117 73.5833 93.805 72.942C94.4983 72.3007 95.3152 71.98 96.2555 71.98C97.1958 71.98 97.9953 72.2638 98.654 72.8315C99.3127 73.3992 99.642 74.1813 99.642 75.178V76.179ZM94.221 75.035H98.186C98.186 74.4543 98.004 74.008 97.64 73.696C97.276 73.384 96.8275 73.228 96.2945 73.228C95.7615 73.228 95.2827 73.3905 94.858 73.7155C94.4333 74.0405 94.221 74.4803 94.221 75.035ZM104.868 73.449C104.149 73.449 103.607 73.683 103.243 74.151C102.879 74.619 102.697 75.2473 102.697 76.036V79H101.241V72.084H102.697V73.475C102.931 73.0417 103.25 72.6863 103.653 72.409C104.056 72.1317 104.482 71.9887 104.933 71.98L104.946 73.449C104.92 73.449 104.894 73.449 104.868 73.449ZM108.235 79L105.453 72.084H106.961L109.067 77.31L111.173 72.084H112.681L109.899 79H108.235ZM120.273 76.179H114.852C114.887 76.6817 115.116 77.0868 115.541 77.3945C115.966 77.7022 116.451 77.856 116.997 77.856C117.864 77.856 118.522 77.583 118.973 77.037L119.805 77.947C119.06 78.7183 118.089 79.104 116.893 79.104C115.922 79.104 115.097 78.7812 114.417 78.1355C113.736 77.4898 113.396 76.6232 113.396 75.5355C113.396 74.4478 113.743 73.5833 114.436 72.942C115.129 72.3007 115.946 71.98 116.887 71.98C117.827 71.98 118.626 72.2638 119.285 72.8315C119.944 73.3992 120.273 74.1813 120.273 75.178V76.179ZM114.852 75.035H118.817C118.817 74.4543 118.635 74.008 118.271 73.696C117.907 73.384 117.459 73.228 116.926 73.228C116.393 73.228 115.914 73.3905 115.489 73.7155C115.064 74.0405 114.852 74.4803 114.852 75.035ZM123.328 75.256V79H121.872V72.084H123.328V73.345C123.562 72.9203 123.885 72.5867 124.297 72.344C124.708 72.1013 125.152 71.98 125.629 71.98C126.409 71.98 127.04 72.2183 127.521 72.695C128.002 73.1717 128.242 73.8607 128.242 74.762V79H126.786V75.204C126.786 73.93 126.257 73.293 125.2 73.293C124.697 73.293 124.26 73.4598 123.887 73.7935C123.514 74.1272 123.328 74.6147 123.328 75.256ZM132.064 73.254V76.764C132.064 77.0933 132.151 77.3555 132.324 77.5505C132.497 77.7455 132.74 77.843 133.052 77.843C133.364 77.843 133.663 77.6913 133.949 77.388L134.547 78.415C134.036 78.8743 133.47 79.104 132.851 79.104C132.231 79.104 131.702 78.8895 131.265 78.4605C130.827 78.0315 130.608 77.453 130.608 76.725V73.254H129.737V72.084H130.608V69.913H132.064V72.084H133.884V73.254H132.064ZM137.16 79H135.704V72.084H137.16V79ZM135.795 70.706C135.613 70.524 135.522 70.3073 135.522 70.056C135.522 69.8047 135.613 69.588 135.795 69.406C135.977 69.224 136.194 69.133 136.445 69.133C136.696 69.133 136.913 69.224 137.095 69.406C137.277 69.588 137.368 69.8047 137.368 70.056C137.368 70.3073 137.277 70.524 137.095 70.706C136.913 70.888 136.696 70.979 136.445 70.979C136.194 70.979 135.977 70.888 135.795 70.706ZM140.878 77.18C141.294 77.596 141.818 77.804 142.451 77.804C143.084 77.804 143.606 77.5938 144.018 77.1735C144.429 76.7532 144.635 76.2093 144.635 75.542C144.635 74.8747 144.429 74.3308 144.018 73.9105C143.606 73.4902 143.084 73.28 142.451 73.28C141.818 73.28 141.296 73.4902 140.885 73.9105C140.473 74.3308 140.267 74.8747 140.267 75.542C140.267 76.2093 140.471 76.7553 140.878 77.18ZM145.051 78.077C144.358 78.7617 143.491 79.104 142.451 79.104C141.411 79.104 140.544 78.7595 139.851 78.0705C139.158 77.3815 138.811 76.5387 138.811 75.542C138.811 74.5453 139.158 73.7025 139.851 73.0135C140.544 72.3245 141.411 71.98 142.451 71.98C143.491 71.98 144.358 72.3245 145.051 73.0135C145.744 73.7025 146.091 74.5453 146.091 75.542C146.091 76.5387 145.744 77.3837 145.051 78.077ZM149.198 75.256V79H147.742V72.084H149.198V73.345C149.432 72.9203 149.755 72.5867 150.167 72.344C150.578 72.1013 151.022 71.98 151.499 71.98C152.279 71.98 152.91 72.2183 153.391 72.695C153.872 73.1717 154.112 73.8607 154.112 74.762V79H152.656V75.204C152.656 73.93 152.127 73.293 151.07 73.293C150.567 73.293 150.13 73.4598 149.757 73.7935C149.384 74.1272 149.198 74.6147 149.198 75.256ZM161.262 71.837C160.915 72.9117 160.742 73.9473 160.742 74.944C160.742 75.9407 160.915 76.9785 161.262 78.0575C161.609 79.1365 162.033 80.027 162.536 80.729H160.989C160.564 80.1397 160.177 79.299 159.826 78.207C159.474 77.115 159.299 76.0273 159.299 74.944C159.299 73.8607 159.474 72.773 159.826 71.681C160.177 70.589 160.564 69.7483 160.989 69.159H162.536C162.033 69.861 161.609 70.7537 161.262 71.837ZM163.342 69.913H166.644V79H165.188V71.278H163.342V69.913ZM176.316 79H174.756V75.412L171.376 69.913H173.053L175.536 74.047L178.019 69.913H179.696L176.316 75.412V79ZM187.08 76.179H181.659C181.694 76.6817 181.923 77.0868 182.348 77.3945C182.773 77.7022 183.258 77.856 183.804 77.856C184.671 77.856 185.329 77.583 185.78 77.037L186.612 77.947C185.867 78.7183 184.896 79.104 183.7 79.104C182.729 79.104 181.904 78.7812 181.223 78.1355C180.543 77.4898 180.203 76.6232 180.203 75.5355C180.203 74.4478 180.55 73.5833 181.243 72.942C181.936 72.3007 182.753 71.98 183.693 71.98C184.634 71.98 185.433 72.2638 186.092 72.8315C186.751 73.3992 187.08 74.1813 187.08 75.178V76.179ZM181.659 75.035H185.624C185.624 74.4543 185.442 74.008 185.078 73.696C184.714 73.384 184.266 73.228 183.732 73.228C183.199 73.228 182.721 73.3905 182.296 73.7155C181.871 74.0405 181.659 74.4803 181.659 75.035ZM194.282 79H192.956V78.077C192.384 78.7617 191.617 79.104 190.655 79.104C189.936 79.104 189.34 78.9003 188.867 78.493C188.395 78.0857 188.159 77.5418 188.159 76.8615C188.159 76.1812 188.41 75.672 188.913 75.334C189.416 74.996 190.096 74.827 190.954 74.827H192.839V74.567C192.839 73.6483 192.328 73.189 191.305 73.189C190.664 73.189 189.996 73.423 189.303 73.891L188.653 72.981C189.494 72.3137 190.447 71.98 191.513 71.98C192.328 71.98 192.993 72.1858 193.508 72.5975C194.024 73.0092 194.282 73.657 194.282 74.541V79ZM192.826 76.426V75.841H191.188C190.139 75.841 189.615 76.1703 189.615 76.829C189.615 77.167 189.745 77.4248 190.005 77.6025C190.265 77.7802 190.627 77.869 191.09 77.869C191.554 77.869 191.959 77.739 192.306 77.479C192.653 77.219 192.826 76.868 192.826 76.426ZM199.937 73.449C199.218 73.449 198.676 73.683 198.312 74.151C197.948 74.619 197.766 75.2473 197.766 76.036V79H196.31V72.084H197.766V73.475C198 73.0417 198.318 72.6863 198.721 72.409C199.124 72.1317 199.551 71.9887 200.002 71.98L200.015 73.449C199.989 73.449 199.963 73.449 199.937 73.449ZM202.121 78.064C202.468 76.9807 202.641 75.9407 202.641 74.944C202.641 73.9473 202.468 72.9095 202.121 71.8305C201.774 70.7515 201.35 69.861 200.847 69.159H202.394C202.819 69.7483 203.206 70.589 203.557 71.681C203.908 72.773 204.084 73.8607 204.084 74.944C204.084 76.0273 203.908 77.115 203.557 78.207C203.206 79.299 202.819 80.1397 202.394 80.729H200.847C201.35 80.027 201.774 79.1387 202.121 78.064Z" fill="black"/>
<path d="M20.095 26.452L22.123 19.913H23.501L25.529 26.452L27.817 19.913H29.468L26.296 29H24.775L22.864 22.773H22.76L20.849 29H19.328L16.156 19.913H17.807L20.095 26.452ZM32.133 29H30.677V22.084H32.133V29ZM30.768 20.706C30.586 20.524 30.495 20.3073 30.495 20.056C30.495 19.8047 30.586 19.588 30.768 19.406C30.95 19.224 31.1667 19.133 31.418 19.133C31.6693 19.133 31.886 19.224 32.068 19.406C32.25 19.588 32.341 19.8047 32.341 20.056C32.341 20.3073 32.25 20.524 32.068 20.706C31.886 20.888 31.6693 20.979 31.418 20.979C31.1667 20.979 30.95 20.888 30.768 20.706ZM36.033 23.254V26.764C36.033 27.0933 36.1197 27.3555 36.293 27.5505C36.4663 27.7455 36.709 27.843 37.021 27.843C37.333 27.843 37.632 27.6913 37.918 27.388L38.516 28.415C38.0047 28.8743 37.4392 29.104 36.8195 29.104C36.1998 29.104 35.6712 28.8895 35.2335 28.4605C34.7958 28.0315 34.577 27.453 34.577 26.725V23.254H33.706V22.084H34.577V19.913H36.033V22.084H37.853V23.254H36.033ZM41.129 25.256V29H39.673V19.367H41.129V23.345C41.337 22.9203 41.6512 22.5867 42.0715 22.344C42.4918 22.1013 42.9447 21.98 43.43 21.98C44.21 21.98 44.8405 22.2183 45.3215 22.695C45.8025 23.1717 46.043 23.8607 46.043 24.762V29H44.587V25.204C44.587 23.93 44.0583 23.293 43.001 23.293C42.4983 23.293 42.0607 23.4598 41.688 23.7935C41.3153 24.1272 41.129 24.6147 41.129 25.256ZM49.683 27.18C50.099 27.596 50.6233 27.804 51.256 27.804C51.8887 27.804 52.4108 27.5938 52.8225 27.1735C53.2342 26.7532 53.44 26.2093 53.44 25.542C53.44 24.8747 53.2342 24.3308 52.8225 23.9105C52.4108 23.4902 51.8887 23.28 51.256 23.28C50.6233 23.28 50.1012 23.4902 49.6895 23.9105C49.2778 24.3308 49.072 24.8747 49.072 25.542C49.072 26.2093 49.2757 26.7553 49.683 27.18ZM53.856 28.077C53.1627 28.7617 52.296 29.104 51.256 29.104C50.216 29.104 49.3493 28.7595 48.656 28.0705C47.9627 27.3815 47.616 26.5387 47.616 25.542C47.616 24.5453 47.9627 23.7025 48.656 23.0135C49.3493 22.3245 50.216 21.98 51.256 21.98C52.296 21.98 53.1627 22.3245 53.856 23.0135C54.5493 23.7025 54.896 24.5453 54.896 25.542C54.896 26.5387 54.5493 27.3837 53.856 28.077ZM61.383 25.828V22.084H62.839V29H61.383V27.739C61.149 28.1637 60.8262 28.4973 60.4145 28.74C60.0028 28.9827 59.5587 29.104 59.082 29.104C58.302 29.104 57.6715 28.8657 57.1905 28.389C56.7095 27.9123 56.469 27.2233 56.469 26.322V22.084H57.925V25.88C57.925 27.154 58.4537 27.791 59.511 27.791C60.0137 27.791 60.4513 27.6242 60.824 27.2905C61.1967 26.9568 61.383 26.4693 61.383 25.828ZM66.739 23.254V26.764C66.739 27.0933 66.8257 27.3555 66.999 27.5505C67.1723 27.7455 67.415 27.843 67.727 27.843C68.039 27.843 68.338 27.6913 68.624 27.388L69.222 28.415C68.7107 28.8743 68.1452 29.104 67.5255 29.104C66.9058 29.104 66.3772 28.8895 65.9395 28.4605C65.5018 28.0315 65.283 27.453 65.283 26.725V23.254H64.412V22.084H65.283V19.913H66.739V22.084H68.559V23.254H66.739ZM73.889 21.278V19.913H79.206V21.109L77.009 23.566C77.841 23.592 78.491 23.8542 78.959 24.3525C79.427 24.8508 79.661 25.4467 79.661 26.14C79.661 27.0673 79.3468 27.7953 78.7185 28.324C78.0902 28.8527 77.282 29.117 76.294 29.117C75.306 29.117 74.3397 28.8007 73.395 28.168L74.045 26.933C74.7903 27.453 75.5703 27.713 76.385 27.713C76.9137 27.713 77.3492 27.5895 77.6915 27.3425C78.0338 27.0955 78.205 26.7402 78.205 26.2765C78.205 25.8128 78.0143 25.4423 77.633 25.165C77.2517 24.8877 76.723 24.749 76.047 24.749C75.709 24.749 75.384 24.7967 75.072 24.892V23.722L77.178 21.278H73.889ZM83.912 24.931C84.5273 24.307 84.965 23.8173 85.225 23.462C85.485 23.1067 85.615 22.747 85.615 22.383C85.615 22.019 85.4763 21.7092 85.199 21.4535C84.9217 21.1978 84.5707 21.07 84.146 21.07C83.4007 21.07 82.781 21.4513 82.287 22.214L81.052 21.499C81.4507 20.901 81.8905 20.4503 82.3715 20.147C82.8525 19.8437 83.4722 19.692 84.2305 19.692C84.9888 19.692 85.654 19.9325 86.226 20.4135C86.798 20.8945 87.084 21.551 87.084 22.383C87.084 22.851 86.9627 23.2973 86.72 23.722C86.4773 24.1467 86.031 24.6927 85.381 25.36L83.249 27.531H87.37V29H81.156V27.7L83.912 24.931ZM88.436 19.913H91.738V29H90.282V21.278H88.436V19.913ZM97.835 19.913H99.369V29H97.835V19.913ZM103.139 25.256V29H101.683V22.084H103.139V23.345C103.373 22.9203 103.696 22.5867 104.108 22.344C104.519 22.1013 104.963 21.98 105.44 21.98C106.22 21.98 106.851 22.2183 107.332 22.695C107.813 23.1717 108.053 23.8607 108.053 24.762V29H106.597V25.204C106.597 23.93 106.068 23.293 105.011 23.293C104.508 23.293 104.071 23.4598 103.698 23.7935C103.325 24.1272 103.139 24.6147 103.139 25.256ZM111.875 23.254V26.764C111.875 27.0933 111.962 27.3555 112.135 27.5505C112.308 27.7455 112.551 27.843 112.863 27.843C113.175 27.843 113.474 27.6913 113.76 27.388L114.358 28.415C113.847 28.8743 113.281 29.104 112.662 29.104C112.042 29.104 111.513 28.8895 111.076 28.4605C110.638 28.0315 110.419 27.453 110.419 26.725V23.254H109.548V22.084H110.419V19.913H111.875V22.084H113.695V23.254H111.875ZM121.95 26.179H116.529C116.564 26.6817 116.793 27.0868 117.218 27.3945C117.643 27.7022 118.128 27.856 118.674 27.856C119.541 27.856 120.199 27.583 120.65 27.037L121.482 27.947C120.737 28.7183 119.766 29.104 118.57 29.104C117.599 29.104 116.774 28.7812 116.094 28.1355C115.413 27.4898 115.073 26.6232 115.073 25.5355C115.073 24.4478 115.42 23.5833 116.113 22.942C116.806 22.3007 117.623 21.98 118.564 21.98C119.504 21.98 120.303 22.2638 120.962 22.8315C121.621 23.3992 121.95 24.1813 121.95 25.178V26.179ZM116.529 25.035H120.494C120.494 24.4543 120.312 24.008 119.948 23.696C119.584 23.384 119.136 23.228 118.603 23.228C118.07 23.228 117.591 23.3905 117.166 23.7155C116.741 24.0405 116.529 24.4803 116.529 25.035ZM127.176 23.449C126.457 23.449 125.915 23.683 125.551 24.151C125.187 24.619 125.005 25.2473 125.005 26.036V29H123.549V22.084H125.005V23.475C125.239 23.0417 125.558 22.6863 125.961 22.409C126.364 22.1317 126.79 21.9887 127.241 21.98L127.254 23.449C127.228 23.449 127.202 23.449 127.176 23.449ZM130.543 29L127.761 22.084H129.269L131.375 27.31L133.481 22.084H134.989L132.207 29H130.543ZM142.581 26.179H137.16C137.195 26.6817 137.424 27.0868 137.849 27.3945C138.274 27.7022 138.759 27.856 139.305 27.856C140.172 27.856 140.83 27.583 141.281 27.037L142.113 27.947C141.368 28.7183 140.397 29.104 139.201 29.104C138.23 29.104 137.405 28.7812 136.725 28.1355C136.044 27.4898 135.704 26.6232 135.704 25.5355C135.704 24.4478 136.051 23.5833 136.744 22.942C137.437 22.3007 138.254 21.98 139.195 21.98C140.135 21.98 140.934 22.2638 141.593 22.8315C142.252 23.3992 142.581 24.1813 142.581 25.178V26.179ZM137.16 25.035H141.125C141.125 24.4543 140.943 24.008 140.579 23.696C140.215 23.384 139.767 23.228 139.234 23.228C138.701 23.228 138.222 23.3905 137.797 23.7155C137.372 24.0405 137.16 24.4803 137.16 25.035ZM145.636 25.256V29H144.18V22.084H145.636V23.345C145.87 22.9203 146.193 22.5867 146.605 22.344C147.016 22.1013 147.46 21.98 147.937 21.98C148.717 21.98 149.348 22.2183 149.829 22.695C150.31 23.1717 150.55 23.8607 150.55 24.762V29H149.094V25.204C149.094 23.93 148.565 23.293 147.508 23.293C147.005 23.293 146.568 23.4598 146.195 23.7935C145.822 24.1272 145.636 24.6147 145.636 25.256ZM154.372 23.254V26.764C154.372 27.0933 154.459 27.3555 154.632 27.5505C154.805 27.7455 155.048 27.843 155.36 27.843C155.672 27.843 155.971 27.6913 156.257 27.388L156.855 28.415C156.344 28.8743 155.778 29.104 155.158 29.104C154.539 29.104 154.01 28.8895 153.572 28.4605C153.135 28.0315 152.916 27.453 152.916 26.725V23.254H152.045V22.084H152.916V19.913H154.372V22.084H156.192V23.254H154.372ZM159.468 29H158.012V22.084H159.468V29ZM158.103 20.706C157.921 20.524 157.83 20.3073 157.83 20.056C157.83 19.8047 157.921 19.588 158.103 19.406C158.285 19.224 158.502 19.133 158.753 19.133C159.004 19.133 159.221 19.224 159.403 19.406C159.585 19.588 159.676 19.8047 159.676 20.056C159.676 20.3073 159.585 20.524 159.403 20.706C159.221 20.888 159.004 20.979 158.753 20.979C158.502 20.979 158.285 20.888 158.103 20.706ZM163.186 27.18C163.602 27.596 164.126 27.804 164.759 27.804C165.392 27.804 165.914 27.5938 166.326 27.1735C166.737 26.7532 166.943 26.2093 166.943 25.542C166.943 24.8747 166.737 24.3308 166.326 23.9105C165.914 23.4902 165.392 23.28 164.759 23.28C164.126 23.28 163.604 23.4902 163.193 23.9105C162.781 24.3308 162.575 24.8747 162.575 25.542C162.575 26.2093 162.779 26.7553 163.186 27.18ZM167.359 28.077C166.666 28.7617 165.799 29.104 164.759 29.104C163.719 29.104 162.852 28.7595 162.159 28.0705C161.466 27.3815 161.119 26.5387 161.119 25.542C161.119 24.5453 161.466 23.7025 162.159 23.0135C162.852 22.3245 163.719 21.98 164.759 21.98C165.799 21.98 166.666 22.3245 167.359 23.0135C168.052 23.7025 168.399 24.5453 168.399 25.542C168.399 26.5387 168.052 27.3837 167.359 28.077ZM171.506 25.256V29H170.05V22.084H171.506V23.345C171.74 22.9203 172.063 22.5867 172.475 22.344C172.886 22.1013 173.33 21.98 173.807 21.98C174.587 21.98 175.217 22.2183 175.699 22.695C176.18 23.1717 176.42 23.8607 176.42 24.762V29H174.964V25.204C174.964 23.93 174.435 23.293 173.378 23.293C172.875 23.293 172.438 23.4598 172.065 23.7935C171.692 24.1272 171.506 24.6147 171.506 25.256Z" fill="black"/>
<path d="M864.678 65.8V69.024L858.256 84H852.64L858.776 69.882H853.992V72.69H849.598V65.8H864.678Z" fill="#84AFFF"/>
<path d="M879.01 74.406C879.842 74.8913 880.483 75.4893 880.934 76.2C881.384 76.9107 881.61 77.7253 881.61 78.644C881.61 79.788 881.28 80.7933 880.622 81.66C879.963 82.5267 879.036 83.194 877.84 83.662C876.644 84.13 875.266 84.364 873.706 84.364C872.146 84.364 870.768 84.13 869.572 83.662C868.376 83.194 867.448 82.5267 866.79 81.66C866.131 80.7933 865.802 79.788 865.802 78.644C865.802 77.7253 866.027 76.9107 866.478 76.2C866.928 75.4893 867.57 74.8913 868.402 74.406C867.778 73.9727 867.292 73.444 866.946 72.82C866.616 72.196 866.452 71.5027 866.452 70.74C866.452 69.6827 866.755 68.7553 867.362 67.958C867.968 67.1433 868.818 66.5193 869.91 66.086C871.019 65.6527 872.284 65.436 873.706 65.436C875.127 65.436 876.384 65.6527 877.476 66.086C878.585 66.5193 879.443 67.1433 880.05 67.958C880.656 68.7553 880.96 69.6827 880.96 70.74C880.96 71.5027 880.786 72.196 880.44 72.82C880.11 73.444 879.634 73.9727 879.01 74.406ZM873.706 69.05C873.064 69.05 872.544 69.2233 872.146 69.57C871.747 69.8993 871.548 70.3673 871.548 70.974C871.548 71.5633 871.738 72.0313 872.12 72.378C872.518 72.7073 873.047 72.872 873.706 72.872C874.364 72.872 874.893 72.7073 875.292 72.378C875.69 72.0313 875.89 71.5633 875.89 70.974C875.89 70.3673 875.69 69.8993 875.292 69.57C874.893 69.2233 874.364 69.05 873.706 69.05ZM873.706 80.75C874.538 80.75 875.196 80.5507 875.682 80.152C876.184 79.736 876.436 79.1813 876.436 78.488C876.436 77.7947 876.184 77.2487 875.682 76.85C875.196 76.434 874.538 76.226 873.706 76.226C872.874 76.226 872.206 76.434 871.704 76.85C871.218 77.2487 870.976 77.7947 870.976 78.488C870.976 79.1813 871.218 79.736 871.704 80.152C872.206 80.5507 872.874 80.75 873.706 80.75Z" fill="#84AFFF"/>
<path d="M887.386 75.654C886.017 75.654 884.899 75.2033 884.032 74.302C883.166 73.4007 882.732 72.17 882.732 70.61C882.732 69.5873 882.932 68.6947 883.33 67.932C883.729 67.1693 884.275 66.5887 884.968 66.19C885.679 65.774 886.485 65.566 887.386 65.566C888.773 65.566 889.9 66.0253 890.766 66.944C891.633 67.8453 892.066 69.0673 892.066 70.61C892.066 72.17 891.633 73.4007 890.766 74.302C889.9 75.2033 888.773 75.654 887.386 75.654ZM898.15 65.8H901.894L889.466 84H885.722L898.15 65.8ZM887.386 73.184C887.854 73.184 888.227 72.976 888.504 72.56C888.782 72.144 888.92 71.494 888.92 70.61C888.92 69.726 888.782 69.076 888.504 68.66C888.227 68.244 887.854 68.036 887.386 68.036C886.936 68.036 886.563 68.2527 886.268 68.686C885.991 69.102 885.852 69.7433 885.852 70.61C885.852 71.4767 885.991 72.1267 886.268 72.56C886.563 72.976 886.936 73.184 887.386 73.184ZM900.23 84.234C898.844 84.234 897.717 83.7833 896.85 82.882C896.001 81.9807 895.576 80.75 895.576 79.19C895.576 77.6473 896.01 76.4253 896.876 75.524C897.743 74.6053 898.861 74.146 900.23 74.146C901.617 74.146 902.744 74.6053 903.61 75.524C904.477 76.4253 904.91 77.6473 904.91 79.19C904.91 80.75 904.477 81.9807 903.61 82.882C902.744 83.7833 901.617 84.234 900.23 84.234ZM900.23 81.764C900.698 81.764 901.071 81.556 901.348 81.14C901.626 80.724 901.764 80.074 901.764 79.19C901.764 78.306 901.626 77.656 901.348 77.24C901.071 76.824 900.698 76.616 900.23 76.616C899.762 76.616 899.39 76.824 899.112 77.24C898.835 77.656 898.696 78.306 898.696 79.19C898.696 80.074 898.835 80.724 899.112 81.14C899.39 81.556 899.762 81.764 900.23 81.764Z" fill="#84AFFF"/>
<path d="M406.95 31.918V36H392.78V32.776L399.592 26.406C400.251 25.782 400.693 25.2533 400.918 24.82C401.143 24.3693 401.256 23.9187 401.256 23.468C401.256 22.8787 401.057 22.4193 400.658 22.09C400.259 21.7607 399.679 21.596 398.916 21.596C398.24 21.596 397.616 21.752 397.044 22.064C396.489 22.3587 396.03 22.792 395.666 23.364L391.844 21.232C392.555 20.0533 393.551 19.126 394.834 18.45C396.117 17.774 397.633 17.436 399.384 17.436C400.771 17.436 401.993 17.6613 403.05 18.112C404.125 18.5627 404.957 19.2127 405.546 20.062C406.153 20.894 406.456 21.8647 406.456 22.974C406.456 23.962 406.239 24.898 405.806 25.782C405.39 26.6487 404.575 27.6367 403.362 28.746L399.93 31.918H406.95Z" fill="#BDBDBD"/>
<path d="M417.731 24.404C418.875 24.404 419.924 24.6467 420.877 25.132C421.83 25.6 422.584 26.276 423.139 27.16C423.711 28.0267 423.997 29.0233 423.997 30.15C423.997 31.3807 423.676 32.4727 423.035 33.426C422.411 34.362 421.553 35.09 420.461 35.61C419.386 36.1127 418.182 36.364 416.847 36.364C414.247 36.364 412.193 35.5927 410.685 34.05C409.177 32.5073 408.423 30.2887 408.423 27.394C408.423 25.314 408.822 23.5287 409.619 22.038C410.434 20.53 411.569 19.386 413.025 18.606C414.481 17.826 416.171 17.436 418.095 17.436C419.135 17.436 420.123 17.5487 421.059 17.774C421.995 17.9993 422.792 18.3287 423.451 18.762L421.579 22.454C420.695 21.83 419.577 21.518 418.225 21.518C416.908 21.518 415.842 21.882 415.027 22.61C414.212 23.338 413.744 24.3867 413.623 25.756C414.663 24.8547 416.032 24.404 417.731 24.404ZM416.535 32.698C417.263 32.698 417.852 32.49 418.303 32.074C418.771 31.658 419.005 31.0947 419.005 30.384C419.005 29.6907 418.771 29.136 418.303 28.72C417.852 28.304 417.254 28.096 416.509 28.096C415.764 28.096 415.157 28.3127 414.689 28.746C414.221 29.162 413.987 29.7167 413.987 30.41C413.987 31.086 414.212 31.6407 414.663 32.074C415.131 32.49 415.755 32.698 416.535 32.698Z" fill="#BDBDBD"/>
<path d="M429.142 27.654C427.773 27.654 426.655 27.2033 425.788 26.302C424.921 25.4007 424.488 24.17 424.488 22.61C424.488 21.5873 424.687 20.6947 425.086 19.932C425.485 19.1693 426.031 18.5887 426.724 18.19C427.435 17.774 428.241 17.566 429.142 17.566C430.529 17.566 431.655 18.0253 432.522 18.944C433.389 19.8453 433.822 21.0673 433.822 22.61C433.822 24.17 433.389 25.4007 432.522 26.302C431.655 27.2033 430.529 27.654 429.142 27.654ZM439.906 17.8H443.65L431.222 36H427.478L439.906 17.8ZM429.142 25.184C429.61 25.184 429.983 24.976 430.26 24.56C430.537 24.144 430.676 23.494 430.676 22.61C430.676 21.726 430.537 21.076 430.26 20.66C429.983 20.244 429.61 20.036 429.142 20.036C428.691 20.036 428.319 20.2527 428.024 20.686C427.747 21.102 427.608 21.7433 427.608 22.61C427.608 23.4767 427.747 24.1267 428.024 24.56C428.319 24.976 428.691 25.184 429.142 25.184ZM441.986 36.234C440.599 36.234 439.473 35.7833 438.606 34.882C437.757 33.9807 437.332 32.75 437.332 31.19C437.332 29.6473 437.765 28.4253 438.632 27.524C439.499 26.6053 440.617 26.146 441.986 26.146C443.373 26.146 444.499 26.6053 445.366 27.524C446.233 28.4253 446.666 29.6473 446.666 31.19C446.666 32.75 446.233 33.9807 445.366 34.882C444.499 35.7833 443.373 36.234 441.986 36.234ZM441.986 33.764C442.454 33.764 442.827 33.556 443.104 33.14C443.381 32.724 443.52 32.074 443.52 31.19C443.52 30.306 443.381 29.656 443.104 29.24C442.827 28.824 442.454 28.616 441.986 28.616C441.518 28.616 441.145 28.824 440.868 29.24C440.591 29.656 440.452 30.306 440.452 31.19C440.452 32.074 440.591 32.724 440.868 33.14C441.145 33.556 441.518 33.764 441.986 33.764Z" fill="#BDBDBD"/>
</svg>
