<?xml version="1.0" encoding="UTF-8"?>
<svg width="299px" height="406px" viewBox="0 0 299 406" version="1.1" xmlns="http://www.w3.org/2000/svg" xmlns:xlink="http://www.w3.org/1999/xlink">
    <!-- Generator: Sketch 52.3 (67297) - http://www.bohemiancoding.com/sketch -->
    <title>Group 4</title>
    <desc>Created with Sketch.</desc>
    <defs>
        <path d="M28.9681045,1.11670564e-11 L29.6516044,1.11670564e-11 C31.5233585,0.0910320035 33.3297677,0.926947416 34.6922358,2.37380628 L39,2.76246247 L39,2.7658744 L36.8587747,6.77353342 C37.3841778,9.92496589 36.1463212,13.1787176 33.5826865,15.0204638 C33.8105093,15.675307 33.9915696,16.3710778 34.0849015,17.1077763 C34.5229629,20.6684857 33.0688775,24.0040928 30.5811838,26.0300136 L30.592971,26.0709413 L30.2776133,26.255116 C29.8805175,26.5620737 29.4600405,26.8281037 29.0163753,27.053206 L0,45 L11.7314063,23.9631651 L0,9.37244202 L19.8657822,9.37244202 L22.4527982,4.7271487 C22.6746307,4.21555252 22.9374289,3.72442019 23.2527867,3.27421555 L23.3579059,3.09004093 L23.3637029,3.11050477 C24.0002155,2.23055935 24.8060011,1.49386085 25.7694655,0.941336971 C26.793907,0.358055574 27.8842273,0.052804652 28.9681096,0 L28.9681045,1.11670564e-11 Z M29.8629332,3.25375171 C29.2206236,3.62210095 28.9754097,4.48158254 29.3141488,5.17735334 C29.6526947,5.87312415 30.4586735,6.13915416 31.1009831,5.77080491 C31.7550799,5.40245566 32.0002938,4.54297408 31.6557577,3.84720327 C31.3170186,3.15143247 30.5112331,2.88540246 29.8629332,3.25375171 Z" id="path-1"></path>
        <path d="M17.0837539,6.70023382e-12 L17.4868436,6.70023382e-12 C18.5906986,0.0546192021 19.6560169,0.55616845 20.4595237,1.42428377 L23,1.65747748 L23,1.65952464 L21.7372261,4.06412005 C22.0470792,5.95497954 21.3170612,7.90723056 19.8051741,9.01227831 C19.9395312,9.40518417 20.0463102,9.82264666 20.1013522,10.2646658 C20.3596961,12.4010914 19.5021585,14.4024557 18.0350571,15.6180082 L18.0420086,15.6425648 L17.8560283,15.7530696 C17.6218437,15.9372442 17.37387,16.0968622 17.1122214,16.2319236 L0,27 L6.91852167,14.377899 L0,5.62346521 L11.7157177,5.62346521 L13.2413938,2.83628922 C13.3722181,2.52933151 13.5272016,2.23465211 13.7131819,1.96452933 L13.7751753,1.85402456 L13.778594,1.86630286 C14.1539733,1.33833561 14.6291801,0.896316508 15.1973771,0.564802183 C15.8015349,0.214833344 16.4445443,0.0316827912 17.0837569,0 L17.0837539,6.70023382e-12 Z M17.6114734,1.95225102 C17.2326755,2.17326057 17.0880622,2.68894952 17.2878314,3.10641201 C17.4874866,3.52387449 17.9628074,3.6834925 18.3416054,3.46248295 C18.7273548,3.2414734 18.8719681,2.72578445 18.6687802,2.30832196 C18.469011,1.89085948 17.9938041,1.73124147 17.6114734,1.95225102 Z" id="path-3"></path>
        <path d="M77.9910505,2.95306602e-11 L79.8312427,2.95306602e-11 C84.8705805,0.240729076 89.7339901,2.45126095 93.4021733,6.27739882 L105,7.30517852 L105,7.31420118 L99.2351627,17.9122328 C100.649709,26.2460209 97.3170186,34.8503865 90.4149253,39.7207822 C91.0282944,41.4524784 91.5157642,43.2924056 91.7670426,45.2405639 C92.9464385,54.6566621 89.0315933,63.4774898 82.3339563,68.834925 L82.3656913,68.943156 L81.5166511,69.4301955 C80.4475471,70.2419281 79.3154935,70.9454297 78.1210105,71.5407003 L0,119 L31.5845555,63.3692588 L0,24.7849022 L53.4847982,24.7849022 L60.4498412,12.5006821 C61.0470827,11.1477945 61.7546162,9.84902228 62.6036564,8.65848113 L62.8866698,8.17144156 L62.9022771,8.22555707 C64.6159649,5.89859027 66.7853875,3.95043201 69.3793301,2.48931332 C72.137442,0.946858074 75.0729196,0.139638969 77.9910643,0 L77.9910505,2.95306602e-11 Z M80.4002048,8.60436562 C78.6709097,9.57844475 78.0107185,11.851296 78.9227084,13.6912233 C79.834178,15.5311505 82.0041208,16.2346521 83.7334159,15.260573 C85.494446,14.2864939 86.1546372,12.0136426 85.22704,10.1737153 C84.3150501,8.33378809 82.1456275,7.63028649 80.4002048,8.60436562 Z" id="path-5"></path>
    </defs>
    <g id="Page-1" stroke="none" stroke-width="1" fill="none" fill-rule="evenodd">
        <g id="iPhone-8" transform="translate(-18.000000, -704.000000)">
            <g id="Group-4" transform="translate(18.000000, 704.000000)">
                <g id="Group-3-Copy-12" transform="translate(260.000000, 57.000000)">
                    <mask id="mask-2" fill="white">
                        <use xlink:href="#path-1"></use>
                    </mask>
                    <g id="Clip-396"></g>
                    <polygon id="Fill-395" fill="#FED445" mask="url(#mask-2)" points="-9 55 50 55 50 -10 -9 -10"></polygon>
                </g>
                <g id="Group-3-Copy-13" transform="translate(163.000000, 0.000000)">
                    <mask id="mask-4" fill="white">
                        <use xlink:href="#path-3"></use>
                    </mask>
                    <g id="Clip-396"></g>
                    <polygon id="Fill-395" fill="#FED445" mask="url(#mask-4)" points="-5 33 30 33 30 -6 -5 -6"></polygon>
                </g>
                <g id="Group-3-Copy-11" transform="translate(0.000000, 287.000000)">
                    <mask id="mask-6" fill="white">
                        <use xlink:href="#path-5"></use>
                    </mask>
                    <g id="Clip-396"></g>
                    <polygon id="Fill-395" fill="#FED445" mask="url(#mask-6)" points="-26 147 134 147 134 -26 -26 -26"></polygon>
                </g>
            </g>
        </g>
    </g>
</svg>