<?xml version="1.0" encoding="UTF-8"?>
<svg width="900px" height="855px" viewBox="0 0 900 855" version="1.1" xmlns="http://www.w3.org/2000/svg" xmlns:xlink="http://www.w3.org/1999/xlink">
    <!-- Generator: Sketch 52.4 (67378) - http://www.bohemiancoding.com/sketch -->
    <title>tablet-landing-birds-2</title>
    <desc>Created with Sketch.</desc>
    <defs>
        <rect id="path-1" x="0" y="0" width="900" height="855"></rect>
        <path d="M63.1356123,2.35748968e-11 L64.6252917,2.35748968e-11 C68.7047556,0.192178674 72.6418015,1.95688899 75.6112832,5.0113688 L85,5.83186521 L85,5.83906817 L80.333227,14.2996817 C81.4783362,20.9527058 78.7804436,27.8217372 73.1930348,31.7098681 C73.6895717,33.0923147 74.08419,34.5611642 74.2876059,36.1164166 C75.242355,43.6334698 72.0731945,50.675307 66.651298,54.952251 L66.6769882,55.0386539 L65.9896699,55.427467 C65.1242048,56.0754889 64.2077805,56.6371078 63.240818,57.1123238 L0,95 L25.5684497,50.588904 L0,19.7862665 L43.2972176,19.7862665 L48.9355857,9.97953615 C49.4190669,8.89949977 49.9918322,7.86266485 50.6791504,6.91223283 L50.9082565,6.52341974 L50.920891,6.56662119 C52.3081621,4.70895862 54.0643613,3.15370623 56.1642196,1.98726694 C58.3969769,0.755895101 60.7733159,0.111476488 63.1356234,0 L63.1356123,2.35748968e-11 Z M65.0858801,6.86903138 C63.6859745,7.64665757 63.1515341,9.46111869 63.8898116,10.9299682 C64.6276679,12.3988176 66.3842883,12.9604366 67.7841939,12.1828104 C69.2097896,11.4051842 69.7442301,9.59072306 68.9933181,8.12187358 C68.2550406,6.6530241 66.4988413,6.09140518 65.0858801,6.86903138 Z" id="path-3"></path>
        <path d="M146.326066,5.5587125e-11 L149.778617,5.5587125e-11 C159.233375,0.453137084 168.358058,4.61413825 175.240268,11.8162801 L197,13.7509243 L197,13.7679081 L186.184067,33.7171442 C188.838026,49.4042747 182.585263,65.6007276 169.635622,74.7685312 C170.786419,78.0281946 171.701005,81.4915871 172.172451,85.1587085 C174.385223,102.883129 167.040227,119.48704 154.474185,129.571623 L154.533726,129.775352 L152.940764,130.692133 C150.934922,132.2201 148.810974,133.544338 146.569896,134.664848 L0,224 L59.2586421,119.283311 L0,46.6539336 L100.347669,46.6539336 L113.415416,23.5306958 C114.535955,20.9840837 115.863423,18.5393361 117.456384,16.2983174 L117.987371,15.3815371 L118.016653,15.4834015 C121.231858,11.1032287 125.302108,7.43610732 130.168838,4.68576626 C135.343582,1.78232108 140.851097,0.262849823 146.326092,0 L146.326066,5.5587125e-11 Z M150.846099,16.1964529 C147.601612,18.0300136 146.362967,22.308322 148.074034,25.7717144 C149.784124,29.2351069 153.855351,30.5593452 157.099838,28.7257844 C160.403865,26.8922237 161.64251,22.6139154 159.902161,19.150523 C158.191094,15.6871305 154.120844,14.3628922 150.846099,16.1964529 Z" id="path-5"></path>
        <path d="M71.3061033,2.70490921e-11 L72.9885648,2.70490921e-11 C77.5959593,0.220499742 82.0425052,2.24527263 85.3962728,5.74988631 L96,6.69129797 L96,6.69956243 L90.7292916,16.4070032 C92.0225915,24.0404729 88.9755599,31.9217826 82.6650746,36.3829013 C83.2258692,37.9690769 83.6715558,39.6543884 83.9012961,41.4388358 C84.9796009,50.0636653 81.4003138,58.1432469 75.2767601,63.0504775 L75.3057749,63.1496135 L74.5295095,63.5957253 C73.5520431,64.3392451 72.5170227,64.9836289 71.4249239,65.5288768 L0,109 L28.8773078,58.044111 L0,22.7021373 L48.9003869,22.7021373 L55.2684262,11.4502046 C55.8144756,10.211005 56.4613634,9.02137335 57.2376287,7.93087767 L57.4963838,7.4847658 L57.5106534,7.53433379 C59.0774536,5.40291041 61.0609257,3.61846294 63.4325304,2.28012733 C65.9542327,0.867290168 68.6380979,0.127904602 71.3061159,0 L71.3061033,2.70490921e-11 Z M73.5087587,7.88130969 C71.9276889,8.77353342 71.3240855,10.8553888 72.1579048,12.5407003 C72.9912485,14.2260118 74.9751962,14.8703956 76.556266,13.9781719 C78.1663506,13.0859482 78.769954,11.0040928 77.9218651,9.31878126 C77.0880458,7.63346976 75.1045737,6.98908595 73.5087587,7.88130969 Z" id="path-7"></path>
        <path d="M31.1964202,0.393442623 L31.9324971,0.393442623 C33.9482322,0.48895161 35.893596,1.36597762 37.3608693,2.88399347 L42,3.2917639 L42,3.29534363 L39.6940651,7.50010064 C40.2598838,10.8065216 38.9268074,14.2202939 36.1659701,16.1526178 C36.4113178,16.8396663 36.6063057,17.5696554 36.706817,18.3425849 C37.1785754,22.0784112 35.6126373,25.5780645 32.9335825,27.7036209 L32.9462765,27.7465614 L32.6066604,27.9397938 C32.1790189,28.2618478 31.7261974,28.5409612 31.2484042,28.7771342 L0,47.6065574 L12.6338222,25.535124 L0,10.2268244 L21.3939193,10.2268244 L24.1799365,5.35307405 C24.4188331,4.8163174 24.7018465,4.30103102 25.0414626,3.82868517 L25.1546679,3.63545278 L25.1609109,3.65692304 C25.846386,2.73370161 26.714155,1.96077203 27.751732,1.38107486 C28.8549768,0.769107488 30.0291678,0.448844225 31.1964257,0.393442623 L31.1964202,0.393442623 Z M32.1600819,3.8072149 C31.4683639,4.19367969 31.2042874,5.09543086 31.5690834,5.8254199 C31.9336712,6.55540894 32.8016483,6.8345224 33.4933664,6.44805761 C34.1977784,6.06159283 34.4618549,5.15984166 34.090816,4.42985262 C33.72602,3.69986357 32.858251,3.42075012 32.1600819,3.8072149 Z" id="path-9"></path>
    </defs>
    <g id="Page-1" stroke="none" stroke-width="1" fill="none" fill-rule="evenodd">
        <g id="321-landing-tablet-landscape" transform="translate(-62.000000, -4121.000000)">
            <g id="tablet-landing-birds-2" transform="translate(62.000000, 4121.000000)">
                <mask id="mask-2" fill="white">
                    <use xlink:href="#path-1"></use>
                </mask>
                <use id="Mask" fill="#FFFFFF" fill-rule="nonzero" xlink:href="#path-1"></use>
                <g mask="url(#mask-2)">
                    <g transform="translate(0.000000, 36.000000)">
                        <g id="Group-3-Copy-12" transform="translate(677.000000, 81.000000)">
                            <mask id="mask-4" fill="white">
                                <use xlink:href="#path-3"></use>
                            </mask>
                            <g id="Clip-396"></g>
                            <polygon id="Fill-395" fill="#FED445" mask="url(#mask-4)" points="-21.744186 117.760417 107.732558 117.760417 107.732558 -20.78125 -21.744186 -20.78125"></polygon>
                        </g>
                        <g id="Group-3-Copy-19" transform="translate(0.000000, 492.000000)">
                            <mask id="mask-6" fill="white">
                                <use xlink:href="#path-5"></use>
                            </mask>
                            <g id="Clip-396"></g>
                            <polygon id="Fill-395" fill="#FED445" mask="url(#mask-6)" points="-49.25 277.853659 250.940476 277.853659 250.940476 -49.1707317 -49.25 -49.1707317"></polygon>
                        </g>
                        <g id="Group-3-Copy-11" transform="translate(19.000000, 0.000000)">
                            <mask id="mask-8" fill="white">
                                <use xlink:href="#path-7"></use>
                            </mask>
                            <g id="Clip-396"></g>
                            <polygon id="Fill-395" fill="#FED445" mask="url(#mask-8)" points="-24.742268 135.754545 121.731959 135.754545 121.731959 -23.7818182 -24.742268 -23.7818182"></polygon>
                        </g>
                        <g id="Group-3-Copy-16" transform="translate(852.000000, 0.000000)">
                            <mask id="mask-10" fill="white">
                                <use xlink:href="#path-9"></use>
                            </mask>
                            <g id="Clip-396"></g>
                            <polygon id="Fill-395" fill="#FED445" mask="url(#mask-10)" points="-11.0943396 58.6229508 53.0943396 58.6229508 53.0943396 -9.83606557 -11.0943396 -9.83606557"></polygon>
                        </g>
                    </g>
                </g>
            </g>
        </g>
    </g>
</svg>