<?xml version="1.0" encoding="UTF-8"?>
<svg width="901px" height="714px" viewBox="0 0 901 714" version="1.1" xmlns="http://www.w3.org/2000/svg" xmlns:xlink="http://www.w3.org/1999/xlink">
    <!-- Generator: Sketch 52.4 (67378) - http://www.bohemiancoding.com/sketch -->
    <title>tablet-landing-birds-1</title>
    <desc>Created with Sketch.</desc>
    <defs>
        <rect id="path-1" x="0" y="0" width="901" height="714"></rect>
        <path d="M206.490591,7.8913865e-11 L211.362719,7.8913865e-11 C224.704966,0.643292825 237.581421,6.55042841 247.293373,16.7748977 L278,19.5214014 L278,19.5455124 L262.736907,47.8663029 C266.482088,70.1364256 257.658392,93.1296044 239.384278,106.144611 C241.008246,110.772169 242.29888,115.68895 242.96417,120.894952 C246.086761,146.057299 235.721742,169.628922 217.988951,183.94543 L218.072973,184.234652 L215.825038,185.536153 C212.994458,187.705321 209.997211,189.585266 206.834675,191.175989 L0,318 L83.6238706,169.3397 L0,66.2319236 L141.60737,66.2319236 L160.048151,33.4051842 C161.629419,29.7899045 163.502698,26.319236 165.750633,23.1377899 L166.499945,21.8362892 L166.541267,21.9809004 C171.078459,15.7626194 176.822264,10.5566166 183.690036,6.6521146 C190.992466,2.53025939 198.764492,0.373152874 206.490627,0 L206.490591,7.8913865e-11 Z M212.869114,22.9931787 C208.290599,25.5961801 206.542664,31.6698499 208.957266,36.5866303 C211.37049,41.5034106 217.115672,43.3833561 221.694187,40.7803547 C226.356724,38.1773533 228.104658,32.1036835 225.648734,27.1869031 C223.234133,22.2701228 217.490328,20.3901774 212.869114,22.9931787 Z" id="path-3"></path>
        <path d="M76.5055067,2.92825034e-11 L78.3106476,2.92825034e-11 C83.253998,0.238706143 88.0247712,2.43066211 91.6230843,6.22464757 L103,7.24379047 L103,7.25273731 L97.3449692,17.7617099 C98.7325722,26.0254661 95.4633611,34.5575261 88.6927362,39.3869941 C89.2944221,41.1041382 89.7726068,42.9286039 90.0190989,44.8603911 C91.1760302,54.1973624 87.3357534,62.9440655 80.7656905,68.2564802 L80.796821,68.3638017 L79.963953,68.8467485 C78.9152129,69.6516598 77.8047222,70.3492497 76.6329913,70.939518 L0,118 L30.9829449,62.836744 L0,24.5766257 L52.4660401,24.5766257 L59.2984156,12.3956344 C59.8842811,11.0541155 60.5783378,9.76625739 61.4112058,8.58572078 L61.6888285,8.10277399 L61.7041385,8.15643474 C63.3851846,5.84902228 65.5132848,3.91723511 68.0578191,2.46839472 C70.7633955,0.938901283 73.6429592,0.138465532 76.5055202,0 L76.5055067,2.92825034e-11 Z M78.8687724,8.53206003 C77.1724162,9.49795362 76.5248001,11.7517053 77.4194187,13.576171 C78.313527,15.4006367 80.4421376,16.0982265 82.1384937,15.1323329 C83.8659804,14.1664393 84.5135965,11.9126876 83.6036678,10.0882219 C82.7090491,8.26375625 80.5809489,7.56616644 78.8687724,8.53206003 Z" id="path-5"></path>
        <path d="M28.2253326,1.09188996e-11 L28.8913069,1.09188996e-11 C30.7150672,0.0890090701 32.4751583,0.906348585 33.8026913,2.32105503 L38,2.70107441 L38,2.70441052 L35.9136779,6.62301046 C36.4256091,9.7044111 35.2194924,12.8858572 32.721592,14.6866758 C32.9435732,15.3269668 33.1199908,16.007276 33.2109297,16.7276035 C33.6377587,20.209186 32.2209576,23.4706685 29.7970509,25.4515689 L29.8085359,25.4915871 L29.5012642,25.6716689 C29.1143504,25.9718054 28.7046548,26.2319236 28.2723657,26.4520236 L0,44 L11.430601,23.4306503 L0,9.16416553 L19.3564032,9.16416553 L21.8770854,4.62210095 C22.0932299,4.12187358 22.3492897,3.6416553 22.6565614,3.20145521 L22.7589853,3.02137335 L22.7646336,3.04138245 C23.3848254,2.18099136 24.1699497,1.46066394 25.1087099,0.920418372 C26.1068838,0.350098784 27.1692471,0.0516312153 28.2253375,0 L28.2253326,1.09188996e-11 Z M29.097217,3.18144611 C28.4713769,3.54160982 28.2324505,4.38199181 28.562504,5.06230105 C28.8923692,5.74261028 29.6776818,6.00272851 30.303522,5.6425648 C30.9408471,5.28240109 31.1797735,4.4420191 30.8440716,3.76170987 C30.5140181,3.08140064 29.7288938,2.8212824 29.097217,3.18144611 Z" id="path-7"></path>
        <path d="M41.5952269,1.58820357e-11 L42.5766628,1.58820357e-11 C45.2643096,0.129467738 47.858128,1.31832521 49.8144924,3.37608004 L56,3.92883551 L56,3.93368803 L52.9254201,9.63346976 C53.6798451,14.115507 51.9024099,18.743065 48.2212935,21.3624375 C48.5484237,22.2937699 48.8084076,23.2833106 48.9424227,24.3310596 C49.5714339,29.3951796 47.4835164,34.1391542 43.9114434,37.0204638 L43.9283687,37.0786721 L43.4755472,37.3406094 C42.9053585,37.7771714 42.3015966,38.1555252 41.6645389,38.4756708 L0,64 L16.8450962,34.0809459 L0,13.3296953 L28.5252257,13.3296953 L32.2399153,6.72305593 C32.5584441,5.99545248 32.9357953,5.29695316 33.3886167,4.65666212 L33.5395572,4.39472487 L33.5478811,4.42382901 C34.4618479,3.17235107 35.6188733,2.12460209 37.0023094,1.33879036 C38.4733024,0.509234594 40.0388905,0.0750999495 41.5952343,0 L41.5952269,1.58820357e-11 Z M42.8801092,4.62755798 C41.9578185,5.15143247 41.6057166,6.37380628 42.0921112,7.36334698 C42.5782283,8.35288768 43.7355311,8.73124147 44.6578218,8.20736699 C45.5970379,7.6834925 45.9491398,6.46111869 45.4544213,5.47157799 C44.9680267,4.48203729 43.8110014,4.10368349 42.8801092,4.62755798 Z" id="path-9"></path>
        <path d="M23.7687011,9.1818019e-12 L24.3295216,9.1818019e-12 C25.8653198,0.0748485362 27.3475017,0.762156765 28.4654243,1.95179627 L32,2.27135803 L32,2.27416339 L30.2430972,5.5693497 C30.6741972,8.16052751 29.65852,10.8358345 27.5550249,12.3501592 C27.7419564,12.8885857 27.8905186,13.4606639 27.9670987,14.0663938 C28.3265336,16.9940882 27.1334379,19.7366985 25.0922534,21.4024557 L25.101925,21.4361073 L24.8431698,21.5875398 C24.5173477,21.8399272 24.1723409,22.058663 23.808308,22.2437472 L0,37 L9.62576928,19.7030468 L0,7.7062301 L16.300129,7.7062301 L18.4228087,3.88676671 C18.6048252,3.46612096 18.8204545,3.06230105 19.0792096,2.69213279 L19.1654613,2.54070032 L19.1702178,2.55752615 C19.6924845,1.83401546 20.3536419,1.22828558 21.1441768,0.773988176 C21.9847442,0.29440125 22.879366,0.0434171583 23.7687053,0 L23.7687011,9.1818019e-12 Z M24.5029196,2.67530696 C23.9758963,2.9781719 23.7746952,3.68485675 24.0526349,4.25693497 C24.3304162,4.82901319 24.9917321,5.04774898 25.5187553,4.74488404 C26.0554502,4.4420191 26.2566513,3.73533424 25.973955,3.16325603 C25.6960153,2.59117781 25.0348579,2.37244202 24.5029196,2.67530696 Z" id="path-11"></path>
        <path d="M28.2253326,1.06707427e-11 L28.8913069,1.06707427e-11 C30.7150672,0.0869861367 32.4751583,0.885749753 33.8026913,2.26830377 L38,2.63968636 L38,2.64294665 L35.9136779,6.47248749 C36.4256091,9.4838563 35.2194924,12.5929968 32.721592,14.3528877 C32.9435732,14.9786266 33.1199908,15.6434743 33.2109297,16.3474307 C33.6377587,19.7498863 32.2209576,22.9372442 29.7970509,24.8731241 L29.8085359,24.9122328 L29.5012642,25.0882219 C29.1143504,25.3815371 28.7046548,25.6357435 28.2723657,25.8508413 L0,43 L11.430601,22.8981355 L0,8.95588904 L19.3564032,8.95588904 L21.8770854,4.51705321 C22.0932299,4.02819463 22.3492897,3.5588904 22.6565614,3.12869486 L22.7589853,2.95270578 L22.7646336,2.97226012 C23.3848254,2.13142337 24.1699497,1.42746703 25.1087099,0.899499773 C26.1068838,0.342141993 27.1692471,0.0504577786 28.2253375,0 L28.2253326,1.06707427e-11 Z M29.097217,3.10914052 C28.4713769,3.46111869 28.2324505,4.28240109 28.562504,4.94724875 C28.8923692,5.61209641 29.6776818,5.86630286 30.303522,5.51432469 C30.9408471,5.16234652 31.1797735,4.34106412 30.8440716,3.67621646 C30.5140181,3.0113688 29.7288938,2.75716235 29.097217,3.10914052 Z" id="path-13"></path>
    </defs>
    <g id="Page-1" stroke="none" stroke-width="1" fill="none" fill-rule="evenodd">
        <g id="321-landing-tablet-landscape" transform="translate(-62.000000, -600.000000)">
            <g id="tablet-landing-birds-1" transform="translate(62.000000, 600.000000)">
                <mask id="mask-2" fill="white">
                    <use xlink:href="#path-1"></use>
                </mask>
                <use id="Mask" fill="#FFFFFF" fill-rule="nonzero" xlink:href="#path-1"></use>
                <g mask="url(#mask-2)">
                    <g transform="translate(1.000000, 23.000000)">
                        <g id="Group-3-Copy-10" transform="translate(0.000000, 396.000000)">
                            <mask id="mask-4" fill="white">
                                <use xlink:href="#path-3"></use>
                            </mask>
                            <g id="Clip-396"></g>
                            <polygon id="Fill-395" fill="#FED445" mask="url(#mask-4)" points="-68 395 354 395 354 -69 -68 -69"></polygon>
                        </g>
                        <g id="Group-3-Copy-11" transform="translate(41.000000, 253.000000)">
                            <mask id="mask-6" fill="white">
                                <use xlink:href="#path-5"></use>
                            </mask>
                            <g id="Clip-396"></g>
                            <polygon id="Fill-395" fill="#FED445" mask="url(#mask-6)" points="-25.5371901 146.217391 131.090909 146.217391 131.090909 -25.6521739 -25.5371901 -25.6521739"></polygon>
                        </g>
                        <g id="Group-3-Copy-17" transform="translate(251.000000, 209.000000)">
                            <mask id="mask-8" fill="white">
                                <use xlink:href="#path-7"></use>
                            </mask>
                            <g id="Clip-396"></g>
                            <polygon id="Fill-395" fill="#FED445" mask="url(#mask-8)" points="-10 54 48 54 48 -10 -10 -10"></polygon>
                        </g>
                        <g id="Group-3-Copy-13" transform="translate(195.000000, 49.000000)">
                            <mask id="mask-10" fill="white">
                                <use xlink:href="#path-9"></use>
                            </mask>
                            <g id="Clip-396"></g>
                            <polygon id="Fill-395" fill="#FED445" mask="url(#mask-10)" points="-13.5757576 79.36 71.2727273 79.36 71.2727273 -13.6533333 -13.5757576 -13.6533333"></polygon>
                        </g>
                        <g id="Group-3-Copy-14" transform="translate(778.000000, 0.000000)">
                            <mask id="mask-12" fill="white">
                                <use xlink:href="#path-11"></use>
                            </mask>
                            <g id="Clip-396"></g>
                            <polygon id="Fill-395" fill="#FED445" mask="url(#mask-12)" points="-7.78378378 45.6046512 40.6486486 45.6046512 40.6486486 -7.74418605 -7.78378378 -7.74418605"></polygon>
                        </g>
                        <g id="Group-3-Copy-20" transform="translate(706.000000, 399.000000)">
                            <mask id="mask-14" fill="white">
                                <use xlink:href="#path-13"></use>
                            </mask>
                            <g id="Clip-396"></g>
                            <polygon id="Fill-395" fill="#FED445" mask="url(#mask-14)" points="-9.5 52.46 47.5 52.46 47.5 -9.46 -9.5 -9.46"></polygon>
                        </g>
                    </g>
                </g>
            </g>
        </g>
    </g>
</svg>