<?xml version="1.0" encoding="UTF-8"?>
<svg width="347px" height="675px" viewBox="0 0 347 675" version="1.1" xmlns="http://www.w3.org/2000/svg" xmlns:xlink="http://www.w3.org/1999/xlink">
    <!-- Generator: Sketch 52.4 (67378) - http://www.bohemiancoding.com/sketch -->
    <title>mob-program-birds-1</title>
    <desc>Created with Sketch.</desc>
    <defs>
        <rect id="path-1" x="0" y="0" width="347" height="675"></rect>
        <path d="M51.2512618,0.803470278 L52.4605309,0.803470278 C55.7720958,0.965304951 58.9680506,2.4513768 61.378571,5.02357032 L69,5.71451466 L69,5.72058032 L65.2116784,12.8453075 C66.1412377,18.4478541 63.9511837,24.2323016 59.4155223,27.5065171 C59.8185935,28.6706826 60.1389307,29.9076085 60.3040566,31.2172947 C61.0790882,37.5474448 58.5064756,43.477413 54.1051713,47.0790501 L54.1260257,47.1518104 L53.568085,47.479232 C52.865531,48.0249346 52.12161,48.4978768 51.3366641,48.8980587 L0,80.8034703 L20.755565,43.4046526 L0,17.4655894 L35.1471531,17.4655894 L39.7241813,9.2072902 C40.1166543,8.29778588 40.5816049,7.42466173 41.1395456,6.62429793 L41.3255259,6.29687637 L41.3357821,6.33325654 C42.4619198,4.76890911 43.8875403,3.45922289 45.5921312,2.47695823 C47.4046048,1.44001352 49.3336329,0.897345215 51.2512708,0.803470278 L51.2512618,0.803470278 Z M52.8344203,6.58791775 C51.6980264,7.24276087 51.2641865,8.77072812 51.8634941,10.007654 C52.4624598,11.2445799 53.8884223,11.7175221 55.0248162,11.062679 C56.1820645,10.4078359 56.6159044,8.87986864 56.0063406,7.64294277 C55.4070329,6.40601689 53.9814124,5.93307464 52.8344203,6.58791775 Z" id="path-3"></path>
        <path d="M20.7976135,8.18917467e-12 L21.2883314,8.18917467e-12 C22.6321548,0.0667568026 23.929064,0.679761439 24.9072462,1.74079127 L28,2.02580581 L28,2.02830789 L26.4627101,4.96725784 C26.8399225,7.27830832 25.951205,9.66439291 24.1106467,11.0150068 C24.2742118,11.4952251 24.4042038,12.005457 24.4712114,12.5457026 C24.7857169,15.1568895 23.7417582,17.6030014 21.9557217,19.0886767 L21.9641843,19.1186903 L21.7377736,19.2537517 C21.4526792,19.478854 21.1507983,19.6739427 20.8322695,19.8390177 L0,33 L8.42254812,17.5729877 L0,6.87312415 L14.2626128,6.87312415 L16.1199576,3.46657572 C16.2792221,3.09140518 16.4678976,2.73124147 16.6943084,2.40109141 L16.7697786,2.26603001 L16.7739406,2.28103683 C17.230924,1.63574352 17.8094367,1.09549795 18.5011547,0.690313779 C19.2366512,0.262574088 20.0194452,0.0387234115 20.7976171,0 L20.7976135,8.18917467e-12 Z M21.4400546,2.38608458 C20.9789093,2.65620737 20.8028583,3.28649386 21.0460556,3.79672578 C21.2891141,4.30695771 21.8677656,4.50204638 22.3289109,4.2319236 C22.7985189,3.96180082 22.9745699,3.33151432 22.7272107,2.8212824 C22.4840134,2.31105048 21.9055007,2.1159618 21.4400546,2.38608458 Z" id="path-5"></path>
        <path d="M133.698944,5.11203025e-11 L136.853559,5.11203025e-11 C145.492424,0.416724283 153.829697,4.24335928 160.118011,10.8667576 L180,12.6459393 L180,12.6615584 L170.117422,31.0077308 C172.542359,45.4342883 166.829175,60.3292406 154.997015,68.7603456 C156.048505,71.7580719 156.884167,74.943156 157.31493,78.315598 C159.336752,94.6157344 152.625588,109.885402 141.143925,119.159618 L141.198328,119.346976 L139.74283,120.190086 C137.910081,121.595271 135.969418,122.813097 133.921732,123.843565 L0,206 L54.1449522,109.698045 L0,42.9049568 L91.6882255,42.9049568 L103.628299,21.6398363 C104.652142,19.2978627 105.865056,17.049568 107.320554,14.9886312 L107.80572,14.1455207 L107.832475,14.2391996 C110.770226,10.211005 114.489236,6.83856298 118.935994,4.30923147 C123.664186,1.63909885 128.696434,0.241727962 133.698967,0 L133.698944,5.11203025e-11 Z M137.828923,14.8949523 C134.864417,16.5811733 133.73266,20.5156889 135.296072,23.7007731 C136.858591,26.8858572 140.578493,28.1036835 143.542999,26.4174625 C146.561907,24.7312415 147.693664,20.7967258 146.103497,17.6116417 C144.540086,14.4265575 140.821076,13.2087312 137.828923,14.8949523 Z" id="path-7"></path>
        <path d="M40.852455,0.803470278 L41.8163652,0.803470278 C44.4560184,0.92889215 47.0035186,2.08059783 48.9249479,4.07404781 L55,4.60952968 L55,4.61423056 L51.9803233,10.1358941 C52.7212764,14.4778677 50.9755812,18.9608145 47.360199,21.4983316 C47.6814875,22.4005599 47.9368289,23.3591774 48.0684509,24.3741842 C48.6862297,29.2800505 46.6355965,33.8757759 43.1273104,36.6670446 L43.1439335,36.7234339 L42.6991982,36.9771856 C42.1391914,37.4001051 41.5462109,37.7666354 40.9205293,38.0767763 L0,62.8034703 L16.544291,33.8193866 L0,13.7166126 L28.0158467,13.7166126 L31.6642025,7.31643072 C31.9770433,6.61156487 32.3476561,5.93489365 32.7923914,5.31461171 L32.9406366,5.06086 L32.9488118,5.08905463 C33.8464578,3.87668538 34.982822,2.86167855 36.3415539,2.10042344 C37.7862792,1.29679129 39.3239103,0.876223355 40.8524622,0.803470278 L40.852455,0.803470278 Z M42.114393,5.28641707 C41.2085718,5.79392048 40.8627573,6.97809511 41.3404663,7.93671266 C41.8179028,8.89533021 42.9545395,9.26186046 43.8603607,8.75435705 C44.7828051,8.24685363 45.1286195,7.06267901 44.6427352,6.10406146 C44.1650262,5.1454439 43.028662,4.77891366 42.114393,5.28641707 Z" id="path-9"></path>
    </defs>
    <g id="Page-1" stroke="none" stroke-width="1" fill="none" fill-rule="evenodd">
        <g id="321-WEB-V2-PROGRAMS-Mobile" transform="translate(-15.000000, -48.000000)">
            <g id="mob-program-birds-1" transform="translate(15.000000, 48.000000)">
                <mask id="mask-2" fill="white">
                    <use xlink:href="#path-1"></use>
                </mask>
                <use id="Mask" fill="#FFFFFF" fill-rule="nonzero" xlink:href="#path-1"></use>
                <g id="Group-6" mask="url(#mask-2)">
                    <g transform="translate(0.000000, -35.000000)">
                        <g id="Group-3-Copy-19" transform="translate(67.000000, 0.000000)">
                            <mask id="mask-4" fill="white">
                                <use xlink:href="#path-3"></use>
                            </mask>
                            <g id="Clip-396"></g>
                            <polygon id="Fill-395" fill="#FED445" mask="url(#mask-4)" points="-17 99.8034703 88 99.8034703 88 -18.1965297 -17 -18.1965297"></polygon>
                        </g>
                        <g id="Group-3-Copy-18" transform="translate(298.000000, 53.000000)">
                            <mask id="mask-6" fill="white">
                                <use xlink:href="#path-5"></use>
                            </mask>
                            <g id="Clip-396"></g>
                            <polygon id="Fill-395" fill="#FED445" mask="url(#mask-6)" points="-7 40 35 40 35 -6 -7 -6"></polygon>
                        </g>
                        <g id="Group-3-Copy-12" transform="translate(0.000000, 408.000000)">
                            <mask id="mask-8" fill="white">
                                <use xlink:href="#path-7"></use>
                            </mask>
                            <g id="Clip-396"></g>
                            <polygon id="Fill-395" fill="#FED445" mask="url(#mask-8)" points="-45 256 228 256 228 -44 -45 -44"></polygon>
                        </g>
                        <g id="Group-3-Copy-18" transform="translate(257.000000, 354.000000)">
                            <mask id="mask-10" fill="white">
                                <use xlink:href="#path-9"></use>
                            </mask>
                            <g id="Clip-396"></g>
                            <polygon id="Fill-395" fill="#FED445" mask="url(#mask-10)" points="-14 75.8034703 69 75.8034703 69 -12.1965297 -14 -12.1965297"></polygon>
                        </g>
                    </g>
                </g>
            </g>
        </g>
    </g>
</svg>