<?xml version="1.0" encoding="UTF-8"?>
<svg width="345px" height="558px" viewBox="0 0 345 558" version="1.1" xmlns="http://www.w3.org/2000/svg" xmlns:xlink="http://www.w3.org/1999/xlink">
    <!-- Generator: Sketch 52.4 (67378) - http://www.bohemiancoding.com/sketch -->
    <title>mob-about-birds-1</title>
    <desc>Created with Sketch.</desc>
    <defs>
        <rect id="path-1" x="0" y="0" width="345" height="558"></rect>
        <path d="M100.274208,3.79679916e-11 L102.640169,3.79679916e-11 C109.119318,0.309508812 115.372273,3.15162122 120.088509,8.07094134 L135,9.39237239 L135,9.40397295 L127.588066,23.0300136 C129.406769,33.744884 125.121881,44.8076398 116.247761,51.0695771 C117.036379,53.2960437 117.663125,55.6616644 117.986198,58.1664393 C119.502564,70.2728513 114.469191,81.6139154 105.857944,88.5020464 L105.898746,88.6412005 L104.807123,89.2673943 C103.432561,90.3110505 101.977063,91.2155525 100.441299,91.9809004 L0,153 L40.6087142,81.4747613 L0,31.8663029 L68.7661691,31.8663029 L77.7212244,16.0723056 C78.4891063,14.3328786 79.3987922,12.6630286 80.4904153,11.1323329 L80.8542897,10.5061392 L80.8743563,10.5757162 C83.0776691,7.58390177 85.8669267,5.07912688 89.2019959,3.2005457 C92.7481397,1.21738895 96.5223252,0.179535817 100.274225,0 L100.274208,3.79679916e-11 Z M103.371692,11.0627558 C101.148312,12.3151432 100.299495,15.2373806 101.472054,17.6030014 C102.643943,19.9686221 105.43387,20.8731241 107.657249,19.6207367 C109.921431,18.3683492 110.770248,15.4461119 109.577623,13.0804911 C108.405064,10.7148704 105.615807,9.81036835 103.371692,11.0627558 Z" id="path-3"></path>
        <path d="M28.9681045,1.11670564e-11 L29.6516044,1.11670564e-11 C31.5233585,0.0910320035 33.3297677,0.926947416 34.6922358,2.37380628 L39,2.76246247 L39,2.7658744 L36.8587747,6.77353342 C37.3841778,9.92496589 36.1463212,13.1787176 33.5826865,15.0204638 C33.8105093,15.675307 33.9915696,16.3710778 34.0849015,17.1077763 C34.5229629,20.6684857 33.0688775,24.0040928 30.5811838,26.0300136 L30.592971,26.0709413 L30.2776133,26.255116 C29.8805175,26.5620737 29.4600405,26.8281037 29.0163753,27.053206 L0,45 L11.7314063,23.9631651 L0,9.37244202 L19.8657822,9.37244202 L22.4527982,4.7271487 C22.6746307,4.21555252 22.9374289,3.72442019 23.2527867,3.27421555 L23.3579059,3.09004093 L23.3637029,3.11050477 C24.0002155,2.23055935 24.8060011,1.49386085 25.7694655,0.941336971 C26.793907,0.358055574 27.8842273,0.052804652 28.9681096,0 L28.9681045,1.11670564e-11 Z M29.8629332,3.25375171 C29.2206236,3.62210095 28.9754097,4.48158254 29.3141488,5.17735334 C29.6526947,5.87312415 30.4586735,6.13915416 31.1009831,5.77080491 C31.7550799,5.40245566 32.0002938,4.54297408 31.6557577,3.84720327 C31.3170186,3.15143247 30.5112331,2.88540246 29.8629332,3.25375171 Z" id="path-5"></path>
        <path d="M34.9102798,1.34004676e-11 L35.7339848,1.34004676e-11 C37.9896884,0.109238404 40.1666432,1.1123369 41.8085919,2.84856753 L47,3.31495496 L47,3.31904928 L44.419549,8.12824011 C45.0527271,11.9099591 43.5609512,15.8144611 40.4714427,18.0245566 C40.7459984,18.8103683 40.9641992,19.6452933 41.0766762,20.5293315 C41.6045963,24.8021828 39.852237,28.8049113 36.8542471,31.2360164 L36.8684523,31.2851296 L36.4884057,31.5061392 C36.0098544,31.8744884 35.5031257,32.1937244 34.9684523,32.4638472 L0,54 L14.1378486,28.7557981 L0,11.2469304 L23.9408144,11.2469304 L27.0585003,5.67257844 C27.325837,5.05866303 27.6425425,4.46930423 28.022589,3.92905866 L28.1492712,3.70804911 L28.1562574,3.73260573 C28.9233367,2.67667121 29.8944115,1.79263302 31.0555097,1.12960437 C32.2900931,0.429666689 33.6040688,0.0633655824 34.9102859,0 L34.9102798,1.34004676e-11 Z M35.9886631,3.90450205 C35.2145977,4.34652115 34.9190835,5.37789905 35.3273076,6.21282401 C35.7352987,7.04774898 36.7066065,7.36698499 37.4806719,6.92496589 C38.2689425,6.48294679 38.5644566,5.45156889 38.1492465,4.61664393 C37.7410224,3.78171896 36.7699476,3.46248295 35.9886631,3.90450205 Z" id="path-7"></path>
        <path d="M17.0837539,6.70023382e-12 L17.4868436,6.70023382e-12 C18.5906986,0.0546192021 19.6560169,0.55616845 20.4595237,1.42428377 L23,1.65747748 L23,1.65952464 L21.7372261,4.06412005 C22.0470792,5.95497954 21.3170612,7.90723056 19.8051741,9.01227831 C19.9395312,9.40518417 20.0463102,9.82264666 20.1013522,10.2646658 C20.3596961,12.4010914 19.5021585,14.4024557 18.0350571,15.6180082 L18.0420086,15.6425648 L17.8560283,15.7530696 C17.6218437,15.9372442 17.37387,16.0968622 17.1122214,16.2319236 L0,27 L6.91852167,14.377899 L0,5.62346521 L11.7157177,5.62346521 L13.2413938,2.83628922 C13.3722181,2.52933151 13.5272016,2.23465211 13.7131819,1.96452933 L13.7751753,1.85402456 L13.778594,1.86630286 C14.1539733,1.33833561 14.6291801,0.896316508 15.1973771,0.564802183 C15.8015349,0.214833344 16.4445443,0.0316827912 17.0837569,0 L17.0837539,6.70023382e-12 Z M17.6114734,1.95225102 C17.2326755,2.17326057 17.0880622,2.68894952 17.2878314,3.10641201 C17.4874866,3.52387449 17.9628074,3.6834925 18.3416054,3.46248295 C18.7273548,3.2414734 18.8719681,2.72578445 18.6687802,2.30832196 C18.469011,1.89085948 17.9938041,1.73124147 17.6114734,1.95225102 Z" id="path-9"></path>
    </defs>
    <g id="Page-1" stroke="none" stroke-width="1" fill="none" fill-rule="evenodd">
        <g id="321-WEB-V2-ABOUT-Mobile" transform="translate(-15.000000, -48.000000)">
            <g id="mob-about-birds-1" transform="translate(15.000000, 48.000000)">
                <mask id="mask-2" fill="white">
                    <use xlink:href="#path-1"></use>
                </mask>
                <use id="Mask" fill="#FFFFFF" fill-rule="nonzero" xlink:href="#path-1"></use>
                <g id="Group-9-Copy" mask="url(#mask-2)">
                    <g transform="translate(0.000000, -24.000000)">
                        <g id="Group-3-Copy-11" transform="translate(0.000000, 438.000000)">
                            <mask id="mask-4" fill="white">
                                <use xlink:href="#path-3"></use>
                            </mask>
                            <g id="Clip-396"></g>
                            <polygon id="Fill-395" fill="#FED445" mask="url(#mask-4)" points="-34 189 172 189 172 -33 -34 -33"></polygon>
                        </g>
                        <g id="Group-3-Copy-12" transform="translate(239.000000, 427.000000)">
                            <mask id="mask-6" fill="white">
                                <use xlink:href="#path-5"></use>
                            </mask>
                            <g id="Clip-396"></g>
                            <polygon id="Fill-395" fill="#FED445" mask="url(#mask-6)" points="-9 55 50 55 50 -10 -9 -10"></polygon>
                        </g>
                        <g id="Group-3-Copy-12" transform="translate(55.000000, 0.000000)">
                            <mask id="mask-8" fill="white">
                                <use xlink:href="#path-7"></use>
                            </mask>
                            <g id="Clip-396"></g>
                            <polygon id="Fill-395" fill="#FED445" mask="url(#mask-8)" points="-11 66 60 66 60 -12 -11 -12"></polygon>
                        </g>
                        <g id="Group-3-Copy-12" transform="translate(313.000000, 41.000000)">
                            <mask id="mask-10" fill="white">
                                <use xlink:href="#path-9"></use>
                            </mask>
                            <g id="Clip-396"></g>
                            <polygon id="Fill-395" fill="#FED445" mask="url(#mask-10)" points="-5 33 30 33 30 -6 -5 -6"></polygon>
                        </g>
                    </g>
                </g>
            </g>
        </g>
    </g>
</svg>