<svg width="308" height="117" viewBox="0 0 308 117" fill="none" xmlns="http://www.w3.org/2000/svg">
<rect width="308" height="117" fill="white"/>
<path d="M308 0H0V117H308V0Z" fill="white"/>
<mask id="mask0" mask-type="alpha" maskUnits="userSpaceOnUse" x="2" y="83" width="10" height="10">
<path d="M12 88C12 90.7613 9.76133 93 7 93C4.23867 93 2 90.7613 2 88C2 85.2387 4.23867 83 7 83C9.76133 83 12 85.2387 12 88Z" fill="white"/>
</mask>
<g mask="url(#mask0)">
<path fill-rule="evenodd" clip-rule="evenodd" d="M0.333313 94.6667H13.6666V81.3333H0.333313V94.6667Z" fill="#E6E7E8"/>
</g>
<mask id="mask1" mask-type="alpha" maskUnits="userSpaceOnUse" x="2" y="105" width="10" height="10">
<path d="M12 110C12 112.761 9.76133 115 7 115C4.23867 115 2 112.761 2 110C2 107.239 4.23867 105 7 105C9.76133 105 12 107.239 12 110Z" fill="white"/>
</mask>
<g mask="url(#mask1)">
<path fill-rule="evenodd" clip-rule="evenodd" d="M0.333313 116.667H13.6666V103.333H0.333313V116.667Z" fill="#84AFFF"/>
</g>
<g opacity="0.262416">
<path d="M32.9 105.6L30.068 114H29.132L26.672 106.836L24.2 114H23.276L20.444 105.6H21.356L23.78 112.824L26.288 105.6H27.116L29.588 112.86L32.048 105.6H32.9Z" fill="black"/>
<path d="M34.313 107.688H35.165V114H34.313V107.688ZM34.745 106.308C34.569 106.308 34.421 106.248 34.301 106.128C34.181 106.008 34.121 105.864 34.121 105.696C34.121 105.536 34.181 105.396 34.301 105.276C34.421 105.156 34.569 105.096 34.745 105.096C34.921 105.096 35.069 105.156 35.189 105.276C35.309 105.388 35.369 105.524 35.369 105.684C35.369 105.86 35.309 106.008 35.189 106.128C35.069 106.248 34.921 106.308 34.745 106.308Z" fill="black"/>
<path d="M40.8596 113.616C40.6996 113.76 40.4996 113.872 40.2596 113.952C40.0276 114.024 39.7836 114.06 39.5276 114.06C38.9356 114.06 38.4796 113.9 38.1596 113.58C37.8396 113.26 37.6796 112.808 37.6796 112.224V108.408H36.5516V107.688H37.6796V106.308H38.5316V107.688H40.4516V108.408H38.5316V112.176C38.5316 112.552 38.6236 112.84 38.8076 113.04C38.9996 113.232 39.2716 113.328 39.6236 113.328C39.7996 113.328 39.9676 113.3 40.1276 113.244C40.2956 113.188 40.4396 113.108 40.5596 113.004L40.8596 113.616Z" fill="black"/>
<path d="M45.6266 107.64C46.4186 107.64 47.0466 107.872 47.5106 108.336C47.9826 108.792 48.2186 109.46 48.2186 110.34V114H47.3666V110.424C47.3666 109.768 47.2026 109.268 46.8746 108.924C46.5466 108.58 46.0786 108.408 45.4706 108.408C44.7906 108.408 44.2506 108.612 43.8506 109.02C43.4586 109.42 43.2626 109.976 43.2626 110.688V114H42.4106V105.096H43.2626V108.792C43.4946 108.424 43.8146 108.14 44.2226 107.94C44.6306 107.74 45.0986 107.64 45.6266 107.64Z" fill="black"/>
<path d="M55.9643 109.2C56.8443 109.248 57.5123 109.488 57.9683 109.92C58.4323 110.344 58.6643 110.9 58.6643 111.588C58.6643 112.068 58.5483 112.496 58.3163 112.872C58.0843 113.24 57.7403 113.532 57.2843 113.748C56.8283 113.964 56.2723 114.072 55.6163 114.072C55.0083 114.072 54.4323 113.976 53.8883 113.784C53.3523 113.584 52.9203 113.32 52.5923 112.992L53.0123 112.308C53.2923 112.596 53.6643 112.832 54.1283 113.016C54.5923 113.192 55.0883 113.28 55.6163 113.28C56.3043 113.28 56.8363 113.132 57.2123 112.836C57.5883 112.532 57.7763 112.116 57.7763 111.588C57.7763 111.068 57.5883 110.66 57.2123 110.364C56.8363 110.068 56.2683 109.92 55.5083 109.92H54.9083V109.284L57.2363 106.368H52.9403V105.6H58.3403V106.212L55.9643 109.2Z" fill="black"/>
<path d="M65.5592 113.232V114H59.6672V113.388L63.1592 109.968C63.5992 109.536 63.8952 109.164 64.0472 108.852C64.2072 108.532 64.2872 108.212 64.2872 107.892C64.2872 107.396 64.1152 107.012 63.7712 106.74C63.4352 106.46 62.9512 106.32 62.3192 106.32C61.3352 106.32 60.5712 106.632 60.0272 107.256L59.4152 106.728C59.7432 106.344 60.1592 106.048 60.6632 105.84C61.1752 105.632 61.7512 105.528 62.3912 105.528C63.2472 105.528 63.9232 105.732 64.4192 106.14C64.9232 106.54 65.1752 107.092 65.1752 107.796C65.1752 108.228 65.0792 108.644 64.8872 109.044C64.6952 109.444 64.3312 109.904 63.7952 110.424L60.9392 113.232H65.5592Z" fill="black"/>
<path d="M68.9715 105.6V114H68.1075V106.368H66.1275V105.6H68.9715Z" fill="black"/>
<path d="M74.8641 105.6H75.7521V114H74.8641V105.6Z" fill="black"/>
<path d="M81.5212 107.64C82.3132 107.64 82.9412 107.872 83.4052 108.336C83.8772 108.792 84.1132 109.46 84.1132 110.34V114H83.2612V110.424C83.2612 109.768 83.0972 109.268 82.7692 108.924C82.4412 108.58 81.9732 108.408 81.3652 108.408C80.6852 108.408 80.1452 108.612 79.7452 109.02C79.3532 109.42 79.1572 109.976 79.1572 110.688V114H78.3052V107.688H79.1212V108.852C79.3532 108.468 79.6732 108.172 80.0812 107.964C80.4972 107.748 80.9772 107.64 81.5212 107.64Z" fill="black"/>
<path d="M89.7503 113.616C89.5903 113.76 89.3903 113.872 89.1503 113.952C88.9183 114.024 88.6743 114.06 88.4183 114.06C87.8263 114.06 87.3702 113.9 87.0502 113.58C86.7302 113.26 86.5703 112.808 86.5703 112.224V108.408H85.4423V107.688H86.5703V106.308H87.4222V107.688H89.3423V108.408H87.4222V112.176C87.4222 112.552 87.5142 112.84 87.6982 113.04C87.8902 113.232 88.1623 113.328 88.5143 113.328C88.6903 113.328 88.8582 113.3 89.0182 113.244C89.1862 113.188 89.3302 113.108 89.4502 113.004L89.7503 113.616Z" fill="black"/>
<path d="M96.5746 111.108H91.2946C91.3426 111.764 91.5946 112.296 92.0506 112.704C92.5066 113.104 93.0826 113.304 93.7786 113.304C94.1706 113.304 94.5306 113.236 94.8586 113.1C95.1866 112.956 95.4706 112.748 95.7106 112.476L96.1906 113.028C95.9106 113.364 95.5586 113.62 95.1346 113.796C94.7186 113.972 94.2586 114.06 93.7546 114.06C93.1066 114.06 92.5306 113.924 92.0266 113.652C91.5306 113.372 91.1426 112.988 90.8626 112.5C90.5826 112.012 90.4426 111.46 90.4426 110.844C90.4426 110.228 90.5746 109.676 90.8386 109.188C91.1106 108.7 91.4786 108.32 91.9426 108.048C92.4146 107.776 92.9426 107.64 93.5266 107.64C94.1106 107.64 94.6346 107.776 95.0986 108.048C95.5626 108.32 95.9266 108.7 96.1906 109.188C96.4546 109.668 96.5866 110.22 96.5866 110.844L96.5746 111.108ZM93.5266 108.372C92.9186 108.372 92.4066 108.568 91.9906 108.96C91.5826 109.344 91.3506 109.848 91.2946 110.472H95.7706C95.7146 109.848 95.4786 109.344 95.0626 108.96C94.6546 108.568 94.1426 108.372 93.5266 108.372Z" fill="black"/>
<path d="M99.1368 108.924C99.3368 108.5 99.6328 108.18 100.025 107.964C100.425 107.748 100.917 107.64 101.501 107.64V108.468L101.297 108.456C100.633 108.456 100.113 108.66 99.7368 109.068C99.3608 109.476 99.1728 110.048 99.1728 110.784V114H98.3208V107.688H99.1368V108.924Z" fill="black"/>
<path d="M108.617 107.688L105.809 114H104.933L102.137 107.688H103.025L105.389 113.064L107.777 107.688H108.617Z" fill="black"/>
<path d="M115.137 111.108H109.857C109.905 111.764 110.157 112.296 110.613 112.704C111.069 113.104 111.645 113.304 112.341 113.304C112.733 113.304 113.093 113.236 113.421 113.1C113.749 112.956 114.033 112.748 114.273 112.476L114.753 113.028C114.473 113.364 114.121 113.62 113.697 113.796C113.281 113.972 112.821 114.06 112.317 114.06C111.669 114.06 111.093 113.924 110.589 113.652C110.093 113.372 109.705 112.988 109.425 112.5C109.145 112.012 109.005 111.46 109.005 110.844C109.005 110.228 109.137 109.676 109.401 109.188C109.673 108.7 110.041 108.32 110.505 108.048C110.977 107.776 111.505 107.64 112.089 107.64C112.673 107.64 113.197 107.776 113.661 108.048C114.125 108.32 114.489 108.7 114.753 109.188C115.017 109.668 115.149 110.22 115.149 110.844L115.137 111.108ZM112.089 108.372C111.481 108.372 110.969 108.568 110.553 108.96C110.145 109.344 109.913 109.848 109.857 110.472H114.333C114.277 109.848 114.041 109.344 113.625 108.96C113.217 108.568 112.705 108.372 112.089 108.372Z" fill="black"/>
<path d="M120.099 107.64C120.891 107.64 121.519 107.872 121.983 108.336C122.455 108.792 122.691 109.46 122.691 110.34V114H121.839V110.424C121.839 109.768 121.675 109.268 121.347 108.924C121.019 108.58 120.551 108.408 119.943 108.408C119.263 108.408 118.723 108.612 118.323 109.02C117.931 109.42 117.735 109.976 117.735 110.688V114H116.883V107.688H117.699V108.852C117.931 108.468 118.251 108.172 118.659 107.964C119.075 107.748 119.555 107.64 120.099 107.64Z" fill="black"/>
<path d="M128.328 113.616C128.168 113.76 127.968 113.872 127.728 113.952C127.496 114.024 127.252 114.06 126.996 114.06C126.404 114.06 125.948 113.9 125.628 113.58C125.308 113.26 125.148 112.808 125.148 112.224V108.408H124.02V107.688H125.148V106.308H126V107.688H127.92V108.408H126V112.176C126 112.552 126.092 112.84 126.276 113.04C126.468 113.232 126.74 113.328 127.092 113.328C127.268 113.328 127.436 113.3 127.596 113.244C127.764 113.188 127.908 113.108 128.028 113.004L128.328 113.616Z" fill="black"/>
<path d="M129.879 107.688H130.731V114H129.879V107.688ZM130.311 106.308C130.135 106.308 129.987 106.248 129.867 106.128C129.747 106.008 129.687 105.864 129.687 105.696C129.687 105.536 129.747 105.396 129.867 105.276C129.987 105.156 130.135 105.096 130.311 105.096C130.487 105.096 130.635 105.156 130.755 105.276C130.875 105.388 130.935 105.524 130.935 105.684C130.935 105.86 130.875 106.008 130.755 106.128C130.635 106.248 130.487 106.308 130.311 106.308Z" fill="black"/>
<path d="M135.682 114.06C135.074 114.06 134.526 113.924 134.038 113.652C133.55 113.372 133.166 112.988 132.886 112.5C132.606 112.012 132.466 111.46 132.466 110.844C132.466 110.228 132.606 109.676 132.886 109.188C133.166 108.7 133.55 108.32 134.038 108.048C134.526 107.776 135.074 107.64 135.682 107.64C136.29 107.64 136.838 107.776 137.326 108.048C137.814 108.32 138.194 108.7 138.466 109.188C138.746 109.676 138.886 110.228 138.886 110.844C138.886 111.46 138.746 112.012 138.466 112.5C138.194 112.988 137.814 113.372 137.326 113.652C136.838 113.924 136.29 114.06 135.682 114.06ZM135.682 113.304C136.13 113.304 136.53 113.204 136.882 113.004C137.242 112.796 137.522 112.504 137.722 112.128C137.922 111.752 138.022 111.324 138.022 110.844C138.022 110.364 137.922 109.936 137.722 109.56C137.522 109.184 137.242 108.896 136.882 108.696C136.53 108.488 136.13 108.384 135.682 108.384C135.234 108.384 134.83 108.488 134.47 108.696C134.118 108.896 133.838 109.184 133.63 109.56C133.43 109.936 133.33 110.364 133.33 110.844C133.33 111.324 133.43 111.752 133.63 112.128C133.838 112.504 134.118 112.796 134.47 113.004C134.83 113.204 135.234 113.304 135.682 113.304Z" fill="black"/>
<path d="M143.841 107.64C144.633 107.64 145.261 107.872 145.725 108.336C146.197 108.792 146.433 109.46 146.433 110.34V114H145.581V110.424C145.581 109.768 145.417 109.268 145.089 108.924C144.761 108.58 144.293 108.408 143.685 108.408C143.005 108.408 142.465 108.612 142.065 109.02C141.673 109.42 141.477 109.976 141.477 110.688V114H140.625V107.688H141.441V108.852C141.673 108.468 141.993 108.172 142.401 107.964C142.817 107.748 143.297 107.64 143.841 107.64Z" fill="black"/>
<path d="M153.339 116.328C152.891 115.592 152.547 114.748 152.307 113.796C152.067 112.836 151.947 111.808 151.947 110.712C151.947 109.616 152.067 108.588 152.307 107.628C152.547 106.66 152.891 105.816 153.339 105.096H154.155C153.683 105.904 153.335 106.772 153.111 107.7C152.895 108.628 152.787 109.632 152.787 110.712C152.787 111.792 152.895 112.796 153.111 113.724C153.335 114.652 153.683 115.52 154.155 116.328H153.339Z" fill="black"/>
<path d="M157.718 105.6V114H156.854V106.368H154.874V105.6H157.718Z" fill="black"/>
<path d="M166.49 111.096V114H165.614V111.096L162.254 105.6H163.202L166.082 110.316L168.962 105.6H169.85L166.49 111.096Z" fill="black"/>
<path d="M175.829 111.108H170.549C170.597 111.764 170.849 112.296 171.305 112.704C171.761 113.104 172.337 113.304 173.033 113.304C173.425 113.304 173.785 113.236 174.113 113.1C174.441 112.956 174.725 112.748 174.965 112.476L175.445 113.028C175.165 113.364 174.813 113.62 174.389 113.796C173.973 113.972 173.512 114.06 173.008 114.06C172.36 114.06 171.785 113.924 171.281 113.652C170.785 113.372 170.397 112.988 170.117 112.5C169.837 112.012 169.697 111.46 169.697 110.844C169.697 110.228 169.828 109.676 170.092 109.188C170.364 108.7 170.733 108.32 171.197 108.048C171.669 107.776 172.197 107.64 172.781 107.64C173.365 107.64 173.889 107.776 174.353 108.048C174.817 108.32 175.181 108.7 175.445 109.188C175.709 109.668 175.84 110.22 175.84 110.844L175.829 111.108ZM172.781 108.372C172.173 108.372 171.661 108.568 171.245 108.96C170.837 109.344 170.605 109.848 170.549 110.472H175.025C174.969 109.848 174.732 109.344 174.316 108.96C173.908 108.568 173.397 108.372 172.781 108.372Z" fill="black"/>
<path d="M179.607 107.64C180.431 107.64 181.063 107.848 181.503 108.264C181.943 108.672 182.163 109.28 182.163 110.088V114H181.347V113.016C181.155 113.344 180.871 113.6 180.495 113.784C180.127 113.968 179.687 114.06 179.175 114.06C178.471 114.06 177.911 113.892 177.495 113.556C177.079 113.22 176.871 112.776 176.871 112.224C176.871 111.688 177.063 111.256 177.447 110.928C177.839 110.6 178.459 110.436 179.307 110.436H181.311V110.052C181.311 109.508 181.159 109.096 180.855 108.816C180.551 108.528 180.107 108.384 179.523 108.384C179.123 108.384 178.739 108.452 178.371 108.588C178.003 108.716 177.687 108.896 177.423 109.128L177.039 108.492C177.359 108.22 177.743 108.012 178.191 107.868C178.639 107.716 179.111 107.64 179.607 107.64ZM179.307 113.388C179.787 113.388 180.199 113.28 180.543 113.064C180.887 112.84 181.143 112.52 181.311 112.104V111.072H179.331C178.251 111.072 177.711 111.448 177.711 112.2C177.711 112.568 177.851 112.86 178.131 113.076C178.411 113.284 178.803 113.388 179.307 113.388Z" fill="black"/>
<path d="M185.293 108.924C185.493 108.5 185.789 108.18 186.181 107.964C186.581 107.748 187.073 107.64 187.657 107.64V108.468L187.453 108.456C186.789 108.456 186.269 108.66 185.893 109.068C185.517 109.476 185.329 110.048 185.329 110.784V114H184.477V107.688H185.293V108.924Z" fill="black"/>
<path d="M188.457 116.328C188.929 115.52 189.277 114.656 189.501 113.736C189.725 112.808 189.837 111.8 189.837 110.712C189.837 109.624 189.725 108.62 189.501 107.7C189.277 106.772 188.929 105.904 188.457 105.096H189.273C189.721 105.816 190.065 106.66 190.305 107.628C190.553 108.588 190.677 109.616 190.677 110.712C190.677 111.808 190.557 112.836 190.317 113.796C190.077 114.756 189.729 115.6 189.273 116.328H188.457Z" fill="black"/>
</g>
<g opacity="0.262416">
<path d="M32.9 83.6L30.068 92H29.132L26.672 84.836L24.2 92H23.276L20.444 83.6H21.356L23.78 90.824L26.288 83.6H27.116L29.588 90.86L32.048 83.6H32.9Z" fill="black"/>
<path d="M34.313 85.688H35.165V92H34.313V85.688ZM34.745 84.308C34.569 84.308 34.421 84.248 34.301 84.128C34.181 84.008 34.121 83.864 34.121 83.696C34.121 83.536 34.181 83.396 34.301 83.276C34.421 83.156 34.569 83.096 34.745 83.096C34.921 83.096 35.069 83.156 35.189 83.276C35.309 83.388 35.369 83.524 35.369 83.684C35.369 83.86 35.309 84.008 35.189 84.128C35.069 84.248 34.921 84.308 34.745 84.308Z" fill="black"/>
<path d="M40.8596 91.616C40.6996 91.76 40.4996 91.872 40.2596 91.952C40.0276 92.024 39.7836 92.06 39.5276 92.06C38.9356 92.06 38.4796 91.9 38.1596 91.58C37.8396 91.26 37.6796 90.808 37.6796 90.224V86.408H36.5516V85.688H37.6796V84.308H38.5316V85.688H40.4516V86.408H38.5316V90.176C38.5316 90.552 38.6236 90.84 38.8076 91.04C38.9996 91.232 39.2716 91.328 39.6236 91.328C39.7996 91.328 39.9676 91.3 40.1276 91.244C40.2956 91.188 40.4396 91.108 40.5596 91.004L40.8596 91.616Z" fill="black"/>
<path d="M45.6266 85.64C46.4186 85.64 47.0466 85.872 47.5106 86.336C47.9826 86.792 48.2186 87.46 48.2186 88.34V92H47.3666V88.424C47.3666 87.768 47.2026 87.268 46.8746 86.924C46.5466 86.58 46.0786 86.408 45.4706 86.408C44.7906 86.408 44.2506 86.612 43.8506 87.02C43.4586 87.42 43.2626 87.976 43.2626 88.688V92H42.4106V83.096H43.2626V86.792C43.4946 86.424 43.8146 86.14 44.2226 85.94C44.6306 85.74 45.0986 85.64 45.6266 85.64Z" fill="black"/>
<path d="M53.1352 92.06C52.5272 92.06 51.9792 91.924 51.4912 91.652C51.0032 91.372 50.6192 90.988 50.3392 90.5C50.0592 90.012 49.9192 89.46 49.9192 88.844C49.9192 88.228 50.0592 87.676 50.3392 87.188C50.6192 86.7 51.0032 86.32 51.4912 86.048C51.9792 85.776 52.5272 85.64 53.1352 85.64C53.7432 85.64 54.2912 85.776 54.7792 86.048C55.2672 86.32 55.6472 86.7 55.9192 87.188C56.1992 87.676 56.3392 88.228 56.3392 88.844C56.3392 89.46 56.1992 90.012 55.9192 90.5C55.6472 90.988 55.2672 91.372 54.7792 91.652C54.2912 91.924 53.7432 92.06 53.1352 92.06ZM53.1352 91.304C53.5832 91.304 53.9832 91.204 54.3352 91.004C54.6952 90.796 54.9752 90.504 55.1752 90.128C55.3752 89.752 55.4752 89.324 55.4752 88.844C55.4752 88.364 55.3752 87.936 55.1752 87.56C54.9752 87.184 54.6952 86.896 54.3352 86.696C53.9832 86.488 53.5832 86.384 53.1352 86.384C52.6872 86.384 52.2832 86.488 51.9232 86.696C51.5712 86.896 51.2912 87.184 51.0832 87.56C50.8832 87.936 50.7832 88.364 50.7832 88.844C50.7832 89.324 50.8832 89.752 51.0832 90.128C51.2912 90.504 51.5712 90.796 51.9232 91.004C52.2832 91.204 52.6872 91.304 53.1352 91.304Z" fill="black"/>
<path d="M63.7666 85.688V92H62.9506V90.848C62.7266 91.232 62.4186 91.532 62.0266 91.748C61.6346 91.956 61.1866 92.06 60.6826 92.06C59.8586 92.06 59.2066 91.832 58.7266 91.376C58.2546 90.912 58.0186 90.236 58.0186 89.348V85.688H58.8706V89.264C58.8706 89.928 59.0346 90.432 59.3626 90.776C59.6906 91.12 60.1586 91.292 60.7666 91.292C61.4306 91.292 61.9546 91.092 62.3386 90.692C62.7226 90.284 62.9146 89.72 62.9146 89V85.688H63.7666Z" fill="black"/>
<path d="M69.4768 91.616C69.3168 91.76 69.1168 91.872 68.8768 91.952C68.6448 92.024 68.4008 92.06 68.1448 92.06C67.5528 92.06 67.0968 91.9 66.7768 91.58C66.4568 91.26 66.2968 90.808 66.2968 90.224V86.408H65.1688V85.688H66.2968V84.308H67.1488V85.688H69.0688V86.408H67.1488V90.176C67.1488 90.552 67.2408 90.84 67.4248 91.04C67.6168 91.232 67.8888 91.328 68.2408 91.328C68.4168 91.328 68.5848 91.3 68.7448 91.244C68.9128 91.188 69.0568 91.108 69.1768 91.004L69.4768 91.616Z" fill="black"/>
<path d="M76.4604 87.2C77.3404 87.248 78.0084 87.488 78.4644 87.92C78.9284 88.344 79.1604 88.9 79.1604 89.588C79.1604 90.068 79.0444 90.496 78.8124 90.872C78.5804 91.24 78.2364 91.532 77.7804 91.748C77.3244 91.964 76.7684 92.072 76.1124 92.072C75.5044 92.072 74.9284 91.976 74.3844 91.784C73.8484 91.584 73.4164 91.32 73.0884 90.992L73.5084 90.308C73.7884 90.596 74.1604 90.832 74.6244 91.016C75.0884 91.192 75.5844 91.28 76.1124 91.28C76.8004 91.28 77.3324 91.132 77.7084 90.836C78.0844 90.532 78.2724 90.116 78.2724 89.588C78.2724 89.068 78.0844 88.66 77.7084 88.364C77.3324 88.068 76.7644 87.92 76.0044 87.92H75.4044V87.284L77.7324 84.368H73.4364V83.6H78.8364V84.212L76.4604 87.2Z" fill="black"/>
<path d="M86.0553 91.232V92H80.1633V91.388L83.6553 87.968C84.0953 87.536 84.3913 87.164 84.5433 86.852C84.7033 86.532 84.7833 86.212 84.7833 85.892C84.7833 85.396 84.6113 85.012 84.2673 84.74C83.9313 84.46 83.4473 84.32 82.8153 84.32C81.8313 84.32 81.0673 84.632 80.5233 85.256L79.9113 84.728C80.2393 84.344 80.6553 84.048 81.1593 83.84C81.6713 83.632 82.2473 83.528 82.8873 83.528C83.7433 83.528 84.4193 83.732 84.9153 84.14C85.4193 84.54 85.6713 85.092 85.6713 85.796C85.6713 86.228 85.5753 86.644 85.3833 87.044C85.1913 87.444 84.8273 87.904 84.2913 88.424L81.4353 91.232H86.0553Z" fill="black"/>
<path d="M89.4676 83.6V92H88.6036V84.368H86.6236V83.6H89.4676Z" fill="black"/>
<path d="M95.3602 83.6H96.2482V92H95.3602V83.6Z" fill="black"/>
<path d="M102.017 85.64C102.809 85.64 103.437 85.872 103.901 86.336C104.373 86.792 104.609 87.46 104.609 88.34V92H103.757V88.424C103.757 87.768 103.593 87.268 103.265 86.924C102.937 86.58 102.469 86.408 101.861 86.408C101.181 86.408 100.641 86.612 100.241 87.02C99.8492 87.42 99.6533 87.976 99.6533 88.688V92H98.8013V85.688H99.6172V86.852C99.8492 86.468 100.169 86.172 100.577 85.964C100.993 85.748 101.473 85.64 102.017 85.64Z" fill="black"/>
<path d="M110.246 91.616C110.086 91.76 109.886 91.872 109.646 91.952C109.414 92.024 109.17 92.06 108.914 92.06C108.322 92.06 107.866 91.9 107.546 91.58C107.226 91.26 107.066 90.808 107.066 90.224V86.408H105.938V85.688H107.066V84.308H107.918V85.688H109.838V86.408H107.918V90.176C107.918 90.552 108.01 90.84 108.194 91.04C108.386 91.232 108.658 91.328 109.01 91.328C109.186 91.328 109.354 91.3 109.514 91.244C109.682 91.188 109.826 91.108 109.946 91.004L110.246 91.616Z" fill="black"/>
<path d="M117.071 89.108H111.791C111.839 89.764 112.091 90.296 112.547 90.704C113.003 91.104 113.579 91.304 114.275 91.304C114.667 91.304 115.027 91.236 115.355 91.1C115.683 90.956 115.967 90.748 116.207 90.476L116.687 91.028C116.407 91.364 116.055 91.62 115.631 91.796C115.215 91.972 114.755 92.06 114.251 92.06C113.603 92.06 113.027 91.924 112.523 91.652C112.027 91.372 111.639 90.988 111.359 90.5C111.079 90.012 110.939 89.46 110.939 88.844C110.939 88.228 111.071 87.676 111.335 87.188C111.607 86.7 111.975 86.32 112.439 86.048C112.911 85.776 113.439 85.64 114.023 85.64C114.607 85.64 115.131 85.776 115.595 86.048C116.059 86.32 116.423 86.7 116.687 87.188C116.951 87.668 117.083 88.22 117.083 88.844L117.071 89.108ZM114.023 86.372C113.415 86.372 112.903 86.568 112.487 86.96C112.079 87.344 111.847 87.848 111.791 88.472H116.267C116.211 87.848 115.975 87.344 115.559 86.96C115.151 86.568 114.639 86.372 114.023 86.372Z" fill="black"/>
<path d="M119.633 86.924C119.833 86.5 120.129 86.18 120.521 85.964C120.921 85.748 121.413 85.64 121.997 85.64V86.468L121.793 86.456C121.129 86.456 120.609 86.66 120.233 87.068C119.857 87.476 119.669 88.048 119.669 88.784V92H118.817V85.688H119.633V86.924Z" fill="black"/>
<path d="M129.113 85.688L126.305 92H125.429L122.633 85.688H123.521L125.885 91.064L128.273 85.688H129.113Z" fill="black"/>
<path d="M135.633 89.108H130.353C130.401 89.764 130.653 90.296 131.109 90.704C131.565 91.104 132.141 91.304 132.837 91.304C133.229 91.304 133.589 91.236 133.917 91.1C134.245 90.956 134.529 90.748 134.769 90.476L135.249 91.028C134.969 91.364 134.617 91.62 134.193 91.796C133.777 91.972 133.317 92.06 132.813 92.06C132.165 92.06 131.589 91.924 131.085 91.652C130.589 91.372 130.201 90.988 129.921 90.5C129.641 90.012 129.501 89.46 129.501 88.844C129.501 88.228 129.633 87.676 129.897 87.188C130.169 86.7 130.537 86.32 131.001 86.048C131.473 85.776 132.001 85.64 132.585 85.64C133.169 85.64 133.693 85.776 134.157 86.048C134.621 86.32 134.985 86.7 135.249 87.188C135.513 87.668 135.645 88.22 135.645 88.844L135.633 89.108ZM132.585 86.372C131.977 86.372 131.465 86.568 131.049 86.96C130.641 87.344 130.409 87.848 130.353 88.472H134.829C134.773 87.848 134.537 87.344 134.121 86.96C133.713 86.568 133.201 86.372 132.585 86.372Z" fill="black"/>
<path d="M140.595 85.64C141.387 85.64 142.015 85.872 142.479 86.336C142.951 86.792 143.187 87.46 143.187 88.34V92H142.335V88.424C142.335 87.768 142.171 87.268 141.843 86.924C141.515 86.58 141.047 86.408 140.439 86.408C139.759 86.408 139.219 86.612 138.819 87.02C138.427 87.42 138.231 87.976 138.231 88.688V92H137.379V85.688H138.195V86.852C138.427 86.468 138.747 86.172 139.155 85.964C139.571 85.748 140.051 85.64 140.595 85.64Z" fill="black"/>
<path d="M148.824 91.616C148.664 91.76 148.464 91.872 148.224 91.952C147.992 92.024 147.748 92.06 147.492 92.06C146.9 92.06 146.444 91.9 146.124 91.58C145.804 91.26 145.644 90.808 145.644 90.224V86.408H144.516V85.688H145.644V84.308H146.496V85.688H148.416V86.408H146.496V90.176C146.496 90.552 146.588 90.84 146.772 91.04C146.964 91.232 147.236 91.328 147.588 91.328C147.764 91.328 147.932 91.3 148.092 91.244C148.26 91.188 148.404 91.108 148.524 91.004L148.824 91.616Z" fill="black"/>
<path d="M150.375 85.688H151.227V92H150.375V85.688ZM150.807 84.308C150.631 84.308 150.483 84.248 150.363 84.128C150.243 84.008 150.183 83.864 150.183 83.696C150.183 83.536 150.243 83.396 150.363 83.276C150.483 83.156 150.631 83.096 150.807 83.096C150.983 83.096 151.131 83.156 151.251 83.276C151.371 83.388 151.431 83.524 151.431 83.684C151.431 83.86 151.371 84.008 151.251 84.128C151.131 84.248 150.983 84.308 150.807 84.308Z" fill="black"/>
<path d="M156.178 92.06C155.57 92.06 155.022 91.924 154.534 91.652C154.046 91.372 153.662 90.988 153.382 90.5C153.102 90.012 152.962 89.46 152.962 88.844C152.962 88.228 153.102 87.676 153.382 87.188C153.662 86.7 154.046 86.32 154.534 86.048C155.022 85.776 155.57 85.64 156.178 85.64C156.786 85.64 157.334 85.776 157.822 86.048C158.31 86.32 158.69 86.7 158.962 87.188C159.242 87.676 159.382 88.228 159.382 88.844C159.382 89.46 159.242 90.012 158.962 90.5C158.69 90.988 158.31 91.372 157.822 91.652C157.334 91.924 156.786 92.06 156.178 92.06ZM156.178 91.304C156.626 91.304 157.026 91.204 157.378 91.004C157.738 90.796 158.018 90.504 158.218 90.128C158.418 89.752 158.518 89.324 158.518 88.844C158.518 88.364 158.418 87.936 158.218 87.56C158.018 87.184 157.738 86.896 157.378 86.696C157.026 86.488 156.626 86.384 156.178 86.384C155.73 86.384 155.326 86.488 154.966 86.696C154.614 86.896 154.334 87.184 154.126 87.56C153.926 87.936 153.826 88.364 153.826 88.844C153.826 89.324 153.926 89.752 154.126 90.128C154.334 90.504 154.614 90.796 154.966 91.004C155.326 91.204 155.73 91.304 156.178 91.304Z" fill="black"/>
<path d="M164.338 85.64C165.13 85.64 165.758 85.872 166.222 86.336C166.694 86.792 166.93 87.46 166.93 88.34V92H166.078V88.424C166.078 87.768 165.914 87.268 165.586 86.924C165.258 86.58 164.79 86.408 164.182 86.408C163.502 86.408 162.962 86.612 162.562 87.02C162.17 87.42 161.974 87.976 161.974 88.688V92H161.122V85.688H161.938V86.852C162.17 86.468 162.49 86.172 162.898 85.964C163.314 85.748 163.794 85.64 164.338 85.64Z" fill="black"/>
</g>
<path d="M131.36 17.232V18H125.468V17.388L128.96 13.968C129.4 13.536 129.696 13.164 129.848 12.852C130.008 12.532 130.088 12.212 130.088 11.892C130.088 11.396 129.916 11.012 129.572 10.74C129.236 10.46 128.752 10.32 128.12 10.32C127.136 10.32 126.372 10.632 125.828 11.256L125.216 10.728C125.544 10.344 125.96 10.048 126.464 9.84002C126.976 9.63202 127.552 9.52802 128.192 9.52802C129.048 9.52802 129.724 9.73201 130.22 10.14C130.724 10.54 130.976 11.092 130.976 11.796C130.976 12.228 130.88 12.644 130.688 13.044C130.496 13.444 130.132 13.904 129.596 14.424L126.74 17.232H131.36Z" fill="#BDBDBD"/>
<path d="M134.652 13.044C135.868 13.044 136.752 13.264 137.304 13.704C137.864 14.136 138.144 14.744 138.144 15.528C138.144 16.016 138.028 16.452 137.796 16.836C137.572 17.22 137.232 17.524 136.776 17.748C136.32 17.964 135.76 18.072 135.096 18.072C134.496 18.072 133.924 17.976 133.38 17.784C132.844 17.584 132.412 17.32 132.084 16.992L132.504 16.308C132.784 16.596 133.152 16.832 133.608 17.016C134.064 17.192 134.556 17.28 135.084 17.28C135.78 17.28 136.316 17.124 136.692 16.812C137.076 16.5 137.268 16.084 137.268 15.564C137.268 14.988 137.052 14.552 136.62 14.256C136.196 13.96 135.476 13.812 134.46 13.812H132.672L133.104 9.60001H137.7V10.368H133.86L133.572 13.044H134.652Z" fill="#BDBDBD"/>
<path d="M140.9 14.1C140.332 14.1 139.872 13.892 139.52 13.476C139.176 13.052 139.004 12.5 139.004 11.82C139.004 11.14 139.176 10.592 139.52 10.176C139.872 9.75201 140.332 9.54001 140.9 9.54001C141.46 9.54001 141.916 9.74802 142.268 10.164C142.62 10.58 142.796 11.132 142.796 11.82C142.796 12.508 142.62 13.06 142.268 13.476C141.916 13.892 141.46 14.1 140.9 14.1ZM145.988 9.60001H146.696L140.96 18H140.252L145.988 9.60001ZM140.9 13.56C141.292 13.56 141.604 13.408 141.836 13.104C142.076 12.792 142.196 12.364 142.196 11.82C142.196 11.276 142.076 10.852 141.836 10.548C141.604 10.236 141.292 10.08 140.9 10.08C140.5 10.08 140.184 10.236 139.952 10.548C139.72 10.86 139.604 11.284 139.604 11.82C139.604 12.356 139.72 12.78 139.952 13.092C140.184 13.404 140.5 13.56 140.9 13.56ZM146.048 18.06C145.488 18.06 145.032 17.852 144.68 17.436C144.328 17.012 144.152 16.46 144.152 15.78C144.152 15.1 144.328 14.552 144.68 14.136C145.032 13.712 145.488 13.5 146.048 13.5C146.616 13.5 147.072 13.712 147.416 14.136C147.768 14.552 147.944 15.1 147.944 15.78C147.944 16.46 147.768 17.012 147.416 17.436C147.072 17.852 146.616 18.06 146.048 18.06ZM146.048 17.52C146.448 17.52 146.764 17.364 146.996 17.052C147.228 16.74 147.344 16.316 147.344 15.78C147.344 15.244 147.228 14.82 146.996 14.508C146.764 14.196 146.448 14.04 146.048 14.04C145.656 14.04 145.34 14.196 145.1 14.508C144.868 14.812 144.752 15.236 144.752 15.78C144.752 16.324 144.868 16.752 145.1 17.064C145.34 17.368 145.656 17.52 146.048 17.52Z" fill="#BDBDBD"/>
<path d="M254.832 43.044C256.048 43.044 256.932 43.264 257.484 43.704C258.044 44.136 258.324 44.744 258.324 45.528C258.324 46.016 258.208 46.452 257.976 46.836C257.752 47.22 257.412 47.524 256.956 47.748C256.5 47.964 255.94 48.072 255.276 48.072C254.676 48.072 254.104 47.976 253.56 47.784C253.024 47.584 252.592 47.32 252.264 46.992L252.684 46.308C252.964 46.596 253.332 46.832 253.788 47.016C254.244 47.192 254.736 47.28 255.264 47.28C255.96 47.28 256.496 47.124 256.872 46.812C257.256 46.5 257.448 46.084 257.448 45.564C257.448 44.988 257.232 44.552 256.8 44.256C256.376 43.96 255.656 43.812 254.64 43.812H252.852L253.284 39.6H257.88V40.368H254.04L253.752 43.044H254.832Z" fill="#84AFFF"/>
<path d="M265.098 47.232V48H259.206V47.388L262.698 43.968C263.138 43.536 263.434 43.164 263.586 42.852C263.746 42.532 263.826 42.212 263.826 41.892C263.826 41.396 263.654 41.012 263.31 40.74C262.974 40.46 262.49 40.32 261.858 40.32C260.874 40.32 260.11 40.632 259.566 41.256L258.954 40.728C259.282 40.344 259.698 40.048 260.202 39.84C260.714 39.632 261.29 39.528 261.93 39.528C262.786 39.528 263.462 39.732 263.958 40.14C264.462 40.54 264.714 41.092 264.714 41.796C264.714 42.228 264.618 42.644 264.426 43.044C264.234 43.444 263.87 43.904 263.334 44.424L260.478 47.232H265.098Z" fill="#84AFFF"/>
<path d="M268.076 44.1C267.508 44.1 267.048 43.892 266.696 43.476C266.352 43.052 266.18 42.5 266.18 41.82C266.18 41.14 266.352 40.592 266.696 40.176C267.048 39.752 267.508 39.54 268.076 39.54C268.636 39.54 269.092 39.748 269.444 40.164C269.796 40.58 269.972 41.132 269.972 41.82C269.972 42.508 269.796 43.06 269.444 43.476C269.092 43.892 268.636 44.1 268.076 44.1ZM273.164 39.6H273.872L268.136 48H267.428L273.164 39.6ZM268.076 43.56C268.468 43.56 268.78 43.408 269.012 43.104C269.252 42.792 269.372 42.364 269.372 41.82C269.372 41.276 269.252 40.852 269.012 40.548C268.78 40.236 268.468 40.08 268.076 40.08C267.676 40.08 267.36 40.236 267.128 40.548C266.896 40.86 266.78 41.284 266.78 41.82C266.78 42.356 266.896 42.78 267.128 43.092C267.36 43.404 267.676 43.56 268.076 43.56ZM273.224 48.06C272.664 48.06 272.208 47.852 271.856 47.436C271.504 47.012 271.328 46.46 271.328 45.78C271.328 45.1 271.504 44.552 271.856 44.136C272.208 43.712 272.664 43.5 273.224 43.5C273.792 43.5 274.248 43.712 274.592 44.136C274.944 44.552 275.12 45.1 275.12 45.78C275.12 46.46 274.944 47.012 274.592 47.436C274.248 47.852 273.792 48.06 273.224 48.06ZM273.224 47.52C273.624 47.52 273.94 47.364 274.172 47.052C274.404 46.74 274.52 46.316 274.52 45.78C274.52 45.244 274.404 44.82 274.172 44.508C273.94 44.196 273.624 44.04 273.224 44.04C272.832 44.04 272.516 44.196 272.276 44.508C272.044 44.812 271.928 45.236 271.928 45.78C271.928 46.324 272.044 46.752 272.276 47.064C272.516 47.368 272.832 47.52 273.224 47.52Z" fill="#84AFFF"/>
<path fill-rule="evenodd" clip-rule="evenodd" d="M0 30H117V0H0V30Z" fill="#E6E7E8"/>
<path fill-rule="evenodd" clip-rule="evenodd" d="M0 60H244V30H0V60Z" fill="#84AFFF"/>
</svg>
