<svg width="236" height="234" viewBox="0 0 236 234" fill="none" xmlns="http://www.w3.org/2000/svg">
<g clip-path="url(#clip0_454_223)">
<path fill-rule="evenodd" clip-rule="evenodd" d="M154 225C154 229.971 149.971 234 145 234C140.029 234 136 229.971 136 225C136 220.029 140.029 216 145 216C149.971 216 154 220.029 154 225Z" fill="#87BEFD"/>
<path fill-rule="evenodd" clip-rule="evenodd" d="M18 225C18 229.971 13.971 234 9 234C4.029 234 0 229.971 0 225C0 220.029 4.029 216 9 216C13.971 216 18 220.029 18 225Z" fill="#D1E6FE"/>
<path d="M7.93609 7.06C7.72009 6.644 7.42009 6.332 7.03609 6.124C6.65209 5.908 6.20809 5.8 5.70409 5.8C5.15209 5.8 4.66009 5.924 4.22809 6.172C3.79609 6.42 3.45609 6.772 3.20809 7.228C2.96809 7.684 2.84809 8.212 2.84809 8.812C2.84809 9.412 2.96809 9.944 3.20809 10.408C3.45609 10.864 3.79609 11.216 4.22809 11.464C4.66009 11.712 5.15209 11.836 5.70409 11.836C6.44809 11.836 7.05209 11.628 7.51609 11.212C7.98009 10.796 8.26409 10.232 8.36809 9.52H5.23609V8.428H9.83209V9.496C9.74409 10.144 9.51209 10.74 9.13609 11.284C8.76809 11.828 8.28409 12.264 7.68409 12.592C7.09209 12.912 6.43209 13.072 5.70409 13.072C4.92009 13.072 4.20409 12.892 3.55609 12.532C2.90809 12.164 2.39209 11.656 2.00809 11.008C1.63209 10.36 1.44409 9.628 1.44409 8.812C1.44409 7.996 1.63209 7.264 2.00809 6.616C2.39209 5.968 2.90809 5.464 3.55609 5.104C4.21209 4.736 4.92809 4.552 5.70409 4.552C6.59209 4.552 7.38009 4.772 8.06809 5.212C8.76409 5.644 9.26809 6.26 9.58009 7.06H7.93609Z" fill="black"/>
<path d="M15.5133 13L13.5933 9.664H12.5493V13H11.1813V4.66H14.0613C14.7013 4.66 15.2413 4.772 15.6813 4.996C16.1293 5.22 16.4613 5.52 16.6773 5.896C16.9013 6.272 17.0133 6.692 17.0133 7.156C17.0133 7.7 16.8533 8.196 16.5333 8.644C16.2213 9.084 15.7373 9.384 15.0813 9.544L17.1453 13H15.5133ZM12.5493 8.572H14.0613C14.5733 8.572 14.9573 8.444 15.2133 8.188C15.4773 7.932 15.6093 7.588 15.6093 7.156C15.6093 6.724 15.4813 6.388 15.2253 6.148C14.9693 5.9 14.5813 5.776 14.0613 5.776H12.5493V8.572Z" fill="black"/>
<path d="M23.7914 11.296H20.2994L19.6994 13H18.2714L21.2594 4.648H22.8434L25.8314 13H24.3914L23.7914 11.296ZM23.4074 10.18L22.0514 6.304L20.6834 10.18H23.4074Z" fill="black"/>
<path d="M29.8546 4.66C30.7426 4.66 31.5186 4.832 32.1826 5.176C32.8546 5.512 33.3706 6 33.7306 6.64C34.0986 7.272 34.2826 8.012 34.2826 8.86C34.2826 9.708 34.0986 10.444 33.7306 11.068C33.3706 11.692 32.8546 12.172 32.1826 12.508C31.5186 12.836 30.7426 13 29.8546 13H27.1306V4.66H29.8546ZM29.8546 11.884C30.8306 11.884 31.5786 11.62 32.0986 11.092C32.6186 10.564 32.8786 9.82 32.8786 8.86C32.8786 7.892 32.6186 7.136 32.0986 6.592C31.5786 6.048 30.8306 5.776 29.8546 5.776H28.4986V11.884H29.8546Z" fill="black"/>
<path d="M37.0064 5.764V8.212H39.8864V9.328H37.0064V11.884H40.2464V13H35.6384V4.648H40.2464V5.764H37.0064Z" fill="black"/>
<path d="M50.0765 11.296H46.5845L45.9845 13H44.5565L47.5445 4.648H49.1285L52.1165 13H50.6765L50.0765 11.296ZM49.6925 10.18L48.3365 6.304L46.9685 10.18H49.6925Z" fill="black"/>
<path d="M59.2477 7.144C59.2477 7.568 59.1477 7.968 58.9477 8.344C58.7477 8.72 58.4277 9.028 57.9877 9.268C57.5477 9.5 56.9837 9.616 56.2957 9.616H54.7837V13H53.4157V4.66H56.2957C56.9357 4.66 57.4757 4.772 57.9157 4.996C58.3637 5.212 58.6957 5.508 58.9117 5.884C59.1357 6.26 59.2477 6.68 59.2477 7.144ZM56.2957 8.5C56.8157 8.5 57.2037 8.384 57.4597 8.152C57.7157 7.912 57.8437 7.576 57.8437 7.144C57.8437 6.232 57.3277 5.776 56.2957 5.776H54.7837V8.5H56.2957Z" fill="black"/>
<path d="M66.3844 7.144C66.3844 7.568 66.2844 7.968 66.0844 8.344C65.8844 8.72 65.5644 9.028 65.1244 9.268C64.6844 9.5 64.1204 9.616 63.4324 9.616H61.9204V13H60.5524V4.66H63.4324C64.0724 4.66 64.6124 4.772 65.0524 4.996C65.5004 5.212 65.8324 5.508 66.0484 5.884C66.2724 6.26 66.3844 6.68 66.3844 7.144ZM63.4324 8.5C63.9524 8.5 64.3404 8.384 64.5964 8.152C64.8524 7.912 64.9804 7.576 64.9804 7.144C64.9804 6.232 64.4644 5.776 63.4324 5.776H61.9204V8.5H63.4324Z" fill="black"/>
<path d="M72.0212 13L70.1012 9.664H69.0572V13H67.6892V4.66H70.5692C71.2092 4.66 71.7492 4.772 72.1892 4.996C72.6372 5.22 72.9692 5.52 73.1852 5.896C73.4092 6.272 73.5212 6.692 73.5212 7.156C73.5212 7.7 73.3612 8.196 73.0412 8.644C72.7292 9.084 72.2452 9.384 71.5892 9.544L73.6532 13H72.0212ZM69.0572 8.572H70.5692C71.0812 8.572 71.4652 8.444 71.7212 8.188C71.9852 7.932 72.1172 7.588 72.1172 7.156C72.1172 6.724 71.9892 6.388 71.7332 6.148C71.4772 5.9 71.0892 5.776 70.5692 5.776H69.0572V8.572Z" fill="black"/>
<path d="M79.0752 13.084C78.2992 13.084 77.5832 12.904 76.9272 12.544C76.2792 12.176 75.7632 11.668 75.3792 11.02C75.0032 10.364 74.8152 9.628 74.8152 8.812C74.8152 7.996 75.0032 7.264 75.3792 6.616C75.7632 5.968 76.2792 5.464 76.9272 5.104C77.5832 4.736 78.2992 4.552 79.0752 4.552C79.8592 4.552 80.5752 4.736 81.2232 5.104C81.8792 5.464 82.3952 5.968 82.7712 6.616C83.1472 7.264 83.3352 7.996 83.3352 8.812C83.3352 9.628 83.1472 10.364 82.7712 11.02C82.3952 11.668 81.8792 12.176 81.2232 12.544C80.5752 12.904 79.8592 13.084 79.0752 13.084ZM79.0752 11.896C79.6272 11.896 80.1192 11.772 80.5512 11.524C80.9832 11.268 81.3192 10.908 81.5592 10.444C81.8072 9.972 81.9312 9.428 81.9312 8.812C81.9312 8.196 81.8072 7.656 81.5592 7.192C81.3192 6.728 80.9832 6.372 80.5512 6.124C80.1192 5.876 79.6272 5.752 79.0752 5.752C78.5232 5.752 78.0312 5.876 77.5992 6.124C77.1672 6.372 76.8272 6.728 76.5792 7.192C76.3392 7.656 76.2192 8.196 76.2192 8.812C76.2192 9.428 76.3392 9.972 76.5792 10.444C76.8272 10.908 77.1672 11.268 77.5992 11.524C78.0312 11.772 78.5232 11.896 79.0752 11.896Z" fill="black"/>
<path d="M90.5133 7.144C90.5133 7.568 90.4133 7.968 90.2133 8.344C90.0133 8.72 89.6933 9.028 89.2533 9.268C88.8133 9.5 88.2493 9.616 87.5613 9.616H86.0493V13H84.6813V4.66H87.5613C88.2013 4.66 88.7413 4.772 89.1813 4.996C89.6293 5.212 89.9613 5.508 90.1773 5.884C90.4013 6.26 90.5133 6.68 90.5133 7.144ZM87.5613 8.5C88.0813 8.5 88.4693 8.384 88.7253 8.152C88.9813 7.912 89.1093 7.576 89.1093 7.144C89.1093 6.232 88.5933 5.776 87.5613 5.776H86.0493V8.5H87.5613Z" fill="black"/>
<path d="M96.1501 13L94.2301 9.664H93.1861V13H91.8181V4.66H94.6981C95.3381 4.66 95.8781 4.772 96.3181 4.996C96.7661 5.22 97.0981 5.52 97.3141 5.896C97.5381 6.272 97.6501 6.692 97.6501 7.156C97.6501 7.7 97.4901 8.196 97.1701 8.644C96.8581 9.084 96.3741 9.384 95.7181 9.544L97.7821 13H96.1501ZM93.1861 8.572H94.6981C95.2101 8.572 95.5941 8.444 95.8501 8.188C96.1141 7.932 96.2461 7.588 96.2461 7.156C96.2461 6.724 96.1181 6.388 95.8621 6.148C95.6061 5.9 95.2181 5.776 94.6981 5.776H93.1861V8.572Z" fill="black"/>
<path d="M100.768 4.66V13H99.4001V4.66H100.768Z" fill="black"/>
<path d="M107.592 11.296H104.1L103.5 13H102.072L105.06 4.648H106.644L109.632 13H108.192L107.592 11.296ZM107.208 10.18L105.852 6.304L104.484 10.18H107.208Z" fill="black"/>
<path d="M116.319 4.66V5.776H114.099V13H112.731V5.776H110.499V4.66H116.319Z" fill="black"/>
<path d="M119.073 5.764V8.212H121.953V9.328H119.073V11.884H122.313V13H117.705V4.648H122.313V5.764H119.073Z" fill="black"/>
<path d="M129.863 13.084C129.303 13.084 128.799 12.988 128.351 12.796C127.903 12.596 127.551 12.316 127.295 11.956C127.039 11.596 126.911 11.176 126.911 10.696H128.375C128.407 11.056 128.547 11.352 128.795 11.584C129.051 11.816 129.407 11.932 129.863 11.932C130.335 11.932 130.703 11.82 130.967 11.596C131.231 11.364 131.363 11.068 131.363 10.708C131.363 10.428 131.279 10.2 131.111 10.024C130.951 9.848 130.747 9.712 130.499 9.616C130.259 9.52 129.923 9.416 129.491 9.304C128.947 9.16 128.503 9.016 128.159 8.872C127.823 8.72 127.535 8.488 127.295 8.176C127.055 7.864 126.935 7.448 126.935 6.928C126.935 6.448 127.055 6.028 127.295 5.668C127.535 5.308 127.871 5.032 128.303 4.84C128.735 4.648 129.235 4.552 129.803 4.552C130.611 4.552 131.271 4.756 131.783 5.164C132.303 5.564 132.591 6.116 132.647 6.82H131.135C131.111 6.516 130.967 6.256 130.703 6.04C130.439 5.824 130.091 5.716 129.659 5.716C129.267 5.716 128.947 5.816 128.699 6.016C128.451 6.216 128.327 6.504 128.327 6.88C128.327 7.136 128.403 7.348 128.555 7.516C128.715 7.676 128.915 7.804 129.155 7.9C129.395 7.996 129.723 8.1 130.139 8.212C130.691 8.364 131.139 8.516 131.483 8.668C131.835 8.82 132.131 9.056 132.371 9.376C132.619 9.688 132.743 10.108 132.743 10.636C132.743 11.06 132.627 11.46 132.395 11.836C132.171 12.212 131.839 12.516 131.399 12.748C130.967 12.972 130.455 13.084 129.863 13.084Z" fill="black"/>
<path d="M138.953 13L135.725 9.268V13H134.357V4.66H135.725V8.464L138.965 4.66H140.681L137.057 8.836L140.741 13H138.953Z" fill="black"/>
<path d="M143.319 4.66V13H141.951V4.66H143.319Z" fill="black"/>
<path d="M146.483 11.896H149.303V13H145.115V4.66H146.483V11.896Z" fill="black"/>
<path d="M151.815 11.896H154.635V13H150.447V4.66H151.815V11.896Z" fill="black"/>
<path d="M158.527 13.084C157.967 13.084 157.463 12.988 157.015 12.796C156.567 12.596 156.215 12.316 155.959 11.956C155.703 11.596 155.575 11.176 155.575 10.696H157.039C157.071 11.056 157.211 11.352 157.459 11.584C157.715 11.816 158.071 11.932 158.527 11.932C158.999 11.932 159.367 11.82 159.631 11.596C159.895 11.364 160.027 11.068 160.027 10.708C160.027 10.428 159.943 10.2 159.775 10.024C159.615 9.848 159.411 9.712 159.163 9.616C158.923 9.52 158.587 9.416 158.155 9.304C157.611 9.16 157.167 9.016 156.823 8.872C156.487 8.72 156.199 8.488 155.959 8.176C155.719 7.864 155.599 7.448 155.599 6.928C155.599 6.448 155.719 6.028 155.959 5.668C156.199 5.308 156.535 5.032 156.967 4.84C157.399 4.648 157.899 4.552 158.467 4.552C159.275 4.552 159.935 4.756 160.447 5.164C160.967 5.564 161.255 6.116 161.311 6.82H159.799C159.775 6.516 159.631 6.256 159.367 6.04C159.103 5.824 158.755 5.716 158.323 5.716C157.931 5.716 157.611 5.816 157.363 6.016C157.115 6.216 156.991 6.504 156.991 6.88C156.991 7.136 157.067 7.348 157.219 7.516C157.379 7.676 157.579 7.804 157.819 7.9C158.059 7.996 158.387 8.1 158.803 8.212C159.355 8.364 159.803 8.516 160.147 8.668C160.499 8.82 160.795 9.056 161.035 9.376C161.283 9.688 161.407 10.108 161.407 10.636C161.407 11.06 161.291 11.46 161.059 11.836C160.835 12.212 160.503 12.516 160.063 12.748C159.631 12.972 159.119 13.084 158.527 13.084Z" fill="black"/>
<path d="M6.80809 22.66V23.776H3.26809V26.236H6.02809V27.352H3.26809V31H1.90009V22.66H6.80809Z" fill="black"/>
<path d="M11.8799 31.084C11.1039 31.084 10.3879 30.904 9.73187 30.544C9.08387 30.176 8.56787 29.668 8.18387 29.02C7.80787 28.364 7.61987 27.628 7.61987 26.812C7.61987 25.996 7.80787 25.264 8.18387 24.616C8.56787 23.968 9.08387 23.464 9.73187 23.104C10.3879 22.736 11.1039 22.552 11.8799 22.552C12.6639 22.552 13.3799 22.736 14.0279 23.104C14.6839 23.464 15.1999 23.968 15.5759 24.616C15.9519 25.264 16.1399 25.996 16.1399 26.812C16.1399 27.628 15.9519 28.364 15.5759 29.02C15.1999 29.668 14.6839 30.176 14.0279 30.544C13.3799 30.904 12.6639 31.084 11.8799 31.084ZM11.8799 29.896C12.4319 29.896 12.9239 29.772 13.3559 29.524C13.7879 29.268 14.1239 28.908 14.3639 28.444C14.6119 27.972 14.7359 27.428 14.7359 26.812C14.7359 26.196 14.6119 25.656 14.3639 25.192C14.1239 24.728 13.7879 24.372 13.3559 24.124C12.9239 23.876 12.4319 23.752 11.8799 23.752C11.3279 23.752 10.8359 23.876 10.4039 24.124C9.97187 24.372 9.63187 24.728 9.38387 25.192C9.14387 25.656 9.02387 26.196 9.02387 26.812C9.02387 27.428 9.14387 27.972 9.38387 28.444C9.63187 28.908 9.97187 29.268 10.4039 29.524C10.8359 29.772 11.3279 29.896 11.8799 29.896Z" fill="black"/>
<path d="M21.818 31L19.898 27.664H18.854V31H17.486V22.66H20.366C21.006 22.66 21.546 22.772 21.986 22.996C22.434 23.22 22.766 23.52 22.982 23.896C23.206 24.272 23.318 24.692 23.318 25.156C23.318 25.7 23.158 26.196 22.838 26.644C22.526 27.084 22.042 27.384 21.386 27.544L23.45 31H21.818ZM18.854 26.572H20.366C20.878 26.572 21.262 26.444 21.518 26.188C21.782 25.932 21.914 25.588 21.914 25.156C21.914 24.724 21.786 24.388 21.53 24.148C21.274 23.9 20.886 23.776 20.366 23.776H18.854V26.572Z" fill="black"/>
<path d="M29.5532 23.764V26.212H32.4332V27.328H29.5532V29.884H32.7932V31H28.1852V22.648H32.7932V23.764H29.5532Z" fill="black"/>
<path d="M41.3302 31H39.9622L35.8462 24.772V31H34.4782V22.648H35.8462L39.9622 28.864V22.648H41.3302V31Z" fill="black"/>
<path d="M49.1627 25.06C48.9467 24.644 48.6467 24.332 48.2627 24.124C47.8787 23.908 47.4347 23.8 46.9307 23.8C46.3787 23.8 45.8867 23.924 45.4547 24.172C45.0227 24.42 44.6827 24.772 44.4347 25.228C44.1947 25.684 44.0747 26.212 44.0747 26.812C44.0747 27.412 44.1947 27.944 44.4347 28.408C44.6827 28.864 45.0227 29.216 45.4547 29.464C45.8867 29.712 46.3787 29.836 46.9307 29.836C47.6747 29.836 48.2787 29.628 48.7427 29.212C49.2067 28.796 49.4907 28.232 49.5947 27.52H46.4627V26.428H51.0587V27.496C50.9707 28.144 50.7387 28.74 50.3627 29.284C49.9947 29.828 49.5107 30.264 48.9107 30.592C48.3187 30.912 47.6587 31.072 46.9307 31.072C46.1467 31.072 45.4307 30.892 44.7827 30.532C44.1347 30.164 43.6187 29.656 43.2347 29.008C42.8587 28.36 42.6707 27.628 42.6707 26.812C42.6707 25.996 42.8587 25.264 43.2347 24.616C43.6187 23.968 44.1347 23.464 44.7827 23.104C45.4387 22.736 46.1547 22.552 46.9307 22.552C47.8187 22.552 48.6067 22.772 49.2947 23.212C49.9907 23.644 50.4947 24.26 50.8067 25.06H49.1627Z" fill="black"/>
<path d="M53.7759 29.896H56.5959V31H52.4079V22.66H53.7759V29.896Z" fill="black"/>
<path d="M59.1079 22.66V31H57.7399V22.66H59.1079Z" fill="black"/>
<path d="M63.652 31.084C63.092 31.084 62.588 30.988 62.14 30.796C61.692 30.596 61.34 30.316 61.084 29.956C60.828 29.596 60.7 29.176 60.7 28.696H62.164C62.196 29.056 62.336 29.352 62.584 29.584C62.84 29.816 63.196 29.932 63.652 29.932C64.124 29.932 64.492 29.82 64.756 29.596C65.02 29.364 65.152 29.068 65.152 28.708C65.152 28.428 65.068 28.2 64.9 28.024C64.74 27.848 64.536 27.712 64.288 27.616C64.048 27.52 63.712 27.416 63.28 27.304C62.736 27.16 62.292 27.016 61.948 26.872C61.612 26.72 61.324 26.488 61.084 26.176C60.844 25.864 60.724 25.448 60.724 24.928C60.724 24.448 60.844 24.028 61.084 23.668C61.324 23.308 61.66 23.032 62.092 22.84C62.524 22.648 63.024 22.552 63.592 22.552C64.4 22.552 65.06 22.756 65.572 23.164C66.092 23.564 66.38 24.116 66.436 24.82H64.924C64.9 24.516 64.756 24.256 64.492 24.04C64.228 23.824 63.88 23.716 63.448 23.716C63.056 23.716 62.736 23.816 62.488 24.016C62.24 24.216 62.116 24.504 62.116 24.88C62.116 25.136 62.192 25.348 62.344 25.516C62.504 25.676 62.704 25.804 62.944 25.9C63.184 25.996 63.512 26.1 63.928 26.212C64.48 26.364 64.928 26.516 65.272 26.668C65.624 26.82 65.92 27.056 66.16 27.376C66.408 27.688 66.532 28.108 66.532 28.636C66.532 29.06 66.416 29.46 66.184 29.836C65.96 30.212 65.628 30.516 65.188 30.748C64.756 30.972 64.244 31.084 63.652 31.084Z" fill="black"/>
<path d="M74.8062 22.66V31H73.4382V27.352H69.5142V31H68.1462V22.66H69.5142V26.236H73.4382V22.66H74.8062Z" fill="black"/>
<path d="M37.76 220.66L35.288 229H33.74L31.988 222.688L30.128 229L28.592 229.012L26.228 220.66H27.68L29.408 227.452L31.28 220.66H32.816L34.556 227.416L36.296 220.66H37.76Z" fill="#2F302F"/>
<path d="M40.2563 220.66V229H38.8883V220.66H40.2563Z" fill="#2F302F"/>
<path d="M47.4404 220.66V221.776H45.2204V229H43.8524V221.776H41.6204V220.66H47.4404Z" fill="#2F302F"/>
<path d="M55.4858 220.66V229H54.1178V225.352H50.1938V229H48.8258V220.66H50.1938V224.236H54.1178V220.66H55.4858Z" fill="#2F302F"/>
<path d="M61.0907 229.084C60.3147 229.084 59.5987 228.904 58.9427 228.544C58.2947 228.176 57.7787 227.668 57.3947 227.02C57.0187 226.364 56.8307 225.628 56.8307 224.812C56.8307 223.996 57.0187 223.264 57.3947 222.616C57.7787 221.968 58.2947 221.464 58.9427 221.104C59.5987 220.736 60.3147 220.552 61.0907 220.552C61.8747 220.552 62.5907 220.736 63.2387 221.104C63.8947 221.464 64.4107 221.968 64.7867 222.616C65.1627 223.264 65.3507 223.996 65.3507 224.812C65.3507 225.628 65.1627 226.364 64.7867 227.02C64.4107 227.668 63.8947 228.176 63.2387 228.544C62.5907 228.904 61.8747 229.084 61.0907 229.084ZM61.0907 227.896C61.6427 227.896 62.1347 227.772 62.5667 227.524C62.9987 227.268 63.3347 226.908 63.5747 226.444C63.8227 225.972 63.9467 225.428 63.9467 224.812C63.9467 224.196 63.8227 223.656 63.5747 223.192C63.3347 222.728 62.9987 222.372 62.5667 222.124C62.1347 221.876 61.6427 221.752 61.0907 221.752C60.5387 221.752 60.0467 221.876 59.6147 222.124C59.1827 222.372 58.8427 222.728 58.5947 223.192C58.3547 223.656 58.2347 224.196 58.2347 224.812C58.2347 225.428 58.3547 225.972 58.5947 226.444C58.8427 226.908 59.1827 227.268 59.6147 227.524C60.0467 227.772 60.5387 227.896 61.0907 227.896Z" fill="#2F302F"/>
<path d="M68.0529 220.66V225.976C68.0529 226.608 68.2169 227.084 68.5449 227.404C68.8809 227.724 69.3449 227.884 69.9369 227.884C70.5369 227.884 71.0009 227.724 71.3289 227.404C71.6649 227.084 71.8329 226.608 71.8329 225.976V220.66H73.2009V225.952C73.2009 226.632 73.0529 227.208 72.7569 227.68C72.4609 228.152 72.0649 228.504 71.5689 228.736C71.0729 228.968 70.5249 229.084 69.9249 229.084C69.3249 229.084 68.7769 228.968 68.2809 228.736C67.7929 228.504 67.4049 228.152 67.1169 227.68C66.8289 227.208 66.6849 226.632 66.6849 225.952V220.66H68.0529Z" fill="#2F302F"/>
<path d="M80.3701 220.66V221.776H78.1501V229H76.7821V221.776H74.5501V220.66H80.3701Z" fill="#2F302F"/>
<path d="M84.6687 222.412C84.7167 221.668 85.0007 221.088 85.5207 220.672C86.0487 220.256 86.7207 220.048 87.5367 220.048C88.0967 220.048 88.5807 220.148 88.9887 220.348C89.3967 220.548 89.7047 220.82 89.9127 221.164C90.1207 221.508 90.2247 221.896 90.2247 222.328C90.2247 222.824 90.0927 223.248 89.8287 223.6C89.5647 223.952 89.2487 224.188 88.8807 224.308V224.356C89.3527 224.5 89.7207 224.764 89.9847 225.148C90.2487 225.524 90.3807 226.008 90.3807 226.6C90.3807 227.072 90.2727 227.492 90.0567 227.86C89.8407 228.228 89.5207 228.52 89.0967 228.736C88.6727 228.944 88.1647 229.048 87.5727 229.048C86.7087 229.048 85.9967 228.828 85.4367 228.388C84.8847 227.94 84.5887 227.3 84.5487 226.468H85.8687C85.9007 226.892 86.0647 227.24 86.3607 227.512C86.6567 227.776 87.0567 227.908 87.5607 227.908C88.0487 227.908 88.4247 227.776 88.6887 227.512C88.9527 227.24 89.0847 226.892 89.0847 226.468C89.0847 225.908 88.9047 225.512 88.5447 225.28C88.1927 225.04 87.6487 224.92 86.9127 224.92H86.6007V223.792H86.9247C87.5727 223.784 88.0647 223.676 88.4007 223.468C88.7447 223.26 88.9167 222.932 88.9167 222.484C88.9167 222.1 88.7927 221.796 88.5447 221.572C88.2967 221.34 87.9447 221.224 87.4887 221.224C87.0407 221.224 86.6927 221.34 86.4447 221.572C86.1967 221.796 86.0487 222.076 86.0007 222.412H84.6687Z" fill="#2F302F"/>
<path d="M92.5737 227.14C93.3417 226.476 93.9457 225.932 94.3857 225.508C94.8337 225.076 95.2057 224.628 95.5017 224.164C95.7977 223.7 95.9457 223.236 95.9457 222.772C95.9457 222.292 95.8297 221.916 95.5977 221.644C95.3737 221.372 95.0177 221.236 94.5297 221.236C94.0577 221.236 93.6897 221.388 93.4257 221.692C93.1697 221.988 93.0337 222.388 93.0177 222.892H91.6977C91.7217 221.98 91.9937 221.284 92.5137 220.804C93.0417 220.316 93.7097 220.072 94.5177 220.072C95.3897 220.072 96.0697 220.312 96.5577 220.792C97.0537 221.272 97.3017 221.912 97.3017 222.712C97.3017 223.288 97.1537 223.844 96.8577 224.38C96.5697 224.908 96.2217 225.384 95.8137 225.808C95.4137 226.224 94.9017 226.708 94.2777 227.26L93.7377 227.74H97.5417V228.88H91.7097V227.884L92.5737 227.14Z" fill="#2F302F"/>
<path d="M98.5635 221.5V220.252H101.059V229H99.6795V221.5H98.5635Z" fill="#2F302F"/>
<path d="M171.76 220.66L169.288 229H167.74L165.988 222.688L164.128 229L162.592 229.012L160.228 220.66H161.68L163.408 227.452L165.28 220.66H166.816L168.556 227.416L170.296 220.66H171.76Z" fill="#2F302F"/>
<path d="M174.256 220.66V229H172.888V220.66H174.256Z" fill="#2F302F"/>
<path d="M181.44 220.66V221.776H179.22V229H177.852V221.776H175.62V220.66H181.44Z" fill="#2F302F"/>
<path d="M189.486 220.66V229H188.118V225.352H184.194V229H182.826V220.66H184.194V224.236H188.118V220.66H189.486Z" fill="#2F302F"/>
<path d="M194.2 222.412C194.248 221.668 194.532 221.088 195.052 220.672C195.58 220.256 196.252 220.048 197.068 220.048C197.628 220.048 198.112 220.148 198.52 220.348C198.928 220.548 199.236 220.82 199.444 221.164C199.652 221.508 199.756 221.896 199.756 222.328C199.756 222.824 199.624 223.248 199.36 223.6C199.096 223.952 198.78 224.188 198.412 224.308V224.356C198.884 224.5 199.252 224.764 199.516 225.148C199.78 225.524 199.912 226.008 199.912 226.6C199.912 227.072 199.804 227.492 199.588 227.86C199.372 228.228 199.052 228.52 198.628 228.736C198.204 228.944 197.696 229.048 197.104 229.048C196.24 229.048 195.528 228.828 194.968 228.388C194.416 227.94 194.12 227.3 194.08 226.468H195.4C195.432 226.892 195.596 227.24 195.892 227.512C196.188 227.776 196.588 227.908 197.092 227.908C197.58 227.908 197.956 227.776 198.22 227.512C198.484 227.24 198.616 226.892 198.616 226.468C198.616 225.908 198.436 225.512 198.076 225.28C197.724 225.04 197.18 224.92 196.444 224.92H196.132V223.792H196.456C197.104 223.784 197.596 223.676 197.932 223.468C198.276 223.26 198.448 222.932 198.448 222.484C198.448 222.1 198.324 221.796 198.076 221.572C197.828 221.34 197.476 221.224 197.02 221.224C196.572 221.224 196.224 221.34 195.976 221.572C195.728 221.796 195.58 222.076 195.532 222.412H194.2Z" fill="#2F302F"/>
<path d="M202.105 227.14C202.873 226.476 203.477 225.932 203.917 225.508C204.365 225.076 204.737 224.628 205.033 224.164C205.329 223.7 205.477 223.236 205.477 222.772C205.477 222.292 205.361 221.916 205.129 221.644C204.905 221.372 204.549 221.236 204.061 221.236C203.589 221.236 203.221 221.388 202.957 221.692C202.701 221.988 202.565 222.388 202.549 222.892H201.229C201.253 221.98 201.525 221.284 202.045 220.804C202.573 220.316 203.241 220.072 204.049 220.072C204.921 220.072 205.601 220.312 206.089 220.792C206.585 221.272 206.833 221.912 206.833 222.712C206.833 223.288 206.685 223.844 206.389 224.38C206.101 224.908 205.753 225.384 205.345 225.808C204.945 226.224 204.433 226.708 203.809 227.26L203.269 227.74H207.073V228.88H201.241V227.884L202.105 227.14Z" fill="#2F302F"/>
<path d="M208.095 221.5V220.252H210.591V229H209.211V221.5H208.095Z" fill="#2F302F"/>
<path d="M86.476 51.14C87.244 50.476 87.848 49.932 88.288 49.508C88.736 49.076 89.108 48.628 89.404 48.164C89.7 47.7 89.848 47.236 89.848 46.772C89.848 46.292 89.732 45.916 89.5 45.644C89.276 45.372 88.92 45.236 88.432 45.236C87.96 45.236 87.592 45.388 87.328 45.692C87.072 45.988 86.936 46.388 86.92 46.892H85.6C85.624 45.98 85.896 45.284 86.416 44.804C86.944 44.316 87.612 44.072 88.42 44.072C89.292 44.072 89.972 44.312 90.46 44.792C90.956 45.272 91.204 45.912 91.204 46.712C91.204 47.288 91.056 47.844 90.76 48.38C90.472 48.908 90.124 49.384 89.716 49.808C89.316 50.224 88.804 50.708 88.18 51.26L87.64 51.74H91.444V52.88H85.612V51.884L86.476 51.14ZM98.2858 45.428H94.2658V47.816C94.4338 47.592 94.6818 47.404 95.0098 47.252C95.3458 47.1 95.7018 47.024 96.0778 47.024C96.7498 47.024 97.2938 47.168 97.7098 47.456C98.1338 47.744 98.4338 48.108 98.6098 48.548C98.7938 48.988 98.8858 49.452 98.8858 49.94C98.8858 50.532 98.7698 51.06 98.5378 51.524C98.3138 51.98 97.9738 52.34 97.5178 52.604C97.0698 52.868 96.5178 53 95.8618 53C94.9898 53 94.2898 52.784 93.7618 52.352C93.2338 51.92 92.9178 51.348 92.8138 50.636H94.1458C94.2338 51.012 94.4298 51.312 94.7338 51.536C95.0378 51.752 95.4178 51.86 95.8738 51.86C96.4418 51.86 96.8658 51.688 97.1458 51.344C97.4338 51 97.5778 50.544 97.5778 49.976C97.5778 49.4 97.4338 48.96 97.1458 48.656C96.8578 48.344 96.4338 48.188 95.8738 48.188C95.4818 48.188 95.1498 48.288 94.8778 48.488C94.6138 48.68 94.4218 48.944 94.3018 49.28H93.0058V44.228H98.2858V45.428ZM100.094 46.364C100.094 45.78 100.262 45.324 100.598 44.996C100.942 44.66 101.382 44.492 101.918 44.492C102.454 44.492 102.89 44.66 103.226 44.996C103.57 45.324 103.742 45.78 103.742 46.364C103.742 46.948 103.57 47.408 103.226 47.744C102.89 48.08 102.454 48.248 101.918 48.248C101.382 48.248 100.942 48.08 100.598 47.744C100.262 47.408 100.094 46.948 100.094 46.364ZM107.414 44.648L102.626 53H101.282L106.07 44.648H107.414ZM101.918 45.32C101.414 45.32 101.162 45.668 101.162 46.364C101.162 47.068 101.414 47.42 101.918 47.42C102.158 47.42 102.342 47.336 102.47 47.168C102.606 46.992 102.674 46.724 102.674 46.364C102.674 45.668 102.422 45.32 101.918 45.32ZM104.978 51.272C104.978 50.688 105.146 50.232 105.482 49.904C105.826 49.568 106.266 49.4 106.802 49.4C107.33 49.4 107.762 49.568 108.098 49.904C108.442 50.232 108.614 50.688 108.614 51.272C108.614 51.856 108.442 52.316 108.098 52.652C107.762 52.988 107.33 53.156 106.802 53.156C106.266 53.156 105.826 52.988 105.482 52.652C105.146 52.316 104.978 51.856 104.978 51.272ZM106.79 50.228C106.286 50.228 106.034 50.576 106.034 51.272C106.034 51.968 106.286 52.316 106.79 52.316C107.294 52.316 107.546 51.968 107.546 51.272C107.546 50.576 107.294 50.228 106.79 50.228Z" fill="#87BEFD"/>
<path d="M193.424 68.28C193.336 67.912 193.176 67.636 192.944 67.452C192.712 67.268 192.388 67.176 191.972 67.176C191.34 67.176 190.868 67.42 190.556 67.908C190.244 68.388 190.08 69.188 190.064 70.308C190.272 69.956 190.576 69.684 190.976 69.492C191.376 69.3 191.808 69.204 192.272 69.204C192.8 69.204 193.264 69.32 193.664 69.552C194.072 69.776 194.388 70.104 194.612 70.536C194.844 70.968 194.96 71.484 194.96 72.084C194.96 72.644 194.848 73.144 194.624 73.584C194.408 74.024 194.084 74.372 193.652 74.628C193.22 74.876 192.7 75 192.092 75C191.268 75 190.62 74.82 190.148 74.46C189.684 74.092 189.356 73.576 189.164 72.912C188.98 72.248 188.888 71.42 188.888 70.428C188.888 67.5 189.92 66.036 191.984 66.036C192.784 66.036 193.412 66.252 193.868 66.684C194.332 67.116 194.604 67.648 194.684 68.28H193.424ZM191.972 70.356C191.484 70.356 191.068 70.504 190.724 70.8C190.388 71.088 190.22 71.508 190.22 72.06C190.22 72.612 190.376 73.052 190.688 73.38C191.008 73.7 191.452 73.86 192.02 73.86C192.524 73.86 192.92 73.704 193.208 73.392C193.504 73.08 193.652 72.664 193.652 72.144C193.652 71.6 193.508 71.168 193.22 70.848C192.94 70.52 192.524 70.356 191.972 70.356ZM196.395 68.412C196.443 67.668 196.727 67.088 197.247 66.672C197.775 66.256 198.447 66.048 199.263 66.048C199.823 66.048 200.307 66.148 200.715 66.348C201.123 66.548 201.431 66.82 201.639 67.164C201.847 67.508 201.951 67.896 201.951 68.328C201.951 68.824 201.819 69.248 201.555 69.6C201.291 69.952 200.975 70.188 200.607 70.308V70.356C201.079 70.5 201.447 70.764 201.711 71.148C201.975 71.524 202.107 72.008 202.107 72.6C202.107 73.072 201.999 73.492 201.783 73.86C201.567 74.228 201.247 74.52 200.823 74.736C200.399 74.944 199.891 75.048 199.299 75.048C198.435 75.048 197.723 74.828 197.163 74.388C196.611 73.94 196.315 73.3 196.275 72.468H197.595C197.627 72.892 197.791 73.24 198.087 73.512C198.383 73.776 198.783 73.908 199.287 73.908C199.775 73.908 200.151 73.776 200.415 73.512C200.679 73.24 200.811 72.892 200.811 72.468C200.811 71.908 200.631 71.512 200.271 71.28C199.919 71.04 199.375 70.92 198.639 70.92H198.327V69.792H198.651C199.299 69.784 199.791 69.676 200.127 69.468C200.471 69.26 200.643 68.932 200.643 68.484C200.643 68.1 200.519 67.796 200.271 67.572C200.023 67.34 199.671 67.224 199.215 67.224C198.767 67.224 198.419 67.34 198.171 67.572C197.923 67.796 197.775 68.076 197.727 68.412H196.395ZM203.328 68.364C203.328 67.78 203.496 67.324 203.832 66.996C204.176 66.66 204.616 66.492 205.152 66.492C205.688 66.492 206.124 66.66 206.46 66.996C206.804 67.324 206.976 67.78 206.976 68.364C206.976 68.948 206.804 69.408 206.46 69.744C206.124 70.08 205.688 70.248 205.152 70.248C204.616 70.248 204.176 70.08 203.832 69.744C203.496 69.408 203.328 68.948 203.328 68.364ZM210.648 66.648L205.86 75H204.516L209.304 66.648H210.648ZM205.152 67.32C204.648 67.32 204.396 67.668 204.396 68.364C204.396 69.068 204.648 69.42 205.152 69.42C205.392 69.42 205.576 69.336 205.704 69.168C205.84 68.992 205.908 68.724 205.908 68.364C205.908 67.668 205.656 67.32 205.152 67.32ZM208.212 73.272C208.212 72.688 208.38 72.232 208.716 71.904C209.06 71.568 209.5 71.4 210.036 71.4C210.564 71.4 210.996 71.568 211.332 71.904C211.676 72.232 211.848 72.688 211.848 73.272C211.848 73.856 211.676 74.316 211.332 74.652C210.996 74.988 210.564 75.156 210.036 75.156C209.5 75.156 209.06 74.988 208.716 74.652C208.38 74.316 208.212 73.856 208.212 73.272ZM210.024 72.228C209.52 72.228 209.268 72.576 209.268 73.272C209.268 73.968 209.52 74.316 210.024 74.316C210.528 74.316 210.78 73.968 210.78 73.272C210.78 72.576 210.528 72.228 210.024 72.228Z" fill="#87BEFD"/>
<path fill-rule="evenodd" clip-rule="evenodd" d="M0 60H81V40H0V60Z" fill="#D1E6FE"/>
<path fill-rule="evenodd" clip-rule="evenodd" d="M0 80H181V60H0V80Z" fill="#87BEFD"/>
<path d="M7.93609 115.06C7.72009 114.644 7.42009 114.332 7.03609 114.124C6.65209 113.908 6.20809 113.8 5.70409 113.8C5.15209 113.8 4.66009 113.924 4.22809 114.172C3.79609 114.42 3.45609 114.772 3.20809 115.228C2.96809 115.684 2.84809 116.212 2.84809 116.812C2.84809 117.412 2.96809 117.944 3.20809 118.408C3.45609 118.864 3.79609 119.216 4.22809 119.464C4.66009 119.712 5.15209 119.836 5.70409 119.836C6.44809 119.836 7.05209 119.628 7.51609 119.212C7.98009 118.796 8.26409 118.232 8.36809 117.52H5.23609V116.428H9.83209V117.496C9.74409 118.144 9.51209 118.74 9.13609 119.284C8.76809 119.828 8.28409 120.264 7.68409 120.592C7.09209 120.912 6.43209 121.072 5.70409 121.072C4.92009 121.072 4.20409 120.892 3.55609 120.532C2.90809 120.164 2.39209 119.656 2.00809 119.008C1.63209 118.36 1.44409 117.628 1.44409 116.812C1.44409 115.996 1.63209 115.264 2.00809 114.616C2.39209 113.968 2.90809 113.464 3.55609 113.104C4.21209 112.736 4.92809 112.552 5.70409 112.552C6.59209 112.552 7.38009 112.772 8.06809 113.212C8.76409 113.644 9.26809 114.26 9.58009 115.06H7.93609Z" fill="black"/>
<path d="M15.5133 121L13.5933 117.664H12.5493V121H11.1813V112.66H14.0613C14.7013 112.66 15.2413 112.772 15.6813 112.996C16.1293 113.22 16.4613 113.52 16.6773 113.896C16.9013 114.272 17.0133 114.692 17.0133 115.156C17.0133 115.7 16.8533 116.196 16.5333 116.644C16.2213 117.084 15.7373 117.384 15.0813 117.544L17.1453 121H15.5133ZM12.5493 116.572H14.0613C14.5733 116.572 14.9573 116.444 15.2133 116.188C15.4773 115.932 15.6093 115.588 15.6093 115.156C15.6093 114.724 15.4813 114.388 15.2253 114.148C14.9693 113.9 14.5813 113.776 14.0613 113.776H12.5493V116.572Z" fill="black"/>
<path d="M23.7914 119.296H20.2994L19.6994 121H18.2714L21.2594 112.648H22.8434L25.8314 121H24.3914L23.7914 119.296ZM23.4074 118.18L22.0514 114.304L20.6834 118.18H23.4074Z" fill="black"/>
<path d="M29.8546 112.66C30.7426 112.66 31.5186 112.832 32.1826 113.176C32.8546 113.512 33.3706 114 33.7306 114.64C34.0986 115.272 34.2826 116.012 34.2826 116.86C34.2826 117.708 34.0986 118.444 33.7306 119.068C33.3706 119.692 32.8546 120.172 32.1826 120.508C31.5186 120.836 30.7426 121 29.8546 121H27.1306V112.66H29.8546ZM29.8546 119.884C30.8306 119.884 31.5786 119.62 32.0986 119.092C32.6186 118.564 32.8786 117.82 32.8786 116.86C32.8786 115.892 32.6186 115.136 32.0986 114.592C31.5786 114.048 30.8306 113.776 29.8546 113.776H28.4986V119.884H29.8546Z" fill="black"/>
<path d="M37.0064 113.764V116.212H39.8864V117.328H37.0064V119.884H40.2464V121H35.6384V112.648H40.2464V113.764H37.0064Z" fill="black"/>
<path d="M50.0765 119.296H46.5845L45.9845 121H44.5565L47.5445 112.648H49.1285L52.1165 121H50.6765L50.0765 119.296ZM49.6925 118.18L48.3365 114.304L46.9685 118.18H49.6925Z" fill="black"/>
<path d="M59.2477 115.144C59.2477 115.568 59.1477 115.968 58.9477 116.344C58.7477 116.72 58.4277 117.028 57.9877 117.268C57.5477 117.5 56.9837 117.616 56.2957 117.616H54.7837V121H53.4157V112.66H56.2957C56.9357 112.66 57.4757 112.772 57.9157 112.996C58.3637 113.212 58.6957 113.508 58.9117 113.884C59.1357 114.26 59.2477 114.68 59.2477 115.144ZM56.2957 116.5C56.8157 116.5 57.2037 116.384 57.4597 116.152C57.7157 115.912 57.8437 115.576 57.8437 115.144C57.8437 114.232 57.3277 113.776 56.2957 113.776H54.7837V116.5H56.2957Z" fill="black"/>
<path d="M66.3844 115.144C66.3844 115.568 66.2844 115.968 66.0844 116.344C65.8844 116.72 65.5644 117.028 65.1244 117.268C64.6844 117.5 64.1204 117.616 63.4324 117.616H61.9204V121H60.5524V112.66H63.4324C64.0724 112.66 64.6124 112.772 65.0524 112.996C65.5004 113.212 65.8324 113.508 66.0484 113.884C66.2724 114.26 66.3844 114.68 66.3844 115.144ZM63.4324 116.5C63.9524 116.5 64.3404 116.384 64.5964 116.152C64.8524 115.912 64.9804 115.576 64.9804 115.144C64.9804 114.232 64.4644 113.776 63.4324 113.776H61.9204V116.5H63.4324Z" fill="black"/>
<path d="M72.0212 121L70.1012 117.664H69.0572V121H67.6892V112.66H70.5692C71.2092 112.66 71.7492 112.772 72.1892 112.996C72.6372 113.22 72.9692 113.52 73.1852 113.896C73.4092 114.272 73.5212 114.692 73.5212 115.156C73.5212 115.7 73.3612 116.196 73.0412 116.644C72.7292 117.084 72.2452 117.384 71.5892 117.544L73.6532 121H72.0212ZM69.0572 116.572H70.5692C71.0812 116.572 71.4652 116.444 71.7212 116.188C71.9852 115.932 72.1172 115.588 72.1172 115.156C72.1172 114.724 71.9892 114.388 71.7332 114.148C71.4772 113.9 71.0892 113.776 70.5692 113.776H69.0572V116.572Z" fill="black"/>
<path d="M79.0752 121.084C78.2992 121.084 77.5832 120.904 76.9272 120.544C76.2792 120.176 75.7632 119.668 75.3792 119.02C75.0032 118.364 74.8152 117.628 74.8152 116.812C74.8152 115.996 75.0032 115.264 75.3792 114.616C75.7632 113.968 76.2792 113.464 76.9272 113.104C77.5832 112.736 78.2992 112.552 79.0752 112.552C79.8592 112.552 80.5752 112.736 81.2232 113.104C81.8792 113.464 82.3952 113.968 82.7712 114.616C83.1472 115.264 83.3352 115.996 83.3352 116.812C83.3352 117.628 83.1472 118.364 82.7712 119.02C82.3952 119.668 81.8792 120.176 81.2232 120.544C80.5752 120.904 79.8592 121.084 79.0752 121.084ZM79.0752 119.896C79.6272 119.896 80.1192 119.772 80.5512 119.524C80.9832 119.268 81.3192 118.908 81.5592 118.444C81.8072 117.972 81.9312 117.428 81.9312 116.812C81.9312 116.196 81.8072 115.656 81.5592 115.192C81.3192 114.728 80.9832 114.372 80.5512 114.124C80.1192 113.876 79.6272 113.752 79.0752 113.752C78.5232 113.752 78.0312 113.876 77.5992 114.124C77.1672 114.372 76.8272 114.728 76.5792 115.192C76.3392 115.656 76.2192 116.196 76.2192 116.812C76.2192 117.428 76.3392 117.972 76.5792 118.444C76.8272 118.908 77.1672 119.268 77.5992 119.524C78.0312 119.772 78.5232 119.896 79.0752 119.896Z" fill="black"/>
<path d="M90.5133 115.144C90.5133 115.568 90.4133 115.968 90.2133 116.344C90.0133 116.72 89.6933 117.028 89.2533 117.268C88.8133 117.5 88.2493 117.616 87.5613 117.616H86.0493V121H84.6813V112.66H87.5613C88.2013 112.66 88.7413 112.772 89.1813 112.996C89.6293 113.212 89.9613 113.508 90.1773 113.884C90.4013 114.26 90.5133 114.68 90.5133 115.144ZM87.5613 116.5C88.0813 116.5 88.4693 116.384 88.7253 116.152C88.9813 115.912 89.1093 115.576 89.1093 115.144C89.1093 114.232 88.5933 113.776 87.5613 113.776H86.0493V116.5H87.5613Z" fill="black"/>
<path d="M96.1501 121L94.2301 117.664H93.1861V121H91.8181V112.66H94.6981C95.3381 112.66 95.8781 112.772 96.3181 112.996C96.7661 113.22 97.0981 113.52 97.3141 113.896C97.5381 114.272 97.6501 114.692 97.6501 115.156C97.6501 115.7 97.4901 116.196 97.1701 116.644C96.8581 117.084 96.3741 117.384 95.7181 117.544L97.7821 121H96.1501ZM93.1861 116.572H94.6981C95.2101 116.572 95.5941 116.444 95.8501 116.188C96.1141 115.932 96.2461 115.588 96.2461 115.156C96.2461 114.724 96.1181 114.388 95.8621 114.148C95.6061 113.9 95.2181 113.776 94.6981 113.776H93.1861V116.572Z" fill="black"/>
<path d="M100.768 112.66V121H99.4001V112.66H100.768Z" fill="black"/>
<path d="M107.592 119.296H104.1L103.5 121H102.072L105.06 112.648H106.644L109.632 121H108.192L107.592 119.296ZM107.208 118.18L105.852 114.304L104.484 118.18H107.208Z" fill="black"/>
<path d="M116.319 112.66V113.776H114.099V121H112.731V113.776H110.499V112.66H116.319Z" fill="black"/>
<path d="M119.073 113.764V116.212H121.953V117.328H119.073V119.884H122.313V121H117.705V112.648H122.313V113.764H119.073Z" fill="black"/>
<path d="M129.863 121.084C129.303 121.084 128.799 120.988 128.351 120.796C127.903 120.596 127.551 120.316 127.295 119.956C127.039 119.596 126.911 119.176 126.911 118.696H128.375C128.407 119.056 128.547 119.352 128.795 119.584C129.051 119.816 129.407 119.932 129.863 119.932C130.335 119.932 130.703 119.82 130.967 119.596C131.231 119.364 131.363 119.068 131.363 118.708C131.363 118.428 131.279 118.2 131.111 118.024C130.951 117.848 130.747 117.712 130.499 117.616C130.259 117.52 129.923 117.416 129.491 117.304C128.947 117.16 128.503 117.016 128.159 116.872C127.823 116.72 127.535 116.488 127.295 116.176C127.055 115.864 126.935 115.448 126.935 114.928C126.935 114.448 127.055 114.028 127.295 113.668C127.535 113.308 127.871 113.032 128.303 112.84C128.735 112.648 129.235 112.552 129.803 112.552C130.611 112.552 131.271 112.756 131.783 113.164C132.303 113.564 132.591 114.116 132.647 114.82H131.135C131.111 114.516 130.967 114.256 130.703 114.04C130.439 113.824 130.091 113.716 129.659 113.716C129.267 113.716 128.947 113.816 128.699 114.016C128.451 114.216 128.327 114.504 128.327 114.88C128.327 115.136 128.403 115.348 128.555 115.516C128.715 115.676 128.915 115.804 129.155 115.9C129.395 115.996 129.723 116.1 130.139 116.212C130.691 116.364 131.139 116.516 131.483 116.668C131.835 116.82 132.131 117.056 132.371 117.376C132.619 117.688 132.743 118.108 132.743 118.636C132.743 119.06 132.627 119.46 132.395 119.836C132.171 120.212 131.839 120.516 131.399 120.748C130.967 120.972 130.455 121.084 129.863 121.084Z" fill="black"/>
<path d="M138.953 121L135.725 117.268V121H134.357V112.66H135.725V116.464L138.965 112.66H140.681L137.057 116.836L140.741 121H138.953Z" fill="black"/>
<path d="M143.319 112.66V121H141.951V112.66H143.319Z" fill="black"/>
<path d="M146.483 119.896H149.303V121H145.115V112.66H146.483V119.896Z" fill="black"/>
<path d="M151.815 119.896H154.635V121H150.447V112.66H151.815V119.896Z" fill="black"/>
<path d="M158.527 121.084C157.967 121.084 157.463 120.988 157.015 120.796C156.567 120.596 156.215 120.316 155.959 119.956C155.703 119.596 155.575 119.176 155.575 118.696H157.039C157.071 119.056 157.211 119.352 157.459 119.584C157.715 119.816 158.071 119.932 158.527 119.932C158.999 119.932 159.367 119.82 159.631 119.596C159.895 119.364 160.027 119.068 160.027 118.708C160.027 118.428 159.943 118.2 159.775 118.024C159.615 117.848 159.411 117.712 159.163 117.616C158.923 117.52 158.587 117.416 158.155 117.304C157.611 117.16 157.167 117.016 156.823 116.872C156.487 116.72 156.199 116.488 155.959 116.176C155.719 115.864 155.599 115.448 155.599 114.928C155.599 114.448 155.719 114.028 155.959 113.668C156.199 113.308 156.535 113.032 156.967 112.84C157.399 112.648 157.899 112.552 158.467 112.552C159.275 112.552 159.935 112.756 160.447 113.164C160.967 113.564 161.255 114.116 161.311 114.82H159.799C159.775 114.516 159.631 114.256 159.367 114.04C159.103 113.824 158.755 113.716 158.323 113.716C157.931 113.716 157.611 113.816 157.363 114.016C157.115 114.216 156.991 114.504 156.991 114.88C156.991 115.136 157.067 115.348 157.219 115.516C157.379 115.676 157.579 115.804 157.819 115.9C158.059 115.996 158.387 116.1 158.803 116.212C159.355 116.364 159.803 116.516 160.147 116.668C160.499 116.82 160.795 117.056 161.035 117.376C161.283 117.688 161.407 118.108 161.407 118.636C161.407 119.06 161.291 119.46 161.059 119.836C160.835 120.212 160.503 120.516 160.063 120.748C159.631 120.972 159.119 121.084 158.527 121.084Z" fill="black"/>
<path d="M6.80809 130.66V131.776H3.26809V134.236H6.02809V135.352H3.26809V139H1.90009V130.66H6.80809Z" fill="black"/>
<path d="M11.8799 139.084C11.1039 139.084 10.3879 138.904 9.73187 138.544C9.08387 138.176 8.56787 137.668 8.18387 137.02C7.80787 136.364 7.61987 135.628 7.61987 134.812C7.61987 133.996 7.80787 133.264 8.18387 132.616C8.56787 131.968 9.08387 131.464 9.73187 131.104C10.3879 130.736 11.1039 130.552 11.8799 130.552C12.6639 130.552 13.3799 130.736 14.0279 131.104C14.6839 131.464 15.1999 131.968 15.5759 132.616C15.9519 133.264 16.1399 133.996 16.1399 134.812C16.1399 135.628 15.9519 136.364 15.5759 137.02C15.1999 137.668 14.6839 138.176 14.0279 138.544C13.3799 138.904 12.6639 139.084 11.8799 139.084ZM11.8799 137.896C12.4319 137.896 12.9239 137.772 13.3559 137.524C13.7879 137.268 14.1239 136.908 14.3639 136.444C14.6119 135.972 14.7359 135.428 14.7359 134.812C14.7359 134.196 14.6119 133.656 14.3639 133.192C14.1239 132.728 13.7879 132.372 13.3559 132.124C12.9239 131.876 12.4319 131.752 11.8799 131.752C11.3279 131.752 10.8359 131.876 10.4039 132.124C9.97187 132.372 9.63187 132.728 9.38387 133.192C9.14387 133.656 9.02387 134.196 9.02387 134.812C9.02387 135.428 9.14387 135.972 9.38387 136.444C9.63187 136.908 9.97187 137.268 10.4039 137.524C10.8359 137.772 11.3279 137.896 11.8799 137.896Z" fill="black"/>
<path d="M21.818 139L19.898 135.664H18.854V139H17.486V130.66H20.366C21.006 130.66 21.546 130.772 21.986 130.996C22.434 131.22 22.766 131.52 22.982 131.896C23.206 132.272 23.318 132.692 23.318 133.156C23.318 133.7 23.158 134.196 22.838 134.644C22.526 135.084 22.042 135.384 21.386 135.544L23.45 139H21.818ZM18.854 134.572H20.366C20.878 134.572 21.262 134.444 21.518 134.188C21.782 133.932 21.914 133.588 21.914 133.156C21.914 132.724 21.786 132.388 21.53 132.148C21.274 131.9 20.886 131.776 20.366 131.776H18.854V134.572Z" fill="black"/>
<path d="M36.9692 130.66V139H35.6012V133.288L33.0572 139H32.1092L29.5532 133.288V139H28.1852V130.66H29.6612L32.5892 137.2L35.5052 130.66H36.9692Z" fill="black"/>
<path d="M43.7953 137.296H40.3033L39.7033 139H38.2753L41.2633 130.648H42.8473L45.8353 139H44.3953L43.7953 137.296ZM43.4113 136.18L42.0553 132.304L40.6873 136.18H43.4113Z" fill="black"/>
<path d="M52.5225 130.66V131.776H50.3025V139H48.9345V131.776H46.7025V130.66H52.5225Z" fill="black"/>
<path d="M60.5679 130.66V139H59.1999V135.352H55.2759V139H53.9079V130.66H55.2759V134.236H59.1999V130.66H60.5679Z" fill="black"/>
<path d="M65.1168 139.084C64.5568 139.084 64.0528 138.988 63.6048 138.796C63.1568 138.596 62.8048 138.316 62.5488 137.956C62.2928 137.596 62.1648 137.176 62.1648 136.696H63.6288C63.6608 137.056 63.8008 137.352 64.0488 137.584C64.3048 137.816 64.6608 137.932 65.1168 137.932C65.5888 137.932 65.9568 137.82 66.2208 137.596C66.4848 137.364 66.6168 137.068 66.6168 136.708C66.6168 136.428 66.5328 136.2 66.3648 136.024C66.2048 135.848 66.0008 135.712 65.7528 135.616C65.5128 135.52 65.1768 135.416 64.7448 135.304C64.2008 135.16 63.7568 135.016 63.4128 134.872C63.0768 134.72 62.7888 134.488 62.5488 134.176C62.3088 133.864 62.1888 133.448 62.1888 132.928C62.1888 132.448 62.3088 132.028 62.5488 131.668C62.7888 131.308 63.1248 131.032 63.5568 130.84C63.9888 130.648 64.4888 130.552 65.0568 130.552C65.8648 130.552 66.5248 130.756 67.0368 131.164C67.5568 131.564 67.8448 132.116 67.9008 132.82H66.3888C66.3648 132.516 66.2208 132.256 65.9568 132.04C65.6928 131.824 65.3448 131.716 64.9128 131.716C64.5208 131.716 64.2008 131.816 63.9528 132.016C63.7048 132.216 63.5808 132.504 63.5808 132.88C63.5808 133.136 63.6568 133.348 63.8088 133.516C63.9688 133.676 64.1688 133.804 64.4088 133.9C64.6488 133.996 64.9768 134.1 65.3928 134.212C65.9448 134.364 66.3928 134.516 66.7368 134.668C67.0888 134.82 67.3848 135.056 67.6248 135.376C67.8728 135.688 67.9968 136.108 67.9968 136.636C67.9968 137.06 67.8808 137.46 67.6488 137.836C67.4248 138.212 67.0928 138.516 66.6528 138.748C66.2208 138.972 65.7088 139.084 65.1168 139.084Z" fill="black"/>
<path d="M86.476 159.14C87.244 158.476 87.848 157.932 88.288 157.508C88.736 157.076 89.108 156.628 89.404 156.164C89.7 155.7 89.848 155.236 89.848 154.772C89.848 154.292 89.732 153.916 89.5 153.644C89.276 153.372 88.92 153.236 88.432 153.236C87.96 153.236 87.592 153.388 87.328 153.692C87.072 153.988 86.936 154.388 86.92 154.892H85.6C85.624 153.98 85.896 153.284 86.416 152.804C86.944 152.316 87.612 152.072 88.42 152.072C89.292 152.072 89.972 152.312 90.46 152.792C90.956 153.272 91.204 153.912 91.204 154.712C91.204 155.288 91.056 155.844 90.76 156.38C90.472 156.908 90.124 157.384 89.716 157.808C89.316 158.224 88.804 158.708 88.18 159.26L87.64 159.74H91.444V160.88H85.612V159.884L86.476 159.14ZM98.2858 153.428H94.2658V155.816C94.4338 155.592 94.6818 155.404 95.0098 155.252C95.3458 155.1 95.7018 155.024 96.0778 155.024C96.7498 155.024 97.2938 155.168 97.7098 155.456C98.1338 155.744 98.4338 156.108 98.6098 156.548C98.7938 156.988 98.8858 157.452 98.8858 157.94C98.8858 158.532 98.7698 159.06 98.5378 159.524C98.3138 159.98 97.9738 160.34 97.5178 160.604C97.0698 160.868 96.5178 161 95.8618 161C94.9898 161 94.2898 160.784 93.7618 160.352C93.2338 159.92 92.9178 159.348 92.8138 158.636H94.1458C94.2338 159.012 94.4298 159.312 94.7338 159.536C95.0378 159.752 95.4178 159.86 95.8738 159.86C96.4418 159.86 96.8658 159.688 97.1458 159.344C97.4338 159 97.5778 158.544 97.5778 157.976C97.5778 157.4 97.4338 156.96 97.1458 156.656C96.8578 156.344 96.4338 156.188 95.8738 156.188C95.4818 156.188 95.1498 156.288 94.8778 156.488C94.6138 156.68 94.4218 156.944 94.3018 157.28H93.0058V152.228H98.2858V153.428ZM100.094 154.364C100.094 153.78 100.262 153.324 100.598 152.996C100.942 152.66 101.382 152.492 101.918 152.492C102.454 152.492 102.89 152.66 103.226 152.996C103.57 153.324 103.742 153.78 103.742 154.364C103.742 154.948 103.57 155.408 103.226 155.744C102.89 156.08 102.454 156.248 101.918 156.248C101.382 156.248 100.942 156.08 100.598 155.744C100.262 155.408 100.094 154.948 100.094 154.364ZM107.414 152.648L102.626 161H101.282L106.07 152.648H107.414ZM101.918 153.32C101.414 153.32 101.162 153.668 101.162 154.364C101.162 155.068 101.414 155.42 101.918 155.42C102.158 155.42 102.342 155.336 102.47 155.168C102.606 154.992 102.674 154.724 102.674 154.364C102.674 153.668 102.422 153.32 101.918 153.32ZM104.978 159.272C104.978 158.688 105.146 158.232 105.482 157.904C105.826 157.568 106.266 157.4 106.802 157.4C107.33 157.4 107.762 157.568 108.098 157.904C108.442 158.232 108.614 158.688 108.614 159.272C108.614 159.856 108.442 160.316 108.098 160.652C107.762 160.988 107.33 161.156 106.802 161.156C106.266 161.156 105.826 160.988 105.482 160.652C105.146 160.316 104.978 159.856 104.978 159.272ZM106.79 158.228C106.286 158.228 106.034 158.576 106.034 159.272C106.034 159.968 106.286 160.316 106.79 160.316C107.294 160.316 107.546 159.968 107.546 159.272C107.546 158.576 107.294 158.228 106.79 158.228Z" fill="#87BEFD"/>
<path d="M214.264 175.308L210.928 183H209.548L212.92 175.452H208.48V174.288H214.264V175.308ZM216.911 178.428C216.079 178.012 215.663 177.356 215.663 176.46C215.663 176.028 215.771 175.632 215.987 175.272C216.203 174.912 216.527 174.628 216.959 174.42C217.391 174.204 217.919 174.096 218.543 174.096C219.159 174.096 219.683 174.204 220.115 174.42C220.555 174.628 220.883 174.912 221.099 175.272C221.315 175.632 221.423 176.028 221.423 176.46C221.423 176.908 221.307 177.304 221.075 177.648C220.851 177.984 220.551 178.244 220.175 178.428C220.631 178.596 220.991 178.872 221.255 179.256C221.519 179.632 221.651 180.076 221.651 180.588C221.651 181.108 221.519 181.568 221.255 181.968C220.991 182.368 220.623 182.676 220.151 182.892C219.679 183.108 219.143 183.216 218.543 183.216C217.943 183.216 217.407 183.108 216.935 182.892C216.471 182.676 216.107 182.368 215.843 181.968C215.579 181.568 215.447 181.108 215.447 180.588C215.447 180.068 215.579 179.62 215.843 179.244C216.107 178.868 216.463 178.596 216.911 178.428ZM220.115 176.628C220.115 176.18 219.975 175.836 219.695 175.596C219.415 175.356 219.031 175.236 218.543 175.236C218.063 175.236 217.683 175.356 217.403 175.596C217.123 175.836 216.983 176.184 216.983 176.64C216.983 177.04 217.127 177.368 217.415 177.624C217.711 177.872 218.087 177.996 218.543 177.996C218.999 177.996 219.375 177.868 219.671 177.612C219.967 177.356 220.115 177.028 220.115 176.628ZM218.543 179.028C218.015 179.028 217.583 179.16 217.247 179.424C216.919 179.68 216.755 180.052 216.755 180.54C216.755 180.996 216.915 181.368 217.235 181.656C217.555 181.936 217.991 182.076 218.543 182.076C219.087 182.076 219.515 181.932 219.827 181.644C220.147 181.356 220.307 180.988 220.307 180.54C220.307 180.06 220.143 179.688 219.815 179.424C219.495 179.16 219.071 179.028 218.543 179.028ZM222.871 176.364C222.871 175.78 223.039 175.324 223.375 174.996C223.719 174.66 224.159 174.492 224.695 174.492C225.231 174.492 225.667 174.66 226.003 174.996C226.347 175.324 226.519 175.78 226.519 176.364C226.519 176.948 226.347 177.408 226.003 177.744C225.667 178.08 225.231 178.248 224.695 178.248C224.159 178.248 223.719 178.08 223.375 177.744C223.039 177.408 222.871 176.948 222.871 176.364ZM230.191 174.648L225.403 183H224.059L228.847 174.648H230.191ZM224.695 175.32C224.191 175.32 223.939 175.668 223.939 176.364C223.939 177.068 224.191 177.42 224.695 177.42C224.935 177.42 225.119 177.336 225.247 177.168C225.383 176.992 225.451 176.724 225.451 176.364C225.451 175.668 225.199 175.32 224.695 175.32ZM227.755 181.272C227.755 180.688 227.923 180.232 228.259 179.904C228.603 179.568 229.043 179.4 229.579 179.4C230.107 179.4 230.539 179.568 230.875 179.904C231.219 180.232 231.391 180.688 231.391 181.272C231.391 181.856 231.219 182.316 230.875 182.652C230.539 182.988 230.107 183.156 229.579 183.156C229.043 183.156 228.603 182.988 228.259 182.652C227.923 182.316 227.755 181.856 227.755 181.272ZM229.567 180.228C229.063 180.228 228.811 180.576 228.811 181.272C228.811 181.968 229.063 182.316 229.567 182.316C230.071 182.316 230.323 181.968 230.323 181.272C230.323 180.576 230.071 180.228 229.567 180.228Z" fill="#87BEFD"/>
<path fill-rule="evenodd" clip-rule="evenodd" d="M0 168H81V148H0V168Z" fill="#D1E6FE"/>
<path fill-rule="evenodd" clip-rule="evenodd" d="M0 187.702H205V167.702H0V187.702Z" fill="#87BEFD"/>
</g>
<defs>
<clipPath id="clip0_454_223">
<rect width="236" height="234" fill="white"/>
</clipPath>
</defs>
</svg>
