<?xml version="1.0" encoding="UTF-8"?>
<svg width="922px" height="100px" viewBox="0 0 922 100" version="1.1" xmlns="http://www.w3.org/2000/svg" xmlns:xlink="http://www.w3.org/1999/xlink">
    <!-- Generator: Sketch 54.1 (76490) - https://sketchapp.com -->
    <title>Impact Stat 1 - Desktop</title>
    <desc>Created with Sketch.</desc>
    <g id="Page-1" stroke="none" stroke-width="1" fill="none" fill-rule="evenodd">
        <g id="Impact-Stat-1---Desktop">
            <rect id="Rectangle" fill="#FFFFFF" fill-rule="nonzero" x="0" y="0" width="922" height="100"></rect>
            <polygon id="Fill-1-Copy-3" fill="#E6E7E8" points="0 50 371 50 371 -2.84217094e-14 0 -2.84217094e-14"></polygon>
            <polygon id="Fill-2-Copy-3" fill="#84AFFF" points="0 100 775 100 775 50 0 50"></polygon>
            <path d="M20.095,76.452 L22.123,69.913 L23.501,69.913 L25.529,76.452 L27.817,69.913 L29.468,69.913 L26.296,79 L24.775,79 L22.864,72.773 L22.76,72.773 L20.849,79 L19.328,79 L16.156,69.913 L17.807,69.913 L20.095,76.452 Z M32.133,79 L30.677,79 L30.677,72.084 L32.133,72.084 L32.133,79 Z M30.768,70.706 C30.5859991,70.5239991 30.495,70.3073346 30.495,70.056 C30.495,69.8046654 30.5859991,69.5880009 30.768,69.406 C30.9500009,69.2239991 31.1666654,69.133 31.418,69.133 C31.6693346,69.133 31.8859991,69.2239991 32.068,69.406 C32.2500009,69.5880009 32.341,69.8046654 32.341,70.056 C32.341,70.3073346 32.2500009,70.5239991 32.068,70.706 C31.8859991,70.8880009 31.6693346,70.979 31.418,70.979 C31.1666654,70.979 30.9500009,70.8880009 30.768,70.706 Z M36.033,73.254 L36.033,76.764 C36.033,77.093335 36.1196658,77.355499 36.293,77.5505 C36.4663342,77.745501 36.7089984,77.843 37.021,77.843 C37.3330016,77.843 37.6319986,77.6913349 37.918,77.388 L38.516,78.415 C38.0046641,78.8743356 37.4391698,79.104 36.8195,79.104 C36.1998302,79.104 35.6711689,78.8895021 35.2335,78.4605 C34.7958311,78.0314979 34.577,77.4530036 34.577,76.725 L34.577,73.254 L33.706,73.254 L33.706,72.084 L34.577,72.084 L34.577,69.913 L36.033,69.913 L36.033,72.084 L37.853,72.084 L37.853,73.254 L36.033,73.254 Z M41.129,75.256 L41.129,79 L39.673,79 L39.673,69.367 L41.129,69.367 L41.129,73.345 C41.337001,72.9203312 41.6511646,72.5866679 42.0715,72.344 C42.4918354,72.1013321 42.9446642,71.98 43.43,71.98 C44.2100039,71.98 44.8404976,72.218331 45.3215,72.695 C45.8025024,73.1716691 46.043,73.8606622 46.043,74.762 L46.043,79 L44.587,79 L44.587,75.204 C44.587,73.9299936 44.0583386,73.293 43.001,73.293 C42.4983308,73.293 42.0606685,73.4598317 41.688,73.7935 C41.3153315,74.1271683 41.129,74.6146635 41.129,75.256 Z M51.581,71.278 L51.581,69.913 L56.898,69.913 L56.898,71.109 L54.701,73.566 C55.5330042,73.5920001 56.1829977,73.8541642 56.651,74.3525 C57.1190023,74.8508358 57.353,75.4466632 57.353,76.14 C57.353,77.067338 57.0388365,77.7953307 56.4105,78.324 C55.7821635,78.8526693 54.9740049,79.117 53.986,79.117 C52.9979951,79.117 52.0316714,78.8006698 51.087,78.168 L51.737,76.933 C52.4823371,77.4530026 53.2623293,77.713 54.077,77.713 C54.6056693,77.713 55.041165,77.5895012 55.3835,77.3425 C55.725835,77.0954988 55.897,76.740169 55.897,76.2765 C55.897,75.812831 55.7063352,75.4423347 55.325,75.165 C54.9436648,74.8876653 54.4150034,74.749 53.739,74.749 C53.4009983,74.749 53.0760016,74.7966662 52.764,74.892 L52.764,73.722 L54.87,71.278 L51.581,71.278 Z M61.604,74.931 C62.2193364,74.3069969 62.6569987,73.8173351 62.917,73.462 C63.1770013,73.1066649 63.307,72.7470018 63.307,72.383 C63.307,72.0189982 63.1683347,71.7091679 62.891,71.4535 C62.6136653,71.1978321 62.2626688,71.07 61.838,71.07 C61.0926629,71.07 60.4730025,71.4513295 59.979,72.214 L58.744,71.499 C59.1426687,70.900997 59.5824976,70.4503349 60.0635,70.147 C60.5445024,69.8436652 61.1641629,69.692 61.9225,69.692 C62.6808371,69.692 63.3459971,69.9324976 63.918,70.4135 C64.4900029,70.8945024 64.776,71.5509958 64.776,72.383 C64.776,72.8510023 64.6546679,73.2973312 64.412,73.722 C64.1693321,74.1466688 63.7230033,74.6926633 63.073,75.36 L60.941,77.531 L65.062,77.531 L65.062,79 L58.848,79 L58.848,77.7 L61.604,74.931 Z M66.128,69.913 L69.43,69.913 L69.43,79 L67.974,79 L67.974,71.278 L66.128,71.278 L66.128,69.913 Z M75.527,69.913 L77.061,69.913 L77.061,79 L75.527,79 L75.527,69.913 Z M80.831,75.256 L80.831,79 L79.375,79 L79.375,72.084 L80.831,72.084 L80.831,73.345 C81.0650012,72.9203312 81.3878313,72.5866679 81.7995,72.344 C82.2111687,72.1013321 82.655331,71.98 83.132,71.98 C83.9120039,71.98 84.5424976,72.218331 85.0235,72.695 C85.5045024,73.1716691 85.745,73.8606622 85.745,74.762 L85.745,79 L84.289,79 L84.289,75.204 C84.289,73.9299936 83.7603386,73.293 82.703,73.293 C82.2003308,73.293 81.7626685,73.4598317 81.39,73.7935 C81.0173315,74.1271683 80.831,74.6146635 80.831,75.256 Z M89.567,73.254 L89.567,76.764 C89.567,77.093335 89.6536658,77.355499 89.827,77.5505 C90.0003342,77.745501 90.2429984,77.843 90.555,77.843 C90.8670016,77.843 91.1659986,77.6913349 91.452,77.388 L92.05,78.415 C91.5386641,78.8743356 90.9731698,79.104 90.3535,79.104 C89.7338302,79.104 89.2051689,78.8895021 88.7675,78.4605 C88.3298311,78.0314979 88.111,77.4530036 88.111,76.725 L88.111,73.254 L87.24,73.254 L87.24,72.084 L88.111,72.084 L88.111,69.913 L89.567,69.913 L89.567,72.084 L91.387,72.084 L91.387,73.254 L89.567,73.254 Z M99.642,76.179 L94.221,76.179 C94.2556668,76.6816692 94.4853312,77.0868318 94.91,77.3945 C95.3346688,77.7021682 95.8199973,77.856 96.366,77.856 C97.232671,77.856 97.8913311,77.5830027 98.342,77.037 L99.174,77.947 C98.4286629,78.7183372 97.458006,79.104 96.262,79.104 C95.2913285,79.104 94.4658367,78.7811699 93.7855,78.1355 C93.1051633,77.4898301 92.765,76.6231721 92.765,75.5355 C92.765,74.4478279 93.1116632,73.5833365 93.805,72.942 C94.4983368,72.3006635 95.315162,71.98 96.2555,71.98 C97.195838,71.98 97.99533,72.2638305 98.654,72.8315 C99.31267,73.3991695 99.642,74.1813284 99.642,75.178 L99.642,76.179 Z M94.221,75.035 L98.186,75.035 C98.186,74.4543304 98.0040018,74.0080016 97.64,73.696 C97.2759982,73.3839984 96.8275027,73.228 96.2945,73.228 C95.7614973,73.228 95.2826688,73.3904984 94.858,73.7155 C94.4333312,74.0405016 94.221,74.4803306 94.221,75.035 Z M104.868,73.449 C104.148663,73.449 103.607002,73.6829977 103.243,74.151 C102.878998,74.6190023 102.697,75.2473294 102.697,76.036 L102.697,79 L101.241,79 L101.241,72.084 L102.697,72.084 L102.697,73.475 C102.931001,73.0416645 103.249498,72.6863347 103.6525,72.409 C104.055502,72.1316653 104.482331,71.9886667 104.933,71.98 L104.946,73.449 C104.92,73.449 104.894,73.449 104.868,73.449 Z M108.235,79 L105.453,72.084 L106.961,72.084 L109.067,77.31 L111.173,72.084 L112.681,72.084 L109.899,79 L108.235,79 Z M120.273,76.179 L114.852,76.179 C114.886667,76.6816692 115.116331,77.0868318 115.541,77.3945 C115.965669,77.7021682 116.450997,77.856 116.997,77.856 C117.863671,77.856 118.522331,77.5830027 118.973,77.037 L119.805,77.947 C119.059663,78.7183372 118.089006,79.104 116.893,79.104 C115.922328,79.104 115.096837,78.7811699 114.4165,78.1355 C113.736163,77.4898301 113.396,76.6231721 113.396,75.5355 C113.396,74.4478279 113.742663,73.5833365 114.436,72.942 C115.129337,72.3006635 115.946162,71.98 116.8865,71.98 C117.826838,71.98 118.62633,72.2638305 119.285,72.8315 C119.94367,73.3991695 120.273,74.1813284 120.273,75.178 L120.273,76.179 Z M114.852,75.035 L118.817,75.035 C118.817,74.4543304 118.635002,74.0080016 118.271,73.696 C117.906998,73.3839984 117.458503,73.228 116.9255,73.228 C116.392497,73.228 115.913669,73.3904984 115.489,73.7155 C115.064331,74.0405016 114.852,74.4803306 114.852,75.035 Z M123.328,75.256 L123.328,79 L121.872,79 L121.872,72.084 L123.328,72.084 L123.328,73.345 C123.562001,72.9203312 123.884831,72.5866679 124.2965,72.344 C124.708169,72.1013321 125.152331,71.98 125.629,71.98 C126.409004,71.98 127.039498,72.218331 127.5205,72.695 C128.001502,73.1716691 128.242,73.8606622 128.242,74.762 L128.242,79 L126.786,79 L126.786,75.204 C126.786,73.9299936 126.257339,73.293 125.2,73.293 C124.697331,73.293 124.259669,73.4598317 123.887,73.7935 C123.514331,74.1271683 123.328,74.6146635 123.328,75.256 Z M132.064,73.254 L132.064,76.764 C132.064,77.093335 132.150666,77.355499 132.324,77.5505 C132.497334,77.745501 132.739998,77.843 133.052,77.843 C133.364002,77.843 133.662999,77.6913349 133.949,77.388 L134.547,78.415 C134.035664,78.8743356 133.47017,79.104 132.8505,79.104 C132.23083,79.104 131.702169,78.8895021 131.2645,78.4605 C130.826831,78.0314979 130.608,77.4530036 130.608,76.725 L130.608,73.254 L129.737,73.254 L129.737,72.084 L130.608,72.084 L130.608,69.913 L132.064,69.913 L132.064,72.084 L133.884,72.084 L133.884,73.254 L132.064,73.254 Z M137.16,79 L135.704,79 L135.704,72.084 L137.16,72.084 L137.16,79 Z M135.795,70.706 C135.612999,70.5239991 135.522,70.3073346 135.522,70.056 C135.522,69.8046654 135.612999,69.5880009 135.795,69.406 C135.977001,69.2239991 136.193665,69.133 136.445,69.133 C136.696335,69.133 136.912999,69.2239991 137.095,69.406 C137.277001,69.5880009 137.368,69.8046654 137.368,70.056 C137.368,70.3073346 137.277001,70.5239991 137.095,70.706 C136.912999,70.8880009 136.696335,70.979 136.445,70.979 C136.193665,70.979 135.977001,70.8880009 135.795,70.706 Z M140.878,77.18 C141.294002,77.5960021 141.81833,77.804 142.451,77.804 C143.08367,77.804 143.605831,77.5938354 144.0175,77.1735 C144.429169,76.7531646 144.635,76.2093367 144.635,75.542 C144.635,74.8746633 144.429169,74.3308354 144.0175,73.9105 C143.605831,73.4901646 143.08367,73.28 142.451,73.28 C141.81833,73.28 141.296169,73.4901646 140.8845,73.9105 C140.472831,74.3308354 140.267,74.8746633 140.267,75.542 C140.267,76.2093367 140.470665,76.7553312 140.878,77.18 Z M145.051,78.077 C144.357663,78.7616701 143.491005,79.104 142.451,79.104 C141.410995,79.104 140.544337,78.7595034 139.851,78.0705 C139.157663,77.3814966 138.811,76.5386717 138.811,75.542 C138.811,74.5453284 139.157663,73.7025034 139.851,73.0135 C140.544337,72.3244966 141.410995,71.98 142.451,71.98 C143.491005,71.98 144.357663,72.3244966 145.051,73.0135 C145.744337,73.7025034 146.091,74.5453284 146.091,75.542 C146.091,76.5386717 145.744337,77.3836632 145.051,78.077 Z M149.198,75.256 L149.198,79 L147.742,79 L147.742,72.084 L149.198,72.084 L149.198,73.345 C149.432001,72.9203312 149.754831,72.5866679 150.1665,72.344 C150.578169,72.1013321 151.022331,71.98 151.499,71.98 C152.279004,71.98 152.909498,72.218331 153.3905,72.695 C153.871502,73.1716691 154.112,73.8606622 154.112,74.762 L154.112,79 L152.656,79 L152.656,75.204 C152.656,73.9299936 152.127339,73.293 151.07,73.293 C150.567331,73.293 150.129669,73.4598317 149.757,73.7935 C149.384331,74.1271683 149.198,74.6146635 149.198,75.256 Z M161.262,71.837 C160.915332,72.911672 160.742,73.9473284 160.742,74.944 C160.742,75.9406717 160.915332,76.9784946 161.262,78.0575 C161.608668,79.1365054 162.033331,80.0269965 162.536,80.729 L160.989,80.729 C160.564331,80.1396637 160.176502,79.2990055 159.8255,78.207 C159.474498,77.1149945 159.299,76.0273388 159.299,74.944 C159.299,73.8606613 159.474498,72.7730055 159.8255,71.681 C160.176502,70.5889945 160.564331,69.7483363 160.989,69.159 L162.536,69.159 C162.033331,69.8610035 161.608668,70.7536613 161.262,71.837 Z M163.342,69.913 L166.644,69.913 L166.644,79 L165.188,79 L165.188,71.278 L163.342,71.278 L163.342,69.913 Z M176.316,79 L174.756,79 L174.756,75.412 L171.376,69.913 L173.053,69.913 L175.536,74.047 L178.019,69.913 L179.696,69.913 L176.316,75.412 L176.316,79 Z M187.08,76.179 L181.659,76.179 C181.693667,76.6816692 181.923331,77.0868318 182.348,77.3945 C182.772669,77.7021682 183.257997,77.856 183.804,77.856 C184.670671,77.856 185.329331,77.5830027 185.78,77.037 L186.612,77.947 C185.866663,78.7183372 184.896006,79.104 183.7,79.104 C182.729328,79.104 181.903837,78.7811699 181.2235,78.1355 C180.543163,77.4898301 180.203,76.6231721 180.203,75.5355 C180.203,74.4478279 180.549663,73.5833365 181.243,72.942 C181.936337,72.3006635 182.753162,71.98 183.6935,71.98 C184.633838,71.98 185.43333,72.2638305 186.092,72.8315 C186.75067,73.3991695 187.08,74.1813284 187.08,75.178 L187.08,76.179 Z M181.659,75.035 L185.624,75.035 C185.624,74.4543304 185.442002,74.0080016 185.078,73.696 C184.713998,73.3839984 184.265503,73.228 183.7325,73.228 C183.199497,73.228 182.720669,73.3904984 182.296,73.7155 C181.871331,74.0405016 181.659,74.4803306 181.659,75.035 Z M194.282,79 L192.956,79 L192.956,78.077 C192.383997,78.7616701 191.617005,79.104 190.655,79.104 C189.935663,79.104 189.339836,78.9003354 188.8675,78.493 C188.395164,78.0856646 188.159,77.5418367 188.159,76.8615 C188.159,76.1811633 188.410331,75.6720017 188.913,75.334 C189.415669,74.9959983 190.095996,74.827 190.954,74.827 L192.839,74.827 L192.839,74.567 C192.839,73.6483287 192.327672,73.189 191.305,73.189 C190.663663,73.189 189.996337,73.4229977 189.303,73.891 L188.653,72.981 C189.493671,72.3136633 190.446995,71.98 191.513,71.98 C192.327671,71.98 192.992831,72.1858313 193.5085,72.5975 C194.024169,73.0091687 194.282,73.6569956 194.282,74.541 L194.282,79 Z M192.826,76.426 L192.826,75.841 L191.188,75.841 C190.139328,75.841 189.615,76.17033 189.615,76.829 C189.615,77.1670017 189.744999,77.4248324 190.005,77.6025 C190.265001,77.7801676 190.626831,77.869 191.0905,77.869 C191.554169,77.869 191.959332,77.7390013 192.306,77.479 C192.652668,77.2189987 192.826,76.8680022 192.826,76.426 Z M199.937,73.449 C199.217663,73.449 198.676002,73.6829977 198.312,74.151 C197.947998,74.6190023 197.766,75.2473294 197.766,76.036 L197.766,79 L196.31,79 L196.31,72.084 L197.766,72.084 L197.766,73.475 C198.000001,73.0416645 198.318498,72.6863347 198.7215,72.409 C199.124502,72.1316653 199.551331,71.9886667 200.002,71.98 L200.015,73.449 C199.989,73.449 199.963,73.449 199.937,73.449 Z M202.121,78.064 C202.467668,76.9806613 202.641,75.9406717 202.641,74.944 C202.641,73.9473284 202.467668,72.9095054 202.121,71.8305 C201.774332,70.7514946 201.349669,69.8610035 200.847,69.159 L202.394,69.159 C202.818669,69.7483363 203.206498,70.5889945 203.5575,71.681 C203.908502,72.7730055 204.084,73.8606613 204.084,74.944 C204.084,76.0273388 203.908502,77.1149945 203.5575,78.207 C203.206498,79.2990055 202.818669,80.1396637 202.394,80.729 L200.847,80.729 C201.349669,80.0269965 201.774332,79.138672 202.121,78.064 Z" id="With321Intervention(1Year)" fill="#000000" fill-rule="nonzero"></path>
            <path d="M20.095,26.452 L22.123,19.913 L23.501,19.913 L25.529,26.452 L27.817,19.913 L29.468,19.913 L26.296,29 L24.775,29 L22.864,22.773 L22.76,22.773 L20.849,29 L19.328,29 L16.156,19.913 L17.807,19.913 L20.095,26.452 Z M32.133,29 L30.677,29 L30.677,22.084 L32.133,22.084 L32.133,29 Z M30.768,20.706 C30.5859991,20.5239991 30.495,20.3073346 30.495,20.056 C30.495,19.8046654 30.5859991,19.5880009 30.768,19.406 C30.9500009,19.2239991 31.1666654,19.133 31.418,19.133 C31.6693346,19.133 31.8859991,19.2239991 32.068,19.406 C32.2500009,19.5880009 32.341,19.8046654 32.341,20.056 C32.341,20.3073346 32.2500009,20.5239991 32.068,20.706 C31.8859991,20.8880009 31.6693346,20.979 31.418,20.979 C31.1666654,20.979 30.9500009,20.8880009 30.768,20.706 Z M36.033,23.254 L36.033,26.764 C36.033,27.093335 36.1196658,27.355499 36.293,27.5505 C36.4663342,27.745501 36.7089984,27.843 37.021,27.843 C37.3330016,27.843 37.6319986,27.6913349 37.918,27.388 L38.516,28.415 C38.0046641,28.8743356 37.4391698,29.104 36.8195,29.104 C36.1998302,29.104 35.6711689,28.8895021 35.2335,28.4605 C34.7958311,28.0314979 34.577,27.4530036 34.577,26.725 L34.577,23.254 L33.706,23.254 L33.706,22.084 L34.577,22.084 L34.577,19.913 L36.033,19.913 L36.033,22.084 L37.853,22.084 L37.853,23.254 L36.033,23.254 Z M41.129,25.256 L41.129,29 L39.673,29 L39.673,19.367 L41.129,19.367 L41.129,23.345 C41.337001,22.9203312 41.6511646,22.5866679 42.0715,22.344 C42.4918354,22.1013321 42.9446642,21.98 43.43,21.98 C44.2100039,21.98 44.8404976,22.2183309 45.3215,22.695 C45.8025024,23.171669 46.043,23.8606622 46.043,24.762 L46.043,29 L44.587,29 L44.587,25.204 C44.587,23.9299936 44.0583386,23.293 43.001,23.293 C42.4983308,23.293 42.0606685,23.4598317 41.688,23.7935 C41.3153315,24.1271683 41.129,24.6146635 41.129,25.256 Z M49.683,27.18 C50.0990021,27.5960021 50.6233302,27.804 51.256,27.804 C51.8886698,27.804 52.4108313,27.5938354 52.8225,27.1735 C53.2341687,26.7531646 53.44,26.2093367 53.44,25.542 C53.44,24.8746633 53.2341687,24.3308354 52.8225,23.9105 C52.4108313,23.4901646 51.8886698,23.28 51.256,23.28 C50.6233302,23.28 50.1011687,23.4901646 49.6895,23.9105 C49.2778313,24.3308354 49.072,24.8746633 49.072,25.542 C49.072,26.2093367 49.2756646,26.7553312 49.683,27.18 Z M53.856,28.077 C53.1626632,28.7616701 52.2960052,29.104 51.256,29.104 C50.2159948,29.104 49.3493368,28.7595034 48.656,28.0705 C47.9626632,27.3814966 47.616,26.5386716 47.616,25.542 C47.616,24.5453284 47.9626632,23.7025034 48.656,23.0135 C49.3493368,22.3244966 50.2159948,21.98 51.256,21.98 C52.2960052,21.98 53.1626632,22.3244966 53.856,23.0135 C54.5493368,23.7025034 54.896,24.5453284 54.896,25.542 C54.896,26.5386716 54.5493368,27.3836632 53.856,28.077 Z M61.383,25.828 L61.383,22.084 L62.839,22.084 L62.839,29 L61.383,29 L61.383,27.739 C61.1489988,28.1636688 60.8261687,28.4973321 60.4145,28.74 C60.0028313,28.9826679 59.558669,29.104 59.082,29.104 C58.3019961,29.104 57.6715024,28.8656691 57.1905,28.389 C56.7094976,27.912331 56.469,27.2233378 56.469,26.322 L56.469,22.084 L57.925,22.084 L57.925,25.88 C57.925,27.1540064 58.4536614,27.791 59.511,27.791 C60.0136692,27.791 60.4513315,27.6241683 60.824,27.2905 C61.1966685,26.9568317 61.383,26.4693365 61.383,25.828 Z M66.739,23.254 L66.739,26.764 C66.739,27.093335 66.8256658,27.355499 66.999,27.5505 C67.1723342,27.745501 67.4149984,27.843 67.727,27.843 C68.0390016,27.843 68.3379986,27.6913349 68.624,27.388 L69.222,28.415 C68.7106641,28.8743356 68.1451698,29.104 67.5255,29.104 C66.9058302,29.104 66.3771689,28.8895021 65.9395,28.4605 C65.5018311,28.0314979 65.283,27.4530036 65.283,26.725 L65.283,23.254 L64.412,23.254 L64.412,22.084 L65.283,22.084 L65.283,19.913 L66.739,19.913 L66.739,22.084 L68.559,22.084 L68.559,23.254 L66.739,23.254 Z M73.889,21.278 L73.889,19.913 L79.206,19.913 L79.206,21.109 L77.009,23.566 C77.8410042,23.5920001 78.4909977,23.8541642 78.959,24.3525 C79.4270023,24.8508358 79.661,25.4466632 79.661,26.14 C79.661,27.067338 79.3468365,27.7953307 78.7185,28.324 C78.0901635,28.8526693 77.2820049,29.117 76.294,29.117 C75.3059951,29.117 74.3396714,28.8006698 73.395,28.168 L74.045,26.933 C74.7903371,27.4530026 75.5703293,27.713 76.385,27.713 C76.9136693,27.713 77.349165,27.5895012 77.6915,27.3425 C78.033835,27.0954988 78.205,26.740169 78.205,26.2765 C78.205,25.812831 78.0143352,25.4423347 77.633,25.165 C77.2516648,24.8876653 76.7230034,24.749 76.047,24.749 C75.7089983,24.749 75.3840016,24.7966662 75.072,24.892 L75.072,23.722 L77.178,21.278 L73.889,21.278 Z M83.912,24.931 C84.5273364,24.3069969 84.9649987,23.8173351 85.225,23.462 C85.4850013,23.1066649 85.615,22.7470018 85.615,22.383 C85.615,22.0189982 85.4763347,21.7091679 85.199,21.4535 C84.9216653,21.1978321 84.5706688,21.07 84.146,21.07 C83.4006629,21.07 82.7810025,21.4513295 82.287,22.214 L81.052,21.499 C81.4506687,20.900997 81.8904976,20.4503349 82.3715,20.147 C82.8525024,19.8436651 83.4721629,19.692 84.2305,19.692 C84.9888371,19.692 85.6539971,19.9324976 86.226,20.4135 C86.7980029,20.8945024 87.084,21.5509958 87.084,22.383 C87.084,22.8510023 86.9626679,23.2973312 86.72,23.722 C86.4773321,24.1466688 86.0310033,24.6926633 85.381,25.36 L83.249,27.531 L87.37,27.531 L87.37,29 L81.156,29 L81.156,27.7 L83.912,24.931 Z M88.436,19.913 L91.738,19.913 L91.738,29 L90.282,29 L90.282,21.278 L88.436,21.278 L88.436,19.913 Z M97.835,19.913 L99.369,19.913 L99.369,29 L97.835,29 L97.835,19.913 Z M103.139,25.256 L103.139,29 L101.683,29 L101.683,22.084 L103.139,22.084 L103.139,23.345 C103.373001,22.9203312 103.695831,22.5866679 104.1075,22.344 C104.519169,22.1013321 104.963331,21.98 105.44,21.98 C106.220004,21.98 106.850498,22.2183309 107.3315,22.695 C107.812502,23.171669 108.053,23.8606622 108.053,24.762 L108.053,29 L106.597,29 L106.597,25.204 C106.597,23.9299936 106.068339,23.293 105.011,23.293 C104.508331,23.293 104.070669,23.4598317 103.698,23.7935 C103.325331,24.1271683 103.139,24.6146635 103.139,25.256 Z M111.875,23.254 L111.875,26.764 C111.875,27.093335 111.961666,27.355499 112.135,27.5505 C112.308334,27.745501 112.550998,27.843 112.863,27.843 C113.175002,27.843 113.473999,27.6913349 113.76,27.388 L114.358,28.415 C113.846664,28.8743356 113.28117,29.104 112.6615,29.104 C112.04183,29.104 111.513169,28.8895021 111.0755,28.4605 C110.637831,28.0314979 110.419,27.4530036 110.419,26.725 L110.419,23.254 L109.548,23.254 L109.548,22.084 L110.419,22.084 L110.419,19.913 L111.875,19.913 L111.875,22.084 L113.695,22.084 L113.695,23.254 L111.875,23.254 Z M121.95,26.179 L116.529,26.179 C116.563667,26.6816692 116.793331,27.0868318 117.218,27.3945 C117.642669,27.7021682 118.127997,27.856 118.674,27.856 C119.540671,27.856 120.199331,27.5830027 120.65,27.037 L121.482,27.947 C120.736663,28.7183372 119.766006,29.104 118.57,29.104 C117.599328,29.104 116.773837,28.7811699 116.0935,28.1355 C115.413163,27.4898301 115.073,26.6231721 115.073,25.5355 C115.073,24.4478279 115.419663,23.5833365 116.113,22.942 C116.806337,22.3006635 117.623162,21.98 118.5635,21.98 C119.503838,21.98 120.30333,22.2638305 120.962,22.8315 C121.62067,23.3991695 121.95,24.1813283 121.95,25.178 L121.95,26.179 Z M116.529,25.035 L120.494,25.035 C120.494,24.4543304 120.312002,24.0080016 119.948,23.696 C119.583998,23.3839984 119.135503,23.228 118.6025,23.228 C118.069497,23.228 117.590669,23.3904984 117.166,23.7155 C116.741331,24.0405016 116.529,24.4803306 116.529,25.035 Z M127.176,23.449 C126.456663,23.449 125.915002,23.6829977 125.551,24.151 C125.186998,24.6190023 125.005,25.2473294 125.005,26.036 L125.005,29 L123.549,29 L123.549,22.084 L125.005,22.084 L125.005,23.475 C125.239001,23.0416645 125.557498,22.6863347 125.9605,22.409 C126.363502,22.1316653 126.790331,21.9886667 127.241,21.98 L127.254,23.449 C127.228,23.449 127.202,23.449 127.176,23.449 Z M130.543,29 L127.761,22.084 L129.269,22.084 L131.375,27.31 L133.481,22.084 L134.989,22.084 L132.207,29 L130.543,29 Z M142.581,26.179 L137.16,26.179 C137.194667,26.6816692 137.424331,27.0868318 137.849,27.3945 C138.273669,27.7021682 138.758997,27.856 139.305,27.856 C140.171671,27.856 140.830331,27.5830027 141.281,27.037 L142.113,27.947 C141.367663,28.7183372 140.397006,29.104 139.201,29.104 C138.230328,29.104 137.404837,28.7811699 136.7245,28.1355 C136.044163,27.4898301 135.704,26.6231721 135.704,25.5355 C135.704,24.4478279 136.050663,23.5833365 136.744,22.942 C137.437337,22.3006635 138.254162,21.98 139.1945,21.98 C140.134838,21.98 140.93433,22.2638305 141.593,22.8315 C142.25167,23.3991695 142.581,24.1813283 142.581,25.178 L142.581,26.179 Z M137.16,25.035 L141.125,25.035 C141.125,24.4543304 140.943002,24.0080016 140.579,23.696 C140.214998,23.3839984 139.766503,23.228 139.2335,23.228 C138.700497,23.228 138.221669,23.3904984 137.797,23.7155 C137.372331,24.0405016 137.16,24.4803306 137.16,25.035 Z M145.636,25.256 L145.636,29 L144.18,29 L144.18,22.084 L145.636,22.084 L145.636,23.345 C145.870001,22.9203312 146.192831,22.5866679 146.6045,22.344 C147.016169,22.1013321 147.460331,21.98 147.937,21.98 C148.717004,21.98 149.347498,22.2183309 149.8285,22.695 C150.309502,23.171669 150.55,23.8606622 150.55,24.762 L150.55,29 L149.094,29 L149.094,25.204 C149.094,23.9299936 148.565339,23.293 147.508,23.293 C147.005331,23.293 146.567669,23.4598317 146.195,23.7935 C145.822331,24.1271683 145.636,24.6146635 145.636,25.256 Z M154.372,23.254 L154.372,26.764 C154.372,27.093335 154.458666,27.355499 154.632,27.5505 C154.805334,27.745501 155.047998,27.843 155.36,27.843 C155.672002,27.843 155.970999,27.6913349 156.257,27.388 L156.855,28.415 C156.343664,28.8743356 155.77817,29.104 155.1585,29.104 C154.53883,29.104 154.010169,28.8895021 153.5725,28.4605 C153.134831,28.0314979 152.916,27.4530036 152.916,26.725 L152.916,23.254 L152.045,23.254 L152.045,22.084 L152.916,22.084 L152.916,19.913 L154.372,19.913 L154.372,22.084 L156.192,22.084 L156.192,23.254 L154.372,23.254 Z M159.468,29 L158.012,29 L158.012,22.084 L159.468,22.084 L159.468,29 Z M158.103,20.706 C157.920999,20.5239991 157.83,20.3073346 157.83,20.056 C157.83,19.8046654 157.920999,19.5880009 158.103,19.406 C158.285001,19.2239991 158.501665,19.133 158.753,19.133 C159.004335,19.133 159.220999,19.2239991 159.403,19.406 C159.585001,19.5880009 159.676,19.8046654 159.676,20.056 C159.676,20.3073346 159.585001,20.5239991 159.403,20.706 C159.220999,20.8880009 159.004335,20.979 158.753,20.979 C158.501665,20.979 158.285001,20.8880009 158.103,20.706 Z M163.186,27.18 C163.602002,27.5960021 164.12633,27.804 164.759,27.804 C165.39167,27.804 165.913831,27.5938354 166.3255,27.1735 C166.737169,26.7531646 166.943,26.2093367 166.943,25.542 C166.943,24.8746633 166.737169,24.3308354 166.3255,23.9105 C165.913831,23.4901646 165.39167,23.28 164.759,23.28 C164.12633,23.28 163.604169,23.4901646 163.1925,23.9105 C162.780831,24.3308354 162.575,24.8746633 162.575,25.542 C162.575,26.2093367 162.778665,26.7553312 163.186,27.18 Z M167.359,28.077 C166.665663,28.7616701 165.799005,29.104 164.759,29.104 C163.718995,29.104 162.852337,28.7595034 162.159,28.0705 C161.465663,27.3814966 161.119,26.5386716 161.119,25.542 C161.119,24.5453284 161.465663,23.7025034 162.159,23.0135 C162.852337,22.3244966 163.718995,21.98 164.759,21.98 C165.799005,21.98 166.665663,22.3244966 167.359,23.0135 C168.052337,23.7025034 168.399,24.5453284 168.399,25.542 C168.399,26.5386716 168.052337,27.3836632 167.359,28.077 Z M171.506,25.256 L171.506,29 L170.05,29 L170.05,22.084 L171.506,22.084 L171.506,23.345 C171.740001,22.9203312 172.062831,22.5866679 172.4745,22.344 C172.886169,22.1013321 173.330331,21.98 173.807,21.98 C174.587004,21.98 175.217498,22.2183309 175.6985,22.695 C176.179502,23.171669 176.42,23.8606622 176.42,24.762 L176.42,29 L174.964,29 L174.964,25.204 C174.964,23.9299936 174.435339,23.293 173.378,23.293 C172.875331,23.293 172.437669,23.4598317 172.065,23.7935 C171.692331,24.1271683 171.506,24.6146635 171.506,25.256 Z" id="Without321Intervention" fill="#000000" fill-rule="nonzero"></path>
            <path d="M396.312,25.176 C397.304005,24.167995 398.011998,23.364003 398.436,22.764 C398.860002,22.163997 399.072,21.5840028 399.072,21.024 C399.072,20.4639972 398.888002,19.9960019 398.52,19.62 C398.151998,19.2439981 397.680003,19.056 397.104,19.056 C396.047995,19.056 395.048005,19.8079925 394.104,21.312 L391.104,19.536 C391.888004,18.3199939 392.747995,17.4000031 393.684,16.776 C394.620005,16.1519969 395.811993,15.84 397.26,15.84 C398.708007,15.84 399.979995,16.2999954 401.076,17.22 C402.172005,18.1400046 402.72,19.3919921 402.72,20.976 C402.72,21.8400043 402.500002,22.667996 402.06,23.46 C401.619998,24.252004 400.808006,25.2639938 399.624,26.496 L396.6,29.64 L403.224,29.64 L403.224,33 L391.392,33 L391.392,30.216 L396.312,25.176 Z M416.164,16.224 L416.164,19.464 L409.54,19.464 L409.54,22.272 C410.036002,22.1279993 410.603997,22.056 411.244,22.056 C412.860008,22.056 414.251994,22.5439951 415.42,23.52 C416.588006,24.4960049 417.172,25.8119917 417.172,27.468 C417.172,29.1240083 416.568006,30.4919946 415.36,31.572 C414.151994,32.6520054 412.660009,33.192 410.884,33.192 C408.611989,33.192 406.716008,32.3520084 405.196,30.672 L407.164,27.936 C407.308001,28.0800007 407.499999,28.255999 407.74,28.464 C407.980001,28.672001 408.419997,28.9479983 409.06,29.292 C409.700003,29.6360017 410.339997,29.808 410.98,29.808 C411.620003,29.808 412.187998,29.6160019 412.684,29.232 C413.180002,28.8479981 413.428,28.2800038 413.428,27.528 C413.428,26.7759962 413.160003,26.196002 412.624,25.788 C412.087997,25.379998 411.396004,25.176 410.548,25.176 C409.699996,25.176 408.716006,25.479997 407.596,26.088 L406.036,24.408 L406.036,16.224 L416.164,16.224 Z M435.656,16.224 L423.632,33 L419.504,33 L431.552,16.224 L435.656,16.224 Z M431.624,30.696 C431.816001,30.904001 432.055999,31.008 432.344,31.008 C432.632001,31.008 432.871999,30.9000011 433.064,30.684 C433.256001,30.4679989 433.352,30.1840018 433.352,29.832 C433.352,29.4799982 433.256001,29.1880012 433.064,28.956 C432.871999,28.7239988 432.636001,28.608 432.356,28.608 C432.075999,28.608 431.840001,28.7239988 431.648,28.956 C431.455999,29.1880012 431.36,29.4799982 431.36,29.832 C431.36,30.1840018 431.447999,30.4719989 431.624,30.696 Z M435.896,29.832 C435.896,30.7760047 435.560003,31.5719968 434.888,32.22 C434.215997,32.8680032 433.372005,33.192 432.356,33.192 C431.339995,33.192 430.496003,32.8640033 429.824,32.208 C429.151997,31.5519967 428.816,30.7560047 428.816,29.82 C428.816,28.8839953 429.151997,28.0880033 429.824,27.432 C430.496003,26.7759967 431.339995,26.448 432.356,26.448 C433.372005,26.448 434.215997,26.7759967 434.888,27.432 C435.560003,28.0880033 435.896,28.8879953 435.896,29.832 Z M422.168,20.88 C422.360001,21.088001 422.599999,21.192 422.888,21.192 C423.176001,21.192 423.415999,21.0840011 423.608,20.868 C423.800001,20.6519989 423.896,20.3680018 423.896,20.016 C423.896,19.6639982 423.800001,19.3720012 423.608,19.14 C423.415999,18.9079988 423.180001,18.792 422.9,18.792 C422.619999,18.792 422.384001,18.9079988 422.192,19.14 C421.999999,19.3720012 421.904,19.6639982 421.904,20.016 C421.904,20.3680018 421.991999,20.6559989 422.168,20.88 Z M426.44,20.016 C426.44,20.9600047 426.104003,21.7559968 425.432,22.404 C424.759997,23.0520032 423.916005,23.376 422.9,23.376 C421.883995,23.376 421.040003,23.0480033 420.368,22.392 C419.695997,21.7359967 419.36,20.9400047 419.36,20.004 C419.36,19.0679953 419.695997,18.2720033 420.368,17.616 C421.040003,16.9599967 421.883995,16.632 422.9,16.632 C423.916005,16.632 424.759997,16.9599967 425.432,17.616 C426.104003,18.2720033 426.44,19.0719953 426.44,20.016 Z" id="25%" fill="#BDBDBD" fill-rule="nonzero"></path>
            <path d="M805.144,66.224 L805.144,69.464 L798.52,69.464 L798.52,72.272 C799.016002,72.1279993 799.583997,72.056 800.224,72.056 C801.840008,72.056 803.231994,72.5439951 804.4,73.52 C805.568006,74.4960049 806.152,75.8119917 806.152,77.468 C806.152,79.1240083 805.548006,80.4919946 804.34,81.572 C803.131994,82.6520054 801.640009,83.192 799.864,83.192 C797.591989,83.192 795.696008,82.3520084 794.176,80.672 L796.144,77.936 C796.288001,78.0800007 796.479999,78.255999 796.72,78.464 C796.960001,78.672001 797.399997,78.9479983 798.04,79.292 C798.680003,79.6360017 799.319997,79.808 799.96,79.808 C800.600003,79.808 801.167998,79.6160019 801.664,79.232 C802.160002,78.8479981 802.408,78.2800038 802.408,77.528 C802.408,76.7759962 802.140003,76.196002 801.604,75.788 C801.067997,75.379998 800.376004,75.176 799.528,75.176 C798.679996,75.176 797.696006,75.479997 796.576,76.088 L795.016,74.408 L795.016,66.224 L805.144,66.224 Z M813.116,75.176 C814.108005,74.167995 814.815998,73.364003 815.24,72.764 C815.664002,72.163997 815.876,71.5840028 815.876,71.024 C815.876,70.4639972 815.692002,69.9960019 815.324,69.62 C814.955998,69.2439981 814.484003,69.056 813.908,69.056 C812.851995,69.056 811.852005,69.8079925 810.908,71.312 L807.908,69.536 C808.692004,68.3199939 809.551995,67.4000031 810.488,66.776 C811.424005,66.1519969 812.615993,65.84 814.064,65.84 C815.512007,65.84 816.783995,66.2999954 817.88,67.22 C818.976005,68.1400046 819.524,69.3919921 819.524,70.976 C819.524,71.8400043 819.304002,72.667996 818.864,73.46 C818.423998,74.252004 817.612006,75.2639938 816.428,76.496 L813.404,79.64 L820.028,79.64 L820.028,83 L808.196,83 L808.196,80.216 L813.116,75.176 Z M838.656,66.224 L826.632,83 L822.504,83 L834.552,66.224 L838.656,66.224 Z M834.624,80.696 C834.816001,80.904001 835.055999,81.008 835.344,81.008 C835.632001,81.008 835.871999,80.9000011 836.064,80.684 C836.256001,80.4679989 836.352,80.1840018 836.352,79.832 C836.352,79.4799982 836.256001,79.1880012 836.064,78.956 C835.871999,78.7239988 835.636001,78.608 835.356,78.608 C835.075999,78.608 834.840001,78.7239988 834.648,78.956 C834.455999,79.1880012 834.36,79.4799982 834.36,79.832 C834.36,80.1840018 834.447999,80.4719989 834.624,80.696 Z M838.896,79.832 C838.896,80.7760047 838.560003,81.5719968 837.888,82.22 C837.215997,82.8680032 836.372005,83.192 835.356,83.192 C834.339995,83.192 833.496003,82.8640033 832.824,82.208 C832.151997,81.5519967 831.816,80.7560047 831.816,79.82 C831.816,78.8839953 832.151997,78.0880033 832.824,77.432 C833.496003,76.7759967 834.339995,76.448 835.356,76.448 C836.372005,76.448 837.215997,76.7759967 837.888,77.432 C838.560003,78.0880033 838.896,78.8879953 838.896,79.832 Z M825.168,70.88 C825.360001,71.088001 825.599999,71.192 825.888,71.192 C826.176001,71.192 826.415999,71.0840011 826.608,70.868 C826.800001,70.6519989 826.896,70.3680018 826.896,70.016 C826.896,69.6639982 826.800001,69.3720012 826.608,69.14 C826.415999,68.9079988 826.180001,68.792 825.9,68.792 C825.619999,68.792 825.384001,68.9079988 825.192,69.14 C824.999999,69.3720012 824.904,69.6639982 824.904,70.016 C824.904,70.3680018 824.991999,70.6559989 825.168,70.88 Z M829.44,70.016 C829.44,70.9600047 829.104003,71.7559968 828.432,72.404 C827.759997,73.0520032 826.916005,73.376 825.9,73.376 C824.883995,73.376 824.040003,73.0480033 823.368,72.392 C822.695997,71.7359967 822.36,70.9400047 822.36,70.004 C822.36,69.0679953 822.695997,68.2720033 823.368,67.616 C824.040003,66.9599967 824.883995,66.632 825.9,66.632 C826.916005,66.632 827.759997,66.9599967 828.432,67.616 C829.104003,68.2720033 829.44,69.0719953 829.44,70.016 Z" id="52%" fill="#84AFFF" fill-rule="nonzero"></path>
        </g>
    </g>
</svg>