<?xml version="1.0" encoding="UTF-8"?>
<svg width="1088px" height="739px" viewBox="0 0 1088 739" version="1.1" xmlns="http://www.w3.org/2000/svg" xmlns:xlink="http://www.w3.org/1999/xlink">
    <!-- Generator: Sketch 52.3 (67297) - http://www.bohemiancoding.com/sketch -->
    <title>Group 4</title>
    <desc>Created with Sketch.</desc>
    <defs>
        <path d="M285.967185,1.09437152e-10 L292.714557,1.09437152e-10 C311.192129,0.892113635 329.02463,9.08408468 342.474636,23.2633015 L385,27.0721322 L385,27.1055691 L363.862263,66.3806276 C369.048935,97.2646658 356.829068,129.151432 331.521393,147.200546 C333.770413,153.618008 335.557802,160.436562 336.479156,167.656207 C340.803608,202.55116 326.449175,235.240109 301.891173,255.094134 L302.007535,255.495225 L298.894387,257.300136 C294.97434,260.308322 290.823476,262.915416 286.443705,265.121419 L0,441 L115.810037,234.839018 L0,91.8499318 L196.110927,91.8499318 L221.649418,46.3260573 C223.839303,41.3124147 226.433593,36.4993179 229.54674,32.0873124 L230.584456,30.2824011 L230.641683,30.4829468 C236.925205,21.8594816 244.879754,14.6398363 254.390877,9.22510232 C264.503954,3.50894463 275.267372,0.51748559 285.967236,0 L285.967185,1.09437152e-10 Z M294.800751,31.8867667 C288.460002,35.4965894 286.039301,43.9195089 289.383264,50.7380628 C292.725319,57.5566166 300.681776,60.1637108 307.022525,56.5538881 C313.479635,52.9440655 315.900336,44.521146 312.499147,37.7025921 C309.155184,30.8840382 301.200634,28.2769441 294.800751,31.8867667 Z" id="path-1"></path>
        <path d="M89.8754011,3.42456395e-11 L91.9960035,3.42456395e-11 C97.8032404,0.279164811 103.407741,2.84263874 107.634885,7.27967258 L121,8.47155156 L121,8.48201482 L114.356711,20.7721692 C115.986808,30.4365621 112.146279,40.414734 104.192438,46.0627558 C104.899273,48.0709413 105.461023,50.2046385 105.750592,52.4638472 C107.109705,63.3833561 102.598312,73.6125512 94.880083,79.8253752 L94.9166537,79.9508868 L93.938236,80.5156889 C92.706221,81.4570259 91.401664,82.2728513 90.0251645,82.9631651 L0,138 L36.3974401,73.4870396 L0,28.7421555 L61.6348627,28.7421555 L69.6612455,14.4965894 C70.3494953,12.9276944 71.1648434,11.4215553 72.1432612,10.0409277 L72.4694004,9.47612551 L72.487386,9.53888131 C74.4622072,6.84038199 76.9622084,4.58117326 79.9514185,2.88676671 C83.1298141,1.09803709 86.5126026,0.161934266 89.8754169,0 L89.8754011,3.42456395e-11 Z M92.6516646,9.9781719 C90.6588579,11.1077763 89.8980661,13.7435198 90.9490259,15.8772169 C91.9993861,18.0109141 94.4999869,18.8267394 96.4927936,17.6971351 C98.5221711,16.5675307 99.2829629,13.9317872 98.2140175,11.79809 C97.1630577,9.66439291 94.6630565,8.84856753 92.6516646,9.9781719 Z" id="path-3"></path>
        <path d="M71.3061033,0.196529722 L72.9885648,0.196529722 C77.5959593,0.419052397 82.0425052,2.46240118 85.3962728,5.99916728 L96,6.94921575 L96,6.95755603 L90.7292916,16.7540559 C92.0225915,24.4575575 88.9755599,32.4111727 82.6650746,36.9132191 C83.2258692,38.5139467 83.6715558,40.2147198 83.9012961,42.0155384 C84.9796009,50.7194947 81.4003138,58.8732009 75.2767601,63.825452 L75.3057749,63.9254974 L74.5295095,64.3757021 C73.5520431,65.1260431 72.5170227,65.7763387 71.4249239,66.3265888 L0,110.19653 L28.8773078,58.7731555 L0,23.1069435 L48.9003869,23.1069435 L55.2684262,11.7517821 C55.8144756,10.5012137 56.4613634,9.30066797 57.2376287,8.20016774 L57.4963838,7.7499631 L57.5106534,7.79998584 C59.0774536,5.64900812 61.0609257,3.84818957 63.4325304,2.49757565 C65.9542327,1.07177668 68.6380979,0.32560776 71.3061159,0.196529722 L71.3061033,0.196529722 Z M73.5087587,8.150145 C71.9276889,9.05055428 71.3240855,11.1515093 72.1579048,12.8522823 C72.9912485,14.5530554 74.9751962,15.203351 76.556266,14.3029417 C78.1663506,13.4025325 78.769954,11.3015775 77.9218651,9.60080439 C77.0880458,7.90003131 75.1045737,7.24973572 73.5087587,8.150145 Z" id="path-5"></path>
        <path d="M49.022946,1.86117606e-11 L50.1796383,1.86117606e-11 C53.347222,0.151720006 56.4042223,1.54491236 58.7099375,3.95634379 L66,4.60410411 L66,4.60979066 L62.376388,11.2892224 C63.2655317,16.5416098 61.1706974,21.9645293 56.8322388,25.0341064 C57.2177851,26.1255116 57.5241946,27.2851296 57.6821411,28.5129604 C58.4234756,34.4474761 55.9627158,40.0068213 51.7527725,43.3833561 L51.7727202,43.4515689 L51.2390378,43.7585266 C50.5670296,44.2701228 49.8554531,44.7135061 49.1046352,45.0886767 L0,75 L19.8531491,39.9386085 L0,15.6207367 L33.619016,15.6207367 L37.997043,7.87858117 C38.372452,7.02592087 38.8171873,6.20736699 39.3508697,5.45702592 L39.5287639,5.15006821 L39.5385742,5.18417462 C40.6157494,3.71759891 41.9793864,2.48976808 43.6098646,1.56889495 C45.343535,0.59675929 47.1886923,0.0880077533 49.0229547,0 L49.022946,1.86117606e-11 Z M50.5372716,5.42291951 C49.4502861,6.03683492 49.0353088,7.46930423 49.6085596,8.62892224 C50.1814833,9.78854025 51.5454474,10.2319236 52.6324329,9.61800819 C53.7393661,9.00409277 54.1543434,7.57162347 53.5712823,6.41200546 C52.9980315,5.25238745 51.6343945,4.80900409 50.5372716,5.42291951 Z" id="path-7"></path>
        <path d="M27.4825607,1.06707427e-11 L28.1310093,1.06707427e-11 C29.906776,0.0869861367 31.6205489,0.885749753 32.9131468,2.26830377 L37,2.63968636 L37,2.64294665 L34.9685812,6.47248749 C35.4670405,9.4838563 34.2926637,12.5929968 31.8604975,14.3528877 C32.0766371,14.9786266 32.2484121,15.6434743 32.3369579,16.3474307 C32.7525545,19.7498863 31.3730376,22.9372442 29.0129179,24.8731241 L29.0241007,24.9122328 L28.7249151,25.0882219 C28.3481833,25.3815371 27.9492692,25.6357435 27.5283561,25.8508413 L0,43 L11.1297957,22.8981355 L0,8.95588904 L18.8470241,8.95588904 L21.3013726,4.51705321 C21.5118291,4.02819463 21.7611505,3.5588904 22.0603361,3.12869486 L22.1600646,2.95270578 L22.1655643,2.97226012 C22.7694352,2.13142337 23.5338984,1.42746703 24.4479544,0.899499773 C25.4198605,0.342141993 26.4542669,0.0504577786 27.4825655,0 L27.4825607,1.06707427e-11 Z M28.3315007,3.10914052 C27.7221301,3.46111869 27.4894913,4.28240109 27.8108592,4.94724875 C28.1320437,5.61209641 28.8966902,5.86630286 29.5060609,5.51432469 C30.1266143,5.16234652 30.3592531,4.34106412 30.0323855,3.67621646 C29.7110177,3.0113688 28.9465545,2.75716235 28.3315007,3.10914052 Z" id="path-9"></path>
        <path d="M32.681964,1.24078404e-11 L33.4530922,1.24078404e-11 C35.5648147,0.101146671 37.6028149,1.02994157 39.1399584,2.63756253 L44,3.06940274 L44,3.07319377 L41.5842587,7.52614825 C42.1770211,11.0277399 40.7804649,14.6430196 37.8881592,16.6894043 C38.14519,17.4170077 38.3494631,18.1900864 38.4547607,19.0086403 C38.9489838,22.9649841 37.3084772,26.6712142 34.5018484,28.9222374 L34.5151468,28.9677126 L34.1593585,29.1723511 C33.7113531,29.5134152 33.2369687,29.8090041 32.7364235,30.0591178 L0,50 L13.2354328,26.625739 L0,10.4138245 L22.4126773,10.4138245 L25.331362,5.25238745 C25.5816347,4.68394725 25.8781249,4.13824466 26.2339132,3.63801728 L26.3525092,3.43337881 L26.3590495,3.45611642 C27.0771662,2.47839927 27.9862576,1.65984538 29.0732431,1.04592997 C30.2290233,0.397839527 31.4591282,0.0586718356 32.6819698,0 L32.681964,1.24078404e-11 Z M33.6915144,3.61527967 C32.9668574,4.02455662 32.6902059,4.97953615 33.072373,5.75261482 C33.4543222,6.5256935 34.3636316,6.8212824 35.0882886,6.41200546 C35.826244,6.00272851 36.1028956,5.04774898 35.7141882,4.2746703 C35.332021,3.50159163 34.4229296,3.20600273 33.6915144,3.61527967 Z" id="path-11"></path>
    </defs>
    <g id="Page-1" stroke="none" stroke-width="1" fill="none" fill-rule="evenodd">
        <g id="Custom-Preset-2-Copy" transform="translate(-139.000000, -100.000000)">
            <g id="Group-4" transform="translate(139.000000, 100.000000)">
                <g id="Group-3-Copy-10" transform="translate(0.000000, 298.000000)">
                    <mask id="mask-2" fill="white">
                        <use xlink:href="#path-1"></use>
                    </mask>
                    <g id="Clip-396"></g>
                    <polygon id="Fill-395" fill="#FED445" mask="url(#mask-2)" points="-94 549 491 549 491 -94 -94 -94"></polygon>
                </g>
                <g id="Group-3-Copy-11" transform="translate(689.000000, 69.000000)">
                    <mask id="mask-4" fill="white">
                        <use xlink:href="#path-3"></use>
                    </mask>
                    <g id="Clip-396"></g>
                    <polygon id="Fill-395" fill="#FED445" mask="url(#mask-4)" points="-30 171 154 171 154 -30 -30 -30"></polygon>
                </g>
                <g id="Group-3-Copy-17" transform="translate(528.000000, 329.000000)">
                    <mask id="mask-6" fill="white">
                        <use xlink:href="#path-5"></use>
                    </mask>
                    <g id="Clip-396"></g>
                    <polygon id="Fill-395" fill="#FED445" mask="url(#mask-6)" points="-24 136.19653 122 136.19653 122 -23.8034703 -24 -23.8034703"></polygon>
                </g>
                <g id="Group-3-Copy-13" transform="translate(363.000000, 31.000000)">
                    <mask id="mask-8" fill="white">
                        <use xlink:href="#path-7"></use>
                    </mask>
                    <g id="Clip-396"></g>
                    <polygon id="Fill-395" fill="#FED445" mask="url(#mask-8)" points="-16 93 84 93 84 -16 -16 -16"></polygon>
                </g>
                <g id="Group-3-Copy-14" transform="translate(1051.000000, 0.000000)">
                    <mask id="mask-10" fill="white">
                        <use xlink:href="#path-9"></use>
                    </mask>
                    <g id="Clip-396"></g>
                    <polygon id="Fill-395" fill="#FED445" mask="url(#mask-10)" points="-9 53 47 53 47 -9 -9 -9"></polygon>
                </g>
                <g id="Group-3-Copy-20" transform="translate(1007.000000, 273.000000)">
                    <mask id="mask-12" fill="white">
                        <use xlink:href="#path-11"></use>
                    </mask>
                    <g id="Clip-396"></g>
                    <polygon id="Fill-395" fill="#FED445" mask="url(#mask-12)" points="-11 61 55 61 55 -11 -11 -11"></polygon>
                </g>
            </g>
        </g>
    </g>
</svg>