<?xml version="1.0" encoding="UTF-8"?>
<svg width="334px" height="468px" viewBox="0 0 334 468" version="1.1" xmlns="http://www.w3.org/2000/svg" xmlns:xlink="http://www.w3.org/1999/xlink">
    <!-- Generator: Sketch 52.3 (67297) - http://www.bohemiancoding.com/sketch -->
    <title>Group 13</title>
    <desc>Created with Sketch.</desc>
    <defs>
        <path d="M49.765718,0.5 L50.9399358,0.5 C54.1555133,0.653742939 57.2588318,2.06551119 59.599482,4.50909504 L67,5.16549217 L67,5.17125454 L63.3214848,11.9397453 C64.2241003,17.2621646 62.0975262,22.7573897 57.6933333,25.8678945 C58.0847212,26.9738518 58.3957733,28.1489313 58.5561129,29.3931332 C59.3086798,35.4067758 56.8106357,41.0402456 52.5369055,44.4618008 L52.5571554,44.5309231 L52.0153869,44.8419736 C51.3331967,45.3603911 50.6108387,45.8096862 49.8486448,46.189859 L0,76.5 L20.1539544,40.9711232 L0,16.3290132 L34.128395,16.3290132 L38.5727558,8.48362892 C38.9538528,7.61959982 39.4053265,6.79013188 39.947095,6.02978627 L40.1276845,5.71873579 L40.1376435,5.75329695 C41.2311395,4.26716689 42.6154377,3.02296498 44.2706202,2.08981355 C46.0305582,1.10471608 47.9036725,0.58918119 49.7657267,0.5 L49.765718,0.5 Z M51.3029878,5.9952251 C50.1995329,6.61732606 49.778268,8.06889495 50.3602044,9.24397453 C50.9418088,10.4190541 52.326439,10.8683492 53.429894,10.2462483 C54.5535989,9.62414734 54.9748637,8.17257844 54.3829684,6.99749886 C53.801032,5.82241928 52.4167338,5.37312415 51.3029878,5.9952251 Z" id="path-1"></path>
        <path d="M149.297154,5.70760659e-11 L152.819808,5.70760659e-11 C162.46654,0.465274685 171.776495,4.73773124 178.798446,12.1327876 L201,14.1192526 L201,14.1366914 L189.964454,34.6202819 C192.672301,50.7276035 186.292578,67.35789 173.08,76.7712597 C174.254164,80.1182356 175.18732,83.6743975 175.668339,87.4397453 C177.926039,105.638927 170.431907,122.687585 157.610716,133.042292 L157.671466,133.251478 L156.046161,134.192815 C153.99959,135.76171 151.832516,137.121419 149.545934,138.271942 L0,230 L60.4618633,122.478399 L0,47.9035925 L102.385185,47.9035925 L115.718267,24.1609823 C116.861558,21.5461573 118.21598,19.0359254 119.841285,16.7348795 L120.383054,15.7935425 L120.412931,15.8981355 C123.693419,11.4006367 127.846313,7.63528877 132.811861,4.81127785 C138.091675,1.83006182 143.711018,0.269890444 149.29718,0 L149.297154,5.70760659e-11 Z M153.908964,16.6302865 C150.598599,18.5129604 149.334804,22.9058663 151.080613,26.4620282 C152.825427,30.0181901 156.979317,31.377899 160.289682,29.4952251 C163.660797,27.6125512 164.924591,23.2196453 163.148905,19.6634834 C161.403096,16.1073215 157.250201,14.7476126 153.908964,16.6302865 Z" id="path-3"></path>
        <path d="M44.5663146,1.6874663e-11 L45.617853,1.6874663e-11 C48.4974746,0.137559472 51.2765658,1.40072054 53.3726705,3.58708504 L60,4.17438773 L60,4.17954353 L56.7058073,10.2355616 C57.5141197,14.9977262 55.6097249,19.9145066 51.6656716,22.6975898 C52.0161682,23.6871305 52.2947224,24.7385175 52.4383101,25.8517508 C53.1122506,31.2323784 50.8751961,36.2728513 47.047975,39.3342428 L47.0661093,39.3960891 L46.5809435,39.6743975 C45.9700269,40.1382447 45.3231392,40.5402456 44.6405774,40.8804002 L0,68 L18.0483174,36.211005 L0,14.1628013 L30.5627418,14.1628013 L34.5427664,7.14324693 C34.8840473,6.37016826 35.2883521,5.62801273 35.7735179,4.9477035 L35.9352399,4.66939518 L35.9441584,4.70031833 C36.9234085,3.37062301 38.1630785,2.25738972 39.6453315,1.42246476 C41.2213954,0.541061756 42.8988112,0.0797936964 44.5663224,0 L44.5663146,1.6874663e-11 Z M45.9429742,4.91678035 C44.9548056,5.473397 44.5775535,6.77216917 45.0986905,7.82355616 C45.6195303,8.87494316 46.8594976,9.27694407 47.8476663,8.72032742 C48.8539691,8.16371078 49.2312213,6.86493861 48.7011657,5.81355161 C48.1800286,4.76216462 46.9403586,4.36016371 45.9429742,4.91678035 Z" id="path-5"></path>
        <path d="M16.340982,6.70023382e-12 L16.7265461,6.70023382e-12 C17.7824073,0.0546192021 18.8014074,0.55616845 19.5699792,1.42428377 L22,1.65747748 L22,1.65952464 L20.7921293,4.06412005 C21.0885106,5.95497954 20.3902325,7.90723056 18.9440796,9.01227831 C19.072595,9.40518417 19.1747315,9.82264666 19.2273804,10.2646658 C19.4744919,12.4010914 18.6542386,14.4024557 17.2509242,15.6180082 L17.2575734,15.6425648 L17.0796793,15.7530696 C16.8556765,15.9372442 16.6184844,16.0968622 16.3682117,16.2319236 L0,27 L6.61771638,14.377899 L0,5.62346521 L11.2063387,5.62346521 L12.665681,2.83628922 C12.7908173,2.52933151 12.9390624,2.23465211 13.1169566,1.96452933 L13.1762546,1.85402456 L13.1795247,1.86630286 C13.5385831,1.33833561 13.9931288,0.896316508 14.5366215,0.564802183 C15.1145117,0.214833344 15.7295641,0.0316827912 16.3409849,0 L16.340982,6.70023382e-12 Z M16.8457572,1.95225102 C16.4834287,2.17326057 16.3451029,2.68894952 16.5361865,3.10641201 C16.7271611,3.52387449 17.1818158,3.6834925 17.5441443,3.46248295 C17.913122,3.2414734 18.0514478,2.72578445 17.8570941,2.30832196 C17.6660105,1.89085948 17.2114648,1.73124147 16.8457572,1.95225102 Z" id="path-7"></path>
        <path d="M16.340982,6.2039202e-12 L16.7265461,6.2039202e-12 C17.7824073,0.0505733353 18.8014074,0.514970787 19.5699792,1.31878126 L22,1.53470137 L22,1.53659689 L20.7921293,3.76307412 C21.0885106,5.51386994 20.3902325,7.32150978 18.9440796,8.34470214 C19.072595,8.70850387 19.1747315,9.0950432 19.2273804,9.50432015 C19.4744919,11.482492 18.6542386,13.3356071 17.2509242,14.4611187 L17.2575734,14.4838563 L17.0796793,14.5861755 C16.8556765,14.7567076 16.6184844,14.904502 16.3682117,15.0295589 L0,25 L6.61771638,13.3128695 L0,5.20691223 L11.2063387,5.20691223 L12.665681,2.62619372 C12.7908173,2.34197362 12.9390624,2.06912233 13.1169566,1.81900864 L13.1762546,1.7166894 L13.1795247,1.72805821 C13.5385831,1.23919964 13.9931288,0.829922692 14.5366215,0.522964984 C15.1145117,0.198919763 15.7295641,0.0293359178 16.3409849,0 L16.340982,6.2039202e-12 Z M16.8457572,1.80763984 C16.4834287,2.01227831 16.3451029,2.48976808 16.5361865,2.87630741 C16.7271611,3.26284675 17.1818158,3.4106412 17.5441443,3.20600273 C17.913122,3.00136426 18.0514478,2.52387449 17.8570941,2.13733515 C17.6660105,1.75079582 17.2114648,1.60300136 16.8457572,1.80763984 Z" id="path-9"></path>
    </defs>
    <g id="Page-1" stroke="none" stroke-width="1" fill="none" fill-rule="evenodd">
        <g id="321-WEB-V2-PROGRAMS-Mobile" transform="translate(-18.000000, -112.000000)">
            <g id="Group-13" transform="translate(18.000000, 112.000000)">
                <g id="Group-3-Copy-19" transform="translate(68.000000, 13.000000)">
                    <mask id="mask-2" fill="white">
                        <use xlink:href="#path-1"></use>
                    </mask>
                    <g id="Clip-396"></g>
                    <polygon id="Fill-395" fill="#FED445" mask="url(#mask-2)" points="-17 94.5 85 94.5 85 -17.5 -17 -17.5"></polygon>
                </g>
                <g id="Group-3-Copy-12" transform="translate(0.000000, 238.000000)">
                    <mask id="mask-4" fill="white">
                        <use xlink:href="#path-3"></use>
                    </mask>
                    <g id="Clip-396"></g>
                    <polygon id="Fill-395" fill="#FED445" mask="url(#mask-4)" points="-50 286 255 286 255 -49 -50 -49"></polygon>
                </g>
                <g id="Group-3-Copy-18" transform="translate(252.000000, 262.000000)">
                    <mask id="mask-6" fill="white">
                        <use xlink:href="#path-5"></use>
                    </mask>
                    <g id="Clip-396"></g>
                    <polygon id="Fill-395" fill="#FED445" mask="url(#mask-6)" points="-15 82 76 82 76 -15 -15 -15"></polygon>
                </g>
                <g id="Group-3-Copy-15" transform="translate(252.000000, 0.000000)">
                    <mask id="mask-8" fill="white">
                        <use xlink:href="#path-7"></use>
                    </mask>
                    <g id="Clip-396"></g>
                    <polygon id="Fill-395" fill="#FED445" mask="url(#mask-8)" points="-5 33.48 28 33.48 28 -5.4 -5 -5.4"></polygon>
                </g>
                <g id="Group-3-Copy-16" transform="translate(312.000000, 169.000000)">
                    <mask id="mask-10" fill="white">
                        <use xlink:href="#path-9"></use>
                    </mask>
                    <g id="Clip-396"></g>
                    <polygon id="Fill-395" fill="#FED445" mask="url(#mask-10)" points="-5 31 28 31 28 -5 -5 -5"></polygon>
                </g>
            </g>
        </g>
    </g>
</svg>