<?xml version="1.0" encoding="UTF-8"?>
<svg width="295px" height="115px" viewBox="0 0 295 115" version="1.1" xmlns="http://www.w3.org/2000/svg" xmlns:xlink="http://www.w3.org/1999/xlink">
    <!-- Generator: Sketch 52.4 (67378) - http://www.bohemiancoding.com/sketch -->
    <title>Student-graph-mob</title>
    <desc>Created with Sketch.</desc>
    <defs>
        <path d="M10,5 C10,7.76133333 7.76133333,10 5,10 C2.23866667,10 0,7.76133333 0,5 C0,2.23866667 2.23866667,0 5,0 C7.76133333,0 10,2.23866667 10,5 Z" id="path-1"></path>
        <path d="M10,5 C10,7.76133333 7.76133333,10 5,10 C2.23866667,10 0,7.76133333 0,5 C0,2.23866667 2.23866667,0 5,0 C7.76133333,0 10,2.23866667 10,5 Z" id="path-3"></path>
    </defs>
    <g id="Page-1" stroke="none" stroke-width="1" fill="none" fill-rule="evenodd">
        <g id="Student-graph-mob">
            <rect id="Rectangle" fill="#FFFFFF" fill-rule="nonzero" x="0" y="0" width="295" height="115"></rect>
            <g id="Group-464-Copy-8" transform="translate(0.000000, 83.000000)">
                <mask id="mask-2" fill="white">
                    <use xlink:href="#path-1"></use>
                </mask>
                <g id="Clip-463"></g>
                <polygon id="Fill-462" fill="#87BEFD" mask="url(#mask-2)" points="-1.66666667 11.6666667 11.6666667 11.6666667 11.6666667 -1.66666667 -1.66666667 -1.66666667"></polygon>
            </g>
            <g id="Group-464-Copy-11" transform="translate(0.000000, 105.000000)">
                <mask id="mask-4" fill="white">
                    <use xlink:href="#path-3"></use>
                </mask>
                <g id="Clip-463"></g>
                <polygon id="Fill-462" fill="#E6E7E8" mask="url(#mask-4)" points="-1.66666667 11.6666667 11.6666667 11.6666667 11.6666667 -1.66666667 -1.66666667 -1.66666667"></polygon>
            </g>
            <path d="M19.164,105.612 L20.58,105.612 L20.58,114 L19.164,114 L19.164,105.612 Z M29.196,105.612 L30.612,105.612 L30.612,114 L29.076,114 L24.324,107.88 L24.324,114 L22.908,114 L22.908,105.612 L24.324,105.612 L29.196,111.876 L29.196,105.612 Z M35.82,105.612 C37.3240075,105.612 38.479996,105.977996 39.288,106.71 C40.096004,107.442004 40.5,108.459993 40.5,109.764 C40.5,111.068007 40.1080039,112.099996 39.324,112.86 C38.5399961,113.620004 37.3400081,114 35.724,114 L32.94,114 L32.94,105.612 L35.82,105.612 Z M39.072,109.8 C39.072,107.87999 37.972011,106.92 35.772,106.92 L34.356,106.92 L34.356,112.668 L35.928,112.668 C36.9440051,112.668 37.7219973,112.426002 38.262,111.942 C38.8020027,111.457998 39.072,110.744005 39.072,109.8 Z M42.324,105.612 L43.74,105.612 L43.74,114 L42.324,114 L42.324,105.612 Z M47.256,112.092 L46.416,114 L44.904,114 L48.6,105.612 L50.112,105.612 L53.808,114 L52.296,114 L51.456,112.092 L47.256,112.092 Z M50.88,110.784 L49.356,107.328 L47.832,110.784 L50.88,110.784 Z M59.448,112.092 L58.608,114 L57.096,114 L60.792,105.612 L62.304,105.612 L66,114 L64.488,114 L63.648,112.092 L59.448,112.092 Z M63.072,110.784 L61.548,107.328 L60.024,110.784 L63.072,110.784 Z M70.992,114 L69.408,114 L66.036,105.612 L67.62,105.612 L70.2,111.876 L72.78,105.612 L74.364,105.612 L70.992,114 Z M81.456,105.612 L81.456,106.944 L76.98,106.944 L76.98,109.164 L81,109.164 L81,110.424 L76.98,110.424 L76.98,112.668 L81.6,112.668 L81.6,114 L75.564,114 L75.564,105.612 L81.456,105.612 Z M90.108,108.336 C90.108,109.720007 89.504006,110.591998 88.296,110.952 L90.492,114 L88.692,114 L86.688,111.18 L84.828,111.18 L84.828,114 L83.412,114 L83.412,105.612 L86.532,105.612 C87.8120064,105.612 88.7279972,105.827998 89.28,106.26 C89.8320028,106.692002 90.108,107.383995 90.108,108.336 Z M86.592,109.896 C87.392004,109.896 87.9359986,109.772001 88.224,109.524 C88.5120014,109.275999 88.656,108.878003 88.656,108.33 C88.656,107.781997 88.5080015,107.406001 88.212,107.202 C87.9159985,106.997999 87.3880038,106.896 86.628,106.896 L84.828,106.896 L84.828,109.896 L86.592,109.896 Z M93.336,112.092 L92.496,114 L90.984,114 L94.68,105.612 L96.192,105.612 L99.888,114 L98.376,114 L97.536,112.092 L93.336,112.092 Z M96.96,110.784 L95.436,107.328 L93.912,110.784 L96.96,110.784 Z M106.86,109.92 L108.276,109.92 L108.276,112.788 C107.483996,113.660004 106.352007,114.096 104.88,114.096 C103.639994,114.096 102.602004,113.688004 101.766,112.872 C100.929996,112.055996 100.512,111.024006 100.512,109.776 C100.512,108.527994 100.937996,107.488004 101.79,106.656 C102.642004,105.823996 103.671994,105.408 104.88,105.408 C106.088006,105.408 107.091996,105.759996 107.892,106.464 L107.136,107.544 C106.807998,107.263999 106.478002,107.070001 106.146,106.962 C105.813998,106.853999 105.428002,106.8 104.988,106.8 C104.139996,106.8 103.428003,107.073997 102.852,107.622 C102.275997,108.170003 101.988,108.889996 101.988,109.782 C101.988,110.674004 102.267997,111.389997 102.828,111.93 C103.388003,112.470003 104.065996,112.74 104.862,112.74 C105.658004,112.74 106.323997,112.568002 106.86,112.224 L106.86,109.92 Z M116.028,105.612 L116.028,106.944 L111.552,106.944 L111.552,109.164 L115.572,109.164 L115.572,110.424 L111.552,110.424 L111.552,112.668 L116.172,112.668 L116.172,114 L110.136,114 L110.136,105.612 L116.028,105.612 Z" id="INDIA-AVERAGE-Copy-6" fill="#000000" opacity="0.262416295"></path>
            <path d="M18.924,84.872 L18.924,83.612 L23.832,83.612 L23.832,84.716 L21.804,86.984 C22.5720038,87.0080001 23.1719978,87.2499977 23.604,87.71 C24.0360022,88.1700023 24.252,88.7199968 24.252,89.36 C24.252,90.2160043 23.9620029,90.8879976 23.382,91.376 C22.8019971,91.8640024 22.0560046,92.108 21.144,92.108 C20.2319954,92.108 19.3400044,91.8160029 18.468,91.232 L19.068,90.092 C19.7560034,90.5720024 20.4759962,90.812 21.228,90.812 C21.7160024,90.812 22.1179984,90.6980011 22.434,90.47 C22.7500016,90.2419989 22.908,89.9140021 22.908,89.486 C22.908,89.0579979 22.7320018,88.7160013 22.38,88.46 C22.0279982,88.2039987 21.5400031,88.076 20.916,88.076 C20.6039984,88.076 20.3040014,88.1199996 20.016,88.208 L20.016,87.128 L21.96,84.872 L18.924,84.872 Z M28.176,88.244 C28.7440028,87.6679971 29.1479988,87.2160016 29.388,86.888 C29.6280012,86.5599984 29.748,86.2280017 29.748,85.892 C29.748,85.5559983 29.6200013,85.2700012 29.364,85.034 C29.1079987,84.7979988 28.784002,84.68 28.392,84.68 C27.7039966,84.68 27.1320023,85.0319965 26.676,85.736 L25.536,85.076 C25.9040018,84.5239972 26.3099978,84.1080014 26.754,83.828 C27.1980022,83.5479986 27.7699965,83.408 28.47,83.408 C29.1700035,83.408 29.7839974,83.6299978 30.312,84.074 C30.8400026,84.5180022 31.104,85.1239962 31.104,85.892 C31.104,86.3240022 30.9920011,86.735998 30.768,87.128 C30.5439989,87.520002 30.132003,88.0239969 29.532,88.64 L27.564,90.644 L31.368,90.644 L31.368,92 L25.632,92 L25.632,90.8 L28.176,88.244 Z M32.352,83.612 L35.4,83.612 L35.4,92 L34.056,92 L34.056,84.872 L32.352,84.872 L32.352,83.612 Z M42.216,90.092 L41.376,92 L39.864,92 L43.56,83.612 L45.072,83.612 L48.768,92 L47.256,92 L46.416,90.092 L42.216,90.092 Z M45.84,88.784 L44.316,85.328 L42.792,88.784 L45.84,88.784 Z M53.76,92 L52.176,92 L48.804,83.612 L50.388,83.612 L52.968,89.876 L55.548,83.612 L57.132,83.612 L53.76,92 Z M64.224,83.612 L64.224,84.944 L59.748,84.944 L59.748,87.164 L63.768,87.164 L63.768,88.424 L59.748,88.424 L59.748,90.668 L64.368,90.668 L64.368,92 L58.332,92 L58.332,83.612 L64.224,83.612 Z M72.876,86.336 C72.876,87.7200069 72.272006,88.5919982 71.064,88.952 L73.26,92 L71.46,92 L69.456,89.18 L67.596,89.18 L67.596,92 L66.18,92 L66.18,83.612 L69.3,83.612 C70.5800064,83.612 71.4959972,83.8279978 72.048,84.26 C72.6000028,84.6920022 72.876,85.3839952 72.876,86.336 Z M69.36,87.896 C70.160004,87.896 70.7039986,87.7720012 70.992,87.524 C71.2800014,87.2759988 71.424,86.8780027 71.424,86.33 C71.424,85.7819973 71.2760015,85.406001 70.98,85.202 C70.6839985,84.997999 70.1560038,84.896 69.396,84.896 L67.596,84.896 L67.596,87.896 L69.36,87.896 Z M76.104,90.092 L75.264,92 L73.752,92 L77.448,83.612 L78.96,83.612 L82.656,92 L81.144,92 L80.304,90.092 L76.104,90.092 Z M79.728,88.784 L78.204,85.328 L76.68,88.784 L79.728,88.784 Z M89.628,87.92 L91.044,87.92 L91.044,90.788 C90.251996,91.6600044 89.1200074,92.096 87.648,92.096 C86.4079938,92.096 85.3700042,91.6880041 84.534,90.872 C83.6979958,90.0559959 83.28,89.0240062 83.28,87.776 C83.28,86.5279938 83.7059957,85.4880042 84.558,84.656 C85.4100043,83.8239958 86.439994,83.408 87.648,83.408 C88.856006,83.408 89.859996,83.7599965 90.66,84.464 L89.904,85.544 C89.5759984,85.2639986 89.2460017,85.0700005 88.914,84.962 C88.5819983,84.8539995 88.1960022,84.8 87.756,84.8 C86.9079958,84.8 86.1960029,85.0739973 85.62,85.622 C85.0439971,86.1700027 84.756,86.8899955 84.756,87.782 C84.756,88.6740045 85.0359972,89.3899973 85.596,89.93 C86.1560028,90.4700027 86.833996,90.74 87.63,90.74 C88.426004,90.74 89.0919973,90.5680017 89.628,90.224 L89.628,87.92 Z M98.796,83.612 L98.796,84.944 L94.32,84.944 L94.32,87.164 L98.34,87.164 L98.34,88.424 L94.32,88.424 L94.32,90.668 L98.94,90.668 L98.94,92 L92.904,92 L92.904,83.612 L98.796,83.612 Z M105.288,85.388 C104.967998,86.380005 104.808,87.3359954 104.808,88.256 C104.808,89.1760046 104.967998,90.133995 105.288,91.13 C105.608002,92.126005 105.999998,92.9479968 106.464,93.596 L105.036,93.596 C104.643998,93.0519973 104.286002,92.276005 103.962,91.268 C103.637998,90.259995 103.476,89.256005 103.476,88.256 C103.476,87.255995 103.637998,86.252005 103.962,85.244 C104.286002,84.235995 104.643998,83.4600027 105.036,82.916 L106.464,82.916 C105.999998,83.5640032 105.608002,84.387995 105.288,85.388 Z M111.324,92 L109.884,92 L109.884,88.688 L106.764,83.612 L108.312,83.612 L110.604,87.428 L112.896,83.612 L114.444,83.612 L111.324,88.688 L111.324,92 Z M121.404,83.612 L121.404,84.944 L116.928,84.944 L116.928,87.164 L120.948,87.164 L120.948,88.424 L116.928,88.424 L116.928,90.668 L121.548,90.668 L121.548,92 L115.512,92 L115.512,83.612 L121.404,83.612 Z M124.548,90.092 L123.708,92 L122.196,92 L125.892,83.612 L127.404,83.612 L131.1,92 L129.588,92 L128.748,90.092 L124.548,90.092 Z M128.172,88.784 L126.648,85.328 L125.124,88.784 L128.172,88.784 Z M138.96,86.336 C138.96,87.7200069 138.356006,88.5919982 137.148,88.952 L139.344,92 L137.544,92 L135.54,89.18 L133.68,89.18 L133.68,92 L132.264,92 L132.264,83.612 L135.384,83.612 C136.664006,83.612 137.579997,83.8279978 138.132,84.26 C138.684003,84.6920022 138.96,85.3839952 138.96,86.336 Z M135.444,87.896 C136.244004,87.896 136.787999,87.7720012 137.076,87.524 C137.364001,87.2759988 137.508,86.8780027 137.508,86.33 C137.508,85.7819973 137.360001,85.406001 137.064,85.202 C136.767999,84.997999 136.240004,84.896 135.48,84.896 L133.68,84.896 L133.68,87.896 L135.444,87.896 Z M150.18,83.612 L150.18,84.944 L145.704,84.944 L145.704,87.164 L149.724,87.164 L149.724,88.424 L145.704,88.424 L145.704,90.668 L150.324,90.668 L150.324,92 L144.288,92 L144.288,83.612 L150.18,83.612 Z M158.424,83.612 L159.84,83.612 L159.84,92 L158.304,92 L153.552,85.88 L153.552,92 L152.136,92 L152.136,83.612 L153.552,83.612 L158.424,89.876 L158.424,83.612 Z M165.048,83.612 C166.552008,83.612 167.707996,83.9779963 168.516,84.71 C169.324004,85.4420037 169.728,86.4599935 169.728,87.764 C169.728,89.0680065 169.336004,90.0999962 168.552,90.86 C167.767996,91.6200038 166.568008,92 164.952,92 L162.168,92 L162.168,83.612 L165.048,83.612 Z M168.3,87.8 C168.3,85.8799904 167.200011,84.92 165,84.92 L163.584,84.92 L163.584,90.668 L165.156,90.668 C166.172005,90.668 166.949997,90.4260024 167.49,89.942 C168.030003,89.4579976 168.3,88.7440047 168.3,87.8 Z M171.96,91.136 C172.280002,90.135995 172.44,89.1760046 172.44,88.256 C172.44,87.3359954 172.280002,86.378005 171.96,85.382 C171.639998,84.385995 171.248002,83.5640032 170.784,82.916 L172.212,82.916 C172.604002,83.4600027 172.961998,84.235995 173.286,85.244 C173.610002,86.252005 173.772,87.255995 173.772,88.256 C173.772,89.256005 173.610002,90.259995 173.286,91.268 C172.961998,92.276005 172.604002,93.0519973 172.212,93.596 L170.784,93.596 C171.248002,92.9479968 171.639998,92.128005 171.96,91.136 Z" id="321-AVERAGE-(YEAR-EN-Copy-4" fill="#000000" opacity="0.262416295"></path>
            <path d="M230.248,11.028 C229.727997,11.028 229.326001,11.2019983 229.042,11.55 C228.757999,11.8980017 228.584,12.371997 228.52,12.972 C229.040003,12.6359983 229.591997,12.468 230.176,12.468 C230.960004,12.468 231.613997,12.7239974 232.138,13.236 C232.662003,13.7480026 232.924,14.4299957 232.924,15.282 C232.924,16.1340043 232.642003,16.8159974 232.078,17.328 C231.513997,17.8400026 230.804004,18.096 229.948,18.096 C229.355997,18.096 228.842002,17.9820011 228.406,17.754 C227.969998,17.5259989 227.632001,17.208002 227.392,16.8 C226.911998,16.007996 226.672,15.016006 226.672,13.824 C226.672,13.0559962 226.765999,12.3820029 226.954,11.802 C227.142001,11.2219971 227.399998,10.7640017 227.728,10.428 C228.368003,9.75599664 229.159995,9.42 230.104,9.42 C230.496002,9.42 230.869998,9.47799942 231.226,9.594 C231.582002,9.71000058 231.855999,9.8279994 232.048,9.948 C232.240001,10.0680006 232.451999,10.2199991 232.684,10.404 L231.796,11.724 C231.748,11.6759998 231.678,11.6120004 231.586,11.532 C231.494,11.4519996 231.312001,11.3480006 231.04,11.22 C230.767999,11.0919994 230.504001,11.028 230.248,11.028 Z M229.996,14.052 C229.627998,14.052 229.318001,14.1619989 229.066,14.382 C228.813999,14.6020011 228.688,14.8879982 228.688,15.24 C228.688,15.5920018 228.807999,15.8939987 229.048,16.146 C229.288001,16.3980013 229.587998,16.524 229.948,16.524 C230.308002,16.524 230.607999,16.4120011 230.848,16.188 C231.088001,15.9639989 231.208,15.6740018 231.208,15.318 C231.208,14.9619982 231.100001,14.6620012 230.884,14.418 C230.667999,14.1739988 230.372002,14.052 229.996,14.052 Z M236.464,11.736 C236.199999,12.2480026 236.068,12.9239958 236.068,13.764 C236.068,14.6040042 236.199999,15.2799974 236.464,15.792 C236.728001,16.3040026 237.139997,16.56 237.7,16.56 C238.260003,16.56 238.671999,16.3040026 238.936,15.792 C239.200001,15.2799974 239.332,14.6040042 239.332,13.764 C239.332,12.9239958 239.200001,12.2480026 238.936,11.736 C238.671999,11.2239974 238.260003,10.968 237.7,10.968 C237.139997,10.968 236.728001,11.2239974 236.464,11.736 Z M237.7,18.096 C236.539994,18.096 235.672003,17.7020039 235.096,16.914 C234.519997,16.1259961 234.232,15.0740066 234.232,13.758 C234.232,12.4419934 234.519997,11.3900039 235.096,10.602 C235.672003,9.81399606 236.539994,9.42 237.7,9.42 C238.860006,9.42 239.727997,9.81399606 240.304,10.602 C240.880003,11.3900039 241.168,12.4419934 241.168,13.758 C241.168,15.0740066 240.880003,16.1259961 240.304,16.914 C239.727997,17.7020039 238.860006,18.096 237.7,18.096 Z M250.756,9.612 L244.744,18 L242.68,18 L248.704,9.612 L250.756,9.612 Z M248.74,16.848 C248.836,16.9520005 248.955999,17.004 249.1,17.004 C249.244001,17.004 249.364,16.9500005 249.46,16.842 C249.556,16.7339995 249.604,16.5920009 249.604,16.416 C249.604,16.2399991 249.556,16.0940006 249.46,15.978 C249.364,15.8619994 249.246001,15.804 249.106,15.804 C248.965999,15.804 248.848,15.8619994 248.752,15.978 C248.656,16.0940006 248.608,16.2399991 248.608,16.416 C248.608,16.5920009 248.652,16.7359994 248.74,16.848 Z M250.876,16.416 C250.876,16.8880024 250.708002,17.2859984 250.372,17.61 C250.035998,17.9340016 249.614003,18.096 249.106,18.096 C248.597997,18.096 248.176002,17.9320016 247.84,17.604 C247.503998,17.2759984 247.336,16.8780023 247.336,16.41 C247.336,15.9419977 247.503998,15.5440016 247.84,15.216 C248.176002,14.8879984 248.597997,14.724 249.106,14.724 C249.614003,14.724 250.035998,14.8879984 250.372,15.216 C250.708002,15.5440016 250.876,15.9439976 250.876,16.416 Z M244.012,11.94 C244.108,12.0440005 244.227999,12.096 244.372,12.096 C244.516001,12.096 244.636,12.0420005 244.732,11.934 C244.828,11.8259995 244.876,11.6840009 244.876,11.508 C244.876,11.3319991 244.828,11.1860006 244.732,11.07 C244.636,10.9539994 244.518001,10.896 244.378,10.896 C244.237999,10.896 244.12,10.9539994 244.024,11.07 C243.928,11.1860006 243.88,11.3319991 243.88,11.508 C243.88,11.6840009 243.924,11.8279994 244.012,11.94 Z M246.148,11.508 C246.148,11.9800024 245.980002,12.3779984 245.644,12.702 C245.307998,13.0260016 244.886003,13.188 244.378,13.188 C243.869997,13.188 243.448002,13.0240016 243.112,12.696 C242.775998,12.3679984 242.608,11.9700023 242.608,11.502 C242.608,11.0339977 242.775998,10.6360016 243.112,10.308 C243.448002,9.97999836 243.869997,9.816 244.378,9.816 C244.886003,9.816 245.307998,9.97999836 245.644,10.308 C245.980002,10.6360016 246.148,11.0359976 246.148,11.508 Z" id="60%-copy" fill="#84AFFF"></path>
            <path d="M225.072,39.612 L225.072,41.232 L221.76,41.232 L221.76,42.636 C222.008001,42.5639996 222.291998,42.528 222.612,42.528 C223.420004,42.528 224.115997,42.7719976 224.7,43.26 C225.284003,43.7480024 225.576,44.4059959 225.576,45.234 C225.576,46.0620041 225.274003,46.7459973 224.67,47.286 C224.065997,47.8260027 223.320004,48.096 222.432,48.096 C221.295994,48.096 220.348004,47.6760042 219.588,46.836 L220.572,45.468 C220.644,45.5400004 220.739999,45.6279995 220.86,45.732 C220.980001,45.8360005 221.199998,45.9739991 221.52,46.146 C221.840002,46.3180009 222.159998,46.404 222.48,46.404 C222.800002,46.404 223.083999,46.308001 223.332,46.116 C223.580001,45.923999 223.704,45.6400019 223.704,45.264 C223.704,44.8879981 223.570001,44.598001 223.302,44.394 C223.033999,44.189999 222.688002,44.088 222.264,44.088 C221.839998,44.088 221.348003,44.2399985 220.788,44.544 L220.008,43.704 L220.008,39.612 L225.072,39.612 Z M227.916,40.08 C228.476003,39.6399978 229.171996,39.42 230.004,39.42 C230.836004,39.42 231.527997,39.6399978 232.08,40.08 C232.632003,40.5200022 232.908,41.0619968 232.908,41.706 C232.908,42.3500032 232.660002,42.9039977 232.164,43.368 C232.860003,43.9040027 233.208,44.6079956 233.208,45.48 C233.208,46.2160037 232.912003,46.8359975 232.32,47.34 C231.727997,47.8440025 230.956005,48.096 230.004,48.096 C229.051995,48.096 228.280003,47.8440025 227.688,47.34 C227.095997,46.8359975 226.8,46.2160037 226.8,45.48 C226.8,44.6079956 227.147997,43.9040027 227.844,43.368 C227.339997,42.8959976 227.088,42.3400032 227.088,41.7 C227.088,41.0599968 227.363997,40.5200022 227.916,40.08 Z M229.092,46.26 C229.372001,46.4440009 229.675998,46.536 230.004,46.536 C230.332002,46.536 230.635999,46.4420009 230.916,46.254 C231.196001,46.0659991 231.336,45.7920018 231.336,45.432 C231.336,45.0719982 231.200001,44.796001 230.928,44.604 C230.655999,44.411999 230.348002,44.316 230.004,44.316 C229.659998,44.316 229.352001,44.411999 229.08,44.604 C228.807999,44.796001 228.672,45.0719982 228.672,45.432 C228.672,45.7920018 228.811999,46.067999 229.092,46.26 Z M229.2,42.588 C229.432001,42.780001 229.699998,42.876 230.004,42.876 C230.308002,42.876 230.573999,42.780001 230.802,42.588 C231.030001,42.395999 231.144,42.1580014 231.144,41.874 C231.144,41.5899986 231.032001,41.352001 230.808,41.16 C230.583999,40.967999 230.316002,40.872 230.004,40.872 C229.691998,40.872 229.424001,40.967999 229.2,41.16 C228.975999,41.352001 228.864,41.5899986 228.864,41.874 C228.864,42.1580014 228.975999,42.395999 229.2,42.588 Z M242.772,39.612 L236.76,48 L234.696,48 L240.72,39.612 L242.772,39.612 Z M240.756,46.848 C240.852,46.9520005 240.971999,47.004 241.116,47.004 C241.260001,47.004 241.38,46.9500005 241.476,46.842 C241.572,46.7339995 241.62,46.5920009 241.62,46.416 C241.62,46.2399991 241.572,46.0940006 241.476,45.978 C241.38,45.8619994 241.262001,45.804 241.122,45.804 C240.981999,45.804 240.864,45.8619994 240.768,45.978 C240.672,46.0940006 240.624,46.2399991 240.624,46.416 C240.624,46.5920009 240.668,46.7359994 240.756,46.848 Z M242.892,46.416 C242.892,46.8880024 242.724002,47.2859984 242.388,47.61 C242.051998,47.9340016 241.630003,48.096 241.122,48.096 C240.613997,48.096 240.192002,47.9320016 239.856,47.604 C239.519998,47.2759984 239.352,46.8780023 239.352,46.41 C239.352,45.9419977 239.519998,45.5440016 239.856,45.216 C240.192002,44.8879984 240.613997,44.724 241.122,44.724 C241.630003,44.724 242.051998,44.8879984 242.388,45.216 C242.724002,45.5440016 242.892,45.9439976 242.892,46.416 Z M236.028,41.94 C236.124,42.0440005 236.243999,42.096 236.388,42.096 C236.532001,42.096 236.652,42.0420005 236.748,41.934 C236.844,41.8259995 236.892,41.6840009 236.892,41.508 C236.892,41.3319991 236.844,41.1860006 236.748,41.07 C236.652,40.9539994 236.534001,40.896 236.394,40.896 C236.253999,40.896 236.136,40.9539994 236.04,41.07 C235.944,41.1860006 235.896,41.3319991 235.896,41.508 C235.896,41.6840009 235.94,41.8279994 236.028,41.94 Z M238.164,41.508 C238.164,41.9800024 237.996002,42.3779984 237.66,42.702 C237.323998,43.0260016 236.902003,43.188 236.394,43.188 C235.885997,43.188 235.464002,43.0240016 235.128,42.696 C234.791998,42.3679984 234.624,41.9700023 234.624,41.502 C234.624,41.0339977 234.791998,40.6360016 235.128,40.308 C235.464002,39.9799984 235.885997,39.816 236.394,39.816 C236.902003,39.816 237.323998,39.9799984 237.66,40.308 C237.996002,40.6360016 238.164,41.0359976 238.164,41.508 Z" id="58%-copy" fill="#BDBDBD"></path>
            <polygon id="Fill-1-Copy-2" fill="#84AFFF" points="4.26325641e-14 30 214.232422 30 214.232422 0 4.26325641e-14 0"></polygon>
            <polygon id="Fill-2-Copy-2" fill="#E6E7E8" points="-1.42108547e-14 60 209.906732 60 209.906732 30 -1.42108547e-14 30"></polygon>
        </g>
    </g>
</svg>