<?xml version="1.0" encoding="UTF-8"?>
<svg width="922px" height="100px" viewBox="0 0 922 100" version="1.1" xmlns="http://www.w3.org/2000/svg" xmlns:xlink="http://www.w3.org/1999/xlink">
    <!-- Generator: Sketch 52.4 (67378) - http://www.bohemiancoding.com/sketch -->
    <title>Student-graph-desktop</title>
    <desc>Created with Sketch.</desc>
    <g id="Page-1" stroke="none" stroke-width="1" fill="none" fill-rule="evenodd">
        <g id="Student-graph-desktop">
            <rect id="Rectangle" fill="#FFFFFF" fill-rule="nonzero" x="0" y="0" width="922" height="100"></rect>
            <polygon id="Fill-1" fill="#84AFFF" points="0 50 665.960937 50 665.960937 0 0 0"></polygon>
            <polygon id="Fill-2" fill="#E6E7E8" points="0 100 652.514139 100 652.514139 50 0 50"></polygon>
            <path d="M17.261,69.913 L18.795,69.913 L18.795,79 L17.261,79 L17.261,69.913 Z M28.129,69.913 L29.663,69.913 L29.663,79 L27.999,79 L22.851,72.37 L22.851,79 L21.317,79 L21.317,69.913 L22.851,69.913 L28.129,76.699 L28.129,69.913 Z M35.305,69.913 C36.9343415,69.913 38.1866623,70.309496 39.062,71.1025 C39.9373377,71.895504 40.375,72.9983263 40.375,74.411 C40.375,75.8236737 39.9503376,76.9416625 39.101,77.765 C38.2516624,78.5883374 36.9516754,79 35.201,79 L32.185,79 L32.185,69.913 L35.305,69.913 Z M38.828,74.45 C38.828,72.3699896 37.6363452,71.33 35.253,71.33 L33.719,71.33 L33.719,77.557 L35.422,77.557 C36.5226722,77.557 37.3654971,77.294836 37.9505,76.7705 C38.5355029,76.246164 38.828,75.4726718 38.828,74.45 Z M42.351,69.913 L43.885,69.913 L43.885,79 L42.351,79 L42.351,69.913 Z M47.694,76.933 L46.784,79 L45.146,79 L49.15,69.913 L50.788,69.913 L54.792,79 L53.154,79 L52.244,76.933 L47.694,76.933 Z M51.62,75.516 L49.969,71.772 L48.318,75.516 L51.62,75.516 Z M60.902,76.933 L59.992,79 L58.354,79 L62.358,69.913 L63.996,69.913 L68,79 L66.362,79 L65.452,76.933 L60.902,76.933 Z M64.828,75.516 L63.177,71.772 L61.526,75.516 L64.828,75.516 Z M73.408,79 L71.692,79 L68.039,69.913 L69.755,69.913 L72.55,76.699 L75.345,69.913 L77.061,69.913 L73.408,79 Z M84.744,69.913 L84.744,71.356 L79.895,71.356 L79.895,73.761 L84.25,73.761 L84.25,75.126 L79.895,75.126 L79.895,77.557 L84.9,77.557 L84.9,79 L78.361,79 L78.361,69.913 L84.744,69.913 Z M94.117,72.864 C94.117,74.3633408 93.4626732,75.307998 92.154,75.698 L94.533,79 L92.583,79 L90.412,75.945 L88.397,75.945 L88.397,79 L86.863,79 L86.863,69.913 L90.243,69.913 C91.6296736,69.913 92.621997,70.1469977 93.22,70.615 C93.818003,71.0830023 94.117,71.8326615 94.117,72.864 Z M90.308,74.554 C91.174671,74.554 91.7639984,74.419668 92.076,74.151 C92.3880016,73.882332 92.544,73.4511696 92.544,72.8575 C92.544,72.2638304 92.3836683,71.8565011 92.063,71.6355 C91.7423317,71.4144989 91.1703374,71.304 90.347,71.304 L88.397,71.304 L88.397,74.554 L90.308,74.554 Z M97.614,76.933 L96.704,79 L95.066,79 L99.07,69.913 L100.708,69.913 L104.712,79 L103.074,79 L102.164,76.933 L97.614,76.933 Z M101.54,75.516 L99.889,71.772 L98.238,75.516 L101.54,75.516 Z M112.265,74.58 L113.799,74.58 L113.799,77.687 C112.940996,78.6316714 111.714675,79.104 110.12,79.104 C108.77666,79.104 107.652171,78.6620044 106.7465,77.778 C105.840829,76.8939956 105.388,75.7760068 105.388,74.424 C105.388,73.0719932 105.849495,71.9453378 106.7725,71.044 C107.695505,70.1426622 108.811327,69.692 110.12,69.692 C111.428673,69.692 112.516329,70.0733295 113.383,70.836 L112.564,72.006 C112.208665,71.7026652 111.851168,71.4925006 111.4915,71.3755 C111.131832,71.2584994 110.713669,71.2 110.237,71.2 C109.318329,71.2 108.547003,71.4968304 107.923,72.0905 C107.298997,72.6841696 106.987,73.4641618 106.987,74.4305 C106.987,75.3968382 107.29033,76.1724971 107.897,76.7575 C108.50367,77.3425029 109.238162,77.635 110.1005,77.635 C110.962838,77.635 111.68433,77.4486685 112.265,77.076 L112.265,74.58 Z M122.197,69.913 L122.197,71.356 L117.348,71.356 L117.348,73.761 L121.703,73.761 L121.703,75.126 L117.348,75.126 L117.348,77.557 L122.353,77.557 L122.353,79 L115.814,79 L115.814,69.913 L122.197,69.913 Z" id="INDIA-AVERAGE-Copy-3" fill="#000000"></path>
            <path d="M17.001,21.278 L17.001,19.913 L22.318,19.913 L22.318,21.109 L20.121,23.566 C20.9530042,23.5920001 21.6029977,23.8541642 22.071,24.3525 C22.5390023,24.8508358 22.773,25.4466632 22.773,26.14 C22.773,27.067338 22.4588365,27.7953307 21.8305,28.324 C21.2021635,28.8526693 20.3940049,29.117 19.406,29.117 C18.4179951,29.117 17.4516714,28.8006698 16.507,28.168 L17.157,26.933 C17.9023371,27.4530026 18.6823293,27.713 19.497,27.713 C20.0256693,27.713 20.461165,27.5895012 20.8035,27.3425 C21.145835,27.0954988 21.317,26.740169 21.317,26.2765 C21.317,25.812831 21.1263352,25.4423347 20.745,25.165 C20.3636648,24.8876653 19.8350034,24.749 19.159,24.749 C18.8209983,24.749 18.4960016,24.7966662 18.184,24.892 L18.184,23.722 L20.29,21.278 L17.001,21.278 Z M27.024,24.931 C27.6393364,24.3069969 28.0769987,23.8173351 28.337,23.462 C28.5970013,23.1066649 28.727,22.7470018 28.727,22.383 C28.727,22.0189982 28.5883347,21.7091679 28.311,21.4535 C28.0336653,21.1978321 27.6826688,21.07 27.258,21.07 C26.5126629,21.07 25.8930025,21.4513295 25.399,22.214 L24.164,21.499 C24.5626687,20.900997 25.0024976,20.4503349 25.4835,20.147 C25.9645024,19.8436652 26.5841629,19.692 27.3425,19.692 C28.1008371,19.692 28.7659971,19.9324976 29.338,20.4135 C29.9100029,20.8945024 30.196,21.5509958 30.196,22.383 C30.196,22.8510023 30.0746679,23.2973312 29.832,23.722 C29.5893321,24.1466688 29.1430033,24.6926633 28.493,25.36 L26.361,27.531 L30.482,27.531 L30.482,29 L24.268,29 L24.268,27.7 L27.024,24.931 Z M31.548,19.913 L34.85,19.913 L34.85,29 L33.394,29 L33.394,21.278 L31.548,21.278 L31.548,19.913 Z M42.234,26.933 L41.324,29 L39.686,29 L43.69,19.913 L45.328,19.913 L49.332,29 L47.694,29 L46.784,26.933 L42.234,26.933 Z M46.16,25.516 L44.509,21.772 L42.858,25.516 L46.16,25.516 Z M54.74,29 L53.024,29 L49.371,19.913 L51.087,19.913 L53.882,26.699 L56.677,19.913 L58.393,19.913 L54.74,29 Z M66.076,19.913 L66.076,21.356 L61.227,21.356 L61.227,23.761 L65.582,23.761 L65.582,25.126 L61.227,25.126 L61.227,27.557 L66.232,27.557 L66.232,29 L59.693,29 L59.693,19.913 L66.076,19.913 Z M75.449,22.864 C75.449,24.3633408 74.7946732,25.3079981 73.486,25.698 L75.865,29 L73.915,29 L71.744,25.945 L69.729,25.945 L69.729,29 L68.195,29 L68.195,19.913 L71.575,19.913 C72.9616736,19.913 73.953997,20.1469977 74.552,20.615 C75.150003,21.0830023 75.449,21.8326615 75.449,22.864 Z M71.64,24.554 C72.506671,24.554 73.0959984,24.419668 73.408,24.151 C73.7200016,23.882332 73.876,23.4511696 73.876,22.8575 C73.876,22.2638304 73.7156683,21.8565011 73.395,21.6355 C73.0743317,21.4144989 72.5023375,21.304 71.679,21.304 L69.729,21.304 L69.729,24.554 L71.64,24.554 Z M78.946,26.933 L78.036,29 L76.398,29 L80.402,19.913 L82.04,19.913 L86.044,29 L84.406,29 L83.496,26.933 L78.946,26.933 Z M82.872,25.516 L81.221,21.772 L79.57,25.516 L82.872,25.516 Z M93.597,24.58 L95.131,24.58 L95.131,27.687 C94.2729957,28.6316714 93.0466746,29.104 91.452,29.104 C90.1086599,29.104 88.9841712,28.6620044 88.0785,27.778 C87.1728288,26.8939956 86.72,25.7760068 86.72,24.424 C86.72,23.0719932 87.1814954,21.9453378 88.1045,21.044 C89.0275046,20.1426622 90.1433268,19.692 91.452,19.692 C92.7606732,19.692 93.848329,20.0733295 94.715,20.836 L93.896,22.006 C93.5406649,21.7026652 93.1831685,21.4925006 92.8235,21.3755 C92.4638315,21.2584994 92.0456691,21.2 91.569,21.2 C90.6503287,21.2 89.8790031,21.4968304 89.255,22.0905 C88.6309969,22.6841696 88.319,23.4641618 88.319,24.4305 C88.319,25.3968382 88.6223303,26.1724971 89.229,26.7575 C89.8356697,27.3425029 90.5701624,27.635 91.4325,27.635 C92.2948376,27.635 93.0163304,27.4486685 93.597,27.076 L93.597,24.58 Z M103.529,19.913 L103.529,21.356 L98.68,21.356 L98.68,23.761 L103.035,23.761 L103.035,25.126 L98.68,25.126 L98.68,27.557 L103.685,27.557 L103.685,29 L97.146,29 L97.146,19.913 L103.529,19.913 Z" id="321-AVERAGE" fill="#000000"></path>
            <path d="M692.496,19.056 C691.455995,19.056 690.652003,19.4039965 690.084,20.1 C689.515997,20.7960035 689.168001,21.743994 689.04,22.944 C690.080005,22.2719966 691.183994,21.936 692.352,21.936 C693.920008,21.936 695.227995,22.4479949 696.276,23.472 C697.324005,24.4960051 697.848,25.8599915 697.848,27.564 C697.848,29.2680085 697.284006,30.6319949 696.156,31.656 C695.027994,32.6800051 693.608009,33.192 691.896,33.192 C690.711994,33.192 689.684004,32.9640023 688.812,32.508 C687.939996,32.0519977 687.264002,31.4160041 686.784,30.6 C685.823995,29.0159921 685.344,27.0320119 685.344,24.648 C685.344,23.1119923 685.531998,21.7640058 685.908,20.604 C686.284002,19.4439942 686.799997,18.5280034 687.456,17.856 C688.736006,16.5119933 690.319991,15.84 692.208,15.84 C692.992004,15.84 693.739996,15.9559988 694.452,16.188 C695.164004,16.4200012 695.711998,16.6559988 696.096,16.896 C696.480002,17.1360012 696.903998,17.4399982 697.368,17.808 L695.592,20.448 C695.496,20.3519995 695.356001,20.2240008 695.172,20.064 C694.987999,19.9039992 694.624003,19.6960013 694.08,19.44 C693.535997,19.1839987 693.008003,19.056 692.496,19.056 Z M691.992,25.104 C691.255996,25.104 690.636003,25.3239978 690.132,25.764 C689.627997,26.2040022 689.376,26.7759965 689.376,27.48 C689.376,28.1840035 689.615998,28.7879975 690.096,29.292 C690.576002,29.7960025 691.175996,30.048 691.896,30.048 C692.616004,30.048 693.215998,29.8240022 693.696,29.376 C694.176002,28.9279978 694.416,28.3480036 694.416,27.636 C694.416,26.9239964 694.200002,26.3240024 693.768,25.836 C693.335998,25.3479976 692.744004,25.104 691.992,25.104 Z M704.428,20.472 C703.899997,21.4960051 703.636,22.8479916 703.636,24.528 C703.636,26.2080084 703.899997,27.5599949 704.428,28.584 C704.956003,29.6080051 705.779994,30.12 706.9,30.12 C708.020006,30.12 708.843997,29.6080051 709.372,28.584 C709.900003,27.5599949 710.164,26.2080084 710.164,24.528 C710.164,22.8479916 709.900003,21.4960051 709.372,20.472 C708.843997,19.4479949 708.020006,18.936 706.9,18.936 C705.779994,18.936 704.956003,19.4479949 704.428,20.472 Z M706.9,33.192 C704.579988,33.192 702.844006,32.4040079 701.692,30.828 C700.539994,29.2519921 699.964,27.1480132 699.964,24.516 C699.964,21.8839868 700.539994,19.7800079 701.692,18.204 C702.844006,16.6279921 704.579988,15.84 706.9,15.84 C709.220012,15.84 710.955994,16.6279921 712.108,18.204 C713.260006,19.7800079 713.836,21.8839868 713.836,24.516 C713.836,27.1480132 713.260006,29.2519921 712.108,30.828 C710.955994,32.4040079 709.220012,33.192 706.9,33.192 Z M732.512,16.224 L720.488,33 L716.36,33 L728.408,16.224 L732.512,16.224 Z M728.48,30.696 C728.672001,30.904001 728.911999,31.008 729.2,31.008 C729.488001,31.008 729.727999,30.9000011 729.92,30.684 C730.112001,30.4679989 730.208,30.1840018 730.208,29.832 C730.208,29.4799982 730.112001,29.1880012 729.92,28.956 C729.727999,28.7239988 729.492001,28.608 729.212,28.608 C728.931999,28.608 728.696001,28.7239988 728.504,28.956 C728.311999,29.1880012 728.216,29.4799982 728.216,29.832 C728.216,30.1840018 728.303999,30.4719989 728.48,30.696 Z M732.752,29.832 C732.752,30.7760047 732.416003,31.5719968 731.744,32.22 C731.071997,32.8680032 730.228005,33.192 729.212,33.192 C728.195995,33.192 727.352003,32.8640033 726.68,32.208 C726.007997,31.5519967 725.672,30.7560047 725.672,29.82 C725.672,28.8839953 726.007997,28.0880033 726.68,27.432 C727.352003,26.7759967 728.195995,26.448 729.212,26.448 C730.228005,26.448 731.071997,26.7759967 731.744,27.432 C732.416003,28.0880033 732.752,28.8879953 732.752,29.832 Z M719.024,20.88 C719.216001,21.088001 719.455999,21.192 719.744,21.192 C720.032001,21.192 720.271999,21.0840011 720.464,20.868 C720.656001,20.6519989 720.752,20.3680018 720.752,20.016 C720.752,19.6639982 720.656001,19.3720012 720.464,19.14 C720.271999,18.9079988 720.036001,18.792 719.756,18.792 C719.475999,18.792 719.240001,18.9079988 719.048,19.14 C718.855999,19.3720012 718.76,19.6639982 718.76,20.016 C718.76,20.3680018 718.847999,20.6559989 719.024,20.88 Z M723.296,20.016 C723.296,20.9600047 722.960003,21.7559968 722.288,22.404 C721.615997,23.0520032 720.772005,23.376 719.756,23.376 C718.739995,23.376 717.896003,23.0480033 717.224,22.392 C716.551997,21.7359967 716.216,20.9400047 716.216,20.004 C716.216,19.0679953 716.551997,18.2720033 717.224,17.616 C717.896003,16.9599967 718.739995,16.632 719.756,16.632 C720.772005,16.632 721.615997,16.9599967 722.288,17.616 C722.960003,18.2720033 723.296,19.0719953 723.296,20.016 Z" id="60%" fill="#84AFFF"></path>
            <path d="M685.144,66.224 L685.144,69.464 L678.52,69.464 L678.52,72.272 C679.016002,72.1279993 679.583997,72.056 680.224,72.056 C681.840008,72.056 683.231994,72.5439951 684.4,73.52 C685.568006,74.4960049 686.152,75.8119917 686.152,77.468 C686.152,79.1240083 685.548006,80.4919946 684.34,81.572 C683.131994,82.6520054 681.640009,83.192 679.864,83.192 C677.591989,83.192 675.696008,82.3520084 674.176,80.672 L676.144,77.936 C676.288001,78.0800007 676.479999,78.255999 676.72,78.464 C676.960001,78.672001 677.399997,78.9479983 678.04,79.292 C678.680003,79.6360017 679.319997,79.808 679.96,79.808 C680.600003,79.808 681.167998,79.6160019 681.664,79.232 C682.160002,78.8479981 682.408,78.2800038 682.408,77.528 C682.408,76.7759962 682.140003,76.196002 681.604,75.788 C681.067997,75.379998 680.376004,75.176 679.528,75.176 C678.679996,75.176 677.696006,75.479997 676.576,76.088 L675.016,74.408 L675.016,66.224 L685.144,66.224 Z M690.332,67.16 C691.452006,66.2799956 692.843992,65.84 694.508,65.84 C696.172008,65.84 697.555994,66.2799956 698.66,67.16 C699.764006,68.0400044 700.316,69.1239936 700.316,70.412 C700.316,71.7000064 699.820005,72.8079954 698.828,73.736 C700.220007,74.8080054 700.916,76.2159913 700.916,77.96 C700.916,79.4320074 700.324006,80.671995 699.14,81.68 C697.955994,82.688005 696.41201,83.192 694.508,83.192 C692.60399,83.192 691.060006,82.688005 689.876,81.68 C688.691994,80.671995 688.1,79.4320074 688.1,77.96 C688.1,76.2159913 688.795993,74.8080054 690.188,73.736 C689.179995,72.7919953 688.676,71.6800064 688.676,70.4 C688.676,69.1199936 689.227994,68.0400044 690.332,67.16 Z M692.684,79.52 C693.244003,79.8880018 693.851997,80.072 694.508,80.072 C695.164003,80.072 695.771997,79.8840019 696.332,79.508 C696.892003,79.1319981 697.172,78.5840036 697.172,77.864 C697.172,77.1439964 696.900003,76.5920019 696.356,76.208 C695.811997,75.8239981 695.196003,75.632 694.508,75.632 C693.819997,75.632 693.204003,75.8239981 692.66,76.208 C692.115997,76.5920019 691.844,77.1439964 691.844,77.864 C691.844,78.5840036 692.123997,79.1359981 692.684,79.52 Z M692.9,72.176 C693.364002,72.5600019 693.899997,72.752 694.508,72.752 C695.116003,72.752 695.647998,72.5600019 696.104,72.176 C696.560002,71.7919981 696.788,71.3160028 696.788,70.748 C696.788,70.1799972 696.564002,69.7040019 696.116,69.32 C695.667998,68.9359981 695.132003,68.744 694.508,68.744 C693.883997,68.744 693.348002,68.9359981 692.9,69.32 C692.451998,69.7040019 692.228,70.1799972 692.228,70.748 C692.228,71.3160028 692.451998,71.7919981 692.9,72.176 Z M719.544,66.224 L707.52,83 L703.392,83 L715.44,66.224 L719.544,66.224 Z M715.512,80.696 C715.704001,80.904001 715.943999,81.008 716.232,81.008 C716.520001,81.008 716.759999,80.9000011 716.952,80.684 C717.144001,80.4679989 717.24,80.1840018 717.24,79.832 C717.24,79.4799982 717.144001,79.1880012 716.952,78.956 C716.759999,78.7239988 716.524001,78.608 716.244,78.608 C715.963999,78.608 715.728001,78.7239988 715.536,78.956 C715.343999,79.1880012 715.248,79.4799982 715.248,79.832 C715.248,80.1840018 715.335999,80.4719989 715.512,80.696 Z M719.784,79.832 C719.784,80.7760047 719.448003,81.5719968 718.776,82.22 C718.103997,82.8680032 717.260005,83.192 716.244,83.192 C715.227995,83.192 714.384003,82.8640033 713.712,82.208 C713.039997,81.5519967 712.704,80.7560047 712.704,79.82 C712.704,78.8839953 713.039997,78.0880033 713.712,77.432 C714.384003,76.7759967 715.227995,76.448 716.244,76.448 C717.260005,76.448 718.103997,76.7759967 718.776,77.432 C719.448003,78.0880033 719.784,78.8879953 719.784,79.832 Z M706.056,70.88 C706.248001,71.088001 706.487999,71.192 706.776,71.192 C707.064001,71.192 707.303999,71.0840011 707.496,70.868 C707.688001,70.6519989 707.784,70.3680018 707.784,70.016 C707.784,69.6639982 707.688001,69.3720012 707.496,69.14 C707.303999,68.9079988 707.068001,68.792 706.788,68.792 C706.507999,68.792 706.272001,68.9079988 706.08,69.14 C705.887999,69.3720012 705.792,69.6639982 705.792,70.016 C705.792,70.3680018 705.879999,70.6559989 706.056,70.88 Z M710.328,70.016 C710.328,70.9600047 709.992003,71.7559968 709.32,72.404 C708.647997,73.0520032 707.804005,73.376 706.788,73.376 C705.771995,73.376 704.928003,73.0480033 704.256,72.392 C703.583997,71.7359967 703.248,70.9400047 703.248,70.004 C703.248,69.0679953 703.583997,68.2720033 704.256,67.616 C704.928003,66.9599967 705.771995,66.632 706.788,66.632 C707.804005,66.632 708.647997,66.9599967 709.32,67.616 C709.992003,68.2720033 710.328,69.0719953 710.328,70.016 Z" id="58%" fill="#BDBDBD"></path>
        </g>
    </g>
</svg>