<svg width="308" height="117" viewBox="0 0 308 117" fill="none" xmlns="http://www.w3.org/2000/svg">
<path d="M308 0H0V117H308V0Z" fill="white"/>
<mask id="mask0" mask-type="alpha" maskUnits="userSpaceOnUse" x="1" y="83" width="10" height="10">
<path d="M11 88C11 90.7613 8.76133 93 6 93C3.23867 93 1 90.7613 1 88C1 85.2387 3.23867 83 6 83C8.76133 83 11 85.2387 11 88Z" fill="white"/>
</mask>
<g mask="url(#mask0)">
<path fill-rule="evenodd" clip-rule="evenodd" d="M-0.666687 94.6667H12.6666V81.3333H-0.666687V94.6667Z" fill="#E6E7E8"/>
</g>
<mask id="mask1" mask-type="alpha" maskUnits="userSpaceOnUse" x="1" y="105" width="10" height="10">
<path d="M11 110C11 112.761 8.76133 115 6 115C3.23867 115 1 112.761 1 110C1 107.239 3.23867 105 6 105C8.76133 105 11 107.239 11 110Z" fill="white"/>
</mask>
<g mask="url(#mask1)">
<path fill-rule="evenodd" clip-rule="evenodd" d="M-0.666687 116.667H12.6666V103.333H-0.666687V116.667Z" fill="#84AFFF"/>
</g>
<g opacity="0.262416">
<path d="M31.9 105.6L29.068 114H28.132L25.672 106.836L23.2 114H22.276L19.444 105.6H20.356L22.78 112.824L25.288 105.6H26.116L28.588 112.86L31.048 105.6H31.9Z" fill="black"/>
<path d="M33.313 107.688H34.165V114H33.313V107.688ZM33.745 106.308C33.569 106.308 33.421 106.248 33.301 106.128C33.181 106.008 33.121 105.864 33.121 105.696C33.121 105.536 33.181 105.396 33.301 105.276C33.421 105.156 33.569 105.096 33.745 105.096C33.921 105.096 34.069 105.156 34.189 105.276C34.309 105.388 34.369 105.524 34.369 105.684C34.369 105.86 34.309 106.008 34.189 106.128C34.069 106.248 33.921 106.308 33.745 106.308Z" fill="black"/>
<path d="M39.8596 113.616C39.6996 113.76 39.4996 113.872 39.2596 113.952C39.0276 114.024 38.7836 114.06 38.5276 114.06C37.9356 114.06 37.4796 113.9 37.1596 113.58C36.8396 113.26 36.6796 112.808 36.6796 112.224V108.408H35.5516V107.688H36.6796V106.308H37.5316V107.688H39.4516V108.408H37.5316V112.176C37.5316 112.552 37.6236 112.84 37.8076 113.04C37.9996 113.232 38.2716 113.328 38.6236 113.328C38.7996 113.328 38.9676 113.3 39.1276 113.244C39.2956 113.188 39.4396 113.108 39.5596 113.004L39.8596 113.616Z" fill="black"/>
<path d="M44.6266 107.64C45.4186 107.64 46.0466 107.872 46.5106 108.336C46.9826 108.792 47.2186 109.46 47.2186 110.34V114H46.3666V110.424C46.3666 109.768 46.2026 109.268 45.8746 108.924C45.5466 108.58 45.0786 108.408 44.4706 108.408C43.7906 108.408 43.2506 108.612 42.8506 109.02C42.4586 109.42 42.2626 109.976 42.2626 110.688V114H41.4106V105.096H42.2626V108.792C42.4946 108.424 42.8146 108.14 43.2226 107.94C43.6306 107.74 44.0986 107.64 44.6266 107.64Z" fill="black"/>
<path d="M54.9643 109.2C55.8443 109.248 56.5123 109.488 56.9683 109.92C57.4323 110.344 57.6643 110.9 57.6643 111.588C57.6643 112.068 57.5483 112.496 57.3163 112.872C57.0843 113.24 56.7403 113.532 56.2843 113.748C55.8283 113.964 55.2723 114.072 54.6163 114.072C54.0083 114.072 53.4323 113.976 52.8883 113.784C52.3523 113.584 51.9203 113.32 51.5923 112.992L52.0123 112.308C52.2923 112.596 52.6643 112.832 53.1283 113.016C53.5923 113.192 54.0883 113.28 54.6163 113.28C55.3043 113.28 55.8363 113.132 56.2123 112.836C56.5883 112.532 56.7763 112.116 56.7763 111.588C56.7763 111.068 56.5883 110.66 56.2123 110.364C55.8363 110.068 55.2683 109.92 54.5083 109.92H53.9083V109.284L56.2363 106.368H51.9403V105.6H57.3403V106.212L54.9643 109.2Z" fill="black"/>
<path d="M64.5592 113.232V114H58.6672V113.388L62.1592 109.968C62.5992 109.536 62.8952 109.164 63.0472 108.852C63.2072 108.532 63.2872 108.212 63.2872 107.892C63.2872 107.396 63.1152 107.012 62.7712 106.74C62.4352 106.46 61.9512 106.32 61.3192 106.32C60.3352 106.32 59.5712 106.632 59.0272 107.256L58.4152 106.728C58.7432 106.344 59.1592 106.048 59.6632 105.84C60.1752 105.632 60.7512 105.528 61.3912 105.528C62.2472 105.528 62.9232 105.732 63.4192 106.14C63.9232 106.54 64.1752 107.092 64.1752 107.796C64.1752 108.228 64.0792 108.644 63.8872 109.044C63.6952 109.444 63.3312 109.904 62.7952 110.424L59.9392 113.232H64.5592Z" fill="black"/>
<path d="M67.9715 105.6V114H67.1075V106.368H65.1275V105.6H67.9715Z" fill="black"/>
<path d="M73.8641 105.6H74.7521V114H73.8641V105.6Z" fill="black"/>
<path d="M80.5212 107.64C81.3132 107.64 81.9412 107.872 82.4052 108.336C82.8772 108.792 83.1132 109.46 83.1132 110.34V114H82.2612V110.424C82.2612 109.768 82.0972 109.268 81.7692 108.924C81.4412 108.58 80.9732 108.408 80.3652 108.408C79.6852 108.408 79.1452 108.612 78.7452 109.02C78.3532 109.42 78.1572 109.976 78.1572 110.688V114H77.3052V107.688H78.1212V108.852C78.3532 108.468 78.6732 108.172 79.0812 107.964C79.4972 107.748 79.9772 107.64 80.5212 107.64Z" fill="black"/>
<path d="M88.7503 113.616C88.5903 113.76 88.3903 113.872 88.1503 113.952C87.9183 114.024 87.6743 114.06 87.4183 114.06C86.8263 114.06 86.3702 113.9 86.0502 113.58C85.7302 113.26 85.5703 112.808 85.5703 112.224V108.408H84.4423V107.688H85.5703V106.308H86.4222V107.688H88.3423V108.408H86.4222V112.176C86.4222 112.552 86.5142 112.84 86.6982 113.04C86.8902 113.232 87.1623 113.328 87.5143 113.328C87.6903 113.328 87.8582 113.3 88.0182 113.244C88.1862 113.188 88.3302 113.108 88.4502 113.004L88.7503 113.616Z" fill="black"/>
<path d="M95.5746 111.108H90.2946C90.3426 111.764 90.5946 112.296 91.0506 112.704C91.5066 113.104 92.0826 113.304 92.7786 113.304C93.1706 113.304 93.5306 113.236 93.8586 113.1C94.1866 112.956 94.4706 112.748 94.7106 112.476L95.1906 113.028C94.9106 113.364 94.5586 113.62 94.1346 113.796C93.7186 113.972 93.2586 114.06 92.7546 114.06C92.1066 114.06 91.5306 113.924 91.0266 113.652C90.5306 113.372 90.1426 112.988 89.8626 112.5C89.5826 112.012 89.4426 111.46 89.4426 110.844C89.4426 110.228 89.5746 109.676 89.8386 109.188C90.1106 108.7 90.4786 108.32 90.9426 108.048C91.4146 107.776 91.9426 107.64 92.5266 107.64C93.1106 107.64 93.6346 107.776 94.0986 108.048C94.5626 108.32 94.9266 108.7 95.1906 109.188C95.4546 109.668 95.5866 110.22 95.5866 110.844L95.5746 111.108ZM92.5266 108.372C91.9186 108.372 91.4066 108.568 90.9906 108.96C90.5826 109.344 90.3506 109.848 90.2946 110.472H94.7706C94.7146 109.848 94.4786 109.344 94.0626 108.96C93.6546 108.568 93.1426 108.372 92.5266 108.372Z" fill="black"/>
<path d="M98.1368 108.924C98.3368 108.5 98.6328 108.18 99.0248 107.964C99.4248 107.748 99.9168 107.64 100.501 107.64V108.468L100.297 108.456C99.6328 108.456 99.1128 108.66 98.7368 109.068C98.3608 109.476 98.1728 110.048 98.1728 110.784V114H97.3208V107.688H98.1368V108.924Z" fill="black"/>
<path d="M107.617 107.688L104.809 114H103.933L101.137 107.688H102.025L104.389 113.064L106.777 107.688H107.617Z" fill="black"/>
<path d="M114.137 111.108H108.857C108.905 111.764 109.157 112.296 109.613 112.704C110.069 113.104 110.645 113.304 111.341 113.304C111.733 113.304 112.093 113.236 112.421 113.1C112.749 112.956 113.033 112.748 113.273 112.476L113.753 113.028C113.473 113.364 113.121 113.62 112.697 113.796C112.281 113.972 111.821 114.06 111.317 114.06C110.669 114.06 110.093 113.924 109.589 113.652C109.093 113.372 108.705 112.988 108.425 112.5C108.145 112.012 108.005 111.46 108.005 110.844C108.005 110.228 108.137 109.676 108.401 109.188C108.673 108.7 109.041 108.32 109.505 108.048C109.977 107.776 110.505 107.64 111.089 107.64C111.673 107.64 112.197 107.776 112.661 108.048C113.125 108.32 113.489 108.7 113.753 109.188C114.017 109.668 114.149 110.22 114.149 110.844L114.137 111.108ZM111.089 108.372C110.481 108.372 109.969 108.568 109.553 108.96C109.145 109.344 108.913 109.848 108.857 110.472H113.333C113.277 109.848 113.041 109.344 112.625 108.96C112.217 108.568 111.705 108.372 111.089 108.372Z" fill="black"/>
<path d="M119.099 107.64C119.891 107.64 120.519 107.872 120.983 108.336C121.455 108.792 121.691 109.46 121.691 110.34V114H120.839V110.424C120.839 109.768 120.675 109.268 120.347 108.924C120.019 108.58 119.551 108.408 118.943 108.408C118.263 108.408 117.723 108.612 117.323 109.02C116.931 109.42 116.735 109.976 116.735 110.688V114H115.883V107.688H116.699V108.852C116.931 108.468 117.251 108.172 117.659 107.964C118.075 107.748 118.555 107.64 119.099 107.64Z" fill="black"/>
<path d="M127.328 113.616C127.168 113.76 126.968 113.872 126.728 113.952C126.496 114.024 126.252 114.06 125.996 114.06C125.404 114.06 124.948 113.9 124.628 113.58C124.308 113.26 124.148 112.808 124.148 112.224V108.408H123.02V107.688H124.148V106.308H125V107.688H126.92V108.408H125V112.176C125 112.552 125.092 112.84 125.276 113.04C125.468 113.232 125.74 113.328 126.092 113.328C126.268 113.328 126.436 113.3 126.596 113.244C126.764 113.188 126.908 113.108 127.028 113.004L127.328 113.616Z" fill="black"/>
<path d="M128.879 107.688H129.731V114H128.879V107.688ZM129.311 106.308C129.135 106.308 128.987 106.248 128.867 106.128C128.747 106.008 128.687 105.864 128.687 105.696C128.687 105.536 128.747 105.396 128.867 105.276C128.987 105.156 129.135 105.096 129.311 105.096C129.487 105.096 129.635 105.156 129.755 105.276C129.875 105.388 129.935 105.524 129.935 105.684C129.935 105.86 129.875 106.008 129.755 106.128C129.635 106.248 129.487 106.308 129.311 106.308Z" fill="black"/>
<path d="M134.682 114.06C134.074 114.06 133.526 113.924 133.038 113.652C132.55 113.372 132.166 112.988 131.886 112.5C131.606 112.012 131.466 111.46 131.466 110.844C131.466 110.228 131.606 109.676 131.886 109.188C132.166 108.7 132.55 108.32 133.038 108.048C133.526 107.776 134.074 107.64 134.682 107.64C135.29 107.64 135.838 107.776 136.326 108.048C136.814 108.32 137.194 108.7 137.466 109.188C137.746 109.676 137.886 110.228 137.886 110.844C137.886 111.46 137.746 112.012 137.466 112.5C137.194 112.988 136.814 113.372 136.326 113.652C135.838 113.924 135.29 114.06 134.682 114.06ZM134.682 113.304C135.13 113.304 135.53 113.204 135.882 113.004C136.242 112.796 136.522 112.504 136.722 112.128C136.922 111.752 137.022 111.324 137.022 110.844C137.022 110.364 136.922 109.936 136.722 109.56C136.522 109.184 136.242 108.896 135.882 108.696C135.53 108.488 135.13 108.384 134.682 108.384C134.234 108.384 133.83 108.488 133.47 108.696C133.118 108.896 132.838 109.184 132.63 109.56C132.43 109.936 132.33 110.364 132.33 110.844C132.33 111.324 132.43 111.752 132.63 112.128C132.838 112.504 133.118 112.796 133.47 113.004C133.83 113.204 134.234 113.304 134.682 113.304Z" fill="black"/>
<path d="M142.841 107.64C143.633 107.64 144.261 107.872 144.725 108.336C145.197 108.792 145.433 109.46 145.433 110.34V114H144.581V110.424C144.581 109.768 144.417 109.268 144.089 108.924C143.761 108.58 143.293 108.408 142.685 108.408C142.005 108.408 141.465 108.612 141.065 109.02C140.673 109.42 140.477 109.976 140.477 110.688V114H139.625V107.688H140.441V108.852C140.673 108.468 140.993 108.172 141.401 107.964C141.817 107.748 142.297 107.64 142.841 107.64Z" fill="black"/>
<path d="M152.339 116.328C151.891 115.592 151.547 114.748 151.307 113.796C151.067 112.836 150.947 111.808 150.947 110.712C150.947 109.616 151.067 108.588 151.307 107.628C151.547 106.66 151.891 105.816 152.339 105.096H153.155C152.683 105.904 152.335 106.772 152.111 107.7C151.895 108.628 151.787 109.632 151.787 110.712C151.787 111.792 151.895 112.796 152.111 113.724C152.335 114.652 152.683 115.52 153.155 116.328H152.339Z" fill="black"/>
<path d="M156.718 105.6V114H155.854V106.368H153.874V105.6H156.718Z" fill="black"/>
<path d="M165.49 111.096V114H164.614V111.096L161.254 105.6H162.202L165.082 110.316L167.962 105.6H168.85L165.49 111.096Z" fill="black"/>
<path d="M174.829 111.108H169.549C169.597 111.764 169.849 112.296 170.305 112.704C170.761 113.104 171.337 113.304 172.033 113.304C172.425 113.304 172.785 113.236 173.113 113.1C173.441 112.956 173.725 112.748 173.965 112.476L174.445 113.028C174.165 113.364 173.813 113.62 173.389 113.796C172.973 113.972 172.512 114.06 172.008 114.06C171.36 114.06 170.785 113.924 170.281 113.652C169.785 113.372 169.397 112.988 169.117 112.5C168.837 112.012 168.697 111.46 168.697 110.844C168.697 110.228 168.828 109.676 169.092 109.188C169.364 108.7 169.733 108.32 170.197 108.048C170.669 107.776 171.197 107.64 171.781 107.64C172.365 107.64 172.889 107.776 173.353 108.048C173.817 108.32 174.181 108.7 174.445 109.188C174.709 109.668 174.84 110.22 174.84 110.844L174.829 111.108ZM171.781 108.372C171.173 108.372 170.661 108.568 170.245 108.96C169.837 109.344 169.605 109.848 169.549 110.472H174.025C173.969 109.848 173.732 109.344 173.316 108.96C172.908 108.568 172.397 108.372 171.781 108.372Z" fill="black"/>
<path d="M178.607 107.64C179.431 107.64 180.063 107.848 180.503 108.264C180.943 108.672 181.163 109.28 181.163 110.088V114H180.347V113.016C180.155 113.344 179.871 113.6 179.495 113.784C179.127 113.968 178.687 114.06 178.175 114.06C177.471 114.06 176.911 113.892 176.495 113.556C176.079 113.22 175.871 112.776 175.871 112.224C175.871 111.688 176.063 111.256 176.447 110.928C176.839 110.6 177.459 110.436 178.307 110.436H180.311V110.052C180.311 109.508 180.159 109.096 179.855 108.816C179.551 108.528 179.107 108.384 178.523 108.384C178.123 108.384 177.739 108.452 177.371 108.588C177.003 108.716 176.687 108.896 176.423 109.128L176.039 108.492C176.359 108.22 176.743 108.012 177.191 107.868C177.639 107.716 178.111 107.64 178.607 107.64ZM178.307 113.388C178.787 113.388 179.199 113.28 179.543 113.064C179.887 112.84 180.143 112.52 180.311 112.104V111.072H178.331C177.251 111.072 176.711 111.448 176.711 112.2C176.711 112.568 176.851 112.86 177.131 113.076C177.411 113.284 177.803 113.388 178.307 113.388Z" fill="black"/>
<path d="M184.293 108.924C184.493 108.5 184.789 108.18 185.181 107.964C185.581 107.748 186.073 107.64 186.657 107.64V108.468L186.453 108.456C185.789 108.456 185.269 108.66 184.893 109.068C184.517 109.476 184.329 110.048 184.329 110.784V114H183.477V107.688H184.293V108.924Z" fill="black"/>
<path d="M187.457 116.328C187.929 115.52 188.277 114.656 188.501 113.736C188.725 112.808 188.837 111.8 188.837 110.712C188.837 109.624 188.725 108.62 188.501 107.7C188.277 106.772 187.929 105.904 187.457 105.096H188.273C188.721 105.816 189.065 106.66 189.305 107.628C189.553 108.588 189.677 109.616 189.677 110.712C189.677 111.808 189.557 112.836 189.317 113.796C189.077 114.756 188.729 115.6 188.273 116.328H187.457Z" fill="black"/>
</g>
<g opacity="0.262416">
<path d="M31.9 83.6L29.068 92H28.132L25.672 84.836L23.2 92H22.276L19.444 83.6H20.356L22.78 90.824L25.288 83.6H26.116L28.588 90.86L31.048 83.6H31.9Z" fill="black"/>
<path d="M33.313 85.688H34.165V92H33.313V85.688ZM33.745 84.308C33.569 84.308 33.421 84.248 33.301 84.128C33.181 84.008 33.121 83.864 33.121 83.696C33.121 83.536 33.181 83.396 33.301 83.276C33.421 83.156 33.569 83.096 33.745 83.096C33.921 83.096 34.069 83.156 34.189 83.276C34.309 83.388 34.369 83.524 34.369 83.684C34.369 83.86 34.309 84.008 34.189 84.128C34.069 84.248 33.921 84.308 33.745 84.308Z" fill="black"/>
<path d="M39.8596 91.616C39.6996 91.76 39.4996 91.872 39.2596 91.952C39.0276 92.024 38.7836 92.06 38.5276 92.06C37.9356 92.06 37.4796 91.9 37.1596 91.58C36.8396 91.26 36.6796 90.808 36.6796 90.224V86.408H35.5516V85.688H36.6796V84.308H37.5316V85.688H39.4516V86.408H37.5316V90.176C37.5316 90.552 37.6236 90.84 37.8076 91.04C37.9996 91.232 38.2716 91.328 38.6236 91.328C38.7996 91.328 38.9676 91.3 39.1276 91.244C39.2956 91.188 39.4396 91.108 39.5596 91.004L39.8596 91.616Z" fill="black"/>
<path d="M44.6266 85.64C45.4186 85.64 46.0466 85.872 46.5106 86.336C46.9826 86.792 47.2186 87.46 47.2186 88.34V92H46.3666V88.424C46.3666 87.768 46.2026 87.268 45.8746 86.924C45.5466 86.58 45.0786 86.408 44.4706 86.408C43.7906 86.408 43.2506 86.612 42.8506 87.02C42.4586 87.42 42.2626 87.976 42.2626 88.688V92H41.4106V83.096H42.2626V86.792C42.4946 86.424 42.8146 86.14 43.2226 85.94C43.6306 85.74 44.0986 85.64 44.6266 85.64Z" fill="black"/>
<path d="M52.1352 92.06C51.5272 92.06 50.9792 91.924 50.4912 91.652C50.0032 91.372 49.6192 90.988 49.3392 90.5C49.0592 90.012 48.9192 89.46 48.9192 88.844C48.9192 88.228 49.0592 87.676 49.3392 87.188C49.6192 86.7 50.0032 86.32 50.4912 86.048C50.9792 85.776 51.5272 85.64 52.1352 85.64C52.7432 85.64 53.2912 85.776 53.7792 86.048C54.2672 86.32 54.6472 86.7 54.9192 87.188C55.1992 87.676 55.3392 88.228 55.3392 88.844C55.3392 89.46 55.1992 90.012 54.9192 90.5C54.6472 90.988 54.2672 91.372 53.7792 91.652C53.2912 91.924 52.7432 92.06 52.1352 92.06ZM52.1352 91.304C52.5832 91.304 52.9832 91.204 53.3352 91.004C53.6952 90.796 53.9752 90.504 54.1752 90.128C54.3752 89.752 54.4752 89.324 54.4752 88.844C54.4752 88.364 54.3752 87.936 54.1752 87.56C53.9752 87.184 53.6952 86.896 53.3352 86.696C52.9832 86.488 52.5832 86.384 52.1352 86.384C51.6872 86.384 51.2832 86.488 50.9232 86.696C50.5712 86.896 50.2912 87.184 50.0832 87.56C49.8832 87.936 49.7832 88.364 49.7832 88.844C49.7832 89.324 49.8832 89.752 50.0832 90.128C50.2912 90.504 50.5712 90.796 50.9232 91.004C51.2832 91.204 51.6872 91.304 52.1352 91.304Z" fill="black"/>
<path d="M62.7666 85.688V92H61.9506V90.848C61.7266 91.232 61.4186 91.532 61.0266 91.748C60.6346 91.956 60.1866 92.06 59.6826 92.06C58.8586 92.06 58.2066 91.832 57.7266 91.376C57.2546 90.912 57.0186 90.236 57.0186 89.348V85.688H57.8706V89.264C57.8706 89.928 58.0346 90.432 58.3626 90.776C58.6906 91.12 59.1586 91.292 59.7666 91.292C60.4306 91.292 60.9546 91.092 61.3386 90.692C61.7226 90.284 61.9146 89.72 61.9146 89V85.688H62.7666Z" fill="black"/>
<path d="M68.4768 91.616C68.3168 91.76 68.1168 91.872 67.8768 91.952C67.6448 92.024 67.4008 92.06 67.1448 92.06C66.5528 92.06 66.0968 91.9 65.7768 91.58C65.4568 91.26 65.2968 90.808 65.2968 90.224V86.408H64.1688V85.688H65.2968V84.308H66.1488V85.688H68.0688V86.408H66.1488V90.176C66.1488 90.552 66.2408 90.84 66.4248 91.04C66.6168 91.232 66.8888 91.328 67.2408 91.328C67.4168 91.328 67.5848 91.3 67.7448 91.244C67.9128 91.188 68.0568 91.108 68.1768 91.004L68.4768 91.616Z" fill="black"/>
<path d="M75.4604 87.2C76.3404 87.248 77.0084 87.488 77.4644 87.92C77.9284 88.344 78.1604 88.9 78.1604 89.588C78.1604 90.068 78.0444 90.496 77.8124 90.872C77.5804 91.24 77.2364 91.532 76.7804 91.748C76.3244 91.964 75.7684 92.072 75.1124 92.072C74.5044 92.072 73.9284 91.976 73.3844 91.784C72.8484 91.584 72.4164 91.32 72.0884 90.992L72.5084 90.308C72.7884 90.596 73.1604 90.832 73.6244 91.016C74.0884 91.192 74.5844 91.28 75.1124 91.28C75.8004 91.28 76.3324 91.132 76.7084 90.836C77.0844 90.532 77.2724 90.116 77.2724 89.588C77.2724 89.068 77.0844 88.66 76.7084 88.364C76.3324 88.068 75.7644 87.92 75.0044 87.92H74.4044V87.284L76.7324 84.368H72.4364V83.6H77.8364V84.212L75.4604 87.2Z" fill="black"/>
<path d="M85.0553 91.232V92H79.1633V91.388L82.6553 87.968C83.0953 87.536 83.3913 87.164 83.5433 86.852C83.7033 86.532 83.7833 86.212 83.7833 85.892C83.7833 85.396 83.6113 85.012 83.2673 84.74C82.9313 84.46 82.4473 84.32 81.8153 84.32C80.8313 84.32 80.0673 84.632 79.5233 85.256L78.9113 84.728C79.2393 84.344 79.6553 84.048 80.1593 83.84C80.6713 83.632 81.2473 83.528 81.8873 83.528C82.7433 83.528 83.4193 83.732 83.9153 84.14C84.4193 84.54 84.6713 85.092 84.6713 85.796C84.6713 86.228 84.5753 86.644 84.3833 87.044C84.1913 87.444 83.8273 87.904 83.2913 88.424L80.4353 91.232H85.0553Z" fill="black"/>
<path d="M88.4676 83.6V92H87.6036V84.368H85.6236V83.6H88.4676Z" fill="black"/>
<path d="M94.3602 83.6H95.2482V92H94.3602V83.6Z" fill="black"/>
<path d="M101.017 85.64C101.809 85.64 102.437 85.872 102.901 86.336C103.373 86.792 103.609 87.46 103.609 88.34V92H102.757V88.424C102.757 87.768 102.593 87.268 102.265 86.924C101.937 86.58 101.469 86.408 100.861 86.408C100.181 86.408 99.6412 86.612 99.2412 87.02C98.8492 87.42 98.6533 87.976 98.6533 88.688V92H97.8013V85.688H98.6172V86.852C98.8492 86.468 99.1692 86.172 99.5772 85.964C99.9932 85.748 100.473 85.64 101.017 85.64Z" fill="black"/>
<path d="M109.246 91.616C109.086 91.76 108.886 91.872 108.646 91.952C108.414 92.024 108.17 92.06 107.914 92.06C107.322 92.06 106.866 91.9 106.546 91.58C106.226 91.26 106.066 90.808 106.066 90.224V86.408H104.938V85.688H106.066V84.308H106.918V85.688H108.838V86.408H106.918V90.176C106.918 90.552 107.01 90.84 107.194 91.04C107.386 91.232 107.658 91.328 108.01 91.328C108.186 91.328 108.354 91.3 108.514 91.244C108.682 91.188 108.826 91.108 108.946 91.004L109.246 91.616Z" fill="black"/>
<path d="M116.071 89.108H110.791C110.839 89.764 111.091 90.296 111.547 90.704C112.003 91.104 112.579 91.304 113.275 91.304C113.667 91.304 114.027 91.236 114.355 91.1C114.683 90.956 114.967 90.748 115.207 90.476L115.687 91.028C115.407 91.364 115.055 91.62 114.631 91.796C114.215 91.972 113.755 92.06 113.251 92.06C112.603 92.06 112.027 91.924 111.523 91.652C111.027 91.372 110.639 90.988 110.359 90.5C110.079 90.012 109.939 89.46 109.939 88.844C109.939 88.228 110.071 87.676 110.335 87.188C110.607 86.7 110.975 86.32 111.439 86.048C111.911 85.776 112.439 85.64 113.023 85.64C113.607 85.64 114.131 85.776 114.595 86.048C115.059 86.32 115.423 86.7 115.687 87.188C115.951 87.668 116.083 88.22 116.083 88.844L116.071 89.108ZM113.023 86.372C112.415 86.372 111.903 86.568 111.487 86.96C111.079 87.344 110.847 87.848 110.791 88.472H115.267C115.211 87.848 114.975 87.344 114.559 86.96C114.151 86.568 113.639 86.372 113.023 86.372Z" fill="black"/>
<path d="M118.633 86.924C118.833 86.5 119.129 86.18 119.521 85.964C119.921 85.748 120.413 85.64 120.997 85.64V86.468L120.793 86.456C120.129 86.456 119.609 86.66 119.233 87.068C118.857 87.476 118.669 88.048 118.669 88.784V92H117.817V85.688H118.633V86.924Z" fill="black"/>
<path d="M128.113 85.688L125.305 92H124.429L121.633 85.688H122.521L124.885 91.064L127.273 85.688H128.113Z" fill="black"/>
<path d="M134.633 89.108H129.353C129.401 89.764 129.653 90.296 130.109 90.704C130.565 91.104 131.141 91.304 131.837 91.304C132.229 91.304 132.589 91.236 132.917 91.1C133.245 90.956 133.529 90.748 133.769 90.476L134.249 91.028C133.969 91.364 133.617 91.62 133.193 91.796C132.777 91.972 132.317 92.06 131.813 92.06C131.165 92.06 130.589 91.924 130.085 91.652C129.589 91.372 129.201 90.988 128.921 90.5C128.641 90.012 128.501 89.46 128.501 88.844C128.501 88.228 128.633 87.676 128.897 87.188C129.169 86.7 129.537 86.32 130.001 86.048C130.473 85.776 131.001 85.64 131.585 85.64C132.169 85.64 132.693 85.776 133.157 86.048C133.621 86.32 133.985 86.7 134.249 87.188C134.513 87.668 134.645 88.22 134.645 88.844L134.633 89.108ZM131.585 86.372C130.977 86.372 130.465 86.568 130.049 86.96C129.641 87.344 129.409 87.848 129.353 88.472H133.829C133.773 87.848 133.537 87.344 133.121 86.96C132.713 86.568 132.201 86.372 131.585 86.372Z" fill="black"/>
<path d="M139.595 85.64C140.387 85.64 141.015 85.872 141.479 86.336C141.951 86.792 142.187 87.46 142.187 88.34V92H141.335V88.424C141.335 87.768 141.171 87.268 140.843 86.924C140.515 86.58 140.047 86.408 139.439 86.408C138.759 86.408 138.219 86.612 137.819 87.02C137.427 87.42 137.231 87.976 137.231 88.688V92H136.379V85.688H137.195V86.852C137.427 86.468 137.747 86.172 138.155 85.964C138.571 85.748 139.051 85.64 139.595 85.64Z" fill="black"/>
<path d="M147.824 91.616C147.664 91.76 147.464 91.872 147.224 91.952C146.992 92.024 146.748 92.06 146.492 92.06C145.9 92.06 145.444 91.9 145.124 91.58C144.804 91.26 144.644 90.808 144.644 90.224V86.408H143.516V85.688H144.644V84.308H145.496V85.688H147.416V86.408H145.496V90.176C145.496 90.552 145.588 90.84 145.772 91.04C145.964 91.232 146.236 91.328 146.588 91.328C146.764 91.328 146.932 91.3 147.092 91.244C147.26 91.188 147.404 91.108 147.524 91.004L147.824 91.616Z" fill="black"/>
<path d="M149.375 85.688H150.227V92H149.375V85.688ZM149.807 84.308C149.631 84.308 149.483 84.248 149.363 84.128C149.243 84.008 149.183 83.864 149.183 83.696C149.183 83.536 149.243 83.396 149.363 83.276C149.483 83.156 149.631 83.096 149.807 83.096C149.983 83.096 150.131 83.156 150.251 83.276C150.371 83.388 150.431 83.524 150.431 83.684C150.431 83.86 150.371 84.008 150.251 84.128C150.131 84.248 149.983 84.308 149.807 84.308Z" fill="black"/>
<path d="M155.178 92.06C154.57 92.06 154.022 91.924 153.534 91.652C153.046 91.372 152.662 90.988 152.382 90.5C152.102 90.012 151.962 89.46 151.962 88.844C151.962 88.228 152.102 87.676 152.382 87.188C152.662 86.7 153.046 86.32 153.534 86.048C154.022 85.776 154.57 85.64 155.178 85.64C155.786 85.64 156.334 85.776 156.822 86.048C157.31 86.32 157.69 86.7 157.962 87.188C158.242 87.676 158.382 88.228 158.382 88.844C158.382 89.46 158.242 90.012 157.962 90.5C157.69 90.988 157.31 91.372 156.822 91.652C156.334 91.924 155.786 92.06 155.178 92.06ZM155.178 91.304C155.626 91.304 156.026 91.204 156.378 91.004C156.738 90.796 157.018 90.504 157.218 90.128C157.418 89.752 157.518 89.324 157.518 88.844C157.518 88.364 157.418 87.936 157.218 87.56C157.018 87.184 156.738 86.896 156.378 86.696C156.026 86.488 155.626 86.384 155.178 86.384C154.73 86.384 154.326 86.488 153.966 86.696C153.614 86.896 153.334 87.184 153.126 87.56C152.926 87.936 152.826 88.364 152.826 88.844C152.826 89.324 152.926 89.752 153.126 90.128C153.334 90.504 153.614 90.796 153.966 91.004C154.326 91.204 154.73 91.304 155.178 91.304Z" fill="black"/>
<path d="M163.338 85.64C164.13 85.64 164.758 85.872 165.222 86.336C165.694 86.792 165.93 87.46 165.93 88.34V92H165.078V88.424C165.078 87.768 164.914 87.268 164.586 86.924C164.258 86.58 163.79 86.408 163.182 86.408C162.502 86.408 161.962 86.612 161.562 87.02C161.17 87.42 160.974 87.976 160.974 88.688V92H160.122V85.688H160.938V86.852C161.17 86.468 161.49 86.172 161.898 85.964C162.314 85.748 162.794 85.64 163.338 85.64Z" fill="black"/>
</g>
<path d="M276.832 42.044C278.048 42.044 278.932 42.264 279.484 42.704C280.044 43.136 280.324 43.744 280.324 44.528C280.324 45.016 280.208 45.452 279.976 45.836C279.752 46.22 279.412 46.524 278.956 46.748C278.5 46.964 277.94 47.072 277.276 47.072C276.676 47.072 276.104 46.976 275.56 46.784C275.024 46.584 274.592 46.32 274.264 45.992L274.684 45.308C274.964 45.596 275.332 45.832 275.788 46.016C276.244 46.192 276.736 46.28 277.264 46.28C277.96 46.28 278.496 46.124 278.872 45.812C279.256 45.5 279.448 45.084 279.448 44.564C279.448 43.988 279.232 43.552 278.8 43.256C278.376 42.96 277.656 42.812 276.64 42.812H274.852L275.284 38.6H279.88V39.368H276.04L275.752 42.044H276.832Z" fill="#84AFFF"/>
<path d="M287.185 38.6V39.212L283.669 47H282.733L286.189 39.368H281.869V40.94H281.017V38.6H287.185Z" fill="#84AFFF"/>
<path d="M290.123 43.1C289.555 43.1 289.095 42.892 288.743 42.476C288.399 42.052 288.227 41.5 288.227 40.82C288.227 40.14 288.399 39.592 288.743 39.176C289.095 38.752 289.555 38.54 290.123 38.54C290.683 38.54 291.139 38.748 291.491 39.164C291.843 39.58 292.019 40.132 292.019 40.82C292.019 41.508 291.843 42.06 291.491 42.476C291.139 42.892 290.683 43.1 290.123 43.1ZM295.211 38.6H295.919L290.183 47H289.475L295.211 38.6ZM290.123 42.56C290.515 42.56 290.827 42.408 291.059 42.104C291.299 41.792 291.419 41.364 291.419 40.82C291.419 40.276 291.299 39.852 291.059 39.548C290.827 39.236 290.515 39.08 290.123 39.08C289.723 39.08 289.407 39.236 289.175 39.548C288.943 39.86 288.827 40.284 288.827 40.82C288.827 41.356 288.943 41.78 289.175 42.092C289.407 42.404 289.723 42.56 290.123 42.56ZM295.271 47.06C294.711 47.06 294.255 46.852 293.903 46.436C293.551 46.012 293.375 45.46 293.375 44.78C293.375 44.1 293.551 43.552 293.903 43.136C294.255 42.712 294.711 42.5 295.271 42.5C295.839 42.5 296.295 42.712 296.639 43.136C296.991 43.552 297.167 44.1 297.167 44.78C297.167 45.46 296.991 46.012 296.639 46.436C296.295 46.852 295.839 47.06 295.271 47.06ZM295.271 46.52C295.671 46.52 295.987 46.364 296.219 46.052C296.451 45.74 296.567 45.316 296.567 44.78C296.567 44.244 296.451 43.82 296.219 43.508C295.987 43.196 295.671 43.04 295.271 43.04C294.879 43.04 294.563 43.196 294.323 43.508C294.091 43.812 293.975 44.236 293.975 44.78C293.975 45.324 294.091 45.752 294.323 46.064C294.563 46.368 294.879 46.52 295.271 46.52Z" fill="#84AFFF"/>
<path d="M108.36 18.232V19H102.468V18.388L105.96 14.968C106.4 14.536 106.696 14.164 106.848 13.852C107.008 13.532 107.088 13.212 107.088 12.892C107.088 12.396 106.916 12.012 106.572 11.74C106.236 11.46 105.752 11.32 105.12 11.32C104.136 11.32 103.372 11.632 102.828 12.256L102.216 11.728C102.544 11.344 102.96 11.048 103.464 10.84C103.976 10.632 104.552 10.528 105.192 10.528C106.048 10.528 106.724 10.732 107.22 11.14C107.724 11.54 107.976 12.092 107.976 12.796C107.976 13.228 107.88 13.644 107.688 14.044C107.496 14.444 107.132 14.904 106.596 15.424L103.74 18.232H108.36Z" fill="#BDBDBD"/>
<path d="M112.745 19.072C112.097 19.072 111.517 18.9 111.005 18.556C110.501 18.212 110.105 17.72 109.817 17.08C109.537 16.432 109.397 15.672 109.397 14.8C109.397 13.928 109.537 13.172 109.817 12.532C110.105 11.884 110.501 11.388 111.005 11.044C111.517 10.7 112.097 10.528 112.745 10.528C113.393 10.528 113.969 10.7 114.473 11.044C114.985 11.388 115.385 11.884 115.673 12.532C115.961 13.172 116.105 13.928 116.105 14.8C116.105 15.672 115.961 16.432 115.673 17.08C115.385 17.72 114.985 18.212 114.473 18.556C113.969 18.9 113.393 19.072 112.745 19.072ZM112.745 18.28C113.233 18.28 113.661 18.144 114.029 17.872C114.405 17.6 114.697 17.204 114.905 16.684C115.113 16.164 115.217 15.536 115.217 14.8C115.217 14.064 115.113 13.436 114.905 12.916C114.697 12.396 114.405 12 114.029 11.728C113.661 11.456 113.233 11.32 112.745 11.32C112.257 11.32 111.825 11.456 111.449 11.728C111.081 12 110.793 12.396 110.585 12.916C110.377 13.436 110.273 14.064 110.273 14.8C110.273 15.536 110.377 16.164 110.585 16.684C110.793 17.204 111.081 17.6 111.449 17.872C111.825 18.144 112.257 18.28 112.745 18.28Z" fill="#BDBDBD"/>
<path d="M119.119 15.1C118.551 15.1 118.091 14.892 117.739 14.476C117.395 14.052 117.223 13.5 117.223 12.82C117.223 12.14 117.395 11.592 117.739 11.176C118.091 10.752 118.551 10.54 119.119 10.54C119.679 10.54 120.135 10.748 120.487 11.164C120.839 11.58 121.015 12.132 121.015 12.82C121.015 13.508 120.839 14.06 120.487 14.476C120.135 14.892 119.679 15.1 119.119 15.1ZM124.207 10.6H124.915L119.179 19H118.471L124.207 10.6ZM119.119 14.56C119.511 14.56 119.823 14.408 120.055 14.104C120.295 13.792 120.415 13.364 120.415 12.82C120.415 12.276 120.295 11.852 120.055 11.548C119.823 11.236 119.511 11.08 119.119 11.08C118.719 11.08 118.403 11.236 118.171 11.548C117.939 11.86 117.823 12.284 117.823 12.82C117.823 13.356 117.939 13.78 118.171 14.092C118.403 14.404 118.719 14.56 119.119 14.56ZM124.267 19.06C123.707 19.06 123.251 18.852 122.899 18.436C122.547 18.012 122.371 17.46 122.371 16.78C122.371 16.1 122.547 15.552 122.899 15.136C123.251 14.712 123.707 14.5 124.267 14.5C124.835 14.5 125.291 14.712 125.635 15.136C125.987 15.552 126.163 16.1 126.163 16.78C126.163 17.46 125.987 18.012 125.635 18.436C125.291 18.852 124.835 19.06 124.267 19.06ZM124.267 18.52C124.667 18.52 124.983 18.364 125.215 18.052C125.447 17.74 125.563 17.316 125.563 16.78C125.563 16.244 125.447 15.82 125.215 15.508C124.983 15.196 124.667 15.04 124.267 15.04C123.875 15.04 123.559 15.196 123.319 15.508C123.087 15.812 122.971 16.236 122.971 16.78C122.971 17.324 123.087 17.752 123.319 18.064C123.559 18.368 123.875 18.52 124.267 18.52Z" fill="#BDBDBD"/>
<path fill-rule="evenodd" clip-rule="evenodd" d="M0 60H267V30H0V60Z" fill="#84AFFF"/>
<path fill-rule="evenodd" clip-rule="evenodd" d="M0 30H93V0H0V30Z" fill="#E6E7E8"/>
</svg>
