<?xml version="1.0" encoding="utf-8"?>
<!-- Generator: Adobe Illustrator 16.0.0, SVG Export Plug-In . SVG Version: 6.00 Build 0)  -->
<!DOCTYPE svg PUBLIC "-//W3C//DTD SVG 1.1//EN" "http://www.w3.org/Graphics/SVG/1.1/DTD/svg11.dtd">
<svg version="1.1" id="Layer_1" xmlns="http://www.w3.org/2000/svg" xmlns:xlink="http://www.w3.org/1999/xlink" x="0px" y="0px"
	 width="39.37px" height="5.993px" viewBox="0 0 39.37 5.993" enable-background="new 0 0 39.37 5.993" xml:space="preserve">
<g>
	<path opacity="0.85" fill="#fff" d="M1.382,2.562c0-0.212,0.156-0.344,0.378-0.344c0.247,0,0.394,0.114,0.394,0.494h1.285
		c0-0.93-0.559-1.398-1.67-1.398C0.567,1.314,0,1.921,0,2.704c0,1.687,2.147,1.217,2.147,2.007c0,0.239-0.199,0.377-0.428,0.377
		c-0.132,0-0.239-0.058-0.312-0.154C1.332,4.833,1.3,4.671,1.3,4.497H0c0,0.971,0.501,1.496,1.744,1.496
		c1.119,0,1.785-0.624,1.785-1.489C3.528,2.803,1.382,3.297,1.382,2.562z"/>
	<path opacity="0.85" fill="#fff" d="M5.824,0.123H4.343v1.305H3.85v0.997h0.493v2.368c0,0.987,0.353,1.136,1.259,1.136
		c0.246,0,0.534-0.018,0.806-0.051V4.892H6.177c-0.237,0-0.353-0.09-0.353-0.347v-2.12h0.584V1.428H5.824V0.123z"/>
	<path opacity="0.85" fill="#fff" d="M9.337,4.366c0,0.371-0.099,0.525-0.363,0.525c-0.262,0-0.361-0.154-0.361-0.525V1.428H7.131
		v3.356c0,0.956,0.511,1.209,1.161,1.209c0.509,0,0.888-0.222,1.077-0.655h0.017v0.54h1.432v-4.45h-1.48V4.366z"/>
	<path opacity="0.85" fill="#fff" d="M13.753,1.931h-0.017c-0.146-0.454-0.509-0.616-0.928-0.616
		c-0.822,0-1.365,0.566-1.365,2.246c0,1.643,0.337,2.433,1.332,2.433c0.526,0,0.832-0.23,1.012-0.724h0.017v0.608h1.43V0.005h-1.48
		V1.931z M13.343,4.892c-0.346,0-0.42-0.279-0.42-1.233c0-0.962,0.074-1.242,0.42-1.242c0.337,0,0.411,0.28,0.411,1.242
		C13.753,4.612,13.68,4.892,13.343,4.892z"/>
	<rect x="16.042" y="1.428" opacity="0.85" fill="#fff" width="1.479" height="4.45"/>
	<rect x="16.042" y="0.005" opacity="0.85" fill="#fff" width="1.479" height="1.104"/>
	<path opacity="0.85" fill="#fff" d="M20.064,1.314c-1.669,0-1.893,1.166-1.893,2.336c0,1.283,0.155,2.343,1.893,2.343
		c1.669,0,1.891-1.167,1.891-2.335C21.955,2.375,21.799,1.314,20.064,1.314z M20.064,5.039c-0.33,0-0.412-0.263-0.412-1.381
		c0-1.127,0.082-1.391,0.412-1.391c0.336,0,0.41,0.264,0.41,1.391C20.474,4.776,20.4,5.039,20.064,5.039z"/>
	<path fill="#fff" d="M23.93,2.562c0-0.212,0.156-0.344,0.378-0.344c0.248,0,0.395,0.114,0.395,0.494h1.283
		c0-0.93-0.558-1.398-1.668-1.398c-1.202,0-1.769,0.606-1.769,1.39c0,1.687,2.145,1.217,2.145,2.007
		c0,0.239-0.197,0.377-0.427,0.377c-0.131,0-0.238-0.058-0.312-0.154c-0.073-0.101-0.106-0.263-0.106-0.437h-1.299
		c0,0.971,0.5,1.496,1.743,1.496c1.119,0,1.784-0.624,1.784-1.489C26.076,2.803,23.93,3.297,23.93,2.562z"/>
	<path fill="#fff" d="M28.883,4.366c0,0.371-0.1,0.525-0.363,0.525c-0.263,0-0.361-0.154-0.361-0.525V1.428h-1.481v3.356
		c0,0.956,0.51,1.209,1.16,1.209c0.509,0,0.888-0.222,1.077-0.655h0.018v0.54h1.431v-4.45h-1.479V4.366z"/>
	<path fill="#fff" d="M33.611,1.314c-0.419,0-0.781,0.162-0.929,0.616h-0.016V0.005h-1.48v5.873h1.431V5.27h0.016
		c0.182,0.493,0.486,0.724,1.012,0.724c0.996,0,1.333-0.79,1.333-2.433C34.978,1.84,34.467,1.314,33.611,1.314z M33.077,4.892
		c-0.337,0-0.411-0.279-0.411-1.233c0-0.962,0.074-1.242,0.411-1.242c0.346,0,0.42,0.28,0.42,1.242
		C33.497,4.612,33.423,4.892,33.077,4.892z"/>
	<path fill="#fff" d="M37.89,1.428v2.938c0,0.371-0.099,0.525-0.362,0.525c-0.263,0-0.362-0.154-0.362-0.525V1.428h-1.481v3.356
		c0,0.956,0.51,1.209,1.16,1.209c0.509,0,0.888-0.222,1.078-0.655h0.016v0.54h1.432v-4.45H37.89z"/>
	<rect x="35.691" fill="#fff" width="3.678" height="0.93"/>
</g>
</svg>
