<?xml version="1.0" encoding="UTF-8"?>
<svg width="900px" height="717px" viewBox="0 0 900 717" version="1.1" xmlns="http://www.w3.org/2000/svg" xmlns:xlink="http://www.w3.org/1999/xlink">
    <!-- Generator: Sketch 52.4 (67378) - http://www.bohemiancoding.com/sketch -->
    <title>tablet-about-birds-1</title>
    <desc>Created with Sketch.</desc>
    <defs>
        <rect id="path-1" x="0" y="0" width="900" height="717"></rect>
        <path d="M40.852455,1.53857221e-11 L41.8163652,1.53857221e-11 C44.4560184,0.125421872 47.0035186,1.27712755 48.9249479,3.27057754 L55,3.8060594 L55,3.81076028 L51.9803233,9.33242383 C52.7212764,13.6743975 50.9755812,18.1573442 47.360199,20.6948613 C47.6814875,21.5970896 47.9368289,22.5557071 48.0684509,23.570714 C48.6862297,28.4765803 46.6355965,33.0723056 43.1273104,35.8635744 L43.1439335,35.9199636 L42.6991982,36.1737153 C42.1391914,36.5966348 41.5462109,36.9631651 40.9205293,37.273306 L0,62 L16.544291,33.0159163 L0,12.9131423 L28.0158467,12.9131423 L31.6642025,6.51296044 C31.9770433,5.80809459 32.3476561,5.13142337 32.7923914,4.51114143 L32.9406366,4.25738972 L32.9488118,4.28558436 C33.8464578,3.0732151 34.982822,2.05820828 36.3415539,1.29695316 C37.7862792,0.493321013 39.3239103,0.0727530761 40.8524622,0 L40.852455,1.53857221e-11 Z M42.114393,4.48294679 C41.2085718,4.9904502 40.8627573,6.17462483 41.3404663,7.13324238 C41.8179028,8.09185994 42.9545395,8.45839018 43.8603607,7.95088677 C44.7828051,7.44338336 45.1286195,6.25920873 44.6427352,5.30059118 C44.1650262,4.34197362 43.028662,3.97544338 42.114393,4.48294679 Z" id="path-3"></path>
        <path d="M236.201467,9.0577235e-11 L241.774621,9.0577235e-11 C257.036615,0.738370695 271.765798,7.51857349 282.875154,19.2542065 L318,22.40664 L318,22.4343146 L300.540779,54.9408822 C304.824834,80.5025011 294.731542,106.894043 273.828059,121.832651 C275.685692,127.144156 277.162029,132.787631 277.923043,138.763074 C281.494928,167.644384 269.63854,194.699864 249.354268,211.132333 L249.450379,211.464302 L246.879,212.958163 C243.641143,215.447931 240.212638,217.60573 236.59506,219.43156 L0,365 L95.6560822,194.367894 L0,76.0209186 L161.982532,76.0209186 L183.076662,38.3424284 C184.88545,34.1928149 187.028266,30.209186 189.599645,26.5575261 L190.456771,25.0636653 L190.504039,25.2296498 C195.694065,18.0923147 202.264316,12.1168713 210.120257,7.63528877 C218.473396,2.90422855 227.363699,0.4283044 236.201509,0 L236.201467,9.0577235e-11 Z M243.497763,26.3915416 C238.260469,29.3792633 236.261033,36.3506139 239.02306,41.9940882 C241.783511,47.6375625 248.355337,49.7953615 253.592631,46.8076398 C258.926036,43.8199181 260.925473,36.8485675 258.116178,31.2050932 C255.354152,25.5616189 248.783901,23.4038199 243.497763,26.3915416 Z" id="path-5"></path>
        <path d="M74.277191,2.82898761e-11 L76.029755,2.82898761e-11 C80.8291243,0.230614409 85.4609429,2.34826679 88.9544508,6.01364256 L100,6.99823825 L100,7.00688181 L94.5096788,17.159618 C95.8568662,25.1432469 92.6828749,33.3860846 86.1094527,38.0518417 C86.6936137,39.7107776 87.1578706,41.473397 87.3971834,43.3396999 C88.5204176,52.3601637 84.7919936,60.8103683 78.4132917,65.9427012 L78.4435155,66.0463847 L77.6349058,66.5129604 C76.6167116,67.2905866 75.5385653,67.9645293 74.4009624,68.5347885 L0,114 L30.080529,60.7066849 L0,23.7435198 L50.937903,23.7435198 L57.5712773,11.9754434 C58.1400788,10.6793997 58.8139202,9.43519782 59.6225299,8.2946794 L59.8920665,7.82810368 L59.9069306,7.87994543 C61.5390142,5.65075034 63.6051309,3.78444748 66.0755525,2.38472033 C68.7023257,0.907074121 71.4980187,0.133771785 74.2772041,0 L74.277191,2.82898761e-11 Z M76.5716236,8.24283765 C74.9246759,9.17598909 74.2959224,11.3533424 75.1644842,13.1159618 C76.0325505,14.8785812 78.0991627,15.5525239 79.7461104,14.6193724 C81.4232819,13.686221 82.0520354,11.5088677 81.1686095,9.74624829 C80.3000477,7.98362892 78.233931,7.30968622 76.5716236,8.24283765 Z" id="path-7"></path>
        <path d="M39.3669112,1.51375653e-11 L40.2957701,1.51375653e-11 C42.8394359,0.123398938 45.2942997,1.25652872 47.1458589,3.21782628 L53,3.74467134 L53,3.74929641 L50.0901298,9.18190086 C50.8041391,13.4538427 49.1219237,17.8644839 45.6380099,20.3610732 C45.9476153,21.2487494 46.1936714,22.1919054 46.3205072,23.1905412 C46.9158214,28.0172806 44.9397566,32.5388813 41.5590446,35.2851296 L41.5750632,35.3406094 L41.1465001,35.5902683 C40.6068571,36.0063665 40.0354396,36.366985 39.4325101,36.6721237 L0,61 L15.9426804,32.4834015 L0,12.7048658 L26.9970886,12.7048658 L30.512777,6.40791269 C30.8142417,5.71441564 31.1713777,5.04865848 31.5999408,4.43838108 L31.7427952,4.18872215 L31.7506732,4.21646203 C32.6156775,3.02364711 33.7107194,2.02501137 35.0200428,1.27603456 C36.4122326,0.485364223 37.8939499,0.0715796394 39.3669181,0 L39.3669112,1.51375653e-11 Z M40.5829605,4.4106412 C39.7100782,4.90995907 39.3768389,6.07503411 39.8371766,7.01819009 C40.2972518,7.96134607 41.3925562,8.32196453 42.2654385,7.82264666 C43.1543394,7.32332879 43.4875788,6.15825375 43.019363,5.21509777 C42.5590253,4.27194179 41.4639834,3.91132333 40.5829605,4.4106412 Z" id="path-9"></path>
        <path d="M23.0259292,8.93364509e-12 L23.569224,8.93364509e-12 C25.0570285,0.0728256028 26.4928923,0.741557933 27.5758797,1.89904502 L31,2.20996997 L31,2.21269952 L29.2980004,5.41882674 C29.7156285,7.93997271 28.7316912,10.5429741 26.6939303,12.0163711 C26.8750203,12.5402456 27.0189399,13.0968622 27.0931269,13.686221 C27.4413295,16.5347885 26.285518,19.2032742 24.3081204,20.8240109 L24.3174898,20.8567531 L24.0668208,21.0040928 C23.7511806,21.2496589 23.4169552,21.4624829 23.0642983,21.6425648 L0,36 L9.32496399,19.1705321 L0,7.49795362 L15.7907499,7.49795362 L17.847096,3.78171896 C18.0234244,3.37244202 18.2323153,2.97953615 18.4829843,2.61937244 L18.5665406,2.47203274 L18.5711485,2.48840382 C19.0770944,1.78444748 19.7175906,1.19508868 20.4834213,0.753069577 C21.297721,0.286444459 22.1643858,0.0422437216 23.0259333,0 L23.0259292,8.93364509e-12 Z M23.7372033,2.60300136 C23.2266495,2.89768076 23.0317359,3.58526603 23.3009901,4.14188267 C23.5700907,4.69849932 24.2107404,4.91132333 24.7212942,4.61664393 C25.2412174,4.32196453 25.436131,3.63437926 25.1622689,3.07776262 C24.8930148,2.52114598 24.2525186,2.30832196 23.7372033,2.60300136 Z" id="path-11"></path>
        <path d="M26.7397888,1.01744291e-11 L27.3707118,1.01744291e-11 C29.0984847,0.0829402699 30.7659395,0.844552091 32.0236023,2.16280127 L36,2.51691025 L36,2.5200189 L34.0234844,6.17144156 C34.5084718,9.0427467 33.365835,12.007276 30.999403,13.6853115 C31.2097009,14.2819463 31.3768334,14.9158709 31.462986,15.587085 C31.8673504,18.8312869 30.5251177,21.8703956 28.228785,23.7162347 L28.2396656,23.7535243 L27.9485661,23.9213279 C27.5820162,24.2010005 27.1938835,24.4433834 26.7843465,24.6484766 L0,41 L10.8289904,21.833106 L0,8.53933606 L18.3376451,8.53933606 L20.7256598,4.30695771 C20.9304284,3.84083674 21.1730113,3.39336062 21.4641108,2.98317417 L21.5611439,2.81537062 L21.566495,2.83401546 C22.1540451,2.0322874 22.8978471,1.36107322 23.7871989,0.857662574 C24.7328373,0.326228412 25.7392867,0.0481109052 26.7397935,0 L26.7397888,1.01744291e-11 Z M27.5657845,2.96452933 C26.9728833,3.30013643 26.7465321,4.08321965 27.0592143,4.71714416 C27.3717182,5.35106867 28.1156986,5.59345157 28.7085998,5.25784447 C29.3123815,4.92223738 29.5387328,4.13915416 29.2206994,3.50522965 C28.9080172,2.87130514 28.1642152,2.62892224 27.5657845,2.96452933 Z" id="path-13"></path>
    </defs>
    <g id="Page-1" stroke="none" stroke-width="1" fill="none" fill-rule="evenodd">
        <g id="321-program-tablet-landscape" transform="translate(-62.000000, -70.000000)">
            <g id="tablet-about-birds-1" transform="translate(62.000000, 70.000000)">
                <mask id="mask-2" fill="white">
                    <use xlink:href="#path-1"></use>
                </mask>
                <use id="Mask" fill="#FFFFFF" fill-rule="nonzero" xlink:href="#path-1"></use>
                <g id="Group-4" mask="url(#mask-2)">
                    <g transform="translate(37.000000, -22.000000)">
                        <g id="Group-3-Copy-16" transform="translate(280.000000, 0.000000)">
                            <mask id="mask-4" fill="white">
                                <use xlink:href="#path-3"></use>
                            </mask>
                            <g id="Clip-396"></g>
                            <polygon id="Fill-395" fill="#FED445" mask="url(#mask-4)" points="-13.3333333 76.88 70 76.88 70 -13.2266667 -13.3333333 -13.2266667"></polygon>
                        </g>
                        <g id="Group-3-Copy-12" transform="translate(0.000000, 341.000000)">
                            <mask id="mask-6" fill="white">
                                <use xlink:href="#path-5"></use>
                            </mask>
                            <g id="Clip-396"></g>
                            <polygon id="Fill-395" fill="#FED445" mask="url(#mask-6)" points="-77.6415584 454.387755 405.553247 454.387755 405.553247 -77.8004535 -77.6415584 -77.8004535"></polygon>
                        </g>
                        <g id="Group-3-Copy-15" transform="translate(575.000000, 425.000000)">
                            <mask id="mask-8" fill="white">
                                <use xlink:href="#path-7"></use>
                            </mask>
                            <g id="Clip-396"></g>
                            <polygon id="Fill-395" fill="#FED445" mask="url(#mask-8)" points="-24.7933884 141.26087 127.272727 141.26087 127.272727 -24.7826087 -24.7933884 -24.7826087"></polygon>
                        </g>
                        <g id="Group-3-Copy-18" transform="translate(487.000000, 341.000000)">
                            <mask id="mask-10" fill="white">
                                <use xlink:href="#path-9"></use>
                            </mask>
                            <g id="Clip-396"></g>
                            <polygon id="Fill-395" fill="#FED445" mask="url(#mask-10)" points="-13 76 68 76 68 -13 -13 -13"></polygon>
                        </g>
                        <g id="Group-3-Copy-19" transform="translate(812.000000, 73.000000)">
                            <mask id="mask-12" fill="white">
                                <use xlink:href="#path-11"></use>
                            </mask>
                            <g id="Clip-396"></g>
                            <polygon id="Fill-395" fill="#FED445" mask="url(#mask-12)" points="-7.54054054 44.372093 39.3783784 44.372093 39.3783784 -7.53488372 -7.54054054 -7.53488372"></polygon>
                        </g>
                        <g id="Group-3-Copy-21" transform="translate(776.000000, 331.000000)">
                            <mask id="mask-14" fill="white">
                                <use xlink:href="#path-13"></use>
                            </mask>
                            <g id="Clip-396"></g>
                            <polygon id="Fill-395" fill="#FED445" mask="url(#mask-14)" points="-9 50.02 45 50.02 45 -9.02 -9 -9.02"></polygon>
                        </g>
                    </g>
                </g>
            </g>
        </g>
    </g>
</svg>