<?xml version="1.0" encoding="UTF-8"?>
<svg width="922px" height="150px" viewBox="0 0 922 150" version="1.1" xmlns="http://www.w3.org/2000/svg" xmlns:xlink="http://www.w3.org/1999/xlink">
    <!-- Generator: Sketch 52.4 (67378) - http://www.bohemiancoding.com/sketch -->
    <title>Teacher-graph-desktop</title>
    <desc>Created with Sketch.</desc>
    <g id="Page-1" stroke="none" stroke-width="1" fill="none" fill-rule="evenodd">
        <g id="Teacher-graph-desktop">
            <rect id="Rectangle" fill="#FFFFFF" fill-rule="nonzero" x="0" y="0" width="922" height="150"></rect>
            <polygon id="Fill-1-Copy" fill="#D1E6FE" points="-2.27373675e-13 50 544.666667 50 544.666667 -2.48689958e-14 -2.27373675e-13 -2.48689958e-14"></polygon>
            <polygon id="Fill-2-Copy" fill="#84AFFF" points="1.13686838e-13 100 817 100 817 50 1.13686838e-13 50"></polygon>
            <polygon id="Fill-3-Copy" fill="#E6E7E8" points="-1.70530257e-13 150 590.382527 150 590.382527 100 -1.70530257e-13 100"></polygon>
            <path d="M17.261,119.913 L18.795,119.913 L18.795,129 L17.261,129 L17.261,119.913 Z M28.129,119.913 L29.663,119.913 L29.663,129 L27.999,129 L22.851,122.37 L22.851,129 L21.317,129 L21.317,119.913 L22.851,119.913 L28.129,126.699 L28.129,119.913 Z M35.305,119.913 C36.9343415,119.913 38.1866623,120.309496 39.062,121.1025 C39.9373377,121.895504 40.375,122.998326 40.375,124.411 C40.375,125.823674 39.9503376,126.941663 39.101,127.765 C38.2516624,128.588337 36.9516754,129 35.201,129 L32.185,129 L32.185,119.913 L35.305,119.913 Z M38.828,124.45 C38.828,122.36999 37.6363452,121.33 35.253,121.33 L33.719,121.33 L33.719,127.557 L35.422,127.557 C36.5226722,127.557 37.3654971,127.294836 37.9505,126.7705 C38.5355029,126.246164 38.828,125.472672 38.828,124.45 Z M42.351,119.913 L43.885,119.913 L43.885,129 L42.351,129 L42.351,119.913 Z M47.694,126.933 L46.784,129 L45.146,129 L49.15,119.913 L50.788,119.913 L54.792,129 L53.154,129 L52.244,126.933 L47.694,126.933 Z M51.62,125.516 L49.969,121.772 L48.318,125.516 L51.62,125.516 Z M60.902,126.933 L59.992,129 L58.354,129 L62.358,119.913 L63.996,119.913 L68,129 L66.362,129 L65.452,126.933 L60.902,126.933 Z M64.828,125.516 L63.177,121.772 L61.526,125.516 L64.828,125.516 Z M73.408,129 L71.692,129 L68.039,119.913 L69.755,119.913 L72.55,126.699 L75.345,119.913 L77.061,119.913 L73.408,129 Z M84.744,119.913 L84.744,121.356 L79.895,121.356 L79.895,123.761 L84.25,123.761 L84.25,125.126 L79.895,125.126 L79.895,127.557 L84.9,127.557 L84.9,129 L78.361,129 L78.361,119.913 L84.744,119.913 Z M94.117,122.864 C94.117,124.363341 93.4626732,125.307998 92.154,125.698 L94.533,129 L92.583,129 L90.412,125.945 L88.397,125.945 L88.397,129 L86.863,129 L86.863,119.913 L90.243,119.913 C91.6296736,119.913 92.621997,120.146998 93.22,120.615 C93.818003,121.083002 94.117,121.832662 94.117,122.864 Z M90.308,124.554 C91.174671,124.554 91.7639984,124.419668 92.076,124.151 C92.3880016,123.882332 92.544,123.45117 92.544,122.8575 C92.544,122.26383 92.3836683,121.856501 92.063,121.6355 C91.7423317,121.414499 91.1703374,121.304 90.347,121.304 L88.397,121.304 L88.397,124.554 L90.308,124.554 Z M97.614,126.933 L96.704,129 L95.066,129 L99.07,119.913 L100.708,119.913 L104.712,129 L103.074,129 L102.164,126.933 L97.614,126.933 Z M101.54,125.516 L99.889,121.772 L98.238,125.516 L101.54,125.516 Z M112.265,124.58 L113.799,124.58 L113.799,127.687 C112.940996,128.631671 111.714675,129.104 110.12,129.104 C108.77666,129.104 107.652171,128.662004 106.7465,127.778 C105.840829,126.893996 105.388,125.776007 105.388,124.424 C105.388,123.071993 105.849495,121.945338 106.7725,121.044 C107.695505,120.142662 108.811327,119.692 110.12,119.692 C111.428673,119.692 112.516329,120.07333 113.383,120.836 L112.564,122.006 C112.208665,121.702665 111.851168,121.492501 111.4915,121.3755 C111.131832,121.258499 110.713669,121.2 110.237,121.2 C109.318329,121.2 108.547003,121.49683 107.923,122.0905 C107.298997,122.68417 106.987,123.464162 106.987,124.4305 C106.987,125.396838 107.29033,126.172497 107.897,126.7575 C108.50367,127.342503 109.238162,127.635 110.1005,127.635 C110.962838,127.635 111.68433,127.448669 112.265,127.076 L112.265,124.58 Z M122.197,119.913 L122.197,121.356 L117.348,121.356 L117.348,123.761 L121.703,123.761 L121.703,125.126 L117.348,125.126 L117.348,127.557 L122.353,127.557 L122.353,129 L115.814,129 L115.814,119.913 L122.197,119.913 Z" id="INDIA-AVERAGE-Copy-4" fill="#000000"></path>
            <path d="M17.001,71.278 L17.001,69.913 L22.318,69.913 L22.318,71.109 L20.121,73.566 C20.9530042,73.5920001 21.6029977,73.8541642 22.071,74.3525 C22.5390023,74.8508358 22.773,75.4466632 22.773,76.14 C22.773,77.067338 22.4588365,77.7953307 21.8305,78.324 C21.2021635,78.8526693 20.3940049,79.117 19.406,79.117 C18.4179951,79.117 17.4516714,78.8006698 16.507,78.168 L17.157,76.933 C17.9023371,77.4530026 18.6823293,77.713 19.497,77.713 C20.0256693,77.713 20.461165,77.5895012 20.8035,77.3425 C21.145835,77.0954988 21.317,76.740169 21.317,76.2765 C21.317,75.812831 21.1263352,75.4423347 20.745,75.165 C20.3636648,74.8876653 19.8350034,74.749 19.159,74.749 C18.8209983,74.749 18.4960016,74.7966662 18.184,74.892 L18.184,73.722 L20.29,71.278 L17.001,71.278 Z M27.024,74.931 C27.6393364,74.3069969 28.0769987,73.8173351 28.337,73.462 C28.5970013,73.1066649 28.727,72.7470018 28.727,72.383 C28.727,72.0189982 28.5883347,71.7091679 28.311,71.4535 C28.0336653,71.1978321 27.6826688,71.07 27.258,71.07 C26.5126629,71.07 25.8930025,71.4513295 25.399,72.214 L24.164,71.499 C24.5626687,70.900997 25.0024976,70.4503348 25.4835,70.147 C25.9645024,69.8436651 26.5841629,69.692 27.3425,69.692 C28.1008371,69.692 28.7659971,69.9324976 29.338,70.4135 C29.9100029,70.8945024 30.196,71.5509958 30.196,72.383 C30.196,72.8510023 30.0746679,73.2973312 29.832,73.722 C29.5893321,74.1466688 29.1430033,74.6926633 28.493,75.36 L26.361,77.531 L30.482,77.531 L30.482,79 L24.268,79 L24.268,77.7 L27.024,74.931 Z M31.548,69.913 L34.85,69.913 L34.85,79 L33.394,79 L33.394,71.278 L31.548,71.278 L31.548,69.913 Z M42.234,76.933 L41.324,79 L39.686,79 L43.69,69.913 L45.328,69.913 L49.332,79 L47.694,79 L46.784,76.933 L42.234,76.933 Z M46.16,75.516 L44.509,71.772 L42.858,75.516 L46.16,75.516 Z M54.74,79 L53.024,79 L49.371,69.913 L51.087,69.913 L53.882,76.699 L56.677,69.913 L58.393,69.913 L54.74,79 Z M66.076,69.913 L66.076,71.356 L61.227,71.356 L61.227,73.761 L65.582,73.761 L65.582,75.126 L61.227,75.126 L61.227,77.557 L66.232,77.557 L66.232,79 L59.693,79 L59.693,69.913 L66.076,69.913 Z M75.449,72.864 C75.449,74.3633408 74.7946732,75.307998 73.486,75.698 L75.865,79 L73.915,79 L71.744,75.945 L69.729,75.945 L69.729,79 L68.195,79 L68.195,69.913 L71.575,69.913 C72.9616736,69.913 73.953997,70.1469977 74.552,70.615 C75.150003,71.0830023 75.449,71.8326615 75.449,72.864 Z M71.64,74.554 C72.506671,74.554 73.0959984,74.419668 73.408,74.151 C73.7200016,73.882332 73.876,73.4511696 73.876,72.8575 C73.876,72.2638304 73.7156683,71.8565011 73.395,71.6355 C73.0743317,71.4144989 72.5023375,71.304 71.679,71.304 L69.729,71.304 L69.729,74.554 L71.64,74.554 Z M78.946,76.933 L78.036,79 L76.398,79 L80.402,69.913 L82.04,69.913 L86.044,79 L84.406,79 L83.496,76.933 L78.946,76.933 Z M82.872,75.516 L81.221,71.772 L79.57,75.516 L82.872,75.516 Z M93.597,74.58 L95.131,74.58 L95.131,77.687 C94.2729957,78.6316714 93.0466746,79.104 91.452,79.104 C90.1086599,79.104 88.9841712,78.6620044 88.0785,77.778 C87.1728288,76.8939956 86.72,75.7760068 86.72,74.424 C86.72,73.0719932 87.1814954,71.9453378 88.1045,71.044 C89.0275046,70.1426622 90.1433268,69.692 91.452,69.692 C92.7606732,69.692 93.848329,70.0733295 94.715,70.836 L93.896,72.006 C93.5406649,71.7026651 93.1831685,71.4925006 92.8235,71.3755 C92.4638315,71.2584994 92.0456691,71.2 91.569,71.2 C90.6503287,71.2 89.8790031,71.4968304 89.255,72.0905 C88.6309969,72.6841696 88.319,73.4641618 88.319,74.4305 C88.319,75.3968382 88.6223303,76.1724971 89.229,76.7575 C89.8356697,77.3425029 90.5701624,77.635 91.4325,77.635 C92.2948376,77.635 93.0163304,77.4486685 93.597,77.076 L93.597,74.58 Z M103.529,69.913 L103.529,71.356 L98.68,71.356 L98.68,73.761 L103.035,73.761 L103.035,75.126 L98.68,75.126 L98.68,77.557 L103.685,77.557 L103.685,79 L97.146,79 L97.146,69.913 L103.529,69.913 Z M110.562,71.837 C110.215332,72.911672 110.042,73.9473283 110.042,74.944 C110.042,75.9406716 110.215332,76.9784946 110.562,78.0575 C110.908668,79.1365054 111.333331,80.0269965 111.836,80.729 L110.289,80.729 C109.864331,80.1396637 109.476502,79.2990055 109.1255,78.207 C108.774498,77.1149945 108.599,76.0273387 108.599,74.944 C108.599,73.8606612 108.774498,72.7730055 109.1255,71.681 C109.476502,70.5889945 109.864331,69.7483363 110.289,69.159 L111.836,69.159 C111.333331,69.8610035 110.908668,70.7536612 110.562,71.837 Z M117.101,79 L115.541,79 L115.541,75.412 L112.161,69.913 L113.838,69.913 L116.321,74.047 L118.804,69.913 L120.481,69.913 L117.101,75.412 L117.101,79 Z M128.021,69.913 L128.021,71.356 L123.172,71.356 L123.172,73.761 L127.527,73.761 L127.527,75.126 L123.172,75.126 L123.172,77.557 L128.177,77.557 L128.177,79 L121.638,79 L121.638,69.913 L128.021,69.913 Z M131.427,76.933 L130.517,79 L128.879,79 L132.883,69.913 L134.521,69.913 L138.525,79 L136.887,79 L135.977,76.933 L131.427,76.933 Z M135.353,75.516 L133.702,71.772 L132.051,75.516 L135.353,75.516 Z M147.04,72.864 C147.04,74.3633408 146.385673,75.307998 145.077,75.698 L147.456,79 L145.506,79 L143.335,75.945 L141.32,75.945 L141.32,79 L139.786,79 L139.786,69.913 L143.166,69.913 C144.552674,69.913 145.544997,70.1469977 146.143,70.615 C146.741003,71.0830023 147.04,71.8326615 147.04,72.864 Z M143.231,74.554 C144.097671,74.554 144.686998,74.419668 144.999,74.151 C145.311002,73.882332 145.467,73.4511696 145.467,72.8575 C145.467,72.2638304 145.306668,71.8565011 144.986,71.6355 C144.665332,71.4144989 144.093337,71.304 143.27,71.304 L141.32,71.304 L141.32,74.554 L143.231,74.554 Z M159.195,69.913 L159.195,71.356 L154.346,71.356 L154.346,73.761 L158.701,73.761 L158.701,75.126 L154.346,75.126 L154.346,77.557 L159.351,77.557 L159.351,79 L152.812,79 L152.812,69.913 L159.195,69.913 Z M168.126,69.913 L169.66,69.913 L169.66,79 L167.996,79 L162.848,72.37 L162.848,79 L161.314,79 L161.314,69.913 L162.848,69.913 L168.126,76.699 L168.126,69.913 Z M175.302,69.913 C176.931341,69.913 178.183662,70.309496 179.059,71.1025 C179.934338,71.895504 180.372,72.9983263 180.372,74.411 C180.372,75.8236737 179.947338,76.9416625 179.098,77.765 C178.248662,78.5883374 176.948675,79 175.198,79 L172.182,79 L172.182,69.913 L175.302,69.913 Z M178.825,74.45 C178.825,72.3699896 177.633345,71.33 175.25,71.33 L173.716,71.33 L173.716,77.557 L175.419,77.557 C176.519672,77.557 177.362497,77.294836 177.9475,76.7705 C178.532503,76.246164 178.825,75.4726718 178.825,74.45 Z M182.79,78.064 C183.136668,76.9806612 183.31,75.9406716 183.31,74.944 C183.31,73.9473283 183.136668,72.9095054 182.79,71.8305 C182.443332,70.7514946 182.018669,69.8610035 181.516,69.159 L183.063,69.159 C183.487669,69.7483363 183.875498,70.5889945 184.2265,71.681 C184.577502,72.7730055 184.753,73.8606612 184.753,74.944 C184.753,76.0273387 184.577502,77.1149945 184.2265,78.207 C183.875498,79.2990055 183.487669,80.1396637 183.063,80.729 L181.516,80.729 C182.018669,80.0269965 182.443332,79.138672 182.79,78.064 Z" id="321-AVERAGE-(YEAR-EN-Copy-2" fill="#000000"></path>
            <path d="M17.001,21.278 L17.001,19.913 L22.318,19.913 L22.318,21.109 L20.121,23.566 C20.9530042,23.5920001 21.6029977,23.8541642 22.071,24.3525 C22.5390023,24.8508358 22.773,25.4466632 22.773,26.14 C22.773,27.067338 22.4588365,27.7953307 21.8305,28.324 C21.2021635,28.8526693 20.3940049,29.117 19.406,29.117 C18.4179951,29.117 17.4516714,28.8006698 16.507,28.168 L17.157,26.933 C17.9023371,27.4530026 18.6823293,27.713 19.497,27.713 C20.0256693,27.713 20.461165,27.5895012 20.8035,27.3425 C21.145835,27.0954988 21.317,26.740169 21.317,26.2765 C21.317,25.812831 21.1263352,25.4423347 20.745,25.165 C20.3636648,24.8876653 19.8350034,24.749 19.159,24.749 C18.8209983,24.749 18.4960016,24.7966662 18.184,24.892 L18.184,23.722 L20.29,21.278 L17.001,21.278 Z M27.024,24.931 C27.6393364,24.3069969 28.0769987,23.8173351 28.337,23.462 C28.5970013,23.1066649 28.727,22.7470018 28.727,22.383 C28.727,22.0189982 28.5883347,21.7091679 28.311,21.4535 C28.0336653,21.1978321 27.6826688,21.07 27.258,21.07 C26.5126629,21.07 25.8930025,21.4513295 25.399,22.214 L24.164,21.499 C24.5626687,20.900997 25.0024976,20.4503348 25.4835,20.147 C25.9645024,19.8436651 26.5841629,19.692 27.3425,19.692 C28.1008371,19.692 28.7659971,19.9324976 29.338,20.4135 C29.9100029,20.8945024 30.196,21.5509958 30.196,22.383 C30.196,22.8510023 30.0746679,23.2973312 29.832,23.722 C29.5893321,24.1466688 29.1430033,24.6926633 28.493,25.36 L26.361,27.531 L30.482,27.531 L30.482,29 L24.268,29 L24.268,27.7 L27.024,24.931 Z M31.548,19.913 L34.85,19.913 L34.85,29 L33.394,29 L33.394,21.278 L31.548,21.278 L31.548,19.913 Z M42.234,26.933 L41.324,29 L39.686,29 L43.69,19.913 L45.328,19.913 L49.332,29 L47.694,29 L46.784,26.933 L42.234,26.933 Z M46.16,25.516 L44.509,21.772 L42.858,25.516 L46.16,25.516 Z M54.74,29 L53.024,29 L49.371,19.913 L51.087,19.913 L53.882,26.699 L56.677,19.913 L58.393,19.913 L54.74,29 Z M66.076,19.913 L66.076,21.356 L61.227,21.356 L61.227,23.761 L65.582,23.761 L65.582,25.126 L61.227,25.126 L61.227,27.557 L66.232,27.557 L66.232,29 L59.693,29 L59.693,19.913 L66.076,19.913 Z M75.449,22.864 C75.449,24.3633408 74.7946732,25.307998 73.486,25.698 L75.865,29 L73.915,29 L71.744,25.945 L69.729,25.945 L69.729,29 L68.195,29 L68.195,19.913 L71.575,19.913 C72.9616736,19.913 73.953997,20.1469977 74.552,20.615 C75.150003,21.0830023 75.449,21.8326615 75.449,22.864 Z M71.64,24.554 C72.506671,24.554 73.0959984,24.419668 73.408,24.151 C73.7200016,23.882332 73.876,23.4511696 73.876,22.8575 C73.876,22.2638304 73.7156683,21.8565011 73.395,21.6355 C73.0743317,21.4144989 72.5023375,21.304 71.679,21.304 L69.729,21.304 L69.729,24.554 L71.64,24.554 Z M78.946,26.933 L78.036,29 L76.398,29 L80.402,19.913 L82.04,19.913 L86.044,29 L84.406,29 L83.496,26.933 L78.946,26.933 Z M82.872,25.516 L81.221,21.772 L79.57,25.516 L82.872,25.516 Z M93.597,24.58 L95.131,24.58 L95.131,27.687 C94.2729957,28.6316714 93.0466746,29.104 91.452,29.104 C90.1086599,29.104 88.9841712,28.6620044 88.0785,27.778 C87.1728288,26.8939956 86.72,25.7760068 86.72,24.424 C86.72,23.0719932 87.1814954,21.9453378 88.1045,21.044 C89.0275046,20.1426622 90.1433268,19.692 91.452,19.692 C92.7606732,19.692 93.848329,20.0733295 94.715,20.836 L93.896,22.006 C93.5406649,21.7026651 93.1831685,21.4925006 92.8235,21.3755 C92.4638315,21.2584994 92.0456691,21.2 91.569,21.2 C90.6503287,21.2 89.8790031,21.4968304 89.255,22.0905 C88.6309969,22.6841696 88.319,23.4641618 88.319,24.4305 C88.319,25.3968382 88.6223303,26.1724971 89.229,26.7575 C89.8356697,27.3425029 90.5701624,27.635 91.4325,27.635 C92.2948376,27.635 93.0163304,27.4486685 93.597,27.076 L93.597,24.58 Z M103.529,19.913 L103.529,21.356 L98.68,21.356 L98.68,23.761 L103.035,23.761 L103.035,25.126 L98.68,25.126 L98.68,27.557 L103.685,27.557 L103.685,29 L97.146,29 L97.146,19.913 L103.529,19.913 Z M110.562,21.837 C110.215332,22.911672 110.042,23.9473283 110.042,24.944 C110.042,25.9406716 110.215332,26.9784946 110.562,28.0575 C110.908668,29.1365054 111.333331,30.0269965 111.836,30.729 L110.289,30.729 C109.864331,30.1396637 109.476502,29.2990055 109.1255,28.207 C108.774498,27.1149945 108.599,26.0273387 108.599,24.944 C108.599,23.8606612 108.774498,22.7730055 109.1255,21.681 C109.476502,20.5889945 109.864331,19.7483363 110.289,19.159 L111.836,19.159 C111.333331,19.8610035 110.908668,20.7536612 110.562,21.837 Z M117.101,29 L115.541,29 L115.541,25.412 L112.161,19.913 L113.838,19.913 L116.321,24.047 L118.804,19.913 L120.481,19.913 L117.101,25.412 L117.101,29 Z M128.021,19.913 L128.021,21.356 L123.172,21.356 L123.172,23.761 L127.527,23.761 L127.527,25.126 L123.172,25.126 L123.172,27.557 L128.177,27.557 L128.177,29 L121.638,29 L121.638,19.913 L128.021,19.913 Z M131.427,26.933 L130.517,29 L128.879,29 L132.883,19.913 L134.521,19.913 L138.525,29 L136.887,29 L135.977,26.933 L131.427,26.933 Z M135.353,25.516 L133.702,21.772 L132.051,25.516 L135.353,25.516 Z M147.04,22.864 C147.04,24.3633408 146.385673,25.307998 145.077,25.698 L147.456,29 L145.506,29 L143.335,25.945 L141.32,25.945 L141.32,29 L139.786,29 L139.786,19.913 L143.166,19.913 C144.552674,19.913 145.544997,20.1469977 146.143,20.615 C146.741003,21.0830023 147.04,21.8326615 147.04,22.864 Z M143.231,24.554 C144.097671,24.554 144.686998,24.419668 144.999,24.151 C145.311002,23.882332 145.467,23.4511696 145.467,22.8575 C145.467,22.2638304 145.306668,21.8565011 144.986,21.6355 C144.665332,21.4144989 144.093337,21.304 143.27,21.304 L141.32,21.304 L141.32,24.554 L143.231,24.554 Z M155.555,21.109 C155.112998,21.109 154.749001,21.1999991 154.463,21.382 C154.176999,21.5640009 154.034,21.8391648 154.034,22.2075 C154.034,22.5758352 154.176999,22.857499 154.463,23.0525 C154.749001,23.247501 155.357829,23.4576655 156.2895,23.683 C157.221171,23.9083345 157.923164,24.2246646 158.3955,24.632 C158.867836,25.0393354 159.104,25.639496 159.104,26.4325 C159.104,27.225504 158.805003,27.8689975 158.207,28.363 C157.608997,28.8570025 156.824672,29.104 155.854,29.104 C154.43266,29.104 153.171672,28.6143382 152.071,27.635 L153.033,26.478 C153.951671,27.2753373 154.904995,27.674 155.893,27.674 C156.387002,27.674 156.779165,27.5678344 157.0695,27.3555 C157.359835,27.1431656 157.505,26.8615018 157.505,26.5105 C157.505,26.1594982 157.368501,25.886501 157.0955,25.6915 C156.822499,25.496499 156.352337,25.3188341 155.685,25.1585 C155.017663,24.9981659 154.510668,24.850834 154.164,24.7165 C153.817332,24.582166 153.509668,24.4066677 153.241,24.19 C152.703664,23.7826646 152.435,23.1586709 152.435,22.318 C152.435,21.4773291 152.740497,20.8295023 153.3515,20.3745 C153.962503,19.9194977 154.718662,19.692 155.62,19.692 C156.20067,19.692 156.776997,19.7873324 157.349,19.978 C157.921003,20.1686676 158.414998,20.4373316 158.831,20.784 L158.012,21.941 C157.743332,21.6983321 157.379336,21.4990008 156.92,21.343 C156.460664,21.1869992 156.005669,21.109 155.555,21.109 Z M164.434,21.317 L164.434,29 L162.9,29 L162.9,21.317 L160.144,21.317 L160.144,19.913 L167.19,19.913 L167.19,21.317 L164.434,21.317 Z M170.141,26.933 L169.231,29 L167.593,29 L171.597,19.913 L173.235,19.913 L177.239,29 L175.601,29 L174.691,26.933 L170.141,26.933 Z M174.067,25.516 L172.416,21.772 L170.765,25.516 L174.067,25.516 Z M185.754,22.864 C185.754,24.3633408 185.099673,25.307998 183.791,25.698 L186.17,29 L184.22,29 L182.049,25.945 L180.034,25.945 L180.034,29 L178.5,29 L178.5,19.913 L181.88,19.913 C183.266674,19.913 184.258997,20.1469977 184.857,20.615 C185.455003,21.0830023 185.754,21.8326615 185.754,22.864 Z M181.945,24.554 C182.811671,24.554 183.400998,24.419668 183.713,24.151 C184.025002,23.882332 184.181,23.4511696 184.181,22.8575 C184.181,22.2638304 184.020668,21.8565011 183.7,21.6355 C183.379332,21.4144989 182.807337,21.304 181.984,21.304 L180.034,21.304 L180.034,24.554 L181.945,24.554 Z M191.396,21.317 L191.396,29 L189.862,29 L189.862,21.317 L187.106,21.317 L187.106,19.913 L194.152,19.913 L194.152,21.317 L191.396,21.317 Z M196.258,28.064 C196.604668,26.9806612 196.778,25.9406716 196.778,24.944 C196.778,23.9473283 196.604668,22.9095054 196.258,21.8305 C195.911332,20.7514946 195.486669,19.8610035 194.984,19.159 L196.531,19.159 C196.955669,19.7483363 197.343498,20.5889945 197.6945,21.681 C198.045502,22.7730055 198.221,23.8606612 198.221,24.944 C198.221,26.0273387 198.045502,27.1149945 197.6945,28.207 C197.343498,29.2990055 196.955669,30.1396637 196.531,30.729 L194.984,30.729 C195.486669,30.0269965 195.911332,29.138672 196.258,28.064 Z" id="321-AVERAGE-(YEAR-ST-Copy-2" fill="#000000"></path>
            <path d="M574.144,16.224 L574.144,19.464 L567.52,19.464 L567.52,22.272 C568.016002,22.1279993 568.583997,22.056 569.224,22.056 C570.840008,22.056 572.231994,22.5439951 573.4,23.52 C574.568006,24.4960049 575.152,25.8119917 575.152,27.468 C575.152,29.1240083 574.548006,30.4919946 573.34,31.572 C572.131994,32.6520054 570.640009,33.192 568.864,33.192 C566.591989,33.192 564.696008,32.3520084 563.176,30.672 L565.144,27.936 C565.288001,28.0800007 565.479999,28.255999 565.72,28.464 C565.960001,28.672001 566.399997,28.9479983 567.04,29.292 C567.680003,29.6360017 568.319997,29.808 568.96,29.808 C569.600003,29.808 570.167998,29.6160019 570.664,29.232 C571.160002,28.8479981 571.408,28.2800038 571.408,27.528 C571.408,26.7759962 571.140003,26.196002 570.604,25.788 C570.067997,25.379998 569.376004,25.176 568.528,25.176 C567.679996,25.176 566.696006,25.479997 565.576,26.088 L564.016,24.408 L564.016,16.224 L574.144,16.224 Z M581.612,20.472 C581.083997,21.4960051 580.82,22.8479916 580.82,24.528 C580.82,26.2080084 581.083997,27.5599949 581.612,28.584 C582.140003,29.6080051 582.963994,30.12 584.084,30.12 C585.204006,30.12 586.027997,29.6080051 586.556,28.584 C587.084003,27.5599949 587.348,26.2080084 587.348,24.528 C587.348,22.8479916 587.084003,21.4960051 586.556,20.472 C586.027997,19.4479949 585.204006,18.936 584.084,18.936 C582.963994,18.936 582.140003,19.4479949 581.612,20.472 Z M584.084,33.192 C581.763988,33.192 580.028006,32.4040079 578.876,30.828 C577.723994,29.2519921 577.148,27.1480132 577.148,24.516 C577.148,21.8839868 577.723994,19.7800079 578.876,18.204 C580.028006,16.6279921 581.763988,15.84 584.084,15.84 C586.404012,15.84 588.139994,16.6279921 589.292,18.204 C590.444006,19.7800079 591.02,21.8839868 591.02,24.516 C591.02,27.1480132 590.444006,29.2519921 589.292,30.828 C588.139994,32.4040079 586.404012,33.192 584.084,33.192 Z M609.696,16.224 L597.672,33 L593.544,33 L605.592,16.224 L609.696,16.224 Z M605.664,30.696 C605.856001,30.904001 606.095999,31.008 606.384,31.008 C606.672001,31.008 606.911999,30.9000011 607.104,30.684 C607.296001,30.4679989 607.392,30.1840018 607.392,29.832 C607.392,29.4799982 607.296001,29.1880012 607.104,28.956 C606.911999,28.7239988 606.676001,28.608 606.396,28.608 C606.115999,28.608 605.880001,28.7239988 605.688,28.956 C605.495999,29.1880012 605.4,29.4799982 605.4,29.832 C605.4,30.1840018 605.487999,30.4719989 605.664,30.696 Z M609.936,29.832 C609.936,30.7760047 609.600003,31.5719968 608.928,32.22 C608.255997,32.8680032 607.412005,33.192 606.396,33.192 C605.379995,33.192 604.536003,32.8640033 603.864,32.208 C603.191997,31.5519967 602.856,30.7560047 602.856,29.82 C602.856,28.8839953 603.191997,28.0880033 603.864,27.432 C604.536003,26.7759967 605.379995,26.448 606.396,26.448 C607.412005,26.448 608.255997,26.7759967 608.928,27.432 C609.600003,28.0880033 609.936,28.8879953 609.936,29.832 Z M596.208,20.88 C596.400001,21.088001 596.639999,21.192 596.928,21.192 C597.216001,21.192 597.455999,21.0840011 597.648,20.868 C597.840001,20.6519989 597.936,20.3680018 597.936,20.016 C597.936,19.6639982 597.840001,19.3720012 597.648,19.14 C597.455999,18.9079988 597.220001,18.792 596.94,18.792 C596.659999,18.792 596.424001,18.9079988 596.232,19.14 C596.039999,19.3720012 595.944,19.6639982 595.944,20.016 C595.944,20.3680018 596.031999,20.6559989 596.208,20.88 Z M600.48,20.016 C600.48,20.9600047 600.144003,21.7559968 599.472,22.404 C598.799997,23.0520032 597.956005,23.376 596.94,23.376 C595.923995,23.376 595.080003,23.0480033 594.408,22.392 C593.735997,21.7359967 593.4,20.9400047 593.4,20.004 C593.4,19.0679953 593.735997,18.2720033 594.408,17.616 C595.080003,16.9599967 595.923995,16.632 596.94,16.632 C597.956005,16.632 598.799997,16.9599967 599.472,17.616 C600.144003,18.2720033 600.48,19.0719953 600.48,20.016 Z" id="50%-copy" fill="#84AFFF"></path>
            <path d="M837.128,71.6 L837.128,66.224 L849.248,66.224 L849.248,69.056 L842.456,83 L838.376,83 L844.856,69.44 L840.632,69.44 L840.632,71.6 L837.128,71.6 Z M861.54,66.224 L861.54,69.464 L854.916,69.464 L854.916,72.272 C855.412002,72.1279993 855.979997,72.056 856.62,72.056 C858.236008,72.056 859.627994,72.5439951 860.796,73.52 C861.964006,74.4960049 862.548,75.8119917 862.548,77.468 C862.548,79.1240083 861.944006,80.4919946 860.736,81.572 C859.527994,82.6520054 858.036009,83.192 856.26,83.192 C853.987989,83.192 852.092008,82.3520084 850.572,80.672 L852.54,77.936 C852.684001,78.0800007 852.875999,78.255999 853.116,78.464 C853.356001,78.672001 853.795997,78.9479983 854.436,79.292 C855.076003,79.6360017 855.715997,79.808 856.356,79.808 C856.996003,79.808 857.563998,79.6160019 858.06,79.232 C858.556002,78.8479981 858.804,78.2800038 858.804,77.528 C858.804,76.7759962 858.536003,76.196002 858,75.788 C857.463997,75.379998 856.772004,75.176 855.924,75.176 C855.075996,75.176 854.092006,75.479997 852.972,76.088 L851.412,74.408 L851.412,66.224 L861.54,66.224 Z M881.032,66.224 L869.008,83 L864.88,83 L876.928,66.224 L881.032,66.224 Z M877,80.696 C877.192001,80.904001 877.431999,81.008 877.72,81.008 C878.008001,81.008 878.247999,80.9000011 878.44,80.684 C878.632001,80.4679989 878.728,80.1840018 878.728,79.832 C878.728,79.4799982 878.632001,79.1880012 878.44,78.956 C878.247999,78.7239988 878.012001,78.608 877.732,78.608 C877.451999,78.608 877.216001,78.7239988 877.024,78.956 C876.831999,79.1880012 876.736,79.4799982 876.736,79.832 C876.736,80.1840018 876.823999,80.4719989 877,80.696 Z M881.272,79.832 C881.272,80.7760047 880.936003,81.5719968 880.264,82.22 C879.591997,82.8680032 878.748005,83.192 877.732,83.192 C876.715995,83.192 875.872003,82.8640033 875.2,82.208 C874.527997,81.5519967 874.192,80.7560047 874.192,79.82 C874.192,78.8839953 874.527997,78.0880033 875.2,77.432 C875.872003,76.7759967 876.715995,76.448 877.732,76.448 C878.748005,76.448 879.591997,76.7759967 880.264,77.432 C880.936003,78.0880033 881.272,78.8879953 881.272,79.832 Z M867.544,70.88 C867.736001,71.088001 867.975999,71.192 868.264,71.192 C868.552001,71.192 868.791999,71.0840011 868.984,70.868 C869.176001,70.6519989 869.272,70.3680018 869.272,70.016 C869.272,69.6639982 869.176001,69.3720012 868.984,69.14 C868.791999,68.9079988 868.556001,68.792 868.276,68.792 C867.995999,68.792 867.760001,68.9079988 867.568,69.14 C867.375999,69.3720012 867.28,69.6639982 867.28,70.016 C867.28,70.3680018 867.367999,70.6559989 867.544,70.88 Z M871.816,70.016 C871.816,70.9600047 871.480003,71.7559968 870.808,72.404 C870.135997,73.0520032 869.292005,73.376 868.276,73.376 C867.259995,73.376 866.416003,73.0480033 865.744,72.392 C865.071997,71.7359967 864.736,70.9400047 864.736,70.004 C864.736,69.0679953 865.071997,68.2720033 865.744,67.616 C866.416003,66.9599967 867.259995,66.632 868.276,66.632 C869.292005,66.632 870.135997,66.9599967 870.808,67.616 C871.480003,68.2720033 871.816,69.0719953 871.816,70.016 Z" id="75%-copy" fill="#84AFFF"></path>
            <path d="M618.144,117.224 L618.144,120.464 L611.52,120.464 L611.52,123.272 C612.016002,123.127999 612.583997,123.056 613.224,123.056 C614.840008,123.056 616.231994,123.543995 617.4,124.52 C618.568006,125.496005 619.152,126.811992 619.152,128.468 C619.152,130.124008 618.548006,131.491995 617.34,132.572 C616.131994,133.652005 614.640009,134.192 612.864,134.192 C610.591989,134.192 608.696008,133.352008 607.176,131.672 L609.144,128.936 C609.288001,129.080001 609.479999,129.255999 609.72,129.464 C609.960001,129.672001 610.399997,129.947998 611.04,130.292 C611.680003,130.636002 612.319997,130.808 612.96,130.808 C613.600003,130.808 614.167998,130.616002 614.664,130.232 C615.160002,129.847998 615.408,129.280004 615.408,128.528 C615.408,127.775996 615.140003,127.196002 614.604,126.788 C614.067997,126.379998 613.376004,126.176 612.528,126.176 C611.679996,126.176 610.696006,126.479997 609.576,127.088 L608.016,125.408 L608.016,117.224 L618.144,117.224 Z M627.412,126.752 L627.412,123.824 L631.012,123.824 L631.012,126.752 L632.908,126.752 L632.908,129.992 L631.012,129.992 L631.012,134 L627.412,134 L627.412,129.992 L620.668,129.992 L620.668,127.136 L626.644,117.224 L630.724,117.224 L625.036,126.752 L627.412,126.752 Z M651.248,117.224 L639.224,134 L635.096,134 L647.144,117.224 L651.248,117.224 Z M647.216,131.696 C647.408001,131.904001 647.647999,132.008 647.936,132.008 C648.224001,132.008 648.463999,131.900001 648.656,131.684 C648.848001,131.467999 648.944,131.184002 648.944,130.832 C648.944,130.479998 648.848001,130.188001 648.656,129.956 C648.463999,129.723999 648.228001,129.608 647.948,129.608 C647.667999,129.608 647.432001,129.723999 647.24,129.956 C647.047999,130.188001 646.952,130.479998 646.952,130.832 C646.952,131.184002 647.039999,131.471999 647.216,131.696 Z M651.488,130.832 C651.488,131.776005 651.152003,132.571997 650.48,133.22 C649.807997,133.868003 648.964005,134.192 647.948,134.192 C646.931995,134.192 646.088003,133.864003 645.416,133.208 C644.743997,132.551997 644.408,131.756005 644.408,130.82 C644.408,129.883995 644.743997,129.088003 645.416,128.432 C646.088003,127.775997 646.931995,127.448 647.948,127.448 C648.964005,127.448 649.807997,127.775997 650.48,128.432 C651.152003,129.088003 651.488,129.887995 651.488,130.832 Z M637.76,121.88 C637.952001,122.088001 638.191999,122.192 638.48,122.192 C638.768001,122.192 639.007999,122.084001 639.2,121.868 C639.392001,121.651999 639.488,121.368002 639.488,121.016 C639.488,120.663998 639.392001,120.372001 639.2,120.14 C639.007999,119.907999 638.772001,119.792 638.492,119.792 C638.211999,119.792 637.976001,119.907999 637.784,120.14 C637.591999,120.372001 637.496,120.663998 637.496,121.016 C637.496,121.368002 637.583999,121.655999 637.76,121.88 Z M642.032,121.016 C642.032,121.960005 641.696003,122.755997 641.024,123.404 C640.351997,124.052003 639.508005,124.376 638.492,124.376 C637.475995,124.376 636.632003,124.048003 635.96,123.392 C635.287997,122.735997 634.952,121.940005 634.952,121.004 C634.952,120.067995 635.287997,119.272003 635.96,118.616 C636.632003,117.959997 637.475995,117.632 638.492,117.632 C639.508005,117.632 640.351997,117.959997 641.024,118.616 C641.696003,119.272003 642.032,120.071995 642.032,121.016 Z" id="54%-copy" fill="#BDBDBD"></path>
        </g>
    </g>
</svg>