<?xml version="1.0" encoding="UTF-8"?>
<svg width="295px" height="167px" viewBox="0 0 295 167" version="1.1" xmlns="http://www.w3.org/2000/svg" xmlns:xlink="http://www.w3.org/1999/xlink">
    <!-- Generator: Sketch 52.4 (67378) - http://www.bohemiancoding.com/sketch -->
    <title>Teacher-graph-mob</title>
    <desc>Created with Sketch.</desc>
    <defs>
        <path d="M10,5 C10,7.76133333 7.76133333,10 5,10 C2.23866667,10 0,7.76133333 0,5 C0,2.23866667 2.23866667,0 5,0 C7.76133333,0 10,2.23866667 10,5 Z" id="path-1"></path>
        <path d="M10,5 C10,7.76133333 7.76133333,10 5,10 C2.23866667,10 0,7.76133333 0,5 C0,2.23866667 2.23866667,0 5,0 C7.76133333,0 10,2.23866667 10,5 Z" id="path-3"></path>
        <path d="M10,5 C10,7.76133333 7.76133333,10 5,10 C2.23866667,10 0,7.76133333 0,5 C0,2.23866667 2.23866667,0 5,0 C7.76133333,0 10,2.23866667 10,5 Z" id="path-5"></path>
    </defs>
    <g id="Page-1" stroke="none" stroke-width="1" fill="none" fill-rule="evenodd">
        <g id="Teacher-graph-mob">
            <rect id="Rectangle" fill="#FFFFFF" fill-rule="nonzero" x="0" y="0" width="295" height="167"></rect>
            <g id="Group-464-Copy-7" transform="translate(0.000000, 135.000000)">
                <mask id="mask-2" fill="white">
                    <use xlink:href="#path-1"></use>
                </mask>
                <g id="Clip-463"></g>
                <polygon id="Fill-462" fill="#87BEFD" mask="url(#mask-2)" points="-1.66666667 11.6666667 11.6666667 11.6666667 11.6666667 -1.66666667 -1.66666667 -1.66666667"></polygon>
            </g>
            <g id="Group-464-Copy-9" transform="translate(0.000000, 113.000000)">
                <mask id="mask-4" fill="white">
                    <use xlink:href="#path-3"></use>
                </mask>
                <g id="Clip-463"></g>
                <polygon id="Fill-462" fill="#D1E6FE" mask="url(#mask-4)" points="-1.66666667 11.6666667 11.6666667 11.6666667 11.6666667 -1.66666667 -1.66666667 -1.66666667"></polygon>
            </g>
            <g id="Group-464-Copy-10" transform="translate(0.000000, 157.000000)">
                <mask id="mask-6" fill="white">
                    <use xlink:href="#path-5"></use>
                </mask>
                <g id="Clip-463"></g>
                <polygon id="Fill-462" fill="#E6E7E8" mask="url(#mask-6)" points="-1.66666667 11.6666667 11.6666667 11.6666667 11.6666667 -1.66666667 -1.66666667 -1.66666667"></polygon>
            </g>
            <path d="M19.164,157.612 L20.58,157.612 L20.58,166 L19.164,166 L19.164,157.612 Z M29.196,157.612 L30.612,157.612 L30.612,166 L29.076,166 L24.324,159.88 L24.324,166 L22.908,166 L22.908,157.612 L24.324,157.612 L29.196,163.876 L29.196,157.612 Z M35.82,157.612 C37.3240075,157.612 38.479996,157.977996 39.288,158.71 C40.096004,159.442004 40.5,160.459993 40.5,161.764 C40.5,163.068007 40.1080039,164.099996 39.324,164.86 C38.5399961,165.620004 37.3400081,166 35.724,166 L32.94,166 L32.94,157.612 L35.82,157.612 Z M39.072,161.8 C39.072,159.87999 37.972011,158.92 35.772,158.92 L34.356,158.92 L34.356,164.668 L35.928,164.668 C36.9440051,164.668 37.7219973,164.426002 38.262,163.942 C38.8020027,163.457998 39.072,162.744005 39.072,161.8 Z M42.324,157.612 L43.74,157.612 L43.74,166 L42.324,166 L42.324,157.612 Z M47.256,164.092 L46.416,166 L44.904,166 L48.6,157.612 L50.112,157.612 L53.808,166 L52.296,166 L51.456,164.092 L47.256,164.092 Z M50.88,162.784 L49.356,159.328 L47.832,162.784 L50.88,162.784 Z M59.448,164.092 L58.608,166 L57.096,166 L60.792,157.612 L62.304,157.612 L66,166 L64.488,166 L63.648,164.092 L59.448,164.092 Z M63.072,162.784 L61.548,159.328 L60.024,162.784 L63.072,162.784 Z M70.992,166 L69.408,166 L66.036,157.612 L67.62,157.612 L70.2,163.876 L72.78,157.612 L74.364,157.612 L70.992,166 Z M81.456,157.612 L81.456,158.944 L76.98,158.944 L76.98,161.164 L81,161.164 L81,162.424 L76.98,162.424 L76.98,164.668 L81.6,164.668 L81.6,166 L75.564,166 L75.564,157.612 L81.456,157.612 Z M90.108,160.336 C90.108,161.720007 89.504006,162.591998 88.296,162.952 L90.492,166 L88.692,166 L86.688,163.18 L84.828,163.18 L84.828,166 L83.412,166 L83.412,157.612 L86.532,157.612 C87.8120064,157.612 88.7279972,157.827998 89.28,158.26 C89.8320028,158.692002 90.108,159.383995 90.108,160.336 Z M86.592,161.896 C87.392004,161.896 87.9359986,161.772001 88.224,161.524 C88.5120014,161.275999 88.656,160.878003 88.656,160.33 C88.656,159.781997 88.5080015,159.406001 88.212,159.202 C87.9159985,158.997999 87.3880038,158.896 86.628,158.896 L84.828,158.896 L84.828,161.896 L86.592,161.896 Z M93.336,164.092 L92.496,166 L90.984,166 L94.68,157.612 L96.192,157.612 L99.888,166 L98.376,166 L97.536,164.092 L93.336,164.092 Z M96.96,162.784 L95.436,159.328 L93.912,162.784 L96.96,162.784 Z M106.86,161.92 L108.276,161.92 L108.276,164.788 C107.483996,165.660004 106.352007,166.096 104.88,166.096 C103.639994,166.096 102.602004,165.688004 101.766,164.872 C100.929996,164.055996 100.512,163.024006 100.512,161.776 C100.512,160.527994 100.937996,159.488004 101.79,158.656 C102.642004,157.823996 103.671994,157.408 104.88,157.408 C106.088006,157.408 107.091996,157.759996 107.892,158.464 L107.136,159.544 C106.807998,159.263999 106.478002,159.070001 106.146,158.962 C105.813998,158.853999 105.428002,158.8 104.988,158.8 C104.139996,158.8 103.428003,159.073997 102.852,159.622 C102.275997,160.170003 101.988,160.889996 101.988,161.782 C101.988,162.674004 102.267997,163.389997 102.828,163.93 C103.388003,164.470003 104.065996,164.74 104.862,164.74 C105.658004,164.74 106.323997,164.568002 106.86,164.224 L106.86,161.92 Z M116.028,157.612 L116.028,158.944 L111.552,158.944 L111.552,161.164 L115.572,161.164 L115.572,162.424 L111.552,162.424 L111.552,164.668 L116.172,164.668 L116.172,166 L110.136,166 L110.136,157.612 L116.028,157.612 Z" id="INDIA-AVERAGE-Copy-5" fill="#000000" opacity="0.262416295"></path>
            <path d="M18.924,136.872 L18.924,135.612 L23.832,135.612 L23.832,136.716 L21.804,138.984 C22.5720038,139.008 23.1719978,139.249998 23.604,139.71 C24.0360022,140.170002 24.252,140.719997 24.252,141.36 C24.252,142.216004 23.9620029,142.887998 23.382,143.376 C22.8019971,143.864002 22.0560046,144.108 21.144,144.108 C20.2319954,144.108 19.3400044,143.816003 18.468,143.232 L19.068,142.092 C19.7560034,142.572002 20.4759962,142.812 21.228,142.812 C21.7160024,142.812 22.1179984,142.698001 22.434,142.47 C22.7500016,142.241999 22.908,141.914002 22.908,141.486 C22.908,141.057998 22.7320018,140.716001 22.38,140.46 C22.0279982,140.203999 21.5400031,140.076 20.916,140.076 C20.6039984,140.076 20.3040014,140.12 20.016,140.208 L20.016,139.128 L21.96,136.872 L18.924,136.872 Z M28.176,140.244 C28.7440028,139.667997 29.1479988,139.216002 29.388,138.888 C29.6280012,138.559998 29.748,138.228002 29.748,137.892 C29.748,137.555998 29.6200013,137.270001 29.364,137.034 C29.1079987,136.797999 28.784002,136.68 28.392,136.68 C27.7039966,136.68 27.1320023,137.031996 26.676,137.736 L25.536,137.076 C25.9040018,136.523997 26.3099978,136.108001 26.754,135.828 C27.1980022,135.547999 27.7699965,135.408 28.47,135.408 C29.1700035,135.408 29.7839974,135.629998 30.312,136.074 C30.8400026,136.518002 31.104,137.123996 31.104,137.892 C31.104,138.324002 30.9920011,138.735998 30.768,139.128 C30.5439989,139.520002 30.132003,140.023997 29.532,140.64 L27.564,142.644 L31.368,142.644 L31.368,144 L25.632,144 L25.632,142.8 L28.176,140.244 Z M32.352,135.612 L35.4,135.612 L35.4,144 L34.056,144 L34.056,136.872 L32.352,136.872 L32.352,135.612 Z M42.216,142.092 L41.376,144 L39.864,144 L43.56,135.612 L45.072,135.612 L48.768,144 L47.256,144 L46.416,142.092 L42.216,142.092 Z M45.84,140.784 L44.316,137.328 L42.792,140.784 L45.84,140.784 Z M53.76,144 L52.176,144 L48.804,135.612 L50.388,135.612 L52.968,141.876 L55.548,135.612 L57.132,135.612 L53.76,144 Z M64.224,135.612 L64.224,136.944 L59.748,136.944 L59.748,139.164 L63.768,139.164 L63.768,140.424 L59.748,140.424 L59.748,142.668 L64.368,142.668 L64.368,144 L58.332,144 L58.332,135.612 L64.224,135.612 Z M72.876,138.336 C72.876,139.720007 72.272006,140.591998 71.064,140.952 L73.26,144 L71.46,144 L69.456,141.18 L67.596,141.18 L67.596,144 L66.18,144 L66.18,135.612 L69.3,135.612 C70.5800064,135.612 71.4959972,135.827998 72.048,136.26 C72.6000028,136.692002 72.876,137.383995 72.876,138.336 Z M69.36,139.896 C70.160004,139.896 70.7039986,139.772001 70.992,139.524 C71.2800014,139.275999 71.424,138.878003 71.424,138.33 C71.424,137.781997 71.2760015,137.406001 70.98,137.202 C70.6839985,136.997999 70.1560038,136.896 69.396,136.896 L67.596,136.896 L67.596,139.896 L69.36,139.896 Z M76.104,142.092 L75.264,144 L73.752,144 L77.448,135.612 L78.96,135.612 L82.656,144 L81.144,144 L80.304,142.092 L76.104,142.092 Z M79.728,140.784 L78.204,137.328 L76.68,140.784 L79.728,140.784 Z M89.628,139.92 L91.044,139.92 L91.044,142.788 C90.251996,143.660004 89.1200074,144.096 87.648,144.096 C86.4079938,144.096 85.3700042,143.688004 84.534,142.872 C83.6979958,142.055996 83.28,141.024006 83.28,139.776 C83.28,138.527994 83.7059957,137.488004 84.558,136.656 C85.4100043,135.823996 86.439994,135.408 87.648,135.408 C88.856006,135.408 89.859996,135.759996 90.66,136.464 L89.904,137.544 C89.5759984,137.263999 89.2460017,137.070001 88.914,136.962 C88.5819983,136.853999 88.1960022,136.8 87.756,136.8 C86.9079958,136.8 86.1960029,137.073997 85.62,137.622 C85.0439971,138.170003 84.756,138.889996 84.756,139.782 C84.756,140.674004 85.0359972,141.389997 85.596,141.93 C86.1560028,142.470003 86.833996,142.74 87.63,142.74 C88.426004,142.74 89.0919973,142.568002 89.628,142.224 L89.628,139.92 Z M98.796,135.612 L98.796,136.944 L94.32,136.944 L94.32,139.164 L98.34,139.164 L98.34,140.424 L94.32,140.424 L94.32,142.668 L98.94,142.668 L98.94,144 L92.904,144 L92.904,135.612 L98.796,135.612 Z M105.288,137.388 C104.967998,138.380005 104.808,139.335995 104.808,140.256 C104.808,141.176005 104.967998,142.133995 105.288,143.13 C105.608002,144.126005 105.999998,144.947997 106.464,145.596 L105.036,145.596 C104.643998,145.051997 104.286002,144.276005 103.962,143.268 C103.637998,142.259995 103.476,141.256005 103.476,140.256 C103.476,139.255995 103.637998,138.252005 103.962,137.244 C104.286002,136.235995 104.643998,135.460003 105.036,134.916 L106.464,134.916 C105.999998,135.564003 105.608002,136.387995 105.288,137.388 Z M111.324,144 L109.884,144 L109.884,140.688 L106.764,135.612 L108.312,135.612 L110.604,139.428 L112.896,135.612 L114.444,135.612 L111.324,140.688 L111.324,144 Z M121.404,135.612 L121.404,136.944 L116.928,136.944 L116.928,139.164 L120.948,139.164 L120.948,140.424 L116.928,140.424 L116.928,142.668 L121.548,142.668 L121.548,144 L115.512,144 L115.512,135.612 L121.404,135.612 Z M124.548,142.092 L123.708,144 L122.196,144 L125.892,135.612 L127.404,135.612 L131.1,144 L129.588,144 L128.748,142.092 L124.548,142.092 Z M128.172,140.784 L126.648,137.328 L125.124,140.784 L128.172,140.784 Z M138.96,138.336 C138.96,139.720007 138.356006,140.591998 137.148,140.952 L139.344,144 L137.544,144 L135.54,141.18 L133.68,141.18 L133.68,144 L132.264,144 L132.264,135.612 L135.384,135.612 C136.664006,135.612 137.579997,135.827998 138.132,136.26 C138.684003,136.692002 138.96,137.383995 138.96,138.336 Z M135.444,139.896 C136.244004,139.896 136.787999,139.772001 137.076,139.524 C137.364001,139.275999 137.508,138.878003 137.508,138.33 C137.508,137.781997 137.360001,137.406001 137.064,137.202 C136.767999,136.997999 136.240004,136.896 135.48,136.896 L133.68,136.896 L133.68,139.896 L135.444,139.896 Z M150.18,135.612 L150.18,136.944 L145.704,136.944 L145.704,139.164 L149.724,139.164 L149.724,140.424 L145.704,140.424 L145.704,142.668 L150.324,142.668 L150.324,144 L144.288,144 L144.288,135.612 L150.18,135.612 Z M158.424,135.612 L159.84,135.612 L159.84,144 L158.304,144 L153.552,137.88 L153.552,144 L152.136,144 L152.136,135.612 L153.552,135.612 L158.424,141.876 L158.424,135.612 Z M165.048,135.612 C166.552008,135.612 167.707996,135.977996 168.516,136.71 C169.324004,137.442004 169.728,138.459993 169.728,139.764 C169.728,141.068007 169.336004,142.099996 168.552,142.86 C167.767996,143.620004 166.568008,144 164.952,144 L162.168,144 L162.168,135.612 L165.048,135.612 Z M168.3,139.8 C168.3,137.87999 167.200011,136.92 165,136.92 L163.584,136.92 L163.584,142.668 L165.156,142.668 C166.172005,142.668 166.949997,142.426002 167.49,141.942 C168.030003,141.457998 168.3,140.744005 168.3,139.8 Z M171.96,143.136 C172.280002,142.135995 172.44,141.176005 172.44,140.256 C172.44,139.335995 172.280002,138.378005 171.96,137.382 C171.639998,136.385995 171.248002,135.564003 170.784,134.916 L172.212,134.916 C172.604002,135.460003 172.961998,136.235995 173.286,137.244 C173.610002,138.252005 173.772,139.255995 173.772,140.256 C173.772,141.256005 173.610002,142.259995 173.286,143.268 C172.961998,144.276005 172.604002,145.051997 172.212,145.596 L170.784,145.596 C171.248002,144.947997 171.639998,144.128005 171.96,143.136 Z" id="321-AVERAGE-(YEAR-EN-Copy-3" fill="#000000" opacity="0.262416295"></path>
            <path d="M18.924,114.872 L18.924,113.612 L23.832,113.612 L23.832,114.716 L21.804,116.984 C22.5720038,117.008 23.1719978,117.249998 23.604,117.71 C24.0360022,118.170002 24.252,118.719997 24.252,119.36 C24.252,120.216004 23.9620029,120.887998 23.382,121.376 C22.8019971,121.864002 22.0560046,122.108 21.144,122.108 C20.2319954,122.108 19.3400044,121.816003 18.468,121.232 L19.068,120.092 C19.7560034,120.572002 20.4759962,120.812 21.228,120.812 C21.7160024,120.812 22.1179984,120.698001 22.434,120.47 C22.7500016,120.241999 22.908,119.914002 22.908,119.486 C22.908,119.057998 22.7320018,118.716001 22.38,118.46 C22.0279982,118.203999 21.5400031,118.076 20.916,118.076 C20.6039984,118.076 20.3040014,118.12 20.016,118.208 L20.016,117.128 L21.96,114.872 L18.924,114.872 Z M28.176,118.244 C28.7440028,117.667997 29.1479988,117.216002 29.388,116.888 C29.6280012,116.559998 29.748,116.228002 29.748,115.892 C29.748,115.555998 29.6200013,115.270001 29.364,115.034 C29.1079987,114.797999 28.784002,114.68 28.392,114.68 C27.7039966,114.68 27.1320023,115.031996 26.676,115.736 L25.536,115.076 C25.9040018,114.523997 26.3099978,114.108001 26.754,113.828 C27.1980022,113.547999 27.7699965,113.408 28.47,113.408 C29.1700035,113.408 29.7839974,113.629998 30.312,114.074 C30.8400026,114.518002 31.104,115.123996 31.104,115.892 C31.104,116.324002 30.9920011,116.735998 30.768,117.128 C30.5439989,117.520002 30.132003,118.023997 29.532,118.64 L27.564,120.644 L31.368,120.644 L31.368,122 L25.632,122 L25.632,120.8 L28.176,118.244 Z M32.352,113.612 L35.4,113.612 L35.4,122 L34.056,122 L34.056,114.872 L32.352,114.872 L32.352,113.612 Z M42.216,120.092 L41.376,122 L39.864,122 L43.56,113.612 L45.072,113.612 L48.768,122 L47.256,122 L46.416,120.092 L42.216,120.092 Z M45.84,118.784 L44.316,115.328 L42.792,118.784 L45.84,118.784 Z M53.76,122 L52.176,122 L48.804,113.612 L50.388,113.612 L52.968,119.876 L55.548,113.612 L57.132,113.612 L53.76,122 Z M64.224,113.612 L64.224,114.944 L59.748,114.944 L59.748,117.164 L63.768,117.164 L63.768,118.424 L59.748,118.424 L59.748,120.668 L64.368,120.668 L64.368,122 L58.332,122 L58.332,113.612 L64.224,113.612 Z M72.876,116.336 C72.876,117.720007 72.272006,118.591998 71.064,118.952 L73.26,122 L71.46,122 L69.456,119.18 L67.596,119.18 L67.596,122 L66.18,122 L66.18,113.612 L69.3,113.612 C70.5800064,113.612 71.4959972,113.827998 72.048,114.26 C72.6000028,114.692002 72.876,115.383995 72.876,116.336 Z M69.36,117.896 C70.160004,117.896 70.7039986,117.772001 70.992,117.524 C71.2800014,117.275999 71.424,116.878003 71.424,116.33 C71.424,115.781997 71.2760015,115.406001 70.98,115.202 C70.6839985,114.997999 70.1560038,114.896 69.396,114.896 L67.596,114.896 L67.596,117.896 L69.36,117.896 Z M76.104,120.092 L75.264,122 L73.752,122 L77.448,113.612 L78.96,113.612 L82.656,122 L81.144,122 L80.304,120.092 L76.104,120.092 Z M79.728,118.784 L78.204,115.328 L76.68,118.784 L79.728,118.784 Z M89.628,117.92 L91.044,117.92 L91.044,120.788 C90.251996,121.660004 89.1200074,122.096 87.648,122.096 C86.4079938,122.096 85.3700042,121.688004 84.534,120.872 C83.6979958,120.055996 83.28,119.024006 83.28,117.776 C83.28,116.527994 83.7059957,115.488004 84.558,114.656 C85.4100043,113.823996 86.439994,113.408 87.648,113.408 C88.856006,113.408 89.859996,113.759996 90.66,114.464 L89.904,115.544 C89.5759984,115.263999 89.2460017,115.070001 88.914,114.962 C88.5819983,114.853999 88.1960022,114.8 87.756,114.8 C86.9079958,114.8 86.1960029,115.073997 85.62,115.622 C85.0439971,116.170003 84.756,116.889996 84.756,117.782 C84.756,118.674004 85.0359972,119.389997 85.596,119.93 C86.1560028,120.470003 86.833996,120.74 87.63,120.74 C88.426004,120.74 89.0919973,120.568002 89.628,120.224 L89.628,117.92 Z M98.796,113.612 L98.796,114.944 L94.32,114.944 L94.32,117.164 L98.34,117.164 L98.34,118.424 L94.32,118.424 L94.32,120.668 L98.94,120.668 L98.94,122 L92.904,122 L92.904,113.612 L98.796,113.612 Z M105.288,115.388 C104.967998,116.380005 104.808,117.335995 104.808,118.256 C104.808,119.176005 104.967998,120.133995 105.288,121.13 C105.608002,122.126005 105.999998,122.947997 106.464,123.596 L105.036,123.596 C104.643998,123.051997 104.286002,122.276005 103.962,121.268 C103.637998,120.259995 103.476,119.256005 103.476,118.256 C103.476,117.255995 103.637998,116.252005 103.962,115.244 C104.286002,114.235995 104.643998,113.460003 105.036,112.916 L106.464,112.916 C105.999998,113.564003 105.608002,114.387995 105.288,115.388 Z M111.324,122 L109.884,122 L109.884,118.688 L106.764,113.612 L108.312,113.612 L110.604,117.428 L112.896,113.612 L114.444,113.612 L111.324,118.688 L111.324,122 Z M121.404,113.612 L121.404,114.944 L116.928,114.944 L116.928,117.164 L120.948,117.164 L120.948,118.424 L116.928,118.424 L116.928,120.668 L121.548,120.668 L121.548,122 L115.512,122 L115.512,113.612 L121.404,113.612 Z M124.548,120.092 L123.708,122 L122.196,122 L125.892,113.612 L127.404,113.612 L131.1,122 L129.588,122 L128.748,120.092 L124.548,120.092 Z M128.172,118.784 L126.648,115.328 L125.124,118.784 L128.172,118.784 Z M138.96,116.336 C138.96,117.720007 138.356006,118.591998 137.148,118.952 L139.344,122 L137.544,122 L135.54,119.18 L133.68,119.18 L133.68,122 L132.264,122 L132.264,113.612 L135.384,113.612 C136.664006,113.612 137.579997,113.827998 138.132,114.26 C138.684003,114.692002 138.96,115.383995 138.96,116.336 Z M135.444,117.896 C136.244004,117.896 136.787999,117.772001 137.076,117.524 C137.364001,117.275999 137.508,116.878003 137.508,116.33 C137.508,115.781997 137.360001,115.406001 137.064,115.202 C136.767999,114.997999 136.240004,114.896 135.48,114.896 L133.68,114.896 L133.68,117.896 L135.444,117.896 Z M146.82,114.716 C146.411998,114.716 146.076001,114.799999 145.812,114.968 C145.547999,115.136001 145.416,115.389998 145.416,115.73 C145.416,116.070002 145.547999,116.329999 145.812,116.51 C146.076001,116.690001 146.637996,116.883999 147.498,117.092 C148.358004,117.300001 149.005998,117.591998 149.442,117.968 C149.878002,118.344002 150.096,118.897996 150.096,119.63 C150.096,120.362004 149.820003,120.955998 149.268,121.412 C148.715997,121.868002 147.992004,122.096 147.096,122.096 C145.783993,122.096 144.620005,121.644005 143.604,120.74 L144.492,119.672 C145.340004,120.408004 146.219995,120.776 147.132,120.776 C147.588002,120.776 147.949999,120.678001 148.218,120.482 C148.486001,120.285999 148.62,120.026002 148.62,119.702 C148.62,119.377998 148.494001,119.126001 148.242,118.946 C147.989999,118.765999 147.556003,118.602001 146.94,118.454 C146.323997,118.305999 145.856002,118.170001 145.536,118.046 C145.215998,117.921999 144.932001,117.760001 144.684,117.56 C144.187998,117.183998 143.94,116.608004 143.94,115.832 C143.94,115.055996 144.221997,114.458002 144.786,114.038 C145.350003,113.617998 146.047996,113.408 146.88,113.408 C147.416003,113.408 147.947997,113.495999 148.476,113.672 C149.004003,113.848001 149.459998,114.095998 149.844,114.416 L149.088,115.484 C148.839999,115.259999 148.504002,115.076001 148.08,114.932 C147.655998,114.787999 147.236002,114.716 146.82,114.716 Z M155.016,114.908 L155.016,122 L153.6,122 L153.6,114.908 L151.056,114.908 L151.056,113.612 L157.56,113.612 L157.56,114.908 L155.016,114.908 Z M160.284,120.092 L159.444,122 L157.932,122 L161.628,113.612 L163.14,113.612 L166.836,122 L165.324,122 L164.484,120.092 L160.284,120.092 Z M163.908,118.784 L162.384,115.328 L160.86,118.784 L163.908,118.784 Z M174.696,116.336 C174.696,117.720007 174.092006,118.591998 172.884,118.952 L175.08,122 L173.28,122 L171.276,119.18 L169.416,119.18 L169.416,122 L168,122 L168,113.612 L171.12,113.612 C172.400006,113.612 173.315997,113.827998 173.868,114.26 C174.420003,114.692002 174.696,115.383995 174.696,116.336 Z M171.18,117.896 C171.980004,117.896 172.523999,117.772001 172.812,117.524 C173.100001,117.275999 173.244,116.878003 173.244,116.33 C173.244,115.781997 173.096001,115.406001 172.8,115.202 C172.503999,114.997999 171.976004,114.896 171.216,114.896 L169.416,114.896 L169.416,117.896 L171.18,117.896 Z M179.904,114.908 L179.904,122 L178.488,122 L178.488,114.908 L175.944,114.908 L175.944,113.612 L182.448,113.612 L182.448,114.908 L179.904,114.908 Z M184.392,121.136 C184.712002,120.135995 184.872,119.176005 184.872,118.256 C184.872,117.335995 184.712002,116.378005 184.392,115.382 C184.071998,114.385995 183.680002,113.564003 183.216,112.916 L184.644,112.916 C185.036002,113.460003 185.393998,114.235995 185.718,115.244 C186.042002,116.252005 186.204,117.255995 186.204,118.256 C186.204,119.256005 186.042002,120.259995 185.718,121.268 C185.393998,122.276005 185.036002,123.051997 184.644,123.596 L183.216,123.596 C183.680002,122.947997 184.071998,122.128005 184.392,121.136 Z" id="321-AVERAGE-(YEAR-ST-Copy-2" fill="#000000" opacity="0.262416295"></path>
            <polygon id="Fill-1-Copy" fill="#D1E6FE" points="0 30 172 30 172 0 0 0"></polygon>
            <polygon id="Fill-2-Copy" fill="#84AFFF" points="0 59 258 59 258 29 0 29"></polygon>
            <polygon id="Fill-3-Copy" fill="#E6E7E8" points="0 89 186 89 186 59 0 59"></polygon>
            <path d="M187.072,9.612 L187.072,11.232 L183.76,11.232 L183.76,12.636 C184.008001,12.5639996 184.291998,12.528 184.612,12.528 C185.420004,12.528 186.115997,12.7719976 186.7,13.26 C187.284003,13.7480024 187.576,14.4059959 187.576,15.234 C187.576,16.0620041 187.274003,16.7459973 186.67,17.286 C186.065997,17.8260027 185.320004,18.096 184.432,18.096 C183.295994,18.096 182.348004,17.6760042 181.588,16.836 L182.572,15.468 C182.644,15.5400004 182.739999,15.6279995 182.86,15.732 C182.980001,15.8360005 183.199998,15.9739991 183.52,16.146 C183.840002,16.3180009 184.159998,16.404 184.48,16.404 C184.800002,16.404 185.083999,16.308001 185.332,16.116 C185.580001,15.923999 185.704,15.6400019 185.704,15.264 C185.704,14.8879981 185.570001,14.598001 185.302,14.394 C185.033999,14.189999 184.688002,14.088 184.264,14.088 C183.839998,14.088 183.348003,14.2399985 182.788,14.544 L182.008,13.704 L182.008,9.612 L187.072,9.612 Z M191.056,11.736 C190.791999,12.2480026 190.66,12.9239958 190.66,13.764 C190.66,14.6040042 190.791999,15.2799974 191.056,15.792 C191.320001,16.3040026 191.731997,16.56 192.292,16.56 C192.852003,16.56 193.263999,16.3040026 193.528,15.792 C193.792001,15.2799974 193.924,14.6040042 193.924,13.764 C193.924,12.9239958 193.792001,12.2480026 193.528,11.736 C193.263999,11.2239974 192.852003,10.968 192.292,10.968 C191.731997,10.968 191.320001,11.2239974 191.056,11.736 Z M192.292,18.096 C191.131994,18.096 190.264003,17.7020039 189.688,16.914 C189.111997,16.1259961 188.824,15.0740066 188.824,13.758 C188.824,12.4419934 189.111997,11.3900039 189.688,10.602 C190.264003,9.81399606 191.131994,9.42 192.292,9.42 C193.452006,9.42 194.319997,9.81399606 194.896,10.602 C195.472003,11.3900039 195.76,12.4419934 195.76,13.758 C195.76,15.0740066 195.472003,16.1259961 194.896,16.914 C194.319997,17.7020039 193.452006,18.096 192.292,18.096 Z M205.348,9.612 L199.336,18 L197.272,18 L203.296,9.612 L205.348,9.612 Z M203.332,16.848 C203.428,16.9520005 203.547999,17.004 203.692,17.004 C203.836001,17.004 203.956,16.9500005 204.052,16.842 C204.148,16.7339995 204.196,16.5920009 204.196,16.416 C204.196,16.2399991 204.148,16.0940006 204.052,15.978 C203.956,15.8619994 203.838001,15.804 203.698,15.804 C203.557999,15.804 203.44,15.8619994 203.344,15.978 C203.248,16.0940006 203.2,16.2399991 203.2,16.416 C203.2,16.5920009 203.244,16.7359994 203.332,16.848 Z M205.468,16.416 C205.468,16.8880024 205.300002,17.2859984 204.964,17.61 C204.627998,17.9340016 204.206003,18.096 203.698,18.096 C203.189997,18.096 202.768002,17.9320016 202.432,17.604 C202.095998,17.2759984 201.928,16.8780023 201.928,16.41 C201.928,15.9419977 202.095998,15.5440016 202.432,15.216 C202.768002,14.8879984 203.189997,14.724 203.698,14.724 C204.206003,14.724 204.627998,14.8879984 204.964,15.216 C205.300002,15.5440016 205.468,15.9439976 205.468,16.416 Z M198.604,11.94 C198.7,12.0440005 198.819999,12.096 198.964,12.096 C199.108001,12.096 199.228,12.0420005 199.324,11.934 C199.42,11.8259995 199.468,11.6840009 199.468,11.508 C199.468,11.3319991 199.42,11.1860006 199.324,11.07 C199.228,10.9539994 199.110001,10.896 198.97,10.896 C198.829999,10.896 198.712,10.9539994 198.616,11.07 C198.52,11.1860006 198.472,11.3319991 198.472,11.508 C198.472,11.6840009 198.516,11.8279994 198.604,11.94 Z M200.74,11.508 C200.74,11.9800024 200.572002,12.3779984 200.236,12.702 C199.899998,13.0260016 199.478003,13.188 198.97,13.188 C198.461997,13.188 198.040002,13.0240016 197.704,12.696 C197.367998,12.3679984 197.2,11.9700023 197.2,11.502 C197.2,11.0339977 197.367998,10.6360016 197.704,10.308 C198.040002,9.97999836 198.461997,9.816 198.97,9.816 C199.478003,9.816 199.899998,9.97999836 200.236,10.308 C200.572002,10.6360016 200.74,11.0359976 200.74,11.508 Z" id="50%-copy" fill="#84AFFF"></path>
            <path d="M267.564,42.3 L267.564,39.612 L273.624,39.612 L273.624,41.028 L270.228,48 L268.188,48 L271.428,41.22 L269.316,41.22 L269.316,42.3 L267.564,42.3 Z M280.02,39.612 L280.02,41.232 L276.708,41.232 L276.708,42.636 C276.956001,42.5639996 277.239998,42.528 277.56,42.528 C278.368004,42.528 279.063997,42.7719976 279.648,43.26 C280.232003,43.7480024 280.524,44.4059959 280.524,45.234 C280.524,46.0620041 280.222003,46.7459973 279.618,47.286 C279.013997,47.8260027 278.268004,48.096 277.38,48.096 C276.243994,48.096 275.296004,47.6760042 274.536,46.836 L275.52,45.468 C275.592,45.5400004 275.687999,45.6279995 275.808,45.732 C275.928001,45.8360005 276.147998,45.9739991 276.468,46.146 C276.788002,46.3180009 277.107998,46.404 277.428,46.404 C277.748002,46.404 278.031999,46.308001 278.28,46.116 C278.528001,45.923999 278.652,45.6400019 278.652,45.264 C278.652,44.8879981 278.518001,44.598001 278.25,44.394 C277.981999,44.189999 277.636002,44.088 277.212,44.088 C276.787998,44.088 276.296003,44.2399985 275.736,44.544 L274.956,43.704 L274.956,39.612 L280.02,39.612 Z M290.016,39.612 L284.004,48 L281.94,48 L287.964,39.612 L290.016,39.612 Z M288,46.848 C288.096,46.9520005 288.215999,47.004 288.36,47.004 C288.504001,47.004 288.624,46.9500005 288.72,46.842 C288.816,46.7339995 288.864,46.5920009 288.864,46.416 C288.864,46.2399991 288.816,46.0940006 288.72,45.978 C288.624,45.8619994 288.506001,45.804 288.366,45.804 C288.225999,45.804 288.108,45.8619994 288.012,45.978 C287.916,46.0940006 287.868,46.2399991 287.868,46.416 C287.868,46.5920009 287.912,46.7359994 288,46.848 Z M290.136,46.416 C290.136,46.8880024 289.968002,47.2859984 289.632,47.61 C289.295998,47.9340016 288.874003,48.096 288.366,48.096 C287.857997,48.096 287.436002,47.9320016 287.1,47.604 C286.763998,47.2759984 286.596,46.8780023 286.596,46.41 C286.596,45.9419977 286.763998,45.5440016 287.1,45.216 C287.436002,44.8879984 287.857997,44.724 288.366,44.724 C288.874003,44.724 289.295998,44.8879984 289.632,45.216 C289.968002,45.5440016 290.136,45.9439976 290.136,46.416 Z M283.272,41.94 C283.368,42.0440005 283.487999,42.096 283.632,42.096 C283.776001,42.096 283.896,42.0420005 283.992,41.934 C284.088,41.8259995 284.136,41.6840009 284.136,41.508 C284.136,41.3319991 284.088,41.1860006 283.992,41.07 C283.896,40.9539994 283.778001,40.896 283.638,40.896 C283.497999,40.896 283.38,40.9539994 283.284,41.07 C283.188,41.1860006 283.14,41.3319991 283.14,41.508 C283.14,41.6840009 283.184,41.8279994 283.272,41.94 Z M285.408,41.508 C285.408,41.9800024 285.240002,42.3779984 284.904,42.702 C284.567998,43.0260016 284.146003,43.188 283.638,43.188 C283.129997,43.188 282.708002,43.0240016 282.372,42.696 C282.035998,42.3679984 281.868,41.9700023 281.868,41.502 C281.868,41.0339977 282.035998,40.6360016 282.372,40.308 C282.708002,39.9799984 283.129997,39.816 283.638,39.816 C284.146003,39.816 284.567998,39.9799984 284.904,40.308 C285.240002,40.6360016 285.408,41.0359976 285.408,41.508 Z" id="75%-copy" fill="#84AFFF"></path>
            <path d="M200.072,69.612 L200.072,71.232 L196.76,71.232 L196.76,72.636 C197.008001,72.5639996 197.291998,72.528 197.612,72.528 C198.420004,72.528 199.115997,72.7719976 199.7,73.26 C200.284003,73.7480024 200.576,74.4059959 200.576,75.234 C200.576,76.0620041 200.274003,76.7459973 199.67,77.286 C199.065997,77.8260027 198.320004,78.096 197.432,78.096 C196.295994,78.096 195.348004,77.6760042 194.588,76.836 L195.572,75.468 C195.644,75.5400004 195.739999,75.6279995 195.86,75.732 C195.980001,75.8360005 196.199998,75.9739991 196.52,76.146 C196.840002,76.3180009 197.159998,76.404 197.48,76.404 C197.800002,76.404 198.083999,76.308001 198.332,76.116 C198.580001,75.923999 198.704,75.6400019 198.704,75.264 C198.704,74.8879981 198.570001,74.598001 198.302,74.394 C198.033999,74.189999 197.688002,74.088 197.264,74.088 C196.839998,74.088 196.348003,74.2399985 195.788,74.544 L195.008,73.704 L195.008,69.612 L200.072,69.612 Z M204.956,74.376 L204.956,72.912 L206.756,72.912 L206.756,74.376 L207.704,74.376 L207.704,75.996 L206.756,75.996 L206.756,78 L204.956,78 L204.956,75.996 L201.584,75.996 L201.584,74.568 L204.572,69.612 L206.612,69.612 L203.768,74.376 L204.956,74.376 Z M217.124,69.612 L211.112,78 L209.048,78 L215.072,69.612 L217.124,69.612 Z M215.108,76.848 C215.204,76.9520005 215.323999,77.004 215.468,77.004 C215.612001,77.004 215.732,76.9500005 215.828,76.842 C215.924,76.7339995 215.972,76.5920009 215.972,76.416 C215.972,76.2399991 215.924,76.0940006 215.828,75.978 C215.732,75.8619994 215.614001,75.804 215.474,75.804 C215.333999,75.804 215.216,75.8619994 215.12,75.978 C215.024,76.0940006 214.976,76.2399991 214.976,76.416 C214.976,76.5920009 215.02,76.7359994 215.108,76.848 Z M217.244,76.416 C217.244,76.8880024 217.076002,77.2859984 216.74,77.61 C216.403998,77.9340016 215.982003,78.096 215.474,78.096 C214.965997,78.096 214.544002,77.9320016 214.208,77.604 C213.871998,77.2759984 213.704,76.8780023 213.704,76.41 C213.704,75.9419977 213.871998,75.5440016 214.208,75.216 C214.544002,74.8879984 214.965997,74.724 215.474,74.724 C215.982003,74.724 216.403998,74.8879984 216.74,75.216 C217.076002,75.5440016 217.244,75.9439976 217.244,76.416 Z M210.38,71.94 C210.476,72.0440005 210.595999,72.096 210.74,72.096 C210.884001,72.096 211.004,72.0420005 211.1,71.934 C211.196,71.8259995 211.244,71.6840009 211.244,71.508 C211.244,71.3319991 211.196,71.1860006 211.1,71.07 C211.004,70.9539994 210.886001,70.896 210.746,70.896 C210.605999,70.896 210.488,70.9539994 210.392,71.07 C210.296,71.1860006 210.248,71.3319991 210.248,71.508 C210.248,71.6840009 210.292,71.8279994 210.38,71.94 Z M212.516,71.508 C212.516,71.9800024 212.348002,72.3779984 212.012,72.702 C211.675998,73.0260016 211.254003,73.188 210.746,73.188 C210.237997,73.188 209.816002,73.0240016 209.48,72.696 C209.143998,72.3679984 208.976,71.9700023 208.976,71.502 C208.976,71.0339977 209.143998,70.6360016 209.48,70.308 C209.816002,69.9799984 210.237997,69.816 210.746,69.816 C211.254003,69.816 211.675998,69.9799984 212.012,70.308 C212.348002,70.6360016 212.516,71.0359976 212.516,71.508 Z" id="54%-copy" fill="#BDBDBD"></path>
        </g>
    </g>
</svg>