<?xml version="1.0" encoding="UTF-8"?>
<svg width="321px" height="368px" viewBox="0 0 321 368" version="1.1" xmlns="http://www.w3.org/2000/svg" xmlns:xlink="http://www.w3.org/1999/xlink">
    <!-- Generator: Sketch 52.3 (67297) - http://www.bohemiancoding.com/sketch -->
    <title>Group 11</title>
    <desc>Created with Sketch.</desc>
    <defs>
        <path d="M54.9651213,2.08451719e-11 L56.2620187,2.08451719e-11 C59.813552,0.169926407 63.2410978,1.73030184 65.8262936,4.43110505 L74,5.1565966 L74,5.16296554 L69.9371623,12.6439291 C70.934081,18.526603 68.5853274,24.6002729 63.720995,28.0381992 C64.1532742,29.260573 64.4968243,30.5593452 64.6739157,31.9345157 C65.5051091,38.5811733 62.7460752,44.8076398 58.0258359,48.5893588 L58.0482015,48.6657572 L57.4498303,49.0095498 C56.6963666,49.5825375 55.8985383,50.0791269 55.0567122,50.4993179 L0,84 L22.2595915,44.7312415 L0,17.4952251 L37.6940482,17.4952251 L42.6027452,8.82401091 C43.0236583,7.86903138 43.5223009,6.95225102 44.1206721,6.11186903 L44.3201292,5.7680764 L44.3311286,5.80627558 C45.5388705,4.16371078 47.0677969,2.78854025 48.8959088,1.75716235 C50.839721,0.668370405 52.9085338,0.0985686837 54.965131,0 L54.9651213,2.08451719e-11 Z M56.6630015,6.07366985 C55.4442602,6.76125512 54.9789826,8.36562074 55.6217183,9.66439291 C56.2640874,10.9631651 57.7933804,11.4597544 59.0121217,10.7721692 C60.2532286,10.0845839 60.7185062,8.48021828 60.064771,7.18144611 C59.4220353,5.88267394 57.8931089,5.38608458 56.6630015,6.07366985 Z" id="path-1"></path>
        <path d="M28.9681045,1.11670564e-11 L29.6516044,1.11670564e-11 C31.5233585,0.0910320035 33.3297677,0.926947416 34.6922358,2.37380628 L39,2.76246247 L39,2.7658744 L36.8587747,6.77353342 C37.3841778,9.92496589 36.1463212,13.1787176 33.5826865,15.0204638 C33.8105093,15.675307 33.9915696,16.3710778 34.0849015,17.1077763 C34.5229629,20.6684857 33.0688775,24.0040928 30.5811838,26.0300136 L30.592971,26.0709413 L30.2776133,26.255116 C29.8805175,26.5620737 29.4600405,26.8281037 29.0163753,27.053206 L0,45 L11.7314063,23.9631651 L0,9.37244202 L19.8657822,9.37244202 L22.4527982,4.7271487 C22.6746307,4.21555252 22.9374289,3.72442019 23.2527867,3.27421555 L23.3579059,3.09004093 L23.3637029,3.11050477 C24.0002155,2.23055935 24.8060011,1.49386085 25.7694655,0.941336971 C26.793907,0.358055574 27.8842273,0.052804652 28.9681096,0 L28.9681045,1.11670564e-11 Z M29.8629332,3.25375171 C29.2206236,3.62210095 28.9754097,4.48158254 29.3141488,5.17735334 C29.6526947,5.87312415 30.4586735,6.13915416 31.1009831,5.77080491 C31.7550799,5.40245566 32.0002938,4.54297408 31.6557577,3.84720327 C31.3170186,3.15143247 30.5112331,2.88540246 29.8629332,3.25375171 Z" id="path-3"></path>
        <path d="M17.0837539,6.70023382e-12 L17.4868436,6.70023382e-12 C18.5906986,0.0546192021 19.6560169,0.55616845 20.4595237,1.42428377 L23,1.65747748 L23,1.65952464 L21.7372261,4.06412005 C22.0470792,5.95497954 21.3170612,7.90723056 19.8051741,9.01227831 C19.9395312,9.40518417 20.0463102,9.82264666 20.1013522,10.2646658 C20.3596961,12.4010914 19.5021585,14.4024557 18.0350571,15.6180082 L18.0420086,15.6425648 L17.8560283,15.7530696 C17.6218437,15.9372442 17.37387,16.0968622 17.1122214,16.2319236 L0,27 L6.91852167,14.377899 L0,5.62346521 L11.7157177,5.62346521 L13.2413938,2.83628922 C13.3722181,2.52933151 13.5272016,2.23465211 13.7131819,1.96452933 L13.7751753,1.85402456 L13.778594,1.86630286 C14.1539733,1.33833561 14.6291801,0.896316508 15.1973771,0.564802183 C15.8015349,0.214833344 16.4445443,0.0316827912 17.0837569,0 L17.0837539,6.70023382e-12 Z M17.6114734,1.95225102 C17.2326755,2.17326057 17.0880622,2.68894952 17.2878314,3.10641201 C17.4874866,3.52387449 17.9628074,3.6834925 18.3416054,3.46248295 C18.7273548,3.2414734 18.8719681,2.72578445 18.6687802,2.30832196 C18.469011,1.89085948 17.9938041,1.73124147 17.6114734,1.95225102 Z" id="path-5"></path>
    </defs>
    <g id="Page-1" stroke="none" stroke-width="1" fill="none" fill-rule="evenodd">
        <g id="321-WEB-V2-ABOUT-Mobile" transform="translate(-29.000000, -5616.000000)">
            <g id="Group-11" transform="translate(29.000000, 5616.000000)">
                <g id="Group-3-Copy-11" transform="translate(3.000000, 284.000000)">
                    <mask id="mask-2" fill="white">
                        <use xlink:href="#path-1"></use>
                    </mask>
                    <g id="Clip-396"></g>
                    <polygon id="Fill-395" fill="#FED445" mask="url(#mask-2)" points="-18 103 95 103 95 -19 -18 -19"></polygon>
                </g>
                <g id="Group-3-Copy-12" transform="translate(0.000000, 13.000000)">
                    <mask id="mask-4" fill="white">
                        <use xlink:href="#path-3"></use>
                    </mask>
                    <g id="Clip-396"></g>
                    <polygon id="Fill-395" fill="#FED445" mask="url(#mask-4)" points="-9 55 50 55 50 -10 -9 -10"></polygon>
                </g>
                <g id="Group-3-Copy-13" transform="translate(298.000000, 0.000000)">
                    <mask id="mask-6" fill="white">
                        <use xlink:href="#path-5"></use>
                    </mask>
                    <g id="Clip-396"></g>
                    <polygon id="Fill-395" fill="#FED445" mask="url(#mask-6)" points="-5 33 30 33 30 -6 -5 -6"></polygon>
                </g>
            </g>
        </g>
    </g>
</svg>