<?xml version="1.0" encoding="UTF-8"?>
<svg width="421px" height="345px" viewBox="0 0 421 345" version="1.1" xmlns="http://www.w3.org/2000/svg" xmlns:xlink="http://www.w3.org/1999/xlink">
    <!-- Generator: Sketch 52.3 (67297) - http://www.bohemiancoding.com/sketch -->
    <title>Group 6</title>
    <desc>Created with Sketch.</desc>
    <defs>
        <path d="M213.91831,8.18917467e-11 L218.965694,8.18917467e-11 C232.787878,0.667568026 246.127516,6.79761439 256.188818,17.4079127 L288,20.2580581 L288,20.2830789 L272.187875,49.6725784 C276.067775,72.7830832 266.92668,96.6439291 247.995224,110.150068 C249.677608,114.952251 251.014667,120.05457 251.703888,125.457026 C254.938803,151.568895 244.200941,176.030014 225.83028,190.886767 L225.917325,191.186903 L223.588529,192.537517 C220.656129,194.78854 217.551068,196.739427 214.274772,198.390177 L0,330 L86.6319235,175.729877 L0,68.7312415 L146.701161,68.7312415 L165.805279,34.6657572 C167.443427,30.9140518 169.38409,27.3124147 171.712886,24.0109141 L172.489151,22.6603001 L172.53196,22.8103683 C177.232361,16.3574352 183.182777,10.9549795 190.297591,6.90313779 C197.862698,2.62574088 205.914294,0.387234115 213.918348,0 L213.91831,8.18917467e-11 Z M220.526276,23.8608458 C215.783067,26.5620737 213.972257,32.8649386 216.473714,37.9672578 C218.973745,43.0695771 224.925589,45.0204638 229.668798,42.319236 C234.499052,39.6180082 236.309862,33.3151432 233.765595,28.212824 C231.264137,23.1105048 225.313721,21.159618 220.526276,23.8608458 Z" id="path-1"></path>
        <path d="M83.1904539,3.20122282e-11 L85.1533256,3.20122282e-11 C90.5286192,0.26095841 95.7162561,2.65724926 99.6289849,6.80491132 L112,7.91905907 L112,7.92883994 L105.85084,19.4174625 C107.35969,28.4515689 103.80482,37.7789905 96.442587,43.058663 C97.0968474,44.9358799 97.6168151,46.9304229 97.8848455,49.042292 C99.1428678,59.2496589 94.9670328,68.8117326 87.8228867,74.6193724 L87.8567373,74.7366985 L86.9510945,75.2646658 C85.810717,76.1446112 84.6031931,76.9072306 83.3290779,77.5525239 L0,129 L33.6901925,68.6944065 L0,26.8676671 L57.0504514,26.8676671 L64.4798306,13.5511596 C65.1168882,12.0845839 65.8715906,10.6766712 66.7772335,9.38608458 L67.0791144,8.85811733 L67.0957623,8.91678035 C68.9236959,6.39427012 71.2377466,4.28240109 74.0046188,2.69849932 C76.9466048,1.02642598 80.0777809,0.151373336 83.1904685,0 L83.1904539,3.20122282e-11 Z M85.7602185,9.32742156 C83.915637,10.3833561 83.2114331,12.8472033 84.1842223,14.8417462 C85.1564566,16.8362892 87.4710622,17.5989086 89.3156437,16.5429741 C91.1940757,15.4870396 91.8982797,13.0231924 90.9088426,11.0286494 C89.9360534,9.03410641 87.6220027,8.27148704 85.7602185,9.32742156 Z" id="path-3"></path>
        <path d="M51.2512618,1.98525446e-11 L52.4605309,1.98525446e-11 C55.7720958,0.161834673 58.9680506,1.64790652 61.378571,4.22010005 L69,4.91104438 L69,4.91711004 L65.2116784,12.0418372 C66.1412377,17.6443838 63.9511837,23.4288313 59.4155223,26.7030468 C59.8185935,27.8672124 60.1389307,29.1041382 60.3040566,30.4138245 C61.0790882,36.7439745 58.5064756,42.6739427 54.1051713,46.2755798 L54.1260257,46.3483402 L53.568085,46.6757617 C52.865531,47.2214643 52.12161,47.6944065 51.3366641,48.0945884 L0,80 L20.755565,42.6011824 L0,16.6621191 L35.1471531,16.6621191 L39.7241813,8.40381992 C40.1166543,7.4943156 40.5816049,6.62119145 41.1395456,5.82082765 L41.3255259,5.49340609 L41.3357821,5.52978627 C42.4619198,3.96543884 43.8875403,2.65575261 45.5921312,1.67348795 C47.4046048,0.636543243 49.3336329,0.0938749369 51.2512708,0 L51.2512618,1.98525446e-11 Z M52.8344203,5.78444748 C51.6980264,6.43929059 51.2641865,7.96725784 51.8634941,9.20418372 C52.4624598,10.4411096 53.8884223,10.9140518 55.0248162,10.2592087 C56.1820645,9.60436562 56.6159044,8.07639836 56.0063406,6.83947249 C55.4070329,5.60254661 53.9814124,5.12960437 52.8344203,5.78444748 Z" id="path-5"></path>
    </defs>
    <g id="Page-1" stroke="none" stroke-width="1" fill="none" fill-rule="evenodd">
        <g id="Group-13" transform="translate(-247.000000, -90.000000)">
            <g id="Group-7" transform="translate(138.000000, 90.000000)">
                <g id="Group-6" transform="translate(109.000000, 0.000000)">
                    <g id="Group-3-Copy-10">
                        <mask id="mask-2" fill="white">
                            <use xlink:href="#path-1"></use>
                        </mask>
                        <g id="Clip-396"></g>
                        <polygon id="Fill-395" fill="#FED445" mask="url(#mask-2)" points="-71 411 367 411 367 -70 -71 -70"></polygon>
                    </g>
                    <g id="Group-3-Copy-12" transform="translate(309.000000, 76.000000)">
                        <mask id="mask-4" fill="white">
                            <use xlink:href="#path-3"></use>
                        </mask>
                        <g id="Clip-396"></g>
                        <polygon id="Fill-395" fill="#FED445" mask="url(#mask-4)" points="-28 161 142 161 142 -27 -28 -27"></polygon>
                    </g>
                    <g id="Group-3-Copy-15" transform="translate(226.000000, 265.000000)">
                        <mask id="mask-6" fill="white">
                            <use xlink:href="#path-5"></use>
                        </mask>
                        <g id="Clip-396"></g>
                        <polygon id="Fill-395" fill="#FED445" mask="url(#mask-6)" points="-17 100 88 100 88 -17 -17 -17"></polygon>
                    </g>
                </g>
            </g>
        </g>
    </g>
</svg>